<svg width="60" height="60" viewBox="0 0 60 60" fill="none" xmlns="http://www.w3.org/2000/svg">
<rect opacity="0.2" width="60" height="60" rx="12" fill="url(#paint0_linear_4_11568)"/>
<g clip-path="url(#clip0_4_11568)">
<path fill-rule="evenodd" clip-rule="evenodd" d="M51.75 37.3173C51.75 41.56 42.0174 44.9998 30.0011 44.9998C17.9848 44.9998 8.25 41.56 8.25 37.3173C8.25 33.0745 17.9826 29.6348 30.0011 29.6348C42.0197 29.6348 51.75 33.0745 51.75 37.3173Z" fill="#E2CAB3"/>
<path fill-rule="evenodd" clip-rule="evenodd" d="M51.75 36.4701C51.75 40.7128 42.0174 44.1526 30.0011 44.1526C17.9848 44.1526 8.25 40.7128 8.25 36.4701C8.25 32.2274 17.9826 28.7876 30.0011 28.7876C42.0197 28.7876 51.75 32.2274 51.75 36.4701Z" fill="white"/>
<path fill-rule="evenodd" clip-rule="evenodd" d="M51.75 36.3486C51.75 40.4586 42.0174 43.79 30.0011 43.79C17.9848 43.79 8.25 40.4586 8.25 36.3486C8.25 32.2386 17.9826 28.9094 30.0011 28.9094C42.0197 28.9094 51.75 32.2408 51.75 36.3486Z" fill="#E7D8C8"/>
<path fill-rule="evenodd" clip-rule="evenodd" d="M50.7854 36.3485C50.7854 39.2817 42.4562 41.6575 32.1827 41.6575C21.9092 41.6575 13.5776 39.2817 13.5776 36.3485C13.5776 33.4153 21.9069 31.0396 32.1827 31.0396C42.4584 31.0396 50.7854 33.4175 50.7854 36.3485Z" fill="#E2CAB3"/>
<path d="M49.2171 36.5388C48.821 34.7249 46.8926 33.9574 45.3694 33.8357C44.4301 33.7627 43.4908 33.9574 42.5537 34.0082C42.0331 34.0374 41.5108 34.0166 40.9943 33.9463C40.4239 33.8689 39.8784 33.6676 39.3035 33.6211C38.3054 33.5415 37.3163 33.8799 36.386 34.2339C35.2928 34.6519 34.1996 35.0324 33.0792 35.3554C30.8692 36.0134 28.5923 36.434 26.289 36.6096C25.3522 36.693 24.4093 36.6878 23.4734 36.5941C22.817 36.5145 22.1697 36.3729 21.5133 36.2977C20.3635 36.1716 19.0892 36.3198 18.6252 37.6404C18.2774 37.6393 17.9343 37.7197 17.6248 37.8749C17.1563 38.0718 16.5293 38.4213 16.2872 38.9279C15.7824 39.9874 17.4188 40.4033 18.0254 40.5161C18.6026 40.6223 19.1843 40.6599 19.7637 40.7196C20.5695 40.8037 21.2168 41.1775 21.8981 41.6332C23.616 42.7813 25.9088 42.8565 27.8644 42.7238C28.943 42.6447 30.0095 42.4496 31.0444 42.142C32.1376 41.8234 33.2625 42.0159 34.3671 42.1995C35.3158 42.3953 36.3011 42.3373 37.2189 42.0314C38.1424 41.7106 38.9436 41.1244 39.7336 40.536C40.6548 39.8503 41.7027 39.8083 42.7869 39.722C43.8556 39.6572 44.9162 39.498 45.9556 39.2464C46.8282 39.0309 47.6778 38.7346 48.4929 38.3616C49.1854 38.0054 49.3801 37.3418 49.2171 36.5388Z" fill="#EEBE30"/>
<path d="M43.0427 34.9616C43.0427 37.8196 36.8342 40.4763 29.3582 40.4763C21.8823 40.4763 15.624 37.6227 15.624 34.7647C15.624 31.9067 21.8823 30.1194 29.3582 30.1194C36.8342 30.1194 43.0427 32.1036 43.0427 34.9616Z" fill="#E3AC8A"/>
<path d="M42.8936 34.4106C42.8936 37.2686 36.8346 39.5846 29.3586 39.5846C21.8826 39.5846 15.8213 37.2686 15.8213 34.4106C15.8213 31.5526 21.8826 29.2344 29.3586 29.2344C36.8346 29.2344 42.8936 31.5526 42.8936 34.4106Z" fill="#DA840D"/>
<path d="M39.2041 33.9195C39.2041 36.0408 34.709 37.7574 29.1614 37.7574C23.6139 37.7574 19.1143 36.0408 19.1143 33.9195C19.1143 31.7981 23.6161 30.0815 29.1614 30.0815C34.7067 30.0815 39.2041 31.8114 39.2041 33.9195Z" fill="#F0A508"/>
<path d="M22.4028 35.3353C22.4028 35.5565 22.147 35.7489 21.8301 35.7489C21.5133 35.7489 21.2598 35.5631 21.2598 35.3353C21.2598 35.1074 21.5155 34.9216 21.8301 34.9216C22.1448 34.9216 22.4028 35.1074 22.4028 35.3353Z" fill="#DA840D"/>
<path d="M21.2599 33.5947C21.2568 33.6557 21.2355 33.7144 21.1986 33.7636C21.1617 33.8128 21.1109 33.8504 21.0524 33.8716C20.9938 33.8929 20.9302 33.8969 20.8694 33.8831C20.8086 33.8694 20.7532 33.8386 20.7101 33.7944C20.6671 33.7502 20.6382 33.6947 20.6271 33.6346C20.6161 33.5746 20.6232 33.5127 20.6478 33.4566C20.6723 33.4005 20.7132 33.3526 20.7653 33.319C20.8174 33.2854 20.8784 33.2674 20.9408 33.2673C20.9838 33.2682 21.0262 33.2774 21.0656 33.2943C21.1049 33.3113 21.1405 33.3357 21.1701 33.3661C21.1998 33.3965 21.223 33.4324 21.2384 33.4716C21.2538 33.5109 21.2612 33.5527 21.2599 33.5947Z" fill="#DA840D"/>
<path d="M25.2253 35.8374C25.2325 35.9449 25.2066 36.0521 25.1507 36.1451C25.0948 36.238 25.0117 36.3123 24.9121 36.3585C24.8124 36.4047 24.7009 36.4205 24.5919 36.4039C24.4829 36.3874 24.3816 36.3392 24.301 36.2656C24.2204 36.192 24.1643 36.0965 24.14 35.9914C24.1157 35.8863 24.1243 35.7764 24.1646 35.6761C24.205 35.5758 24.2752 35.4897 24.3663 35.4289C24.4573 35.3681 24.565 35.3355 24.6753 35.3353C24.7451 35.3329 24.8148 35.344 24.8802 35.368C24.9457 35.3919 25.0057 35.4283 25.0568 35.4749C25.1079 35.5216 25.149 35.5776 25.1779 35.6398C25.2069 35.702 25.2229 35.7691 25.2253 35.8374Z" fill="#DA840D"/>
<path d="M24.0303 33.8444C24.0303 33.9816 23.8741 34.0944 23.684 34.0944C23.4939 34.0944 23.3354 33.9816 23.3354 33.8444C23.3354 33.7073 23.4916 33.5945 23.684 33.5945C23.8764 33.5945 24.0303 33.7051 24.0303 33.8444Z" fill="#DA840D"/>
<path d="M27.5295 35.0303C27.5378 35.0998 27.5242 35.1701 27.4907 35.2318C27.4571 35.2936 27.4052 35.344 27.3417 35.3763C27.2782 35.4085 27.2061 35.4212 27.1351 35.4125C27.0641 35.4039 26.9974 35.3743 26.944 35.3278C26.8905 35.2813 26.8528 35.22 26.8358 35.1521C26.8188 35.0841 26.8233 35.0127 26.8488 34.9474C26.8742 34.882 26.9194 34.8257 26.9783 34.786C27.0372 34.7463 27.1071 34.725 27.1787 34.725C27.2664 34.7208 27.3524 34.7504 27.418 34.8075C27.4836 34.8646 27.5237 34.9446 27.5295 35.0303Z" fill="#DA840D"/>
<path d="M27.6631 36.8731C27.6631 37.0146 27.4956 37.1297 27.2873 37.1297C27.0791 37.1297 26.9116 37.0146 26.9116 36.8731C26.9116 36.7315 27.0814 36.6165 27.2873 36.6165C27.4933 36.6165 27.6631 36.7315 27.6631 36.8731Z" fill="#DA840D"/>
<path d="M26.1649 34.1275C26.1609 34.1789 26.1415 34.228 26.1092 34.2688C26.0768 34.3095 26.033 34.3401 25.983 34.3567C25.9331 34.3733 25.8793 34.3752 25.8282 34.3622C25.7772 34.3491 25.7312 34.3217 25.6959 34.2834C25.6607 34.245 25.6377 34.1974 25.6299 34.1464C25.6221 34.0955 25.6298 34.0433 25.652 33.9966C25.6742 33.9498 25.71 33.9105 25.7549 33.8834C25.7998 33.8564 25.8518 33.8428 25.9046 33.8444C25.977 33.8495 26.0446 33.8818 26.0932 33.9346C26.1417 33.9874 26.1674 34.0566 26.1649 34.1275Z" fill="#DA840D"/>
<path d="M30.0623 34.6653C30.0623 34.8068 29.8993 34.9219 29.6979 34.9219C29.4965 34.9219 29.3335 34.8068 29.3335 34.6653C29.3335 34.5237 29.4965 34.4109 29.6979 34.4109C29.8993 34.4109 30.0623 34.5237 30.0623 34.6653Z" fill="#DA840D"/>
<path d="M30.0623 35.9898C30.0623 36.0738 29.8993 36.1424 29.6979 36.1424C29.4965 36.1424 29.3335 36.0738 29.3335 35.9898C29.3335 35.9057 29.4965 35.8372 29.6979 35.8372C29.8993 35.8372 30.0623 35.9057 30.0623 35.9898Z" fill="#DA840D"/>
<path d="M32.5268 35.1296C32.5268 35.2424 32.3797 35.3353 32.1964 35.3353C32.013 35.3353 31.8682 35.2424 31.8682 35.1296C31.8682 35.0168 32.0153 34.9216 32.1964 34.9216C32.3774 34.9216 32.5268 35.0145 32.5268 35.1296Z" fill="#DA840D"/>
<path d="M32.1329 36.6076C32.1483 36.6766 32.1415 36.7485 32.1134 36.8134C32.0853 36.8784 32.0372 36.9332 31.9758 36.9703C31.9144 37.0075 31.8427 37.025 31.7707 37.0206C31.6986 37.0162 31.6298 36.9901 31.5736 36.9458C31.5174 36.9015 31.4766 36.8412 31.457 36.7733C31.4374 36.7055 31.4398 36.6333 31.4639 36.5668C31.488 36.5003 31.5327 36.4428 31.5917 36.4021C31.6507 36.3615 31.7212 36.3398 31.7934 36.34C31.8745 36.3325 31.9554 36.3563 32.0188 36.4063C32.0823 36.4563 32.1232 36.5286 32.1329 36.6076Z" fill="#DA840D"/>
<path d="M34.8763 36.1782C34.8622 36.2441 34.8292 36.3048 34.7812 36.3531C34.7332 36.4015 34.6722 36.4355 34.6052 36.4514C34.5382 36.4672 34.468 36.4641 34.4027 36.4425C34.3374 36.4209 34.2798 36.3816 34.2364 36.3292C34.193 36.2768 34.1658 36.2135 34.1578 36.1466C34.1497 36.0797 34.1613 36.012 34.1911 35.9512C34.2209 35.8905 34.2677 35.8392 34.3261 35.8034C34.3845 35.7676 34.4521 35.7488 34.521 35.749C34.626 35.7607 34.722 35.8123 34.7885 35.8925C34.855 35.9728 34.8865 36.0754 34.8763 36.1782Z" fill="#DA840D"/>
<path d="M34.6793 34.2449C34.6793 34.3334 34.5639 34.4042 34.4213 34.4042C34.2787 34.4042 34.1655 34.3334 34.1655 34.2449C34.1655 34.1565 34.281 34.0879 34.4213 34.0879C34.5616 34.0879 34.6793 34.1653 34.6793 34.2449Z" fill="#DA840D"/>
<path d="M36.8526 34.7158C36.8526 35.0587 36.6964 35.3352 36.5063 35.3352C36.3161 35.3352 36.1577 35.0587 36.1577 34.7158C36.1577 34.373 36.3139 34.0942 36.5063 34.0942C36.6987 34.0942 36.8526 34.373 36.8526 34.7158Z" fill="#DA840D"/>
<path d="M37.7243 34.0853C37.7243 34.1293 37.7064 34.1715 37.6746 34.2027C37.6427 34.2338 37.5995 34.2512 37.5545 34.2512C37.5095 34.2512 37.4663 34.2338 37.4345 34.2027C37.4026 34.1715 37.3848 34.1293 37.3848 34.0853C37.3848 34.0413 37.4026 33.9991 37.4345 33.968C37.4663 33.9369 37.5095 33.9194 37.5545 33.9194C37.5994 33.92 37.6422 33.9377 37.6739 33.9687C37.7056 33.9996 37.7237 34.0415 37.7243 34.0853Z" fill="#DA840D"/>
<path d="M32.0154 33.5571C32.0154 33.7142 31.8027 33.8447 31.5424 33.8447C31.2821 33.8447 31.0693 33.7142 31.0693 33.5571C31.0693 33.4001 31.2798 33.2673 31.5424 33.2673C31.8049 33.2673 32.0154 33.3978 32.0154 33.5571Z" fill="#DA840D"/>
<path d="M23.1407 32.0659C23.1407 32.1632 22.9755 32.2428 22.7718 32.2428C22.5681 32.2428 22.4028 32.1632 22.4028 32.0659C22.4028 31.9686 22.5681 31.8889 22.7718 31.8889C22.9755 31.8889 23.1407 31.9686 23.1407 32.0659Z" fill="#DA840D"/>
<path d="M25.3133 31.7099C25.3133 31.8095 25.1255 31.8891 24.8946 31.8891C24.6638 31.8891 24.4736 31.8095 24.4736 31.7099C24.4736 31.6104 24.6615 31.533 24.8946 31.533C25.1277 31.533 25.3133 31.6126 25.3133 31.7099Z" fill="#DA840D"/>
<path d="M28.0478 32.1455C28.0478 32.2849 27.7943 32.3999 27.4797 32.3999C27.1651 32.3999 26.9116 32.2849 26.9116 32.1455C26.9116 32.0062 27.1674 31.8889 27.4797 31.8889C27.7921 31.8889 28.0478 32.0039 28.0478 32.1455Z" fill="#DA840D"/>
<path d="M30.0625 31.7099C30.0629 31.7456 30.0525 31.7805 30.0325 31.8103C30.0125 31.8401 29.9839 31.8634 29.9503 31.8773C29.9167 31.8911 29.8797 31.8948 29.8439 31.888C29.8081 31.8811 29.7753 31.864 29.7495 31.8388C29.7237 31.8136 29.7062 31.7815 29.6992 31.7466C29.6922 31.7116 29.696 31.6754 29.7102 31.6426C29.7243 31.6097 29.7482 31.5818 29.7787 31.5622C29.8092 31.5427 29.8449 31.5325 29.8814 31.533C29.9294 31.533 29.9755 31.5516 30.0094 31.5848C30.0434 31.618 30.0625 31.663 30.0625 31.7099Z" fill="#DA840D"/>
<path d="M29.6981 33.1099C29.6981 33.1962 29.5261 33.267 29.311 33.267C29.096 33.267 28.9263 33.1962 28.9263 33.1099C28.9263 33.0237 29.0983 32.9529 29.311 32.9529C29.5238 32.9529 29.6981 33.0237 29.6981 33.1099Z" fill="#DA840D"/>
<path d="M32.7239 31.632C32.723 31.6834 32.7065 31.7333 32.6764 31.7755C32.6463 31.8176 32.6041 31.8501 32.5551 31.8687C32.5062 31.8873 32.4526 31.8913 32.4013 31.88C32.35 31.8688 32.3033 31.8429 32.2671 31.8057C32.2309 31.7684 32.2069 31.7215 32.1981 31.6709C32.1893 31.6202 32.1961 31.5682 32.2176 31.5213C32.2392 31.4745 32.2745 31.4349 32.3191 31.4078C32.3638 31.3806 32.4156 31.3671 32.4682 31.3688C32.5026 31.3697 32.5366 31.3772 32.5681 31.3909C32.5997 31.4045 32.6281 31.4242 32.6519 31.4486C32.6756 31.4731 32.6942 31.5019 32.7066 31.5333C32.7189 31.5648 32.7248 31.5983 32.7239 31.632Z" fill="#DA840D"/>
<path d="M34.1658 32.6768C34.1658 32.721 34.0322 32.7564 33.8647 32.7564C33.6972 32.7564 33.5659 32.721 33.5659 32.6768C33.5659 32.6326 33.6995 32.5972 33.8647 32.5972C34.0299 32.5972 34.1658 32.6326 34.1658 32.6768Z" fill="#DA840D"/>
<path d="M35.1048 32.1544C35.1104 32.1777 35.1085 32.2021 35.0993 32.2243C35.09 32.2465 35.0739 32.2653 35.0532 32.2781C35.0325 32.2909 35.0082 32.2971 34.9838 32.2958C34.9593 32.2944 34.9359 32.2857 34.9167 32.2707C34.8976 32.2558 34.8837 32.2354 34.877 32.2123C34.8703 32.1893 34.8712 32.1648 34.8794 32.1422C34.8877 32.1197 34.9029 32.1002 34.923 32.0865C34.9431 32.0728 34.9671 32.0656 34.9916 32.0659C35.0185 32.0634 35.0454 32.0712 35.0665 32.0877C35.0876 32.1042 35.1014 32.1281 35.1048 32.1544Z" fill="#DA840D"/>
<path d="M34.1658 32.6764C34.1606 32.7244 34.1413 32.7699 34.1102 32.8073C34.0791 32.8448 34.0375 32.8727 33.9906 32.8876C33.9437 32.9025 33.8933 32.9038 33.8456 32.8914C33.7979 32.8789 33.7549 32.8533 33.7218 32.8175C33.6887 32.7817 33.6669 32.7373 33.659 32.6897C33.6512 32.6421 33.6576 32.5932 33.6775 32.5491C33.6974 32.5049 33.7299 32.4673 33.7712 32.4409C33.8125 32.4144 33.8607 32.4002 33.9101 32.3999C33.9455 32.4016 33.9802 32.4101 34.0122 32.4249C34.0442 32.4398 34.0729 32.4606 34.0967 32.4863C34.1204 32.512 34.1388 32.542 34.1506 32.5746C34.1625 32.6072 34.1677 32.6418 34.1658 32.6764Z" fill="#DA840D"/>
<path d="M35.6187 32.2338C35.6187 32.3245 35.4783 32.3997 35.3041 32.3997C35.1298 32.3997 34.9917 32.3245 34.9917 32.2338C34.9917 32.1431 35.132 32.0657 35.3041 32.0657C35.4761 32.0657 35.6187 32.1409 35.6187 32.2338Z" fill="#DA840D"/>
<path d="M43.0427 32.8381C43.0427 35.6938 36.8342 38.3527 29.3582 38.3527C21.8823 38.3527 15.624 35.497 15.624 32.6412C15.624 29.7854 21.8823 27.9958 29.3582 27.9958C36.8342 27.9958 43.0427 29.9801 43.0427 32.8381Z" fill="#E3AC8A"/>
<path d="M42.8936 32.2853C42.8936 35.1433 36.8346 37.4594 29.3586 37.4594C21.8826 37.4594 15.8213 35.1433 15.8213 32.2853C15.8213 29.4274 21.8826 27.1113 29.3586 27.1113C36.8346 27.1113 42.8936 29.4274 42.8936 32.2853Z" fill="#DA840D"/>
<path d="M29.1613 35.6341C34.7077 35.6341 39.2039 33.9158 39.2039 31.7962C39.2039 29.6766 34.7077 27.9583 29.1613 27.9583C23.6149 27.9583 19.1187 29.6766 19.1187 31.7962C19.1187 33.9158 23.6149 35.6341 29.1613 35.6341Z" fill="#F0A508"/>
<path d="M22.4028 33.2122C22.4028 33.4334 22.147 33.6259 21.8301 33.6259C21.5133 33.6259 21.2598 33.4401 21.2598 33.2122C21.2598 32.9844 21.5155 32.7986 21.8301 32.7986C22.1448 32.7986 22.4028 32.9822 22.4028 33.2122Z" fill="#DA840D"/>
<path d="M21.2597 31.4687C21.2579 31.53 21.2377 31.5894 21.2016 31.6395C21.1655 31.6896 21.115 31.7282 21.0566 31.7505C20.9981 31.7727 20.9343 31.7777 20.873 31.7646C20.8117 31.7516 20.7557 31.7212 20.7119 31.6773C20.6682 31.6333 20.6387 31.5778 20.6271 31.5175C20.6155 31.4573 20.6223 31.395 20.6467 31.3385C20.6711 31.2821 20.712 31.2339 20.7643 31.2C20.8165 31.1661 20.8779 31.148 20.9406 31.1479C21.0262 31.1497 21.1077 31.1843 21.1675 31.2443C21.2272 31.3044 21.2603 31.385 21.2597 31.4687Z" fill="#DA840D"/>
<path d="M25.2253 33.7136C25.2325 33.8211 25.2066 33.9283 25.1507 34.0212C25.0948 34.1141 25.0117 34.1885 24.9121 34.2347C24.8124 34.2808 24.7009 34.2967 24.5919 34.2801C24.4829 34.2635 24.3816 34.2153 24.301 34.1418C24.2204 34.0682 24.1643 33.9726 24.14 33.8675C24.1157 33.7624 24.1243 33.6526 24.1646 33.5523C24.205 33.452 24.2752 33.3658 24.3663 33.3051C24.4573 33.2443 24.565 33.2117 24.6753 33.2114C24.8162 33.2072 24.9531 33.2577 25.0561 33.3517C25.1592 33.4458 25.22 33.5759 25.2253 33.7136Z" fill="#DA840D"/>
<path d="M24.0303 31.7209C24.0303 31.8581 23.8741 31.9709 23.684 31.9709C23.4939 31.9709 23.3354 31.8581 23.3354 31.7209C23.3354 31.5838 23.4916 31.4688 23.684 31.4688C23.8764 31.4688 24.0303 31.5904 24.0303 31.7209Z" fill="#DA840D"/>
<path d="M27.5295 32.918C27.5378 32.9875 27.5242 33.0577 27.4907 33.1195C27.4571 33.1813 27.4052 33.2317 27.3417 33.264C27.2782 33.2962 27.2061 33.3089 27.1351 33.3002C27.0641 33.2916 26.9974 33.262 26.944 33.2155C26.8905 33.169 26.8528 33.1077 26.8358 33.0398C26.8188 32.9718 26.8233 32.9004 26.8488 32.8351C26.8742 32.7697 26.9194 32.7134 26.9783 32.6737C27.0372 32.634 27.1071 32.6127 27.1787 32.6127C27.2664 32.6085 27.3524 32.6381 27.418 32.6952C27.4836 32.7523 27.5237 32.8323 27.5295 32.918Z" fill="#DA840D"/>
<path d="M27.6631 34.7468C27.6631 34.8884 27.4956 35.0034 27.2873 35.0034C27.0791 35.0034 26.9116 34.8884 26.9116 34.7468C26.9116 34.6052 27.0814 34.4924 27.2873 34.4924C27.4933 34.4924 27.6631 34.6052 27.6631 34.7468Z" fill="#DA840D"/>
<path d="M26.1645 32.0015C26.161 32.0531 26.1419 32.1024 26.1099 32.1435C26.0778 32.1845 26.034 32.2154 25.9841 32.2324C25.9342 32.2493 25.8803 32.2515 25.8291 32.2387C25.7778 32.2259 25.7316 32.1987 25.6962 32.1604C25.6607 32.1221 25.6375 32.0745 25.6295 32.0234C25.6216 31.9723 25.6292 31.9201 25.6513 31.8732C25.6735 31.8263 25.7093 31.7869 25.7543 31.7597C25.7993 31.7326 25.8514 31.719 25.9042 31.7206C25.9765 31.7251 26.0441 31.757 26.0927 31.8095C26.1413 31.8619 26.167 31.9308 26.1645 32.0015Z" fill="#DA840D"/>
<path d="M30.0623 32.5413C30.0623 32.6828 29.8993 32.7979 29.6979 32.7979C29.4965 32.7979 29.3335 32.6828 29.3335 32.5413C29.3335 32.3997 29.4965 32.2847 29.6979 32.2847C29.8993 32.2847 30.0623 32.3997 30.0623 32.5413Z" fill="#DA840D"/>
<path d="M30.0623 33.8667C30.0623 33.9508 29.8993 34.0194 29.6979 34.0194C29.4965 34.0194 29.3335 33.9508 29.3335 33.8667C29.3335 33.7827 29.4965 33.7141 29.6979 33.7141C29.8993 33.7141 30.0623 33.7827 30.0623 33.8667Z" fill="#DA840D"/>
<path d="M32.5268 33.0043C32.5268 33.1193 32.3797 33.2122 32.1964 33.2122C32.013 33.2122 31.8682 33.1193 31.8682 33.0043C31.8682 32.8893 32.0153 32.7986 32.1964 32.7986C32.3774 32.7986 32.5268 32.8915 32.5268 33.0043Z" fill="#DA840D"/>
<path d="M32.1333 34.4811C32.1493 34.55 32.143 34.6221 32.1152 34.6873C32.0874 34.7525 32.0396 34.8076 31.9783 34.8451C31.9171 34.8826 31.8454 34.9005 31.7733 34.8965C31.7011 34.8924 31.6321 34.8665 31.5756 34.8224C31.5192 34.7782 31.4782 34.7181 31.4583 34.6502C31.4384 34.5823 31.4406 34.51 31.4645 34.4434C31.4885 34.3768 31.5331 34.319 31.5921 34.2783C31.6511 34.2375 31.7216 34.2156 31.7938 34.2157C31.8747 34.2076 31.9557 34.2309 32.0192 34.2805C32.0827 34.3302 32.1237 34.4022 32.1333 34.4811Z" fill="#DA840D"/>
<path d="M34.8767 34.0519C34.8626 34.1173 34.8298 34.1775 34.7822 34.2254C34.7346 34.2734 34.674 34.3072 34.6075 34.3229C34.5411 34.3386 34.4714 34.3357 34.4066 34.3143C34.3418 34.293 34.2845 34.2541 34.2414 34.2023C34.1982 34.1504 34.171 34.0877 34.1628 34.0214C34.1546 33.955 34.1658 33.8877 34.195 33.8274C34.2243 33.767 34.2705 33.7159 34.3283 33.6801C34.386 33.6443 34.4529 33.6252 34.5213 33.625C34.6259 33.6367 34.7216 33.6879 34.788 33.7677C34.8544 33.8475 34.8862 33.9495 34.8767 34.0519Z" fill="#DA840D"/>
<path d="M34.6793 32.1278C34.6793 32.214 34.5639 32.2848 34.4213 32.2848C34.2787 32.2848 34.1655 32.214 34.1655 32.1278C34.1655 32.0415 34.281 31.9707 34.4213 31.9707C34.5616 31.9707 34.6793 32.0326 34.6793 32.1278Z" fill="#DA840D"/>
<path d="M36.8526 32.5901C36.8526 32.9329 36.6964 33.2117 36.5063 33.2117C36.3161 33.2117 36.1577 32.9329 36.1577 32.5901C36.1577 32.2472 36.3139 31.9707 36.5063 31.9707C36.6987 31.9707 36.8526 32.2538 36.8526 32.5901Z" fill="#DA840D"/>
<path d="M37.7243 31.9616C37.7237 32.0054 37.7056 32.0472 37.6739 32.0782C37.6422 32.1092 37.5994 32.1269 37.5545 32.1275C37.521 32.1275 37.4881 32.1177 37.4602 32.0995C37.4323 32.0813 37.4105 32.0554 37.3977 32.025C37.3848 31.9947 37.3815 31.9614 37.388 31.9292C37.3946 31.897 37.4107 31.8674 37.4345 31.8442C37.4582 31.821 37.4885 31.8052 37.5214 31.7988C37.5543 31.7924 37.5885 31.7957 37.6195 31.8083C37.6505 31.8208 37.677 31.8421 37.6957 31.8694C37.7143 31.8967 37.7243 31.9287 37.7243 31.9616Z" fill="#DA840D"/>
<path d="M32.0154 31.4314C32.0154 31.5906 31.8027 31.7211 31.5424 31.7211C31.2821 31.7211 31.0693 31.5906 31.0693 31.4314C31.0693 31.2721 31.2798 31.1438 31.5424 31.1438C31.8049 31.1438 32.0154 31.2721 32.0154 31.4314Z" fill="#DA840D"/>
<path d="M23.1407 29.9399C23.1407 30.0394 22.9755 30.1191 22.7718 30.1191C22.5681 30.1191 22.4028 30.0394 22.4028 29.9399C22.4028 29.8404 22.5681 29.7629 22.7718 29.7629C22.9755 29.7629 23.1407 29.8426 23.1407 29.9399Z" fill="#DA840D"/>
<path d="M25.3133 29.5861C25.3133 29.6835 25.1255 29.7631 24.8946 29.7631C24.6638 29.7631 24.4736 29.6835 24.4736 29.5861C24.4736 29.4888 24.6615 29.4092 24.8946 29.4092C25.1277 29.4092 25.3133 29.4888 25.3133 29.5861Z" fill="#DA840D"/>
<path d="M28.0478 30.0195C28.0478 30.1611 27.7943 30.2762 27.4797 30.2762C27.1651 30.2762 26.9116 30.1611 26.9116 30.0195C26.9116 29.878 27.1674 29.7629 27.4797 29.7629C27.7921 29.7629 28.0478 29.878 28.0478 30.0195Z" fill="#DA840D"/>
<path d="M30.0625 29.5859C30.0629 29.6215 30.0525 29.6565 30.0325 29.6863C30.0125 29.7161 29.9839 29.7394 29.9503 29.7532C29.9167 29.7671 29.8797 29.7708 29.8439 29.764C29.8081 29.7571 29.7753 29.74 29.7495 29.7148C29.7237 29.6896 29.7062 29.6575 29.6992 29.6225C29.6922 29.5876 29.696 29.5514 29.7102 29.5185C29.7243 29.4857 29.7482 29.4577 29.7787 29.4382C29.8092 29.4187 29.8449 29.4085 29.8814 29.4089C29.9294 29.4089 29.9755 29.4276 30.0094 29.4608C30.0434 29.494 30.0625 29.539 30.0625 29.5859Z" fill="#DA840D"/>
<path d="M29.6981 30.9864C29.6981 31.0727 29.5261 31.1435 29.311 31.1435C29.096 31.1435 28.9263 31.0727 28.9263 30.9864C28.9263 30.9001 29.0983 30.8271 29.311 30.8271C29.5238 30.8271 29.6981 30.8979 29.6981 30.9864Z" fill="#DA840D"/>
<path d="M32.7239 29.5087C32.7244 29.5604 32.709 29.6109 32.6797 29.654C32.6505 29.697 32.6087 29.7305 32.5599 29.7501C32.511 29.7698 32.4572 29.7747 32.4055 29.7642C32.3537 29.7537 32.3063 29.7284 32.2695 29.6914C32.2326 29.6544 32.2079 29.6074 32.1985 29.5566C32.1892 29.5057 32.1956 29.4533 32.217 29.4061C32.2383 29.3589 32.2737 29.319 32.3185 29.2915C32.3632 29.2641 32.4154 29.2503 32.4682 29.2521C32.5368 29.2533 32.6022 29.2809 32.6501 29.3289C32.698 29.377 32.7246 29.4416 32.7239 29.5087Z" fill="#DA840D"/>
<path d="M34.1658 30.5528C34.1658 30.5948 34.0322 30.6302 33.8647 30.6302C33.6972 30.6302 33.5659 30.5948 33.5659 30.5528C33.5659 30.5107 33.6995 30.4731 33.8647 30.4731C34.0299 30.4731 34.1658 30.5085 34.1658 30.5528Z" fill="#DA840D"/>
<path d="M35.1053 30.0418C35.1104 30.0651 35.108 30.0895 35.0984 30.1114C35.0888 30.1334 35.0724 30.1518 35.0516 30.1643C35.0308 30.1767 35.0065 30.1825 34.9821 30.1809C34.9577 30.1792 34.9345 30.1702 34.9156 30.1551C34.8967 30.1399 34.8831 30.1194 34.8767 30.0964C34.8703 30.0734 34.8713 30.049 34.8797 30.0265C34.8882 30.0041 34.9035 29.9848 34.9236 29.9713C34.9438 29.9578 34.9677 29.9507 34.9921 29.9511C35.0194 29.9486 35.0466 29.9568 35.0677 29.9738C35.0889 29.9907 35.1024 30.0152 35.1053 30.0418Z" fill="#DA840D"/>
<path d="M34.1658 30.5529C34.1606 30.6008 34.1413 30.6463 34.1102 30.6838C34.0791 30.7213 34.0375 30.7491 33.9906 30.764C33.9437 30.779 33.8933 30.7803 33.8456 30.7678C33.7979 30.7554 33.7549 30.7297 33.7218 30.694C33.6887 30.6582 33.6669 30.6138 33.659 30.5661C33.6512 30.5185 33.6576 30.4697 33.6775 30.4255C33.6974 30.3814 33.7299 30.3438 33.7712 30.3173C33.8125 30.2909 33.8607 30.2766 33.9101 30.2764C33.9455 30.2781 33.9802 30.2866 34.0122 30.3014C34.0442 30.3162 34.0729 30.3371 34.0967 30.3628C34.1204 30.3884 34.1388 30.4185 34.1506 30.4511C34.1625 30.4837 34.1677 30.5183 34.1658 30.5529Z" fill="#DA840D"/>
<path d="M35.6187 30.1081C35.6187 30.201 35.4783 30.2762 35.3041 30.2762C35.1298 30.2762 34.9917 30.201 34.9917 30.1081C34.9917 30.0151 35.132 29.9399 35.3041 29.9399C35.4761 29.9399 35.6187 30.0151 35.6187 30.1081Z" fill="#DA840D"/>
<path d="M43.258 29.0419C43.258 31.8976 37.0473 34.5565 29.5713 34.5565C22.0954 34.5565 15.8394 31.7008 15.8394 28.8428C15.8394 25.9848 22.0954 24.2085 29.5713 24.2085C37.0473 24.2085 43.258 26.1839 43.258 29.0419Z" fill="#E3AC8A"/>
<path d="M43.1062 28.4934C43.1062 31.3514 37.0449 33.6674 29.5689 33.6674C22.093 33.6674 16.0361 31.3469 16.0361 28.4934C16.0361 25.6398 22.0952 23.3149 29.5712 23.3149C37.0471 23.3149 43.1062 25.631 43.1062 28.4934Z" fill="#DA840D"/>
<path d="M39.4193 28.0001C39.4193 30.1192 34.922 31.838 29.3767 31.838C23.8314 31.838 19.3408 30.1192 19.3408 28.0001C19.3408 25.8809 23.8314 24.1599 29.3767 24.1599C34.922 24.1599 39.4193 25.8787 39.4193 28.0001Z" fill="#F0A508"/>
<path d="M22.6158 29.4159C22.6158 29.6371 22.3623 29.8295 22.0455 29.8295C21.7286 29.8295 21.4751 29.6437 21.4751 29.4159C21.4751 29.188 21.7309 29.0022 22.0568 29.0022C22.3827 29.0022 22.6158 29.1858 22.6158 29.4159Z" fill="#DA840D"/>
<path d="M21.4749 27.6728C21.4722 27.7337 21.4514 27.7925 21.4149 27.8419C21.3785 27.8913 21.328 27.9292 21.2698 27.9509C21.2116 27.9726 21.1481 27.9772 21.0872 27.9641C21.0264 27.9509 20.9708 27.9207 20.9273 27.877C20.8838 27.8333 20.8544 27.7782 20.8426 27.7184C20.8309 27.6585 20.8373 27.5966 20.8611 27.5403C20.8849 27.484 20.9251 27.4358 20.9767 27.4016C21.0282 27.3673 21.0889 27.3486 21.1512 27.3477C21.1944 27.3479 21.2371 27.3566 21.2768 27.3732C21.3166 27.3897 21.3525 27.4138 21.3827 27.4441C21.4128 27.4743 21.4364 27.5101 21.4523 27.5494C21.4681 27.5887 21.4758 27.6306 21.4749 27.6728Z" fill="#DA840D"/>
<path d="M25.4514 29.9182C25.4582 30.0252 25.4319 30.1318 25.376 30.224C25.3201 30.3163 25.2371 30.3901 25.1378 30.4357C25.0385 30.4814 24.9275 30.4968 24.8191 30.4801C24.7107 30.4633 24.61 30.4151 24.5299 30.3418C24.4499 30.2684 24.3943 30.1732 24.3702 30.0686C24.3462 29.9639 24.3549 29.8546 24.3951 29.7549C24.4354 29.6551 24.5054 29.5695 24.5961 29.5091C24.6867 29.4486 24.7939 29.4162 24.9036 29.416C25.0443 29.4118 25.181 29.4623 25.2836 29.5565C25.3863 29.6506 25.4466 29.7807 25.4514 29.9182Z" fill="#DA840D"/>
<path d="M24.2451 27.9226C24.2451 28.0619 24.089 28.1747 23.8966 28.1747C23.7042 28.1747 23.5503 28.0619 23.5503 27.9226C23.5503 27.7832 23.7065 27.6726 23.8966 27.6726C24.0867 27.6726 24.2451 27.7854 24.2451 27.9226Z" fill="#DA840D"/>
<path d="M27.7443 29.1106C27.7526 29.1801 27.7391 29.2504 27.7055 29.3122C27.672 29.3739 27.62 29.4243 27.5565 29.4566C27.493 29.4888 27.421 29.5015 27.35 29.4928C27.2789 29.4842 27.2123 29.4547 27.1588 29.4081C27.1054 29.3616 27.0676 29.3003 27.0506 29.2324C27.0336 29.1645 27.0382 29.0931 27.0636 29.0277C27.0891 28.9623 27.1342 28.906 27.1932 28.8663C27.2521 28.8266 27.322 28.8054 27.3935 28.8053C27.4813 28.8011 27.5672 28.8307 27.6329 28.8878C27.6985 28.9449 27.7385 29.0249 27.7443 29.1106Z" fill="#DA840D"/>
<path d="M27.8779 30.9511C27.8779 31.0927 27.7104 31.2077 27.5022 31.2077C27.294 31.2077 27.1265 31.0927 27.1265 30.9511C27.1265 30.8095 27.294 30.7056 27.5022 30.7056C27.7104 30.7056 27.8779 30.8117 27.8779 30.9511Z" fill="#DA840D"/>
<path d="M26.38 28.2059C26.38 28.2757 26.3516 28.3426 26.3011 28.392C26.2506 28.4414 26.1821 28.4691 26.1107 28.4691C26.0392 28.4691 25.9707 28.4414 25.9202 28.392C25.8697 28.3426 25.8413 28.2757 25.8413 28.2059C25.8413 28.136 25.8697 28.0691 25.9202 28.0197C25.9707 27.9704 26.0392 27.9426 26.1107 27.9426C26.1821 27.9426 26.2506 27.9704 26.3011 28.0197C26.3516 28.0691 26.38 28.136 26.38 28.2059Z" fill="#DA840D"/>
<path d="M30.2771 28.7458C30.2771 28.8874 30.1142 29.0024 29.9127 29.0024C29.7113 29.0024 29.5483 28.8874 29.5483 28.7458C29.5483 28.6043 29.7113 28.4937 29.9127 28.4937C30.1142 28.4937 30.2771 28.6043 30.2771 28.7458Z" fill="#DA840D"/>
<path d="M30.2771 30.0704C30.2771 30.1544 30.1142 30.223 29.9127 30.223C29.7113 30.223 29.5483 30.1544 29.5483 30.0704C29.5483 29.9863 29.7113 29.9177 29.9127 29.9177C30.1142 29.9177 30.2771 29.9863 30.2771 30.0704Z" fill="#DA840D"/>
<path d="M32.742 29.2079C32.742 29.3229 32.5948 29.4158 32.4115 29.4158C32.2282 29.4158 32.0811 29.3229 32.0811 29.2079C32.0811 29.0929 32.2304 29.0022 32.4115 29.0022C32.5926 29.0022 32.742 29.0951 32.742 29.2079Z" fill="#DA840D"/>
<path d="M32.3483 30.6852C32.3648 30.7545 32.3587 30.8271 32.3311 30.8929C32.3034 30.9587 32.2555 31.0145 32.194 31.0525C32.1324 31.0905 32.0603 31.1089 31.9876 31.105C31.915 31.1012 31.8453 31.0753 31.7883 31.0311C31.7313 30.9868 31.6898 30.9263 31.6696 30.858C31.6494 30.7897 31.6514 30.7169 31.6753 30.6497C31.6993 30.5825 31.7441 30.5243 31.8034 30.4831C31.8628 30.4419 31.9338 30.4198 32.0066 30.4198C32.0878 30.4111 32.1693 30.4341 32.2333 30.4838C32.2973 30.5335 32.3387 30.6059 32.3483 30.6852Z" fill="#DA840D"/>
<path d="M35.0915 30.263C35.075 30.3274 35.0404 30.3861 34.9915 30.4324C34.9427 30.4786 34.8816 30.5106 34.8151 30.5247C34.7487 30.5388 34.6795 30.5344 34.6154 30.512C34.5514 30.4897 34.495 30.4503 34.4527 30.3983C34.4104 30.3462 34.3838 30.2837 34.376 30.2177C34.3681 30.1516 34.3794 30.0848 34.4084 30.0247C34.4374 29.9646 34.4831 29.9136 34.5402 29.8775C34.5973 29.8414 34.6636 29.8217 34.7316 29.8206C34.7853 29.8257 34.8373 29.8414 34.8847 29.8666C34.932 29.8918 34.9737 29.9261 35.0073 29.9674C35.0409 30.0086 35.0656 30.056 35.0801 30.1068C35.0945 30.1576 35.0984 30.2107 35.0915 30.263Z" fill="#DA840D"/>
<path d="M34.8947 28.3319C34.8947 28.4181 34.7792 28.4889 34.6366 28.4889C34.494 28.4889 34.3809 28.4181 34.3809 28.3319C34.3809 28.2456 34.494 28.1748 34.6366 28.1748C34.7792 28.1748 34.8947 28.2456 34.8947 28.3319Z" fill="#DA840D"/>
<path d="M37.0674 28.7942C37.0674 29.1371 36.9112 29.4158 36.7188 29.4158C36.5265 29.4158 36.3726 29.1371 36.3726 28.7942C36.3726 28.4513 36.5287 28.1748 36.7188 28.1748C36.909 28.1748 37.0674 28.4513 37.0674 28.7942Z" fill="#DA840D"/>
<path d="M37.9365 28.1661C37.9361 28.1984 37.9259 28.2299 37.9072 28.2565C37.8885 28.2831 37.8622 28.3037 37.8316 28.3158C37.8009 28.3278 37.7673 28.3308 37.735 28.3242C37.7027 28.3176 37.673 28.3019 37.6498 28.2789C37.6266 28.2559 37.6109 28.2268 37.6046 28.1951C37.5983 28.1634 37.6018 28.1306 37.6145 28.1008C37.6273 28.071 37.6487 28.0456 37.6762 28.0277C37.7037 28.0098 37.736 28.0002 37.769 28.0002C37.8137 28.0008 37.8563 28.0186 37.8876 28.0496C37.919 28.0807 37.9365 28.1225 37.9365 28.1661Z" fill="#DA840D"/>
<path d="M32.228 27.6352C32.228 27.7945 32.0175 27.9228 31.7572 27.9228C31.4969 27.9228 31.2842 27.7945 31.2842 27.6352C31.2842 27.476 31.4947 27.3477 31.7572 27.3477C32.0198 27.3477 32.228 27.476 32.228 27.6352Z" fill="#DA840D"/>
<path d="M23.3558 26.1465C23.3558 26.2438 23.1906 26.3234 22.9869 26.3234C22.7832 26.3234 22.6157 26.2438 22.6157 26.1465C22.6157 26.0491 22.7809 25.9673 22.9869 25.9673C23.1929 25.9673 23.3558 26.0469 23.3558 26.1465Z" fill="#DA840D"/>
<path d="M25.5287 25.7902C25.5287 25.8898 25.3408 25.9672 25.1077 25.9672C24.8746 25.9672 24.689 25.8898 24.689 25.7902C24.689 25.6907 24.8768 25.6133 25.1077 25.6133C25.3386 25.6133 25.5287 25.6929 25.5287 25.7902Z" fill="#DA840D"/>
<path d="M28.2627 26.2239C28.2627 26.3655 28.0092 26.4805 27.6946 26.4805C27.38 26.4805 27.1265 26.3655 27.1265 26.2239C27.1265 26.0823 27.3822 25.9673 27.6946 25.9673C28.0069 25.9673 28.2627 26.0823 28.2627 26.2239Z" fill="#DA840D"/>
<path d="M30.2775 25.7899C30.2725 25.8337 30.2511 25.8742 30.2175 25.9036C30.1839 25.933 30.1404 25.9492 30.0953 25.9492C30.0502 25.9492 30.0067 25.933 29.9731 25.9036C29.9394 25.8742 29.9181 25.8337 29.9131 25.7899C29.9181 25.7461 29.9394 25.7056 29.9731 25.6763C30.0067 25.6469 30.0502 25.6306 30.0953 25.6306C30.1404 25.6306 30.1839 25.6469 30.2175 25.6763C30.2511 25.7056 30.2725 25.7461 30.2775 25.7899Z" fill="#DA840D"/>
<path d="M29.9128 27.1883C29.9128 27.2768 29.7407 27.3476 29.5257 27.3476C29.3107 27.3476 29.1387 27.2768 29.1387 27.1883C29.1387 27.0998 29.313 27.0312 29.5257 27.0312C29.7385 27.0312 29.9128 27.102 29.9128 27.1883Z" fill="#DA840D"/>
<path d="M32.9393 25.7124C32.9397 25.7637 32.9246 25.814 32.8958 25.8568C32.8669 25.8997 32.8257 25.9332 32.7774 25.9531C32.729 25.9731 32.6757 25.9785 32.6242 25.9688C32.5727 25.959 32.5253 25.9346 32.488 25.8984C32.4508 25.8623 32.4253 25.8162 32.4149 25.766C32.4045 25.7157 32.4096 25.6636 32.4296 25.6161C32.4496 25.5687 32.4835 25.5282 32.5271 25.4996C32.5707 25.4711 32.622 25.4559 32.6745 25.4558C32.7092 25.4553 32.7437 25.4615 32.776 25.4741C32.8083 25.4868 32.8376 25.5056 32.8623 25.5295C32.8869 25.5535 32.9065 25.582 32.9197 25.6134C32.9329 25.6448 32.9396 25.6785 32.9393 25.7124Z" fill="#DA840D"/>
<path d="M34.3806 26.7571C34.3806 26.7992 34.2448 26.8345 34.0795 26.8345C33.9143 26.8345 33.7808 26.7992 33.7808 26.7571C33.7808 26.7151 33.9143 26.6775 34.0795 26.6775C34.2448 26.6775 34.3806 26.7239 34.3806 26.7571Z" fill="#DA840D"/>
<path d="M35.3201 26.2353C35.3131 26.2593 35.2982 26.2805 35.2778 26.2955C35.2574 26.3106 35.2325 26.3187 35.2069 26.3187C35.1814 26.3187 35.1565 26.3106 35.136 26.2955C35.1156 26.2805 35.1008 26.2593 35.0938 26.2353C35.1008 26.2113 35.1156 26.1901 35.136 26.1751C35.1565 26.16 35.1814 26.1519 35.2069 26.1519C35.2325 26.1519 35.2574 26.16 35.2778 26.1751C35.2982 26.1901 35.3131 26.2113 35.3201 26.2353Z" fill="#DA840D"/>
<path d="M34.3807 26.7567C34.3754 26.8047 34.3561 26.8502 34.325 26.8876C34.2939 26.9251 34.2524 26.953 34.2054 26.9679C34.1585 26.9828 34.1081 26.9841 34.0604 26.9717C34.0127 26.9593 33.9697 26.9336 33.9366 26.8978C33.9035 26.862 33.8817 26.8176 33.8739 26.77C33.866 26.7224 33.8724 26.6735 33.8923 26.6294C33.9122 26.5852 33.9448 26.5477 33.9861 26.5212C34.0273 26.4947 34.0756 26.4805 34.1249 26.4802C34.1603 26.4819 34.195 26.4904 34.227 26.5053C34.259 26.5201 34.2877 26.5409 34.3115 26.5666C34.3353 26.5923 34.3536 26.6223 34.3655 26.6549C34.3774 26.6876 34.3825 26.7222 34.3807 26.7567Z" fill="#DA840D"/>
<path d="M35.8338 26.3121C35.8338 26.405 35.6935 26.4803 35.5192 26.4803C35.3449 26.4803 35.2046 26.405 35.2046 26.3121C35.2046 26.2192 35.3449 26.1462 35.5192 26.1462C35.6935 26.1462 35.8338 26.2192 35.8338 26.3121Z" fill="#DA840D"/>
<path d="M43.258 26.602C43.258 29.46 37.0473 32.1167 29.5713 32.1167C22.0954 32.1167 15.8394 29.2631 15.8394 26.4051C15.8394 23.5471 22.0954 21.7598 29.5713 21.7598C37.0473 21.7598 43.258 23.744 43.258 26.602Z" fill="#E3AC8A"/>
<path d="M43.1062 26.06C43.1062 28.9158 37.0449 31.234 29.5689 31.234C22.093 31.234 16.0361 28.9069 16.0361 26.06C16.0361 23.2131 22.0952 20.8838 29.5712 20.8838C37.0471 20.8838 43.1062 23.1843 43.1062 26.06Z" fill="#DA840D"/>
<path d="M39.4193 25.5601C39.4193 27.6793 34.922 29.398 29.3767 29.398C23.8314 29.398 19.3408 27.6793 19.3408 25.5601C19.3408 23.441 23.8314 21.72 29.3767 21.72C34.922 21.72 39.4193 23.4387 39.4193 25.5601Z" fill="#F0A508"/>
<path d="M22.6158 26.9762C22.6158 27.1974 22.3623 27.3898 22.0455 27.3898C21.7286 27.3898 21.4751 27.204 21.4751 26.9762C21.4751 26.7483 21.7309 26.5625 22.0455 26.5625C22.3601 26.5625 22.6158 26.7483 22.6158 26.9762Z" fill="#DA840D"/>
<path d="M21.4749 25.2329C21.4722 25.2938 21.4514 25.3525 21.4149 25.4019C21.3785 25.4514 21.328 25.4893 21.2698 25.511C21.2116 25.5327 21.1481 25.5373 21.0872 25.5241C21.0264 25.511 20.9708 25.4807 20.9273 25.4371C20.8838 25.3934 20.8544 25.3382 20.8426 25.2784C20.8309 25.2186 20.8373 25.1567 20.8611 25.1004C20.8849 25.0441 20.9251 24.9959 20.9767 24.9616C21.0282 24.9274 21.0889 24.9086 21.1512 24.9077C21.1944 24.908 21.2371 24.9167 21.2768 24.9332C21.3166 24.9498 21.3525 24.9739 21.3827 25.0041C21.4128 25.0344 21.4364 25.0702 21.4523 25.1095C21.4681 25.1487 21.4758 25.1907 21.4749 25.2329Z" fill="#DA840D"/>
<path d="M24.8974 27.9799C25.1999 27.9799 25.4451 27.755 25.4451 27.4777C25.4451 27.2004 25.1999 26.9756 24.8974 26.9756C24.5948 26.9756 24.3496 27.2004 24.3496 27.4777C24.3496 27.755 24.5948 27.9799 24.8974 27.9799Z" fill="#DA840D"/>
<path d="M24.2451 25.4853C24.2451 25.6225 24.089 25.7353 23.8966 25.7353C23.7042 25.7353 23.5503 25.6181 23.5503 25.4853C23.5503 25.3526 23.7065 25.2332 23.8966 25.2332C24.0867 25.2332 24.2451 25.346 24.2451 25.4853Z" fill="#DA840D"/>
<path d="M27.7443 26.6709C27.7526 26.7404 27.7391 26.8107 27.7055 26.8725C27.672 26.9342 27.62 26.9846 27.5565 27.0169C27.493 27.0492 27.421 27.0618 27.35 27.0531C27.2789 27.0445 27.2123 27.015 27.1588 26.9685C27.1054 26.9219 27.0676 26.8606 27.0506 26.7927C27.0336 26.7248 27.0382 26.6534 27.0636 26.588C27.0891 26.5226 27.1342 26.4664 27.1932 26.4266C27.2521 26.3869 27.322 26.3657 27.3935 26.3656C27.4813 26.3614 27.5672 26.391 27.6329 26.4481C27.6985 26.5052 27.7385 26.5852 27.7443 26.6709Z" fill="#DA840D"/>
<path d="M27.8779 28.5107C27.8779 28.6523 27.7104 28.7673 27.5022 28.7673C27.294 28.7673 27.1265 28.6523 27.1265 28.5107C27.1265 28.3692 27.294 28.2563 27.5022 28.2563C27.7104 28.2563 27.8779 28.3714 27.8779 28.5107Z" fill="#DA840D"/>
<path d="M26.3797 25.7678C26.3757 25.8188 26.3566 25.8676 26.3248 25.9082C26.2929 25.9488 26.2495 25.9794 26.2001 25.9963C26.1507 26.0132 26.0973 26.0157 26.0464 26.0034C25.9956 25.9911 25.9495 25.9646 25.9139 25.9271C25.8782 25.8896 25.8545 25.8428 25.8457 25.7923C25.8368 25.7419 25.8432 25.69 25.8641 25.643C25.8849 25.5961 25.9193 25.5561 25.9631 25.528C26.0068 25.4998 26.058 25.4848 26.1104 25.4846C26.1844 25.4875 26.2543 25.5189 26.3048 25.5719C26.3552 25.625 26.3822 25.6954 26.3797 25.7678Z" fill="#DA840D"/>
<path d="M30.2771 26.3056C30.2771 26.4472 30.1142 26.5622 29.9127 26.5622C29.7113 26.5622 29.5483 26.4472 29.5483 26.3056C29.5483 26.164 29.7113 26.0601 29.9127 26.0601C30.1142 26.0601 30.2771 26.164 30.2771 26.3056Z" fill="#DA840D"/>
<path d="M30.2771 27.6307C30.2771 27.7147 30.1142 27.7833 29.9127 27.7833C29.7113 27.7833 29.5483 27.7147 29.5483 27.6307C29.5483 27.5466 29.7113 27.478 29.9127 27.478C30.1142 27.478 30.2771 27.5466 30.2771 27.6307Z" fill="#DA840D"/>
<path d="M32.742 26.7682C32.742 26.8833 32.5948 26.9762 32.4115 26.9762C32.2282 26.9762 32.0811 26.8833 32.0811 26.7682C32.0811 26.6532 32.2304 26.5625 32.4115 26.5625C32.5926 26.5625 32.742 26.6554 32.742 26.7682Z" fill="#DA840D"/>
<path d="M32.3483 28.246C32.3648 28.3153 32.3587 28.3879 32.3311 28.4537C32.3034 28.5195 32.2555 28.5753 32.194 28.6133C32.1324 28.6513 32.0603 28.6696 31.9876 28.6658C31.915 28.662 31.8453 28.6361 31.7883 28.5919C31.7313 28.5476 31.6898 28.4871 31.6696 28.4188C31.6494 28.3504 31.6514 28.2776 31.6753 28.2105C31.6993 28.1433 31.7441 28.0851 31.8034 28.0439C31.8628 28.0027 31.9338 27.9806 32.0066 27.9806C32.0878 27.9718 32.1693 27.9948 32.2333 28.0446C32.2973 28.0943 32.3387 28.1667 32.3483 28.246Z" fill="#DA840D"/>
<path d="M35.0915 27.8299C35.075 27.8944 35.0404 27.953 34.9915 27.9993C34.9427 28.0456 34.8816 28.0775 34.8151 28.0916C34.7487 28.1057 34.6795 28.1013 34.6154 28.079C34.5514 28.0566 34.495 28.0172 34.4527 27.9652C34.4104 27.9131 34.3838 27.8506 34.376 27.7846C34.3681 27.7185 34.3794 27.6517 34.4084 27.5916C34.4374 27.5315 34.483 27.4805 34.5402 27.4444C34.5973 27.4083 34.6636 27.3886 34.7316 27.3875C34.7854 27.3923 34.8376 27.4078 34.8851 27.4329C34.9326 27.4581 34.9745 27.4923 35.0081 27.5336C35.0417 27.575 35.0664 27.6225 35.0807 27.6734C35.0951 27.7243 35.0987 27.7775 35.0915 27.8299Z" fill="#DA840D"/>
<path d="M34.8947 25.8922C34.8947 25.9806 34.7792 26.0514 34.6366 26.0514C34.494 26.0514 34.3809 25.9806 34.3809 25.8922C34.3809 25.8037 34.494 25.7351 34.6366 25.7351C34.7792 25.7351 34.8947 25.8059 34.8947 25.8922Z" fill="#DA840D"/>
<path d="M37.0674 26.3545C37.0674 26.6974 36.9112 26.9761 36.7188 26.9761C36.5265 26.9761 36.3726 26.6974 36.3726 26.3545C36.3726 26.0116 36.5287 25.7351 36.7188 25.7351C36.909 25.7351 37.0674 26.0138 37.0674 26.3545Z" fill="#DA840D"/>
<path d="M37.9366 25.7262C37.9361 25.7585 37.9259 25.7899 37.9072 25.8165C37.8886 25.8432 37.8622 25.8638 37.8316 25.8759C37.801 25.8879 37.7674 25.8908 37.735 25.8843C37.7027 25.8777 37.673 25.862 37.6498 25.839C37.6266 25.816 37.6109 25.7868 37.6046 25.7551C37.5983 25.7234 37.6018 25.6906 37.6145 25.6609C37.6273 25.6311 37.6487 25.6056 37.6762 25.5877C37.7037 25.5699 37.736 25.5603 37.7691 25.5603C37.7912 25.5603 37.8132 25.5646 37.8337 25.573C37.8542 25.5813 37.8727 25.5936 37.8883 25.609C37.9039 25.6245 37.9162 25.6428 37.9245 25.6629C37.9327 25.683 37.9369 25.7045 37.9366 25.7262Z" fill="#DA840D"/>
<path d="M32.228 25.1953C32.228 25.3546 32.0175 25.4851 31.7572 25.4851C31.4969 25.4851 31.2842 25.3546 31.2842 25.1953C31.2842 25.036 31.4947 24.9077 31.7572 24.9077C32.0198 24.9077 32.228 25.036 32.228 25.1953Z" fill="#DA840D"/>
<path d="M23.3558 23.7067C23.3558 23.8041 23.1906 23.8837 22.9869 23.8837C22.7832 23.8837 22.6157 23.8041 22.6157 23.7067C22.6157 23.6094 22.7809 23.5298 22.9869 23.5298C23.1929 23.5298 23.3558 23.6094 23.3558 23.7067Z" fill="#DA840D"/>
<path d="M25.5287 23.3505C25.5287 23.4501 25.3408 23.5297 25.1077 23.5297C24.8746 23.5297 24.689 23.4501 24.689 23.3505C24.689 23.251 24.8768 23.1736 25.1077 23.1736C25.3386 23.1736 25.5287 23.2532 25.5287 23.3505Z" fill="#DA840D"/>
<path d="M28.2627 23.7842C28.2627 23.9257 28.0092 24.0408 27.6946 24.0408C27.38 24.0408 27.1265 23.9257 27.1265 23.7842C27.1265 23.6426 27.3822 23.5298 27.6946 23.5298C28.0069 23.5298 28.2627 23.6426 28.2627 23.7842Z" fill="#DA840D"/>
<path d="M30.2773 23.3503C30.2777 23.3859 30.2673 23.4209 30.2473 23.4507C30.2274 23.4805 30.1988 23.5038 30.1652 23.5176C30.1316 23.5315 30.0945 23.5352 30.0588 23.5284C30.023 23.5215 29.9901 23.5044 29.9643 23.4792C29.9386 23.454 29.9211 23.4219 29.9141 23.3869C29.9071 23.352 29.9109 23.3158 29.925 23.2829C29.9392 23.2501 29.963 23.2221 29.9935 23.2026C30.024 23.1831 30.0598 23.1729 30.0962 23.1734C30.1442 23.1734 30.1903 23.192 30.2243 23.2252C30.2582 23.2584 30.2773 23.3034 30.2773 23.3503Z" fill="#DA840D"/>
<path d="M29.9128 24.7503C29.9128 24.8366 29.7407 24.9074 29.5257 24.9074C29.3107 24.9074 29.1387 24.8366 29.1387 24.7503C29.1387 24.6641 29.313 24.5911 29.5257 24.5911C29.7385 24.5911 29.9128 24.6619 29.9128 24.7503Z" fill="#DA840D"/>
<path d="M32.9393 23.273C32.9397 23.3242 32.9246 23.3745 32.8958 23.4174C32.8669 23.4602 32.8257 23.4937 32.7774 23.5137C32.729 23.5336 32.6757 23.539 32.6242 23.5293C32.5727 23.5196 32.5253 23.4951 32.488 23.459C32.4508 23.4229 32.4253 23.3768 32.4149 23.3265C32.4045 23.2762 32.4096 23.2241 32.4296 23.1767C32.4496 23.1292 32.4835 23.0887 32.5271 23.0601C32.5707 23.0316 32.622 23.0164 32.6745 23.0164C32.7091 23.0161 32.7435 23.0225 32.7756 23.0353C32.8078 23.048 32.837 23.0669 32.8616 23.0907C32.8862 23.1146 32.9057 23.143 32.9191 23.1743C32.9324 23.2055 32.9393 23.2391 32.9393 23.273Z" fill="#DA840D"/>
<path d="M34.3806 24.3172C34.3806 24.3592 34.2448 24.3946 34.0795 24.3946C33.9143 24.3946 33.7808 24.3592 33.7808 24.3172C33.7808 24.2752 33.9143 24.2375 34.0795 24.2375C34.2448 24.2375 34.3806 24.2729 34.3806 24.3172Z" fill="#DA840D"/>
<path d="M35.3201 23.7948C35.3257 23.818 35.3238 23.8423 35.3147 23.8644C35.3055 23.8866 35.2896 23.9053 35.269 23.9182C35.2485 23.9311 35.2243 23.9374 35.1999 23.9362C35.1756 23.9351 35.1522 23.9265 35.133 23.9118C35.1137 23.8971 35.0997 23.8769 35.0928 23.854C35.0858 23.8312 35.0863 23.8068 35.0942 23.7842C35.1021 23.7616 35.1169 23.742 35.1367 23.728C35.1565 23.7141 35.1803 23.7065 35.2047 23.7063C35.2319 23.7037 35.259 23.7115 35.2805 23.728C35.302 23.7444 35.3162 23.7684 35.3201 23.7948Z" fill="#DA840D"/>
<path d="M34.3807 24.317C34.3754 24.365 34.3561 24.4105 34.325 24.4479C34.2939 24.4854 34.2524 24.5133 34.2054 24.5282C34.1585 24.5431 34.1081 24.5444 34.0604 24.532C34.0127 24.5196 33.9697 24.4939 33.9366 24.4581C33.9035 24.4223 33.8817 24.3779 33.8739 24.3303C33.866 24.2827 33.8724 24.2338 33.8923 24.1897C33.9122 24.1455 33.9448 24.108 33.9861 24.0815C34.0273 24.055 34.0756 24.0408 34.1249 24.0405C34.1603 24.0422 34.195 24.0507 34.227 24.0656C34.259 24.0804 34.2877 24.1012 34.3115 24.1269C34.3353 24.1526 34.3536 24.1826 34.3655 24.2152C34.3774 24.2479 34.3825 24.2825 34.3807 24.317Z" fill="#DA840D"/>
<path d="M35.8338 23.8725C35.8338 23.9654 35.6935 24.0406 35.5192 24.0406C35.3449 24.0406 35.2046 23.9654 35.2046 23.8725C35.2046 23.7795 35.3449 23.7065 35.5192 23.7065C35.6935 23.7065 35.8338 23.7818 35.8338 23.8725Z" fill="#DA840D"/>
<path d="M42.7349 24.0894C42.4181 21.342 36.7415 19.1565 29.7838 19.1565C23.2743 19.1565 17.8875 21.0699 16.9595 23.5629C16.7451 23.8998 16.6293 24.2877 16.6245 24.6844C16.6245 27.5424 22.6225 30.3982 29.7838 30.3982C36.9452 30.3982 42.8934 27.7437 42.8934 24.8813C42.8929 24.6099 42.8391 24.341 42.7349 24.0894Z" fill="#C66720"/>
<path d="M43.5339 23.5939C43.5339 26.4518 37.3232 29.1107 29.8472 29.1107C22.3712 29.1107 16.1152 26.255 16.1152 23.4058C16.1152 20.5567 22.3712 18.7605 29.8472 18.7605C37.3232 18.7605 43.5339 20.7359 43.5339 23.5939Z" fill="#E3AC8A"/>
<path d="M43.4139 23.043C43.4139 25.901 37.5291 28.0599 30.0599 28.0599C22.5908 28.0599 16.5249 25.7439 16.5249 22.8859C16.5249 20.0279 22.584 17.7119 30.0599 17.7119C37.5359 17.7119 43.4139 20.185 43.4139 23.043Z" fill="#DA840D"/>
<path d="M29.6525 26.3897C35.1989 26.3897 39.6952 24.6714 39.6952 22.5518C39.6952 20.4322 35.1989 18.7139 29.6525 18.7139C24.1061 18.7139 19.6099 20.4322 19.6099 22.5518C19.6099 24.6714 24.1061 26.3897 29.6525 26.3897Z" fill="#F0A508"/>
<path d="M22.8917 23.9674C22.8917 24.1886 22.636 24.3832 22.3213 24.3832C22.0067 24.3832 21.751 24.1974 21.751 23.9674C21.751 23.7373 22.0067 23.5537 22.3213 23.5537C22.636 23.5537 22.8917 23.7395 22.8917 23.9674Z" fill="#DA840D"/>
<path d="M21.7512 22.2263C21.7481 22.2872 21.7268 22.346 21.6899 22.3952C21.653 22.4444 21.6021 22.4819 21.5436 22.5032C21.4851 22.5245 21.4215 22.5285 21.3606 22.5147C21.2998 22.501 21.2444 22.4701 21.2014 22.426C21.1583 22.3818 21.1294 22.3262 21.1184 22.2662C21.1073 22.2062 21.1144 22.1443 21.139 22.0882C21.1635 22.0321 21.2044 21.9842 21.2565 21.9506C21.3086 21.917 21.3696 21.899 21.432 21.8989C21.475 21.8998 21.5174 21.909 21.5568 21.9259C21.5961 21.9429 21.6317 21.9672 21.6614 21.9977C21.691 22.0281 21.7142 22.064 21.7296 22.1032C21.7451 22.1425 21.7524 22.1843 21.7512 22.2263Z" fill="#DA840D"/>
<path d="M25.721 24.4719C25.7274 24.5789 25.7007 24.6852 25.6445 24.7772C25.5883 24.8693 25.5051 24.9427 25.4058 24.988C25.3064 25.0333 25.1954 25.0484 25.0872 25.0314C24.9789 25.0143 24.8784 24.966 24.7986 24.8925C24.7188 24.819 24.6634 24.7238 24.6396 24.6192C24.6157 24.5146 24.6246 24.4054 24.6649 24.3058C24.7053 24.2062 24.7753 24.1207 24.8659 24.0603C24.9566 24 25.0636 23.9677 25.1733 23.9675C25.2431 23.9655 25.3127 23.9769 25.3781 24.0011C25.4434 24.0253 25.5032 24.0619 25.5541 24.1088C25.605 24.1556 25.6459 24.2118 25.6745 24.2741C25.7032 24.3364 25.719 24.4036 25.721 24.4719Z" fill="#DA840D"/>
<path d="M24.5215 22.4765C24.5215 22.6159 24.3653 22.7265 24.173 22.7265C23.9806 22.7265 23.8267 22.6159 23.8267 22.4765C23.8267 22.3372 23.9828 22.2266 24.173 22.2266C24.3631 22.2266 24.5215 22.3394 24.5215 22.4765Z" fill="#DA840D"/>
<path d="M28.0207 23.662C28.029 23.7315 28.0154 23.8018 27.9819 23.8635C27.9483 23.9253 27.8964 23.9757 27.8329 24.008C27.7694 24.0402 27.6973 24.0529 27.6263 24.0442C27.5553 24.0356 27.4886 24.006 27.4352 23.9595C27.3817 23.913 27.344 23.8517 27.327 23.7838C27.31 23.7158 27.3145 23.6445 27.34 23.5791C27.3654 23.5137 27.4106 23.4574 27.4695 23.4177C27.5284 23.378 27.5983 23.3567 27.6699 23.3567C27.7578 23.3519 27.8441 23.3813 27.9098 23.4385C27.9756 23.4957 28.0155 23.5761 28.0207 23.662Z" fill="#DA840D"/>
<path d="M28.1543 25.5049C28.1543 25.6465 27.9868 25.7615 27.7786 25.7615C27.5703 25.7615 27.4028 25.6465 27.4028 25.5049C27.4028 25.3633 27.5703 25.2483 27.7786 25.2483C27.9868 25.2483 28.1543 25.3633 28.1543 25.5049Z" fill="#DA840D"/>
<path d="M26.6561 22.7597C26.6521 22.8107 26.633 22.8595 26.6011 22.9001C26.5692 22.9407 26.5259 22.9714 26.4765 22.9883C26.427 23.0052 26.3736 23.0076 26.3228 22.9953C26.272 22.983 26.2259 22.9565 26.1902 22.919C26.1546 22.8815 26.1309 22.8347 26.122 22.7843C26.1132 22.7338 26.1196 22.6819 26.1404 22.635C26.1613 22.588 26.1957 22.5481 26.2394 22.5199C26.2832 22.4918 26.3344 22.4767 26.3867 22.4766C26.4235 22.4777 26.4597 22.4859 26.4931 22.5008C26.5266 22.5157 26.5568 22.5369 26.5818 22.5633C26.6068 22.5896 26.6263 22.6205 26.6391 22.6542C26.6518 22.6879 26.6576 22.7238 26.6561 22.7597Z" fill="#DA840D"/>
<path d="M30.5535 23.2993C30.5535 23.4409 30.3906 23.5537 30.1891 23.5537C29.9877 23.5537 29.8247 23.4409 29.8247 23.2993C29.8247 23.1578 29.9877 23.0427 30.1891 23.0427C30.3906 23.0427 30.5535 23.1578 30.5535 23.2993Z" fill="#DA840D"/>
<path d="M30.5535 24.6246C30.5535 24.7086 30.3906 24.7772 30.1891 24.7772C29.9877 24.7772 29.8247 24.7086 29.8247 24.6246C29.8247 24.5405 29.9877 24.4719 30.1891 24.4719C30.3906 24.4719 30.5535 24.5405 30.5535 24.6246Z" fill="#DA840D"/>
<path d="M33.0183 23.7616C33.0183 23.8767 32.869 23.9674 32.6879 23.9674C32.5068 23.9674 32.3574 23.8767 32.3574 23.7616C32.3574 23.6466 32.5068 23.5537 32.6879 23.5537C32.869 23.5537 33.0183 23.6466 33.0183 23.7616Z" fill="#DA840D"/>
<path d="M32.6242 25.2395C32.6407 25.3088 32.6346 25.3813 32.607 25.4472C32.5793 25.513 32.5314 25.5687 32.4699 25.6067C32.4083 25.6447 32.3362 25.6631 32.2635 25.6593C32.1909 25.6554 32.1212 25.6296 32.0642 25.5853C32.0072 25.541 31.9657 25.4806 31.9455 25.4122C31.9252 25.3439 31.9272 25.2711 31.9512 25.2039C31.9752 25.1367 32.02 25.0785 32.0793 25.0373C32.1387 24.9961 32.2097 24.974 32.2825 24.974C32.3636 24.9659 32.4448 24.9891 32.5087 25.0387C32.5725 25.0883 32.614 25.1604 32.6242 25.2395Z" fill="#DA840D"/>
<path d="M35.3674 24.8102C35.3533 24.8756 35.3205 24.9358 35.2729 24.9837C35.2253 25.0317 35.1647 25.0655 35.0982 25.0812C35.0318 25.0969 34.9621 25.094 34.8973 25.0726C34.8325 25.0513 34.7752 25.0124 34.7321 24.9606C34.6889 24.9087 34.6617 24.846 34.6535 24.7797C34.6453 24.7133 34.6565 24.646 34.6858 24.5857C34.7151 24.5253 34.7612 24.4742 34.819 24.4384C34.8767 24.4026 34.9436 24.3835 35.012 24.3833C35.1166 24.395 35.2123 24.4462 35.2787 24.526C35.3451 24.6058 35.3769 24.7078 35.3674 24.8102Z" fill="#DA840D"/>
<path d="M35.1683 22.8858C35.1683 22.9721 35.0551 23.0429 34.9125 23.0429C34.7699 23.0429 34.6567 22.9721 34.6567 22.8858C34.6567 22.7996 34.7699 22.7266 34.9125 22.7266C35.0551 22.7266 35.1683 22.7973 35.1683 22.8858Z" fill="#DA840D"/>
<path d="M37.3438 23.3482C37.3438 23.691 37.1876 23.9675 36.9952 23.9675C36.8028 23.9675 36.6489 23.691 36.6489 23.3482C36.6489 23.0053 36.8051 22.7266 36.9952 22.7266C37.1853 22.7266 37.3438 23.0053 37.3438 23.3482Z" fill="#DA840D"/>
<path d="M38.2129 22.7201C38.212 22.7523 38.2014 22.7835 38.1825 22.8098C38.1635 22.8362 38.1371 22.8565 38.1064 22.8682C38.0757 22.8799 38.0422 22.8825 38.01 22.8757C37.9778 22.8689 37.9484 22.853 37.9254 22.8299C37.9024 22.8068 37.8869 22.7777 37.8808 22.746C37.8747 22.7144 37.8783 22.6817 37.8911 22.6521C37.9039 22.6224 37.9254 22.5971 37.9528 22.5793C37.9802 22.5615 38.0124 22.552 38.0454 22.552C38.0677 22.5523 38.0897 22.5569 38.1102 22.5655C38.1306 22.5741 38.1492 22.5865 38.1647 22.6022C38.1803 22.6178 38.1925 22.6362 38.2008 22.6565C38.2091 22.6767 38.2132 22.6983 38.2129 22.7201Z" fill="#DA840D"/>
<path d="M32.5045 22.1887C32.5045 22.348 32.2941 22.4763 32.0338 22.4763C31.7735 22.4763 31.563 22.348 31.563 22.1887C31.563 22.0294 31.7735 21.8989 32.036 21.8989C32.2986 21.8989 32.5045 22.0294 32.5045 22.1887Z" fill="#DA840D"/>
<path d="M23.641 20.6984C23.641 20.7958 23.4758 20.8754 23.2721 20.8754C23.0684 20.8754 22.9009 20.7958 22.9009 20.6984C22.9009 20.6011 23.0661 20.5215 23.2721 20.5215C23.478 20.5215 23.641 20.6011 23.641 20.6984Z" fill="#DA840D"/>
<path d="M25.805 20.3444C25.805 20.4418 25.6172 20.5214 25.3841 20.5214C25.1509 20.5214 24.9653 20.4418 24.9653 20.3444C24.9653 20.2471 25.1532 20.1675 25.3841 20.1675C25.6149 20.1675 25.805 20.2471 25.805 20.3444Z" fill="#DA840D"/>
<path d="M28.539 20.7778C28.539 20.9194 28.2855 21.0344 27.9709 21.0344C27.6563 21.0344 27.4028 20.9194 27.4028 20.7778C27.4028 20.6362 27.6563 20.53 27.9709 20.53C28.2855 20.53 28.539 20.6362 28.539 20.7778Z" fill="#DA840D"/>
<path d="M30.5532 20.344C30.5536 20.3795 30.5433 20.4144 30.5234 20.4441C30.5035 20.4739 30.475 20.4972 30.4416 20.5111C30.4081 20.525 30.3712 20.5288 30.3355 20.5222C30.2998 20.5155 30.2669 20.4986 30.241 20.4737C30.2152 20.4487 30.1975 20.4168 30.1902 20.382C30.183 20.3471 30.1865 20.311 30.2003 20.2781C30.2141 20.2453 30.2376 20.2172 30.2678 20.1974C30.298 20.1776 30.3335 20.167 30.3698 20.167C30.3938 20.1667 30.4176 20.1711 30.4398 20.1798C30.4621 20.1886 30.4823 20.2016 30.4993 20.218C30.5164 20.2345 30.5299 20.2541 30.5392 20.2757C30.5484 20.2973 30.5532 20.3205 30.5532 20.344Z" fill="#DA840D"/>
<path d="M30.1891 21.742C30.1891 21.8305 30.0171 21.8991 29.8021 21.8991C29.5871 21.8991 29.415 21.8305 29.415 21.742C29.415 21.6535 29.5893 21.585 29.8021 21.585C30.0148 21.585 30.1891 21.6557 30.1891 21.742Z" fill="#DA840D"/>
<path d="M33.2151 20.2642C33.216 20.3155 33.2013 20.366 33.1727 20.4091C33.1442 20.4523 33.1031 20.4861 33.0548 20.5064C33.0065 20.5267 32.9531 20.5324 32.9015 20.523C32.8498 20.5135 32.8022 20.4892 32.7647 20.4532C32.7272 20.4172 32.7016 20.3711 32.691 20.3207C32.6804 20.2704 32.6854 20.2181 32.7053 20.1706C32.7252 20.123 32.7591 20.0824 32.8027 20.0537C32.8464 20.0251 32.8977 20.0098 32.9503 20.0098C32.9848 20.0095 33.019 20.0158 33.051 20.0285C33.0829 20.0411 33.112 20.0597 33.1366 20.0834C33.1612 20.107 33.1808 20.1351 33.1943 20.1661C33.2077 20.1972 33.2148 20.2305 33.2151 20.2642Z" fill="#DA840D"/>
<path d="M34.6569 21.3081C34.6569 21.3524 34.5211 21.3878 34.3559 21.3878C34.1907 21.3878 34.0571 21.3524 34.0571 21.3081C34.0571 21.2639 34.1907 21.2307 34.3559 21.2307C34.5211 21.2307 34.6569 21.2661 34.6569 21.3081Z" fill="#DA840D"/>
<path d="M35.596 20.7867C35.6016 20.8099 35.5997 20.8343 35.5906 20.8564C35.5814 20.8785 35.5654 20.8973 35.5449 20.9101C35.5243 20.923 35.5002 20.9293 35.4758 20.9282C35.4514 20.927 35.428 20.9185 35.4088 20.9038C35.3896 20.889 35.3756 20.8689 35.3686 20.846C35.3617 20.8231 35.3622 20.7987 35.3701 20.7761C35.3779 20.7535 35.3928 20.7339 35.4126 20.72C35.4324 20.706 35.4561 20.6984 35.4805 20.6982C35.5077 20.6957 35.5349 20.7034 35.5564 20.7199C35.5778 20.7364 35.592 20.7603 35.596 20.7867Z" fill="#DA840D"/>
<path d="M34.6569 21.3089C34.6602 21.3435 34.6561 21.3785 34.6449 21.4115C34.6336 21.4445 34.6154 21.4748 34.5914 21.5006C34.5674 21.5263 34.5382 21.5469 34.5057 21.561C34.4731 21.575 34.4379 21.5823 34.4022 21.5823C34.3666 21.5823 34.3314 21.575 34.2988 21.561C34.2663 21.5469 34.2371 21.5263 34.2131 21.5006C34.1891 21.4748 34.1709 21.4445 34.1596 21.4115C34.1484 21.3785 34.1443 21.3435 34.1476 21.3089C34.1443 21.2742 34.1484 21.2392 34.1596 21.2062C34.1709 21.1732 34.1891 21.1429 34.2131 21.1171C34.2371 21.0914 34.2663 21.0708 34.2988 21.0567C34.3314 21.0427 34.3666 21.0354 34.4022 21.0354C34.4379 21.0354 34.4731 21.0427 34.5057 21.0567C34.5382 21.0708 34.5674 21.0914 34.5914 21.1171C34.6154 21.1429 34.6336 21.1732 34.6449 21.2062C34.6561 21.2392 34.6602 21.2742 34.6569 21.3089Z" fill="#DA840D"/>
<path d="M36.1079 20.8664C36.1079 20.9593 35.9698 21.0345 35.7956 21.0345C35.6213 21.0345 35.481 20.9593 35.481 20.8664C35.481 20.7735 35.6213 20.6982 35.7956 20.6982C35.9698 20.6982 36.1079 20.7735 36.1079 20.8664Z" fill="#DA840D"/>
<path d="M43.4748 20.8378C43.4748 22.5809 41.1661 24.2488 37.6692 25.2841C35.1087 26.0102 32.4541 26.37 29.7881 26.3525C27.0109 26.3525 24.7294 25.638 22.4253 25.4677C18.5821 25.1757 16.0562 22.4371 16.0562 20.6409C16.0562 17.783 22.3144 15.9956 29.7881 15.9956C37.2618 15.9956 43.4748 17.9798 43.4748 20.8378Z" fill="#E3AC8A"/>
<path d="M43.3033 20.4592C43.3033 23.3172 37.242 25.6332 29.766 25.6332C22.29 25.6332 16.231 23.3172 16.231 20.4592C16.231 17.6012 22.2832 15.2852 29.766 15.2852C37.2487 15.2852 43.3033 17.6012 43.3033 20.4592Z" fill="#DA840D"/>
<path d="M39.6136 19.9703C39.6136 22.0894 35.1163 23.8082 29.571 23.8082C24.0257 23.8082 19.5283 22.0894 19.5283 19.9703C19.5283 17.8511 24.0234 16.1301 29.571 16.1301C35.1185 16.1301 39.6136 17.8489 39.6136 19.9703Z" fill="#F0A508"/>
<path d="M22.8102 21.3861C22.8102 21.6073 22.5544 21.7997 22.2398 21.7997C21.9252 21.7997 21.6694 21.6139 21.6694 21.3861C21.6694 21.1582 21.9252 20.9724 22.2398 20.9724C22.5544 20.9724 22.8102 21.156 22.8102 21.3861Z" fill="#DA840D"/>
<path d="M21.6697 19.6452C21.6671 19.7063 21.6461 19.7652 21.6095 19.8148C21.5728 19.8643 21.5221 19.9022 21.4636 19.9238C21.4051 19.9453 21.3414 19.9497 21.2804 19.9362C21.2194 19.9227 21.1638 19.892 21.1206 19.8479C21.0773 19.8038 21.0482 19.7482 21.0369 19.6881C21.0257 19.628 21.0328 19.566 21.0573 19.5097C21.0818 19.4535 21.1226 19.4056 21.1748 19.3719C21.2269 19.3381 21.2881 19.3201 21.3506 19.3201C21.3934 19.3209 21.4356 19.33 21.4748 19.3468C21.514 19.3636 21.5495 19.3878 21.5791 19.418C21.6087 19.4482 21.632 19.4838 21.6475 19.5228C21.6631 19.5618 21.6706 19.6034 21.6697 19.6452Z" fill="#DA840D"/>
<path d="M25.6398 21.8884C25.6466 21.9954 25.6204 22.102 25.5645 22.1943C25.5086 22.2865 25.4256 22.3603 25.3263 22.4059C25.227 22.4516 25.116 22.467 25.0076 22.4503C24.8992 22.4335 24.7985 22.3854 24.7184 22.312C24.6384 22.2386 24.5827 22.1434 24.5587 22.0388C24.5347 21.9341 24.5434 21.8249 24.5836 21.7251C24.6239 21.6253 24.6939 21.5397 24.7846 21.4793C24.8752 21.4188 24.9824 21.3864 25.0921 21.3862C25.2328 21.3821 25.3695 21.4326 25.4721 21.5267C25.5748 21.6208 25.6351 21.7509 25.6398 21.8884Z" fill="#DA840D"/>
<path d="M24.4405 19.8952C24.4405 20.0324 24.2843 20.1452 24.0919 20.1452C23.8995 20.1452 23.7456 20.0324 23.7456 19.8952C23.7456 19.7581 23.9018 19.6453 24.0942 19.6453C24.2866 19.6453 24.4405 19.7559 24.4405 19.8952Z" fill="#DA840D"/>
<path d="M27.9417 21.0806C27.9495 21.1496 27.9357 21.2193 27.9021 21.2804C27.8685 21.3416 27.8166 21.3913 27.7535 21.4231C27.6903 21.4548 27.6188 21.4671 27.5483 21.4582C27.4778 21.4494 27.4118 21.4198 27.3589 21.3735C27.306 21.3272 27.2687 21.2663 27.252 21.1988C27.2353 21.1313 27.24 21.0604 27.2654 20.9956C27.2908 20.9308 27.3357 20.875 27.3942 20.8357C27.4528 20.7963 27.5221 20.7753 27.5932 20.7753C27.6807 20.7711 27.7664 20.8008 27.8316 20.8579C27.8969 20.9151 27.9365 20.9951 27.9417 21.0806Z" fill="#DA840D"/>
<path d="M28.0727 22.9209C28.0727 23.0625 27.9052 23.1775 27.697 23.1775C27.4888 23.1775 27.3213 23.0625 27.3213 22.9209C27.3213 22.7793 27.4888 22.6665 27.697 22.6665C27.9052 22.6665 28.0727 22.7815 28.0727 22.9209Z" fill="#DA840D"/>
<path d="M26.5835 20.176C26.58 20.2271 26.5612 20.2762 26.5296 20.3171C26.4979 20.358 26.4547 20.3889 26.4053 20.4062C26.3559 20.4234 26.3024 20.4262 26.2514 20.4141C26.2004 20.402 26.1541 20.3757 26.1182 20.3382C26.0823 20.3008 26.0584 20.254 26.0494 20.2034C26.0404 20.1529 26.0467 20.1009 26.0675 20.0539C26.0883 20.0068 26.1227 19.9667 26.1666 19.9384C26.2104 19.9102 26.2617 19.8951 26.3141 19.895C26.3507 19.8962 26.3867 19.9043 26.42 19.9191C26.4533 19.9338 26.4834 19.9548 26.5084 19.9809C26.5334 20.007 26.5529 20.0377 26.5658 20.0711C26.5787 20.1046 26.5847 20.1402 26.5835 20.176Z" fill="#DA840D"/>
<path d="M30.4717 20.7156C30.4717 20.8572 30.3087 20.9722 30.1073 20.9722C29.9059 20.9722 29.752 20.8572 29.752 20.7156C29.752 20.574 29.9149 20.459 30.1164 20.459C30.3178 20.459 30.4717 20.574 30.4717 20.7156Z" fill="#DA840D"/>
<path d="M30.4717 22.0406C30.4717 22.1246 30.3087 22.1932 30.1073 22.1932C29.9059 22.1932 29.752 22.1246 29.752 22.0406C29.752 21.9565 29.9149 21.8879 30.1164 21.8879C30.3178 21.8879 30.4717 21.9565 30.4717 22.0406Z" fill="#DA840D"/>
<path d="M32.9368 21.1781C32.9368 21.2932 32.7874 21.3861 32.6063 21.3861C32.4253 21.3861 32.2759 21.2932 32.2759 21.1781C32.2759 21.0631 32.4253 20.9724 32.6063 20.9724C32.7874 20.9724 32.9368 21.0653 32.9368 21.1781Z" fill="#DA840D"/>
<path d="M32.5433 22.6557C32.5237 22.7291 32.4798 22.7941 32.4183 22.8405C32.3569 22.887 32.2814 22.9121 32.2038 22.9121C32.1261 22.9121 32.0506 22.887 31.9892 22.8405C31.9278 22.7941 31.8838 22.7291 31.8643 22.6557C31.8838 22.5822 31.9278 22.5172 31.9892 22.4708C32.0506 22.4244 32.1261 22.3992 32.2038 22.3992C32.2814 22.3992 32.3569 22.4244 32.4183 22.4708C32.4798 22.5172 32.5237 22.5822 32.5433 22.6557Z" fill="#DA840D"/>
<path d="M35.2862 22.2287C35.2965 22.28 35.295 22.3329 35.2819 22.3836C35.2689 22.4342 35.2445 22.4815 35.2105 22.5218C35.1765 22.5622 35.1338 22.5947 35.0855 22.617C35.0371 22.6393 34.9843 22.6509 34.9308 22.6509C34.8773 22.6509 34.8245 22.6393 34.7762 22.617C34.7278 22.5947 34.6851 22.5622 34.6511 22.5218C34.6172 22.4815 34.5928 22.4342 34.5797 22.3836C34.5666 22.3329 34.5652 22.28 34.5755 22.2287C34.5633 22.1766 34.5634 22.1225 34.5756 22.0703C34.5878 22.0182 34.6119 21.9694 34.646 21.9277C34.6802 21.8859 34.7235 21.8521 34.7728 21.8289C34.8221 21.8057 34.8761 21.7937 34.9308 21.7937C34.9855 21.7937 35.0395 21.8057 35.0888 21.8289C35.1381 21.8521 35.1815 21.8859 35.2156 21.9277C35.2497 21.9694 35.2738 22.0182 35.286 22.0703C35.2982 22.1225 35.2983 22.1766 35.2862 22.2287Z" fill="#DA840D"/>
<path d="M35.0867 20.3089C35.0867 20.3952 34.9735 20.466 34.831 20.466C34.6884 20.466 34.5752 20.3952 34.5752 20.3089C34.5752 20.2226 34.6884 20.1519 34.831 20.1519C34.9735 20.1519 35.0867 20.216 35.0867 20.3089Z" fill="#DA840D"/>
<path d="M37.2622 20.7649C37.2622 21.1078 37.1061 21.3865 36.9137 21.3865C36.7213 21.3865 36.5674 21.1078 36.5674 20.7649C36.5674 20.422 36.7213 20.1455 36.9137 20.1455C37.1061 20.1455 37.2622 20.422 37.2622 20.7649Z" fill="#DA840D"/>
<path d="M38.1265 20.1366C38.126 20.1689 38.1158 20.2003 38.0972 20.2269C38.0785 20.2536 38.0522 20.2742 38.0215 20.2863C37.9909 20.2983 37.9573 20.3012 37.9249 20.2947C37.8926 20.2881 37.863 20.2723 37.8398 20.2494C37.8166 20.2264 37.8008 20.1972 37.7946 20.1655C37.7883 20.1338 37.7917 20.101 37.8045 20.0713C37.8172 20.0415 37.8387 20.016 37.8662 19.9981C37.8937 19.9803 37.926 19.9707 37.959 19.9707C38.0036 19.9713 38.0462 19.989 38.0776 20.0201C38.1089 20.0511 38.1265 20.093 38.1265 20.1366Z" fill="#DA840D"/>
<path d="M32.4228 19.6052C32.4228 19.7645 32.2123 19.895 31.9498 19.895C31.6872 19.895 31.479 19.7645 31.479 19.6052C31.479 19.4459 31.6895 19.3176 31.9498 19.3176C32.2101 19.3176 32.4228 19.4459 32.4228 19.6052Z" fill="#DA840D"/>
<path d="M23.5507 18.1169C23.5507 18.2143 23.3854 18.2939 23.1795 18.2939C22.9735 18.2939 22.8105 18.2143 22.8105 18.1169C22.8105 18.0196 22.9758 17.9377 23.1795 17.9377C23.3832 17.9377 23.5507 18.0174 23.5507 18.1169Z" fill="#DA840D"/>
<path d="M25.7233 17.7605C25.7233 17.86 25.5355 17.9374 25.3023 17.9374C25.0692 17.9374 24.8813 17.86 24.8813 17.7605C24.8813 17.6609 25.0715 17.5835 25.3023 17.5835C25.5332 17.5835 25.7233 17.6543 25.7233 17.7605Z" fill="#DA840D"/>
<path d="M28.4575 18.1943C28.4575 18.3359 28.204 18.4509 27.8894 18.4509C27.5748 18.4509 27.3213 18.3359 27.3213 18.1943C27.3213 18.0528 27.5748 17.9377 27.8894 17.9377C28.204 17.9377 28.4575 18.0528 28.4575 18.1943Z" fill="#DA840D"/>
<path d="M30.4716 17.7605C30.4721 17.796 30.4617 17.8309 30.4418 17.8606C30.422 17.8904 30.3935 17.9137 30.36 17.9276C30.3266 17.9415 30.2897 17.9453 30.2539 17.9387C30.2182 17.932 30.1854 17.9151 30.1595 17.8902C30.1336 17.8652 30.1159 17.8333 30.1087 17.7985C30.1014 17.7636 30.1049 17.7275 30.1187 17.6946C30.1325 17.6618 30.156 17.6337 30.1862 17.6139C30.2164 17.5941 30.2519 17.5835 30.2883 17.5835C30.3123 17.5832 30.3361 17.5876 30.3583 17.5963C30.3805 17.6051 30.4008 17.6181 30.4178 17.6346C30.4349 17.651 30.4484 17.6706 30.4576 17.6922C30.4669 17.7139 30.4716 17.737 30.4716 17.7605Z" fill="#DA840D"/>
<path d="M30.1076 19.1602C30.1076 19.2465 29.9333 19.3173 29.7205 19.3173C29.5078 19.3173 29.3335 19.2465 29.3335 19.1602C29.3335 19.074 29.5078 19.001 29.7205 19.001C29.9333 19.001 30.1076 19.0718 30.1076 19.1602Z" fill="#DA840D"/>
<path d="M33.1315 17.6833C33.1328 17.7343 33.1186 17.7846 33.0906 17.8276C33.0625 17.8707 33.022 17.9046 32.9742 17.9251C32.9263 17.9455 32.8733 17.9515 32.822 17.9424C32.7706 17.9333 32.7232 17.9094 32.6858 17.8738C32.6484 17.8382 32.6227 17.7925 32.612 17.7425C32.6013 17.6926 32.6061 17.6406 32.6258 17.5934C32.6454 17.5461 32.6791 17.5056 32.7224 17.4771C32.7657 17.4486 32.8167 17.4334 32.8689 17.4334C32.9376 17.4328 33.0037 17.4587 33.0528 17.5055C33.102 17.5523 33.1303 17.6162 33.1315 17.6833Z" fill="#DA840D"/>
<path d="M34.5752 18.7271C34.5752 18.7691 34.4394 18.8045 34.2742 18.8045C34.1089 18.8045 33.9731 18.7691 33.9731 18.7271C33.9731 18.6851 34.1089 18.6475 34.2742 18.6475C34.4394 18.6475 34.5752 18.6829 34.5752 18.7271Z" fill="#DA840D"/>
<path d="M35.5144 18.2052C35.5201 18.2284 35.5182 18.2527 35.509 18.2748C35.4999 18.297 35.4839 18.3157 35.4634 18.3286C35.4428 18.3415 35.4187 18.3477 35.3943 18.3466C35.3699 18.3455 35.3465 18.3369 35.3273 18.3222C35.3081 18.3075 35.294 18.2873 35.2871 18.2644C35.2801 18.2416 35.2806 18.2172 35.2885 18.1946C35.2964 18.172 35.3113 18.1524 35.3311 18.1384C35.3509 18.1245 35.3746 18.1169 35.399 18.1167C35.4262 18.1141 35.4533 18.1219 35.4748 18.1384C35.4963 18.1548 35.5105 18.1788 35.5144 18.2052Z" fill="#DA840D"/>
<path d="M34.5755 18.7272C34.5703 18.7752 34.5509 18.8206 34.5198 18.8581C34.4887 18.8956 34.4472 18.9234 34.4003 18.9384C34.3533 18.9533 34.303 18.9546 34.2553 18.9422C34.2076 18.9297 34.1646 18.9041 34.1315 18.8683C34.0984 18.8325 34.0766 18.7881 34.0687 18.7405C34.0608 18.6928 34.0672 18.644 34.0871 18.5998C34.1071 18.5557 34.1396 18.5181 34.1809 18.4917C34.2221 18.4652 34.2704 18.451 34.3197 18.4507C34.3551 18.4524 34.3898 18.4609 34.4218 18.4757C34.4539 18.4905 34.4826 18.5114 34.5063 18.5371C34.5301 18.5628 34.5484 18.5928 34.5603 18.6254C34.5722 18.658 34.5773 18.6926 34.5755 18.7272Z" fill="#DA840D"/>
<path d="M36.0259 18.2824C36.0259 18.3753 35.8856 18.4505 35.7135 18.4505C35.5415 18.4505 35.3989 18.3753 35.3989 18.2824C35.3989 18.1895 35.5393 18.1165 35.7135 18.1165C35.8878 18.1165 36.0259 18.1895 36.0259 18.2824Z" fill="#DA840D"/>
<path d="M31.8206 32.1059C31.7693 31.9148 31.6499 31.7479 31.484 31.6352C31.318 31.5224 31.1163 31.4713 30.9152 31.4909C29.5572 31.586 29.444 33.8092 29.9216 34.7803C30.0638 34.8877 30.2426 34.938 30.4215 34.9207C30.6003 34.9034 30.7656 34.8199 30.8835 34.6873C31.3181 34.2118 31.4562 33.5238 31.6101 32.9177C31.6855 32.6493 31.7557 32.3787 31.8206 32.1059Z" fill="#EEBE30"/>
<path d="M41.9024 20.5543C41.4302 20.3759 40.9947 20.1159 40.6168 19.7867C40.1651 19.3587 39.7489 18.8964 39.3719 18.4042C38.8083 17.7273 37.989 17.4618 37.1289 17.3623C36.1715 17.2495 35.1824 17.4574 34.2182 17.4087C33.7011 17.395 33.1943 17.264 32.7379 17.0261C32.2852 16.7739 31.9299 16.3624 31.5429 16.0063C30.7846 15.3427 29.8227 15.3427 28.8653 15.1923C28.2311 15.0828 27.5896 15.0185 26.9459 14.9998C26.2873 14.9843 25.1352 14.9755 24.6939 15.5882C24.205 15.8094 24.0329 16.3978 23.922 16.8933C23.8596 17.3022 23.7603 17.7049 23.6255 18.0967C23.4244 18.5423 23.1134 18.9322 22.7202 19.2315C21.8578 19.9327 20.7918 20.3088 19.8163 20.7976C19.0241 21.1936 18.0531 21.7554 17.6276 22.5496C17.3718 23.0252 17.4012 23.8392 17.8539 24.1909C18.413 24.6112 18.8385 23.8193 18.9584 23.4189C19.0693 23.0561 19.1101 22.6867 19.4111 22.4146C19.8166 22.0706 20.2987 21.8237 20.8189 21.6935C21.2558 21.5741 21.7243 21.5741 22.1543 21.4435C22.6705 21.2536 23.1561 20.9922 23.5961 20.6671C24.1122 20.3309 24.6146 20.0035 25.228 19.8575C25.7373 19.7425 26.5249 19.7602 26.9256 20.1406C27.1453 20.4007 27.3343 20.6842 27.4891 20.9856C27.6956 21.2668 27.9691 21.4946 28.2858 21.6493C28.9241 22.0054 29.6552 22.1625 30.3229 22.4854C30.5462 22.5989 30.7386 22.7627 30.8842 22.9632C30.9068 22.9964 30.9272 23.0296 30.9476 23.065C30.964 23.09 30.9791 23.1159 30.9929 23.1424C31.7217 24.4564 30.805 25.8478 30.8299 27.2347C30.8299 27.9824 31.3844 29.2057 32.3215 28.6062C32.3848 28.5664 32.4437 28.5221 32.5025 28.4779C32.6089 27.509 32.6949 26.5158 33.039 25.6022C33.3626 24.7528 33.804 23.9675 33.7564 23.0318C33.7293 22.5164 33.4781 22.043 33.4169 21.5342C33.3309 20.8264 33.9828 20.5056 34.569 20.3663C35.4054 20.1487 36.292 20.2079 37.0904 20.5344C38.5933 21.1383 39.8065 22.3837 41.4769 22.5894C42.1378 22.6712 43.0952 22.5695 43.3577 21.8638C43.6203 21.1582 42.3732 20.7512 41.9024 20.5543Z" fill="#EEBE30"/>
<path opacity="0.5" d="M32.7059 21.4768C32.6373 21.2384 32.5107 21.0197 32.3369 20.8394C32.1631 20.6591 31.9472 20.5226 31.7078 20.4416C31.3637 20.3531 30.8205 20.5765 30.8635 20.9835C30.8641 20.9917 30.8665 20.9996 30.8704 21.0068C30.8743 21.0141 30.8796 21.0204 30.8861 21.0256C30.6598 21.4967 31.3162 22.3086 31.5425 22.6536C31.7083 22.8746 31.8128 23.1337 31.8458 23.4057C31.8843 23.7575 31.7689 24.1047 31.8028 24.452C31.8164 24.6069 31.9364 25.2683 32.2555 25.0028C32.6199 24.702 32.6584 24.0207 32.7331 23.5915C32.8836 22.8933 32.8744 22.1712 32.7059 21.4768Z" fill="white"/>
<path opacity="0.5" d="M39.2879 19.1869C38.9178 18.5869 38.3278 18.1471 37.6379 17.957C36.9407 17.7602 35.2681 17.5478 35.0916 18.5454C35.0901 18.5656 35.0952 18.5856 35.1062 18.6028C35.1172 18.6199 35.1335 18.6331 35.1527 18.6406C35.1973 18.6724 35.2369 18.7104 35.2704 18.7534C35.2799 18.7714 35.2949 18.7861 35.3134 18.7954C35.3317 18.8018 35.3517 18.8018 35.37 18.7954C35.4992 18.9111 35.6541 18.9959 35.8226 19.0431C36.2376 19.133 36.6607 19.1819 37.0856 19.1891C37.6741 19.2444 38.0023 19.4922 38.4119 19.8771C38.6383 20.0983 39.2584 20.5628 39.5776 20.2111C39.822 19.9634 39.4214 19.3904 39.2879 19.1869Z" fill="white"/>
<path opacity="0.5" d="M19.173 21.9657C19.0738 21.9535 18.9734 21.9535 18.8742 21.9657C18.8746 21.9613 18.874 21.9569 18.8724 21.9528C18.8708 21.9487 18.8682 21.945 18.865 21.9421C18.8617 21.9391 18.8578 21.9369 18.8535 21.9356C18.8492 21.9343 18.8447 21.934 18.8402 21.9347C18.6748 21.9605 18.5178 22.0234 18.3815 22.1186C18.2452 22.2138 18.1334 22.3387 18.0549 22.4833C18.0005 22.5939 17.8942 22.981 18.1273 23.0009C18.3604 23.0208 18.5437 22.7797 18.675 22.6536C18.8653 22.4617 19.0451 22.2601 19.2137 22.0497C19.2187 22.0419 19.2216 22.0329 19.2222 22.0237C19.2227 22.0144 19.2209 22.0052 19.2168 21.9968C19.2127 21.9885 19.2066 21.9812 19.199 21.9758C19.1913 21.9703 19.1824 21.9668 19.173 21.9657Z" fill="white"/>
<path opacity="0.5" d="M46.4741 34.7203C46.2735 34.6786 46.0664 34.6766 45.865 34.7146C45.6637 34.7525 45.4722 34.8296 45.3018 34.9412C45.1315 35.0528 44.9858 35.1966 44.8734 35.3643C44.761 35.5319 44.6842 35.7199 44.6475 35.917C44.6462 35.9241 44.6465 35.9314 44.6483 35.9384C44.6502 35.9453 44.6537 35.9518 44.6585 35.9573C44.6632 35.9628 44.6692 35.9672 44.6759 35.9702C44.6826 35.9732 44.6899 35.9747 44.6973 35.9745C44.6984 35.9893 44.6984 36.0041 44.6973 36.0188C44.6181 36.3639 44.1994 36.5231 43.9345 36.6691C43.7376 36.7753 43.5339 36.8704 43.3302 36.9678C42.6512 37.304 41.5829 37.7376 41.3724 38.629C41.369 38.6387 41.3687 38.6492 41.3716 38.6591C41.3744 38.6689 41.3802 38.6777 41.3882 38.6843C41.7956 38.9586 42.2642 38.5494 42.5833 38.2928C43.2273 37.794 43.9826 37.4507 44.7878 37.2907C45.6796 37.1005 47.3432 37.158 47.6646 35.9635C47.8593 35.2224 46.9969 34.811 46.4741 34.7203Z" fill="white"/>
<path d="M31.8864 17.5636C31.8071 17.4552 31.6057 17.2229 31.4699 17.2074C31.3929 17.2074 31.3635 17.057 31.2911 17.0791C31.2187 17.1013 31.1077 17.1566 31.0082 17.0791C30.9747 17.0487 30.9392 17.0206 30.9018 16.9951C30.881 16.9808 30.8572 16.9712 30.8321 16.967C30.8071 16.9628 30.7814 16.9641 30.7569 16.9707C30.6935 16.9951 30.6686 17.088 30.5917 17.0283C30.5147 16.9685 30.3314 17.0592 30.2861 17.1477C30.2709 17.172 30.2587 17.198 30.2499 17.2251C29.9806 17.2627 29.709 17.6675 29.6071 17.8556C29.5119 18.0365 29.4674 18.2389 29.4781 18.4421C29.4889 18.6453 29.5545 18.8421 29.6682 19.0125C29.9149 19.4239 30.4174 19.4792 30.861 19.4925C31.0358 19.5123 31.2129 19.4972 31.3816 19.4483C31.5376 19.3814 31.6728 19.2753 31.7732 19.1408C32.2213 18.601 32.3073 18.1321 31.8864 17.5636Z" fill="#48264C"/>
<path d="M31.8864 17.5639C31.8092 17.4575 31.7179 17.3615 31.6148 17.2786C31.6243 17.6441 31.5035 18.0015 31.2731 18.2896C31.0427 18.5777 30.7171 18.7786 30.3518 18.858C30.0943 18.9133 29.8267 18.905 29.5732 18.8336C29.6004 18.8977 29.6321 18.9598 29.6683 19.0195C29.915 19.4309 30.4175 19.4862 30.8611 19.4995C31.0359 19.5193 31.213 19.5042 31.3817 19.4552C31.5377 19.3884 31.6728 19.2823 31.7733 19.1478C32.2214 18.6014 32.3074 18.1324 31.8864 17.5639Z" fill="#300D33"/>
<path d="M32.2846 39.5824C32.2118 39.3997 32.0945 39.2372 31.9428 39.109C31.9179 38.9718 31.8862 38.8369 31.8568 38.6997C31.8544 38.6863 31.849 38.6736 31.841 38.6625C31.8329 38.6515 31.8224 38.6423 31.8103 38.6357C31.7981 38.6291 31.7846 38.6253 31.7707 38.6245C31.7568 38.6237 31.7429 38.626 31.73 38.6312C31.5263 38.7241 31.4811 38.6046 31.3407 38.4962C31.3183 38.4827 31.2924 38.4756 31.2661 38.4756C31.2397 38.4756 31.2138 38.4827 31.1914 38.4962C30.965 38.6467 30.7251 38.2905 30.5486 38.4962C30.4453 38.6513 30.3311 38.7991 30.2068 38.9386C30.0599 39.0294 29.9246 39.1371 29.8039 39.2594C29.7172 39.3348 29.6411 39.421 29.5776 39.516C29.552 39.5561 29.5286 39.5974 29.5074 39.6399C29.4893 39.6797 29.4735 39.7217 29.4599 39.7615C29.4589 39.7659 29.4589 39.7704 29.4599 39.7748C29.3683 40.0638 29.3738 40.3739 29.4757 40.6596C29.6477 41.1706 30.1909 41.352 30.6776 41.4693C30.8658 41.5325 31.0652 41.5581 31.2638 41.5445C31.4538 41.5064 31.6302 41.4202 31.7753 41.2945C32.4 40.8078 32.6082 40.3101 32.2846 39.5824Z" fill="#48264C"/>
<path d="M32.2848 39.5824C32.227 39.447 32.1508 39.3198 32.0585 39.2041C31.9786 39.6106 31.7565 39.9773 31.4303 40.2413C31.104 40.5052 30.6939 40.65 30.2704 40.6508C29.9708 40.6514 29.6758 40.5783 29.4126 40.4384C29.4269 40.5134 29.4466 40.5873 29.4714 40.6596C29.6435 41.1706 30.1867 41.352 30.6733 41.4693C30.8616 41.5325 31.0609 41.5581 31.2595 41.5445C31.4495 41.5064 31.6259 41.4202 31.771 41.2945C32.4002 40.8079 32.6085 40.3101 32.2848 39.5824Z" fill="#300D33"/>
<path d="M28.1926 17.1787C28.1224 17.0438 27.9413 16.7496 27.7919 16.7076C27.715 16.6877 27.715 16.5483 27.6403 16.535C27.6177 16.336 27.5249 16.128 27.2872 16.17C27.2329 16.17 27.088 16.3183 27.0315 16.2342C27.0037 16.1845 26.9588 16.1461 26.9047 16.1258C26.7938 16.0838 26.6965 16.1789 26.6331 16.2519C26.5267 16.3736 26.3909 16.1944 26.2528 16.2519C26.1868 16.29 26.1329 16.3454 26.0973 16.4119C26.0617 16.4783 26.0458 16.5531 26.0514 16.6279C26.0514 16.6412 26.0514 16.6501 26.0514 16.6633C25.8806 16.79 25.7283 16.9388 25.5987 17.1057C25.4586 17.29 25.371 17.5072 25.3447 17.7353C25.3185 17.9634 25.3546 18.1942 25.4493 18.4042C25.6485 18.9064 26.2008 19.0679 26.6919 19.1541C26.8773 19.2051 27.0708 19.2216 27.2623 19.2028C27.449 19.1547 27.6198 19.0602 27.758 18.9285C28.3714 18.3954 28.5524 17.8888 28.1926 17.1787Z" fill="#48264C"/>
<path d="M28.1929 17.1785C28.1249 17.0464 28.0405 16.9231 27.9416 16.8113C27.885 17.2231 27.6836 17.6029 27.3718 17.8855C27.06 18.168 26.6573 18.3357 26.2328 18.3597C25.9348 18.3748 25.6376 18.317 25.3682 18.1916C25.3861 18.2669 25.4096 18.3408 25.4383 18.4128C25.6375 18.9149 26.1898 19.0764 26.6809 19.1627C26.8704 19.2121 27.0679 19.2256 27.2626 19.2025C27.4493 19.1544 27.6201 19.0599 27.7583 18.9282C28.3717 18.3951 28.5527 17.8886 28.1929 17.1785Z" fill="#300D33"/>
<path d="M36.9948 18.966C36.9247 18.7956 36.7323 18.4218 36.5603 18.3599C36.4629 18.3267 36.4675 18.1254 36.3679 18.1387C36.2321 18.1519 36.1031 18.1873 35.9967 18.0612C35.963 18.011 35.926 17.9629 35.8858 17.9175C35.8638 17.8916 35.836 17.871 35.8046 17.8572C35.7733 17.8434 35.7391 17.8368 35.7047 17.8378C35.6142 17.8533 35.5531 17.9728 35.4784 17.8666C35.372 17.725 35.1298 17.8312 35.0438 17.9374C35.0172 17.9659 34.9937 17.997 34.9736 18.0303C34.6115 18.0015 34.1339 18.4727 33.9461 18.6939C33.7669 18.9132 33.648 19.1735 33.6004 19.4503C33.5529 19.727 33.5784 20.0111 33.6744 20.2755C33.8691 20.906 34.5096 21.1338 35.08 21.2864C35.2975 21.3625 35.5284 21.3948 35.759 21.3815C35.9847 21.3369 36.1937 21.2329 36.3633 21.0807C37.1238 20.4702 37.3773 19.8663 36.9948 18.966Z" fill="#48264C"/>
<path d="M36.9949 18.966C36.9264 18.8 36.8367 18.6432 36.7278 18.4993C36.6395 18.9883 36.3789 19.4317 35.9911 19.7525C35.6033 20.0733 35.1128 20.2513 34.6047 20.2556C34.2526 20.2533 33.9072 20.1619 33.6021 19.9902C33.6172 20.0838 33.6391 20.1762 33.6677 20.2667C33.8623 20.8971 34.5029 21.125 35.0732 21.2776C35.2907 21.3537 35.5217 21.386 35.7523 21.3727C35.978 21.3281 36.1869 21.2241 36.3566 21.0719C37.1239 20.4702 37.3774 19.8663 36.9949 18.966Z" fill="#300D33"/>
<path d="M36.6621 37.6909C36.5738 37.4941 36.3407 37.0649 36.1347 36.9963C36.017 36.9587 36.017 36.7243 35.9084 36.7375C35.7477 36.7552 35.5938 36.7973 35.4557 36.6535C35.4149 36.5948 35.3695 36.5393 35.3199 36.4876C35.2914 36.4571 35.2562 36.4334 35.2171 36.4181C35.1779 36.4027 35.1357 36.3963 35.0935 36.3991C34.9849 36.4168 34.9125 36.5539 34.8152 36.4345C34.6839 36.2708 34.3964 36.3969 34.2923 36.5185C34.2612 36.553 34.2332 36.59 34.2086 36.6291C33.774 36.5982 33.2059 37.1512 32.9818 37.3989C32.7703 37.65 32.6304 37.9512 32.5763 38.272C32.5223 38.5929 32.556 38.9221 32.674 39.2261C32.9162 39.9517 33.688 40.2061 34.3738 40.3742C34.6414 40.4634 34.9247 40.4988 35.2067 40.4781C35.475 40.4254 35.7242 40.304 35.9287 40.1264C36.825 39.423 37.1193 38.7195 36.6621 37.6909Z" fill="#48264C"/>
<path d="M36.6622 37.6911C36.5784 37.4986 36.4688 37.3179 36.3363 37.1536C36.2226 37.7288 35.9082 38.2477 35.4467 38.6216C34.9852 38.9956 34.4053 39.2015 33.8058 39.2041C33.3837 39.2048 32.9682 39.1021 32.5972 38.9055C32.6152 39.0145 32.6424 39.1217 32.6786 39.2263C32.9208 39.9518 33.6926 40.2062 34.3785 40.3743C34.6461 40.4636 34.9294 40.499 35.2114 40.4783C35.4797 40.4256 35.7288 40.3042 35.9334 40.1266C36.8252 39.4231 37.1194 38.7197 36.6622 37.6911Z" fill="#300D33"/>
<path d="M26.4277 36.0986C26.4277 36.0986 27.032 35.8774 27.3828 36.6583C27.7336 37.4392 27.8604 38.2067 28.2112 38.5717C28.3076 38.6537 28.3836 38.7561 28.4334 38.8711C28.4833 38.9861 28.5056 39.1106 28.4987 39.2353C28.4987 39.2353 27.5096 38.7067 27.2561 38.4257C26.8799 38.0441 26.5579 37.6148 26.2986 37.1494C26.0135 36.5875 25.812 36.061 25.812 36.061L26.4277 36.0986Z" fill="#5F825C"/>
<path d="M26.1896 35.9614C26.1896 35.9614 26.3412 35.3486 25.5106 35.0987C24.6799 34.8487 23.8809 34.8111 23.4735 34.5125C23.3782 34.4274 23.264 34.3651 23.14 34.3301C23.0159 34.2952 22.8853 34.2887 22.7583 34.3112C22.7583 34.3112 23.4079 35.2115 23.7225 35.4172C24.1543 35.7374 24.6277 35.9999 25.1303 36.1981C25.7324 36.4193 26.2914 36.5476 26.2914 36.5476L26.1896 35.9614Z" fill="#5F825C"/>
<path d="M26.0721 36.2602C26.0721 36.2602 27.188 37.0389 27.1563 38.0985C27.1246 39.158 27.1246 39.6867 26.4773 40.2773C25.8299 40.868 24.5987 40.9011 23.9604 41.1799C23.3221 41.4586 22.5593 41.7108 22.376 41.8656C22.1927 42.0204 21.8034 42.1775 21.2307 41.8656C20.6581 41.5537 20.3254 41.5869 20.434 40.7131C20.5964 39.5887 20.874 38.483 21.2624 37.4127C21.5793 36.6031 21.86 35.9793 22.7563 35.7316C23.6155 35.5157 24.5234 35.581 25.3411 35.9174C25.9046 36.1983 26.0721 36.2602 26.0721 36.2602Z" fill="#ED6366"/>
<path d="M20.5673 39.8702C21.0739 40.0562 21.6106 40.1513 22.1517 40.1511C24.3698 40.1511 26.1669 38.627 26.1669 36.7489C26.1675 36.5941 26.1554 36.4395 26.1307 36.2866C26.3707 36.4746 27.1742 37.1714 27.147 38.074C27.1153 39.1313 27.1153 39.6622 26.468 40.2529C25.8206 40.8435 24.5894 40.8767 23.9511 41.1554C23.3128 41.4341 22.5501 41.6863 22.3667 41.8411C22.1834 41.996 21.7941 42.153 21.2215 41.8411C20.6488 41.5292 20.3161 41.5602 20.4247 40.6886C20.4587 40.4586 20.5062 40.1776 20.5673 39.8702Z" fill="#C73A54"/>
<path d="M26.5673 38.5826C26.719 38.6025 26.7552 38.3481 26.7665 38.1623C26.778 38.1158 26.778 38.0672 26.7665 38.0207V38.0052C26.7665 37.9875 26.7416 37.9831 26.7393 38.0052C26.7342 38.0056 26.7293 38.0073 26.7249 38.0099C26.7206 38.0126 26.717 38.0163 26.7144 38.0207C26.6873 38.0804 26.3568 38.556 26.5673 38.5826Z" fill="#E7D8C8"/>
<path d="M26.2505 37.6227C26.2526 37.6254 26.2553 37.6277 26.2584 37.6292C26.2616 37.6307 26.2651 37.6315 26.2686 37.6315C26.2721 37.6315 26.2755 37.6307 26.2787 37.6292C26.2818 37.6277 26.2846 37.6254 26.2867 37.6227C26.3311 37.5873 26.3671 37.5428 26.3921 37.4923C26.4172 37.4419 26.4306 37.3867 26.4315 37.3307C26.4437 37.3003 26.4506 37.2682 26.4519 37.2356C26.4524 37.2309 26.4515 37.2262 26.4495 37.222C26.4475 37.2177 26.4444 37.2141 26.4405 37.2114C26.4366 37.2087 26.4321 37.2071 26.4273 37.2067C26.4225 37.2062 26.4178 37.207 26.4134 37.209C26.4134 37.209 26.3863 37.209 26.3885 37.209C26.3237 37.2548 26.2754 37.3195 26.2506 37.3939C26.2258 37.4682 26.2257 37.5483 26.2505 37.6227Z" fill="#E7D8C8"/>
<path d="M25.5966 37.1203C25.7279 37.222 25.789 36.9897 25.8229 36.8371C25.8423 36.7909 25.856 36.7427 25.8637 36.6933C25.8642 36.6877 25.8629 36.6821 25.86 36.6773C25.857 36.6725 25.8526 36.6687 25.8473 36.6665C25.842 36.6642 25.8362 36.6637 25.8306 36.665C25.825 36.6662 25.8199 36.6692 25.8161 36.6734C25.7528 36.7464 25.4676 37.0273 25.5966 37.1203Z" fill="#E7D8C8"/>
<path d="M25.513 38.107C25.5149 38.1093 25.5173 38.1112 25.52 38.1125C25.5228 38.1137 25.5258 38.1144 25.5288 38.1144C25.5318 38.1144 25.5348 38.1137 25.5376 38.1125C25.5403 38.1112 25.5427 38.1093 25.5447 38.107C25.5879 38.0659 25.6259 38.0199 25.6578 37.9699C25.7366 37.8835 25.7857 37.7752 25.7981 37.6602C25.7981 37.6425 25.78 37.6204 25.7597 37.6292L25.7189 37.6558C25.5741 37.7597 25.4021 37.961 25.513 38.107Z" fill="#E7D8C8"/>
<path d="M25.7388 39.0961C25.8226 39.147 25.8724 39.0297 25.8995 38.9081C25.9366 38.846 25.9583 38.7763 25.9629 38.7045C25.9634 38.6999 25.9625 38.6952 25.9605 38.691C25.9585 38.6867 25.9554 38.6831 25.9515 38.6804C25.9476 38.6777 25.9431 38.6761 25.9383 38.6756C25.9336 38.6752 25.9288 38.676 25.9244 38.678H25.8973C25.8973 38.678 25.8973 38.678 25.8973 38.6935C25.8377 38.7533 25.7908 38.8239 25.7592 38.9014C25.7366 38.9523 25.6777 39.0629 25.7388 39.0961Z" fill="#E7D8C8"/>
<path d="M26.167 39.6443C26.2575 39.7018 26.3525 39.6199 26.3933 39.5403C26.4157 39.486 26.4324 39.4297 26.4431 39.3722C26.4701 39.3277 26.4863 39.2777 26.4906 39.2262C26.496 39.2205 26.499 39.213 26.499 39.2052C26.499 39.1974 26.496 39.1899 26.4906 39.1842V39.1687C26.4906 39.151 26.4612 39.1333 26.4431 39.1488C26.3684 39.2018 26.0289 39.5536 26.167 39.6443Z" fill="#E7D8C8"/>
<path d="M25.2887 39.9493C25.3657 40.0533 25.4404 39.9493 25.4924 39.8475C25.5243 39.8198 25.5498 39.7857 25.5669 39.7476C25.5841 39.7094 25.5927 39.668 25.592 39.6263C25.5919 39.6224 25.5909 39.6186 25.5889 39.6152C25.587 39.6117 25.5843 39.6088 25.5809 39.6066C25.5776 39.6045 25.5738 39.6031 25.5698 39.6027C25.5658 39.6023 25.5618 39.6028 25.5581 39.6042C25.4517 39.644 25.1937 39.821 25.2887 39.9493Z" fill="#E7D8C8"/>
<path d="M24.863 38.6688C24.9287 38.5912 25.0048 38.5228 25.0894 38.4653C25.094 38.4617 25.0996 38.4595 25.1055 38.4591C25.1114 38.4586 25.1173 38.4599 25.1224 38.4628C25.1275 38.4656 25.1316 38.4699 25.1342 38.4751C25.1368 38.4803 25.1378 38.4861 25.1369 38.4919C25.1345 38.5248 25.1261 38.557 25.112 38.587V38.6202C25.1005 38.7126 25.0611 38.7996 24.9988 38.8701C24.9513 38.9232 24.8404 38.9498 24.7951 38.8701C24.7499 38.7905 24.8223 38.7064 24.863 38.6688Z" fill="#E7D8C8"/>
<path d="M24.7364 37.8884C24.7545 37.957 24.845 37.9503 24.8903 37.9149C24.9206 37.8882 24.9452 37.8559 24.9627 37.8198C25.0048 37.7694 25.0301 37.7077 25.0352 37.6429C25.0354 37.6379 25.0344 37.633 25.0323 37.6285C25.0301 37.6241 25.0269 37.6201 25.023 37.6171C25.019 37.6141 25.0143 37.612 25.0093 37.6111C25.0044 37.6102 24.9993 37.6105 24.9944 37.6119C24.93 37.6367 24.8726 37.6761 24.8269 37.7269C24.7862 37.7645 24.7183 37.8265 24.7364 37.8884Z" fill="#E7D8C8"/>
<path d="M25.1257 36.236C25.1333 36.2337 25.1414 36.2343 25.1485 36.2376C25.1556 36.2408 25.1612 36.2466 25.1642 36.2537C25.1813 36.3196 25.1784 36.389 25.1559 36.4534C25.1334 36.5178 25.0922 36.5744 25.0375 36.6164C25.0332 36.6195 25.0283 36.6215 25.0231 36.6224C25.0179 36.6233 25.0125 36.623 25.0075 36.6215C25.0024 36.6199 24.9978 36.6173 24.994 36.6138C24.9901 36.6102 24.9872 36.6058 24.9854 36.601C24.9785 36.5855 24.9739 36.5691 24.9718 36.5523C24.9511 36.4903 24.9556 36.423 24.9842 36.3641C25.0128 36.3053 25.0635 36.2594 25.1257 36.236Z" fill="#E7D8C8"/>
<path d="M24.345 37.4523C24.4129 37.5076 24.4695 37.4523 24.5103 37.3639C24.562 37.3135 24.6 37.2513 24.621 37.1829C24.6419 37.1146 24.6451 37.0422 24.6302 36.9723C24.6271 36.9661 24.6223 36.961 24.6163 36.9574C24.6102 36.9539 24.6033 36.9522 24.5963 36.9524C24.4944 36.9657 24.4084 37.1051 24.3699 37.1736C24.3315 37.2422 24.259 37.386 24.345 37.4523Z" fill="#E7D8C8"/>
<path d="M24.3202 36.1822C24.3334 36.1664 24.3477 36.1516 24.3632 36.1379C24.3683 36.1345 24.3742 36.1323 24.3804 36.1318C24.3866 36.1312 24.3928 36.1321 24.3985 36.1346C24.4042 36.137 24.4091 36.1409 24.4129 36.1457C24.4166 36.1506 24.419 36.1563 24.4198 36.1623C24.4262 36.2134 24.4205 36.2653 24.4033 36.314C24.386 36.3627 24.3576 36.4069 24.3202 36.4432C24.3206 36.4491 24.3206 36.455 24.3202 36.4609C24.3133 36.4745 24.303 36.4861 24.2902 36.4947C24.2774 36.5032 24.2625 36.5084 24.2471 36.5097C24.2316 36.5111 24.2161 36.5085 24.2019 36.5023C24.1878 36.496 24.1755 36.4864 24.1663 36.4742C24.069 36.3769 24.207 36.2353 24.3202 36.1822Z" fill="#E7D8C8"/>
<path d="M23.5504 36.9923C23.5956 36.9006 23.6671 36.8237 23.7563 36.7711C23.7615 36.7674 23.7676 36.7654 23.774 36.7652C23.7804 36.765 23.7867 36.7666 23.792 36.77C23.7974 36.7733 23.8016 36.7782 23.8041 36.7839C23.8067 36.7896 23.8073 36.796 23.8061 36.8021C23.8033 36.8432 23.7934 36.8836 23.7767 36.9215C23.7767 36.9348 23.7767 36.9481 23.7767 36.9591C23.7718 37.0081 23.7612 37.0563 23.745 37.1029C23.7305 37.148 23.6989 37.186 23.6567 37.2091C23.6536 37.2146 23.649 37.2192 23.6434 37.2224C23.6379 37.2257 23.6315 37.2274 23.625 37.2274C23.6186 37.2274 23.6122 37.2257 23.6067 37.2224C23.6011 37.2192 23.5965 37.2146 23.5934 37.2091C23.5051 37.1626 23.5322 37.0476 23.5504 36.9923Z" fill="#E7D8C8"/>
<path d="M23.3896 36.4569C23.3933 36.4593 23.3976 36.4606 23.402 36.4606C23.4064 36.4606 23.4108 36.4593 23.4145 36.4569C23.4447 36.4288 23.4726 36.3984 23.4982 36.3662C23.5553 36.3195 23.6036 36.2634 23.6408 36.2003C23.6563 36.1726 23.6626 36.141 23.6589 36.1096V36.0941C23.6589 36.0787 23.6589 36.0676 23.6363 36.0742C23.6279 36.0642 23.6171 36.0564 23.6048 36.0514C23.5926 36.0464 23.5793 36.0443 23.5661 36.0455C23.4145 36.0477 23.256 36.3485 23.3896 36.4569Z" fill="#E7D8C8"/>
<path d="M22.4752 36.7334C22.5205 36.8175 22.6269 36.7334 22.6653 36.6869C22.727 36.6173 22.7698 36.5336 22.7898 36.4436C22.8056 36.4135 22.8142 36.3802 22.8147 36.3463C22.8154 36.3414 22.815 36.3364 22.8134 36.3317C22.8119 36.327 22.8093 36.3226 22.8058 36.319C22.8023 36.3154 22.7981 36.3126 22.7934 36.3108C22.7886 36.309 22.7836 36.3083 22.7785 36.3087C22.7256 36.316 22.6754 36.336 22.6324 36.3669C22.5894 36.3978 22.5548 36.4386 22.5318 36.4857C22.4933 36.5498 22.4345 36.6582 22.4752 36.7334Z" fill="#E7D8C8"/>
<path d="M22.6997 37.6227C22.7268 37.6913 22.7992 37.6581 22.8264 37.6227C22.8536 37.5873 22.8513 37.5762 22.8626 37.5541C22.9074 37.5062 22.9392 37.4481 22.955 37.3851C22.9708 37.3221 22.9702 37.2562 22.9532 37.1935C22.9516 37.1893 22.949 37.1855 22.9457 37.1824C22.9424 37.1793 22.9383 37.1771 22.9339 37.1758C22.9295 37.1745 22.9249 37.1742 22.9204 37.175C22.9158 37.1758 22.9116 37.1776 22.9079 37.1803C22.8445 37.2365 22.7949 37.3061 22.763 37.3838C22.7359 37.4413 22.668 37.5431 22.6997 37.6227Z" fill="#E7D8C8"/>
<path d="M23.6203 38.0054C23.6445 37.8942 23.7078 37.7948 23.7991 37.7244C23.8031 37.7202 23.8082 37.7172 23.8139 37.7157C23.8195 37.7142 23.8255 37.7142 23.8312 37.7158C23.8368 37.7174 23.8419 37.7205 23.8458 37.7248C23.8497 37.7291 23.8524 37.7343 23.8534 37.7399C23.8572 37.7811 23.8518 37.8226 23.8376 37.8616C23.8319 37.9105 23.8127 37.9569 23.782 37.9959C23.7513 38.0349 23.7102 38.065 23.6633 38.0828H23.6407C23.6352 38.0835 23.6295 38.083 23.6242 38.0813C23.619 38.0795 23.6142 38.0766 23.6102 38.0728C23.6063 38.0689 23.6033 38.0642 23.6015 38.0591C23.5997 38.0539 23.5992 38.0484 23.5999 38.043L23.6203 38.0054Z" fill="#E7D8C8"/>
<path d="M24.2817 38.2664C24.2864 38.2634 24.2918 38.2616 24.2974 38.2611C24.303 38.2606 24.3086 38.2615 24.3138 38.2637C24.319 38.2659 24.3235 38.2693 24.327 38.2737C24.3304 38.278 24.3328 38.2831 24.3337 38.2885C24.3337 38.2885 24.3337 38.2885 24.3337 38.304C24.3337 38.4279 24.2454 38.627 24.1074 38.638C24.1036 38.6387 24.0998 38.6385 24.0961 38.6376C24.0924 38.6367 24.089 38.635 24.086 38.6327C24.083 38.6304 24.0806 38.6276 24.0788 38.6243C24.077 38.621 24.0759 38.6174 24.0757 38.6137C24.0796 38.544 24.1003 38.4763 24.136 38.4159C24.1718 38.3556 24.2217 38.3043 24.2817 38.2664Z" fill="#E7D8C8"/>
<path d="M23.5053 38.6687C23.5336 38.6411 23.5656 38.6173 23.6004 38.5979C23.6185 38.5979 23.6502 38.5979 23.6502 38.6178C23.6456 38.7064 23.6087 38.7904 23.546 38.8545C23.5201 38.8953 23.4823 38.9277 23.4374 38.9474C23.4314 38.9496 23.4247 38.9494 23.4188 38.947C23.4129 38.9445 23.4082 38.9399 23.4057 38.9341C23.4057 38.9341 23.4057 38.9186 23.4057 38.9098C23.4044 38.9039 23.4044 38.8979 23.4057 38.8921C23.3981 38.8494 23.4035 38.8055 23.4212 38.7658C23.4389 38.7261 23.4681 38.6923 23.5053 38.6687Z" fill="#E7D8C8"/>
<path d="M22.9097 38.0475C22.919 38.0468 22.9281 38.0497 22.9353 38.0554C22.9424 38.0612 22.9471 38.0694 22.9482 38.0784C22.9516 38.0974 22.9516 38.1169 22.9482 38.1359C22.9525 38.1682 22.9494 38.201 22.9392 38.2319C22.9291 38.2629 22.912 38.2913 22.8893 38.3151C22.8592 38.369 22.8125 38.4123 22.7558 38.439C22.7422 38.439 22.7264 38.439 22.7196 38.4235C22.6698 38.3085 22.7467 38.0452 22.9097 38.0475Z" fill="#E7D8C8"/>
<path d="M21.8894 37.9082C21.8909 37.9127 21.8934 37.917 21.8966 37.9206C21.8999 37.9242 21.9038 37.9272 21.9083 37.9292C21.9127 37.9313 21.9176 37.9325 21.9225 37.9326C21.9274 37.9328 21.9323 37.932 21.9369 37.9303C22.0071 37.8983 22.0638 37.8436 22.0976 37.7755C22.1314 37.7075 22.1402 37.6301 22.1225 37.5564C22.1204 37.5519 22.1173 37.5478 22.1134 37.5444C22.1096 37.5411 22.105 37.5386 22.1001 37.5372C22.0951 37.5357 22.09 37.5353 22.0849 37.5359C22.0797 37.5366 22.0748 37.5383 22.0705 37.541C22.0193 37.5762 21.9761 37.6213 21.9437 37.6737C21.9166 37.7059 21.8975 37.7439 21.8881 37.7846C21.8787 37.8253 21.8791 37.8676 21.8894 37.9082Z" fill="#E7D8C8"/>
<path d="M21.9888 38.7618C21.9884 38.7163 22.0009 38.6716 22.0249 38.6326C22.0488 38.5936 22.0833 38.5618 22.1246 38.5406C22.1296 38.5385 22.1351 38.5375 22.1406 38.5379C22.1461 38.5383 22.1514 38.54 22.1561 38.5428C22.1607 38.5456 22.1646 38.5495 22.1674 38.5542C22.1702 38.5588 22.1718 38.564 22.1721 38.5694C22.1783 38.6134 22.1737 38.6581 22.1588 38.7C22.1438 38.742 22.1189 38.7798 22.0861 38.8105C22.0763 38.8237 22.064 38.835 22.0499 38.8437C22.0456 38.846 22.0409 38.8474 22.036 38.8478C22.0312 38.8483 22.0263 38.8478 22.0216 38.8463C22.017 38.8449 22.0127 38.8425 22.009 38.8394C22.0053 38.8363 22.0022 38.8325 22.0001 38.8282C21.999 38.8257 21.9985 38.8231 21.9985 38.8205C21.9985 38.8178 21.999 38.8152 22.0001 38.8127C21.994 38.7963 21.9901 38.7792 21.9888 38.7618Z" fill="#E7D8C8"/>
<path d="M24.0621 39.0828C24.0661 39.0825 24.0702 39.0831 24.074 39.0844C24.0778 39.0857 24.0814 39.0877 24.0843 39.0904C24.0873 39.0931 24.0897 39.0964 24.0913 39.1001C24.0929 39.1037 24.0938 39.1076 24.0937 39.1116C24.0935 39.1706 24.0761 39.2283 24.0437 39.278C24.0112 39.3277 23.965 39.3674 23.9104 39.3925C23.903 39.3948 23.8951 39.3948 23.8878 39.3925H23.8561C23.8525 39.3932 23.8487 39.3931 23.8452 39.3921C23.8416 39.3912 23.8383 39.3895 23.8355 39.3872C23.8327 39.3849 23.8304 39.3819 23.8289 39.3787C23.8274 39.3754 23.8266 39.3718 23.8267 39.3682C23.8391 39.3055 23.8671 39.2467 23.9081 39.1969C23.9491 39.1472 24.002 39.108 24.0621 39.0828Z" fill="#E7D8C8"/>
<path d="M24.302 39.6995C24.3013 39.7054 24.3021 39.7114 24.3044 39.7169C24.3067 39.7224 24.3104 39.7273 24.3152 39.7311C24.3199 39.7348 24.3256 39.7373 24.3316 39.7384C24.3376 39.7394 24.3437 39.739 24.3495 39.7371H24.3654C24.3687 39.7393 24.3727 39.7404 24.3767 39.7404C24.3807 39.7404 24.3847 39.7393 24.388 39.7371L24.4039 39.7216C24.4478 39.6916 24.4851 39.6531 24.5135 39.6087C24.5419 39.5642 24.5608 39.5146 24.5691 39.4628C24.5699 39.4577 24.5693 39.4525 24.5674 39.4477C24.5655 39.4429 24.5623 39.4387 24.5581 39.4355C24.5539 39.4323 24.549 39.4303 24.5437 39.4297C24.5385 39.429 24.5332 39.4298 24.5283 39.4318C24.4559 39.4647 24.3958 39.5189 24.3563 39.5867C24.3306 39.6203 24.3121 39.6587 24.302 39.6995Z" fill="#E7D8C8"/>
<path d="M24.1681 40.4787C24.1968 40.4196 24.2385 40.3675 24.2903 40.3261C24.3123 40.3025 24.3366 40.281 24.3627 40.2619C24.3701 40.2596 24.378 40.2596 24.3854 40.2619C24.39 40.2583 24.3956 40.2562 24.4015 40.2557C24.4074 40.2553 24.4133 40.2565 24.4184 40.2594C24.4235 40.2623 24.4276 40.2666 24.4302 40.2718C24.4328 40.2769 24.4338 40.2828 24.4329 40.2885C24.4242 40.3409 24.4001 40.3897 24.3635 40.4289C24.3269 40.4682 24.2795 40.4962 24.2269 40.5097H24.2088C24.2041 40.5128 24.1985 40.5144 24.1927 40.5142C24.187 40.514 24.1815 40.5121 24.177 40.5086C24.1725 40.5052 24.1692 40.5004 24.1676 40.4951C24.166 40.4897 24.1662 40.484 24.1681 40.4787Z" fill="#E7D8C8"/>
<path d="M23.435 40.098C23.4371 40.066 23.4462 40.0347 23.4618 40.0064C23.4775 39.9782 23.4992 39.9536 23.5256 39.9343C23.5606 39.8991 23.6042 39.8732 23.6523 39.8591C23.6727 39.8591 23.6999 39.8591 23.6999 39.8857C23.6963 39.9486 23.6725 40.0087 23.6319 40.0576C23.5912 40.1065 23.5358 40.1415 23.4735 40.1578C23.4688 40.1584 23.4639 40.1581 23.4593 40.1568C23.4546 40.1556 23.4503 40.1535 23.4465 40.1506C23.4427 40.1477 23.4396 40.1441 23.4372 40.1401C23.4348 40.136 23.4333 40.1315 23.4328 40.1268C23.4306 40.125 23.4288 40.1227 23.4277 40.1201C23.4266 40.1175 23.4261 40.1147 23.4263 40.1119C23.4265 40.109 23.4275 40.1063 23.429 40.1039C23.4305 40.1015 23.4326 40.0995 23.435 40.098Z" fill="#E7D8C8"/>
<path d="M22.9122 39.1911H22.9303C22.9376 39.1883 22.9454 39.1872 22.9532 39.188C22.961 39.1887 22.9685 39.1912 22.9751 39.1953C22.9817 39.1994 22.9873 39.205 22.9913 39.2115C22.9953 39.2181 22.9976 39.2255 22.9982 39.2331C22.9846 39.346 22.8873 39.492 22.7718 39.4986C22.7537 39.4986 22.7288 39.4853 22.7311 39.4654C22.7302 39.4073 22.7469 39.3503 22.7791 39.3015C22.8114 39.2527 22.8576 39.2143 22.9122 39.1911Z" fill="#E7D8C8"/>
<path d="M22.5454 40.2173C22.5913 40.1515 22.6569 40.1013 22.7332 40.0735C22.7391 40.0711 22.7456 40.0703 22.7519 40.0711C22.7583 40.0719 22.7643 40.0744 22.7693 40.0782C22.7744 40.082 22.7783 40.0871 22.7807 40.0929C22.7831 40.0986 22.7839 40.1049 22.783 40.1111C22.7411 40.24 22.6505 40.3484 22.5295 40.4142C22.5244 40.4182 22.5183 40.4208 22.5118 40.4217C22.5053 40.4226 22.4987 40.4218 22.4927 40.4193C22.4866 40.4168 22.4814 40.4127 22.4775 40.4075C22.4736 40.4023 22.4713 40.3962 22.4707 40.3898C22.4685 40.3574 22.4741 40.3249 22.487 40.2949C22.5 40.2649 22.52 40.2383 22.5454 40.2173Z" fill="#E7D8C8"/>
<path d="M21.9479 39.5093C21.9495 39.4647 21.9624 39.4213 21.9852 39.3827C22.0081 39.3441 22.0404 39.3116 22.0791 39.2881C22.0972 39.2881 22.1312 39.2881 22.138 39.3036C22.1463 39.3621 22.1373 39.4218 22.112 39.4755C22.0867 39.5292 22.0463 39.5747 21.9954 39.6066C21.9889 39.6117 21.9811 39.6147 21.9729 39.6153C21.9647 39.6158 21.9564 39.614 21.9493 39.6099C21.9422 39.6058 21.9365 39.5997 21.933 39.5924C21.9296 39.5851 21.9284 39.577 21.9297 39.569C21.9345 39.5488 21.9406 39.5288 21.9479 39.5093Z" fill="#E7D8C8"/>
<path d="M21.3778 38.8218C21.3852 38.7955 21.401 38.7722 21.4231 38.7554L21.4367 38.74C21.4525 38.7201 21.4955 38.7267 21.4955 38.7554C21.494 38.8037 21.4783 38.8506 21.4502 38.8904C21.4487 38.9195 21.4408 38.948 21.4272 38.9739C21.4135 38.9998 21.3944 39.0226 21.371 39.0408C21.3667 39.0435 21.3618 39.045 21.3567 39.0453C21.3516 39.0456 21.3465 39.0446 21.342 39.0423C21.3374 39.0401 21.3335 39.0367 21.3307 39.0326C21.3278 39.0284 21.3261 39.0236 21.3258 39.0187C21.3199 38.9492 21.3383 38.8798 21.3778 38.8218Z" fill="#E7D8C8"/>
<path d="M21.9411 36.9105L21.9705 36.8729C21.9863 36.8574 22.0225 36.8729 22.0225 36.8884C22.0268 36.9325 22.0206 36.9769 22.0045 37.0183C21.9885 37.0598 21.9629 37.097 21.9297 37.1273V37.1405C21.9263 37.1438 21.922 37.1461 21.9173 37.1472C21.9126 37.1483 21.9078 37.1481 21.9032 37.1468C21.8986 37.1454 21.8944 37.1429 21.8911 37.1395C21.8878 37.1361 21.8856 37.1318 21.8845 37.1273C21.8822 37.1133 21.8822 37.0991 21.8845 37.0852C21.8753 37.0539 21.8758 37.0206 21.8858 36.9895C21.8959 36.9584 21.9151 36.9309 21.9411 36.9105Z" fill="#E7D8C8"/>
<path d="M21.6694 40.5558C21.6718 40.56 21.6752 40.5634 21.6794 40.5658C21.6836 40.5683 21.6883 40.5695 21.6932 40.5695C21.698 40.5695 21.7028 40.5683 21.707 40.5658C21.7112 40.5634 21.7146 40.56 21.7169 40.5558L21.7351 40.5359C21.7809 40.501 21.8186 40.4568 21.8455 40.4065C21.8724 40.3561 21.888 40.3007 21.8912 40.2439C21.8918 40.2378 21.8906 40.2315 21.8877 40.226C21.8849 40.2205 21.8805 40.2158 21.8751 40.2126C21.8696 40.2094 21.8634 40.2077 21.8571 40.2078C21.8507 40.2078 21.8445 40.2096 21.8392 40.213C21.7418 40.2815 21.6264 40.4386 21.6694 40.5558Z" fill="#E7D8C8"/>
<path d="M21.1288 40.0912C21.1343 40.0622 21.1494 40.0358 21.1718 40.016C21.1805 40.0014 21.1912 39.988 21.2035 39.9762C21.2068 39.9716 21.2113 39.9679 21.2164 39.9653C21.2215 39.9628 21.2272 39.9614 21.2329 39.9614C21.2387 39.9614 21.2443 39.9628 21.2494 39.9653C21.2546 39.9679 21.259 39.9716 21.2623 39.9762C21.2803 40.0248 21.2803 40.078 21.2623 40.1266C21.2504 40.1766 21.2236 40.2219 21.1854 40.2571C21.1817 40.2598 21.1774 40.2616 21.1729 40.2624C21.1684 40.2632 21.1637 40.2629 21.1593 40.2616C21.1549 40.2603 21.1509 40.258 21.1476 40.255C21.1442 40.2519 21.1417 40.2481 21.1401 40.2438C21.127 40.2207 21.1191 40.1951 21.1172 40.1688C21.1152 40.1424 21.1192 40.1159 21.1288 40.0912Z" fill="#E7D8C8"/>
<path d="M21.2215 40.8456C21.2264 40.842 21.2322 40.8397 21.2383 40.8391C21.2444 40.8384 21.2505 40.8394 21.2561 40.8419C21.2617 40.8444 21.2665 40.8483 21.2699 40.8532C21.2734 40.8582 21.2754 40.8639 21.2758 40.8699C21.2816 40.9232 21.2755 40.9771 21.2579 41.0279C21.2403 41.0787 21.2117 41.1251 21.174 41.1641C21.174 41.1641 21.174 41.1774 21.174 41.1818C21.1718 41.187 21.168 41.1915 21.1632 41.1947C21.1583 41.1978 21.1526 41.1995 21.1468 41.1995C21.141 41.1995 21.1353 41.1978 21.1305 41.1947C21.1257 41.1915 21.1219 41.187 21.1197 41.1818C21.1046 41.122 21.1061 41.0593 21.124 41.0002C21.1419 40.9411 21.1756 40.8877 21.2215 40.8456Z" fill="#E7D8C8"/>
<path d="M22.0565 41.1708C22.0641 41.1687 22.0722 41.169 22.0795 41.1718C22.0869 41.1746 22.0931 41.1797 22.0972 41.1863C22.0997 41.1899 22.101 41.1941 22.101 41.1984C22.101 41.2028 22.0997 41.207 22.0972 41.2106C22.098 41.2157 22.098 41.2209 22.0972 41.2261C22.097 41.2692 22.0864 41.3117 22.0663 41.3501C22.0463 41.3885 22.0173 41.4218 21.9818 41.4473C21.9777 41.4504 21.9729 41.4525 21.9678 41.4536C21.9627 41.4546 21.9574 41.4545 21.9524 41.4532C21.9474 41.4519 21.9427 41.4495 21.9388 41.4462C21.9349 41.4429 21.9318 41.4387 21.9297 41.434C21.9287 41.4297 21.9287 41.4251 21.9297 41.4207C21.9256 41.4211 21.9214 41.4206 21.9174 41.4192C21.9135 41.4177 21.91 41.4154 21.9072 41.4124C21.9043 41.4094 21.9022 41.4058 21.901 41.4019C21.8998 41.3979 21.8996 41.3938 21.9003 41.3898C21.9061 41.3436 21.9234 41.2995 21.9506 41.2613C21.9778 41.2232 22.0142 41.1921 22.0565 41.1708Z" fill="#E7D8C8"/>
<path d="M23.1339 40.6375C23.1386 40.6345 23.144 40.6327 23.1496 40.6322C23.1553 40.6317 23.1609 40.6326 23.1661 40.6348C23.1712 40.637 23.1757 40.6404 23.1792 40.6448C23.1827 40.6491 23.185 40.6542 23.186 40.6596C23.1882 40.7268 23.1704 40.7931 23.1346 40.8505C23.0988 40.9079 23.0466 40.9538 22.9845 40.9826C22.9736 40.9867 22.9615 40.9867 22.9506 40.9826L22.9234 41.0003C22.9194 41.0017 22.9151 41.0021 22.9108 41.0016C22.9066 41.001 22.9025 40.9995 22.899 40.9971C22.8954 40.9948 22.8925 40.9916 22.8905 40.9879C22.8884 40.9843 22.8873 40.9802 22.8872 40.976C22.8968 40.9041 22.9244 40.8357 22.9674 40.7767C23.0104 40.7176 23.0676 40.6699 23.1339 40.6375Z" fill="#E7D8C8"/>
<path d="M24.9719 40.4846C24.9765 40.4743 24.9826 40.4646 24.99 40.4559C24.9863 40.4399 24.9863 40.4232 24.99 40.4072C25.0155 40.3591 25.057 40.3209 25.1077 40.2988C25.1258 40.2988 25.1507 40.2988 25.1575 40.3121C25.1665 40.3432 25.1665 40.3761 25.1575 40.4072C25.1503 40.4432 25.1296 40.4752 25.0994 40.4969C25.0692 40.5186 25.0318 40.5285 24.9945 40.5245C24.9865 40.5215 24.9799 40.5159 24.9757 40.5086C24.9716 40.5013 24.9702 40.4928 24.9719 40.4846Z" fill="#E7D8C8"/>
</g>
<defs>
<linearGradient id="paint0_linear_4_11568" x1="60" y1="60" x2="-19.9676" y2="53.812" gradientUnits="userSpaceOnUse">
<stop stop-color="#92A3FD"/>
<stop offset="1" stop-color="#9DCEFF"/>
</linearGradient>
<clipPath id="clip0_4_11568">
<rect width="43.5" height="30" fill="white" transform="translate(8.25 15)"/>
</clipPath>
</defs>
</svg>
