<svg width="60" height="60" viewBox="0 0 60 60" fill="none" xmlns="http://www.w3.org/2000/svg">
<rect opacity="0.2" width="60" height="60" rx="12" fill="url(#paint0_linear_4_11940)"/>
<g clip-path="url(#clip0_4_11940)">
<path d="M10.0186 24.0764C10.1941 26.9602 17.3931 29.4966 29.5788 29.4966C42.1858 29.4966 49.0336 27.5856 49.139 24.0764C49.2443 20.5672 42.4316 18.0308 29.8597 18.0655C19.3246 18.1003 10.4751 18.8299 10.0186 24.0764Z" fill="#F7D3B0"/>
<path d="M10.8613 24.0417C11.0369 26.6128 17.9199 28.8712 29.5787 28.8712C41.6239 28.8712 48.1908 27.1687 48.2961 24.0417C48.4015 20.9147 41.8697 18.6215 29.8597 18.691C19.7459 18.7257 11.2827 19.3859 10.8613 24.0417Z" fill="#E2BFA3"/>
<path d="M10.8613 24.0417C11.0018 26.0916 15.4265 27.9679 23.2225 28.628C22.8011 28.35 22.4148 28.0373 21.9934 27.7246C19.6055 25.8137 17.674 23.312 16.4449 20.4977C16.3396 20.2545 16.2342 20.0113 16.1289 19.7681C13.0386 20.5325 11.072 21.8528 10.8613 24.0417Z" fill="#CEAD97"/>
<path d="M19.6053 27.0296C19.4648 26.8906 19.2892 26.7516 19.1839 26.5432C19.0785 26.3347 19.0434 26.1262 19.0083 25.9178C18.8678 25.3271 18.4113 24.8407 17.8143 24.6322C17.6739 24.5627 17.4983 24.528 17.3929 24.4237C17.2876 24.2847 17.2876 24.1458 17.2876 23.972C17.2173 23.3466 16.7608 22.8255 16.1638 22.617C15.9882 22.5475 15.7775 22.5128 15.6371 22.4085C15.2859 22.1653 15.3561 21.6441 15.1454 21.2619C15.0401 21.0535 14.8294 20.9145 14.6538 20.7408C14.3377 20.4976 14.0217 20.2196 13.7056 19.9764C13.3896 19.6984 13.0384 19.4552 12.617 19.3857C12.4063 19.351 12.1605 19.3857 11.9849 19.2467C11.8093 19.1425 11.7742 18.934 11.6688 18.7603C11.2826 17.9959 10.1237 17.7875 9.45647 18.3434C8.78925 18.8993 8.78925 20.0459 9.45647 20.6018C8.99995 20.984 8.96483 21.7136 9.21065 22.2348C9.45647 22.756 9.94811 23.1729 10.4398 23.5204C10.5451 23.6246 10.6856 23.6941 10.7558 23.8331C10.8612 24.0415 10.826 24.25 10.826 24.4585C10.826 25.4313 11.5635 26.3694 12.5468 26.5779L20.0618 29.4617C20.413 28.6626 20.2023 27.655 19.6053 27.0296Z" fill="#6FB56B"/>
<path d="M17.8495 21.5747C17.4281 21.0535 17.0418 20.5324 16.7959 19.9417C16.5501 19.3511 16.4799 18.6214 16.7257 18.0307C16.7959 17.8918 16.9013 17.718 16.9013 17.5791C16.9364 17.3706 16.8662 17.1969 16.8311 16.9884C16.6906 16.2935 16.9715 15.5639 17.4983 15.1122C18.025 14.6605 18.7976 14.5215 19.4648 14.7647C19.8862 14.4173 20.5184 14.3478 21.01 14.591C21.5016 14.8342 21.8177 15.3901 21.7826 15.9113C22.3093 15.7723 22.8361 16.1198 23.117 16.5715C23.398 17.0231 23.4331 17.5791 23.4682 18.1002C24.2408 18.0655 25.0133 18.4129 25.505 19.0036C25.9615 19.5943 26.1371 20.4629 25.8913 21.1925C26.6287 21.7832 27.3311 22.4781 27.5067 23.4162C27.6822 24.3196 27.0852 25.4314 26.1371 25.4661C26.6638 25.5009 26.9097 26.1958 26.6638 26.6822C26.4531 27.1339 25.9264 27.4119 25.4699 27.6203C24.4866 28.0373 23.4682 28.3152 22.4147 28.4542C21.7826 28.5237 21.1505 28.5584 20.5535 28.35C19.2541 27.8635 18.6572 26.4737 18.2006 25.2924C17.7441 24.2501 16.4448 22.4433 17.8495 21.5747Z" fill="#81CC7A"/>
<path d="M36.1807 18.7603C36.5318 18.2392 37.2342 17.996 37.8312 18.1697C37.9014 17.4053 38.5335 16.7451 39.271 16.6409C40.0084 16.5367 40.8161 16.9884 41.1322 17.6832C41.6238 17.3011 42.3964 17.7527 42.5369 18.3434C42.6773 18.9341 42.3613 19.5595 41.975 20.0459C42.4666 20.1849 42.7124 20.8103 42.6422 21.2967C42.572 21.7831 42.2559 22.2348 41.9399 22.6865C42.6071 23.1729 42.7124 24.1805 42.3261 24.8754C41.9399 25.5703 41.0971 25.9873 40.2894 26.022C39.4465 26.0568 38.7442 25.7093 37.9716 25.3619C35.3379 28.5584 31.8613 21.0882 36.2158 20.5323C35.8997 19.9764 35.8295 19.2815 36.1807 18.7603Z" fill="#6FB56B"/>
<path d="M39.8329 21.8524C40.1841 21.2618 40.6055 20.7406 41.1322 20.3237C41.5185 20.011 41.975 19.8025 42.4316 19.594C43.6607 19.0034 45.1707 18.378 46.3296 19.0729C46.5403 19.2118 46.751 19.3508 46.9617 19.4898C47.4533 19.733 48.0503 19.6635 48.6122 19.6635C49.174 19.6635 49.771 19.733 50.2275 20.0457C50.7192 20.3584 51.0352 20.8796 51.0001 21.4355C50.965 21.7135 50.8245 21.9914 50.8245 22.3041C50.8245 22.5473 50.9299 22.7906 50.965 23.0685C51.0704 23.6939 50.6489 24.4236 49.9817 24.5278C49.771 24.5625 49.5252 24.5278 49.2794 24.5625C48.261 24.7015 47.8396 25.9871 46.9265 26.3693C46.6456 26.4735 46.3647 26.5083 46.0837 26.5777C45.8028 26.682 45.5219 26.821 45.2409 26.9599C43.4851 27.7591 41.2025 27.3421 39.868 25.9523C38.674 24.6668 39.0252 23.1728 39.8329 21.8524Z" fill="#81CC7A"/>
<path d="M36.4964 26.5433C36.6017 26.578 36.672 26.6128 36.7773 26.578C36.8827 26.5433 36.9178 26.4043 36.9529 26.3001C37.1636 25.6747 37.9362 25.2925 38.6034 25.5009C38.7439 25.5357 38.8844 25.6052 39.0248 25.6052C39.2355 25.5704 39.376 25.3967 39.5516 25.2925C39.973 24.9798 40.6051 25.0145 40.9914 25.362C41.0967 25.4662 41.2021 25.5704 41.3074 25.6399C41.4479 25.7094 41.6235 25.6747 41.7639 25.7442C42.2907 25.8831 42.3961 26.6475 42.9228 26.7865C43.274 26.2306 44.1168 26.1264 44.6787 26.5085C45.2405 26.8907 45.4512 27.5856 45.4161 28.2458C45.3108 29.7051 43.871 30.9211 42.4312 30.8169C41.7639 30.7822 41.1318 30.4695 40.4646 30.4695C39.8325 30.4695 39.2355 30.7474 38.6385 30.9559C37.1987 31.5118 35.7589 31.3381 35.3375 29.7051C35.0566 28.767 34.6703 26.1264 36.4964 26.5433Z" fill="#6FB56B"/>
<path d="M37.7255 18.7603C37.7255 18.7603 36.1452 21.7831 40.2539 23.555C44.3626 25.327 45.5215 21.8873 45.5215 21.8873L37.7255 18.7603Z" fill="#E24C24"/>
<path d="M45.4503 21.9556C45.8019 21.1236 44.3609 19.7349 42.2315 18.8539C40.1022 17.9729 38.091 17.9333 37.7393 18.7654C37.3876 19.5974 38.8287 20.9861 40.958 21.8671C43.0873 22.7481 45.0986 22.7877 45.4503 21.9556Z" fill="#FF5A27"/>
<path d="M45.1263 21.8215C45.4331 21.0957 44.1006 19.8531 42.1503 19.0462C40.1999 18.2392 38.3701 18.1735 38.0633 18.8993C37.7565 19.6252 39.0889 20.8678 41.0393 21.6747C42.9897 22.4817 44.8195 22.5474 45.1263 21.8215Z" fill="#FF8B78"/>
<path d="M40.4295 19.2815C40.2539 19.2815 40.0432 19.3162 40.008 19.49C39.9729 19.5595 39.9729 19.6289 39.9378 19.6984C39.9027 19.7679 39.8325 19.7679 39.7973 19.8374C39.7622 19.8722 39.7973 19.9416 39.7973 19.9764C39.8676 20.2891 40.2188 20.4281 40.5348 20.4976C41.3074 20.7408 42.0799 21.0187 42.8525 21.262C43.0632 21.3314 43.309 21.4009 43.4495 21.262C43.59 21.1577 43.59 20.9492 43.5197 20.7755C43.4495 20.6018 43.309 20.4976 43.1686 20.3933C42.7472 20.0806 42.2907 19.7679 41.799 19.5942C41.3776 19.4552 40.9562 19.2815 40.4295 19.2815Z" fill="#FF5A27"/>
<path d="M38.744 19.2116C38.8845 19.2463 39.025 19.3158 39.1654 19.3506C39.2005 19.3506 39.2357 19.3506 39.2357 19.3158C39.2708 19.3158 39.2708 19.2811 39.2708 19.2463C39.2708 19.1769 39.2357 19.1421 39.1654 19.1074C39.1303 19.1074 39.0601 19.0726 39.025 19.0726H39.0601C38.9547 19.0379 38.8845 19.0379 38.7791 19.0031C38.7089 18.9684 38.6387 19.0031 38.6387 19.0726C38.6738 19.1074 38.6738 19.2116 38.744 19.2116Z" fill="#FFB164"/>
<path d="M39.2358 18.9339C39.3762 19.0034 39.4816 18.7949 39.3411 18.7254C39.2006 18.6559 39.0953 18.8644 39.2358 18.9339Z" fill="#FFB164"/>
<path d="M39.2358 18.9336C39.306 18.9684 39.3762 19.0031 39.4816 19.0379C39.5167 19.0379 39.5518 19.0379 39.5869 19.0379C39.622 19.0379 39.6572 19.0031 39.6572 18.9684C39.6572 18.9336 39.6572 18.8989 39.6572 18.8642C39.6572 18.8294 39.622 18.8294 39.5869 18.7947C39.5167 18.7599 39.4465 18.7252 39.3411 18.6904C39.306 18.6904 39.2709 18.6904 39.2358 18.6904C39.2006 18.6904 39.1655 18.7252 39.1655 18.7599C39.1655 18.7947 39.1655 18.8294 39.1655 18.8642C39.2006 18.8989 39.2006 18.8989 39.2358 18.9336Z" fill="#FFB164"/>
<path d="M40.1489 18.6906C40.1489 18.7253 40.1489 18.7253 40.1489 18.7601C40.1489 18.7948 40.1489 18.7948 40.184 18.8296C40.2192 18.8643 40.2192 18.899 40.2894 18.9338C40.2894 18.9338 40.3245 18.9338 40.3245 18.9685H40.3596H40.3947C40.3947 18.9685 40.4299 18.9685 40.4299 18.9338V18.899C40.4299 18.8643 40.4299 18.8643 40.4299 18.8296C40.4299 18.7948 40.3947 18.7601 40.3947 18.7601C40.3947 18.7601 40.3947 18.7601 40.4299 18.7948L40.3947 18.7601C40.3947 18.7601 40.3947 18.7601 40.3947 18.7948C40.3947 18.7948 40.3947 18.7601 40.3596 18.7601V18.7948V18.7601V18.7948V18.7601C40.3596 18.7601 40.3596 18.7253 40.3245 18.7253L40.2894 18.6906H40.2543C40.2192 18.6906 40.184 18.6906 40.184 18.7253C40.184 18.6558 40.1489 18.6906 40.1489 18.6906Z" fill="#FFB164"/>
<path d="M40.9565 18.8992C40.9565 18.934 40.9214 18.9687 40.9214 19.0382V19.073C40.9214 19.073 40.9214 19.1077 40.9565 19.1077L40.9916 19.1424H41.0267C41.0619 19.1424 41.097 19.1424 41.097 19.1077C41.097 19.1077 41.097 19.1077 41.1321 19.073C41.1321 19.073 41.1672 19.0382 41.1672 19.0035C41.1672 18.9687 41.2023 18.934 41.2023 18.8645V18.8297C41.2023 18.8297 41.2023 18.795 41.1672 18.795L41.1321 18.7603H41.097C41.0619 18.7603 41.0267 18.7603 41.0267 18.795C41.0267 18.795 41.0267 18.795 40.9916 18.8297C40.9565 18.8645 40.9565 18.8645 40.9565 18.8992Z" fill="#FFB164"/>
<path d="M42.326 19.6288C42.3611 19.594 42.4314 19.594 42.4665 19.5593C42.4665 19.5593 42.5016 19.5593 42.5016 19.5246L42.5367 19.4898V19.4551V19.4203C42.5367 19.4203 42.5367 19.4203 42.5367 19.3856L42.5016 19.3508H42.4665C42.4314 19.3508 42.4314 19.3508 42.3963 19.3508C42.3611 19.3856 42.2909 19.3856 42.2558 19.4203C42.2558 19.4203 42.2207 19.4203 42.2207 19.4551L42.1855 19.4898V19.5246V19.5593C42.1855 19.5593 42.1855 19.5593 42.1855 19.594L42.2207 19.6288H42.2558C42.2909 19.6288 42.326 19.6288 42.326 19.6288Z" fill="#FFB164"/>
<path d="M43.2391 20.1848C43.3094 20.1848 43.3796 20.2195 43.485 20.2195C43.5201 20.2195 43.5552 20.2195 43.5552 20.1848C43.5903 20.1848 43.5903 20.15 43.5903 20.1153C43.5903 20.0806 43.5903 20.0458 43.5552 20.0458C43.5201 20.0111 43.5201 20.0111 43.485 20.0111C43.4147 20.0111 43.3445 19.9763 43.2391 19.9763C43.204 19.9763 43.1689 19.9763 43.1689 20.0111C43.1338 20.0111 43.1338 20.0458 43.1338 20.0806C43.1338 20.1153 43.1338 20.15 43.1689 20.15C43.204 20.15 43.204 20.1848 43.2391 20.1848Z" fill="#FFB164"/>
<path d="M43.8711 20.7751C43.9765 20.8446 44.1169 20.8793 44.2223 20.8793C44.2574 20.8793 44.2925 20.8793 44.2925 20.8446C44.3276 20.8446 44.3276 20.8098 44.3276 20.7751C44.3276 20.7403 44.3276 20.7056 44.2925 20.7056C44.2574 20.6708 44.2574 20.6708 44.2223 20.6708C44.1872 20.6708 44.1872 20.6708 44.1521 20.6708H44.1872C44.1169 20.6361 44.0116 20.6014 43.9414 20.5666C43.8711 20.5319 43.8009 20.5666 43.8009 20.6361C43.7658 20.6708 43.8009 20.7403 43.8711 20.7751Z" fill="#FFB164"/>
<path d="M44.0821 21.4355C44.1875 21.505 44.2577 21.5745 44.363 21.644C44.3982 21.6787 44.4333 21.6787 44.4333 21.6787C44.4684 21.6787 44.5035 21.644 44.5035 21.644C44.5386 21.6092 44.5386 21.505 44.4684 21.4703C44.363 21.4008 44.2928 21.3313 44.1875 21.2618C44.1523 21.2271 44.1172 21.2271 44.1172 21.2271C44.0821 21.2271 44.047 21.2618 44.047 21.2618C44.0119 21.3313 44.0119 21.4008 44.0821 21.4355Z" fill="#FFB164"/>
<path d="M43.4497 21.6093C43.4848 21.6788 43.5199 21.7483 43.555 21.8177C43.555 21.8177 43.555 21.8525 43.5902 21.8525L43.6253 21.8872C43.6604 21.8872 43.6955 21.8872 43.7306 21.8872C43.7657 21.8872 43.7657 21.8525 43.8009 21.8177C43.8009 21.783 43.8009 21.7483 43.8009 21.7135C43.7657 21.644 43.7306 21.5745 43.6955 21.505C43.6955 21.505 43.6955 21.4703 43.6604 21.4703L43.6253 21.4355C43.5902 21.4355 43.555 21.4355 43.5199 21.4355C43.4848 21.4355 43.4848 21.4703 43.4497 21.505C43.4497 21.5398 43.4146 21.5745 43.4497 21.6093Z" fill="#FFB164"/>
<path d="M42.5366 21.6093V21.644C42.5366 21.644 42.5366 21.644 42.5366 21.6093C42.5366 21.644 42.5366 21.6788 42.5366 21.6788V21.644C42.5366 21.644 42.5366 21.644 42.5366 21.6788V21.7135V21.7483C42.5366 21.7483 42.5366 21.783 42.5717 21.783L42.6068 21.8177C42.642 21.8177 42.6771 21.8177 42.7122 21.8177C42.7473 21.8177 42.7824 21.783 42.7824 21.7483C42.7824 21.7135 42.8175 21.6788 42.8175 21.644C42.8175 21.6093 42.8175 21.5745 42.8175 21.5398C42.8175 21.505 42.7824 21.4703 42.7824 21.4703C42.7824 21.4703 42.7473 21.4703 42.7473 21.4355H42.7122C42.6771 21.4355 42.642 21.4703 42.642 21.4703V21.505C42.5366 21.5745 42.5015 21.6093 42.5366 21.6093Z" fill="#FFB164"/>
<path d="M41.3076 21.2965C41.3076 21.3313 41.3076 21.3313 41.3076 21.366V21.3313C41.3076 21.366 41.2725 21.4008 41.2725 21.4008V21.4355V21.4703C41.2725 21.505 41.3076 21.5398 41.3427 21.5398C41.3778 21.5398 41.4129 21.5398 41.448 21.5398C41.448 21.5398 41.448 21.5398 41.4832 21.5398L41.5183 21.505C41.5183 21.4703 41.5534 21.4355 41.5534 21.4355C41.5534 21.4008 41.5885 21.366 41.5885 21.3313C41.5885 21.2965 41.5885 21.2618 41.5534 21.2618L41.5183 21.2271H41.4832C41.448 21.2271 41.4129 21.2271 41.4129 21.2618C41.3076 21.2271 41.3076 21.2618 41.3076 21.2965Z" fill="#FFB164"/>
<path d="M40.4647 20.9144V20.9491V20.9144C40.4647 20.9491 40.4296 20.9491 40.4296 20.9491C40.4296 20.9491 40.4647 20.9491 40.4647 20.9144C40.4296 20.9491 40.4296 20.9839 40.3945 20.9839C40.3945 20.9839 40.3945 20.9839 40.4296 20.9839C40.4296 20.9839 40.3945 20.9839 40.3945 21.0186C40.3945 21.0186 40.3593 21.0186 40.3593 21.0534L40.3242 21.0881C40.3242 21.1228 40.3242 21.1576 40.3242 21.1923C40.3242 21.2271 40.3593 21.2271 40.3945 21.2618H40.4296C40.4647 21.2618 40.4647 21.2618 40.4998 21.2618C40.5349 21.2618 40.5349 21.2271 40.57 21.2271L40.6052 21.1923C40.6403 21.1576 40.6403 21.1576 40.6403 21.1228C40.6403 21.0881 40.6754 21.0881 40.6754 21.0534C40.6754 21.0186 40.6754 20.9839 40.6754 20.9491C40.6754 20.9144 40.6403 20.8796 40.6052 20.8796C40.57 20.8796 40.5349 20.8796 40.4998 20.8796C40.4998 20.8449 40.4647 20.8796 40.4647 20.9144Z" fill="#FFB164"/>
<path d="M39.7276 20.1845C39.6925 20.1845 39.6574 20.2192 39.6223 20.2192H39.6574C39.5872 20.2192 39.5521 20.254 39.4818 20.254C39.4467 20.254 39.4116 20.2887 39.4116 20.2887C39.3765 20.3235 39.3765 20.3582 39.3765 20.3582C39.3765 20.3929 39.4116 20.4277 39.4116 20.4277H39.4467C39.4818 20.4277 39.4818 20.4277 39.5169 20.4277C39.6223 20.4277 39.7276 20.3929 39.833 20.3582C39.8681 20.3582 39.8681 20.3235 39.9032 20.2887C39.9032 20.254 39.9032 20.2192 39.9032 20.1845C39.9032 20.1497 39.8681 20.1497 39.833 20.115C39.7979 20.1845 39.7628 20.1845 39.7276 20.1845Z" fill="#FFB164"/>
<path d="M38.7791 19.837C38.8143 19.837 38.8494 19.8022 38.8845 19.8022C38.8845 19.8022 38.9196 19.8022 38.9196 19.7675L38.9547 19.7327V19.698V19.6632C38.9547 19.6632 38.9547 19.6632 38.9547 19.6285L38.9196 19.5938H38.8845C38.8494 19.5938 38.8494 19.5938 38.8143 19.5938C38.7791 19.5938 38.744 19.6285 38.7089 19.6285C38.7089 19.6285 38.6738 19.6285 38.6738 19.6632L38.6387 19.698V19.7327V19.7675C38.6387 19.7675 38.6387 19.7675 38.6387 19.8022L38.6738 19.837H38.7089C38.744 19.837 38.744 19.837 38.7791 19.837Z" fill="#FFB164"/>
<path opacity="0.24" d="M38.1472 21.5743C38.3228 21.8175 38.4633 22.0607 38.7442 22.165C38.8496 22.1997 38.9549 22.2345 39.0252 22.1302C39.0603 22.0607 39.0252 21.9565 38.99 21.887C38.8847 21.748 38.7793 21.5743 38.7442 21.4006C38.674 21.0879 38.6037 20.4277 38.1121 20.4277C37.5853 20.4625 38.0068 21.4006 38.1472 21.5743Z" fill="white"/>
<path d="M25.3997 24.0068C25.0485 23.2771 25.0134 22.3738 25.505 21.7136C25.9264 21.1577 26.6288 20.845 27.296 20.567C26.4181 19.7679 26.2074 18.4128 26.8044 17.4052C27.4013 16.3976 28.7358 15.8417 29.9298 16.0849C29.6488 15.2163 30.3863 14.2435 31.3696 14.035C32.3177 13.8265 33.3712 14.3129 33.898 15.0773C34.5652 14.6951 35.5485 14.8341 36.0401 15.39C36.5318 15.9807 36.4967 16.8841 35.9348 17.4052C36.8829 18.2044 36.9883 19.6984 36.1455 20.6018C36.6722 21.0187 36.9532 21.6441 36.8478 22.2695C36.7776 22.8949 36.3562 23.4508 35.7592 23.7635C35.8997 24.1805 36.005 24.6322 35.7943 25.0144C35.5485 25.466 34.9515 25.6398 34.4248 25.6398C33.898 25.6398 33.3361 25.5355 32.8094 25.6398C33.0201 26.1262 32.5987 26.6821 32.0719 26.8906C31.5452 27.0991 30.9482 27.0296 30.3863 26.9948C29.7542 26.9253 29.1221 26.8558 28.4549 26.8211C28.1037 26.7863 27.7174 26.7516 27.4365 26.5431C27.0853 26.2999 26.9799 25.744 26.6639 25.4313C26.2074 24.9796 25.7157 24.6322 25.3997 24.0068Z" fill="#89E269"/>
<path d="M37.3041 24.0066L37.2339 25.2574C37.2339 25.2574 37.866 27.0294 40.6051 27.3768C43.6603 27.759 45.9078 26.7862 45.9429 24.9794C45.9429 24.6667 45.5566 23.9023 45.5566 23.9023L37.269 23.9718L37.3041 24.0066Z" fill="#59B24F"/>
<path d="M45.6002 24.3523C45.6614 23.1833 43.8582 22.1406 41.5726 22.0233C39.2871 21.9061 37.3846 22.7587 37.3233 23.9278C37.2621 25.0968 39.0652 26.1395 41.3508 26.2567C43.6364 26.3739 45.5389 25.5213 45.6002 24.3523Z" fill="#84D17D"/>
<path d="M45.3463 24.2847C45.3814 25.188 43.6958 25.9872 41.5536 25.9177C39.4466 25.8482 37.5854 24.8753 37.5503 23.972C37.5152 23.0686 39.3764 22.1652 41.4834 22.2347C43.6255 22.339 45.3112 23.3813 45.3463 24.2847Z" fill="#B0EDA9"/>
<path d="M39.095 23.798C39.0248 23.7285 38.9546 23.659 38.9194 23.5895C38.9194 23.4505 39.095 23.3811 39.2355 23.3811C39.5515 23.3463 39.8325 23.4158 40.1134 23.52C40.0081 23.4158 39.9378 23.2768 39.9027 23.1726C39.9027 23.1378 39.8676 23.1031 39.9027 23.1031C39.9378 23.0336 40.0081 23.0336 40.0783 23.0684C40.3944 23.2073 40.7104 23.3811 41.0265 23.5895C40.9562 23.4505 40.886 23.3116 40.8509 23.1726C40.8509 23.0336 40.886 22.8599 41.0265 22.7904C41.202 22.6862 41.4127 22.7904 41.5532 22.9294C41.6937 23.0684 41.7639 23.2768 41.799 23.4505C42.0449 23.2421 42.396 23.1378 42.7472 23.1726C42.8174 23.1726 42.9228 23.2073 42.9579 23.2768C43.0281 23.3811 42.9228 23.4853 42.8174 23.5548C43.2037 23.4505 43.6602 23.5548 43.9763 23.8327C44.0114 23.8675 44.0465 23.9022 44.0465 23.9717C44.0465 24.0065 44.0114 24.0412 44.0114 24.0412C43.8709 24.2149 43.6602 24.3192 43.4495 24.3539C43.2388 24.3887 42.993 24.3887 42.7823 24.3887C42.993 24.4581 43.2037 24.5624 43.4144 24.7014C43.4495 24.7014 43.4495 24.7361 43.4847 24.7708C43.4847 24.8056 43.4847 24.8056 43.4495 24.8403C43.3091 25.0836 42.993 25.153 42.7121 25.0488C42.4311 24.9793 42.2204 24.8056 41.9746 24.6319C42.08 24.7708 42.1853 24.9446 42.1502 25.1183C42.1151 25.292 41.9746 25.431 41.799 25.3963C41.7288 25.3615 41.6586 25.3268 41.6234 25.2573C41.4479 25.0836 41.3074 24.8751 41.2372 24.6666C41.2372 24.9446 40.9913 25.1878 40.6753 25.2225C40.6051 25.2225 40.5348 25.2225 40.4646 25.153C40.3944 25.0836 40.3944 24.9793 40.4295 24.9098C40.4646 24.8403 40.5348 24.7708 40.6051 24.7014C40.3944 24.8403 40.1485 24.9446 39.9378 24.8056C39.8676 24.7708 39.8325 24.7014 39.8325 24.6319C39.8325 24.5971 39.9027 24.5624 39.9378 24.5276C40.0432 24.4581 40.289 24.3887 40.3241 24.2844C39.8325 24.1454 39.4462 24.076 39.095 23.798Z" fill="#C1FFB8"/>
<path d="M23.679 30.5389L25.0486 31.5812C25.0486 31.5812 27.8229 32.4499 31.0887 30.4347C34.776 28.1762 36.0754 25.5356 34.0035 24.0763C33.6523 23.8331 32.3178 23.5552 32.3178 23.5552L23.5386 30.5041L23.679 30.5389Z" fill="#59B24F"/>
<path d="M29.6665 29.5453C32.452 27.9481 34.0873 25.5901 33.3191 24.2785C32.5508 22.967 29.67 23.1985 26.8844 24.7956C24.0989 26.3928 22.4636 28.7508 23.2318 30.0623C24.0001 31.3739 26.8809 31.1424 29.6665 29.5453Z" fill="#84D17D"/>
<path d="M32.5633 24.0416C33.6168 24.7365 32.774 26.7864 30.4211 28.4889C28.0683 30.1914 24.978 30.9906 23.8893 30.2957C22.8358 29.6008 23.7489 27.3771 26.0666 25.6746C28.3843 23.9721 31.5097 23.3467 32.5633 24.0416Z" fill="#B0EDA9"/>
<path d="M25.3293 28.9059C25.1888 28.9406 25.0132 28.9406 24.9079 28.8711C24.7323 28.7669 24.8377 28.5584 24.9781 28.4194C25.2591 28.1415 25.6454 27.933 26.0668 27.7593C25.8561 27.7593 25.6102 27.7246 25.4347 27.6551C25.3995 27.6551 25.3293 27.6203 25.3293 27.5856C25.2591 27.5161 25.3995 27.4466 25.5049 27.4118C25.9965 27.2381 26.5584 27.0991 27.0852 27.0297C26.8393 26.9949 26.6286 26.9602 26.453 26.8559C26.2775 26.7517 26.1721 26.578 26.2072 26.4042C26.2775 26.1958 26.5935 26.0568 26.9096 26.0568C27.2256 26.0568 27.5066 26.161 27.7875 26.2653C27.8226 25.8831 28.0684 25.5009 28.4547 25.2577C28.5601 25.1882 28.6654 25.1534 28.8059 25.1534C28.9815 25.1882 29.0166 25.3619 28.9815 25.5009C29.2624 25.0839 29.8945 24.806 30.5266 24.7712C30.5969 24.7712 30.7022 24.7712 30.7724 24.806C30.8076 24.8407 30.8076 24.8755 30.8427 24.9102C30.9129 25.1534 30.8076 25.4314 30.5969 25.6399C30.4213 25.8483 30.1755 26.0568 29.9296 26.2305C30.2457 26.0915 30.5969 26.0221 30.9831 25.9526C31.0183 25.9526 31.0885 25.9526 31.1236 25.9526C31.1587 25.9526 31.1587 25.9873 31.1939 26.0221C31.2992 26.3348 31.0534 26.6475 30.6671 26.8212C30.2808 26.9949 29.8243 27.0297 29.4029 27.0991C29.6838 27.0991 29.9648 27.1686 30.1403 27.3424C30.3159 27.4813 30.2808 27.7593 30.0701 27.8635C29.9648 27.8983 29.8243 27.933 29.7189 27.933C29.3326 27.933 28.9815 27.8983 28.6303 27.794C28.9464 28.0373 28.9815 28.4194 28.6654 28.6974C28.5952 28.7669 28.4898 28.8364 28.3494 28.8364C28.2089 28.8364 28.0684 28.7669 28.0333 28.6627C27.9631 28.5584 27.9982 28.4542 27.9982 28.35C27.928 28.6279 27.7875 28.9406 27.4012 29.0101C27.2959 29.0449 27.1554 29.0101 27.0852 28.9406C27.05 28.9059 27.05 28.8364 27.0852 28.8016C27.1203 28.6627 27.2959 28.3847 27.2256 28.2805C26.5233 28.5237 26.0316 28.8016 25.3293 28.9059Z" fill="#C1FFB8"/>
<path d="M25.5049 16.0502L24.2407 16.6061C24.2407 16.6061 22.7658 18.1001 23.6437 20.9145C24.627 24.0763 26.5935 25.8135 28.3845 24.9449C28.6654 24.8059 29.2624 24.0068 29.2624 24.0068L25.54 15.9807L25.5049 16.0502Z" fill="#59B24F"/>
<path d="M28.7994 24.3834C29.9996 23.943 30.2673 21.7045 29.3974 19.3836C28.5275 17.0627 26.8493 15.5382 25.6492 15.9785C24.449 16.4189 24.1813 18.6574 25.0512 20.9783C25.9211 23.2992 27.5992 24.8237 28.7994 24.3834Z" fill="#84D17D"/>
<path d="M28.806 24.0416C27.9281 24.4932 26.3829 23.2424 25.505 21.1577C24.6271 19.0731 24.7675 16.7451 25.6455 16.2935C26.5234 15.8418 28.209 17.1968 29.0869 19.2815C29.9649 21.3662 29.6839 23.5899 28.806 24.0416Z" fill="#B0EDA9"/>
<path d="M26.4879 17.6832C26.523 17.5789 26.523 17.4747 26.6284 17.4052C26.7688 17.3357 26.9093 17.4747 26.9795 17.6137C27.12 17.8916 27.2253 18.2043 27.2605 18.5518C27.3307 18.4128 27.4009 18.2738 27.5063 18.1696C27.5414 18.1348 27.5414 18.1348 27.5765 18.1001C27.6467 18.1001 27.6819 18.1696 27.6819 18.2738C27.717 18.656 27.6819 19.0382 27.5765 19.4551C27.6467 19.3162 27.7521 19.1772 27.8926 19.1077C28.033 19.0382 28.2086 19.0035 28.3491 19.1077C28.5247 19.2119 28.5247 19.4899 28.4544 19.6984C28.3842 19.9068 28.2086 20.0458 28.0682 20.1848C28.3842 20.3238 28.6651 20.6017 28.7705 20.9492C28.8056 21.0187 28.8056 21.1229 28.7705 21.1924C28.7003 21.2966 28.5247 21.2619 28.4193 21.1924C28.7003 21.5051 28.8056 22.0263 28.6651 22.4432C28.6651 22.5127 28.63 22.5474 28.5598 22.5822C28.5247 22.5822 28.4896 22.5822 28.4544 22.5822C28.2086 22.5474 28.033 22.3737 27.8926 22.2C27.7521 21.9915 27.6467 21.7831 27.5765 21.5398C27.6116 21.7831 27.5765 22.061 27.5414 22.3042C27.5414 22.339 27.5414 22.3737 27.5063 22.4085C27.4712 22.4085 27.4712 22.4085 27.436 22.4085C27.1551 22.3737 26.9444 22.0958 26.8742 21.7831C26.8391 21.4703 26.9093 21.1576 26.9795 20.8449C26.9093 21.0187 26.7688 21.1924 26.5932 21.2619C26.4176 21.3314 26.2069 21.2271 26.1718 21.0534C26.1718 20.9839 26.1718 20.8797 26.2069 20.8102C26.3123 20.567 26.4176 20.3238 26.5932 20.15C26.3123 20.289 25.9611 20.15 25.8207 19.8721C25.7855 19.8026 25.7504 19.6984 25.7855 19.6289C25.8207 19.5246 25.926 19.4899 26.0314 19.4899C26.1367 19.4899 26.2069 19.5246 26.3123 19.5594C26.1016 19.4204 25.8558 19.2119 25.8909 18.934C25.8909 18.8645 25.9611 18.7603 26.0314 18.7603C26.0665 18.7603 26.1367 18.7603 26.1718 18.795C26.2772 18.8645 26.4879 19.073 26.5932 19.073C26.4879 18.5865 26.3825 18.1696 26.4879 17.6832Z" fill="#C1FFB8"/>
<path d="M19.8511 25.744C19.8511 25.744 20.0969 29.149 24.5216 28.5236C28.9815 27.8982 28.1387 24.3542 28.1387 24.3542L19.8511 25.744Z" fill="#E24C24"/>
<path d="M24.2504 26.6984C26.5304 26.3445 28.2642 25.3353 28.1229 24.4443C27.9816 23.5533 26.0188 23.118 23.7387 23.4719C21.4587 23.8259 19.7249 24.8351 19.8662 25.726C20.0075 26.617 21.9703 27.0524 24.2504 26.6984Z" fill="#FF5A27"/>
<path d="M24.218 26.4925C26.3064 26.1683 27.8995 25.2754 27.7763 24.4982C27.653 23.7209 25.8601 23.3537 23.7717 23.6779C21.6832 24.0021 20.0902 24.895 20.2134 25.6722C20.3367 26.4494 22.1296 26.8167 24.218 26.4925Z" fill="#FF8B78"/>
<path d="M22.45 24.7713C22.3095 24.8755 22.1691 25.0145 22.2042 25.1882C22.2042 25.2577 22.2744 25.3272 22.2744 25.3967C22.2744 25.4662 22.2393 25.5357 22.2393 25.6052C22.2393 25.6399 22.2744 25.7094 22.3095 25.7441C22.5554 25.9526 22.9065 25.8831 23.2226 25.8136C24.0303 25.6399 24.8029 25.4314 25.6105 25.2577C25.8212 25.223 26.0671 25.1187 26.1022 24.945C26.1724 24.7713 26.0671 24.5976 25.8915 24.4933C25.751 24.3891 25.5754 24.3543 25.3998 24.3543C24.8731 24.2848 24.3463 24.2848 23.8196 24.3891C23.3279 24.4238 22.8714 24.4933 22.45 24.7713Z" fill="#FF5A27"/>
<path d="M20.9749 25.6053C21.1154 25.5705 21.2559 25.5358 21.3963 25.501C21.4315 25.501 21.4315 25.4663 21.4666 25.4315C21.4666 25.3968 21.4666 25.362 21.4666 25.3273C21.4315 25.2578 21.3612 25.2578 21.3261 25.2578C21.291 25.2578 21.2559 25.2926 21.1856 25.2926H21.2208C21.1154 25.3273 21.0452 25.3273 20.9398 25.362C20.8696 25.362 20.8345 25.4315 20.8345 25.501C20.8696 25.5705 20.9047 25.6053 20.9749 25.6053Z" fill="#FFB164"/>
<path d="M21.2555 25.084C21.396 25.0493 21.3609 24.8408 21.2204 24.8408C21.0448 24.8756 21.08 25.1188 21.2555 25.084Z" fill="#FFB164"/>
<path d="M21.2557 25.084C21.3611 25.084 21.4313 25.084 21.5367 25.0493C21.5718 25.0493 21.6069 25.0145 21.6069 25.0145C21.6069 24.9798 21.642 24.9451 21.642 24.9451C21.642 24.9103 21.6069 24.8756 21.6069 24.8756C21.5718 24.8408 21.5367 24.8408 21.5367 24.8408C21.4313 24.8408 21.3611 24.8408 21.2557 24.8756C21.2206 24.8756 21.1855 24.9103 21.1855 24.9103C21.1855 24.9451 21.1504 24.9798 21.1504 24.9798C21.1504 25.0145 21.1855 25.0493 21.1855 25.0493C21.1855 25.084 21.2206 25.084 21.2557 25.084Z" fill="#FFB164"/>
<path d="M21.9228 24.424C21.9228 24.4587 21.9579 24.4587 21.9579 24.4935C21.9579 24.5282 21.9931 24.5282 22.0282 24.5282C22.0633 24.5629 22.1335 24.5629 22.1686 24.5977H22.2038C22.2038 24.5977 22.2389 24.5977 22.2389 24.5629L22.274 24.5282V24.4935V24.4587C22.274 24.424 22.274 24.424 22.2389 24.3892C22.2038 24.3545 22.2038 24.3545 22.1686 24.3545C22.1686 24.3545 22.1686 24.3545 22.1335 24.3545H22.1686C22.1686 24.3545 22.1335 24.3545 22.1335 24.3197C22.1335 24.3197 22.1335 24.3197 22.1686 24.3197L22.1335 24.285C22.1335 24.285 22.1335 24.285 22.1686 24.3197L22.1335 24.285C22.1335 24.285 22.1335 24.285 22.1335 24.3197C22.1335 24.3197 22.1335 24.285 22.0984 24.285L22.0633 24.2502H22.0282H21.9931C21.9579 24.2502 21.9579 24.285 21.9228 24.3197C21.8877 24.3545 21.8877 24.3892 21.9228 24.424Z" fill="#FFB164"/>
<path d="M22.6602 24.1806C22.6602 24.2153 22.6953 24.2501 22.6953 24.3195C22.6953 24.3195 22.6953 24.3543 22.7304 24.3543L22.7655 24.389H22.8006H22.8357C22.8709 24.389 22.8709 24.3543 22.906 24.3195V24.2848C22.906 24.2501 22.906 24.2501 22.906 24.2153C22.906 24.1806 22.8709 24.1458 22.8709 24.0763C22.8709 24.0763 22.8709 24.0416 22.8357 24.0416L22.8006 24.0068H22.7655H22.7304C22.6953 24.0068 22.6953 24.0416 22.6602 24.0763V24.1111C22.6602 24.1458 22.6602 24.1458 22.6602 24.1806Z" fill="#FFB164"/>
<path d="M24.2405 24.0763C24.2756 24.0416 24.3107 24.0068 24.3458 23.9373C24.3458 23.9373 24.3458 23.9026 24.381 23.9026V23.8678V23.8331C24.381 23.8331 24.381 23.7983 24.3458 23.7983C24.3458 23.7983 24.3458 23.7983 24.3107 23.7983C24.2756 23.7983 24.2756 23.7983 24.2405 23.7983H24.2054C24.1703 23.7983 24.1703 23.8331 24.1703 23.8331C24.1351 23.8678 24.1 23.9026 24.0649 23.9721C24.0649 23.9721 24.0649 24.0068 24.0298 24.0068V24.0416V24.0763C24.0298 24.0763 24.0298 24.111 24.0649 24.111C24.0649 24.111 24.0649 24.111 24.1 24.111C24.1351 24.111 24.1351 24.111 24.1703 24.111H24.2054L24.2405 24.0763Z" fill="#FFB164"/>
<path d="M25.3294 24.0765C25.3996 24.0417 25.4699 24.007 25.5401 23.9722C25.5752 23.9722 25.5752 23.9375 25.6103 23.9027C25.6103 23.868 25.6103 23.8332 25.6103 23.7985C25.6103 23.7637 25.5752 23.7637 25.5401 23.729C25.505 23.729 25.4699 23.729 25.4347 23.729C25.3645 23.7637 25.2943 23.7985 25.224 23.8332C25.1889 23.8332 25.1889 23.868 25.1538 23.9027C25.1538 23.9375 25.1538 23.9722 25.1538 24.007C25.1538 24.0417 25.1889 24.0417 25.224 24.0765C25.2592 24.0765 25.2943 24.0765 25.3294 24.0765Z" fill="#FFB164"/>
<path d="M26.1722 24.2502C26.3126 24.2502 26.418 24.2155 26.5233 24.1807C26.5585 24.1807 26.5585 24.146 26.5936 24.1112C26.5936 24.0765 26.5936 24.0417 26.5936 24.007C26.5936 23.9722 26.5585 23.9722 26.5233 23.9375C26.4882 23.9375 26.4531 23.9375 26.418 23.9375C26.3829 23.9375 26.3829 23.9375 26.3478 23.9722H26.3829C26.3126 24.007 26.2073 24.007 26.1019 24.007C26.0317 24.007 25.9966 24.0765 25.9966 24.146C26.0317 24.2502 26.1019 24.2849 26.1722 24.2502Z" fill="#FFB164"/>
<path d="M26.6991 24.7364C26.8045 24.7364 26.9449 24.7364 27.0503 24.7711C27.0854 24.7711 27.1205 24.7711 27.1205 24.7364C27.1556 24.7016 27.1556 24.7016 27.1556 24.6669C27.1556 24.5974 27.1205 24.5279 27.0503 24.5279C26.9449 24.5279 26.8045 24.5279 26.6991 24.4932C26.664 24.4932 26.6289 24.4932 26.6289 24.5279C26.5938 24.5627 26.5938 24.5627 26.5938 24.5974C26.5938 24.6669 26.6289 24.7364 26.6991 24.7364Z" fill="#FFB164"/>
<path d="M26.2426 25.1881C26.3129 25.2229 26.3831 25.2576 26.4533 25.2924C26.4533 25.2924 26.4885 25.2924 26.4885 25.3271H26.5236C26.5587 25.3271 26.5938 25.2924 26.5938 25.2924C26.5938 25.2576 26.6289 25.2229 26.6289 25.2229C26.6289 25.1881 26.5938 25.1534 26.5938 25.1534C26.5236 25.1186 26.4533 25.0839 26.3831 25.0491C26.3831 25.0491 26.348 25.0491 26.348 25.0144H26.3129C26.2778 25.0144 26.2426 25.0491 26.2426 25.0491C26.2426 25.0839 26.2075 25.1186 26.2075 25.1186C26.2075 25.1534 26.2075 25.1881 26.2426 25.1881Z" fill="#FFB164"/>
<path d="M25.4697 25.6746L25.5048 25.7094C25.4697 25.7094 25.4697 25.7094 25.4697 25.6746C25.5048 25.7094 25.5048 25.7441 25.5048 25.7441V25.7094C25.5048 25.7094 25.5048 25.7094 25.5048 25.7441V25.7789C25.5048 25.7789 25.5048 25.8136 25.5399 25.8136C25.5399 25.8136 25.575 25.8136 25.575 25.8483H25.6102C25.6453 25.8483 25.6804 25.8136 25.6804 25.8136C25.6804 25.7789 25.7155 25.7441 25.7155 25.7441C25.7155 25.7094 25.7155 25.6746 25.6804 25.6399C25.6804 25.6051 25.6453 25.5704 25.6102 25.5704C25.575 25.5356 25.575 25.5356 25.5399 25.5356H25.5048C25.5048 25.5356 25.4697 25.5356 25.4697 25.5704C25.4346 25.6051 25.4346 25.6051 25.4346 25.6399V25.6746C25.4346 25.6399 25.4346 25.6746 25.4697 25.6746Z" fill="#FFB164"/>
<path d="M24.2407 26.022C24.2407 26.0568 24.2758 26.0568 24.2758 26.0915V26.0568C24.2758 26.0915 24.2758 26.1263 24.2758 26.161V26.1958C24.2758 26.1958 24.2758 26.2305 24.3109 26.2305C24.346 26.2305 24.3812 26.2653 24.3812 26.2653C24.4163 26.2653 24.4514 26.2305 24.4514 26.2305C24.4514 26.2305 24.4514 26.2305 24.4514 26.1958C24.4514 26.161 24.4514 26.161 24.4514 26.1263C24.4514 26.0915 24.4514 26.0568 24.4514 26.0568C24.4514 26.022 24.4163 25.9873 24.4163 25.9525C24.4163 25.9178 24.3812 25.9178 24.346 25.8831H24.3109H24.2758C24.2407 25.8831 24.2407 25.9178 24.2056 25.9525C24.2407 25.9525 24.2407 25.9873 24.2407 26.022Z" fill="#FFB164"/>
<path d="M23.3276 26.1263V26.161C23.3276 26.161 23.3276 26.161 23.3276 26.1263C23.3276 26.161 23.3276 26.161 23.3276 26.1958C23.3276 26.1958 23.3276 26.1958 23.3276 26.1263C23.3276 26.161 23.3276 26.1958 23.3276 26.1958C23.3276 26.1958 23.3276 26.1958 23.3276 26.161C23.3276 26.161 23.3276 26.1958 23.2924 26.1958C23.2924 26.1958 23.2924 26.2305 23.2573 26.2305V26.2653C23.2573 26.3 23.2924 26.3348 23.2924 26.3348C23.3276 26.3348 23.3627 26.3695 23.3627 26.3695H23.3978C23.4329 26.3695 23.4329 26.3348 23.4329 26.3348C23.468 26.3 23.468 26.3 23.468 26.2653C23.468 26.2653 23.468 26.2305 23.5031 26.2305C23.5031 26.1958 23.5031 26.1958 23.5031 26.161C23.5031 26.1263 23.5031 26.0915 23.5031 26.0915C23.5031 26.0568 23.468 26.022 23.468 26.022C23.4329 26.022 23.3978 25.9873 23.3978 25.9873C23.3627 25.9873 23.3276 26.022 23.3276 26.022C23.3276 26.0915 23.3276 26.1263 23.3276 26.1263Z" fill="#FFB164"/>
<path d="M22.3093 25.918C22.2742 25.9527 22.2742 25.9874 22.2391 26.0222C22.2391 26.0222 22.2391 26.0222 22.2742 25.9874C22.2391 26.0222 22.1689 26.0569 22.1338 26.0917C22.0986 26.0917 22.0986 26.1264 22.0986 26.1612C22.0986 26.1959 22.0986 26.2307 22.1338 26.2307C22.1689 26.2654 22.1689 26.2654 22.204 26.2654H22.2391C22.2742 26.2654 22.2742 26.2654 22.3093 26.2307C22.4147 26.1612 22.4849 26.0917 22.5552 25.9874C22.5552 25.9527 22.5903 25.918 22.5903 25.918C22.5903 25.8832 22.5552 25.8485 22.5552 25.8485C22.52 25.8485 22.4849 25.8137 22.4849 25.8137C22.3796 25.8832 22.3445 25.8832 22.3093 25.918Z" fill="#FFB164"/>
<path d="M21.3259 26.0915C21.3611 26.0568 21.3611 26.022 21.3962 26.022C21.3962 26.022 21.3962 25.9873 21.4313 25.9873V25.9525V25.9178C21.4313 25.9178 21.4313 25.8831 21.3962 25.8831C21.3962 25.8831 21.3962 25.8831 21.3611 25.8831C21.3259 25.8831 21.3259 25.8831 21.2908 25.8831H21.2557C21.2206 25.8831 21.2206 25.9178 21.2206 25.9178C21.1855 25.9525 21.1855 25.9873 21.1504 25.9873C21.1504 25.9873 21.1504 26.022 21.1152 26.022V26.0568V26.0915C21.1152 26.0915 21.1152 26.1263 21.1504 26.1263C21.1504 26.1263 21.1504 26.1263 21.1855 26.1263C21.2206 26.1263 21.2206 26.1263 21.2557 26.1263H21.2908C21.2908 26.1263 21.2908 26.1263 21.3259 26.0915Z" fill="#FFB164"/>
<path opacity="0.24" d="M21.712 27.9331C21.9579 28.0373 22.2388 28.1763 22.5197 28.1416C22.6251 28.1416 22.7304 28.0721 22.7304 27.9678C22.7304 27.8984 22.6251 27.8289 22.5549 27.7941C22.3793 27.7246 22.2037 27.6551 22.0983 27.5162C21.8876 27.3077 21.4662 26.7518 21.0448 26.995C20.6585 27.2729 21.5013 27.8289 21.712 27.9331Z" fill="white"/>
<path d="M29.2275 23.3118C29.2275 23.3118 31.3697 25.9524 34.6707 22.9644C37.9717 19.9763 35.2677 17.5442 35.2677 17.5442L29.2275 23.3118Z" fill="#E24C24"/>
<path d="M33.4057 21.6428C35.0829 20.074 35.9349 18.271 35.3086 17.6156C34.6824 16.9602 32.8151 17.7006 31.1379 19.2694C29.4607 20.8381 28.6087 22.6412 29.235 23.2966C29.8612 23.952 31.7285 23.2115 33.4057 21.6428Z" fill="#FF5A27"/>
<path d="M33.2609 21.4916C34.7971 20.0546 35.5997 18.4263 35.0534 17.8546C34.5071 17.2828 32.8189 17.9842 31.2826 19.4212C29.7464 20.8581 28.9438 22.4864 29.4901 23.0582C30.0364 23.6299 31.7246 22.9285 33.2609 21.4916Z" fill="#FF8B78"/>
<path d="M30.8075 21.0882C30.7373 21.2271 30.7022 21.4356 30.8427 21.5746C30.8778 21.6093 30.948 21.6441 31.0183 21.7136C31.0534 21.7831 31.0534 21.8526 31.0885 21.8873C31.1236 21.922 31.1587 21.9568 31.229 21.9568C31.545 21.9915 31.7908 21.7483 32.0015 21.5051C32.5634 20.9144 33.0902 20.3238 33.652 19.6984C33.7925 19.5594 33.933 19.3509 33.8979 19.1425C33.8627 18.9687 33.652 18.8645 33.4764 18.8645C33.3009 18.8645 33.1253 18.934 32.9848 19.0382C32.5283 19.2814 32.0718 19.5594 31.6855 19.9416C31.3343 20.3238 31.0183 20.6365 30.8075 21.0882Z" fill="#FF5A27"/>
<path d="M30.0701 22.5824C30.1754 22.4781 30.2808 22.3739 30.351 22.2349C30.351 22.2002 30.3861 22.1654 30.351 22.1654C30.351 22.1307 30.3159 22.0959 30.2808 22.0959C30.2106 22.0612 30.1754 22.0959 30.1052 22.1307C30.0701 22.1654 30.035 22.2002 30.035 22.2349C30.035 22.2349 30.035 22.2349 30.0701 22.2002C29.9999 22.2697 29.9647 22.3391 29.8945 22.4086C29.8594 22.4434 29.8594 22.5129 29.8945 22.5824C29.9296 22.6171 30.035 22.6171 30.0701 22.5824Z" fill="#FFB164"/>
<path d="M30.0001 22.0262C30.1054 21.9219 29.9649 21.7482 29.8245 21.8525C29.7191 21.9567 29.8947 22.1304 30.0001 22.0262Z" fill="#FFB164"/>
<path d="M29.9998 22.0262C30.07 21.9567 30.1403 21.9219 30.2105 21.8524C30.2456 21.8177 30.2456 21.7829 30.2456 21.7829C30.2456 21.7482 30.2456 21.7135 30.2105 21.7135C30.1754 21.6787 30.1754 21.6787 30.1403 21.6787C30.1052 21.6787 30.07 21.6787 30.07 21.7135C29.9998 21.7829 29.9296 21.8177 29.8593 21.8872C29.8242 21.9219 29.8242 21.9567 29.8242 21.9567C29.8242 21.9914 29.8242 22.0262 29.8593 22.0262C29.8945 22.0609 29.8945 22.0609 29.9296 22.0609C29.9296 22.0609 29.9647 22.0262 29.9998 22.0262Z" fill="#FFB164"/>
<path d="M30.1755 21.0881C30.2106 21.0881 30.2106 21.1229 30.2457 21.1229C30.2808 21.1229 30.2808 21.1229 30.3159 21.1229C30.351 21.1229 30.4213 21.1229 30.4564 21.0881C30.4564 21.0881 30.4915 21.0881 30.4915 21.0534L30.5266 21.0186V20.9839V20.9491C30.5266 20.9491 30.5266 20.9491 30.4915 20.9144L30.4564 20.8796C30.4213 20.8796 30.3862 20.8796 30.3862 20.8796C30.3862 20.8796 30.3862 20.8796 30.351 20.8796H30.3862H30.351H30.3862H30.351H30.3862H30.351H30.3862H30.351H30.3159C30.3159 20.8796 30.2808 20.8796 30.2808 20.9144L30.2457 20.9491C30.2457 20.9839 30.2106 21.0186 30.2457 21.0186C30.1052 21.0534 30.1403 21.0881 30.1755 21.0881Z" fill="#FFB164"/>
<path d="M30.6318 20.4626C30.6669 20.4974 30.702 20.5321 30.7371 20.5321H30.7722H30.8074C30.8074 20.5321 30.8425 20.5321 30.8425 20.4974L30.8776 20.4626C30.8776 20.4279 30.9127 20.3931 30.8776 20.3931V20.3584C30.8776 20.3236 30.8425 20.3236 30.8425 20.3236C30.8074 20.2889 30.7722 20.2542 30.7371 20.2542H30.702H30.6669C30.6669 20.2542 30.6318 20.2542 30.6318 20.2889L30.5967 20.3236C30.5967 20.3584 30.5615 20.3931 30.5967 20.3931V20.4279C30.6318 20.4279 30.6318 20.4626 30.6318 20.4626Z" fill="#FFB164"/>
<path d="M31.8962 19.4899C31.8962 19.4204 31.8962 19.3856 31.8962 19.3161V19.2814C31.8962 19.2814 31.8962 19.2467 31.8611 19.2467L31.826 19.2119H31.7909H31.7557C31.7206 19.2119 31.7206 19.2119 31.6855 19.2467C31.6855 19.2467 31.6855 19.2467 31.6504 19.2814C31.6504 19.3161 31.6504 19.3161 31.6504 19.3509C31.6504 19.4204 31.6504 19.4551 31.6504 19.5246V19.5594C31.6504 19.5594 31.6504 19.5941 31.6855 19.5941L31.7206 19.6289H31.7557H31.7909C31.826 19.6289 31.826 19.6289 31.8611 19.5941C31.8611 19.5941 31.8611 19.5941 31.8962 19.5594C31.8962 19.5594 31.8962 19.5246 31.8962 19.4899Z" fill="#FFB164"/>
<path d="M32.7742 18.899C32.8093 18.8295 32.8444 18.76 32.8795 18.6906C32.8795 18.6558 32.9146 18.6211 32.8795 18.6211C32.8795 18.5863 32.8444 18.5516 32.8093 18.5516C32.7742 18.5516 32.739 18.5168 32.739 18.5516C32.7039 18.5516 32.6688 18.5863 32.6688 18.6211C32.6337 18.6906 32.5986 18.76 32.5635 18.8295C32.5635 18.8643 32.5283 18.899 32.5635 18.899C32.5635 18.9338 32.5986 18.9685 32.6337 18.9685C32.6688 18.9685 32.7039 19.0033 32.7039 18.9685C32.739 18.9338 32.7742 18.9338 32.7742 18.899Z" fill="#FFB164"/>
<path d="M33.5818 18.5864C33.6872 18.5169 33.7574 18.4127 33.8277 18.3085C33.8277 18.2737 33.8628 18.239 33.8277 18.239C33.8277 18.2042 33.7925 18.1695 33.7574 18.1695C33.7223 18.1695 33.6872 18.1348 33.6872 18.1695C33.6521 18.1695 33.617 18.2042 33.617 18.239C33.617 18.2737 33.5818 18.2737 33.5818 18.3085C33.5818 18.3085 33.5818 18.3085 33.617 18.2737C33.5467 18.3432 33.5116 18.4127 33.4414 18.4475C33.4063 18.4822 33.4063 18.5864 33.4414 18.6212C33.4765 18.6212 33.5116 18.6212 33.5818 18.5864Z" fill="#FFB164"/>
<path d="M34.284 18.656C34.3894 18.5865 34.4947 18.5518 34.565 18.4823C34.6001 18.4823 34.6001 18.4476 34.6352 18.4128C34.6352 18.3781 34.6352 18.3433 34.6352 18.3433C34.6001 18.3086 34.5298 18.2738 34.4947 18.3086C34.3894 18.3781 34.284 18.4128 34.2138 18.4823C34.1787 18.4823 34.1787 18.5171 34.1436 18.5518C34.1436 18.5865 34.1436 18.6213 34.1436 18.6213C34.1436 18.656 34.2489 18.6908 34.284 18.656Z" fill="#FFB164"/>
<path d="M34.1791 19.3164C34.2493 19.3164 34.3547 19.3164 34.4249 19.3164H34.46C34.46 19.3164 34.4951 19.3164 34.4951 19.2816C34.5302 19.2469 34.5302 19.2469 34.5302 19.2121C34.5302 19.1774 34.5302 19.1427 34.4951 19.1427C34.46 19.1079 34.46 19.1079 34.4249 19.1079C34.3547 19.1079 34.2493 19.1079 34.1791 19.1079H34.144C34.144 19.1079 34.1088 19.1079 34.1088 19.1427C34.0737 19.1774 34.0737 19.1774 34.0737 19.2121C34.0737 19.2469 34.0737 19.2816 34.1088 19.2816C34.1088 19.2816 34.144 19.3164 34.1791 19.3164Z" fill="#FFB164"/>
<path d="M33.8275 20.15H33.8626H33.8275C33.8626 20.15 33.8977 20.1847 33.8977 20.1847C33.8977 20.1847 33.8977 20.1847 33.8626 20.15L33.8977 20.1847H33.9328H33.9679C33.9679 20.1847 34.0031 20.1847 34.0031 20.15C34.0382 20.1152 34.0382 20.1152 34.0382 20.0805C34.0382 20.0457 34.0382 20.011 34.0031 20.011C33.9679 19.9762 33.9679 19.9762 33.9328 19.9415C33.8977 19.9415 33.8626 19.9067 33.8275 19.9067C33.7924 19.9067 33.7572 19.9067 33.7572 19.9067C33.7572 19.9067 33.7221 19.9067 33.7221 19.9415L33.687 19.9762C33.687 20.011 33.687 20.0457 33.687 20.0457C33.687 20.0457 33.687 20.0457 33.7221 20.0805C33.7572 20.1152 33.7924 20.15 33.8275 20.15Z" fill="#FFB164"/>
<path d="M33.0199 21.1229C33.055 21.1229 33.055 21.1577 33.0902 21.1577C33.0902 21.1577 33.0902 21.1577 33.055 21.1229C33.0902 21.1577 33.0902 21.1577 33.1253 21.1924L33.1604 21.2271H33.1955C33.2306 21.2271 33.2657 21.2271 33.2657 21.1924C33.3009 21.1577 33.3009 21.1577 33.3009 21.1229V21.0882C33.3009 21.0534 33.3009 21.0534 33.2657 21.0187C33.2306 20.9839 33.2306 20.9839 33.1955 20.9492C33.1604 20.9144 33.1253 20.9144 33.0902 20.8797C33.055 20.8797 33.0199 20.845 33.0199 20.8797C33.0199 20.8797 32.9848 20.8797 32.9848 20.9144L32.9497 20.9492C32.9497 20.9839 32.9146 21.0187 32.9497 21.0187C32.9497 21.0882 32.9848 21.0882 33.0199 21.1229Z" fill="#FFB164"/>
<path d="M32.3179 21.7134C32.3179 21.7134 32.353 21.7482 32.3179 21.7134C32.353 21.7482 32.353 21.7134 32.3179 21.7134C32.353 21.7482 32.353 21.7482 32.353 21.7482C32.353 21.7482 32.353 21.7482 32.3179 21.7134C32.353 21.7482 32.353 21.7829 32.353 21.7829V21.7482V21.7829V21.8177C32.353 21.8177 32.353 21.8524 32.3881 21.8524C32.4232 21.8872 32.4232 21.8872 32.4583 21.8872C32.4934 21.8872 32.5286 21.8872 32.5286 21.8524C32.5286 21.8524 32.5286 21.8524 32.5637 21.8177C32.5637 21.7829 32.5637 21.7829 32.5637 21.7482C32.5637 21.7134 32.5637 21.7134 32.5637 21.6787V21.6439C32.5637 21.6092 32.5637 21.6092 32.5286 21.5744C32.5286 21.5397 32.4934 21.5397 32.4934 21.505C32.4583 21.4702 32.4583 21.4702 32.4232 21.4702C32.3881 21.4702 32.353 21.4702 32.353 21.505C32.3179 21.5397 32.3179 21.5397 32.3179 21.5744C32.2827 21.6787 32.3179 21.6787 32.3179 21.7134Z" fill="#FFB164"/>
<path d="M31.3696 22.0957C31.3696 22.1304 31.3696 22.1652 31.3696 22.2347V22.1999C31.3696 22.2694 31.3345 22.3042 31.3345 22.3736C31.3345 22.4084 31.3345 22.4431 31.3345 22.4431C31.3345 22.4779 31.3696 22.4779 31.4047 22.5126C31.4398 22.5126 31.4749 22.5126 31.4749 22.5126C31.4749 22.5126 31.4749 22.5126 31.5101 22.4779L31.5452 22.4431C31.5803 22.3389 31.6154 22.2347 31.6154 22.1304C31.6154 22.0957 31.6154 22.0609 31.5803 22.0609C31.5452 21.9915 31.5101 21.9915 31.4749 21.9915C31.4398 21.9915 31.4047 21.9915 31.4047 22.0262C31.3696 22.0262 31.3696 22.0609 31.3696 22.0957Z" fill="#FFB164"/>
<path d="M30.632 22.8254C30.632 22.7907 30.632 22.7559 30.632 22.7212V22.6864C30.632 22.6864 30.632 22.6517 30.5969 22.6517L30.5618 22.6169H30.5267H30.4916C30.4565 22.6169 30.4565 22.6169 30.4213 22.6517C30.4213 22.6517 30.4213 22.6517 30.3862 22.6864C30.3862 22.7212 30.3862 22.7212 30.3862 22.7559C30.3862 22.7907 30.3862 22.8254 30.3862 22.8602V22.8949C30.3862 22.8949 30.3862 22.9296 30.4213 22.9296L30.4565 22.9644H30.4916H30.5267C30.5618 22.9644 30.5618 22.9644 30.5969 22.9296C30.5969 22.9296 30.5969 22.9296 30.632 22.8949C30.632 22.8602 30.632 22.8254 30.632 22.8254Z" fill="#FFB164"/>
<path opacity="0.24" d="M32.0016 24.0759C32.2826 24.0412 32.5635 23.9717 32.8093 23.798C32.8796 23.7285 32.9498 23.6243 32.9147 23.52C32.8796 23.4505 32.7742 23.4505 32.6689 23.4853C32.4933 23.52 32.3177 23.5548 32.107 23.52C31.7909 23.4853 31.1237 23.2421 30.9481 23.6938C30.7374 24.1454 31.7909 24.1107 32.0016 24.0759Z" fill="white"/>
<path d="M33.2656 27.2035C33.2656 27.2035 34.2489 30.4695 38.4629 28.9059C42.677 27.3424 41.0265 24.0764 41.0265 24.0764L33.2656 27.2035Z" fill="#E24C24"/>
<path d="M37.7666 27.1971C39.9151 26.3632 41.3869 25.0065 41.054 24.167C40.7211 23.3274 38.7095 23.3228 36.5611 24.1568C34.4126 24.9907 32.9408 26.3473 33.2737 27.1869C33.6066 28.0265 35.6181 28.031 37.7666 27.1971Z" fill="#FF5A27"/>
<path d="M37.6896 27.003C39.6575 26.2392 41.0174 25.0262 40.727 24.2938C40.4366 23.5614 38.6059 23.587 36.638 24.3508C34.67 25.1147 33.3101 26.3276 33.6005 27.06C33.8909 27.7924 35.7217 27.7669 37.6896 27.003Z" fill="#FF8B78"/>
<path d="M35.5837 25.7095C35.4783 25.8137 35.3378 25.9874 35.4081 26.1611C35.4432 26.2306 35.4783 26.2654 35.5134 26.3349C35.5134 26.4044 35.4783 26.4738 35.5134 26.5433C35.5134 26.5781 35.5837 26.6128 35.6188 26.6476C35.8997 26.7865 36.2158 26.6823 36.5318 26.5433C37.2693 26.1959 38.0067 25.8484 38.7442 25.501C38.9198 25.3968 39.1656 25.2925 39.1656 25.084C39.1656 24.9103 39.0602 24.7366 38.8847 24.7019C38.7091 24.6324 38.5335 24.6324 38.3579 24.6671C37.8311 24.7366 37.3044 24.8061 36.8127 25.0493C36.3562 25.1883 35.9348 25.362 35.5837 25.7095Z" fill="#FF5A27"/>
<path d="M34.3192 26.8214C34.4597 26.7519 34.6002 26.6824 34.7055 26.6129C34.7407 26.6129 34.7407 26.5781 34.7407 26.5434C34.7407 26.5086 34.7407 26.4739 34.7055 26.4392C34.6704 26.3697 34.6002 26.3697 34.5299 26.4044C34.4948 26.4392 34.4597 26.4392 34.4246 26.4739H34.4597C34.3895 26.5086 34.2841 26.5781 34.2139 26.6129C34.1437 26.6476 34.1085 26.7171 34.1437 26.7519C34.2139 26.8214 34.2841 26.8561 34.3192 26.8214Z" fill="#FFB164"/>
<path d="M34.4598 26.2654C34.6002 26.1959 34.53 25.9875 34.3896 26.057C34.2491 26.0917 34.3193 26.3349 34.4598 26.2654Z" fill="#FFB164"/>
<path d="M34.4598 26.2651C34.53 26.2303 34.6353 26.2303 34.7056 26.1956C34.7407 26.1956 34.7758 26.1609 34.7758 26.1261C34.7758 26.0914 34.7758 26.0566 34.7758 26.0219C34.7758 25.9871 34.7407 25.9524 34.7056 25.9524C34.6705 25.9524 34.6353 25.9524 34.6002 25.9524C34.53 25.9871 34.4246 25.9871 34.3544 26.0219C34.3193 26.0219 34.2842 26.0566 34.2842 26.0914C34.2842 26.1261 34.2842 26.1609 34.2842 26.1956C34.2842 26.2303 34.3193 26.2651 34.3544 26.2651C34.4246 26.2651 34.4246 26.2651 34.4598 26.2651Z" fill="#FFB164"/>
<path d="M34.9868 25.4662C34.9868 25.5009 35.0219 25.5009 35.057 25.5009C35.0921 25.5009 35.0921 25.5357 35.1273 25.5357C35.1624 25.5704 35.2326 25.5704 35.2677 25.5704H35.3028C35.3028 25.5704 35.338 25.5704 35.338 25.5357C35.338 25.5357 35.338 25.5009 35.3731 25.5009V25.4662V25.4315C35.3731 25.3967 35.338 25.3967 35.338 25.3967C35.3028 25.362 35.2677 25.362 35.2677 25.362C35.2677 25.362 35.2677 25.362 35.2326 25.362H35.2677H35.2326H35.2677C35.2677 25.362 35.2326 25.362 35.2326 25.3272C35.2326 25.3272 35.2326 25.3272 35.2677 25.3272L35.2326 25.2925C35.2326 25.2925 35.2326 25.2925 35.2677 25.3272L35.2326 25.2925H35.1975H35.1624C35.1624 25.2925 35.1273 25.2925 35.1273 25.3272C35.0921 25.362 35.0921 25.362 35.0921 25.3967C34.9517 25.4315 34.9517 25.4662 34.9868 25.4662Z" fill="#FFB164"/>
<path d="M35.6538 25.084C35.6889 25.1187 35.6889 25.1534 35.724 25.1882L35.7591 25.2229H35.7942H35.8294C35.8294 25.2229 35.8645 25.2229 35.8645 25.1882C35.8996 25.1534 35.8996 25.1534 35.8996 25.1187V25.084C35.8996 25.0492 35.8996 25.0492 35.8645 25.0145C35.8294 24.9797 35.8294 24.945 35.7942 24.9102L35.7591 24.8755H35.724H35.6889C35.6889 24.8755 35.6538 24.8755 35.6538 24.9102C35.6187 24.945 35.6187 24.945 35.6187 24.9797V25.0145C35.6538 25.0492 35.6538 25.0492 35.6538 25.084Z" fill="#FFB164"/>
<path d="M37.1989 24.6322C37.2341 24.5975 37.2341 24.528 37.2692 24.4932V24.4585V24.4237C37.2692 24.4237 37.2692 24.389 37.2341 24.389L37.1989 24.3542H37.1638C37.1287 24.3542 37.1287 24.3542 37.0936 24.3542H37.0585L37.0234 24.389C36.9882 24.4237 36.9882 24.4932 36.9531 24.528V24.5627V24.5975C36.9531 24.5975 36.9531 24.6322 36.9882 24.6322L37.0234 24.667H37.0585C37.0936 24.667 37.0936 24.667 37.1287 24.667H37.1638C37.1638 24.667 37.1638 24.667 37.1989 24.6322Z" fill="#FFB164"/>
<path d="M38.2175 24.389C38.2878 24.3542 38.358 24.2847 38.3931 24.25C38.4282 24.2152 38.4282 24.2152 38.4282 24.1805C38.4282 24.1457 38.4282 24.111 38.3931 24.0762C38.358 24.0415 38.358 24.0415 38.3229 24.0415C38.2878 24.0415 38.2527 24.0415 38.2175 24.0762C38.1473 24.111 38.0771 24.1805 38.042 24.2152C38.0068 24.25 38.0068 24.25 38.0068 24.2847C38.0068 24.3195 38.0068 24.3542 38.042 24.389C38.0771 24.4237 38.0771 24.4237 38.1122 24.4237C38.1824 24.4237 38.2175 24.4237 38.2175 24.389Z" fill="#FFB164"/>
<path d="M39.0951 24.4239C39.2005 24.3891 39.3409 24.3196 39.4463 24.2849C39.4814 24.2849 39.4814 24.2501 39.4814 24.2154C39.4814 24.1807 39.4814 24.1459 39.4463 24.1112C39.4112 24.0764 39.4112 24.0764 39.3761 24.0764C39.3409 24.0764 39.3058 24.0764 39.2707 24.1112C39.2356 24.1112 39.2356 24.1459 39.2005 24.1459H39.2356C39.1654 24.1807 39.06 24.2154 38.9898 24.2501C38.9195 24.2849 38.8844 24.3544 38.9195 24.3891C38.9547 24.3891 39.0249 24.4239 39.0951 24.4239Z" fill="#FFB164"/>
<path d="M39.7274 24.7365C39.8327 24.7017 39.9732 24.7017 40.0786 24.667C40.1137 24.667 40.1488 24.6322 40.1488 24.6322C40.1488 24.5975 40.1839 24.5627 40.1839 24.5627C40.1839 24.4932 40.1137 24.4585 40.0434 24.4585C39.9381 24.4932 39.7976 24.4932 39.6923 24.528C39.6571 24.528 39.622 24.5627 39.622 24.5627C39.622 24.5975 39.5869 24.6322 39.5869 24.6322C39.5869 24.7017 39.6571 24.7712 39.7274 24.7365Z" fill="#FFB164"/>
<path d="M39.3764 25.2923C39.4466 25.327 39.5169 25.327 39.6222 25.3618H39.6573H39.6924C39.7276 25.3618 39.7627 25.327 39.7627 25.2923C39.7627 25.2575 39.7627 25.2228 39.7627 25.1881C39.7627 25.1533 39.7276 25.1186 39.6924 25.1186C39.6222 25.0838 39.552 25.0838 39.4466 25.0491H39.4115H39.3764C39.3413 25.0491 39.3062 25.0838 39.3062 25.1186C39.3062 25.1533 39.3062 25.1881 39.3062 25.2228C39.3413 25.2575 39.3413 25.2923 39.3764 25.2923Z" fill="#FFB164"/>
<path d="M38.709 25.9526L38.7441 25.9874C38.7441 25.9526 38.7441 25.9526 38.709 25.9526C38.7441 25.9874 38.7441 25.9874 38.7792 26.0221V25.9874C38.7792 25.9874 38.7792 25.9874 38.7792 26.0221C38.7792 26.0221 38.7792 26.0568 38.8143 26.0568L38.8495 26.0916H38.8846H38.9197C38.9548 26.0916 38.9899 26.0568 38.9899 26.0221C38.9899 25.9874 38.9899 25.9526 38.9899 25.9179C38.9899 25.8831 38.9548 25.8484 38.9548 25.8484C38.9197 25.8136 38.9197 25.8136 38.8846 25.7789C38.8495 25.7441 38.8143 25.7441 38.8143 25.7441H38.7792C38.7792 25.7441 38.7441 25.7441 38.7441 25.7789C38.7441 25.8136 38.709 25.8484 38.709 25.8484V25.8831C38.709 25.9179 38.709 25.9179 38.709 25.9526Z" fill="#FFB164"/>
<path d="M37.6202 26.5434C37.6202 26.5782 37.6554 26.5782 37.6554 26.6129V26.5782C37.6554 26.6129 37.6905 26.6477 37.6905 26.6477C37.6905 26.6477 37.6905 26.6824 37.7256 26.6824L37.7607 26.7172C37.7958 26.7172 37.8309 26.7172 37.8661 26.7172C37.9012 26.7172 37.9363 26.6824 37.9363 26.6477V26.6129C37.9363 26.5782 37.9363 26.5782 37.9363 26.5434C37.9363 26.5087 37.9012 26.4739 37.9012 26.4739C37.8661 26.4392 37.8661 26.4045 37.8309 26.3697C37.7958 26.335 37.7958 26.335 37.7607 26.335H37.7256C37.7256 26.335 37.6905 26.335 37.6905 26.3697C37.6554 26.4045 37.6554 26.4045 37.6554 26.4392C37.5851 26.4739 37.5851 26.5087 37.6202 26.5434Z" fill="#FFB164"/>
<path d="M36.7426 26.856V26.8908C36.7426 26.856 36.7426 26.856 36.7426 26.856C36.7426 26.8908 36.7426 26.8908 36.7426 26.9255C36.7778 26.8908 36.7778 26.8908 36.7426 26.856C36.7426 26.8908 36.7426 26.9255 36.7426 26.9255V26.8908C36.7426 26.8908 36.7426 26.9255 36.7075 26.9255V26.9603V26.995C36.7075 27.0297 36.7426 27.0645 36.7778 27.0645C36.8129 27.0645 36.848 27.0645 36.8831 27.0645H36.9182L36.9533 27.0297C36.9533 26.995 36.9885 26.995 36.9885 26.9603V26.9255C36.9885 26.8908 36.9885 26.8908 36.9885 26.856C36.9885 26.8213 36.9885 26.8213 36.9533 26.7865C36.9533 26.7518 36.9182 26.7518 36.8831 26.717C36.848 26.717 36.8129 26.717 36.7778 26.717C36.7426 26.717 36.7075 26.7518 36.7075 26.7865C36.7426 26.7865 36.7426 26.8213 36.7426 26.856Z" fill="#FFB164"/>
<path d="M35.7239 26.8559C35.7239 26.8907 35.6888 26.9254 35.6537 26.9602C35.6537 26.9602 35.6537 26.9602 35.6537 26.9254C35.6185 26.9949 35.5834 27.0297 35.5483 27.0644C35.5132 27.0992 35.5132 27.1339 35.5132 27.1339C35.5132 27.1686 35.5483 27.2034 35.5483 27.2034C35.5834 27.2034 35.6185 27.2381 35.6185 27.2381H35.6537C35.6888 27.2381 35.6888 27.2034 35.6888 27.2034C35.759 27.1339 35.8292 27.0297 35.8644 26.9254C35.8644 26.8907 35.8644 26.8559 35.8644 26.8212C35.8644 26.7865 35.8292 26.7517 35.7941 26.7517C35.759 26.7517 35.7239 26.7517 35.6888 26.7517C35.759 26.7865 35.7239 26.8212 35.7239 26.8559Z" fill="#FFB164"/>
<path d="M34.7761 27.2381C34.7761 27.2033 34.8112 27.1686 34.8112 27.1339V27.0991V27.0644C34.8112 27.0644 34.8112 27.0296 34.7761 27.0296L34.741 26.9949H34.7059C34.6707 26.9949 34.6707 26.9949 34.6356 26.9949H34.6005L34.5654 27.0296C34.5654 27.0644 34.5303 27.0991 34.5303 27.1339V27.1686V27.2033C34.5303 27.2033 34.5303 27.2381 34.5654 27.2381L34.6005 27.2728H34.6356C34.6707 27.2728 34.6707 27.2728 34.7059 27.2728H34.741C34.741 27.2728 34.741 27.2728 34.7761 27.2381Z" fill="#FFB164"/>
<path opacity="0.24" d="M35.5484 28.9406C35.8293 29.0101 36.1103 29.0449 36.3912 28.9754C36.4966 28.9406 36.6019 28.8711 36.5668 28.7669C36.5317 28.6974 36.4614 28.6627 36.3561 28.6279C36.1805 28.5932 36.0049 28.5584 35.8293 28.4542C35.5484 28.2805 35.0216 27.8288 34.6705 28.1762C34.3544 28.5237 35.3377 28.8711 35.5484 28.9406Z" fill="white"/>
<path d="M14.1622 21.5049C14.1622 21.5049 10.9314 22.721 12.7926 26.7514C14.6538 30.747 17.8495 28.9403 17.8495 28.9403L14.1622 21.5049Z" fill="#E24C24"/>
<path d="M17.7691 28.9543C18.5929 28.5683 18.46 26.5823 17.4722 24.5185C16.4844 22.4546 15.0158 21.0945 14.1919 21.4805C13.3681 21.8665 13.501 23.8525 14.4888 25.9163C15.4766 27.9802 16.9452 29.3403 17.7691 28.9543Z" fill="#FF5A27"/>
<path d="M17.6189 28.6403C18.3376 28.3036 18.1867 26.4981 17.2819 24.6078C16.3771 22.7174 15.061 21.4579 14.3423 21.7946C13.6236 22.1313 13.7745 23.9368 14.6793 25.8272C15.5841 27.7176 16.9002 28.977 17.6189 28.6403Z" fill="#FF8B78"/>
<path d="M15.8479 23.694C15.7075 23.5897 15.5319 23.4855 15.3914 23.555C15.3212 23.5897 15.2861 23.6592 15.2158 23.6592C15.1456 23.6592 15.0754 23.6592 15.0051 23.6592C14.97 23.6939 14.9349 23.7287 14.8998 23.7634C14.7593 24.0414 14.9349 24.3541 15.0754 24.6321C15.4968 25.327 15.8831 26.0219 16.3045 26.7168C16.4098 26.8905 16.5503 27.0989 16.761 27.0989C16.9366 27.0989 17.077 26.96 17.1473 26.7862C17.2175 26.6125 17.1824 26.4388 17.1473 26.2651C17.0419 25.7439 16.9015 25.2227 16.6556 24.771C16.4098 24.4236 16.1991 24.0067 15.8479 23.694Z" fill="#FF5A27"/>
<path d="M14.6185 22.5126C14.6888 22.6516 14.759 22.7558 14.8644 22.8948C14.8644 22.9295 14.8995 22.9295 14.9346 22.9295C14.9697 22.9295 15.0048 22.9295 15.0048 22.8948C15.04 22.86 15.04 22.7906 15.0048 22.7211C14.9697 22.6863 14.9697 22.6516 14.9346 22.6168C14.9346 22.6168 14.9346 22.6168 14.9346 22.6516C14.8995 22.5821 14.8293 22.4778 14.7941 22.4084C14.759 22.3389 14.6888 22.3389 14.6537 22.3389C14.6185 22.3736 14.5834 22.4431 14.6185 22.5126Z" fill="#FFB164"/>
<path d="M15.1806 22.6169C15.2509 22.7559 15.4616 22.6516 15.3913 22.5127C15.3211 22.3737 15.1104 22.4779 15.1806 22.6169Z" fill="#FFB164"/>
<path d="M15.1807 22.6168C15.2158 22.6863 15.2509 22.7906 15.286 22.8601C15.286 22.8948 15.3211 22.8948 15.3562 22.9295C15.3914 22.9295 15.4265 22.9295 15.4616 22.9295C15.4967 22.9295 15.4967 22.8948 15.5318 22.8601C15.5318 22.8253 15.5318 22.7906 15.5318 22.7558C15.4967 22.6863 15.4616 22.5821 15.4265 22.5126C15.4265 22.4779 15.3914 22.4779 15.3562 22.4431C15.3211 22.4431 15.286 22.4431 15.2509 22.4431C15.2158 22.4431 15.2158 22.4779 15.1807 22.5126C15.1807 22.5474 15.1807 22.5821 15.1807 22.6168Z" fill="#FFB164"/>
<path d="M16.0233 23.0684C16.0233 23.0684 15.9882 23.1031 15.9882 23.1379C15.9882 23.1726 15.9531 23.1726 15.9531 23.2074C15.9531 23.2421 15.918 23.3116 15.9531 23.3463C15.9531 23.3463 15.9531 23.3811 15.9882 23.3811L16.0233 23.4158H16.0585H16.0936H16.1287C16.1638 23.4158 16.1638 23.3811 16.1638 23.3811C16.1638 23.3463 16.1989 23.3116 16.1989 23.3116C16.1989 23.3116 16.1989 23.3116 16.1989 23.2769V23.3116V23.2769V23.3116V23.2769V23.3116C16.1989 23.3116 16.1989 23.2769 16.234 23.2769C16.234 23.2769 16.234 23.2769 16.1989 23.3116L16.234 23.2769V23.2421V23.2074C16.234 23.2074 16.234 23.1726 16.1989 23.1726C16.1638 23.1379 16.1638 23.1379 16.1287 23.1379C16.0936 23.0336 16.0585 23.0336 16.0233 23.0684Z" fill="#FFB164"/>
<path d="M16.4798 23.7286C16.4447 23.7633 16.4096 23.7633 16.3745 23.7981L16.3394 23.8328V23.8676V23.9023C16.3394 23.9023 16.3394 23.9371 16.3745 23.9371C16.4096 23.9718 16.4096 23.9718 16.4447 23.9718H16.4798C16.5149 23.9718 16.5149 23.9718 16.5501 23.9371C16.5852 23.9023 16.6203 23.9023 16.6554 23.8676L16.6905 23.8328V23.7981V23.7633C16.6905 23.7633 16.6905 23.7286 16.6554 23.7286C16.6203 23.6938 16.6203 23.6938 16.5852 23.6938H16.5501C16.5149 23.6938 16.4798 23.6938 16.4798 23.7286Z" fill="#FFB164"/>
<path d="M17.0068 25.1878C17.0419 25.2225 17.1121 25.2225 17.1473 25.2573H17.1824H17.2175C17.2175 25.2573 17.2526 25.2573 17.2526 25.2225L17.2877 25.1878V25.153C17.2877 25.1183 17.2877 25.1183 17.2877 25.0836C17.2877 25.0836 17.2877 25.0836 17.2877 25.0488L17.2526 25.0141C17.2175 24.9793 17.1473 24.9793 17.1121 24.9446H17.077H17.0419C17.0419 24.9446 17.0068 24.9446 17.0068 24.9793L16.9717 25.0141V25.0488C16.9717 25.0836 16.9717 25.0836 16.9717 25.1183C16.9717 25.1183 16.9717 25.1183 16.9717 25.153L17.0068 25.1878Z" fill="#FFB164"/>
<path d="M17.3227 26.1955C17.3578 26.2649 17.4281 26.2997 17.4632 26.3692C17.4983 26.4039 17.4983 26.4039 17.5334 26.4039C17.5685 26.4039 17.6037 26.4039 17.6037 26.3692C17.6388 26.3344 17.6388 26.3344 17.6388 26.2997C17.6388 26.2649 17.6388 26.2302 17.6037 26.2302C17.5685 26.1607 17.4983 26.126 17.4632 26.0565C17.4281 26.0217 17.4281 26.0217 17.3929 26.0217C17.3578 26.0217 17.3227 26.0217 17.3227 26.0565C17.2876 26.0912 17.2876 26.0912 17.2876 26.126C17.2876 26.1607 17.3227 26.1955 17.3227 26.1955Z" fill="#FFB164"/>
<path d="M17.3927 27.0641C17.4278 27.1683 17.498 27.2726 17.5683 27.3768C17.5683 27.4116 17.6034 27.4116 17.6385 27.4116C17.6736 27.4116 17.7087 27.4116 17.7087 27.3768C17.7439 27.3421 17.7439 27.3421 17.7439 27.3073C17.7439 27.2726 17.7439 27.2378 17.7087 27.2378C17.7087 27.2031 17.6736 27.2031 17.6736 27.1683C17.6736 27.1683 17.6736 27.1683 17.6736 27.2031C17.6385 27.1336 17.5683 27.0641 17.5683 26.9599C17.5332 26.8904 17.4629 26.8904 17.4278 26.8904C17.3576 26.9251 17.3576 26.9946 17.3927 27.0641Z" fill="#FFB164"/>
<path d="M17.0771 27.6895C17.1123 27.7938 17.1474 27.898 17.1474 28.037C17.1474 28.0717 17.1825 28.1065 17.1825 28.1065C17.2176 28.1065 17.2527 28.1412 17.2527 28.1412C17.323 28.1412 17.3581 28.0717 17.3581 28.0022C17.323 27.898 17.2879 27.7938 17.2879 27.6548C17.2879 27.62 17.2527 27.5853 17.2527 27.5853C17.2176 27.5853 17.1825 27.5505 17.1825 27.5505C17.1123 27.5853 17.0771 27.62 17.0771 27.6895Z" fill="#FFB164"/>
<path d="M16.4799 27.4115C16.4448 27.481 16.4448 27.5505 16.4097 27.6547V27.6895V27.7242C16.4097 27.759 16.4448 27.759 16.4799 27.7937C16.515 27.7937 16.5501 27.7937 16.5853 27.7937C16.6204 27.7937 16.6204 27.759 16.6555 27.7242C16.6906 27.6547 16.6906 27.5853 16.7257 27.481V27.4463V27.4115C16.7257 27.3768 16.6906 27.3768 16.6555 27.342C16.6204 27.342 16.5853 27.342 16.5501 27.342C16.515 27.342 16.515 27.3768 16.4799 27.4115Z" fill="#FFB164"/>
<path d="M15.8128 26.786L15.7777 26.8207C15.7777 26.8207 15.7777 26.8207 15.8128 26.786C15.7777 26.8207 15.7777 26.8207 15.7426 26.8555C15.7426 26.8555 15.7426 26.8555 15.7777 26.8555C15.7777 26.8555 15.7777 26.8555 15.7426 26.8555C15.7426 26.8555 15.7075 26.8555 15.7075 26.8902L15.6724 26.9249V26.9597V26.9944C15.6724 27.0292 15.7075 27.0292 15.7426 27.0639C15.7777 27.0639 15.8128 27.0639 15.8479 27.0639C15.8831 27.0639 15.9182 27.0292 15.9182 26.9944C15.9533 26.9597 15.9533 26.9597 15.9884 26.9249C15.9884 26.8902 16.0235 26.8555 16.0235 26.8555C16.0235 26.8555 16.0235 26.8207 15.9884 26.8207L15.9533 26.786C15.9182 26.786 15.8831 26.7512 15.8831 26.7512H15.8479C15.8479 26.7512 15.8128 26.786 15.8128 26.786Z" fill="#FFB164"/>
<path d="M15.1102 25.7438C15.075 25.7785 15.075 25.7785 15.0399 25.7785C15.075 25.7785 15.075 25.7785 15.1102 25.7438C15.0399 25.7785 15.0048 25.8133 15.0048 25.8133C15.0048 25.8133 14.9697 25.8133 14.9697 25.848L14.9346 25.8828C14.9346 25.9175 14.9346 25.9522 14.9346 25.987C14.9346 26.0217 14.9697 26.0217 15.0048 26.0565H15.0399C15.075 26.0565 15.075 26.0565 15.1102 26.0565C15.1453 26.0565 15.1804 26.0217 15.1804 26.0217C15.2155 25.987 15.2506 25.987 15.2857 25.9522C15.3209 25.9175 15.3209 25.9175 15.3209 25.8828V25.848C15.3209 25.848 15.3209 25.8133 15.2857 25.8133C15.2506 25.7785 15.2506 25.7785 15.2155 25.7785C15.1804 25.709 15.1453 25.709 15.1102 25.7438Z" fill="#FFB164"/>
<path d="M14.759 24.9098H14.7239H14.759C14.7239 24.9098 14.7239 24.9098 14.6888 24.9098C14.7239 24.9098 14.7239 24.9098 14.759 24.9098C14.7239 24.9098 14.6888 24.9098 14.6888 24.9098H14.7239H14.6888H14.6537H14.6186C14.5835 24.9098 14.5835 24.9446 14.5483 24.9793C14.5483 25.0141 14.5483 25.0488 14.5483 25.0836C14.5483 25.0836 14.5483 25.0836 14.5483 25.1183L14.5835 25.1531C14.6186 25.1531 14.6186 25.1531 14.6537 25.1878H14.6888C14.7239 25.1878 14.7239 25.1878 14.759 25.1878C14.7942 25.1878 14.7942 25.1878 14.8293 25.1531C14.8644 25.1531 14.8644 25.1183 14.8995 25.0836C14.8995 25.0488 14.8995 25.0141 14.8995 24.9793C14.8995 24.9446 14.8644 24.9446 14.8293 24.9098C14.8293 24.8751 14.7942 24.8751 14.759 24.9098Z" fill="#FFB164"/>
<path d="M14.689 23.8675C14.6539 23.8675 14.6187 23.8327 14.5836 23.8327H14.6187C14.5485 23.798 14.5134 23.7633 14.4783 23.7285C14.4432 23.7285 14.408 23.7285 14.3729 23.7285C14.3378 23.7285 14.3027 23.7633 14.3027 23.7633C14.3027 23.798 14.2676 23.8327 14.2676 23.8327V23.8675C14.2676 23.9022 14.3027 23.9022 14.3027 23.9022C14.3729 23.9717 14.4783 24.0412 14.5836 24.076C14.6187 24.076 14.6539 24.076 14.689 24.076C14.7241 24.076 14.7241 24.0412 14.7592 24.0065C14.7592 23.9717 14.7592 23.937 14.7592 23.9022C14.7592 23.9022 14.7241 23.9022 14.689 23.8675Z" fill="#FFB164"/>
<path d="M14.2324 22.9642C14.2675 22.9642 14.3026 22.9989 14.3377 22.9989H14.3728H14.408C14.408 22.9989 14.4431 22.9989 14.4431 22.9642L14.4782 22.9294V22.8947C14.4782 22.8599 14.4782 22.8599 14.4782 22.8252C14.4782 22.8252 14.4782 22.8252 14.4782 22.7904L14.4431 22.7557C14.408 22.7557 14.3728 22.7209 14.3377 22.7209H14.3026H14.2675C14.2675 22.7209 14.2324 22.7209 14.2324 22.7557L14.1973 22.7904V22.8252C14.1973 22.8599 14.1973 22.8599 14.1973 22.8947C14.1973 22.8947 14.1973 22.8947 14.1973 22.9294C14.1973 22.9642 14.1973 22.9642 14.2324 22.9642Z" fill="#FFB164"/>
<path opacity="0.24" d="M12.582 23.8675C12.5469 24.1455 12.5118 24.4582 12.6171 24.7014C12.6522 24.8056 12.7576 24.9099 12.8278 24.8751C12.898 24.8404 12.9332 24.7362 12.9332 24.6667C12.9683 24.4929 12.9683 24.2845 13.0736 24.1455C13.2141 23.8675 13.6355 23.3116 13.2843 22.9989C12.898 22.6862 12.6171 23.6591 12.582 23.8675Z" fill="white"/>
<path d="M16.4449 25.0837C16.9014 24.8057 17.6037 24.9099 17.9198 25.3269C18.3061 24.771 19.184 24.6667 19.7459 25.0142C20.3429 25.3616 20.6589 26.0565 20.6589 26.7167C21.6071 26.404 22.6255 27.0989 23.1874 27.9327C23.2927 28.0717 23.3629 28.2107 23.5034 28.3149C23.679 28.4192 23.8897 28.4539 24.1004 28.4539C25.786 28.6624 27.2609 30.0522 27.577 31.7199C27.6823 32.2411 27.6472 32.797 27.3663 33.214C27.1205 33.5614 26.7342 33.7699 26.383 33.9436C25.9616 34.1521 25.5402 34.3953 25.0486 34.43C23.679 34.5343 22.766 33.0402 21.5369 32.4843C20.5185 32.0326 19.3245 32.2064 18.3061 31.7547C17.4984 31.4072 16.7258 30.7123 16.0235 30.1912C15.4265 29.7395 15.0402 29.2878 14.8295 28.5929C14.5486 27.7243 14.689 26.0565 16.0586 26.4735C15.8479 25.987 15.9884 25.3616 16.4449 25.0837Z" fill="#89E269"/>
<path d="M49.1386 24.2156H48.2957C48.1553 27.3079 41.5884 29.0104 29.5784 29.0104C17.9546 29.0104 11.0717 26.7867 10.861 24.2156H10.0182C10.0182 24.2156 9.70211 28.1765 11.9496 32.9713C15.3208 40.1635 19.9914 41.4838 19.9914 41.4838L29.5081 41.6575L39.0248 41.4838C39.0248 41.4838 43.6603 40.1982 47.0315 33.006C49.2439 28.1765 49.1386 24.2156 49.1386 24.2156Z" fill="#EDCEB9"/>
<path d="M39.1653 43.0473V41.3796L29.5783 40.1982L19.9914 41.4838V43.0473C19.9914 43.0473 19.9211 43.8117 22.8358 44.7846C26.8041 46.1396 33.3007 45.6879 36.391 44.7846C39.3057 43.9159 39.1653 43.0473 39.1653 43.0473Z" fill="#EDCEB9"/>
<path d="M36.3559 44.7844C39.3057 43.9158 39.2004 43.0472 39.2004 43.0472V41.3794L34.8108 40.8235C34.8108 40.8235 34.8108 40.8235 34.7756 40.8235C34.284 41.1362 33.7924 41.3794 33.7572 42.0048C33.7221 42.665 34.0733 43.4641 33.7924 44.0895C33.6168 44.4717 33.1603 44.6107 32.7389 44.7149C29.5081 45.4446 26.2071 44.9929 23.0465 44.2285C22.0633 43.9853 21.0449 43.7073 20.2372 43.1514C20.1669 43.1166 20.0967 43.0472 19.9914 43.0124C19.9914 43.0124 19.9211 43.7768 22.8358 44.7497C26.769 46.1394 33.2656 45.6878 36.3559 44.7844Z" fill="#EABFAC"/>
<path opacity="0.38" d="M14.724 30.3307C14.5133 30.8519 14.6889 31.4425 14.8996 31.9984C15.4615 33.4577 16.2341 34.8128 17.112 36.1331C17.7441 37.0712 18.5167 38.0441 19.6404 38.2525C20.0267 38.322 20.4481 38.2873 20.7993 38.1135C21.1504 37.9398 21.3963 37.5576 21.4314 37.1754C21.4314 36.7585 21.2207 36.411 21.01 36.0636C20.4832 35.2297 20.0618 34.3264 19.816 33.3882C19.6755 32.7628 19.6053 32.0679 19.2892 31.512C18.6922 30.4697 15.3561 28.6282 14.724 30.3307Z" fill="white"/>
<path opacity="0.38" d="M21.4663 42.1089C21.3609 42.1089 21.2907 42.1089 21.1854 42.1784C21.0098 42.2827 21.0098 42.5259 21.08 42.6996C21.1854 42.8733 21.3609 42.9776 21.5014 43.0471C22.2038 43.3945 22.9763 43.603 23.784 43.742C24.1001 43.8114 24.4161 43.8462 24.6971 43.7072C24.978 43.603 25.1887 43.2555 25.0482 42.9776C24.9078 42.7344 24.5566 42.6649 24.2757 42.6649C23.3626 42.5606 22.3793 42.0742 21.4663 42.1089Z" fill="white"/>
<path d="M49.1033 24.2156H48.2605C48.1902 25.9528 46.0832 27.2384 42.1501 28.0723C41.9394 29.4968 41.4829 31.1645 40.5698 32.9365C37.7956 38.1135 35.1969 39.5728 32.0364 40.6151C28.1033 41.9354 23.5029 41.6227 23.5029 41.6227C23.5029 41.6227 28.1384 42.6651 31.8257 42.6651C35.513 42.6651 38.9544 41.4838 38.9544 41.4838C38.9544 41.4838 43.5899 40.1982 46.9611 33.006C49.2086 28.1765 49.1033 24.2156 49.1033 24.2156Z" fill="#EABFAC"/>
<path d="M49.1394 23.9375H48.2966C48.2966 24.0417 48.2966 24.1112 48.2966 24.2155C48.1913 27.3425 41.6244 29.045 29.5792 29.045C17.9204 29.045 11.0374 26.7866 10.8619 24.2155C10.8619 24.1112 10.897 24.0417 10.897 23.9375H10.0542C10.0542 24.0417 10.019 24.146 10.019 24.2502C10.1946 27.0993 17.3936 29.6357 29.5792 29.6357C42.1863 29.6357 49.0341 27.7247 49.1394 24.2155C49.1394 24.1112 49.1394 24.007 49.1394 23.9375Z" fill="#FFDFCA"/>
<path d="M13.5301 20.7409L13.3545 22.0959C13.3545 22.0959 13.8812 24.1111 16.796 24.8408C20.0619 25.6399 22.5552 24.9103 22.7307 22.9298C22.7659 22.6171 22.4147 21.7137 22.4147 21.7137L13.495 20.6714L13.5301 20.7409Z" fill="#59B24F"/>
<path d="M22.4551 22.2958C22.6997 21.0527 20.9071 19.6614 18.4512 19.1883C15.9954 18.7153 13.8062 19.3396 13.5616 20.5828C13.317 21.8259 15.1095 23.2172 17.5654 23.6903C20.0213 24.1633 22.2104 23.539 22.4551 22.2958Z" fill="#84D17D"/>
<path d="M22.1689 22.0959C22.0987 23.0687 20.2374 23.7289 17.9548 23.3814C15.6722 23.034 13.7759 21.7137 13.811 20.7408C13.8813 19.768 15.9181 19.0383 18.2007 19.3858C20.4482 19.7332 22.204 21.123 22.1689 22.0959Z" fill="#B0EDA9"/>
<path d="M15.4613 20.741C15.391 20.6715 15.3208 20.602 15.3208 20.4978C15.3208 20.324 15.5315 20.2893 15.672 20.2893C15.988 20.324 16.3392 20.3935 16.6201 20.5325C16.5148 20.3935 16.4445 20.2545 16.4094 20.1156C16.4094 20.0808 16.3743 20.0461 16.4094 20.0113C16.4445 19.9418 16.5499 19.9766 16.6201 20.0113C16.9713 20.1851 17.2874 20.4283 17.5683 20.7062C17.4629 20.5672 17.4278 20.3935 17.4278 20.2545C17.4278 20.0808 17.4981 19.9418 17.6385 19.8724C17.8141 19.8029 18.0599 19.9071 18.2004 20.0808C18.3409 20.2545 18.376 20.463 18.4111 20.6715C18.692 20.463 19.0783 20.3935 19.4295 20.4978C19.4997 20.5325 19.6051 20.5672 19.6402 20.6367C19.7104 20.7757 19.57 20.88 19.4646 20.9494C19.886 20.88 20.3777 21.0537 20.6937 21.4011C20.7288 21.4359 20.7639 21.5054 20.7639 21.5401C20.7639 21.5748 20.7288 21.6096 20.7288 21.6096C20.5532 21.7833 20.3425 21.8528 20.0967 21.8876C19.8509 21.9223 19.6051 21.8528 19.3593 21.8181C19.6051 21.9223 19.8158 22.0613 20.0265 22.235C20.0616 22.2697 20.0616 22.2697 20.0967 22.3045C20.0967 22.3392 20.0967 22.3392 20.0616 22.374C19.886 22.6172 19.5348 22.6519 19.2539 22.513C18.973 22.4087 18.7272 22.1655 18.5165 21.957C18.6218 22.1308 18.692 22.3045 18.6569 22.513C18.6218 22.6867 18.4111 22.8257 18.2355 22.7562C18.1653 22.7214 18.095 22.6519 18.0248 22.5824C17.8492 22.374 17.7439 22.1308 17.6736 21.8876C17.6385 22.2003 17.3576 22.4435 17.0415 22.4087C16.9713 22.4087 16.866 22.374 16.8308 22.3045C16.7606 22.235 16.7606 22.096 16.8308 22.0265C16.866 21.957 16.9362 21.8876 17.0415 21.8181C16.7957 21.9223 16.5148 22.0265 16.3041 21.8528C16.2338 21.7833 16.1987 21.7138 16.2338 21.6443C16.269 21.6096 16.3041 21.5748 16.3392 21.5401C16.4445 21.4706 16.7606 21.4359 16.7957 21.3316C16.2338 21.2274 15.8476 21.0537 15.4613 20.741Z" fill="#C1FFB8"/>
<path d="M28.9464 25.466C29.5083 25.2228 30.2107 25.2228 30.7374 25.5007C30.8428 25.5702 31.0184 25.6397 31.0886 25.5355C31.1237 25.5007 31.1237 25.4312 31.1237 25.3617C31.0184 24.7016 30.4214 24.1804 29.719 24.1457C29.2274 24.1109 28.7357 24.3541 28.2792 24.5973C27.9632 24.7711 27.6471 24.9795 27.3662 25.188C26.9799 25.466 26.5936 25.7787 26.418 26.2304C26.2775 26.5431 26.2073 27.238 26.6638 27.3422C27.1204 27.4464 27.3311 26.7863 27.5769 26.5083C27.9632 26.0566 28.4197 25.6744 28.9464 25.466Z" fill="#0A0B0C"/>
<path d="M30.2458 24.0762C29.5083 23.972 28.7709 24.1805 28.1036 24.5279C27.4715 24.8754 26.9097 25.3618 26.3478 25.8482C25.7508 26.3694 25.7859 27.377 26.1371 28.0024C26.4531 28.5931 27.1204 28.9753 27.7876 29.0448C28.4548 29.1142 29.0869 28.8363 29.6839 28.5583C30.316 28.2456 30.9481 27.8982 31.3695 27.3423C31.826 26.7863 32.0367 26.0567 31.826 25.3965C31.6505 24.6669 30.9832 24.1805 30.2458 24.0762ZM30.4916 25.9872C30.316 26.3347 29.9648 26.6126 29.6137 26.8211C29.2625 27.0296 28.9113 27.1685 28.5602 27.3075C28.2441 27.4117 27.928 27.516 27.612 27.4812C27.2959 27.4465 26.9448 27.3075 26.8043 27.0296C26.1371 25.9525 27.8578 25.1186 28.5953 24.8059C29.0167 24.6322 29.4732 24.5627 29.8946 24.6669C30.0702 24.7016 30.2107 24.7711 30.3511 24.8754C30.6672 25.1533 30.7023 25.6398 30.4916 25.9872Z" fill="#36383F"/>
<path d="M20.2726 18.4479C20.8345 18.2047 21.5368 18.2047 22.0636 18.4826C22.1689 18.5521 22.3445 18.6216 22.4148 18.5174C22.4499 18.4826 22.4499 18.4132 22.4499 18.3437C22.3445 17.6835 21.7475 17.1623 21.0452 17.1276C20.5536 17.0929 20.0619 17.3361 19.6054 17.5793C19.2893 17.753 18.9733 17.9615 18.6923 18.1699C18.3061 18.4479 17.9198 18.7606 17.7442 19.2123C17.6037 19.525 17.5335 20.2199 17.99 20.3241C18.4465 20.4284 18.6572 19.7682 18.903 19.4902C19.2893 19.0386 19.7459 18.6564 20.2726 18.4479Z" fill="#0A0B0C"/>
<path d="M21.5719 17.0233C20.8345 16.919 20.097 17.1275 19.4298 17.4749C18.7977 17.8224 18.2358 18.3088 17.674 18.7952C17.077 19.3164 17.1121 20.324 17.4633 20.9494C17.7793 21.5401 18.4465 21.9223 19.1138 21.9918C19.781 22.0613 20.4131 21.7833 21.0101 21.5053C21.6422 21.1926 22.2743 20.8452 22.6957 20.2893C23.1522 19.7334 23.3629 19.0037 23.1522 18.3436C22.9766 17.6139 22.3094 17.1275 21.5719 17.0233ZM21.8178 18.969C21.6422 19.3164 21.291 19.5596 20.9398 19.7681C20.5887 19.9766 20.2375 20.1156 19.8863 20.2545C19.5703 20.3588 19.2542 20.463 18.9382 20.4283C18.6221 20.3935 18.2709 20.2545 18.1305 19.9766C17.4633 18.8995 19.184 18.0656 19.9214 17.7529C20.3428 17.5792 20.7994 17.5097 21.2208 17.6139C21.3964 17.6487 21.5368 17.7182 21.6773 17.8224C21.9933 18.1004 22.0285 18.5868 21.8178 18.969Z" fill="#36383F"/>
<path d="M45.241 20.6013C45.6976 21.0182 46.0136 21.6089 46.0136 22.1996C46.0136 22.3385 46.0136 22.5123 46.1541 22.547C46.2243 22.547 46.2945 22.5123 46.3297 22.4775C46.8915 22.0953 47.1022 21.2962 46.8213 20.7055C46.6106 20.2539 46.1892 19.9064 45.7678 19.6285C45.4517 19.42 45.1357 19.2463 44.8196 19.0725C44.3982 18.8641 43.9417 18.6556 43.4501 18.6903C43.0989 18.7251 42.4317 18.9683 42.537 19.42C42.6424 19.8717 43.3447 19.7674 43.6959 19.8717C44.2929 19.9759 44.8196 20.2191 45.241 20.6013Z" fill="#0A0B0C"/>
<path d="M47.102 21.1227C46.8913 20.4278 46.3646 19.8371 45.7676 19.4202C45.1706 19.0033 44.4683 18.7253 43.801 18.4473C43.0987 18.1694 42.1505 18.6211 41.7643 19.2117C41.378 19.7676 41.3077 20.4973 41.5536 21.1227C41.7994 21.7481 42.3261 22.1998 42.8529 22.6167C43.4148 23.0337 44.0117 23.4159 44.7141 23.5896C45.3813 23.7286 46.189 23.6243 46.6806 23.1726C47.1723 22.6515 47.3128 21.8523 47.102 21.1227ZM45.4515 22.1998C45.0301 22.1998 44.6439 21.9913 44.3278 21.7828C44.0117 21.5744 43.6957 21.3312 43.4148 21.0532C43.1689 20.8447 42.9582 20.6015 42.8529 20.2888C42.7475 19.9761 42.7124 19.6287 42.888 19.3507C43.5903 18.3084 45.1004 19.4202 45.6974 19.9761C46.0485 20.2888 46.2944 20.6363 46.3997 21.0879C46.4348 21.2617 46.4348 21.4354 46.3997 21.5744C46.2944 21.9913 45.873 22.2345 45.4515 22.1998Z" fill="#36383F"/>
<path d="M31.7207 23.1034C31.7207 23.1034 33.1956 26.7169 37.4448 25.6745C41.694 24.6322 43.4147 22.0263 43.801 21.5746C44.6087 20.6018 44.5736 19.1772 44.5736 19.1772L31.7207 23.1034Z" fill="#FFECD7"/>
<path d="M33.6522 22.5128C33.617 22.5128 34.7408 24.9797 36.7425 24.5975C40.7107 23.8332 40.0786 20.5671 40.0786 20.5671L33.6522 22.5128Z" fill="#FFDC31"/>
<path opacity="0.52" d="M42.5368 21.0186C42.291 21.8525 41.4482 22.3389 40.8512 22.9296C40.7459 23.0338 40.6054 23.2075 40.6756 23.3465C40.7108 23.4508 40.8512 23.5202 40.9917 23.4855C41.097 23.4855 41.2024 23.416 41.3078 23.3465C41.7994 22.9991 42.2208 22.5821 42.6071 22.1305C43.0285 21.644 43.485 21.1229 43.5552 20.4627C43.5552 20.3932 43.5552 20.3237 43.5552 20.2542C43.4499 19.9763 43.0636 20.1153 42.888 20.2542C42.6773 20.4627 42.6071 20.7407 42.5368 21.0186Z" fill="white"/>
</g>
<defs>
<linearGradient id="paint0_linear_4_11940" x1="60" y1="60" x2="-19.9676" y2="53.812" gradientUnits="userSpaceOnUse">
<stop stop-color="#92A3FD"/>
<stop offset="1" stop-color="#9DCEFF"/>
</linearGradient>
<clipPath id="clip0_4_11940">
<rect width="42" height="32" fill="white" transform="translate(9 14)"/>
</clipPath>
</defs>
</svg>
