<svg width="16" height="16" viewBox="0 0 16 16" fill="none" xmlns="http://www.w3.org/2000/svg">
<path fill-rule="evenodd" clip-rule="evenodd" d="M10.5664 1.6671C10.987 1.6671 11.407 1.72643 11.8064 1.86043C14.267 2.66043 15.1537 5.36043 14.413 7.72043C13.993 8.92643 13.3064 10.0271 12.407 10.9264C11.1197 12.1731 9.70702 13.2798 8.18635 14.2331L8.01969 14.3338L7.84635 14.2264C6.32035 13.2798 4.89969 12.1731 3.60035 10.9198C2.70702 10.0204 2.01969 8.92643 1.59302 7.72043C0.839685 5.36043 1.72635 2.66043 4.21369 1.84643C4.40702 1.77977 4.60635 1.7331 4.80635 1.7071H4.88635C5.07369 1.67977 5.25969 1.6671 5.44635 1.6671H5.51969C5.93969 1.67977 6.34635 1.7531 6.74035 1.8871H6.77969C6.80635 1.89977 6.82635 1.91377 6.83969 1.92643C6.98702 1.97377 7.12635 2.0271 7.25969 2.10043L7.51302 2.21377C7.57423 2.24641 7.64294 2.2963 7.70233 2.33941C7.73995 2.36673 7.77383 2.39133 7.79969 2.4071C7.81057 2.41352 7.82162 2.41997 7.83277 2.42648C7.88993 2.45985 7.94948 2.49461 7.99969 2.5331C8.74035 1.9671 9.63969 1.66043 10.5664 1.6671ZM12.3397 6.4671C12.613 6.45976 12.8464 6.24043 12.8664 5.95976V5.88043C12.8864 4.94643 12.3204 4.10043 11.4597 3.77376C11.1864 3.67976 10.8864 3.8271 10.7864 4.1071C10.693 4.3871 10.8397 4.69376 11.1197 4.7931C11.547 4.9531 11.833 5.37376 11.833 5.83976V5.86043C11.8204 6.0131 11.8664 6.16043 11.9597 6.27376C12.053 6.3871 12.193 6.4531 12.3397 6.4671Z" fill="#91C788"/>
</svg>
