<svg width="41" height="46" viewBox="0 0 41 46" fill="none" xmlns="http://www.w3.org/2000/svg">
<g clip-path="url(#clip0_263_1811)">
<path d="M5.40066 25.9366C4.71444 28.7434 3.67101 31.5107 3.73973 34.4029C3.77589 35.8362 4.127 37.3328 5.11278 38.3821C6.18154 39.5193 7.84693 39.9506 9.40597 39.871C12.5306 39.7148 15.3237 37.7631 18.4486 37.5447C20.6375 37.3894 22.7904 38.0977 24.9175 38.6699C27.0447 39.2421 29.324 39.6685 31.4007 38.9801C32.28 38.7298 33.0374 38.1765 33.5371 37.4191C34.2386 36.2154 33.8991 34.6928 33.5435 33.3382L29.9921 19.8526C29.7861 19.0711 29.5248 18.2104 28.8352 17.7766C28.08 17.3134 27.1129 17.5339 26.256 17.7375C22.5075 18.6316 18.6374 18.9522 14.7794 18.6884C12.8195 18.5246 10.8709 18.2374 8.94536 17.8283C7.45937 17.5514 6.62197 17.8611 6.36689 19.4246C5.99327 21.6046 5.92132 23.772 5.40066 25.9366Z" fill="#9F4A4A"/>
<g style="mix-blend-mode:multiply">
<path d="M26.8461 17.609C26.6456 17.6514 26.4435 17.6971 26.2572 17.7342C22.5087 18.6283 18.6387 18.9489 14.7807 18.6851C12.8208 18.5213 10.8721 18.2341 8.94658 17.8251C7.46059 17.5481 6.62319 17.8578 6.36811 19.4214C6.17186 20.6336 6.0719 21.8424 5.9267 23.0464C6.51376 23.3961 7.13001 23.6945 7.7684 23.9384C9.0779 24.4031 10.4458 24.6808 11.8306 24.7631C14.7501 24.9587 17.6958 24.4886 20.6478 24.3212C23.5999 24.1537 26.6872 24.3272 29.3156 25.7003C30.3555 26.2442 31.2944 26.9615 32.0905 27.8205L29.9846 19.8688C29.8714 19.361 29.6839 18.8717 29.4282 18.4163C29.1252 18.2999 28.8226 18.1915 28.5171 18.0896C27.9724 17.896 27.4104 17.7413 26.8461 17.609Z" fill="#E8E8E8"/>
</g>
<g style="mix-blend-mode:multiply">
<g style="mix-blend-mode:multiply">
<path d="M16.5209 19.1342C16.4694 19.1316 16.4179 19.1392 16.3696 19.1566C16.3213 19.174 16.2771 19.2008 16.2395 19.2354C16.2019 19.27 16.1718 19.3118 16.1508 19.3583C16.1298 19.4047 16.1185 19.455 16.1174 19.5061C15.9147 25.6441 15.8895 31.8617 16.0459 38.0089C16.3058 37.9308 16.5658 37.8527 16.8222 37.8002C16.6758 31.7276 16.6986 25.5946 16.9003 19.5379C16.9025 19.4353 16.8641 19.3355 16.7931 19.26C16.7221 19.1845 16.6244 19.1393 16.5209 19.1342Z" fill="#E8E8E8"/>
</g>
<g style="mix-blend-mode:multiply">
<path d="M25.5387 18.183C25.5114 18.125 25.4702 18.0744 25.4188 18.0358C25.3673 17.9971 25.3071 17.9714 25.2436 17.9611L24.9507 18.0245C24.8749 18.0762 24.8202 18.1531 24.7964 18.2415C24.7727 18.3299 24.7814 18.4241 24.821 18.5074C26.9777 23.0048 28.622 27.7222 29.7233 32.5715C30.041 33.9753 30.3326 35.4725 30.108 36.9329C29.9826 37.8148 29.6188 38.6443 29.0552 39.3339C29.393 39.3343 29.7303 39.3139 30.0652 39.2729C30.4862 38.5983 30.7637 37.8446 30.8809 37.0575C31.1297 35.4639 30.8086 33.8212 30.4872 32.4079C29.3763 27.5036 27.7164 22.7323 25.5387 18.183V18.183Z" fill="#E8E8E8"/>
</g>
<g style="mix-blend-mode:multiply">
<path d="M20.5407 34.8581C19.8304 29.9449 19.4996 24.9889 19.5511 20.0334C19.5544 19.9809 19.5469 19.9282 19.529 19.8784C19.5111 19.8286 19.4832 19.7829 19.447 19.744C19.4108 19.705 19.3671 19.6737 19.3185 19.652C19.2699 19.6302 19.2174 19.6184 19.1642 19.6173C19.1111 19.6163 19.0584 19.6259 19.0094 19.6457C18.9603 19.6655 18.916 19.695 18.879 19.7324C18.842 19.7699 18.8132 19.8145 18.7942 19.8635C18.7753 19.9125 18.7667 19.9649 18.7689 20.0175C18.7161 25.0129 19.0489 30.0088 19.7642 34.9616C19.8828 35.851 20.0612 36.7322 20.2983 37.5992C20.5862 37.6348 20.8712 37.6769 21.1566 37.727C20.871 36.7886 20.665 35.829 20.5407 34.8581Z" fill="#E8E8E8"/>
</g>
<g style="mix-blend-mode:multiply">
<path d="M24.9137 38.6682L25.5762 38.8368C25.9542 35.9261 25.9357 32.9743 25.5212 30.0605C25.009 26.3246 23.8482 22.6982 22.0905 19.3425C22.0671 19.2968 22.0348 19.2561 21.9955 19.2227C21.9562 19.1894 21.9107 19.164 21.8616 19.1482C21.8125 19.1323 21.7608 19.1263 21.7096 19.1304C21.6583 19.1345 21.6085 19.1487 21.563 19.1722C21.4707 19.2192 21.4012 19.3007 21.3697 19.3989C21.3383 19.4971 21.3474 19.604 21.3951 19.6964C24.4289 25.5444 25.619 32.1462 24.8093 38.637L24.9137 38.6682Z" fill="#E8E8E8"/>
</g>
<g style="mix-blend-mode:multiply">
<path d="M11.4688 34.3101C12.1107 29.5937 12.2571 24.819 11.9055 20.0627C11.892 19.9656 11.842 19.8769 11.7656 19.8142C11.6892 19.7515 11.592 19.7194 11.4935 19.7245C11.395 19.7295 11.3024 19.7712 11.2343 19.8413C11.1661 19.9114 11.1275 20.0047 11.126 20.1025C11.4744 24.8084 11.3283 29.5324 10.6901 34.1984C10.6477 34.522 10.5986 34.8426 10.5529 35.1647C10.292 36.696 10.1498 38.2461 10.1275 39.8014C10.3927 39.7645 10.6509 39.7168 10.912 39.6626C10.9449 38.1936 11.0842 36.7299 11.3287 35.2828L11.4688 34.3101Z" fill="#E8E8E8"/>
</g>
<g style="mix-blend-mode:multiply">
<path d="M8.75499 17.7938C8.49076 17.7456 8.22252 17.7245 7.95449 17.7307L7.96081 17.7958C8.52714 20.8199 8.47918 23.9194 7.81975 26.9124C7.39343 28.6628 6.86686 30.3868 6.24258 32.076C5.56235 33.8995 5.00466 35.7667 4.57315 37.6654C4.72631 37.9239 4.90823 38.1648 5.11546 38.3835C5.14945 38.4221 5.18636 38.4542 5.22181 38.4896C5.63584 36.3913 6.22499 34.3325 6.98323 32.3341C7.61847 30.6171 8.15389 28.8646 8.58688 27.0851C9.25728 24.0351 9.3144 20.878 8.75499 17.7938V17.7938Z" fill="#E8E8E8"/>
</g>
</g>
<path d="M9.99835 13.1732C11.2548 12.8752 12.537 12.6905 13.8293 12.6212L21.5791 11.981C23.8964 11.7858 26.368 11.6249 28.4166 12.742C29.2452 13.1913 30.0281 13.9978 29.9258 14.9213C29.881 15.1886 29.7808 15.4431 29.6313 15.6689C29.4818 15.8947 29.2864 16.0869 29.0573 16.2332C28.5991 16.5247 28.095 16.7393 27.565 16.8683C24.4036 17.7963 21.0977 18.1701 17.7953 17.9732C14.4924 17.7863 11.2409 17.0382 8.18266 15.7616C7.85407 15.6143 7.16649 15.4578 6.91758 15.1944C6.6032 14.8393 7.21987 14.5202 7.48072 14.3257C8.24256 13.7955 9.09513 13.4052 9.99835 13.1732V13.1732Z" fill="#873C3C"/>
<path d="M15.3653 2.34738C15.563 1.65505 15.9048 1.01271 16.3687 0.461448C16.8749 -0.0512929 17.6992 -0.331839 18.3532 -0.00358723C18.6038 0.14467 18.8134 0.35266 18.9626 0.601225C19.1119 0.84979 19.196 1.13094 19.2072 1.41878C19.2261 1.99392 19.1367 2.56643 18.9436 3.10697C18.3749 5.00206 17.6452 6.84454 16.7622 8.61474C16.6039 9.00075 16.3511 9.34085 16.0264 9.60456C14.8499 10.4241 12.9999 9.39217 13.3195 8.0016C13.7513 6.09683 14.6988 4.18585 15.3653 2.34738Z" fill="#EBAD16"/>
<path d="M10.0714 10.9596C10.8054 9.56015 12.0694 8.35167 13.6412 8.06758C15.213 7.78348 17.0365 8.6984 17.4253 10.2431C17.6616 11.186 17.3558 12.1584 17.0529 13.0893C16.6727 14.2542 16.2939 15.4158 15.9105 16.5791C15.6231 17.4664 15.2331 18.4595 14.3516 18.7883C13.3279 19.1703 12.2238 18.4377 11.4486 17.658C10.7298 16.9464 9.05162 16.1122 8.8911 15.1059C8.69558 13.9049 9.53043 11.9901 10.0714 10.9596Z" fill="#EBAD16"/>
<path d="M10.9903 11.5236C11.5415 10.4705 12.4916 9.55726 13.6746 9.34802C14.8577 9.13877 16.2248 9.8218 16.5198 10.9857C16.6951 11.695 16.4666 12.4335 16.2391 13.1257L15.3819 15.7506C15.1569 16.4284 14.8704 17.1642 14.2069 17.4117C13.4392 17.6982 12.609 17.1468 12.0264 16.5625C11.4811 16.0183 10.2232 15.3998 10.1018 14.6407C9.95428 13.7375 10.5835 12.2989 10.9903 11.5236Z" fill="#D88121"/>
<path d="M10.2456 14.4522C12.2358 13.4343 14.2259 12.4138 16.2159 11.3907C17.8421 10.5626 19.5599 9.69774 21.4001 9.74809C24.1658 9.82022 26.4423 11.8726 28.4267 13.8018C28.9734 14.3428 29.5819 14.966 29.6267 15.7374C29.699 16.9845 28.3482 17.7881 27.1651 18.1998C23.4356 19.4878 19.4375 19.8578 15.513 19.2782C13.5558 19.0025 11.6388 18.4844 9.80718 17.736C9.16756 17.4726 7.91335 17.066 8.01135 16.1873C8.09968 15.4093 9.65296 14.7704 10.2456 14.4522Z" fill="white"/>
<path d="M5.07239 20.5687C5.91985 21.5832 7.39036 21.7715 8.71079 21.8808C12.6611 22.2154 16.617 22.5642 20.5806 22.3676C23.9582 22.265 27.2921 21.628 30.4562 20.4809C30.9473 20.291 31.3604 19.9461 31.6321 19.4991C31.9038 19.052 32.0192 18.5275 31.9605 18.0059C31.8752 17.1809 31.732 16.3622 31.5318 15.5557C31.4561 15.1249 31.2755 14.7179 31.0058 14.37C30.7812 14.1504 30.5084 13.9855 30.2092 13.8886C29.91 13.7916 29.5927 13.7652 29.2829 13.8116C28.6613 13.9048 28.0547 14.0749 27.4773 14.3179C23.4123 15.7616 18.9782 15.6344 14.7143 15.163C12.6162 14.9308 10.5265 14.5039 8.42166 14.331C7.12714 14.2255 6.06965 14.4716 5.35156 15.5978C4.6786 16.6587 3.66436 19.6337 5.07239 20.5687Z" fill="#B15352"/>
</g>
<defs>
<clipPath id="clip0_263_1811">
<rect width="41" height="46" fill="white"/>
</clipPath>
</defs>
</svg>
