<svg width="40" height="43" viewBox="0 0 40 43" fill="none" xmlns="http://www.w3.org/2000/svg">
<path d="M6.77694 14.7419C15.4381 12.6487 24.5047 12.9157 33.0267 15.5151C34.0378 15.8278 35.2058 16.3186 35.4411 17.348C35.5077 17.7658 35.4504 18.1939 35.2762 18.5798C35.102 18.9656 34.8185 19.2923 34.4605 19.5197C33.7382 19.9647 32.9334 20.2601 32.094 20.3884C26.9731 21.5351 21.7911 22.6861 16.5612 22.5123C13.8836 22.4472 11.2343 21.9499 8.71636 21.0399C7.60065 20.6273 1.8957 18.221 2.80657 16.6965C3.48646 15.5107 5.56534 15.0373 6.77694 14.7419Z" fill="#D88121"/>
<path d="M37.0452 1.33787C37.2729 0.945204 37.5679 0.595336 37.9168 0.304133C38.0986 0.16088 38.3137 0.0655091 38.5422 0.0267991C38.7706 -0.0119109 39.0052 0.00728442 39.2243 0.0826179C39.4532 0.195462 39.6465 0.369162 39.7826 0.58454C39.9187 0.799919 39.9925 1.0486 39.9957 1.30312C39.9864 1.81028 39.8721 2.31005 39.6601 2.7712C38.3227 6.28832 36.2418 9.47759 33.5586 12.1226C32.822 12.848 31.1703 14.7287 31.2051 12.5961C31.2356 10.8587 32.5126 9.01272 33.3015 7.50989C34.4318 5.38399 35.6817 3.32337 37.0452 1.33787Z" fill="#AED5C2"/>
<path d="M26.4194 13.0738C26.8485 12.0678 27.5973 11.2301 28.5505 10.6893C29.2613 10.3662 30.0532 10.2643 30.8229 10.3968C31.5927 10.5293 32.3044 10.8901 32.8652 11.432C33.4085 11.9915 33.8055 12.6755 34.0214 13.4238C34.2372 14.172 34.2652 14.9617 34.103 15.7233C33.7516 17.2528 32.8251 18.5897 31.5142 19.4587C30.3069 20.2883 26.7506 21.9952 25.9312 19.9451C25.1119 17.895 25.4649 15.0371 26.4194 13.0738Z" fill="#AED5C2"/>
<path d="M27.3261 13.7471C27.6426 13.0128 28.1923 12.4024 28.8907 12.0097C29.4126 11.7719 29.9944 11.6969 30.5599 11.7946C31.1253 11.8923 31.6479 12.158 32.0591 12.557C32.4591 12.9667 32.7516 13.4684 32.9105 14.0177C33.0693 14.567 33.0898 15.1469 32.97 15.7059C32.7134 16.8312 32.0332 17.8153 31.0698 18.4553C30.1981 19.0634 27.5832 20.3143 26.9687 18.8115C26.3542 17.3087 26.6244 15.2021 27.3261 13.7471Z" fill="#8CB5A0"/>
<path d="M7.18215 13.4256C8.4504 11.5883 9.83197 9.65549 11.9021 8.80852C13.6454 8.10488 15.5761 8.26124 17.3935 8.64781C20.7483 9.38322 23.9031 10.835 26.6404 12.9032C29.3777 14.9713 31.6323 17.6065 33.2488 20.627C28.8157 23.8735 23.4095 25.5271 17.9122 25.3179C14.1457 25.1486 10.4706 24.1077 7.17779 22.2775C6.06644 21.6607 3.12026 20.2665 3.35561 18.9635C3.48636 18.173 4.75025 16.9394 5.22965 16.2705L7.18215 13.4256Z" fill="white"/>
<path d="M19.0105 20.7576C24.3322 20.7211 29.5691 19.426 34.2905 16.9788C34.4924 16.8741 34.7193 16.8266 34.9464 16.8417C35.1735 16.8567 35.392 16.9337 35.5782 17.0641C35.7644 17.1945 35.9111 17.3735 36.0022 17.5813C36.0933 17.7891 36.1253 18.0179 36.0948 18.2427L34.3515 31.0341C34.0988 32.8975 33.7545 34.9432 32.3424 36.1768C31.0785 37.2887 29.2916 37.4798 27.5963 37.6275C22.5639 38.0242 17.5302 38.2862 12.4949 38.4136C10.1502 38.4744 7.5919 38.4136 5.77015 36.9586C4.18375 35.6555 3.52565 33.5881 3.06804 31.5988C2.06462 27.2473 1.64402 22.7825 1.81722 18.3209C1.93489 15.3934 3.96584 17.3349 5.76579 18.095C7.71928 18.9192 9.74603 19.5591 11.8194 20.0061C14.1819 20.5164 16.5932 20.7683 19.0105 20.7576Z" fill="#F7A32D"/>
<path d="M2.01318 25.1052C2.1788 26.8426 2.44901 28.5279 2.77152 30.2131C13.3027 32.7889 24.3507 32.3371 34.6347 28.9101L35.3538 23.6545C24.6922 27.7286 12.9905 28.2377 2.01318 25.1052Z" fill="#FFB966"/>
<path d="M9.11298 30.4041C8.96364 30.4058 8.81546 30.3777 8.67716 30.3215C8.48983 30.2524 8.32751 30.129 8.21103 29.9673C8.09455 29.8055 8.02922 29.6128 8.02342 29.4138C8.02775 29.2932 8.05801 29.175 8.11214 29.0671C8.16628 28.9592 8.24303 28.8641 8.33721 28.7883C8.42001 28.7187 8.51742 28.6685 8.62227 28.6415C8.72712 28.6144 8.83673 28.6111 8.94301 28.6319C8.99046 28.6365 9.03643 28.6509 9.07792 28.6743C9.11942 28.6977 9.15551 28.7295 9.18387 28.7677C9.21222 28.8058 9.2322 28.8496 9.24251 28.8959C9.25282 28.9423 9.25322 28.9903 9.24369 29.0369C9.23417 29.0834 9.21493 29.1275 9.18722 29.1661C9.15951 29.2048 9.12395 29.2372 9.08286 29.2613C9.04176 29.2853 8.99604 29.3005 8.94868 29.3058C8.90131 29.3112 8.85335 29.3065 8.80791 29.2921C8.79359 29.2886 8.77864 29.2886 8.76432 29.2921C8.74724 29.3051 8.733 29.3214 8.72251 29.3401C8.71201 29.3588 8.70548 29.3794 8.70331 29.4007C8.71337 29.4623 8.73965 29.52 8.77948 29.5681C8.8193 29.6162 8.87122 29.6529 8.92994 29.6744C9.00114 29.6984 9.07651 29.7077 9.15144 29.7017C9.22637 29.6957 9.29929 29.6746 9.36576 29.6396C9.45384 29.5967 9.53193 29.5359 9.59498 29.4611C9.65804 29.3863 9.70466 29.2991 9.73185 29.2053C9.77125 29.0143 9.75053 28.8159 9.67252 28.6371C9.59452 28.4583 9.46304 28.3078 9.29603 28.2063C9.07105 28.0786 8.81063 28.0269 8.55372 28.059C8.29682 28.0911 8.05726 28.2053 7.87088 28.3844C7.75727 28.5102 7.65653 28.6469 7.57016 28.7926C7.49476 28.9139 7.4133 29.0313 7.3261 29.1445C6.97528 29.6015 6.4592 29.9039 5.88788 29.9871C5.59364 30.0288 5.29364 29.9988 5.01356 29.8997C4.73348 29.8006 4.48167 29.6354 4.27969 29.4181C4.06968 29.1863 3.93222 28.8983 3.88421 28.5896C3.83621 28.281 3.87975 27.9651 4.00948 27.6807C4.14811 27.3926 4.37991 27.1593 4.66762 27.0183C4.95534 26.8773 5.28227 26.8368 5.59588 26.9033C5.77359 26.9442 5.93881 27.0271 6.07762 27.145C6.21643 27.263 6.32475 27.4124 6.39344 27.5808C6.46717 27.7722 6.4737 27.9829 6.41197 28.1785C6.35024 28.3741 6.22389 28.5431 6.05349 28.658C5.95219 28.7185 5.83879 28.7561 5.7213 28.7681C5.60382 28.7801 5.48512 28.7662 5.37361 28.7275C5.26977 28.6935 5.17483 28.6368 5.09568 28.5617C5.01653 28.4866 4.95515 28.3949 4.91599 28.2932C4.89704 28.2508 4.887 28.2051 4.88651 28.1587C4.88602 28.1124 4.89507 28.0664 4.91312 28.0237C4.93116 27.9809 4.95782 27.9424 4.99143 27.9103C5.02503 27.8783 5.06488 27.8534 5.10851 27.8374C5.15214 27.8213 5.19861 27.8143 5.24505 27.8168C5.2915 27.8194 5.33692 27.8314 5.37852 27.8521C5.42012 27.8729 5.45701 27.9019 5.4869 27.9374C5.51679 27.9729 5.53905 28.0142 5.5523 28.0586C5.56272 28.0707 5.57629 28.0797 5.59152 28.0847C5.60734 28.0915 5.6244 28.095 5.64164 28.095C5.65888 28.095 5.67593 28.0915 5.69176 28.0847C5.72958 28.0532 5.75632 28.0105 5.76808 27.9629C5.77984 27.9152 5.776 27.8651 5.75713 27.8197C5.72897 27.7524 5.68427 27.6933 5.62715 27.6477C5.57002 27.6022 5.50232 27.5717 5.43026 27.5591C5.26898 27.5301 5.10261 27.5543 4.95634 27.628C4.81007 27.7016 4.69187 27.8208 4.61963 27.9674C4.54036 28.1371 4.51459 28.3267 4.54572 28.5112C4.57684 28.6958 4.6634 28.8666 4.79396 29.0011C4.92322 29.1357 5.08267 29.2377 5.2592 29.2989C5.43573 29.36 5.62431 29.3786 5.80943 29.353C6.20501 29.292 6.56132 29.0802 6.80311 28.7622C6.87284 28.671 6.93822 28.5668 7.00795 28.4625C7.11833 28.2794 7.24681 28.1077 7.39148 27.95C7.68513 27.659 8.06744 27.4733 8.4784 27.4222C8.88936 27.3712 9.30572 27.4575 9.66212 27.6677C9.95183 27.8443 10.179 28.1066 10.3118 28.4181C10.4446 28.7296 10.4765 29.0746 10.403 29.4051C10.3488 29.5872 10.2568 29.756 10.1329 29.9004C10.009 30.0448 9.85605 30.1617 9.68391 30.2434C9.50847 30.3398 9.31314 30.3948 9.11298 30.4041Z" fill="#D88121"/>
<path d="M13.946 30.9557C13.7622 30.9564 13.579 30.9331 13.4012 30.8862C13.1647 30.8258 12.9432 30.7175 12.7505 30.5681C12.5578 30.4186 12.398 30.2312 12.2812 30.0176C12.1563 29.7847 12.1032 29.5203 12.1288 29.2575C12.1544 28.9947 12.2575 28.7453 12.425 28.5408C12.6144 28.331 12.8762 28.2002 13.1582 28.1744C13.4402 28.1486 13.7215 28.2298 13.946 28.4018C14.0635 28.5061 14.1539 28.6373 14.2093 28.784C14.2647 28.9308 14.2836 29.0888 14.2642 29.2444C14.2566 29.3893 14.2128 29.53 14.1367 29.6537C14.0605 29.7774 13.9545 29.8801 13.8284 29.9524C13.7127 30.0136 13.5843 30.047 13.4534 30.05C13.3225 30.053 13.1927 30.0256 13.0744 29.9698C13.218 30.0941 13.3878 30.1847 13.5712 30.2347C13.8945 30.3067 14.2324 30.2734 14.5352 30.1397C14.838 30.006 15.0898 29.7789 15.2535 29.492C15.3198 29.3506 15.378 29.2056 15.4278 29.0577C15.5262 28.7184 15.704 28.4073 15.9465 28.1499C16.1246 27.9872 16.3407 27.8714 16.5751 27.813C16.8095 27.7546 17.0548 27.7554 17.2888 27.8154C17.7308 27.9326 18.114 28.2078 18.3653 28.5886C18.4898 28.7614 18.5788 28.957 18.6274 29.1642C18.6761 29.3714 18.6832 29.5861 18.6486 29.796C18.6071 30.0299 18.4967 30.2461 18.3313 30.4171C18.166 30.588 17.9532 30.706 17.7203 30.7559C17.5851 30.7781 17.4468 30.7722 17.3141 30.7385C17.1813 30.7049 17.057 30.6443 16.9489 30.5605C16.7602 30.4167 16.6364 30.2043 16.6046 29.9698C16.5928 29.8226 16.62 29.6749 16.6834 29.5415C16.7469 29.4081 16.8445 29.2937 16.9663 29.2097C17.0744 29.1266 17.2024 29.0729 17.3376 29.0539C17.4728 29.0348 17.6107 29.0511 17.7377 29.1011C17.8166 29.1392 17.8777 29.2062 17.9082 29.2881C17.9387 29.3701 17.9363 29.4606 17.9014 29.5407C17.8665 29.6209 17.8019 29.6846 17.721 29.7184C17.6402 29.7522 17.5493 29.7536 17.4675 29.7222C17.4489 29.7188 17.4298 29.7198 17.4116 29.7251C17.3934 29.7304 17.3768 29.7398 17.3629 29.7526C17.339 29.7686 17.3191 29.7898 17.3047 29.8146C17.2903 29.8395 17.2819 29.8673 17.2801 29.8959C17.2843 29.9266 17.295 29.9561 17.3115 29.9823C17.3281 30.0085 17.35 30.0309 17.376 30.048C17.4099 30.0752 17.449 30.0953 17.491 30.1073C17.5329 30.1192 17.5768 30.1227 17.62 30.1174C17.7191 30.0902 17.8078 30.0344 17.8752 29.9572C17.9427 29.8799 17.9858 29.7846 17.9992 29.6831C18.0348 29.4343 17.9706 29.1815 17.8205 28.9795C17.666 28.7373 17.4268 28.5609 17.1493 28.4843C17.0237 28.4532 16.8923 28.4536 16.7668 28.4854C16.6413 28.5173 16.5257 28.5796 16.4302 28.6667C16.2685 28.8565 16.1496 29.0787 16.0816 29.3183C16.0238 29.4881 15.9539 29.6536 15.8724 29.8134C15.6799 30.1554 15.4006 30.4409 15.0625 30.6414C14.7244 30.8419 14.3394 30.9503 13.946 30.9557ZM13.1223 28.8709C13.1683 28.9103 13.2028 28.9614 13.2219 29.0188C13.2411 29.0761 13.2444 29.1376 13.2313 29.1966C13.2313 29.2357 13.2618 29.2879 13.3054 29.3183C13.3311 29.3424 13.3629 29.3593 13.3974 29.3669C13.4319 29.3745 13.4679 29.3727 13.5015 29.3617C13.5309 29.3408 13.5552 29.3135 13.5726 29.2819C13.5899 29.2503 13.5999 29.2152 13.6017 29.1793C13.6077 29.1321 13.603 29.0842 13.5879 29.0391C13.5728 28.994 13.5478 28.9528 13.5146 28.9187C13.4562 28.8745 13.3869 28.8468 13.3141 28.8384C13.2413 28.83 13.1675 28.8412 13.1005 28.8709H13.1223Z" fill="#D88121"/>
<path d="M21.1505 30.6258C20.9123 30.6299 20.6764 30.5786 20.4616 30.4761C20.2468 30.3736 20.0588 30.2226 19.9127 30.0351C19.7377 29.7979 19.6485 29.5087 19.6596 29.2145C19.6707 28.9203 19.7814 28.6385 19.9737 28.415C20.0242 28.3569 20.0937 28.3185 20.1698 28.3064C20.3801 28.2737 20.5952 28.2926 20.7965 28.3614C20.9977 28.4303 21.1791 28.5471 21.3248 28.7017C21.3591 28.7331 21.3866 28.7713 21.4055 28.8138C21.4245 28.8563 21.4344 28.9022 21.4348 28.9486C21.4351 28.9951 21.4259 29.0412 21.4076 29.0839C21.3893 29.1267 21.3624 29.1652 21.3286 29.1972C21.2947 29.2292 21.2546 29.2538 21.2108 29.2697C21.1669 29.2855 21.1203 29.2922 21.0737 29.2893C21.0272 29.2865 20.9817 29.2741 20.9402 29.2529C20.8987 29.2318 20.8619 29.2023 20.8323 29.1664C20.7178 29.0477 20.5616 28.9777 20.3965 28.971C20.3496 29.0786 20.333 29.1968 20.3483 29.3131C20.3637 29.4294 20.4104 29.5394 20.4836 29.6312C20.5812 29.7508 20.7088 29.8424 20.8536 29.8966C20.9983 29.9508 21.1549 29.9656 21.3074 29.9396C21.6472 29.8729 21.9466 29.6745 22.1398 29.388C22.261 29.2025 22.3646 29.0062 22.4492 28.8016C22.5102 28.6626 22.58 28.5193 22.6541 28.3673C22.757 28.1448 22.9069 27.947 23.0934 27.7874C23.2799 27.6277 23.4987 27.51 23.7349 27.4421C23.94 27.4056 24.1504 27.4119 24.3529 27.4604C24.5555 27.509 24.7457 27.5989 24.9116 27.7244C25.1947 27.9457 25.4366 28.2147 25.6264 28.5193C25.7615 28.7147 26.1668 29.3141 25.914 29.8831C25.8061 30.0888 25.643 30.2606 25.443 30.3794C25.2429 30.4983 25.0137 30.5595 24.7809 30.5563C24.3946 30.5973 24.0064 30.4986 23.687 30.2784C23.5022 30.1509 23.3629 29.9681 23.2893 29.7565C23.2156 29.5449 23.2114 29.3154 23.2773 29.1013C23.3295 28.9764 23.4104 28.8655 23.5133 28.7773C23.6162 28.689 23.7383 28.626 23.87 28.5931C23.9866 28.5597 24.1095 28.5545 24.2285 28.5779C24.3475 28.6013 24.4592 28.6527 24.5542 28.7278C24.6236 28.7854 24.6672 28.8681 24.6753 28.9577C24.6835 29.0473 24.6556 29.1364 24.5978 29.2055C24.54 29.2747 24.4571 29.3181 24.3672 29.3262C24.2772 29.3344 24.1878 29.3066 24.1184 29.249C24.1054 29.2431 24.0913 29.2401 24.077 29.2401C24.0627 29.2401 24.0486 29.2431 24.0356 29.249C24.0079 29.2567 23.982 29.2699 23.9596 29.2878C23.9371 29.3057 23.9185 29.328 23.9049 29.3532C23.8891 29.4293 23.8964 29.5084 23.9259 29.5804C23.9554 29.6523 24.0057 29.7139 24.0705 29.7572C24.2595 29.8768 24.4849 29.926 24.7068 29.8961C24.9203 29.8961 25.1906 29.8049 25.269 29.6312C25.3474 29.4575 25.269 29.2446 25.038 28.9189C24.8929 28.6788 24.7054 28.4669 24.4845 28.2934C24.3969 28.2227 24.2955 28.1707 24.1867 28.1408C24.078 28.1109 23.9642 28.1037 23.8526 28.1197C23.7135 28.171 23.5862 28.2498 23.4784 28.3513C23.3705 28.4528 23.2843 28.5749 23.225 28.7104C23.1596 28.832 23.103 28.958 23.0376 29.0926C22.9357 29.3351 22.8117 29.5677 22.6671 29.7876C22.5192 30.0034 22.3298 30.1879 22.1099 30.3303C21.8899 30.4727 21.6438 30.5702 21.3858 30.6172C21.3076 30.6242 21.229 30.6271 21.1505 30.6258Z" fill="#D88121"/>
<path d="M29.1607 29.8395C29.003 29.8395 28.8461 29.8176 28.6944 29.7743C28.3238 29.6628 28.001 29.4315 27.7769 29.1169C27.5528 28.8024 27.4401 28.4224 27.4567 28.0369C27.4605 27.756 27.5692 27.4865 27.7617 27.2812C27.8854 27.1543 28.0491 27.0738 28.2254 27.0533C28.4016 27.0327 28.5796 27.0733 28.7293 27.1683C28.8073 27.2252 28.873 27.2973 28.9224 27.3801C28.9718 27.463 29.004 27.5549 29.0169 27.6504C29.032 27.7824 29.0205 27.9161 28.9831 28.0436C28.9456 28.1712 28.8831 28.29 28.799 28.3931C28.7412 28.462 28.6587 28.5056 28.5691 28.5145C28.4795 28.5234 28.3899 28.497 28.3196 28.4409C28.2508 28.3841 28.2072 28.3026 28.1982 28.214C28.1892 28.1254 28.2156 28.0368 28.2717 27.9675C28.2999 27.9342 28.3204 27.8952 28.3317 27.8531C28.343 27.8111 28.3448 27.7671 28.337 27.7242C28.3186 27.7238 28.3002 27.727 28.283 27.7337C28.2658 27.7405 28.2501 27.7505 28.2368 27.7633C28.1687 27.8498 28.1332 27.9574 28.1366 28.0674C28.1164 28.3022 28.1773 28.5368 28.3093 28.7324C28.4412 28.928 28.6363 29.0728 28.8622 29.1428C29.088 29.2127 29.3311 29.2036 29.551 29.1171C29.771 29.0305 29.9547 28.8716 30.0716 28.6667C30.1838 28.4287 30.2602 28.1755 30.2982 27.9153C30.3475 27.5237 30.4846 27.1481 30.6992 26.8164C30.8794 26.5721 31.1292 26.3874 31.4161 26.2863C31.703 26.1853 32.0137 26.1726 32.308 26.2499C32.6022 26.3272 32.8663 26.4909 33.0659 26.7197C33.2656 26.9486 33.3916 27.232 33.4275 27.5331C33.4628 27.7942 33.4159 28.0597 33.2933 28.2931C33.1708 28.5265 32.9786 28.7162 32.7432 28.8361C32.5983 28.8975 32.4411 28.9247 32.2839 28.9157C32.1266 28.9066 31.9736 28.8616 31.8367 28.784C31.7141 28.7171 31.6089 28.6225 31.5295 28.5079C31.45 28.3933 31.3985 28.2618 31.3791 28.1238C31.3733 28.0385 31.4001 27.9543 31.4541 27.8878C31.5081 27.8214 31.5853 27.7778 31.6702 27.7657C31.7551 27.7536 31.8414 27.774 31.9119 27.8227C31.9824 27.8714 32.0318 27.9448 32.0503 28.0283C32.0588 28.0607 32.074 28.091 32.095 28.1172C32.1161 28.1434 32.1424 28.1649 32.1723 28.1803C32.2185 28.2055 32.2695 28.2209 32.3221 28.2254C32.3746 28.2299 32.4275 28.2234 32.4774 28.2063C32.5811 28.1434 32.6638 28.0512 32.715 27.9414C32.7662 27.8316 32.7836 27.7092 32.765 27.5896C32.7457 27.4228 32.6764 27.2656 32.5661 27.1387C32.4557 27.0119 32.3095 26.9211 32.1466 26.8784C31.9836 26.8357 31.8115 26.843 31.6528 26.8994C31.4941 26.9557 31.3562 27.0585 31.2571 27.1943C31.1034 27.4471 31.0067 27.7302 30.9738 28.0239C30.9234 28.3565 30.8205 28.679 30.6687 28.9795C30.5147 29.2417 30.2945 29.4591 30.0299 29.61C29.7653 29.7609 29.4656 29.84 29.1607 29.8395Z" fill="#D88121"/>
<path d="M4.35824 22.6904C4.21711 22.7028 4.08576 22.7674 3.99007 22.8715C3.89438 22.9756 3.84131 23.1117 3.84131 23.2529C3.84131 23.3941 3.89438 23.5302 3.99007 23.6343C4.08576 23.7384 4.21711 23.803 4.35824 23.8154C4.49936 23.803 4.63072 23.7384 4.7264 23.6343C4.82209 23.5302 4.87517 23.3941 4.87517 23.2529C4.87517 23.1117 4.82209 22.9756 4.7264 22.8715C4.63072 22.7674 4.49936 22.7028 4.35824 22.6904Z" fill="#E8E8E8"/>
<path d="M10.0457 21.248C9.90461 21.2604 9.77326 21.325 9.67757 21.4291C9.58188 21.5333 9.52881 21.6693 9.52881 21.8105C9.52881 21.9517 9.58188 22.0878 9.67757 22.1919C9.77326 22.296 9.90461 22.3606 10.0457 22.373C10.1869 22.3606 10.3182 22.296 10.4139 22.1919C10.5096 22.0878 10.5627 21.9517 10.5627 21.8105C10.5627 21.6693 10.5096 21.5333 10.4139 21.4291C10.3182 21.325 10.1869 21.2604 10.0457 21.248Z" fill="#E8E8E8"/>
<path d="M11.9242 23.8284C11.783 23.8407 11.6517 23.9054 11.556 24.0095C11.4603 24.1136 11.4072 24.2497 11.4072 24.3908C11.4072 24.532 11.4603 24.6681 11.556 24.7722C11.6517 24.8763 11.783 24.941 11.9242 24.9533C12.0653 24.941 12.1966 24.8763 12.2923 24.7722C12.388 24.6681 12.4411 24.532 12.4411 24.3908C12.4411 24.2497 12.388 24.1136 12.2923 24.0095C12.1966 23.9054 12.0653 23.8407 11.9242 23.8284Z" fill="#E8E8E8"/>
<path d="M19.6121 24.5708C19.471 24.5832 19.3397 24.6478 19.244 24.7519C19.1483 24.856 19.0952 24.9921 19.0952 25.1333C19.0952 25.2745 19.1483 25.4105 19.244 25.5146C19.3397 25.6188 19.471 25.6834 19.6121 25.6957C19.7533 25.6834 19.8846 25.6188 19.9803 25.5146C20.076 25.4105 20.1291 25.2745 20.1291 25.1333C20.1291 24.9921 20.076 24.856 19.9803 24.7519C19.8846 24.6478 19.7533 24.5832 19.6121 24.5708Z" fill="#E8E8E8"/>
<path d="M25.1424 21.9475C25.0013 21.9599 24.8699 22.0245 24.7743 22.1286C24.6786 22.2327 24.6255 22.3688 24.6255 22.51C24.6255 22.6512 24.6786 22.7872 24.7743 22.8914C24.8699 22.9955 25.0013 23.0601 25.1424 23.0725C25.2835 23.0601 25.4149 22.9955 25.5106 22.8914C25.6063 22.7872 25.6593 22.6512 25.6593 22.51C25.6593 22.3688 25.6063 22.2327 25.5106 22.1286C25.4149 22.0245 25.2835 21.9599 25.1424 21.9475Z" fill="#E8E8E8"/>
<path d="M7.51335 32.5281C7.36309 32.5281 7.21898 32.5876 7.11272 32.6935C7.00647 32.7993 6.94678 32.943 6.94678 33.0927C6.94678 33.2425 7.00647 33.3861 7.11272 33.492C7.21898 33.5979 7.36309 33.6574 7.51335 33.6574C7.66361 33.6574 7.80772 33.5979 7.91398 33.492C8.02023 33.3861 8.07992 33.2425 8.07992 33.0927C8.07992 32.943 8.02023 32.7993 7.91398 32.6935C7.80772 32.5876 7.66361 32.5281 7.51335 32.5281Z" fill="#E8E8E8"/>
<path d="M9.55746 34.0396C9.41633 34.0519 9.28498 34.1165 9.18929 34.2207C9.0936 34.3248 9.04053 34.4608 9.04053 34.602C9.04053 34.7432 9.0936 34.8793 9.18929 34.9834C9.28498 35.0875 9.41633 35.1521 9.55746 35.1645C9.69858 35.1521 9.82994 35.0875 9.92562 34.9834C10.0213 34.8793 10.0744 34.7432 10.0744 34.602C10.0744 34.4608 10.0213 34.3248 9.92562 34.2207C9.82994 34.1165 9.69858 34.0519 9.55746 34.0396Z" fill="#E8E8E8"/>
<path d="M15.1447 32.9321C14.9944 32.9321 14.8503 32.9916 14.7441 33.0975C14.6378 33.2034 14.5781 33.347 14.5781 33.4968C14.5781 33.6465 14.6378 33.7901 14.7441 33.896C14.8503 34.0019 14.9944 34.0614 15.1447 34.0614C15.295 34.0614 15.4391 34.0019 15.5453 33.896C15.6516 33.7901 15.7113 33.6465 15.7113 33.4968C15.7113 33.347 15.6516 33.2034 15.5453 33.0975C15.4391 32.9916 15.295 32.9321 15.1447 32.9321Z" fill="#E8E8E8"/>
<path d="M21.3773 35.4902C21.2362 35.5026 21.1048 35.5672 21.0091 35.6713C20.9134 35.7755 20.8604 35.9115 20.8604 36.0527C20.8604 36.1939 20.9134 36.33 21.0091 36.4341C21.1048 36.5382 21.2362 36.6028 21.3773 36.6152C21.5184 36.6028 21.6498 36.5382 21.7454 36.4341C21.8411 36.33 21.8942 36.1939 21.8942 36.0527C21.8942 35.9115 21.8411 35.7755 21.7454 35.6713C21.6498 35.5672 21.5184 35.5026 21.3773 35.4902Z" fill="#E8E8E8"/>
<path d="M26.5853 32.9797C26.4442 32.9921 26.3128 33.0567 26.2171 33.1608C26.1214 33.265 26.0684 33.401 26.0684 33.5422C26.0684 33.6834 26.1214 33.8195 26.2171 33.9236C26.3128 34.0277 26.4442 34.0923 26.5853 34.1047C26.7264 34.0923 26.8578 34.0277 26.9535 33.9236C27.0491 33.8195 27.1022 33.6834 27.1022 33.5422C27.1022 33.401 27.0491 33.265 26.9535 33.1608C26.8578 33.0567 26.7264 32.9921 26.5853 32.9797Z" fill="#E8E8E8"/>
<path d="M30.5819 34.0266C30.4407 34.039 30.3094 34.1036 30.2137 34.2077C30.118 34.3118 30.0649 34.4479 30.0649 34.5891C30.0649 34.7303 30.118 34.8663 30.2137 34.9705C30.3094 35.0746 30.4407 35.1392 30.5819 35.1516C30.723 35.1392 30.8543 35.0746 30.95 34.9705C31.0457 34.8663 31.0988 34.7303 31.0988 34.5891C31.0988 34.4479 31.0457 34.3118 30.95 34.2077C30.8543 34.1036 30.723 34.039 30.5819 34.0266Z" fill="#E8E8E8"/>
<path d="M32.2508 21.678C32.1097 21.6903 31.9783 21.755 31.8826 21.8591C31.787 21.9632 31.7339 22.0993 31.7339 22.2405C31.7339 22.3816 31.787 22.5177 31.8826 22.6218C31.9783 22.7259 32.1097 22.7906 32.2508 22.8029C32.3919 22.7906 32.5233 22.7259 32.619 22.6218C32.7147 22.5177 32.7677 22.3816 32.7677 22.2405C32.7677 22.0993 32.7147 21.9632 32.619 21.8591C32.5233 21.755 32.3919 21.6903 32.2508 21.678Z" fill="#E8E8E8"/>
<path d="M28.9908 23.0201C28.8604 22.9473 28.7066 22.9284 28.5624 22.9673C28.4181 23.0063 28.295 23.1001 28.2194 23.2286C28.1979 23.2648 28.179 23.3026 28.1627 23.3415C28.1187 23.4056 28.0885 23.4782 28.0741 23.5546C28.0597 23.631 28.0614 23.7095 28.0791 23.7852C28.0969 23.8609 28.1302 23.9321 28.177 23.9942C28.2238 24.0564 28.2831 24.1082 28.351 24.1463C28.419 24.1844 28.4942 24.208 28.5718 24.2156C28.6494 24.2232 28.7278 24.2146 28.8019 24.1904C28.876 24.1661 28.9442 24.1268 29.0022 24.0749C29.0603 24.023 29.1068 23.9596 29.139 23.8888C29.139 23.8497 29.1782 23.8149 29.1956 23.7758C29.2639 23.6474 29.2808 23.498 29.2428 23.3577C29.2047 23.2174 29.1147 23.0967 28.9908 23.0201Z" fill="#E8E8E8"/>
<path d="M33.6061 19.1895C33.4559 19.1895 33.3117 19.2489 33.2055 19.3548C33.0992 19.4607 33.0396 19.6043 33.0396 19.7541C33.0396 19.9039 33.0992 20.0475 33.2055 20.1534C33.3117 20.2593 33.4559 20.3187 33.6061 20.3187C33.7564 20.3187 33.9005 20.2593 34.0068 20.1534C34.113 20.0475 34.1727 19.9039 34.1727 19.7541C34.1727 19.6043 34.113 19.4607 34.0068 19.3548C33.9005 19.2489 33.7564 19.1895 33.6061 19.1895Z" fill="#E8E8E8"/>
<g style="mix-blend-mode:multiply">
<path d="M27.5833 37.6227C29.2612 37.4881 31.0699 37.2839 32.3294 36.172C33.7415 34.9254 34.0727 32.8927 34.3386 31.0294L36.0819 18.2379C36.1114 18.0135 36.0787 17.7853 35.9872 17.5781C35.8957 17.3709 35.749 17.1927 35.563 17.0629C35.3769 16.933 35.1587 16.8565 34.9321 16.8416C34.7055 16.8267 34.4791 16.874 34.2775 16.9783C33.5977 17.3345 32.9047 17.6603 32.1987 17.9643C32.203 18.012 32.203 18.06 32.1987 18.1076C32.1402 19.1581 31.9827 20.2008 31.728 21.2219C31.1223 23.6265 30.0292 25.8822 28.5159 27.85C25.4303 31.8633 20.8454 34.5736 15.9729 35.9939C12.8509 36.8718 9.62823 37.3448 6.38477 37.4012C8.12806 38.4349 10.3856 38.4653 12.4863 38.4132C17.5274 38.2858 22.5597 38.0223 27.5833 37.6227Z" fill="#E8E8E8"/>
</g>
</svg>
