<svg width="36" height="43" viewBox="0 0 36 43" fill="none" xmlns="http://www.w3.org/2000/svg">
<g clip-path="url(#clip0_4_8048)">
<path d="M6.65135 27.4751C7.13459 35.1525 13.2145 34.5652 18.9695 34.7055C20.6666 34.745 22.3814 34.6328 24.0763 34.5645C25.2263 34.516 26.4791 34.1984 27.1547 33.3017C27.4918 32.7867 27.7054 32.2054 27.7797 31.6004C28.3061 28.729 28.1828 25.7555 28.225 22.8499C28.2745 19.3283 28.3052 15.8096 28.351 12.2886C28.3582 11.7658 28.3869 3.60792 28.6345 3.61119C21.9679 3.5613 15.2675 2.24211 8.61005 2.50758C5.42709 2.63487 6.2442 5.27166 6.20067 7.55515C6.15808 10.6943 6.17338 13.8334 6.24655 16.9723C6.30838 19.6957 6.41362 22.4248 6.56227 25.1597C6.60088 25.8916 6.60639 26.6808 6.65135 27.4751Z" fill="#F7A32D"/>
<path d="M8.41922 9.72118C8.41922 9.72118 11.5309 11.2593 18.4822 11.0199C25.4334 10.7804 26.4594 9.73719 26.4594 9.73719C26.4594 9.73719 26.7061 18.7772 26.1079 22.3899C26.1079 22.3899 19.2739 25.4473 8.66177 22.1827C8.27897 18.0395 8.19792 13.8754 8.41922 9.72118Z" fill="#D88121"/>
<g style="mix-blend-mode:multiply">
<path d="M27.1546 33.3019C27.4917 32.7869 27.7053 32.2056 27.7796 31.6005C28.3061 28.7292 28.1827 25.7557 28.2249 22.8501C28.2744 19.3285 28.3052 15.8098 28.3509 12.2887C28.3581 11.766 28.3869 3.6081 28.6344 3.61137C27.1163 3.60421 25.597 3.51898 24.0816 3.41079C23.7483 3.62308 23.4819 3.91979 23.3115 4.26846C23.1411 4.61713 23.0734 5.00432 23.1156 5.38768C23.1514 6.9995 23.6435 8.61632 23.843 10.2144C24.0692 12.1878 24.1115 14.1768 23.9694 16.1574C23.8076 18.4328 23.3997 20.6856 22.7524 22.8791C22.1289 24.9677 21.2445 27.0663 19.6302 28.5719C17.8666 30.2269 15.3803 31.0268 12.924 31.1365C11.0097 31.186 9.0985 30.9572 7.25468 30.4577C8.99259 34.9963 14.1062 34.5897 18.9819 34.7112C20.679 34.7507 22.3938 34.6385 24.0887 34.5703C25.23 34.5156 26.4808 34.2095 27.1546 33.3019Z" fill="#E8E8E8"/>
</g>
<path d="M19.9099 32.964C20.518 32.5 21.2215 32.1484 21.7547 31.6025C22.471 30.8764 22.8915 29.7999 23.8573 29.4237C24.1716 29.3218 24.5053 29.288 24.8347 29.3248C25.1641 29.3615 25.4811 29.4679 25.763 29.6363C26.3255 29.9758 26.8147 30.4171 27.2037 30.9358C27.5186 31.3787 27.8908 31.7809 28.3113 32.1327C28.9816 32.6279 29.8666 32.804 30.5147 33.3287C30.7374 33.4969 30.9072 33.7216 31.0053 33.9776C31.0541 34.1059 31.0711 34.2434 31.0548 34.3792C31.0385 34.5149 30.9894 34.6451 30.9114 34.7591C30.732 34.9591 30.4973 35.1055 30.2348 35.1813C29.1434 35.6182 28.0065 35.9403 26.8436 36.142C24.6992 36.4792 22.5003 36.2486 20.4809 35.4746C20.0409 35.3061 19.0864 35.0585 18.8884 34.5965C18.6333 34.0202 19.5041 33.2709 19.9099 32.964Z" fill="white"/>
<path d="M32.4778 33.3723C32.588 33.325 32.7102 33.3099 32.8293 33.3288C32.9483 33.3478 33.059 33.3999 33.1476 33.4789C33.2363 33.5579 33.2991 33.6602 33.3282 33.7733C33.3573 33.8863 33.3515 34.0051 33.3115 34.1149C32.8543 35.4428 32.1837 36.6911 30.946 37.3429C29.9611 37.8635 28.793 37.8939 27.677 37.9127L22.1814 38.0276C21.1657 38.0462 20.1143 38.0591 19.1949 37.646C18.0765 37.1474 17.0408 35.8465 16.5856 34.6037C16.5505 34.5075 16.5416 34.4043 16.5597 34.3038C16.5778 34.2034 16.6222 34.1091 16.6888 34.0299C16.7554 33.9508 16.8419 33.8895 16.94 33.8518C17.0381 33.8141 17.1446 33.8013 17.2493 33.8147C19.985 34.1484 22.9313 34.7595 25.675 34.5928C27.139 34.5067 28.2991 34.5223 29.7329 34.2247C30.6647 33.994 31.5814 33.7093 32.4778 33.3723Z" fill="#9F4A4A"/>
<g style="mix-blend-mode:multiply">
<path d="M32.4782 33.3724C32.2094 33.4762 31.9174 33.5797 31.628 33.6753C31.5267 34.0549 31.3575 34.4144 31.128 34.7377C30.4312 35.6494 29.4426 36.3139 28.3152 36.6285C27.1893 36.9388 26.025 37.1001 24.8541 37.108C22.5942 37.1897 20.3311 37.1117 18.083 36.8746C18.4052 37.1914 18.7815 37.4524 19.1953 37.6461C20.1147 38.0591 21.1661 38.0463 22.1818 38.0277L27.6629 37.9187C28.7789 37.8999 29.9459 37.8622 30.9319 37.3488C32.1696 36.697 32.8402 35.4488 33.2974 34.1209C33.3369 34.0123 33.343 33.8949 33.315 33.783C33.2869 33.671 33.2259 33.5694 33.1392 33.4902C33.0526 33.411 32.9441 33.3578 32.8268 33.3369C32.7095 33.316 32.5884 33.3283 32.4782 33.3724Z" fill="#E8E8E8"/>
</g>
<path d="M28.6344 3.61127C28.6327 5.70207 24.7853 7.38393 18.4618 7.37864C12.1383 7.37335 6.1339 5.68354 6.13321 3.5782C6.13253 1.47286 12.0993 0.217074 18.4216 0.21509C24.7438 0.213106 28.6344 1.50957 28.6344 3.61127Z" fill="#FFB966"/>
</g>
<defs>
<clipPath id="clip0_4_8048">
<rect width="36" height="43" fill="white"/>
</clipPath>
</defs>
</svg>
