<svg width="43" height="41" viewBox="0 0 43 41" fill="none" xmlns="http://www.w3.org/2000/svg">
<path d="M41.864 19.7162C41.8619 28.4155 36.1367 33.9496 29.083 33.9508C22.0293 33.952 16.2977 29.4347 16.2929 20.7336C16.288 12.0324 22.0223 2.45119 29.0829 2.45179C36.1435 2.4524 41.8643 11.0238 41.864 19.7162Z" fill="#DB8E76"/>
<g style="mix-blend-mode:multiply">
<path d="M33.8959 3.83822C34.0234 4.10972 34.1491 4.38814 34.2572 4.67669C35.012 6.4422 35.6064 8.27204 36.0333 10.1441C36.8983 14.1955 36.7431 18.5669 34.9477 22.3059C33.1522 26.045 29.5173 29.0093 25.3958 29.3883C22.7545 29.5466 20.1252 28.922 17.8372 27.5929C19.9614 31.7889 24.1891 33.9749 29.0831 33.9512C36.1368 33.9499 41.862 28.4158 41.8641 19.7166C41.8656 13.1234 38.5692 6.60344 33.8959 3.83822Z" fill="#E8E8E8"/>
</g>
<path d="M28.864 23.7162C28.8619 32.4155 23.1367 37.9496 16.083 37.9508C9.02934 37.952 3.29767 33.4347 3.29286 24.7336C3.28804 16.0324 9.02228 6.45119 16.0829 6.45179C23.1435 6.4524 28.8643 15.0238 28.864 23.7162Z" fill="#DB8E76"/>
<g style="mix-blend-mode:multiply">
<path d="M20.8959 7.83822C21.0234 8.10972 21.1491 8.38814 21.2572 8.67669C22.012 10.4422 22.6064 12.272 23.0333 14.1441C23.8983 18.1955 23.7431 22.5669 21.9477 26.3059C20.1522 30.045 16.5173 33.0093 12.3958 33.3883C9.75451 33.5466 7.12519 32.922 4.83716 31.5929C6.96139 35.7889 11.1891 37.9749 16.0831 37.9512C23.1368 37.9499 28.862 32.4158 28.8641 23.7166C28.8656 17.1234 25.5692 10.6034 20.8959 7.83822Z" fill="#E8E8E8"/>
</g>
</svg>
