<svg width="32" height="32" viewBox="0 0 32 32" fill="none" xmlns="http://www.w3.org/2000/svg">
<rect x="0.318604" width="30.7886" height="32" rx="6" fill="white"/>
<g clip-path="url(#clip0_246_1813)">
<path d="M8.03164 12.2566C13.6566 10.9423 19.5449 11.11 25.0795 12.7421C25.7361 12.9385 26.4947 13.2466 26.6475 13.893C26.6908 14.1554 26.6535 14.4242 26.5404 14.6664C26.4273 14.9087 26.2432 15.1138 26.0107 15.2566C25.5416 15.536 25.0189 15.7216 24.4738 15.8021C21.148 16.5221 17.7826 17.2448 14.386 17.1357C12.6471 17.0948 10.9265 16.7826 9.2912 16.2112C8.5666 15.9521 4.86153 14.4412 5.4531 13.4839C5.89465 12.7394 7.24478 12.4421 8.03164 12.2566Z" fill="#D88121"/>
<path d="M27.6892 3.8401C27.8371 3.59354 28.0287 3.37386 28.2552 3.19101C28.3733 3.10106 28.513 3.04117 28.6614 3.01687C28.8097 2.99256 28.9621 3.00461 29.1044 3.05192C29.2531 3.12277 29.3785 3.23184 29.467 3.36708C29.5554 3.50231 29.6033 3.65846 29.6054 3.81828C29.5993 4.13673 29.5251 4.45054 29.3874 4.7401C28.5188 6.94852 27.1674 8.95109 25.4248 10.6119C24.9464 11.0674 23.8737 12.2483 23.8963 10.9092C23.9162 9.81828 24.7455 8.65919 25.2578 7.71555C25.9919 6.38068 26.8037 5.0868 27.6892 3.8401Z" fill="#AED5C2"/>
<path d="M20.7885 11.2091C21.0672 10.5774 21.5535 10.0513 22.1726 9.71179C22.6342 9.50894 23.1485 9.44494 23.6484 9.52814C24.1483 9.61133 24.6106 9.83787 24.9748 10.1782C25.3276 10.5295 25.5854 10.9589 25.7256 11.4288C25.8658 11.8986 25.884 12.3945 25.7786 12.8727C25.5504 13.8331 24.9487 14.6725 24.0973 15.2182C23.3133 15.7391 21.0036 16.8109 20.4715 15.5236C19.9394 14.2363 20.1687 12.4418 20.7885 11.2091Z" fill="#AED5C2"/>
<path d="M21.3772 11.632C21.5828 11.171 21.9398 10.7877 22.3933 10.5411C22.7323 10.3918 23.1102 10.3447 23.4774 10.406C23.8446 10.4674 24.184 10.6342 24.4511 10.8847C24.7109 11.142 24.9008 11.457 25.004 11.802C25.1072 12.1469 25.1204 12.511 25.0426 12.862C24.876 13.5685 24.4342 14.1865 23.8086 14.5884C23.2425 14.9702 21.5442 15.7556 21.1451 14.812C20.746 13.8684 20.9215 12.5456 21.3772 11.632Z" fill="#8CB5A0"/>
<path d="M8.29482 11.4301C9.11848 10.2765 10.0157 9.06286 11.3602 8.53104C12.4924 8.08922 13.7463 8.1874 14.9266 8.43013C17.1053 8.8919 19.1542 9.80351 20.932 11.1021C22.7097 12.4007 24.1739 14.0553 25.2238 15.9519C22.3447 17.9905 18.8336 19.0288 15.2634 18.8974C12.8173 18.7911 10.4305 18.1375 8.29199 16.9883C7.57022 16.601 5.65683 15.7256 5.80968 14.9074C5.89459 14.411 6.71542 13.6365 7.02677 13.2165L8.29482 11.4301Z" fill="white"/>
<path d="M15.9767 16.0337C19.4328 16.0108 22.8339 15.1976 25.9002 13.661C26.0314 13.5952 26.1787 13.5654 26.3262 13.5749C26.4737 13.5843 26.6156 13.6327 26.7365 13.7145C26.8574 13.7964 26.9527 13.9088 27.0119 14.0393C27.071 14.1698 27.0919 14.3135 27.072 14.4546L25.9399 22.4864C25.7757 23.6564 25.5521 24.941 24.635 25.7155C23.8142 26.4137 22.6537 26.5337 21.5527 26.6264C18.2844 26.8755 15.0153 27.0401 11.7451 27.1201C10.2223 27.1582 8.56087 27.1201 7.37774 26.2064C6.34745 25.3882 5.92006 24.0901 5.62286 22.841C4.97119 20.1086 4.69803 17.3051 4.81052 14.5037C4.88694 12.6655 6.20593 13.8846 7.37491 14.3619C8.6436 14.8794 9.95986 15.2812 11.3064 15.5619C12.8407 15.8822 14.4067 16.0404 15.9767 16.0337Z" fill="#F7A32D"/>
<path d="M4.93799 18.7637C5.04555 19.8546 5.22103 20.9128 5.43049 21.971C12.2699 23.5883 19.445 23.3046 26.1239 21.1528L26.591 17.8528C19.6668 20.4109 12.0672 20.7306 4.93799 18.7637Z" fill="#FFB966"/>
<path d="M9.54876 22.0911C9.45177 22.0921 9.35554 22.0745 9.26572 22.0392C9.14406 21.9958 9.03864 21.9183 8.96299 21.8168C8.88735 21.7152 8.84492 21.5942 8.84115 21.4692C8.84396 21.3935 8.86361 21.3193 8.89877 21.2515C8.93393 21.1838 8.98378 21.1241 9.04494 21.0765C9.09871 21.0328 9.16198 21.0013 9.23007 20.9843C9.29817 20.9673 9.36935 20.9653 9.43838 20.9783C9.46919 20.9812 9.49905 20.9902 9.52599 21.0049C9.55294 21.0196 9.57639 21.0396 9.5948 21.0635C9.61322 21.0875 9.62619 21.115 9.63289 21.1441C9.63958 21.1732 9.63984 21.2034 9.63366 21.2326C9.62747 21.2618 9.61497 21.2895 9.59698 21.3137C9.57898 21.338 9.55589 21.3584 9.5292 21.3735C9.50251 21.3886 9.47282 21.3981 9.44206 21.4015C9.41129 21.4048 9.38014 21.4019 9.35063 21.3929C9.34134 21.3907 9.33163 21.3907 9.32233 21.3929C9.31123 21.401 9.30199 21.4113 9.29517 21.423C9.28836 21.4347 9.28411 21.4477 9.2827 21.4611C9.28924 21.4997 9.30631 21.536 9.33217 21.5662C9.35803 21.5963 9.39175 21.6194 9.42989 21.6329C9.47613 21.6479 9.52508 21.6538 9.57374 21.65C9.6224 21.6463 9.66976 21.633 9.71293 21.6111C9.77014 21.5841 9.82085 21.5459 9.8618 21.499C9.90275 21.452 9.93303 21.3973 9.95069 21.3383C9.97627 21.2184 9.96282 21.0938 9.91216 20.9815C9.8615 20.8693 9.77611 20.7748 9.66764 20.7111C9.52153 20.6309 9.3524 20.5984 9.18556 20.6186C9.01871 20.6387 8.86313 20.7104 8.74209 20.8229C8.6683 20.9019 8.60288 20.9877 8.54678 21.0792C8.49781 21.1554 8.44491 21.2291 8.38828 21.3001C8.16044 21.5871 7.82527 21.777 7.45423 21.8292C7.26313 21.8554 7.0683 21.8366 6.8864 21.7744C6.7045 21.7122 6.54097 21.6084 6.40979 21.472C6.2734 21.3264 6.18413 21.1456 6.15295 20.9518C6.12177 20.758 6.15005 20.5596 6.2343 20.3811C6.32434 20.2001 6.47488 20.0536 6.66174 19.9651C6.84859 19.8766 7.06092 19.8511 7.26459 19.8929C7.38 19.9186 7.48731 19.9706 7.57746 20.0447C7.6676 20.1187 7.73795 20.2126 7.78256 20.3183C7.83044 20.4385 7.83469 20.5708 7.7946 20.6936C7.75451 20.8164 7.67245 20.9225 7.56179 20.9947C7.49599 21.0327 7.42235 21.0563 7.34605 21.0638C7.26975 21.0714 7.19266 21.0627 7.12023 21.0383C7.0528 21.017 6.99114 20.9814 6.93974 20.9342C6.88833 20.8871 6.84847 20.8295 6.82304 20.7656C6.81073 20.739 6.80421 20.7103 6.80389 20.6812C6.80357 20.6521 6.80945 20.6232 6.82117 20.5964C6.83289 20.5696 6.8502 20.5453 6.87203 20.5252C6.89385 20.5051 6.91973 20.4895 6.94807 20.4794C6.9764 20.4693 7.00658 20.4649 7.03674 20.4665C7.06691 20.4681 7.09641 20.4756 7.12343 20.4887C7.15044 20.5017 7.1744 20.5199 7.19381 20.5422C7.21322 20.5645 7.22768 20.5904 7.23628 20.6183C7.24305 20.6259 7.25187 20.6316 7.26176 20.6347C7.27204 20.639 7.28311 20.6412 7.29431 20.6412C7.3055 20.6412 7.31658 20.639 7.32686 20.6347C7.35142 20.6149 7.36878 20.5881 7.37642 20.5582C7.38406 20.5283 7.38157 20.4968 7.36931 20.4683C7.35103 20.4261 7.322 20.3889 7.2849 20.3603C7.2478 20.3317 7.20382 20.3126 7.15703 20.3047C7.05228 20.2865 6.94423 20.3017 6.84924 20.3479C6.75424 20.3942 6.67748 20.469 6.63057 20.5611C6.57909 20.6676 6.56235 20.7867 6.58256 20.9025C6.60278 21.0184 6.65899 21.1257 6.74378 21.2101C6.82773 21.2946 6.93128 21.3587 7.04593 21.3971C7.16058 21.4355 7.28305 21.4471 7.40328 21.4311C7.66019 21.3928 7.89159 21.2598 8.04862 21.0601C8.09391 21.0029 8.13637 20.9374 8.18166 20.872C8.25334 20.757 8.33679 20.6491 8.43074 20.5501C8.62145 20.3674 8.86974 20.2508 9.13664 20.2188C9.40353 20.1867 9.67393 20.2409 9.9054 20.3729C10.0936 20.4837 10.2411 20.6485 10.3273 20.8441C10.4136 21.0396 10.4343 21.2563 10.3866 21.4638C10.3514 21.5782 10.2916 21.6841 10.2112 21.7748C10.1307 21.8655 10.0313 21.9389 9.91955 21.9901C9.80561 22.0507 9.67875 22.0852 9.54876 22.0911Z" fill="#D88121"/>
<path d="M12.6877 22.4373C12.5683 22.4377 12.4493 22.423 12.3339 22.3936C12.1802 22.3557 12.0364 22.2877 11.9112 22.1939C11.7861 22.1 11.6823 21.9823 11.6064 21.8482C11.5253 21.702 11.4909 21.5359 11.5075 21.3709C11.5241 21.2059 11.591 21.0493 11.6998 20.9209C11.8228 20.7892 11.9929 20.707 12.176 20.6908C12.3591 20.6747 12.5419 20.7256 12.6877 20.8336C12.764 20.8991 12.8227 20.9815 12.8587 21.0736C12.8946 21.1658 12.9069 21.265 12.8943 21.3627C12.8894 21.4537 12.8609 21.542 12.8115 21.6197C12.762 21.6973 12.6932 21.7618 12.6112 21.8073C12.5361 21.8457 12.4528 21.8667 12.3677 21.8685C12.2827 21.8704 12.1984 21.8532 12.1216 21.8182C12.2148 21.8962 12.3251 21.9531 12.4442 21.9845C12.6542 22.0297 12.8736 22.0088 13.0703 21.9248C13.267 21.8409 13.4305 21.6983 13.5368 21.5182C13.5798 21.4294 13.6176 21.3383 13.65 21.2454C13.7139 21.0324 13.8294 20.8371 13.9868 20.6754C14.1025 20.5733 14.2429 20.5006 14.3951 20.4639C14.5473 20.4272 14.7067 20.4277 14.8586 20.4654C15.1457 20.539 15.3945 20.7118 15.5577 20.9509C15.6386 21.0594 15.6964 21.1823 15.728 21.3123C15.7596 21.4424 15.7642 21.5772 15.7417 21.7091C15.7148 21.8559 15.6431 21.9917 15.5357 22.099C15.4283 22.2064 15.2901 22.2805 15.1388 22.3118C15.0511 22.3257 14.9613 22.322 14.875 22.3009C14.7888 22.2798 14.7081 22.2417 14.6379 22.1891C14.5153 22.0988 14.4349 21.9654 14.4142 21.8182C14.4066 21.7258 14.4242 21.633 14.4655 21.5493C14.5067 21.4655 14.5701 21.3936 14.6492 21.3409C14.7194 21.2887 14.8025 21.255 14.8903 21.243C14.9781 21.2311 15.0677 21.2413 15.1502 21.2727C15.2014 21.2966 15.2411 21.3387 15.2609 21.3902C15.2807 21.4416 15.2791 21.4984 15.2565 21.5488C15.2338 21.5991 15.1918 21.6391 15.1393 21.6603C15.0868 21.6815 15.0278 21.6824 14.9747 21.6627C14.9626 21.6606 14.9502 21.6612 14.9384 21.6645C14.9266 21.6679 14.9158 21.6738 14.9067 21.6818C14.8912 21.6918 14.8783 21.7051 14.869 21.7207C14.8596 21.7364 14.8542 21.7538 14.853 21.7718C14.8557 21.7911 14.8626 21.8096 14.8734 21.826C14.8841 21.8425 14.8984 21.8565 14.9152 21.8673C14.9373 21.8843 14.9627 21.897 14.9899 21.9045C15.0171 21.912 15.0456 21.9142 15.0737 21.9109C15.1381 21.8938 15.1957 21.8588 15.2395 21.8103C15.2833 21.7618 15.3113 21.7019 15.32 21.6382C15.3431 21.4819 15.3014 21.3232 15.2039 21.1963C15.1036 21.0443 14.9483 20.9335 14.7681 20.8854C14.6864 20.8659 14.6011 20.8661 14.5196 20.8861C14.4381 20.9061 14.363 20.9452 14.301 21C14.196 21.1191 14.1188 21.2586 14.0746 21.4091C14.0371 21.5157 13.9917 21.6196 13.9387 21.72C13.8137 21.9347 13.6324 22.114 13.4128 22.2399C13.1932 22.3658 12.9431 22.4338 12.6877 22.4373ZM12.1527 21.1282C12.1826 21.1529 12.205 21.185 12.2174 21.221C12.2299 21.257 12.232 21.2956 12.2235 21.3327C12.2235 21.3573 12.2433 21.39 12.2716 21.4091C12.2883 21.4243 12.309 21.4348 12.3314 21.4396C12.3538 21.4444 12.3772 21.4433 12.399 21.4363C12.4181 21.4232 12.4339 21.4061 12.4451 21.3863C12.4564 21.3664 12.4629 21.3444 12.4641 21.3218C12.468 21.2922 12.4649 21.2621 12.4551 21.2338C12.4453 21.2054 12.429 21.1796 12.4075 21.1582C12.3695 21.1304 12.3246 21.113 12.2773 21.1077C12.23 21.1025 12.1821 21.1095 12.1386 21.1282H12.1527Z" fill="#D88121"/>
<path d="M17.3665 22.2301C17.2119 22.2326 17.0587 22.2005 16.9192 22.1361C16.7796 22.0717 16.6576 21.9769 16.5627 21.8592C16.449 21.7102 16.3911 21.5286 16.3983 21.3439C16.4055 21.1592 16.4774 20.9822 16.6023 20.8419C16.6351 20.8054 16.6802 20.7813 16.7297 20.7737C16.8662 20.7532 17.0059 20.765 17.1366 20.8083C17.2673 20.8515 17.3851 20.9249 17.4797 21.0219C17.5021 21.0417 17.5199 21.0656 17.5322 21.0923C17.5445 21.119 17.5509 21.1478 17.5512 21.177C17.5514 21.2061 17.5454 21.2351 17.5335 21.2619C17.5217 21.2888 17.5042 21.313 17.4822 21.333C17.4602 21.3531 17.4342 21.3686 17.4057 21.3786C17.3772 21.3885 17.3469 21.3927 17.3167 21.3909C17.2865 21.3891 17.2569 21.3813 17.23 21.368C17.203 21.3547 17.1791 21.3363 17.1599 21.3137C17.0855 21.2392 16.9841 21.1952 16.8769 21.191C16.8464 21.2586 16.8356 21.3328 16.8456 21.4058C16.8556 21.4788 16.8859 21.5479 16.9335 21.6055C16.9968 21.6806 17.0797 21.7382 17.1737 21.7722C17.2677 21.8062 17.3694 21.8155 17.4684 21.7992C17.6891 21.7573 17.8836 21.6327 18.009 21.4528C18.0878 21.3364 18.1551 21.2131 18.21 21.0846C18.2496 20.9974 18.2949 20.9074 18.343 20.8119C18.4099 20.6722 18.5072 20.548 18.6283 20.4478C18.7495 20.3476 18.8916 20.2736 19.045 20.231C19.1782 20.2081 19.3148 20.212 19.4464 20.2425C19.5779 20.273 19.7014 20.3295 19.8092 20.4083C19.993 20.5472 20.1501 20.7161 20.2734 20.9074C20.3612 21.0301 20.6244 21.4065 20.4602 21.7637C20.3901 21.8929 20.2842 22.0007 20.1543 22.0754C20.0244 22.15 19.8755 22.1884 19.7243 22.1865C19.4734 22.2122 19.2213 22.1502 19.0139 22.0119C18.8939 21.9319 18.8034 21.8171 18.7556 21.6842C18.7077 21.5514 18.705 21.4073 18.7478 21.2728C18.7817 21.1944 18.8342 21.1248 18.901 21.0694C18.9679 21.014 19.0472 20.9744 19.1327 20.9537C19.2084 20.9328 19.2883 20.9295 19.3655 20.9442C19.4428 20.9589 19.5154 20.9912 19.5771 21.0383C19.6222 21.0744 19.6504 21.1264 19.6557 21.1826C19.6611 21.2389 19.643 21.2949 19.6054 21.3383C19.5679 21.3817 19.514 21.4089 19.4556 21.414C19.3972 21.4192 19.3391 21.4017 19.2941 21.3655C19.2856 21.3619 19.2765 21.3599 19.2672 21.3599C19.2579 21.3599 19.2487 21.3619 19.2403 21.3655C19.2223 21.3704 19.2055 21.3787 19.1909 21.3899C19.1763 21.4012 19.1642 21.4151 19.1554 21.431C19.1451 21.4788 19.1498 21.5285 19.169 21.5736C19.1882 21.6188 19.2209 21.6575 19.2629 21.6846C19.3857 21.7597 19.5321 21.7907 19.6762 21.7719C19.8149 21.7719 19.9904 21.7146 20.0413 21.6055C20.0923 21.4965 20.0413 21.3628 19.8913 21.1583C19.797 21.0076 19.6752 20.8745 19.5318 20.7655C19.4749 20.7211 19.4091 20.6885 19.3384 20.6697C19.2678 20.651 19.1939 20.6464 19.1214 20.6565C19.0311 20.6887 18.9484 20.7382 18.8784 20.8019C18.8083 20.8656 18.7524 20.9423 18.7138 21.0274C18.6714 21.1037 18.6346 21.1828 18.5921 21.2674C18.5259 21.4196 18.4454 21.5657 18.3515 21.7037C18.2555 21.8393 18.1325 21.9551 17.9896 22.0445C17.8468 22.1339 17.6869 22.1952 17.5194 22.2246C17.4686 22.2291 17.4175 22.2309 17.3665 22.2301Z" fill="#D88121"/>
<path d="M22.5689 21.7365C22.4665 21.7365 22.3645 21.7227 22.2661 21.6955C22.0254 21.6255 21.8157 21.4803 21.6702 21.2828C21.5247 21.0852 21.4515 20.8467 21.4622 20.6046C21.4647 20.4282 21.5353 20.259 21.6603 20.1301C21.7406 20.0504 21.847 19.9999 21.9614 19.987C22.0759 19.9741 22.1915 19.9996 22.2887 20.0592C22.3394 20.0949 22.382 20.1402 22.4141 20.1922C22.4462 20.2442 22.4671 20.3019 22.4755 20.3619C22.4853 20.4448 22.4778 20.5287 22.4535 20.6088C22.4292 20.6889 22.3886 20.7635 22.334 20.8283C22.2965 20.8715 22.2429 20.8989 22.1847 20.9045C22.1265 20.9101 22.0683 20.8935 22.0226 20.8583C21.9779 20.8226 21.9496 20.7714 21.9438 20.7158C21.938 20.6602 21.9551 20.6045 21.9915 20.561C22.0098 20.5401 22.0231 20.5156 22.0305 20.4892C22.0378 20.4628 22.039 20.4352 22.034 20.4083C22.022 20.408 22.01 20.41 21.9989 20.4142C21.9877 20.4185 21.9775 20.4248 21.9689 20.4328C21.9246 20.4871 21.9016 20.5547 21.9038 20.6237C21.8907 20.7712 21.9302 20.9185 22.0159 21.0413C22.1016 21.1641 22.2283 21.2551 22.375 21.299C22.5217 21.3429 22.6795 21.3372 22.8224 21.2829C22.9653 21.2285 23.0845 21.1287 23.1605 21.0001C23.2333 20.8506 23.2829 20.6917 23.3077 20.5283C23.3397 20.2824 23.4287 20.0466 23.5681 19.8383C23.6851 19.6848 23.8473 19.5688 24.0336 19.5054C24.22 19.442 24.4218 19.434 24.6129 19.4825C24.804 19.531 24.9755 19.6338 25.1051 19.7775C25.2348 19.9212 25.3166 20.0992 25.3399 20.2883C25.3629 20.4522 25.3324 20.6189 25.2528 20.7655C25.1732 20.912 25.0484 21.0312 24.8956 21.1065C24.8014 21.145 24.6993 21.1621 24.5972 21.1564C24.4951 21.1507 24.3957 21.1224 24.3068 21.0737C24.2272 21.0317 24.1589 20.9723 24.1073 20.9004C24.0557 20.8284 24.0223 20.7458 24.0096 20.6592C24.0059 20.6056 24.0233 20.5527 24.0584 20.511C24.0934 20.4693 24.1435 20.4419 24.1987 20.4343C24.2538 20.4267 24.3099 20.4395 24.3557 20.4701C24.4014 20.5007 24.4335 20.5468 24.4455 20.5992C24.451 20.6196 24.4609 20.6386 24.4746 20.655C24.4882 20.6715 24.5053 20.685 24.5248 20.6946C24.5548 20.7105 24.5879 20.7201 24.622 20.7229C24.6562 20.7258 24.6905 20.7217 24.7229 20.711C24.7903 20.6715 24.844 20.6136 24.8772 20.5446C24.9105 20.4757 24.9218 20.3988 24.9097 20.3237C24.8972 20.219 24.8522 20.1203 24.7805 20.0406C24.7088 19.961 24.6139 19.904 24.5081 19.8772C24.4022 19.8504 24.2905 19.855 24.1874 19.8903C24.0843 19.9257 23.9947 19.9903 23.9304 20.0755C23.8306 20.2343 23.7678 20.412 23.7464 20.5965C23.7137 20.8053 23.6468 21.0078 23.5483 21.1965C23.4483 21.3611 23.3052 21.4976 23.1334 21.5924C22.9615 21.6871 22.7669 21.7368 22.5689 21.7365Z" fill="#D88121"/>
<path d="M6.46072 17.2476C6.36906 17.2553 6.28376 17.2959 6.22161 17.3613C6.15947 17.4266 6.125 17.5121 6.125 17.6007C6.125 17.6894 6.15947 17.7748 6.22161 17.8402C6.28376 17.9056 6.36906 17.9462 6.46072 17.9539C6.55237 17.9462 6.63768 17.9056 6.69982 17.8402C6.76197 17.7748 6.79644 17.6894 6.79644 17.6007C6.79644 17.5121 6.76197 17.4266 6.69982 17.3613C6.63768 17.2959 6.55237 17.2553 6.46072 17.2476Z" fill="#E8E8E8"/>
<path d="M10.1543 16.3418C10.0627 16.3496 9.97736 16.3901 9.91522 16.4555C9.85307 16.5209 9.8186 16.6063 9.8186 16.695C9.8186 16.7836 9.85307 16.8691 9.91522 16.9344C9.97736 16.9998 10.0627 17.0404 10.1543 17.0482C10.246 17.0404 10.3313 16.9998 10.3934 16.9344C10.4556 16.8691 10.49 16.7836 10.49 16.695C10.49 16.6063 10.4556 16.5209 10.3934 16.4555C10.3313 16.3901 10.246 16.3496 10.1543 16.3418Z" fill="#E8E8E8"/>
<path d="M11.3743 17.9619C11.2826 17.9697 11.1973 18.0103 11.1352 18.0756C11.073 18.141 11.0386 18.2264 11.0386 18.3151C11.0386 18.4038 11.073 18.4892 11.1352 18.5546C11.1973 18.6199 11.2826 18.6605 11.3743 18.6683C11.4659 18.6605 11.5513 18.6199 11.6134 18.5546C11.6755 18.4892 11.71 18.4038 11.71 18.3151C11.71 18.2264 11.6755 18.141 11.6134 18.0756C11.5513 18.0103 11.4659 17.9697 11.3743 17.9619Z" fill="#E8E8E8"/>
<path d="M16.3672 18.4282C16.2756 18.436 16.1903 18.4766 16.1281 18.5419C16.066 18.6073 16.0315 18.6928 16.0315 18.7814C16.0315 18.8701 16.066 18.9555 16.1281 19.0209C16.1903 19.0862 16.2756 19.1268 16.3672 19.1346C16.4589 19.1268 16.5442 19.0862 16.6063 19.0209C16.6685 18.9555 16.7029 18.8701 16.7029 18.7814C16.7029 18.6928 16.6685 18.6073 16.6063 18.5419C16.5442 18.4766 16.4589 18.436 16.3672 18.4282Z" fill="#E8E8E8"/>
<path d="M19.959 16.781C19.8674 16.7888 19.782 16.8293 19.7199 16.8947C19.6578 16.9601 19.6233 17.0455 19.6233 17.1342C19.6233 17.2228 19.6578 17.3083 19.7199 17.3737C19.782 17.439 19.8674 17.4796 19.959 17.4874C20.0507 17.4796 20.136 17.439 20.1981 17.3737C20.2603 17.3083 20.2947 17.2228 20.2947 17.1342C20.2947 17.0455 20.2603 16.9601 20.1981 16.8947C20.136 16.8293 20.0507 16.7888 19.959 16.781Z" fill="#E8E8E8"/>
<path d="M8.51005 23.4246C8.41246 23.4246 8.31887 23.4619 8.24986 23.5284C8.18086 23.5949 8.14209 23.6851 8.14209 23.7791C8.14209 23.8731 8.18086 23.9633 8.24986 24.0298C8.31887 24.0963 8.41246 24.1336 8.51005 24.1336C8.60764 24.1336 8.70123 24.0963 8.77024 24.0298C8.83924 23.9633 8.87801 23.8731 8.87801 23.7791C8.87801 23.6851 8.83924 23.5949 8.77024 23.5284C8.70123 23.4619 8.60764 23.4246 8.51005 23.4246Z" fill="#E8E8E8"/>
<path d="M9.83743 24.3738C9.74577 24.3815 9.66047 24.4221 9.59832 24.4875C9.53618 24.5529 9.50171 24.6383 9.50171 24.727C9.50171 24.8156 9.53618 24.9011 9.59832 24.9664C9.66047 25.0318 9.74577 25.0724 9.83743 25.0801C9.92908 25.0724 10.0144 25.0318 10.0765 24.9664C10.1387 24.9011 10.1731 24.8156 10.1731 24.727C10.1731 24.6383 10.1387 24.5529 10.0765 24.4875C10.0144 24.4221 9.92908 24.3815 9.83743 24.3738Z" fill="#E8E8E8"/>
<path d="M13.4661 23.6782C13.3685 23.6782 13.2749 23.7156 13.2059 23.7821C13.1369 23.8486 13.0981 23.9387 13.0981 24.0328C13.0981 24.1268 13.1369 24.217 13.2059 24.2835C13.2749 24.35 13.3685 24.3873 13.4661 24.3873C13.5637 24.3873 13.6573 24.35 13.7263 24.2835C13.7953 24.217 13.8341 24.1268 13.8341 24.0328C13.8341 23.9387 13.7953 23.8486 13.7263 23.7821C13.6573 23.7156 13.5637 23.6782 13.4661 23.6782Z" fill="#E8E8E8"/>
<path d="M17.5137 25.2847C17.422 25.2924 17.3367 25.333 17.2746 25.3984C17.2124 25.4638 17.178 25.5492 17.178 25.6378C17.178 25.7265 17.2124 25.8119 17.2746 25.8773C17.3367 25.9427 17.422 25.9833 17.5137 25.991C17.6054 25.9833 17.6907 25.9427 17.7528 25.8773C17.8149 25.8119 17.8494 25.7265 17.8494 25.6378C17.8494 25.5492 17.8149 25.4638 17.7528 25.3984C17.6907 25.333 17.6054 25.2924 17.5137 25.2847Z" fill="#E8E8E8"/>
<path d="M20.896 23.7083C20.8044 23.716 20.7191 23.7566 20.6569 23.822C20.5948 23.8873 20.5603 23.9728 20.5603 24.0614C20.5603 24.1501 20.5948 24.2355 20.6569 24.3009C20.7191 24.3663 20.8044 24.4068 20.896 24.4146C20.9877 24.4068 21.073 24.3663 21.1351 24.3009C21.1973 24.2355 21.2317 24.1501 21.2317 24.0614C21.2317 23.9728 21.1973 23.8873 21.1351 23.822C21.073 23.7566 20.9877 23.716 20.896 23.7083Z" fill="#E8E8E8"/>
<path d="M23.4915 24.3655C23.3998 24.3732 23.3145 24.4138 23.2524 24.4792C23.1902 24.5446 23.1558 24.63 23.1558 24.7187C23.1558 24.8073 23.1902 24.8928 23.2524 24.9581C23.3145 25.0235 23.3998 25.0641 23.4915 25.0718C23.5831 25.0641 23.6684 25.0235 23.7306 24.9581C23.7927 24.8928 23.8272 24.8073 23.8272 24.7187C23.8272 24.63 23.7927 24.5446 23.7306 24.4792C23.6684 24.4138 23.5831 24.3732 23.4915 24.3655Z" fill="#E8E8E8"/>
<path d="M24.5757 16.6118C24.4841 16.6196 24.3987 16.6602 24.3366 16.7255C24.2745 16.7909 24.24 16.8763 24.24 16.965C24.24 17.0537 24.2745 17.1391 24.3366 17.2045C24.3987 17.2698 24.4841 17.3104 24.5757 17.3182C24.6674 17.3104 24.7527 17.2698 24.8148 17.2045C24.877 17.1391 24.9114 17.0537 24.9114 16.965C24.9114 16.8763 24.877 16.7909 24.8148 16.7255C24.7527 16.6602 24.6674 16.6196 24.5757 16.6118Z" fill="#E8E8E8"/>
<path d="M22.4583 17.4545C22.3736 17.4088 22.2737 17.3969 22.1801 17.4214C22.0864 17.4459 22.0064 17.5048 21.9573 17.5854C21.9434 17.6082 21.9311 17.6319 21.9205 17.6563C21.8919 17.6966 21.8723 17.7422 21.863 17.7901C21.8536 17.8381 21.8547 17.8874 21.8662 17.9349C21.8777 17.9825 21.8994 18.0272 21.9298 18.0662C21.9602 18.1052 21.9987 18.1377 22.0428 18.1617C22.087 18.1856 22.1358 18.2004 22.1862 18.2052C22.2366 18.2099 22.2875 18.2045 22.3356 18.1893C22.3837 18.1741 22.428 18.1494 22.4657 18.1168C22.5034 18.0842 22.5337 18.0444 22.5545 18C22.5545 17.9754 22.58 17.9536 22.5913 17.929C22.6357 17.8484 22.6466 17.7546 22.6219 17.6665C22.5973 17.5784 22.5388 17.5026 22.4583 17.4545Z" fill="#E8E8E8"/>
<path d="M25.4559 15.0491C25.3583 15.0491 25.2647 15.0864 25.1957 15.1529C25.1267 15.2194 25.0879 15.3096 25.0879 15.4036C25.0879 15.4976 25.1267 15.5878 25.1957 15.6543C25.2647 15.7208 25.3583 15.7582 25.4559 15.7582C25.5534 15.7582 25.647 15.7208 25.716 15.6543C25.785 15.5878 25.8238 15.4976 25.8238 15.4036C25.8238 15.3096 25.785 15.2194 25.716 15.1529C25.647 15.0864 25.5534 15.0491 25.4559 15.0491Z" fill="#E8E8E8"/>
<g style="mix-blend-mode:multiply">
<path d="M21.5442 26.6236C22.6339 26.539 23.8086 26.4108 24.6266 25.7126C25.5436 24.9299 25.7587 23.6536 25.9314 22.4836L27.0636 14.4517C27.0828 14.3108 27.0615 14.1675 27.0021 14.0374C26.9427 13.9073 26.8474 13.7954 26.7266 13.7139C26.6058 13.6323 26.4641 13.5843 26.3169 13.5749C26.1697 13.5656 26.0227 13.5953 25.8918 13.6608C25.4502 13.8845 25.0002 14.089 24.5416 14.2799C24.5445 14.3099 24.5445 14.34 24.5416 14.3699C24.5037 15.0295 24.4014 15.6842 24.236 16.3254C23.8426 17.8353 23.1327 19.2516 22.1499 20.4872C20.1459 23.0072 17.1683 24.709 14.0039 25.6008C11.9762 26.1521 9.88332 26.4491 7.77686 26.4845C8.90904 27.1336 10.3752 27.1526 11.7395 27.1199C15.0134 27.0399 18.2816 26.8745 21.5442 26.6236Z" fill="#E8E8E8"/>
</g>
</g>
<defs>
<clipPath id="clip0_246_1813">
<rect width="25.9779" height="27" fill="white" transform="translate(3.63013 3)"/>
</clipPath>
</defs>
</svg>
