<svg width="32" height="32" viewBox="0 0 32 32" fill="none" xmlns="http://www.w3.org/2000/svg">
<rect x="0.318604" width="30.7886" height="32" rx="6" fill="white"/>
<g clip-path="url(#clip0_246_1814)">
<path d="M8.00483 20.252C8.35354 25.0727 12.7408 24.7039 16.8937 24.792C18.1183 24.8168 19.3557 24.7463 20.5788 24.7035C21.4087 24.673 22.3127 24.4736 22.8002 23.9106C23.0435 23.5872 23.1976 23.2222 23.2512 22.8423C23.6311 21.0393 23.5421 19.1722 23.5725 17.3478C23.6083 15.1365 23.6305 12.9271 23.6635 10.7162C23.6687 10.388 23.6894 5.26561 23.8681 5.26766C19.0574 5.23633 14.2223 4.40801 9.41824 4.5747C7.12139 4.65463 7.71102 6.31028 7.67961 7.7441C7.64888 9.71522 7.65992 11.6863 7.71272 13.6572C7.75734 15.3672 7.83328 17.0808 7.94055 18.7981C7.96841 19.2577 7.97239 19.7532 8.00483 20.252Z" fill="#F7A32D"/>
<path d="M9.28056 9.10417C9.28056 9.10417 11.526 10.07 16.5421 9.91962C21.5581 9.76928 22.2985 9.11422 22.2985 9.11422C22.2985 9.11422 22.4765 14.7905 22.0449 17.0589C22.0449 17.0589 17.1134 18.9787 9.45559 16.9289C9.17936 14.3273 9.12087 11.7126 9.28056 9.10417Z" fill="#D88121"/>
<g style="mix-blend-mode:multiply">
<path d="M22.8003 23.9106C23.0436 23.5872 23.1977 23.2222 23.2513 22.8423C23.6312 21.0394 23.5422 19.1723 23.5727 17.3478C23.6084 15.1366 23.6306 12.9272 23.6636 10.7163C23.6688 10.388 23.6895 5.26565 23.8682 5.2677C22.7727 5.26321 21.6763 5.20969 20.5828 5.14175C20.3423 5.27505 20.15 5.46136 20.0271 5.68029C19.9042 5.89922 19.8553 6.14235 19.8858 6.38306C19.9116 7.39513 20.2667 8.41035 20.4107 9.41377C20.5739 10.6529 20.6044 11.9018 20.5018 13.1455C20.3851 14.5742 20.0907 15.9887 19.6236 17.366C19.1737 18.6775 18.5355 19.9952 17.3706 20.9406C16.098 21.9798 14.3039 22.482 12.5314 22.5509C11.15 22.582 9.77088 22.4383 8.44036 22.1247C9.69445 24.9745 13.3845 24.7192 16.9028 24.7955C18.1275 24.8203 19.3649 24.7498 20.5879 24.707C21.4115 24.6727 22.3141 24.4805 22.8003 23.9106Z" fill="#E8E8E8"/>
</g>
<path d="M17.572 23.6986C18.0108 23.4072 18.5184 23.1864 18.9032 22.8437C19.4201 22.3878 19.7235 21.7118 20.4204 21.4756C20.6472 21.4116 20.8881 21.3904 21.1257 21.4135C21.3634 21.4366 21.5922 21.5033 21.7956 21.6091C22.2015 21.8223 22.5545 22.0993 22.8352 22.4251C23.0624 22.7032 23.331 22.9557 23.6345 23.1766C24.1182 23.4876 24.7568 23.5981 25.2245 23.9276C25.3851 24.0332 25.5077 24.1743 25.5785 24.335C25.6137 24.4156 25.626 24.502 25.6142 24.5872C25.6024 24.6724 25.567 24.7541 25.5107 24.8258C25.3813 24.9513 25.2119 25.0433 25.0225 25.0908C24.235 25.3652 23.4145 25.5674 22.5754 25.6941C21.028 25.9058 19.4412 25.761 17.984 25.275C17.6665 25.1692 16.9777 25.0137 16.8348 24.7237C16.6508 24.3618 17.2791 23.8913 17.572 23.6986Z" fill="white"/>
<path d="M26.6415 23.9551C26.721 23.9254 26.8092 23.9159 26.8951 23.9278C26.981 23.9397 27.0608 23.9725 27.1248 24.0221C27.1888 24.0716 27.2341 24.1359 27.2551 24.2069C27.2761 24.2778 27.2719 24.3524 27.2431 24.4214C26.9132 25.2552 26.4292 26.039 25.5361 26.4482C24.8254 26.7751 23.9825 26.7942 23.1772 26.806L19.2115 26.8782C18.4786 26.8899 17.7199 26.898 17.0564 26.6386C16.2493 26.3255 15.502 25.5087 15.1735 24.7283C15.1482 24.6679 15.1418 24.6031 15.1548 24.54C15.1679 24.4769 15.1999 24.4177 15.248 24.368C15.296 24.3183 15.3584 24.2798 15.4292 24.2562C15.5001 24.2325 15.5769 24.2245 15.6525 24.2329C17.6265 24.4424 19.7526 24.8262 21.7325 24.7215C22.7889 24.6674 23.6261 24.6772 24.6607 24.4903C25.3331 24.3454 25.9946 24.1667 26.6415 23.9551Z" fill="#9F4A4A"/>
<g style="mix-blend-mode:multiply">
<path d="M26.6413 23.955C26.4473 24.0201 26.2366 24.0851 26.0278 24.1452C25.9547 24.3835 25.8326 24.6093 25.667 24.8123C25.1641 25.3847 24.4508 25.802 23.6372 25.9995C22.8248 26.1943 21.9846 26.2956 21.1397 26.3006C19.5089 26.3519 17.8758 26.3029 16.2536 26.154C16.4861 26.353 16.7576 26.5168 17.0562 26.6385C17.7197 26.8978 18.4784 26.8898 19.2113 26.8781L23.1665 26.8096C23.9718 26.7978 24.8139 26.7742 25.5255 26.4518C26.4186 26.0426 26.9025 25.2588 27.2324 24.425C27.261 24.3568 27.2654 24.2831 27.2451 24.2128C27.2249 24.1425 27.1808 24.0787 27.1183 24.029C27.0558 23.9792 26.9775 23.9458 26.8928 23.9327C26.8082 23.9196 26.7208 23.9273 26.6413 23.955Z" fill="#E8E8E8"/>
</g>
<path d="M23.8681 5.26769C23.8668 6.58051 21.0905 7.63657 16.5274 7.63325C11.9643 7.62993 7.63146 6.56888 7.63097 5.24693C7.63048 3.92497 11.9361 3.13645 16.4984 3.1352C21.0606 3.13396 23.868 3.94802 23.8681 5.26769Z" fill="#FFB966"/>
</g>
<defs>
<clipPath id="clip0_246_1814">
<rect width="25.9779" height="27" fill="white" transform="translate(3.20508 3)"/>
</clipPath>
</defs>
</svg>
