<svg width="16" height="16" viewBox="0 0 16 16" fill="none" xmlns="http://www.w3.org/2000/svg">
<path d="M11.0002 2C13.0255 2 14.6668 3.66667 14.6668 6C14.6668 10.6667 9.66683 13.3333 8.00016 14.3333C6.3335 13.3333 1.3335 10.6667 1.3335 6C1.3335 3.66667 3.00016 2 5.00016 2C6.24016 2 7.3335 2.66667 8.00016 3.33333C8.66683 2.66667 9.76016 2 11.0002 2ZM8.62283 12.4027C9.21016 12.032 9.74016 11.6633 10.2362 11.2687C12.2235 9.68867 13.3335 7.962 13.3335 6C13.3335 4.42667 12.3088 3.33333 11.0002 3.33333C10.2828 3.33333 9.50683 3.71333 8.94283 4.276L8.00016 5.21867L7.0575 4.276C6.4935 3.71333 5.7175 3.33333 5.00016 3.33333C3.70683 3.33333 2.66683 4.43733 2.66683 6C2.66683 7.96267 3.7775 9.68867 5.7635 11.2687C6.26016 11.6633 6.79016 12.032 7.3775 12.402C7.57683 12.528 7.77416 12.6487 8.00016 12.7833C8.22616 12.6487 8.4235 12.528 8.62283 12.4027Z" fill="#8FA0B4"/>
</svg>
