<svg width="60" height="60" viewBox="0 0 60 60" fill="none" xmlns="http://www.w3.org/2000/svg">
<rect opacity="0.2" width="60" height="60" rx="12" fill="url(#paint0_linear_4_11882)"/>
<g clip-path="url(#clip0_4_11882)">
<path d="M7.26807 35.412C7.4289 35.7898 7.64336 36.1137 7.91142 36.3296C9.14452 37.4092 11.5035 36.6535 13.0047 36.9234C14.5594 37.1932 15.9534 38.1648 17.4545 38.6506C17.7226 38.7586 17.9907 38.8126 18.2051 38.8665C19.5991 39.1364 20.6713 40.0001 22.1725 39.9461C23.9417 39.8381 25.4429 39.1904 27.1585 38.8126C28.7133 38.4347 30.1608 38.2728 31.7692 38.2188C33.3776 38.2188 34.5571 38.5427 36.0583 38.8665C36.4336 38.9205 36.7552 39.0285 37.1305 39.0824C39.7576 39.6222 42.4918 40.0001 45.0653 39.0285C45.3333 38.9205 45.6014 38.8126 45.9231 38.7586C48.0676 38.0569 50.373 37.4092 51.7669 35.466C52.0886 35.0342 52.303 34.5484 52.5175 34.0086C52.8928 32.983 53.0536 31.7415 53.0536 30.7699C53.0536 29.5824 52.6783 28.8807 52.0886 28.3949C51.4452 27.9092 50.5338 27.6932 49.4079 27.5853C48.4965 27.4773 47.6387 27.8012 46.7809 27.8552C46.2448 27.9092 45.7086 27.9092 45.1725 27.9092C42.7599 27.9092 40.2937 27.6932 37.9347 27.1535C36.4872 26.8296 35.1469 26.3978 33.8601 25.858C30.6434 24.5086 27.1049 23.6449 23.6737 23.6989C22.0653 23.6989 20.3496 23.6989 18.7949 23.9148C17.9907 24.0228 17.2401 24.2927 16.4895 24.5086C16.0606 24.6165 15.6853 24.7245 15.2564 24.7785C13.5408 25.0484 12.0932 25.1023 10.6993 26.2359C9.8951 26.8836 8.93007 27.9092 8.44755 28.7728C7.48252 30.2842 6.51748 33.4688 7.26807 35.412Z" fill="#B0502E"/>
<path d="M36.9159 37.625C36.9159 38.1108 36.9696 38.6506 37.1304 39.1364C39.7574 39.6762 42.4917 40.054 45.0651 39.0824C45.3332 38.9745 45.6013 38.8665 45.9229 38.8125C46.4591 38.3807 46.9952 37.841 47.3705 37.2472C48.2283 35.8978 48.3891 34.2245 48.7108 32.6052C48.818 32.0654 48.9789 31.4716 48.8716 30.9319C48.7108 30.0142 47.9066 29.4205 47.1024 28.9347C46.4591 28.5569 45.8157 28.233 45.1187 27.9631C43.4031 27.2614 41.5267 26.8296 39.6502 26.8296C39.0069 26.8296 38.3635 26.8836 37.8274 27.2074C37.7738 27.2074 37.7201 27.2614 37.7201 27.3154C36.9159 27.9091 36.8087 29.0427 36.8087 30.0682C36.7015 32.5512 36.7551 35.0881 36.9159 37.625Z" fill="#C75A34"/>
<path d="M14.1839 32.1734C17.9904 32.3893 21.4752 34.5484 25.2818 34.3325C27.6407 34.2245 29.8925 33.145 32.2515 33.145C34.8249 33.145 37.1839 34.2785 39.7037 34.4944C43.5638 34.8183 47.1559 32.9831 50.4263 31.2018C51.3913 30.662 52.4636 30.0143 52.5172 29.0427C52.5172 28.341 51.9811 27.6933 51.2305 27.3154C50.5335 26.9376 49.6757 26.8296 48.8715 26.6677C42.7596 25.4262 37.023 22.9973 30.8575 21.7018C28.1769 21.1081 25.3354 20.7842 22.5475 21.162C19.1163 21.6478 16.1139 23.2671 13.1652 24.7785C11.7177 25.5342 10.2701 26.3439 9.41229 27.5314C8.55448 28.7728 8.55448 30.5541 9.8412 31.4177C10.9671 32.2814 12.6827 32.1194 14.1839 32.1734Z" fill="#D8774A"/>
<path d="M30.9115 22.1336C28.1773 21.5938 25.3358 21.3239 22.5479 21.7018C19.1167 22.1336 16.1143 23.537 13.1656 24.9404C12.6295 25.2103 12.0934 25.4262 11.6108 25.6961C12.147 25.3722 12.6831 25.1023 13.1656 24.8325C16.1143 23.2671 19.1167 21.6478 22.5479 21.162C25.3358 20.7842 28.1773 21.108 30.8579 21.6478C35.415 22.6194 39.7041 24.1847 44.154 25.4802C39.7041 24.3467 35.415 22.9433 30.9115 22.1336Z" fill="#BF8E7D"/>
<path d="M9.78804 30.8241C10.9675 31.5258 12.6831 31.3639 14.1843 31.4179C17.9908 31.5798 21.4757 33.523 25.2822 33.3071C27.6412 33.1991 29.8929 32.2815 32.2519 32.2275C34.8253 32.2275 37.1843 33.2531 39.7041 33.415C43.5643 33.6849 47.1563 32.0656 50.4804 30.5003C51.3918 30.0684 52.4104 29.4747 52.5177 28.665C52.5177 28.773 52.5713 28.827 52.5177 28.9349C52.464 29.9065 51.3918 30.6082 50.4267 31.094C47.1563 32.8753 43.5643 34.7105 39.7041 34.3866C37.1843 34.1707 34.8253 32.9832 32.2519 33.0372C29.8929 33.0372 27.6412 34.1167 25.2822 34.2247C21.4757 34.4406 17.9908 32.2815 14.1843 32.0656C12.6831 32.0116 10.9675 32.1736 9.78804 31.3639C9.03746 30.8241 8.71578 30.0145 8.7694 29.1508C8.82301 29.8525 9.14469 30.4463 9.78804 30.8241Z" fill="#BF8E7D"/>
<path d="M7.26807 35.4122C7.42891 35.79 7.64336 36.1139 7.91142 36.3298C9.14452 37.4093 11.5035 36.6536 13.0047 36.9235C14.8275 37.2474 16.4359 38.5428 18.2051 38.9207C19.5991 39.1906 20.6713 40.0542 22.1725 40.0002C23.9417 39.8923 25.4429 39.2445 27.1585 38.8667C28.7133 38.4889 30.1608 38.3269 31.7692 38.2729C33.3776 38.2729 34.5571 38.5968 36.0583 38.9207C39.007 39.5144 42.1702 40.1622 45.0653 39.0826C47.4242 38.2729 50.1585 37.7332 51.7133 35.5741C52.035 35.1423 52.2494 34.6565 52.4639 34.1167C48.6573 37.8951 42.9744 39.6764 37.7203 38.6508C34.9324 38.111 31.9837 37.5173 29.1422 38.0031C26.3007 38.4889 23.4592 39.2445 20.6177 38.8127C18.1515 38.4349 15.9534 37.1394 13.4872 36.6536C12.0932 36.3837 10.6457 36.3837 9.25175 36.1139C8.60839 35.9519 7.91142 35.736 7.26807 35.4122Z" fill="#6B301C"/>
<path d="M40.7764 25.9661C42.5456 26.182 44.3684 26.4519 46.1377 26.7218C47.1563 26.8837 48.3358 27.1536 48.8183 28.0712C49.3008 28.9889 48.8183 30.2303 47.9605 30.8781C47.1027 31.5258 46.0304 31.6877 45.0118 31.7957C43.9395 31.9036 42.8673 31.9576 41.795 31.9576C41.4197 31.9576 41.098 31.9576 40.7227 31.9036C40.4011 31.8497 40.0794 31.7417 39.7577 31.6337C38.471 31.2559 37.1843 30.8241 35.8976 30.4462C35.4687 30.2843 34.9325 30.0144 34.9861 29.5826C35.0398 29.1508 35.5223 28.9889 35.8976 28.8809C37.1307 28.5031 38.2565 27.7474 39.1144 26.7758C39.3824 26.4519 39.6505 26.1281 40.0258 26.0201C40.2402 25.9122 40.5083 25.9661 40.7764 25.9661Z" fill="#C96F45"/>
<path d="M24.7994 30.8778C24.9067 29.9062 25.0139 28.9886 25.1211 28.017C25.1747 27.5852 25.2283 27.1534 25.1211 26.7215C24.9603 25.9659 24.3169 25.3721 23.888 24.7244C23.4591 24.0767 23.191 23.1051 23.7808 22.5113C24.4241 21.8636 25.4964 22.2414 26.3542 22.5653C29.3029 23.7528 32.5733 23.6448 35.7365 23.9147C36.3799 23.9687 37.0768 24.0767 37.5593 24.5085C38.0419 24.9403 38.1491 25.8579 37.5593 26.2357C37.1304 26.5056 36.6479 26.3437 36.1654 26.3977C35.522 26.5056 35.0931 27.0454 34.7178 27.5852C34.0745 28.5568 33.2703 29.6363 33.2703 30.8238C32.1444 30.9857 31.0185 30.338 29.8391 30.284C28.1771 30.2301 26.4614 31.3636 24.7994 30.8778Z" fill="#C96F45"/>
<path d="M23.4058 31.0398C23.245 31.2018 22.9769 31.2558 22.7625 31.2558C20.2963 31.5256 17.9909 29.2586 15.5247 29.7444C14.6669 29.9063 13.8091 30.3921 13.0049 30.0683C12.6296 29.9063 12.3615 29.5285 12.0935 29.1506C11.8254 28.7188 11.6109 28.287 11.3965 27.8012C12.6296 27.7472 13.8091 27.2075 15.0422 27.0455C16.5433 26.8836 17.9909 27.3154 19.4384 27.7472C19.9746 26.9376 19.2776 25.858 19.2776 24.8325C19.2776 23.591 20.6179 22.5654 21.7974 22.8893C21.3685 23.8609 22.1727 24.8864 22.7625 25.804C23.5666 27.0995 23.8883 28.7188 23.6739 30.2302C23.6739 30.554 23.6203 30.8239 23.4058 31.0398Z" fill="#C96F45"/>
<path d="M24.6922 23.2132C25.6573 23.2132 26.3543 23.591 26.1934 23.8609C26.944 24.1308 26.944 24.4547 27.3729 24.7785C27.8018 25.1024 28.7132 25.2643 29.1421 25.5882C29.571 25.9121 29.3566 26.2899 29.7855 26.6138C30.268 26.9916 30.8577 27.1535 31.233 27.5314C32.0908 28.2331 32.895 28.9888 33.7529 29.6905C34.0745 29.9604 35.1468 30.3382 35.3076 30.6621C35.4685 30.9319 34.9323 31.0399 34.9323 31.2558C34.9323 31.4717 35.4685 31.6876 35.5221 31.8496C34.7179 31.9035 34.1281 31.3638 33.7529 31.1479C33.1095 30.77 33.3239 30.6081 33.0023 30.1763C32.7878 29.8524 31.8764 29.5285 31.4475 29.2587C31.0722 28.9888 30.9114 28.6649 30.6433 28.395C30.0536 27.7473 28.8741 27.2615 28.2843 26.6677C28.0163 26.3979 27.8554 26.02 27.4801 25.7501C26.8904 25.4263 26.1398 25.3723 25.979 24.8865C25.0675 24.8325 24.7995 24.2388 24.6386 23.9149C23.8881 23.8069 23.7272 23.4831 24.1025 23.2132C24.2633 23.1592 24.5314 23.2132 24.6922 23.2132Z" fill="#642917"/>
<path d="M19.0094 23.3212C19.4383 23.0513 20.8322 23.4831 21.0467 23.753C21.422 24.1848 20.6714 24.5627 21.5828 25.0485C22.3334 25.4263 23.6201 25.5882 24.2098 26.02C24.6924 26.3979 24.5315 26.8297 25.014 27.2615C25.5502 27.6394 26.2471 27.9632 26.6224 28.395C26.9977 28.8808 27.0513 29.2587 27.8555 29.6905C29.0886 30.3382 29.7856 31.2019 29.8928 32.0115C29.3031 31.7416 28.9814 31.3098 28.8206 30.986C27.4266 30.878 26.5152 29.6905 25.9791 29.2047C25.2821 28.503 24.3707 27.9092 23.352 27.3155C22.7087 26.9377 23.0304 26.5598 22.5478 26.182C22.0117 25.8041 21.1003 25.6422 20.6178 25.2104C20.1352 24.7786 19.9744 24.5627 19.8672 24.1308C19.7063 23.645 19.1702 23.4291 18.7949 22.9973L19.0094 23.3212Z" fill="#642917"/>
<path d="M15.2561 24.2929C15.9531 24.2929 17.2398 25.4804 17.7759 25.8042C18.6874 26.398 18.6874 27.1537 19.1699 27.8014C19.6524 28.4491 21.1 29.0429 21.9042 29.6366C22.762 30.2843 23.3517 30.7162 23.3517 31.4718C23.4589 31.094 21.6897 30.1224 21.1 29.7985C20.2421 29.3128 18.5265 28.827 18.3657 28.1792C17.5615 28.0713 17.7223 27.4235 17.6151 27.1537C17.4007 26.6139 16.9718 26.452 16.2748 26.0741C15.6314 25.8042 13.3261 24.2389 15.2561 24.2929Z" fill="#803018"/>
<path d="M31.6619 23.807C33.9137 24.8865 34.2353 26.3979 36.4871 27.4774C37.1305 27.8013 37.2377 27.9632 37.6666 28.341C38.0419 28.7189 38.8997 28.9348 39.3286 29.3126C39.6503 29.5825 39.6503 29.9604 40.0792 30.2842C40.4008 30.5541 40.937 30.716 40.9906 30.9859C41.2587 30.9859 41.8484 30.932 42.1165 30.878C41.6339 30.2842 40.0792 29.7984 39.4894 29.2047C38.8461 28.557 38.6852 27.8013 37.8274 27.1535C37.6666 27.0456 37.1305 26.9916 36.916 26.8297C36.7015 26.6677 36.8624 26.3979 36.7552 26.2359C36.4871 25.8581 35.8437 25.5342 35.3612 25.2104C34.4498 24.5626 33.4848 23.9149 31.7155 23.645C31.3939 23.753 31.3402 23.699 31.6619 23.807Z" fill="#7A2E17"/>
<path d="M39.9184 25.858C39.972 25.8041 39.8111 25.6961 40.0256 25.6961C40.5081 26.2898 40.937 26.9376 41.4731 27.4773C42.0629 28.0171 42.6526 28.1791 43.4032 28.5569C44.0466 28.8808 44.3146 29.4205 44.7972 29.9063C45.0652 30.1222 45.1724 30.2302 45.4405 30.3381C45.655 30.4461 45.9766 30.2842 46.1911 30.5541C46.1911 30.5541 46.2983 30.3921 46.2983 30.4461C45.8158 29.9063 45.1188 29.6364 44.6363 29.0967C44.1538 28.5569 43.5641 28.1251 42.9207 27.6393C42.2237 27.0455 41.0442 24.7245 39.7039 24.9944C39.5431 25.5342 39.8648 25.7501 40.1864 26.1279L39.9184 25.858Z" fill="#803018"/>
<path d="M48.925 29.5826C48.7641 29.2048 47.8527 28.719 47.531 28.2332C47.3166 27.8553 47.2094 27.6934 46.8877 27.3695C46.566 26.9917 46.2443 26.8837 46.0835 26.3979C47.4774 27.2076 48.7641 28.1792 48.925 29.5826Z" fill="#732F1B"/>
<path d="M11.8786 26.128C12.5756 26.6138 13.3798 27.4235 13.8087 28.0712C14.2376 28.7729 14.5593 29.5826 14.9882 30.2303C14.7737 29.8525 14.184 29.7445 13.8087 29.4746C13.4334 29.1508 13.2189 28.7189 13.0045 28.3411C12.522 27.4775 11.7178 26.9377 11.7178 26.0201C11.8786 25.9661 11.825 26.0741 11.8786 26.128Z" fill="#803018"/>
</g>
<defs>
<linearGradient id="paint0_linear_4_11882" x1="60" y1="60" x2="-19.9676" y2="53.812" gradientUnits="userSpaceOnUse">
<stop stop-color="#92A3FD"/>
<stop offset="1" stop-color="#9DCEFF"/>
</linearGradient>
<clipPath id="clip0_4_11882">
<rect width="46" height="19" fill="white" transform="translate(7 21)"/>
</clipPath>
</defs>
</svg>
