<svg width="18" height="18" viewBox="0 0 18 18" fill="none" xmlns="http://www.w3.org/2000/svg">
<g clip-path="url(#clip0_4_8237)">
<path d="M12.7609 4.93213C12.0122 4.19273 11.0516 3.87024 9.90297 3.97012C7.50967 4.18137 6.06253 7.14617 5.48291 8.63394C5.52998 9.02488 5.5707 9.41684 5.60406 9.80904C5.67268 9.77374 5.72777 9.71254 5.75136 9.63256C5.76029 9.60232 6.32873 7.71809 7.42427 6.25105C7.76198 5.7988 8.28409 5.51797 8.84849 5.52114C9.2787 5.52356 9.75383 5.62172 10.1615 5.88103C12.5991 7.43118 13.9443 11.9013 13.9576 11.9461C13.9947 12.0714 14.1096 12.1556 14.2377 12.1556C14.248 12.1556 14.2584 12.155 14.2688 12.1539C14.4091 12.139 14.5187 12.026 14.5292 11.8853C14.5442 11.6875 14.8719 7.01707 12.7609 4.93213Z" fill="#FFC850"/>
<path d="M5.44782 11.5711C5.29116 11.5711 5.16143 11.4469 5.15588 11.2891C5.15247 11.1913 5.07797 8.86602 5.60222 6.33446C6.31037 2.9145 7.79175 0.80073 9.88612 0.221426C11.5882 -0.249456 13.1614 0.0362232 14.316 1.02562C15.6799 2.19422 16.2741 4.18701 15.9891 6.63694C15.9731 6.77479 15.8624 6.88237 15.7243 6.89436C15.5843 6.90807 15.4585 6.81958 15.4188 6.68662C14.4736 3.51356 11.0048 1.37026 8.69211 1.688C8.49773 1.71472 8.31407 1.8018 8.1803 1.94535C5.54935 4.76758 5.73726 11.1914 5.74004 11.2686C5.74559 11.4298 5.61945 11.5654 5.45822 11.5708C5.45467 11.5711 5.45123 11.5711 5.44782 11.5711Z" fill="#FFC850"/>
<path d="M3.79038 0.524405C3.41389 1.78655 2.74508 4.85344 3.40204 9.23317L4.57095 14.7854L5.73986 11.8632C4.31916 7.60114 4.06477 2.37981 4.01935 0.551967C4.01601 0.418409 3.82859 0.396366 3.79038 0.524405Z" fill="#D4F582"/>
<path d="M7.1876 9.17859C5.16316 9.59245 4.86328 14.2012 4.86328 14.2012L6.03219 17.7079C6.03219 17.7079 6.84803 10.9941 7.71118 10.8406C8.55971 10.6897 12.1824 13.4883 13.7743 14.7591C13.8828 14.8457 14.0252 14.7052 13.9395 14.596C12.5678 12.8488 9.13403 8.78069 7.1876 9.17859Z" fill="#AFD755"/>
<path d="M1.9418 4.01765C1.93066 6.17621 2.13987 11.8195 4.32747 17.6221C4.41322 17.8495 4.63354 18 4.87658 18H6.20404C6.41196 18 6.55188 17.7899 6.47274 17.5977C4.21483 12.1112 2.70005 6.19424 2.17197 3.99009C2.13977 3.85554 1.94254 3.87931 1.9418 4.01765Z" fill="#BEE86E"/>
<path d="M15.9111 6.80115C15.8099 3.76885 14.7505 1.23363 12.4979 0.68572C10.6728 0.241802 9.00341 1.09972 8.29688 1.84377C8.41261 1.76045 8.54926 1.70761 8.69217 1.68795C11.0048 1.37021 14.4737 3.51351 15.4189 6.68658C15.4585 6.81958 15.5844 6.90803 15.7244 6.89432C15.7985 6.88792 15.8632 6.85259 15.9111 6.80115Z" fill="#FFDC64"/>
<path d="M10.5072 4.53938C9.22493 4.51371 8.3521 5.10557 7.62451 6.0274C7.9522 5.70945 8.38522 5.51841 8.84861 5.52101C9.27882 5.52344 9.75396 5.62159 10.1617 5.8809C12.5992 7.43105 13.9444 11.9012 13.9577 11.946C13.9948 12.0713 14.1097 12.1554 14.2378 12.1554C14.2481 12.1554 14.2585 12.1549 14.2689 12.1537C14.3676 12.1433 14.4489 12.0828 14.4934 11.9998C14.361 5.26992 11.4205 4.55762 10.5072 4.53938Z" fill="#FFDC64"/>
</g>
<defs>
<clipPath id="clip0_4_8237">
<rect width="18" height="18" fill="white"/>
</clipPath>
</defs>
</svg>
