<svg width="16" height="16" viewBox="0 0 16 16" fill="none" xmlns="http://www.w3.org/2000/svg">
<g clip-path="url(#clip0_4_8192)">
<path d="M7.99905 16.0002C4.53717 16.0002 1.7207 13.1769 1.7207 9.7066C1.7207 7.00766 2.94727 4.6011 4.74814 2.62466C6.2293 0.999097 7.6952 0.103972 7.75686 0.0666904C8.0818 -0.129872 8.51789 0.13794 8.51789 0.500128V4.81153L10.7237 2.75282C10.9151 2.5741 11.2183 2.58647 11.3938 2.78494C12.2321 3.7326 12.8995 4.73332 13.3773 5.75935C16.0421 11.482 12.3686 16.0002 7.99905 16.0002Z" fill="#FE4E33"/>
<path d="M13.3771 5.7593C12.8993 4.73327 12.232 3.73255 11.3936 2.78489C11.2181 2.58639 10.915 2.57405 10.7235 2.75277L8.51773 4.81149V0.500082C8.51773 0.227395 8.27058 0.00830078 8.00977 0.000488281V16.0001C12.3745 15.9926 16.0397 11.4772 13.3771 5.7593Z" fill="#FE1600"/>
<path d="M7.99922 16C6.6836 16 5.61328 14.9271 5.61328 13.6083C5.61328 11.4773 7.68229 10.2155 7.77035 10.1628C7.92472 10.0705 8.118 10.0748 8.26813 10.1737C8.35457 10.2307 10.3851 11.5927 10.3851 13.6083C10.3852 14.9271 9.31485 16 7.99922 16Z" fill="#FEC356"/>
<path d="M10.3848 13.6083C10.3848 11.5927 8.35423 10.2307 8.26783 10.1737C8.18964 10.1222 8.09977 10.0966 8.00977 10.0967V15.9998C9.32036 15.9939 10.3848 14.9235 10.3848 13.6083Z" fill="#FEB020"/>
</g>
<defs>
<clipPath id="clip0_4_8192">
<rect width="16" height="16" fill="white"/>
</clipPath>
</defs>
</svg>
