<svg width="81" height="75" viewBox="0 0 81 75" fill="none" xmlns="http://www.w3.org/2000/svg">
<path d="M59.3999 16.8751C58.7754 16.8751 58.1841 17.0167 57.6559 17.2691C57.9083 16.7409 58.0499 16.1496 58.0499 15.5251C58.0499 13.2883 56.2367 11.4751 53.9999 11.4751C51.7631 11.4751 49.9499 13.2883 49.9499 15.5251C49.9499 16.6434 50.4032 17.6559 51.136 18.389L45.8999 23.6251L51.2999 29.0251L56.536 23.789C57.2691 24.5217 58.2816 24.9751 59.3999 24.9751C61.6367 24.9751 63.4499 23.1619 63.4499 20.9251C63.4499 18.6883 61.6367 16.8751 59.3999 16.8751Z" fill="#96AFB8"/>
<path d="M58.0499 15.5251C58.0499 13.2883 56.2367 11.4751 53.9999 11.4751C51.7631 11.4751 49.9499 13.2883 49.9499 15.5251C49.9499 16.6434 50.4032 17.6559 51.136 18.389L45.8999 23.6251L48.5999 26.3251L55.7439 19.1811C57.1076 18.5292 58.0499 17.1372 58.0499 15.5251Z" fill="#96AFB8"/>
<path d="M58.5002 45.225V43.875C58.5002 32.6913 49.4339 23.625 38.2502 23.625H28.3501C17.1664 23.625 8.1001 32.6913 8.1001 43.875V50.625C8.1001 58.0809 14.1442 64.125 21.6001 64.125H62.1001C68.0647 64.125 72.9001 59.2896 72.9001 53.325C72.9001 51.8338 71.6913 50.625 70.2001 50.625H63.9002C60.9178 50.625 58.5002 48.2073 58.5002 45.225Z" fill="#E28857"/>
<path d="M71.312 50.8641C69.4129 53.9586 65.9972 56.025 62.1001 56.025H21.6001C14.3459 56.025 8.43017 50.3028 8.11528 43.1262C8.10634 43.3748 8.1001 43.624 8.1001 43.875V50.625C8.1001 58.0808 14.1442 64.125 21.6001 64.125H62.1001C68.0647 64.125 72.9001 59.2898 72.9001 53.325C72.9001 52.2299 72.2487 51.2878 71.312 50.8641Z" fill="#E28857"/>
<path d="M60.3002 69.0749C64.2766 69.0749 67.5002 65.8513 67.5002 61.8749C67.5002 57.8984 64.2766 54.6748 60.3002 54.6748C56.3237 54.6748 53.1001 57.8984 53.1001 61.8749C53.1001 65.8513 56.3237 69.0749 60.3002 69.0749Z" fill="#FF6752"/>
<path d="M54.9001 62.55C54.5273 62.55 54.2251 62.2478 54.2251 61.875C54.2251 58.5252 56.9502 55.8 60.3001 55.8C60.6729 55.8 60.9751 56.1023 60.9751 56.475C60.9751 56.8478 60.6729 57.15 60.3001 57.15C57.6948 57.15 55.5751 59.2697 55.5751 61.875C55.5751 62.2478 55.2729 62.55 54.9001 62.55Z" fill="#FF6752"/>
<path d="M20.7005 69.0749C24.677 69.0749 27.9006 65.8513 27.9006 61.8749C27.9006 57.8984 24.677 54.6748 20.7005 54.6748C16.7241 54.6748 13.5005 57.8984 13.5005 61.8749C13.5005 65.8513 16.7241 69.0749 20.7005 69.0749Z" fill="#FF6752"/>
<path d="M15.3 62.55C14.9272 62.55 14.625 62.2478 14.625 61.875C14.625 58.5252 17.3501 55.8 20.7 55.8C21.0728 55.8 21.375 56.1023 21.375 56.475C21.375 56.8478 21.0728 57.15 20.7 57.15C18.0947 57.15 15.975 59.2697 15.975 61.875C15.975 62.2478 15.6728 62.55 15.3 62.55Z" fill="#FF6752"/>
<path d="M12.4877 45.2251C11.7422 45.2251 11.1377 44.6206 11.1377 43.8751C11.1377 34.3841 18.8592 26.6626 28.3502 26.6626C29.0957 26.6626 29.7002 27.2671 29.7002 28.0126C29.7002 28.7581 29.0957 29.3626 28.3502 29.3626C20.3479 29.3626 13.8377 35.8728 13.8377 43.8751C13.8377 44.6206 13.2332 45.2251 12.4877 45.2251Z" fill="#E28857"/>
<path d="M2.7 64.125H78.3C79.7912 64.125 81 65.3338 81 66.825C81 68.3162 79.7912 69.525 78.3 69.525H2.7C1.20876 69.525 0 68.3162 0 66.825C0 65.3338 1.20876 64.125 2.7 64.125Z" fill="#B1BCAE"/>
<path d="M10.3501 69.5251H70.6502L64.8002 74.9251H16.2002L10.3501 69.5251Z" fill="#A2AF9F"/>
<path d="M53.9941 29.2742C53.9979 29.1811 54.0003 29.096 54.0003 29.0248C54.0003 24.5512 50.3739 20.9248 45.9003 20.9248C45.8291 20.9248 45.7442 20.9272 45.6511 20.931C45.3973 20.9388 45.1465 20.958 44.8989 20.9886C40.164 21.4727 24.3003 24.9822 24.3003 39.825C24.3003 45.7896 29.1357 50.625 35.1003 50.625C49.9432 50.625 53.4525 34.7613 53.9365 30.0263C53.9671 29.7788 53.9863 29.528 53.9941 29.2742Z" fill="#E28857"/>
<path d="M28.6879 41.1751C27.9424 41.1751 27.3379 40.5707 27.3379 39.8251C27.3379 34.5976 29.7178 30.4889 34.4114 27.6124C38.022 25.3996 42.484 24.2892 45.2078 24.0106L45.2836 24.002C45.4279 23.9842 45.587 23.9721 45.7441 23.9675C45.7499 23.9672 45.8704 23.963 45.8967 23.9626H45.9073C46.6481 23.9626 47.2512 24.56 47.2571 25.302C47.2629 26.0477 46.6633 26.6567 45.9178 26.6626L45.8393 26.6659C45.7497 26.6687 45.6739 26.6745 45.5992 26.6834L45.4966 26.695C43.0404 26.9461 39.0454 27.9387 35.8218 29.9145C31.8759 32.3328 30.0379 35.482 30.0379 39.8251C30.0379 40.5707 29.4334 41.1751 28.6879 41.1751Z" fill="#E28857"/>
<path d="M32.4003 14.8501C31.8821 14.8501 31.3637 14.6523 30.9685 14.2569C30.1776 13.466 30.1776 12.184 30.9685 11.3931C31.6678 10.6938 31.6678 9.55606 30.9685 8.85693C28.6902 6.57863 28.6902 2.87137 30.9685 0.593072C31.7592 -0.197691 33.0416 -0.197691 33.8323 0.593072C34.6233 1.384 34.6233 2.666 33.8323 3.45693C33.133 4.15623 33.133 5.29394 33.8323 5.99307C36.1106 8.27137 36.1106 11.9786 33.8323 14.2569C33.437 14.6523 32.9186 14.8501 32.4003 14.8501Z" fill="#96AFB8"/>
<path d="M45.8998 14.8501C45.3816 14.8501 44.8632 14.6523 44.468 14.2569C43.6771 13.466 43.6771 12.184 44.468 11.3931C45.1673 10.6938 45.1673 9.55606 44.468 8.85693C42.1897 6.57863 42.1897 2.87137 44.468 0.593072C45.2588 -0.197691 46.5411 -0.197691 47.3319 0.593072C48.1228 1.384 48.1228 2.666 47.3319 3.45693C46.6326 4.15623 46.6326 5.29394 47.3319 5.99307C49.6101 8.27137 49.6101 11.9786 47.3319 14.2569C46.9365 14.6523 46.4181 14.8501 45.8998 14.8501Z" fill="#96AFB8"/>
<path d="M18.8998 14.8501C18.3816 14.8501 17.8632 14.6523 17.468 14.2569C16.6771 13.466 16.6771 12.184 17.468 11.3931C18.1673 10.6938 18.1673 9.55606 17.468 8.85693C15.1897 6.57863 15.1897 2.87137 17.468 0.593072C18.2588 -0.197691 19.5411 -0.197691 20.3319 0.593072C21.1228 1.384 21.1228 2.666 20.3319 3.45693C19.6326 4.15623 19.6326 5.29394 20.3319 5.99307C22.6101 8.27137 22.6101 11.9786 20.3319 14.2569C19.9365 14.6523 19.4181 14.8501 18.8998 14.8501Z" fill="#96AFB8"/>
<path d="M75.5997 58.7251C73.0921 58.7251 73.0921 61.4251 70.5845 61.4251C68.0768 61.4251 68.0768 58.7251 65.5692 58.7251C63.0619 58.7251 63.0619 61.4251 60.5546 61.4251C58.0472 61.4251 58.0472 58.7251 55.5399 58.7251C53.0326 58.7251 53.0326 61.4251 50.5253 61.4251C48.018 61.4251 48.018 58.7251 45.5109 58.7251C43.004 58.7251 43.004 61.4251 40.497 61.4251C37.9901 61.4251 37.9901 58.7251 35.4833 58.7251C32.9767 58.7251 32.9767 61.4251 30.4701 61.4251C27.9629 61.4251 27.9629 58.7251 25.4558 58.7251C22.9489 58.7251 22.9489 61.4251 20.4417 61.4251C17.9348 61.4251 17.9348 58.7251 15.4278 58.7251C12.9209 58.7251 12.9209 61.4251 10.4139 61.4251C7.90666 61.4251 7.90666 58.7251 5.39971 58.7251C3.90846 58.7251 2.69971 59.9339 2.69971 61.4251V64.1251H78.2997V61.4251C78.2997 59.9339 77.091 58.7251 75.5997 58.7251Z" fill="#4CA346"/>
</svg>
