<svg width="83" height="64" viewBox="0 0 83 64" fill="none" xmlns="http://www.w3.org/2000/svg">
<path d="M47.2059 10.4867C45.399 10.9906 43.5596 10.1498 42.7097 8.60208C40.804 5.09274 35.565 4.26205 32.6787 7.08785C31.2687 8.43465 29.2221 8.45572 27.8443 7.50569C24.6152 5.33881 19.7199 6.68883 18.2264 10.548C17.5668 12.2603 15.8044 13.2081 14.0144 12.8739C12.196 12.5079 10.0004 13.4658 8.93066 14.682L31.0229 36.7746C32.4379 36.892 33.8772 36.9819 35.3345 37.0443L55.2201 16.8267C55.4257 12.7991 51.1654 9.36377 47.2059 10.4867Z" fill="#4CA346"/>
<path d="M43.6509 16.1805C47.875 20.4046 54.5467 20.6893 59.1005 17.0346C59.6362 16.6047 59.6727 15.8007 59.1872 15.315L44.5165 0.644251C44.0309 0.158701 43.2268 0.19521 42.7969 0.730939C39.1421 5.28471 39.4268 11.9566 43.6509 16.1805Z" fill="#FF6752"/>
<path d="M44.5295 15.3019C40.492 11.2644 40.492 4.69476 44.5295 0.65725C43.5152 -0.357113 41.8251 -0.171353 41.0493 1.03504C37.8529 6.00489 38.4271 12.7143 42.7721 17.0591C47.117 21.404 53.8264 21.9783 58.7962 18.782C60.0026 18.0061 60.1884 16.3161 59.174 15.3017C55.1367 19.3392 48.5669 19.3392 44.5295 15.3019Z" fill="#FF6752"/>
<path d="M49.5087 10.3227C50.8028 11.6167 52.901 11.6169 54.195 10.3227L49.5087 5.63623C48.2145 6.93044 48.2145 9.02848 49.5087 10.3227Z" fill="#FF9C8F"/>
<path d="M44.0397 7.04815C43.9601 7.72043 43.9672 8.40123 44.0605 9.07173C44.1551 9.75141 44.7829 10.2257 45.4625 10.1311C45.7409 10.0924 45.9847 9.96435 46.1691 9.77971C46.4352 9.5137 46.5777 9.13044 46.5219 8.729C46.4578 8.26886 46.4529 7.80165 46.5075 7.34006C46.5883 6.65846 46.101 6.04055 45.4195 5.96013C44.7382 5.87955 44.1203 6.36671 44.0397 7.04815Z" fill="#FFD885"/>
<path d="M48.564 12.2446C48.3824 12.1043 48.2076 11.9504 48.044 11.7872C47.8793 11.6225 47.7243 11.4462 47.5829 11.2627C47.1641 10.7191 46.3837 10.6181 45.8401 11.0371C45.2964 11.4552 45.1955 12.2362 45.6145 12.7798C45.8207 13.0473 46.0468 13.3046 46.2866 13.5444C46.5246 13.7824 46.7799 14.0068 47.0448 14.2117C47.5449 14.598 48.2465 14.5435 48.682 14.108C48.7193 14.0707 48.7547 14.0304 48.7879 13.9877C49.2073 13.4445 49.1069 12.664 48.564 12.2446Z" fill="#FFD885"/>
<path d="M30.3696 33.7236C29.3234 33.0029 28.9223 31.6614 29.4408 30.4873C30.6057 27.8378 28.8597 24.7464 26.2026 24.2207C25.0562 24.009 24.0588 22.9857 24.0277 21.621C23.998 18.7937 21.0089 16.6117 18.3422 17.4053C17.1615 17.7508 15.8414 17.2565 15.1998 16.1127C13.803 13.5971 10.0134 13.1888 8.13099 15.2836C7.23612 16.3054 5.85233 16.4197 4.5274 16.1281C1.83734 15.5166 -0.87331 17.9483 0.267787 20.546C0.596366 21.3125 1.20945 21.9301 1.89057 22.3176C3.09424 23.0072 4.09235 23.9823 3.92831 25.3734C3.7567 26.8617 4.25463 28.4005 5.31709 29.5125C6.25393 30.4609 7.01498 30.6932 7.6078 30.9388C7.19801 30.7027 6.83292 30.474 6.51367 30.2562C6.83292 30.4741 7.19817 30.7027 7.6078 30.9388C7.84632 31.0375 8.05765 31.1388 8.24212 31.2895C9.62206 32.0229 11.4523 32.8145 13.8609 33.5912C19.0358 35.2598 25.3961 36.3824 32.2775 36.8709C32.0866 35.5795 31.3771 34.3968 30.3696 33.7236Z" fill="#4CA346"/>
<path d="M30.5365 13.5134C24.1311 13.5134 18.9385 18.706 18.9385 25.1115C18.9385 27.38 19.5923 29.4947 20.7182 31.2824C26.1682 32.4111 32.3904 33.0588 38.8848 33.158C40.8955 31.0723 42.1345 28.2374 42.1345 25.1115C42.1344 18.706 36.9416 13.5134 30.5365 13.5134Z" fill="#FF6752"/>
<path d="M31.7796 31.7388V18.484C31.7796 17.7978 31.2233 17.2415 30.537 17.2415C29.8507 17.2415 29.2944 17.7978 29.2944 18.484V31.7388C29.2944 32.0902 29.441 32.4069 29.6753 32.6328C30.1866 32.6843 30.7017 32.7319 31.2199 32.7761C31.5568 32.5542 31.7796 32.1725 31.7796 31.7388Z" fill="#FF9C8F"/>
<path d="M30.5364 28.4247C32.3666 28.4247 33.8502 26.941 33.8502 25.1109C33.8502 23.2807 32.3666 21.7971 30.5364 21.7971C28.7063 21.7971 27.2227 23.2807 27.2227 25.1109C27.2227 26.941 28.7063 28.4247 30.5364 28.4247Z" fill="#FF9C8F"/>
<path d="M30.5364 12.271C23.456 12.271 17.6958 18.0312 17.6958 25.1116C17.6958 27.2039 18.2019 29.179 19.0936 30.9261C20.194 31.1809 21.3296 31.4155 22.4969 31.6286C21.0503 29.8476 20.1813 27.5794 20.1813 25.1116C20.1813 19.4018 24.8267 14.7563 30.5366 14.7563C36.2464 14.7563 40.8918 19.4018 40.8918 25.1116C40.8918 28.3335 39.4124 31.216 37.0977 33.1167C38.2304 33.1517 39.373 33.1702 40.5227 33.1713C42.3062 30.966 43.3773 28.1623 43.3773 25.1116C43.377 18.0312 37.6165 12.271 30.5364 12.271Z" fill="#FF6752"/>
<path d="M25.6708 18.929C25.1391 19.3481 24.6627 19.8344 24.2547 20.3745C23.841 20.9221 23.9494 21.7014 24.4969 22.115C24.7212 22.2844 24.9842 22.3664 25.2451 22.3664C25.6214 22.3664 25.9931 22.1961 26.2376 21.8728C26.5176 21.5021 26.8447 21.1684 27.2096 20.8807C27.7486 20.4559 27.841 19.6743 27.4161 19.1355C26.991 18.5965 26.2097 18.504 25.6708 18.929Z" fill="#FFD885"/>
<path d="M27.2048 29.3386C26.8403 29.0507 26.5137 28.7166 26.234 28.3454C25.821 27.7975 25.0418 27.6881 24.4936 28.1013C23.9457 28.5145 23.8363 29.2935 24.2495 29.8417C24.657 30.3822 25.1331 30.8692 25.6643 31.2888C25.8924 31.469 26.164 31.5564 26.4337 31.5564C26.8009 31.5564 27.1644 31.3943 27.4097 31.0839C27.8351 30.5455 27.7434 29.764 27.2048 29.3386Z" fill="#FFD885"/>
<path d="M25.1959 25.8025C25.1666 25.5751 25.1518 25.3425 25.1518 25.1114C25.1518 24.8785 25.1669 24.6442 25.1967 24.4145C25.2848 23.734 24.8046 23.1107 24.124 23.0225C23.4438 22.9337 22.8201 23.4146 22.732 24.0953C22.6885 24.4301 22.6665 24.7719 22.6665 25.1112C22.6665 25.4479 22.6882 25.787 22.7308 26.1192C22.8114 26.7461 23.346 27.2037 23.9618 27.2037C24.0146 27.2037 24.068 27.2001 24.1217 27.1934C24.8023 27.1059 25.2832 26.4833 25.1959 25.8025Z" fill="#FFD885"/>
<path d="M33.868 20.8843C34.2325 21.1722 34.5591 21.5062 34.8388 21.8774C35.083 22.2015 35.4553 22.372 35.8321 22.372C36.0925 22.372 36.3551 22.2903 36.5792 22.1214C37.1271 21.7082 37.2365 20.9292 36.8233 20.3811C36.4158 19.8405 35.9397 19.3535 35.4085 18.9339C34.87 18.5085 34.0885 18.6 33.6631 19.1386C33.2377 19.6774 33.3293 20.4587 33.868 20.8843Z" fill="#FFD885"/>
<path d="M36.5756 28.1077C36.0278 27.694 35.2487 27.8024 34.8351 28.3499C34.5551 28.7206 34.2279 29.0543 33.863 29.3421C33.3241 29.7668 33.2316 30.5485 33.6565 31.0873C33.9018 31.3983 34.2656 31.5606 34.6332 31.5606C34.9026 31.5606 35.1738 31.4734 35.4018 31.2936C35.9336 30.8745 36.4099 30.3881 36.818 29.848C37.2316 29.3007 37.1232 28.5213 36.5756 28.1077Z" fill="#FFD885"/>
<path d="M38.342 24.1034C38.2545 23.4228 37.6313 22.9421 36.9511 23.0293C36.2705 23.1167 35.7895 23.7395 35.877 24.4201C35.9062 24.6475 35.921 24.8801 35.921 25.1112C35.921 25.3441 35.9059 25.5784 35.8762 25.8081C35.788 26.4886 36.2683 27.112 36.9489 27.2001C37.0031 27.207 37.0568 27.2105 37.11 27.2105C37.7252 27.2105 38.2597 26.7538 38.3409 26.1273C38.3843 25.7925 38.4063 25.4507 38.4063 25.1114C38.4063 24.7748 38.3846 24.4357 38.342 24.1034Z" fill="#FFD885"/>
<path d="M75.8449 10.4392C73.9424 10.8557 71.9554 10.6923 70.6703 9.2328C67.9677 6.24021 62.526 6.82338 60.5203 10.4172C59.5988 12.0512 57.7036 12.7573 56.0081 12.2637C52.1789 11.1296 47.8873 14.247 47.8445 18.286C47.7999 20.2354 46.3676 21.6974 44.7215 21.9999C40.9061 22.751 38.399 27.1671 40.0718 30.9521C40.8163 32.6294 40.2402 34.5457 38.7381 35.5752C38.1465 35.9686 37.6275 36.4842 37.2007 37.0814C38.4854 37.1251 39.7827 37.148 41.0894 37.148C50.9587 37.148 60.3118 35.8846 67.4257 33.5907C68.3785 33.2835 70.0978 32.623 70.8778 32.3155C71.7635 30.8749 72.4518 31.8346 74.7109 29.5591C76.2362 27.9709 76.9514 25.7724 76.705 23.6462C76.4694 21.6591 77.9026 20.266 79.631 19.2809C80.6089 18.7275 81.4894 17.8451 81.961 16.7502C83.5997 13.0394 79.7076 9.56556 75.8449 10.4392Z" fill="#4CA346"/>
<path d="M67.1175 30.9902C66.7274 26.4701 62.9259 22.9099 58.3063 22.9099C53.4283 22.9099 49.46 26.8784 49.46 31.7563C49.46 32.9329 49.6927 34.0558 50.1118 35.0839C55.1193 34.4849 59.7348 33.533 63.6657 32.2655C64.9821 31.8409 66.125 31.4119 67.1175 30.9902Z" fill="#FF6752"/>
<path d="M62.1822 26.7858C62.1822 26.7744 62.1822 26.7628 62.1822 26.7514C62.1742 24.644 60.4481 22.9181 58.3407 22.9099C58.3293 22.9099 58.3177 22.9099 58.3063 22.9099C53.4283 22.9099 49.46 26.8784 49.46 31.7563C49.46 31.7677 49.46 31.7793 49.46 31.7907C49.4651 33.0991 50.1327 34.2603 51.1423 34.9546C53.923 34.5909 56.573 34.1165 59.0418 33.5384C60.9607 31.9147 62.1822 29.4908 62.1822 26.7858Z" fill="#FF6752"/>
<path d="M29.8737 3.10129C28.9072 2.13486 27.3255 2.13486 26.3591 3.10129C25.3927 4.06773 25.3927 5.6495 26.3591 6.61594L29.8737 10.1306C30.8403 11.097 32.422 11.097 33.3884 10.1306C34.3548 9.16415 34.3548 7.58253 33.3884 6.61594L29.8737 3.10129Z" fill="#FF6752"/>
<path d="M68.8098 15.7288H63.8393C62.4724 15.7288 61.354 16.8472 61.354 18.2141C61.354 19.581 62.4724 20.6994 63.8393 20.6994H68.8098C70.1767 20.6994 71.2951 19.581 71.2951 18.2141C71.2951 16.8472 70.1767 15.7288 68.8098 15.7288Z" fill="#FF6752"/>
<path d="M13.6364 21.1611L10.1218 24.6758C9.15536 25.6422 9.15536 27.2238 10.1218 28.1904C11.0882 29.1568 12.6698 29.1568 13.6364 28.1904L17.1511 24.6758C18.1177 23.7093 18.1177 22.1277 17.1511 21.1611C16.1845 20.1947 14.6029 20.1947 13.6364 21.1611Z" fill="#FF6752"/>
<path d="M75.5211 30.8628H40.6451L17.7783 55.8503H17.7819C17.7819 55.9542 17.7836 56.0578 17.7873 56.1611C17.9441 60.5608 21.6095 64 25.9555 64H40.6453H55.3352C59.6811 64 63.3465 60.5609 63.5033 56.1611C63.507 56.0578 63.5088 55.9542 63.5088 55.8503H63.5123C71.9128 51.5319 78.0267 44.9003 80.2145 37.1822C81.1113 34.0178 78.771 30.8628 75.5211 30.8628Z" fill="#A2AF9F"/>
<path d="M50.3116 48.3456C55.7137 41.189 50.6767 30.8628 41.7835 30.8628H5.7692C2.53134 30.8628 0.178383 34 1.0681 37.1539C3.24913 44.8849 9.37005 51.5267 17.7823 55.8503H35.2603C41.113 55.8503 46.6622 53.1354 50.2384 48.4423C50.2628 48.4101 50.2873 48.378 50.3116 48.3456Z" fill="#A2AF9F"/>
</svg>
