<svg width="40" height="41" viewBox="0 0 40 41" fill="none" xmlns="http://www.w3.org/2000/svg">
<ellipse cx="20" cy="20.5" rx="20" ry="20.5" fill="#F7F8F8"/>
<g clip-path="url(#clip0_216_1811)">
<path fill-rule="evenodd" clip-rule="evenodd" d="M32 24.9025C32 27.1653 26.6303 28.9998 20.0006 28.9998C13.3709 28.9998 8 27.1653 8 24.9025C8 22.6397 13.3697 20.8052 20.0006 20.8052C26.6316 20.8052 32 22.6397 32 24.9025Z" fill="#E2CAB3"/>
<path fill-rule="evenodd" clip-rule="evenodd" d="M32 24.4506C32 26.7134 26.6303 28.5479 20.0006 28.5479C13.3709 28.5479 8 26.7134 8 24.4506C8 22.1878 13.3697 20.3533 20.0006 20.3533C26.6316 20.3533 32 22.1878 32 24.4506Z" fill="white"/>
<path fill-rule="evenodd" clip-rule="evenodd" d="M32 24.3858C32 26.5778 26.6303 28.3545 20.0006 28.3545C13.3709 28.3545 8 26.5778 8 24.3858C8 22.1938 13.3697 20.4182 20.0006 20.4182C26.6316 20.4182 32 22.1949 32 24.3858Z" fill="#E7D8C8"/>
<path fill-rule="evenodd" clip-rule="evenodd" d="M31.4681 24.3859C31.4681 25.9503 26.8727 27.2173 21.2045 27.2173C15.5364 27.2173 10.9397 25.9503 10.9397 24.3859C10.9397 22.8215 15.5351 21.5544 21.2045 21.5544C26.8739 21.5544 31.4681 22.8227 31.4681 24.3859Z" fill="#E2CAB3"/>
<path d="M30.6027 24.4874C30.3841 23.52 29.3202 23.1106 28.4798 23.0458C27.9615 23.0068 27.4433 23.1106 26.9263 23.1378C26.639 23.1533 26.3509 23.1423 26.0659 23.1047C25.7512 23.0634 25.4503 22.9561 25.1331 22.9313C24.5824 22.8888 24.0367 23.0693 23.5234 23.2581C22.9203 23.4811 22.3171 23.684 21.699 23.8563C20.4797 24.2072 19.2235 24.4315 17.9527 24.5252C17.4358 24.5696 16.9156 24.5669 16.3992 24.5169C16.0371 24.4744 15.6799 24.3989 15.3178 24.3588C14.6834 24.2916 13.9804 24.3706 13.7244 25.075C13.5324 25.0743 13.3432 25.1172 13.1724 25.2C12.9139 25.305 12.568 25.4914 12.4344 25.7616C12.1559 26.3267 13.0588 26.5485 13.3934 26.6086C13.7119 26.6653 14.0328 26.6853 14.3525 26.7172C14.7971 26.762 15.1542 26.9614 15.5301 27.2044C16.4779 27.8167 17.7429 27.8568 18.8218 27.7861C19.417 27.7439 20.0053 27.6398 20.5763 27.4758C21.1795 27.3059 21.8001 27.4085 22.4095 27.5064C22.933 27.6109 23.4766 27.5799 23.983 27.4168C24.4925 27.2457 24.9345 26.9331 25.3703 26.6193C25.8786 26.2535 26.4568 26.2311 27.0549 26.1851C27.6446 26.1505 28.2297 26.0656 28.8032 25.9315C29.2846 25.8165 29.7534 25.6585 30.2031 25.4596C30.5852 25.2696 30.6926 24.9157 30.6027 24.4874Z" fill="#EEBE30"/>
<path d="M27.1959 23.6462C27.1959 25.1705 23.7705 26.5874 19.6459 26.5874C15.5212 26.5874 12.0684 25.0655 12.0684 23.5412C12.0684 22.017 15.5212 21.0637 19.6459 21.0637C23.7705 21.0637 27.1959 22.122 27.1959 23.6462Z" fill="#E3AC8A"/>
<path d="M27.1135 23.3522C27.1135 24.8765 23.7705 26.1117 19.6459 26.1117C15.5212 26.1117 12.177 24.8765 12.177 23.3522C12.177 21.8279 15.5212 20.5916 19.6459 20.5916C23.7705 20.5916 27.1135 21.8279 27.1135 23.3522Z" fill="#DA840D"/>
<path d="M25.0782 23.0904C25.0782 24.2217 22.5981 25.1372 19.5374 25.1372C16.4767 25.1372 13.9941 24.2217 13.9941 23.0904C13.9941 21.959 16.4779 21.0435 19.5374 21.0435C22.5969 21.0435 25.0782 21.966 25.0782 23.0904Z" fill="#F0A508"/>
<path d="M15.8084 23.8454C15.8084 23.9634 15.6673 24.066 15.4924 24.066C15.3176 24.066 15.1777 23.9669 15.1777 23.8454C15.1777 23.7239 15.3188 23.6248 15.4924 23.6248C15.666 23.6248 15.8084 23.7239 15.8084 23.8454Z" fill="#DA840D"/>
<path d="M15.1779 22.917C15.1761 22.9495 15.1644 22.9809 15.144 23.0071C15.1237 23.0333 15.0956 23.0534 15.0633 23.0647C15.031 23.076 14.9959 23.0782 14.9624 23.0709C14.9288 23.0635 14.8983 23.0471 14.8745 23.0235C14.8508 23 14.8348 22.9703 14.8287 22.9383C14.8226 22.9063 14.8266 22.8733 14.8401 22.8434C14.8537 22.8134 14.8762 22.7879 14.9049 22.77C14.9337 22.7521 14.9673 22.7425 15.0018 22.7424C15.0255 22.7429 15.0489 22.7478 15.0706 22.7568C15.0923 22.7659 15.1119 22.7789 15.1283 22.7951C15.1447 22.8113 15.1575 22.8305 15.166 22.8514C15.1745 22.8723 15.1785 22.8946 15.1779 22.917Z" fill="#DA840D"/>
<path d="M17.3658 24.1132C17.3698 24.1705 17.3554 24.2277 17.3246 24.2773C17.2938 24.3268 17.2479 24.3665 17.193 24.3911C17.138 24.4157 17.0764 24.4242 17.0163 24.4153C16.9562 24.4065 16.9003 24.3808 16.8558 24.3416C16.8114 24.3023 16.7804 24.2514 16.767 24.1953C16.7536 24.1392 16.7583 24.0807 16.7806 24.0272C16.8028 23.9737 16.8416 23.9277 16.8918 23.8953C16.9421 23.8629 17.0015 23.8455 17.0623 23.8454C17.1009 23.8441 17.1393 23.85 17.1754 23.8628C17.2115 23.8756 17.2446 23.895 17.2728 23.9199C17.301 23.9447 17.3237 23.9746 17.3396 24.0078C17.3556 24.041 17.3645 24.0768 17.3658 24.1132Z" fill="#DA840D"/>
<path d="M16.7064 23.0505C16.7064 23.1237 16.6202 23.1839 16.5153 23.1839C16.4104 23.1839 16.323 23.1237 16.323 23.0505C16.323 22.9774 16.4092 22.9172 16.5153 22.9172C16.6215 22.9172 16.7064 22.9762 16.7064 23.0505Z" fill="#DA840D"/>
<path d="M18.6371 23.6828C18.6416 23.7199 18.6342 23.7573 18.6157 23.7903C18.5972 23.8233 18.5685 23.8501 18.5335 23.8673C18.4984 23.8845 18.4587 23.8913 18.4195 23.8867C18.3803 23.8821 18.3435 23.8663 18.314 23.8415C18.2846 23.8167 18.2637 23.784 18.2544 23.7478C18.245 23.7115 18.2475 23.6734 18.2615 23.6386C18.2756 23.6037 18.3005 23.5737 18.333 23.5525C18.3655 23.5313 18.404 23.52 18.4435 23.52C18.4919 23.5177 18.5394 23.5335 18.5756 23.564C18.6118 23.5944 18.6339 23.6371 18.6371 23.6828Z" fill="#DA840D"/>
<path d="M18.7105 24.6657C18.7105 24.7412 18.6181 24.8025 18.5032 24.8025C18.3883 24.8025 18.2959 24.7412 18.2959 24.6657C18.2959 24.5902 18.3896 24.5288 18.5032 24.5288C18.6168 24.5288 18.7105 24.5902 18.7105 24.6657Z" fill="#DA840D"/>
<path d="M17.8842 23.2014C17.882 23.2288 17.8713 23.255 17.8534 23.2767C17.8356 23.2984 17.8114 23.3147 17.7839 23.3236C17.7563 23.3324 17.7266 23.3335 17.6985 23.3265C17.6703 23.3196 17.6449 23.305 17.6255 23.2845C17.606 23.2641 17.5933 23.2387 17.589 23.2115C17.5847 23.1843 17.589 23.1565 17.6012 23.1315C17.6135 23.1066 17.6332 23.0856 17.658 23.0712C17.6828 23.0568 17.7115 23.0495 17.7406 23.0504C17.7805 23.0531 17.8178 23.0703 17.8446 23.0985C17.8714 23.1267 17.8856 23.1635 17.8842 23.2014Z" fill="#DA840D"/>
<path d="M20.0344 23.4882C20.0344 23.5637 19.9445 23.6251 19.8334 23.6251C19.7222 23.6251 19.6323 23.5637 19.6323 23.4882C19.6323 23.4127 19.7222 23.3525 19.8334 23.3525C19.9445 23.3525 20.0344 23.4127 20.0344 23.4882Z" fill="#DA840D"/>
<path d="M20.0344 24.1944C20.0344 24.2393 19.9445 24.2758 19.8334 24.2758C19.7222 24.2758 19.6323 24.2393 19.6323 24.1944C19.6323 24.1496 19.7222 24.113 19.8334 24.113C19.9445 24.113 20.0344 24.1496 20.0344 24.1944Z" fill="#DA840D"/>
<path d="M21.3942 23.7357C21.3942 23.7958 21.313 23.8454 21.2118 23.8454C21.1107 23.8454 21.0308 23.7958 21.0308 23.7357C21.0308 23.6755 21.1119 23.6248 21.2118 23.6248C21.3117 23.6248 21.3942 23.6743 21.3942 23.7357Z" fill="#DA840D"/>
<path d="M21.177 24.5241C21.1856 24.5608 21.1818 24.5992 21.1663 24.6338C21.1508 24.6685 21.1242 24.6977 21.0904 24.7175C21.0565 24.7373 21.0169 24.7467 20.9772 24.7444C20.9374 24.742 20.8994 24.7281 20.8684 24.7044C20.8374 24.6808 20.815 24.6487 20.8041 24.6125C20.7933 24.5763 20.7946 24.5378 20.8079 24.5023C20.8212 24.4668 20.8459 24.4362 20.8784 24.4145C20.911 24.3928 20.9499 24.3812 20.9897 24.3813C21.0345 24.3773 21.0791 24.39 21.1141 24.4167C21.1491 24.4434 21.1717 24.4819 21.177 24.5241Z" fill="#DA840D"/>
<path d="M22.6905 24.295C22.6828 24.3302 22.6646 24.3626 22.6381 24.3884C22.6116 24.4141 22.5779 24.4323 22.541 24.4407C22.504 24.4492 22.4653 24.4475 22.4292 24.436C22.3932 24.4245 22.3614 24.4035 22.3375 24.3756C22.3136 24.3477 22.2985 24.3139 22.2941 24.2782C22.2897 24.2425 22.296 24.2064 22.3125 24.174C22.3289 24.1416 22.3547 24.1143 22.387 24.0952C22.4192 24.0761 22.4565 24.066 22.4945 24.0662C22.5524 24.0724 22.6054 24.0999 22.6421 24.1427C22.6788 24.1855 22.6962 24.2402 22.6905 24.295Z" fill="#DA840D"/>
<path d="M22.5818 23.2639C22.5818 23.3111 22.5181 23.3489 22.4394 23.3489C22.3608 23.3489 22.2983 23.3111 22.2983 23.2639C22.2983 23.2167 22.362 23.1802 22.4394 23.1802C22.5169 23.1802 22.5818 23.2215 22.5818 23.2639Z" fill="#DA840D"/>
<path d="M23.7808 23.5151C23.7808 23.698 23.6947 23.8454 23.5898 23.8454C23.4849 23.8454 23.3975 23.698 23.3975 23.5151C23.3975 23.3322 23.4836 23.1836 23.5898 23.1836C23.6959 23.1836 23.7808 23.3322 23.7808 23.5151Z" fill="#DA840D"/>
<path d="M24.2613 23.1791C24.2613 23.2025 24.2514 23.225 24.2339 23.2416C24.2163 23.2582 24.1925 23.2675 24.1676 23.2675C24.1428 23.2675 24.119 23.2582 24.1014 23.2416C24.0838 23.225 24.074 23.2025 24.074 23.1791C24.074 23.1556 24.0838 23.1331 24.1014 23.1165C24.119 23.0999 24.1428 23.0906 24.1676 23.0906C24.1924 23.0909 24.216 23.1003 24.2335 23.1168C24.251 23.1334 24.261 23.1557 24.2613 23.1791Z" fill="#DA840D"/>
<path d="M21.1121 22.897C21.1121 22.9807 20.9947 23.0504 20.8511 23.0504C20.7075 23.0504 20.5901 22.9807 20.5901 22.897C20.5901 22.8132 20.7062 22.7424 20.8511 22.7424C20.9959 22.7424 21.1121 22.812 21.1121 22.897Z" fill="#DA840D"/>
<path d="M16.2157 22.1017C16.2157 22.1536 16.1245 22.1961 16.0121 22.1961C15.8998 22.1961 15.8086 22.1536 15.8086 22.1017C15.8086 22.0498 15.8998 22.0073 16.0121 22.0073C16.1245 22.0073 16.2157 22.0498 16.2157 22.1017Z" fill="#DA840D"/>
<path d="M17.4145 21.912C17.4145 21.9651 17.3108 22.0076 17.1834 22.0076C17.0561 22.0076 16.9512 21.9651 16.9512 21.912C16.9512 21.8589 17.0548 21.8176 17.1834 21.8176C17.3121 21.8176 17.4145 21.8601 17.4145 21.912Z" fill="#DA840D"/>
<path d="M18.9228 22.1442C18.9228 22.2185 18.7829 22.2799 18.6093 22.2799C18.4358 22.2799 18.2959 22.2185 18.2959 22.1442C18.2959 22.0699 18.437 22.0073 18.6093 22.0073C18.7817 22.0073 18.9228 22.0687 18.9228 22.1442Z" fill="#DA840D"/>
<path d="M20.0343 21.912C20.0346 21.931 20.0288 21.9497 20.0178 21.9655C20.0068 21.9814 19.991 21.9939 19.9725 22.0012C19.9539 22.0086 19.9335 22.0106 19.9138 22.007C19.894 22.0033 19.8759 21.9942 19.8617 21.9808C19.8474 21.9673 19.8378 21.9502 19.8339 21.9315C19.8301 21.9129 19.8322 21.8936 19.84 21.8761C19.8478 21.8586 19.8609 21.8437 19.8778 21.8332C19.8946 21.8228 19.9143 21.8174 19.9344 21.8176C19.9609 21.8176 19.9863 21.8276 20.0051 21.8453C20.0238 21.863 20.0343 21.887 20.0343 21.912Z" fill="#DA840D"/>
<path d="M19.8333 22.6587C19.8333 22.7047 19.7384 22.7425 19.6198 22.7425C19.5011 22.7425 19.4075 22.7047 19.4075 22.6587C19.4075 22.6127 19.5024 22.575 19.6198 22.575C19.7371 22.575 19.8333 22.6127 19.8333 22.6587Z" fill="#DA840D"/>
<path d="M21.5029 21.8705C21.5024 21.8978 21.4932 21.9245 21.4767 21.947C21.4601 21.9694 21.4368 21.9867 21.4098 21.9967C21.3827 22.0066 21.3532 22.0087 21.3249 22.0027C21.2966 21.9967 21.2708 21.9829 21.2509 21.9631C21.2309 21.9432 21.2176 21.9182 21.2128 21.8912C21.2079 21.8641 21.2117 21.8364 21.2235 21.8114C21.2354 21.7864 21.2549 21.7653 21.2796 21.7508C21.3042 21.7364 21.3328 21.7291 21.3618 21.7301C21.3808 21.7305 21.3995 21.7345 21.4169 21.7418C21.4343 21.7491 21.45 21.7596 21.4631 21.7726C21.4762 21.7857 21.4865 21.801 21.4933 21.8178C21.5001 21.8346 21.5034 21.8525 21.5029 21.8705Z" fill="#DA840D"/>
<path d="M22.2982 22.4275C22.2982 22.4511 22.2245 22.4699 22.1321 22.4699C22.0397 22.4699 21.9673 22.4511 21.9673 22.4275C21.9673 22.4039 22.041 22.385 22.1321 22.385C22.2233 22.385 22.2982 22.4039 22.2982 22.4275Z" fill="#DA840D"/>
<path d="M22.8166 22.149C22.8197 22.1614 22.8187 22.1745 22.8136 22.1863C22.8085 22.1981 22.7996 22.2082 22.7881 22.215C22.7767 22.2218 22.7633 22.2251 22.7498 22.2244C22.7363 22.2237 22.7234 22.219 22.7128 22.2111C22.7023 22.2031 22.6946 22.1922 22.6909 22.1799C22.6873 22.1676 22.6877 22.1545 22.6923 22.1425C22.6968 22.1305 22.7052 22.1201 22.7163 22.1128C22.7274 22.1055 22.7406 22.1017 22.7542 22.1018C22.769 22.1005 22.7838 22.1046 22.7955 22.1135C22.8071 22.1223 22.8147 22.135 22.8166 22.149Z" fill="#DA840D"/>
<path d="M22.2983 22.4275C22.2954 22.4531 22.2847 22.4773 22.2676 22.4973C22.2504 22.5173 22.2275 22.5322 22.2016 22.5401C22.1757 22.5481 22.1479 22.5488 22.1216 22.5421C22.0953 22.5355 22.0715 22.5218 22.0533 22.5027C22.035 22.4837 22.023 22.46 22.0186 22.4346C22.0143 22.4092 22.0178 22.3831 22.0288 22.3596C22.0398 22.336 22.0578 22.316 22.0805 22.3019C22.1033 22.2878 22.1299 22.2802 22.1572 22.28C22.1767 22.2809 22.1958 22.2855 22.2135 22.2934C22.2312 22.3013 22.247 22.3124 22.2601 22.3261C22.2732 22.3398 22.2833 22.3558 22.2899 22.3732C22.2964 22.3906 22.2993 22.4091 22.2983 22.4275Z" fill="#DA840D"/>
<path d="M23.1001 22.1912C23.1001 22.2396 23.0226 22.2797 22.9265 22.2797C22.8303 22.2797 22.7542 22.2396 22.7542 22.1912C22.7542 22.1429 22.8316 22.1016 22.9265 22.1016C23.0214 22.1016 23.1001 22.1417 23.1001 22.1912Z" fill="#DA840D"/>
<path d="M27.1959 22.5137C27.1959 24.0367 23.7705 25.4548 19.6459 25.4548C15.5212 25.4548 12.0684 23.9317 12.0684 22.4087C12.0684 20.8856 15.5212 19.9312 19.6459 19.9312C23.7705 19.9312 27.1959 20.9894 27.1959 22.5137Z" fill="#E3AC8A"/>
<path d="M27.1135 22.2187C27.1135 23.743 23.7705 24.9782 19.6459 24.9782C15.5212 24.9782 12.177 23.743 12.177 22.2187C12.177 20.6944 15.5212 19.4592 19.6459 19.4592C23.7705 19.4592 27.1135 20.6944 27.1135 22.2187Z" fill="#DA840D"/>
<path d="M19.5373 24.0049C22.5974 24.0049 25.0781 23.0885 25.0781 21.958C25.0781 20.8276 22.5974 19.9111 19.5373 19.9111C16.4773 19.9111 13.9966 20.8276 13.9966 21.958C13.9966 23.0885 16.4773 24.0049 19.5373 24.0049Z" fill="#F0A508"/>
<path d="M15.8084 22.713C15.8084 22.831 15.6673 22.9337 15.4924 22.9337C15.3176 22.9337 15.1777 22.8346 15.1777 22.713C15.1777 22.5915 15.3188 22.4924 15.4924 22.4924C15.666 22.4924 15.8084 22.5904 15.8084 22.713Z" fill="#DA840D"/>
<path d="M15.178 21.7834C15.177 21.8161 15.1659 21.8477 15.1459 21.8745C15.126 21.9012 15.0982 21.9218 15.0659 21.9337C15.0337 21.9455 14.9984 21.9482 14.9646 21.9412C14.9308 21.9343 14.8999 21.9181 14.8758 21.8946C14.8516 21.8712 14.8354 21.8415 14.829 21.8094C14.8226 21.7773 14.8263 21.7441 14.8398 21.714C14.8533 21.6838 14.8758 21.6581 14.9046 21.64C14.9335 21.622 14.9673 21.6123 15.0019 21.6123C15.0492 21.6132 15.0942 21.6317 15.1271 21.6637C15.1601 21.6957 15.1783 21.7387 15.178 21.7834Z" fill="#DA840D"/>
<path d="M17.3658 22.9806C17.3698 23.0379 17.3554 23.0951 17.3246 23.1447C17.2938 23.1942 17.2479 23.2339 17.193 23.2585C17.138 23.2831 17.0764 23.2916 17.0163 23.2827C16.9562 23.2739 16.9003 23.2482 16.8558 23.209C16.8114 23.1697 16.7804 23.1188 16.767 23.0627C16.7536 23.0066 16.7583 22.9481 16.7806 22.8946C16.8028 22.8411 16.8416 22.7951 16.8918 22.7627C16.9421 22.7303 17.0015 22.7129 17.0623 22.7128C17.1401 22.7105 17.2156 22.7374 17.2724 22.7876C17.3293 22.8378 17.3628 22.9071 17.3658 22.9806Z" fill="#DA840D"/>
<path d="M16.7064 21.9177C16.7064 21.9908 16.6202 22.051 16.5153 22.051C16.4104 22.051 16.323 21.9908 16.323 21.9177C16.323 21.8446 16.4092 21.7832 16.5153 21.7832C16.6215 21.7832 16.7064 21.8481 16.7064 21.9177Z" fill="#DA840D"/>
<path d="M18.6371 22.5561C18.6416 22.5931 18.6342 22.6306 18.6157 22.6636C18.5972 22.6965 18.5685 22.7234 18.5335 22.7406C18.4984 22.7578 18.4587 22.7646 18.4195 22.76C18.3803 22.7553 18.3435 22.7396 18.314 22.7148C18.2846 22.69 18.2637 22.6573 18.2544 22.6211C18.245 22.5848 18.2475 22.5467 18.2615 22.5119C18.2756 22.477 18.3005 22.447 18.333 22.4258C18.3655 22.4046 18.404 22.3933 18.4435 22.3933C18.4919 22.391 18.5394 22.4068 18.5756 22.4373C18.6118 22.4677 18.6339 22.5104 18.6371 22.5561Z" fill="#DA840D"/>
<path d="M18.7105 23.5317C18.7105 23.6072 18.6181 23.6685 18.5032 23.6685C18.3883 23.6685 18.2959 23.6072 18.2959 23.5317C18.2959 23.4562 18.3896 23.396 18.5032 23.396C18.6168 23.396 18.7105 23.4562 18.7105 23.5317Z" fill="#DA840D"/>
<path d="M17.8838 22.0674C17.8818 22.0949 17.8713 22.1212 17.8536 22.1431C17.8359 22.165 17.8118 22.1815 17.7842 22.1905C17.7567 22.1995 17.7269 22.2007 17.6987 22.1939C17.6704 22.1871 17.6449 22.1725 17.6254 22.1521C17.6058 22.1317 17.593 22.1063 17.5886 22.079C17.5842 22.0518 17.5884 22.024 17.6006 21.9989C17.6129 21.9739 17.6326 21.9529 17.6574 21.9384C17.6823 21.9239 17.711 21.9167 17.7402 21.9175C17.78 21.92 17.8173 21.937 17.8441 21.965C17.8709 21.9929 17.8852 22.0297 17.8838 22.0674Z" fill="#DA840D"/>
<path d="M20.0344 22.3554C20.0344 22.4309 19.9445 22.4922 19.8334 22.4922C19.7222 22.4922 19.6323 22.4309 19.6323 22.3554C19.6323 22.2799 19.7222 22.2185 19.8334 22.2185C19.9445 22.2185 20.0344 22.2799 20.0344 22.3554Z" fill="#DA840D"/>
<path d="M20.0344 23.0621C20.0344 23.1069 19.9445 23.1435 19.8334 23.1435C19.7222 23.1435 19.6323 23.1069 19.6323 23.0621C19.6323 23.0173 19.7222 22.9807 19.8334 22.9807C19.9445 22.9807 20.0344 23.0173 20.0344 23.0621Z" fill="#DA840D"/>
<path d="M21.3942 22.6022C21.3942 22.6635 21.313 22.713 21.2118 22.713C21.1107 22.713 21.0308 22.6635 21.0308 22.6022C21.0308 22.5408 21.1119 22.4924 21.2118 22.4924C21.3117 22.4924 21.3942 22.542 21.3942 22.6022Z" fill="#DA840D"/>
<path d="M21.177 23.39C21.1858 23.4267 21.1823 23.4651 21.167 23.4999C21.1517 23.5347 21.1253 23.5641 21.0915 23.5841C21.0577 23.6041 21.0181 23.6136 20.9783 23.6115C20.9385 23.6093 20.9004 23.5955 20.8693 23.572C20.8382 23.5484 20.8155 23.5163 20.8046 23.4801C20.7936 23.4439 20.7948 23.4054 20.808 23.3698C20.8212 23.3343 20.8458 23.3035 20.8784 23.2818C20.9109 23.26 20.9498 23.2484 20.9897 23.2484C21.0343 23.2441 21.079 23.2565 21.114 23.283C21.149 23.3095 21.1717 23.3479 21.177 23.39Z" fill="#DA840D"/>
<path d="M22.6905 23.161C22.6827 23.1959 22.6646 23.228 22.6384 23.2536C22.6121 23.2792 22.5787 23.2972 22.542 23.3056C22.5053 23.314 22.4669 23.3124 22.4311 23.301C22.3954 23.2896 22.3638 23.2689 22.34 23.2412C22.3162 23.2136 22.3011 23.1801 22.2966 23.1447C22.2921 23.1094 22.2983 23.0735 22.3144 23.0413C22.3306 23.0091 22.3561 22.9818 22.3879 22.9627C22.4198 22.9436 22.4567 22.9334 22.4944 22.9333C22.5521 22.9396 22.6049 22.9669 22.6416 23.0095C22.6782 23.052 22.6958 23.1064 22.6905 23.161Z" fill="#DA840D"/>
<path d="M22.5818 22.135C22.5818 22.181 22.5181 22.2188 22.4394 22.2188C22.3608 22.2188 22.2983 22.181 22.2983 22.135C22.2983 22.089 22.362 22.0513 22.4394 22.0513C22.5169 22.0513 22.5818 22.0843 22.5818 22.135Z" fill="#DA840D"/>
<path d="M23.7808 22.3816C23.7808 22.5645 23.6947 22.7131 23.5898 22.7131C23.4849 22.7131 23.3975 22.5645 23.3975 22.3816C23.3975 22.1987 23.4836 22.0513 23.5898 22.0513C23.6959 22.0513 23.7808 22.2023 23.7808 22.3816Z" fill="#DA840D"/>
<path d="M24.2613 22.0462C24.261 22.0696 24.251 22.0919 24.2335 22.1085C24.216 22.125 24.1924 22.1344 24.1676 22.1347C24.1491 22.1347 24.131 22.1295 24.1156 22.1198C24.1002 22.1101 24.0882 22.0963 24.0811 22.0801C24.074 22.0639 24.0722 22.0461 24.0758 22.029C24.0794 22.0118 24.0883 21.9961 24.1014 21.9837C24.1145 21.9713 24.1312 21.9629 24.1494 21.9595C24.1675 21.956 24.1864 21.9578 24.2035 21.9645C24.2206 21.9712 24.2352 21.9825 24.2455 21.9971C24.2558 22.0116 24.2613 22.0287 24.2613 22.0462Z" fill="#DA840D"/>
<path d="M21.1121 21.7635C21.1121 21.8484 20.9947 21.918 20.8511 21.918C20.7075 21.918 20.5901 21.8484 20.5901 21.7635C20.5901 21.6785 20.7062 21.6101 20.8511 21.6101C20.9959 21.6101 21.1121 21.6785 21.1121 21.7635Z" fill="#DA840D"/>
<path d="M16.2157 20.9682C16.2157 21.0213 16.1245 21.0637 16.0121 21.0637C15.8998 21.0637 15.8086 21.0213 15.8086 20.9682C15.8086 20.9151 15.8998 20.8738 16.0121 20.8738C16.1245 20.8738 16.2157 20.9163 16.2157 20.9682Z" fill="#DA840D"/>
<path d="M17.4145 20.7792C17.4145 20.8311 17.3108 20.8736 17.1834 20.8736C17.0561 20.8736 16.9512 20.8311 16.9512 20.7792C16.9512 20.7273 17.0548 20.6848 17.1834 20.6848C17.3121 20.6848 17.4145 20.7273 17.4145 20.7792Z" fill="#DA840D"/>
<path d="M18.9228 21.0106C18.9228 21.0861 18.7829 21.1475 18.6093 21.1475C18.4358 21.1475 18.2959 21.0861 18.2959 21.0106C18.2959 20.9351 18.437 20.8738 18.6093 20.8738C18.7817 20.8738 18.9228 20.9351 18.9228 21.0106Z" fill="#DA840D"/>
<path d="M20.0343 20.7792C20.0346 20.7982 20.0288 20.8168 20.0178 20.8327C20.0068 20.8486 19.991 20.8611 19.9725 20.8684C19.9539 20.8758 19.9335 20.8778 19.9138 20.8742C19.894 20.8705 19.8759 20.8614 19.8617 20.8479C19.8474 20.8345 19.8378 20.8174 19.8339 20.7987C19.8301 20.7801 19.8322 20.7608 19.84 20.7433C19.8478 20.7258 19.8609 20.7108 19.8778 20.7004C19.8946 20.69 19.9143 20.6846 19.9344 20.6848C19.9609 20.6848 19.9863 20.6948 20.0051 20.7125C20.0238 20.7302 20.0343 20.7542 20.0343 20.7792Z" fill="#DA840D"/>
<path d="M19.8333 21.5261C19.8333 21.5721 19.7384 21.6099 19.6198 21.6099C19.5011 21.6099 19.4075 21.5721 19.4075 21.5261C19.4075 21.4801 19.5024 21.4412 19.6198 21.4412C19.7371 21.4412 19.8333 21.4789 19.8333 21.5261Z" fill="#DA840D"/>
<path d="M21.5027 20.738C21.5029 20.7656 21.4944 20.7925 21.4783 20.8155C21.4621 20.8384 21.4391 20.8563 21.4121 20.8668C21.3851 20.8772 21.3555 20.8799 21.3269 20.8743C21.2984 20.8687 21.2722 20.8552 21.2519 20.8354C21.2316 20.8157 21.2179 20.7907 21.2128 20.7635C21.2076 20.7364 21.2111 20.7085 21.2229 20.6833C21.2347 20.6581 21.2542 20.6368 21.2789 20.6222C21.3036 20.6075 21.3324 20.6002 21.3615 20.6012C21.3994 20.6018 21.4355 20.6165 21.4619 20.6421C21.4883 20.6678 21.503 20.7022 21.5027 20.738Z" fill="#DA840D"/>
<path d="M22.2982 21.2947C22.2982 21.3171 22.2245 21.336 22.1321 21.336C22.0397 21.336 21.9673 21.3171 21.9673 21.2947C21.9673 21.2723 22.041 21.2522 22.1321 21.2522C22.2233 21.2522 22.2982 21.2711 22.2982 21.2947Z" fill="#DA840D"/>
<path d="M22.8169 21.0225C22.8197 21.0349 22.8184 21.0479 22.8131 21.0596C22.8078 21.0713 22.7988 21.0812 22.7873 21.0878C22.7758 21.0944 22.7624 21.0975 22.7489 21.0967C22.7355 21.0958 22.7227 21.091 22.7122 21.0829C22.7018 21.0748 22.6943 21.0639 22.6908 21.0516C22.6872 21.0393 22.6878 21.0263 22.6924 21.0143C22.6971 21.0024 22.7055 20.9921 22.7166 20.9849C22.7278 20.9777 22.741 20.9739 22.7544 20.9741C22.7695 20.9728 22.7845 20.9771 22.7962 20.9862C22.8079 20.9952 22.8153 21.0083 22.8169 21.0225Z" fill="#DA840D"/>
<path d="M22.2983 21.2949C22.2954 21.3205 22.2847 21.3448 22.2676 21.3648C22.2504 21.3847 22.2275 21.3996 22.2016 21.4076C22.1757 21.4155 22.1479 21.4162 22.1216 21.4096C22.0953 21.4029 22.0715 21.3893 22.0533 21.3702C22.035 21.3511 22.023 21.3274 22.0186 21.302C22.0143 21.2766 22.0178 21.2506 22.0288 21.227C22.0398 21.2035 22.0578 21.1834 22.0805 21.1693C22.1033 21.1552 22.1299 21.1476 22.1572 21.1475C22.1767 21.1484 22.1958 21.1529 22.2135 21.1608C22.2312 21.1687 22.247 21.1798 22.2601 21.1935C22.2732 21.2072 22.2833 21.2232 22.2899 21.2406C22.2964 21.258 22.2993 21.2765 22.2983 21.2949Z" fill="#DA840D"/>
<path d="M23.1001 21.0577C23.1001 21.1072 23.0226 21.1473 22.9265 21.1473C22.8303 21.1473 22.7542 21.1072 22.7542 21.0577C22.7542 21.0081 22.8316 20.968 22.9265 20.968C23.0214 20.968 23.1001 21.0081 23.1001 21.0577Z" fill="#DA840D"/>
<path d="M27.3145 20.4892C27.3145 22.0122 23.8879 23.4303 19.7633 23.4303C15.6386 23.4303 12.187 21.9072 12.187 20.383C12.187 18.8587 15.6386 17.9114 19.7633 17.9114C23.8879 17.9114 27.3145 18.9649 27.3145 20.4892Z" fill="#E3AC8A"/>
<path d="M27.2309 20.1967C27.2309 21.7209 23.8867 22.9561 19.762 22.9561C15.6373 22.9561 12.2957 21.7186 12.2957 20.1967C12.2957 18.6748 15.6386 17.4348 19.7633 17.4348C23.8879 17.4348 27.2309 18.67 27.2309 20.1967Z" fill="#DA840D"/>
<path d="M25.1967 19.9333C25.1967 21.0635 22.7154 21.9802 19.6559 21.9802C16.5964 21.9802 14.1189 21.0635 14.1189 19.9333C14.1189 18.8031 16.5964 17.8853 19.6559 17.8853C22.7154 17.8853 25.1967 18.8019 25.1967 19.9333Z" fill="#F0A508"/>
<path d="M15.9258 20.6886C15.9258 20.8066 15.7859 20.9093 15.6111 20.9093C15.4362 20.9093 15.2964 20.8102 15.2964 20.6886C15.2964 20.5671 15.4375 20.468 15.6173 20.468C15.7971 20.468 15.9258 20.5659 15.9258 20.6886Z" fill="#DA840D"/>
<path d="M15.2963 19.7589C15.2949 19.7913 15.2834 19.8227 15.2633 19.849C15.2431 19.8754 15.2153 19.8956 15.1832 19.9072C15.151 19.9188 15.116 19.9212 15.0824 19.9142C15.0489 19.9072 15.0182 19.8911 14.9942 19.8678C14.9702 19.8445 14.954 19.8151 14.9475 19.7832C14.941 19.7512 14.9446 19.7182 14.9577 19.6882C14.9708 19.6582 14.993 19.6325 15.0214 19.6142C15.0499 19.5959 15.0834 19.5859 15.1178 19.5854C15.1416 19.5856 15.1651 19.5902 15.1871 19.5991C15.209 19.6079 15.2288 19.6207 15.2454 19.6369C15.2621 19.653 15.2751 19.6721 15.2838 19.693C15.2926 19.714 15.2968 19.7364 15.2963 19.7589Z" fill="#DA840D"/>
<path d="M17.4908 20.9564C17.4945 21.0135 17.48 21.0703 17.4492 21.1196C17.4184 21.1688 17.3726 21.2081 17.3178 21.2325C17.263 21.2568 17.2018 21.265 17.142 21.2561C17.0822 21.2472 17.0266 21.2215 16.9824 21.1823C16.9383 21.1432 16.9076 21.0924 16.8943 21.0366C16.881 20.9808 16.8858 20.9225 16.908 20.8693C16.9303 20.8161 16.9689 20.7705 17.0189 20.7382C17.0689 20.706 17.128 20.6887 17.1886 20.6886C17.2662 20.6864 17.3416 20.7133 17.3983 20.7635C17.4549 20.8137 17.4882 20.8831 17.4908 20.9564Z" fill="#DA840D"/>
<path d="M16.825 19.8921C16.825 19.9664 16.7389 20.0266 16.6327 20.0266C16.5266 20.0266 16.4417 19.9664 16.4417 19.8921C16.4417 19.8178 16.5278 19.7588 16.6327 19.7588C16.7376 19.7588 16.825 19.819 16.825 19.8921Z" fill="#DA840D"/>
<path d="M18.7555 20.5258C18.7601 20.5629 18.7526 20.6004 18.7341 20.6333C18.7156 20.6663 18.6869 20.6931 18.6519 20.7103C18.6168 20.7275 18.5771 20.7343 18.5379 20.7297C18.4987 20.7251 18.4619 20.7093 18.4325 20.6845C18.403 20.6597 18.3821 20.627 18.3728 20.5908C18.3634 20.5545 18.3659 20.5165 18.3799 20.4816C18.394 20.4467 18.4189 20.4167 18.4514 20.3955C18.4839 20.3744 18.5225 20.363 18.5619 20.363C18.6104 20.3607 18.6578 20.3765 18.694 20.407C18.7302 20.4374 18.7523 20.4801 18.7555 20.5258Z" fill="#DA840D"/>
<path d="M18.8291 21.5074C18.8291 21.5829 18.7367 21.6443 18.6218 21.6443C18.507 21.6443 18.4146 21.5829 18.4146 21.5074C18.4146 21.4319 18.507 21.3765 18.6218 21.3765C18.7367 21.3765 18.8291 21.4331 18.8291 21.5074Z" fill="#DA840D"/>
<path d="M18.0028 20.0432C18.0028 20.0805 17.9871 20.1162 17.9592 20.1425C17.9314 20.1688 17.8936 20.1836 17.8542 20.1836C17.8148 20.1836 17.777 20.1688 17.7491 20.1425C17.7212 20.1162 17.7056 20.0805 17.7056 20.0432C17.7056 20.006 17.7212 19.9703 17.7491 19.944C17.777 19.9176 17.8148 19.9028 17.8542 19.9028C17.8936 19.9028 17.9314 19.9176 17.9592 19.944C17.9871 19.9703 18.0028 20.006 18.0028 20.0432Z" fill="#DA840D"/>
<path d="M20.1528 20.331C20.1528 20.4065 20.0629 20.4679 19.9518 20.4679C19.8406 20.4679 19.7507 20.4065 19.7507 20.331C19.7507 20.2555 19.8406 20.1965 19.9518 20.1965C20.0629 20.1965 20.1528 20.2555 20.1528 20.331Z" fill="#DA840D"/>
<path d="M20.1528 21.0377C20.1528 21.0825 20.0629 21.1191 19.9518 21.1191C19.8406 21.1191 19.7507 21.0825 19.7507 21.0377C19.7507 20.9929 19.8406 20.9563 19.9518 20.9563C20.0629 20.9563 20.1528 20.9929 20.1528 21.0377Z" fill="#DA840D"/>
<path d="M21.5128 20.5777C21.5128 20.6391 21.4317 20.6886 21.3305 20.6886C21.2294 20.6886 21.1482 20.6391 21.1482 20.5777C21.1482 20.5164 21.2306 20.468 21.3305 20.468C21.4304 20.468 21.5128 20.5176 21.5128 20.5777Z" fill="#DA840D"/>
<path d="M21.2954 21.3657C21.3045 21.4026 21.3012 21.4414 21.2859 21.4765C21.2707 21.5116 21.2442 21.5413 21.2103 21.5616C21.1763 21.5818 21.1365 21.5916 21.0964 21.5896C21.0563 21.5875 21.0179 21.5737 20.9865 21.5501C20.955 21.5265 20.9321 21.4943 20.921 21.4578C20.9098 21.4214 20.9109 21.3826 20.9241 21.3467C20.9374 21.3109 20.9621 21.2799 20.9948 21.2579C21.0276 21.2359 21.0667 21.2241 21.1069 21.2241C21.1517 21.2195 21.1967 21.2317 21.232 21.2582C21.2673 21.2848 21.2901 21.3234 21.2954 21.3657Z" fill="#DA840D"/>
<path d="M22.8092 21.1402C22.8001 21.1746 22.781 21.2059 22.7541 21.2306C22.7271 21.2553 22.6934 21.2723 22.6567 21.2798C22.6201 21.2873 22.5819 21.285 22.5466 21.2731C22.5112 21.2612 22.4801 21.2402 22.4568 21.2124C22.4334 21.1847 22.4187 21.1513 22.4144 21.1161C22.4101 21.0809 22.4163 21.0452 22.4323 21.0132C22.4483 20.9811 22.4735 20.9539 22.505 20.9347C22.5365 20.9154 22.5731 20.9049 22.6106 20.9043C22.6403 20.9071 22.669 20.9154 22.6951 20.9289C22.7212 20.9423 22.7442 20.9606 22.7628 20.9826C22.7813 21.0046 22.7949 21.0299 22.8029 21.057C22.8109 21.084 22.813 21.1124 22.8092 21.1402Z" fill="#DA840D"/>
<path d="M22.7002 20.1104C22.7002 20.1564 22.6365 20.1941 22.5579 20.1941C22.4792 20.1941 22.4167 20.1564 22.4167 20.1104C22.4167 20.0644 22.4792 20.0266 22.5579 20.0266C22.6365 20.0266 22.7002 20.0644 22.7002 20.1104Z" fill="#DA840D"/>
<path d="M23.8992 20.3569C23.8992 20.5398 23.8131 20.6885 23.7069 20.6885C23.6008 20.6885 23.5159 20.5398 23.5159 20.3569C23.5159 20.1741 23.602 20.0266 23.7069 20.0266C23.8118 20.0266 23.8992 20.1741 23.8992 20.3569Z" fill="#DA840D"/>
<path d="M24.3787 20.0218C24.3784 20.039 24.3728 20.0558 24.3625 20.07C24.3522 20.0842 24.3377 20.0952 24.3208 20.1016C24.3038 20.1081 24.2853 20.1096 24.2675 20.1061C24.2496 20.1026 24.2333 20.0942 24.2205 20.082C24.2077 20.0697 24.199 20.0542 24.1955 20.0373C24.1921 20.0204 24.194 20.0029 24.201 19.987C24.208 19.9711 24.2199 19.9575 24.235 19.948C24.2502 19.9384 24.268 19.9334 24.2862 19.9333C24.3109 19.9337 24.3344 19.9431 24.3517 19.9597C24.369 19.9762 24.3787 19.9986 24.3787 20.0218Z" fill="#DA840D"/>
<path d="M21.2295 19.7388C21.2295 19.8238 21.1133 19.8922 20.9697 19.8922C20.8261 19.8922 20.7087 19.8238 20.7087 19.7388C20.7087 19.6539 20.8249 19.5854 20.9697 19.5854C21.1146 19.5854 21.2295 19.6539 21.2295 19.7388Z" fill="#DA840D"/>
<path d="M16.3344 18.9447C16.3344 18.9966 16.2432 19.0391 16.1308 19.0391C16.0184 19.0391 15.926 18.9966 15.926 18.9447C15.926 18.8928 16.0172 18.8491 16.1308 18.8491C16.2445 18.8491 16.3344 18.8916 16.3344 18.9447Z" fill="#DA840D"/>
<path d="M17.5329 18.7548C17.5329 18.8079 17.4292 18.8492 17.3006 18.8492C17.172 18.8492 17.0696 18.8079 17.0696 18.7548C17.0696 18.7017 17.1732 18.6604 17.3006 18.6604C17.428 18.6604 17.5329 18.7029 17.5329 18.7548Z" fill="#DA840D"/>
<path d="M19.0414 18.986C19.0414 19.0615 18.9016 19.1228 18.728 19.1228C18.5544 19.1228 18.4146 19.0615 18.4146 18.986C18.4146 18.9105 18.5557 18.8491 18.728 18.8491C18.9003 18.8491 19.0414 18.9105 19.0414 18.986Z" fill="#DA840D"/>
<path d="M20.1532 18.7546C20.1504 18.778 20.1387 18.7996 20.1201 18.8153C20.1016 18.8309 20.0776 18.8396 20.0527 18.8396C20.0278 18.8396 20.0038 18.8309 19.9852 18.8153C19.9667 18.7996 19.9549 18.778 19.9521 18.7546C19.9549 18.7313 19.9667 18.7097 19.9852 18.694C20.0038 18.6783 20.0278 18.6697 20.0527 18.6697C20.0776 18.6697 20.1016 18.6783 20.1201 18.694C20.1387 18.7097 20.1504 18.7313 20.1532 18.7546Z" fill="#DA840D"/>
<path d="M19.9517 19.5005C19.9517 19.5477 19.8568 19.5855 19.7382 19.5855C19.6196 19.5855 19.5247 19.5477 19.5247 19.5005C19.5247 19.4533 19.6208 19.4167 19.7382 19.4167C19.8556 19.4167 19.9517 19.4545 19.9517 19.5005Z" fill="#DA840D"/>
<path d="M21.6215 18.7133C21.6218 18.7406 21.6134 18.7674 21.5975 18.7903C21.5816 18.8131 21.5589 18.831 21.5322 18.8417C21.5056 18.8523 21.4761 18.8552 21.4477 18.85C21.4193 18.8448 21.3931 18.8317 21.3726 18.8125C21.352 18.7932 21.338 18.7686 21.3322 18.7418C21.3265 18.715 21.3293 18.6872 21.3403 18.6619C21.3514 18.6366 21.3701 18.615 21.3941 18.5998C21.4182 18.5846 21.4465 18.5764 21.4754 18.5764C21.4946 18.5761 21.5137 18.5794 21.5315 18.5862C21.5493 18.5929 21.5654 18.603 21.5791 18.6157C21.5927 18.6285 21.6034 18.6437 21.6107 18.6605C21.618 18.6772 21.6217 18.6952 21.6215 18.7133Z" fill="#DA840D"/>
<path d="M22.4169 19.2705C22.4169 19.2929 22.3419 19.3118 22.2508 19.3118C22.1596 19.3118 22.0859 19.2929 22.0859 19.2705C22.0859 19.2481 22.1596 19.228 22.2508 19.228C22.3419 19.228 22.4169 19.2528 22.4169 19.2705Z" fill="#DA840D"/>
<path d="M22.9352 18.992C22.9313 19.0048 22.9231 19.0161 22.9119 19.0241C22.9006 19.0322 22.8869 19.0365 22.8727 19.0365C22.8586 19.0365 22.8449 19.0322 22.8336 19.0241C22.8224 19.0161 22.8142 19.0048 22.8103 18.992C22.8142 18.9792 22.8224 18.9679 22.8336 18.9599C22.8449 18.9519 22.8586 18.9475 22.8727 18.9475C22.8869 18.9475 22.9006 18.9519 22.9119 18.9599C22.9231 18.9679 22.9313 18.9792 22.9352 18.992Z" fill="#DA840D"/>
<path d="M22.4169 19.2703C22.414 19.2959 22.4034 19.3201 22.3862 19.3401C22.3691 19.3601 22.3461 19.3749 22.3202 19.3829C22.2943 19.3909 22.2665 19.3916 22.2402 19.3849C22.2139 19.3783 22.1902 19.3646 22.1719 19.3455C22.1537 19.3264 22.1416 19.3028 22.1373 19.2774C22.133 19.2519 22.1365 19.2259 22.1475 19.2024C22.1585 19.1788 22.1764 19.1588 22.1992 19.1447C22.222 19.1305 22.2486 19.1229 22.2758 19.1228C22.2953 19.1237 22.3145 19.1282 22.3321 19.1362C22.3498 19.1441 22.3656 19.1552 22.3788 19.1689C22.3919 19.1826 22.402 19.1986 22.4085 19.216C22.4151 19.2334 22.4179 19.2518 22.4169 19.2703Z" fill="#DA840D"/>
<path d="M23.2185 19.0333C23.2185 19.0829 23.1411 19.123 23.0449 19.123C22.9488 19.123 22.8713 19.0829 22.8713 19.0333C22.8713 18.9838 22.9488 18.9448 23.0449 18.9448C23.1411 18.9448 23.2185 18.9838 23.2185 19.0333Z" fill="#DA840D"/>
<path d="M27.3145 19.1877C27.3145 20.712 23.8879 22.1289 19.7633 22.1289C15.6386 22.1289 12.187 20.607 12.187 19.0827C12.187 17.5585 15.6386 16.6052 19.7633 16.6052C23.8879 16.6052 27.3145 17.6635 27.3145 19.1877Z" fill="#E3AC8A"/>
<path d="M27.2309 18.8988C27.2309 20.4219 23.8867 21.6583 19.762 21.6583C15.6373 21.6583 12.2957 20.4172 12.2957 18.8988C12.2957 17.3805 15.6386 16.1382 19.7633 16.1382C23.8879 16.1382 27.2309 17.3651 27.2309 18.8988Z" fill="#DA840D"/>
<path d="M25.1967 18.6321C25.1967 19.7623 22.7154 20.679 19.6559 20.679C16.5964 20.679 14.1189 19.7623 14.1189 18.6321C14.1189 17.5018 16.5964 16.584 19.6559 16.584C22.7154 16.584 25.1967 17.5007 25.1967 18.6321Z" fill="#F0A508"/>
<path d="M15.9258 19.3874C15.9258 19.5053 15.7859 19.608 15.6111 19.608C15.4362 19.608 15.2964 19.5089 15.2964 19.3874C15.2964 19.2658 15.4375 19.1667 15.6111 19.1667C15.7847 19.1667 15.9258 19.2658 15.9258 19.3874Z" fill="#DA840D"/>
<path d="M15.2963 18.4576C15.2949 18.4901 15.2834 18.5214 15.2633 18.5478C15.2431 18.5741 15.2153 18.5943 15.1832 18.6059C15.151 18.6175 15.116 18.6199 15.0824 18.6129C15.0489 18.6059 15.0182 18.5898 14.9942 18.5665C14.9702 18.5432 14.954 18.5138 14.9475 18.4819C14.941 18.45 14.9446 18.417 14.9577 18.3869C14.9708 18.3569 14.993 18.3312 15.0214 18.3129C15.0499 18.2947 15.0834 18.2847 15.1178 18.2842C15.1416 18.2843 15.1651 18.289 15.1871 18.2978C15.209 18.3066 15.2288 18.3195 15.2454 18.3356C15.2621 18.3517 15.2751 18.3708 15.2838 18.3918C15.2926 18.4127 15.2968 18.4351 15.2963 18.4576Z" fill="#DA840D"/>
<path d="M17.1848 19.9226C17.3517 19.9226 17.487 19.8027 17.487 19.6548C17.487 19.5069 17.3517 19.387 17.1848 19.387C17.0179 19.387 16.8826 19.5069 16.8826 19.6548C16.8826 19.8027 17.0179 19.9226 17.1848 19.9226Z" fill="#DA840D"/>
<path d="M16.825 18.5923C16.825 18.6654 16.7389 18.7256 16.6327 18.7256C16.5266 18.7256 16.4417 18.663 16.4417 18.5923C16.4417 18.5215 16.5278 18.4578 16.6327 18.4578C16.7376 18.4578 16.825 18.5179 16.825 18.5923Z" fill="#DA840D"/>
<path d="M18.7555 19.2245C18.7601 19.2616 18.7526 19.2991 18.7341 19.332C18.7156 19.365 18.6869 19.3919 18.6519 19.4091C18.6168 19.4263 18.5771 19.433 18.5379 19.4284C18.4987 19.4238 18.4619 19.408 18.4325 19.3832C18.403 19.3584 18.3821 19.3257 18.3728 19.2895C18.3634 19.2533 18.3659 19.2152 18.3799 19.1803C18.394 19.1455 18.4189 19.1155 18.4514 19.0943C18.4839 19.0731 18.5225 19.0617 18.5619 19.0617C18.6104 19.0595 18.6578 19.0753 18.694 19.1057C18.7302 19.1362 18.7523 19.1788 18.7555 19.2245Z" fill="#DA840D"/>
<path d="M18.8291 20.2057C18.8291 20.2812 18.7367 20.3426 18.6218 20.3426C18.507 20.3426 18.4146 20.2812 18.4146 20.2057C18.4146 20.1302 18.507 20.0701 18.6218 20.0701C18.7367 20.0701 18.8291 20.1314 18.8291 20.2057Z" fill="#DA840D"/>
<path d="M18.0026 18.7428C18.0004 18.77 17.9899 18.7961 17.9723 18.8177C17.9547 18.8393 17.9308 18.8557 17.9035 18.8647C17.8762 18.8737 17.8468 18.875 17.8187 18.8685C17.7907 18.8619 17.7653 18.8478 17.7456 18.8278C17.7259 18.8078 17.7128 18.7828 17.7079 18.7559C17.7031 18.729 17.7066 18.7013 17.7181 18.6763C17.7296 18.6513 17.7486 18.6299 17.7727 18.6149C17.7969 18.5999 17.8251 18.5919 17.854 18.5918C17.8948 18.5933 17.9334 18.6101 17.9612 18.6384C17.9891 18.6667 18.0039 18.7042 18.0026 18.7428Z" fill="#DA840D"/>
<path d="M20.1528 19.0299C20.1528 19.1054 20.0629 19.1667 19.9518 19.1667C19.8406 19.1667 19.7507 19.1054 19.7507 19.0299C19.7507 18.9544 19.8406 18.8989 19.9518 18.8989C20.0629 18.8989 20.1528 18.9544 20.1528 19.0299Z" fill="#DA840D"/>
<path d="M20.1528 19.7364C20.1528 19.7813 20.0629 19.8178 19.9518 19.8178C19.8406 19.8178 19.7507 19.7813 19.7507 19.7364C19.7507 19.6916 19.8406 19.655 19.9518 19.655C20.0629 19.655 20.1528 19.6916 20.1528 19.7364Z" fill="#DA840D"/>
<path d="M21.5128 19.2765C21.5128 19.3378 21.4317 19.3874 21.3305 19.3874C21.2294 19.3874 21.1482 19.3378 21.1482 19.2765C21.1482 19.2151 21.2306 19.1667 21.3305 19.1667C21.4304 19.1667 21.5128 19.2163 21.5128 19.2765Z" fill="#DA840D"/>
<path d="M21.2954 20.0644C21.3045 20.1014 21.3012 20.1401 21.2859 20.1752C21.2707 20.2103 21.2442 20.24 21.2103 20.2603C21.1763 20.2806 21.1365 20.2903 21.0964 20.2883C21.0563 20.2863 21.0179 20.2725 20.9865 20.2489C20.955 20.2253 20.9321 20.193 20.921 20.1566C20.9098 20.1201 20.9109 20.0813 20.9241 20.0455C20.9374 20.0096 20.9621 19.9786 20.9948 19.9566C21.0276 19.9346 21.0667 19.9228 21.1069 19.9228C21.1517 19.9182 21.1967 19.9305 21.232 19.957C21.2673 19.9835 21.2901 20.0221 21.2954 20.0644Z" fill="#DA840D"/>
<path d="M22.8092 19.8426C22.8001 19.877 22.781 19.9083 22.754 19.933C22.7271 19.9577 22.6934 19.9747 22.6567 19.9822C22.62 19.9897 22.5819 19.9874 22.5465 19.9755C22.5112 19.9636 22.4801 19.9426 22.4568 19.9148C22.4334 19.8871 22.4187 19.8537 22.4144 19.8185C22.4101 19.7833 22.4163 19.7476 22.4323 19.7156C22.4483 19.6835 22.4735 19.6563 22.505 19.6371C22.5365 19.6178 22.5731 19.6073 22.6106 19.6067C22.6403 19.6093 22.6691 19.6176 22.6953 19.631C22.7216 19.6444 22.7446 19.6626 22.7632 19.6847C22.7817 19.7067 22.7954 19.7321 22.8033 19.7592C22.8112 19.7864 22.8132 19.8147 22.8092 19.8426Z" fill="#DA840D"/>
<path d="M22.7002 18.8094C22.7002 18.8565 22.6365 18.8943 22.5579 18.8943C22.4792 18.8943 22.4167 18.8565 22.4167 18.8094C22.4167 18.7622 22.4792 18.7256 22.5579 18.7256C22.6365 18.7256 22.7002 18.7633 22.7002 18.8094Z" fill="#DA840D"/>
<path d="M23.8992 19.0559C23.8992 19.2388 23.8131 19.3874 23.7069 19.3874C23.6008 19.3874 23.5159 19.2388 23.5159 19.0559C23.5159 18.8731 23.602 18.7256 23.7069 18.7256C23.8118 18.7256 23.8992 18.8742 23.8992 19.0559Z" fill="#DA840D"/>
<path d="M24.3787 18.7208C24.3784 18.738 24.3728 18.7548 24.3625 18.769C24.3522 18.7832 24.3377 18.7942 24.3208 18.8006C24.3039 18.8071 24.2853 18.8086 24.2675 18.8051C24.2496 18.8016 24.2333 18.7932 24.2205 18.7809C24.2077 18.7687 24.199 18.7531 24.1955 18.7362C24.1921 18.7193 24.194 18.7018 24.201 18.686C24.208 18.6701 24.2199 18.6565 24.235 18.647C24.2502 18.6374 24.268 18.6323 24.2863 18.6323C24.2985 18.6323 24.3106 18.6346 24.3219 18.6391C24.3332 18.6435 24.3434 18.6501 24.352 18.6583C24.3606 18.6665 24.3674 18.6763 24.372 18.687C24.3766 18.6978 24.3788 18.7092 24.3787 18.7208Z" fill="#DA840D"/>
<path d="M21.2295 18.4375C21.2295 18.5225 21.1133 18.5921 20.9697 18.5921C20.8261 18.5921 20.7087 18.5225 20.7087 18.4375C20.7087 18.3526 20.8249 18.2842 20.9697 18.2842C21.1146 18.2842 21.2295 18.3526 21.2295 18.4375Z" fill="#DA840D"/>
<path d="M16.3344 17.6435C16.3344 17.6954 16.2432 17.7378 16.1308 17.7378C16.0184 17.7378 15.926 17.6954 15.926 17.6435C15.926 17.5915 16.0172 17.5491 16.1308 17.5491C16.2445 17.5491 16.3344 17.5915 16.3344 17.6435Z" fill="#DA840D"/>
<path d="M17.5329 17.4535C17.5329 17.5066 17.4292 17.5491 17.3006 17.5491C17.172 17.5491 17.0696 17.5066 17.0696 17.4535C17.0696 17.4004 17.1732 17.3591 17.3006 17.3591C17.428 17.3591 17.5329 17.4016 17.5329 17.4535Z" fill="#DA840D"/>
<path d="M19.0414 17.6847C19.0414 17.7602 18.9016 17.8216 18.728 17.8216C18.5544 17.8216 18.4146 17.7602 18.4146 17.6847C18.4146 17.6092 18.5557 17.5491 18.728 17.5491C18.9003 17.5491 19.0414 17.6092 19.0414 17.6847Z" fill="#DA840D"/>
<path d="M20.153 17.4535C20.1532 17.4725 20.1475 17.4912 20.1364 17.507C20.1254 17.5229 20.1096 17.5354 20.0911 17.5428C20.0726 17.5501 20.0521 17.5521 20.0324 17.5485C20.0127 17.5448 19.9945 17.5357 19.9803 17.5223C19.9661 17.5088 19.9564 17.4917 19.9526 17.473C19.9487 17.4544 19.9508 17.4351 19.9586 17.4176C19.9664 17.4001 19.9796 17.3852 19.9964 17.3748C20.0132 17.3643 20.033 17.3589 20.0531 17.3591C20.0796 17.3591 20.105 17.3691 20.1237 17.3868C20.1424 17.4045 20.153 17.4285 20.153 17.4535Z" fill="#DA840D"/>
<path d="M19.9517 18.2002C19.9517 18.2462 19.8568 18.2839 19.7382 18.2839C19.6196 18.2839 19.5247 18.2462 19.5247 18.2002C19.5247 18.1542 19.6208 18.1152 19.7382 18.1152C19.8556 18.1152 19.9517 18.153 19.9517 18.2002Z" fill="#DA840D"/>
<path d="M21.6215 17.4123C21.6218 17.4396 21.6134 17.4664 21.5975 17.4893C21.5816 17.5121 21.5589 17.53 21.5322 17.5406C21.5056 17.5512 21.4761 17.5541 21.4477 17.549C21.4193 17.5438 21.3931 17.5307 21.3726 17.5115C21.352 17.4922 21.338 17.4676 21.3322 17.4408C21.3265 17.414 21.3293 17.3862 21.3403 17.3609C21.3514 17.3356 21.3701 17.314 21.3941 17.2987C21.4182 17.2835 21.4465 17.2754 21.4754 17.2754C21.4946 17.2752 21.5135 17.2787 21.5313 17.2855C21.549 17.2923 21.5651 17.3023 21.5787 17.3151C21.5923 17.3278 21.603 17.3429 21.6104 17.3596C21.6178 17.3763 21.6215 17.3942 21.6215 17.4123Z" fill="#DA840D"/>
<path d="M22.4169 17.9692C22.4169 17.9916 22.3419 18.0105 22.2508 18.0105C22.1596 18.0105 22.0859 17.9916 22.0859 17.9692C22.0859 17.9468 22.1596 17.9268 22.2508 17.9268C22.3419 17.9268 22.4169 17.9456 22.4169 17.9692Z" fill="#DA840D"/>
<path d="M22.9355 17.6908C22.9386 17.7031 22.9376 17.7161 22.9325 17.7279C22.9275 17.7397 22.9187 17.7497 22.9073 17.7566C22.896 17.7634 22.8827 17.7668 22.8692 17.7662C22.8557 17.7656 22.8428 17.761 22.8322 17.7532C22.8216 17.7453 22.8139 17.7346 22.8101 17.7224C22.8062 17.7102 22.8065 17.6972 22.8108 17.6851C22.8152 17.6731 22.8234 17.6626 22.8343 17.6552C22.8452 17.6477 22.8583 17.6437 22.8718 17.6436C22.8868 17.6422 22.9018 17.6463 22.9136 17.6551C22.9255 17.6639 22.9333 17.6767 22.9355 17.6908Z" fill="#DA840D"/>
<path d="M22.4169 17.969C22.414 17.9946 22.4034 18.0188 22.3862 18.0388C22.3691 18.0588 22.3461 18.0737 22.3202 18.0816C22.2943 18.0896 22.2665 18.0903 22.2402 18.0836C22.2139 18.077 22.1902 18.0633 22.1719 18.0442C22.1537 18.0252 22.1416 18.0015 22.1373 17.9761C22.133 17.9507 22.1365 17.9246 22.1475 17.9011C22.1585 17.8775 22.1764 17.8575 22.1992 17.8434C22.222 17.8293 22.2486 17.8217 22.2758 17.8215C22.2953 17.8224 22.3145 17.827 22.3321 17.8349C22.3498 17.8428 22.3656 17.8539 22.3788 17.8676C22.3919 17.8813 22.402 17.8973 22.4085 17.9147C22.4151 17.9321 22.4179 17.9506 22.4169 17.969Z" fill="#DA840D"/>
<path d="M23.2185 17.732C23.2185 17.7816 23.1411 17.8217 23.0449 17.8217C22.9488 17.8217 22.8713 17.7816 22.8713 17.732C22.8713 17.6825 22.9488 17.6436 23.0449 17.6436C23.1411 17.6436 23.2185 17.6837 23.2185 17.732Z" fill="#DA840D"/>
<path d="M27.0261 17.8477C26.8513 16.3824 23.7194 15.2168 19.8807 15.2168C16.2892 15.2168 13.3172 16.2373 12.8052 17.5669C12.6869 17.7466 12.623 17.9534 12.6204 18.165C12.6204 19.6893 15.9296 21.2124 19.8807 21.2124C23.8318 21.2124 27.1135 19.7967 27.1135 18.27C27.1133 18.1253 27.0836 17.9819 27.0261 17.8477Z" fill="#C66720"/>
<path d="M27.4669 17.5834C27.4669 19.1077 24.0403 20.5257 19.9156 20.5257C15.7909 20.5257 12.3394 19.0027 12.3394 17.4831C12.3394 15.9636 15.7909 15.0056 19.9156 15.0056C24.0403 15.0056 27.4669 16.0591 27.4669 17.5834Z" fill="#E3AC8A"/>
<path d="M27.4007 17.2898C27.4007 18.814 24.154 19.9655 20.033 19.9655C15.9121 19.9655 12.5654 18.7303 12.5654 17.206C12.5654 15.6817 15.9084 14.4465 20.033 14.4465C24.1577 14.4465 27.4007 15.7655 27.4007 17.2898Z" fill="#DA840D"/>
<path d="M19.8083 19.0745C22.8684 19.0745 25.3491 18.1581 25.3491 17.0276C25.3491 15.8971 22.8684 14.9807 19.8083 14.9807C16.7483 14.9807 14.2676 15.8971 14.2676 17.0276C14.2676 18.1581 16.7483 19.0745 19.8083 19.0745Z" fill="#F0A508"/>
<path d="M16.0783 17.7826C16.0783 17.9006 15.9372 18.0044 15.7637 18.0044C15.5901 18.0044 15.449 17.9053 15.449 17.7826C15.449 17.6599 15.5901 17.562 15.7637 17.562C15.9372 17.562 16.0783 17.6611 16.0783 17.7826Z" fill="#DA840D"/>
<path d="M15.4486 16.8541C15.4469 16.8866 15.4351 16.9179 15.4148 16.9441C15.3944 16.9704 15.3664 16.9904 15.3341 17.0017C15.3018 17.0131 15.2667 17.0152 15.2331 17.0079C15.1996 17.0006 15.169 16.9841 15.1453 16.9605C15.1215 16.937 15.1056 16.9073 15.0995 16.8753C15.0934 16.8433 15.0973 16.8103 15.1109 16.7804C15.1244 16.7505 15.147 16.7249 15.1757 16.707C15.2044 16.6891 15.2381 16.6795 15.2725 16.6794C15.2963 16.6799 15.3197 16.6848 15.3414 16.6938C15.3631 16.7029 15.3827 16.7159 15.3991 16.7321C15.4154 16.7483 15.4282 16.7675 15.4367 16.7884C15.4452 16.8093 15.4493 16.8316 15.4486 16.8541Z" fill="#DA840D"/>
<path d="M17.6393 18.0516C17.6428 18.1086 17.6281 18.1654 17.5971 18.2144C17.5661 18.2635 17.5202 18.3027 17.4654 18.3268C17.4105 18.351 17.3493 18.3591 17.2896 18.35C17.2299 18.3409 17.1744 18.3151 17.1304 18.2759C17.0863 18.2367 17.0558 18.1859 17.0426 18.1302C17.0295 18.0744 17.0344 18.0161 17.0566 17.963C17.0789 17.9099 17.1175 17.8643 17.1675 17.8321C17.2175 17.7999 17.2766 17.7827 17.3371 17.7826C17.3756 17.7815 17.414 17.7876 17.4501 17.8005C17.4861 17.8134 17.5191 17.8329 17.5472 17.8579C17.5753 17.8829 17.5978 17.9129 17.6136 17.9461C17.6294 17.9793 17.6382 18.0152 17.6393 18.0516Z" fill="#DA840D"/>
<path d="M16.9774 16.9876C16.9774 17.0619 16.8912 17.1209 16.7851 17.1209C16.6789 17.1209 16.594 17.0619 16.594 16.9876C16.594 16.9132 16.6802 16.8542 16.7851 16.8542C16.89 16.8542 16.9774 16.9144 16.9774 16.9876Z" fill="#DA840D"/>
<path d="M18.9081 17.6199C18.9126 17.6569 18.9052 17.6944 18.8867 17.7274C18.8682 17.7603 18.8395 17.7872 18.8045 17.8044C18.7694 17.8216 18.7297 17.8284 18.6905 17.8237C18.6513 17.8191 18.6145 17.8034 18.585 17.7786C18.5556 17.7538 18.5347 17.7211 18.5254 17.6848C18.516 17.6486 18.5185 17.6105 18.5325 17.5757C18.5466 17.5408 18.5715 17.5108 18.604 17.4896C18.6365 17.4684 18.675 17.4571 18.7145 17.4571C18.763 17.4545 18.8106 17.4702 18.8469 17.5007C18.8832 17.5312 18.9052 17.5741 18.9081 17.6199Z" fill="#DA840D"/>
<path d="M18.9815 18.6027C18.9815 18.6782 18.8891 18.7395 18.7742 18.7395C18.6593 18.7395 18.5669 18.6782 18.5669 18.6027C18.5669 18.5272 18.6593 18.4658 18.7742 18.4658C18.8891 18.4658 18.9815 18.5272 18.9815 18.6027Z" fill="#DA840D"/>
<path d="M18.1549 17.1386C18.1527 17.1658 18.1422 17.1918 18.1246 17.2135C18.107 17.2351 18.0831 17.2514 18.0558 17.2605C18.0286 17.2695 17.9991 17.2708 17.9711 17.2642C17.943 17.2577 17.9176 17.2435 17.8979 17.2235C17.8782 17.2035 17.8652 17.1786 17.8603 17.1517C17.8554 17.1248 17.8589 17.0971 17.8704 17.072C17.8819 17.047 17.9009 17.0257 17.9251 17.0107C17.9492 16.9957 17.9774 16.9876 18.0063 16.9875C18.0266 16.9882 18.0466 16.9926 18.065 17.0005C18.0835 17.0084 18.1001 17.0197 18.114 17.0338C18.1278 17.0478 18.1385 17.0643 18.1455 17.0823C18.1526 17.1003 18.1558 17.1194 18.1549 17.1386Z" fill="#DA840D"/>
<path d="M20.3054 17.4264C20.3054 17.5019 20.2155 17.5621 20.1044 17.5621C19.9932 17.5621 19.9033 17.5019 19.9033 17.4264C19.9033 17.3509 19.9932 17.2896 20.1044 17.2896C20.2155 17.2896 20.3054 17.3509 20.3054 17.4264Z" fill="#DA840D"/>
<path d="M20.3054 18.1332C20.3054 18.178 20.2155 18.2146 20.1044 18.2146C19.9932 18.2146 19.9033 18.178 19.9033 18.1332C19.9033 18.0883 19.9932 18.0518 20.1044 18.0518C20.2155 18.0518 20.3054 18.0883 20.3054 18.1332Z" fill="#DA840D"/>
<path d="M21.6652 17.6729C21.6652 17.7343 21.5828 17.7826 21.4829 17.7826C21.383 17.7826 21.3005 17.7343 21.3005 17.6729C21.3005 17.6116 21.383 17.562 21.4829 17.562C21.5828 17.562 21.6652 17.6116 21.6652 17.6729Z" fill="#DA840D"/>
<path d="M21.4478 18.461C21.4569 18.498 21.4535 18.5367 21.4383 18.5718C21.423 18.6069 21.3966 18.6366 21.3626 18.6569C21.3287 18.6772 21.2889 18.687 21.2488 18.6849C21.2087 18.6829 21.1703 18.6691 21.1388 18.6455C21.1074 18.6219 21.0845 18.5896 21.0733 18.5532C21.0621 18.5167 21.0632 18.4779 21.0765 18.4421C21.0897 18.4062 21.1144 18.3752 21.1472 18.3532C21.1799 18.3313 21.2191 18.3195 21.2592 18.3195C21.304 18.3151 21.3488 18.3275 21.384 18.354C21.4193 18.3804 21.4422 18.4188 21.4478 18.461Z" fill="#DA840D"/>
<path d="M22.9615 18.2321C22.9537 18.267 22.9356 18.299 22.9093 18.3246C22.8831 18.3502 22.8497 18.3682 22.813 18.3766C22.7763 18.385 22.7379 18.3834 22.7021 18.372C22.6664 18.3606 22.6348 18.3399 22.611 18.3123C22.5872 18.2846 22.5721 18.2512 22.5676 18.2158C22.5631 18.1804 22.5693 18.1445 22.5854 18.1123C22.6016 18.0801 22.627 18.0529 22.6589 18.0338C22.6908 18.0147 22.7277 18.0045 22.7654 18.0044C22.8231 18.0106 22.8759 18.038 22.9125 18.0805C22.9492 18.1231 22.9667 18.1775 22.9615 18.2321Z" fill="#DA840D"/>
<path d="M22.8516 17.2058C22.8516 17.2518 22.7891 17.2896 22.7104 17.2896C22.6318 17.2896 22.5693 17.2518 22.5693 17.2058C22.5693 17.1598 22.6318 17.1208 22.7104 17.1208C22.7891 17.1208 22.8516 17.1586 22.8516 17.2058Z" fill="#DA840D"/>
<path d="M24.0516 17.4524C24.0516 17.6352 23.9654 17.7827 23.8593 17.7827C23.7531 17.7827 23.6682 17.6352 23.6682 17.4524C23.6682 17.2695 23.7544 17.1208 23.8593 17.1208C23.9642 17.1208 24.0516 17.2695 24.0516 17.4524Z" fill="#DA840D"/>
<path d="M24.531 17.1173C24.5305 17.1344 24.5247 17.1511 24.5142 17.1651C24.5038 17.1791 24.4892 17.19 24.4722 17.1962C24.4553 17.2025 24.4368 17.2039 24.4191 17.2002C24.4013 17.1966 24.3851 17.1881 24.3724 17.1758C24.3597 17.1635 24.3512 17.1479 24.3478 17.1311C24.3444 17.1142 24.3464 17.0968 24.3535 17.081C24.3605 17.0651 24.3724 17.0516 24.3875 17.0422C24.4026 17.0327 24.4204 17.0276 24.4386 17.0276C24.4509 17.0277 24.463 17.0302 24.4743 17.0348C24.4856 17.0394 24.4958 17.046 24.5044 17.0543C24.513 17.0627 24.5198 17.0725 24.5243 17.0833C24.5289 17.0941 24.5311 17.1056 24.531 17.1173Z" fill="#DA840D"/>
<path d="M21.3818 16.834C21.3818 16.9189 21.2656 16.9874 21.122 16.9874C20.9784 16.9874 20.8623 16.9189 20.8623 16.834C20.8623 16.749 20.9784 16.6794 21.1233 16.6794C21.2681 16.6794 21.3818 16.749 21.3818 16.834Z" fill="#DA840D"/>
<path d="M16.4916 16.0392C16.4916 16.0911 16.4004 16.1336 16.2881 16.1336C16.1757 16.1336 16.0833 16.0911 16.0833 16.0392C16.0833 15.9873 16.1744 15.9448 16.2881 15.9448C16.4017 15.9448 16.4916 15.9873 16.4916 16.0392Z" fill="#DA840D"/>
<path d="M17.6857 15.8502C17.6857 15.9022 17.5821 15.9446 17.4534 15.9446C17.3248 15.9446 17.2224 15.9022 17.2224 15.8502C17.2224 15.7983 17.3261 15.7559 17.4534 15.7559C17.5808 15.7559 17.6857 15.7983 17.6857 15.8502Z" fill="#DA840D"/>
<path d="M19.1938 16.0814C19.1938 16.1569 19.0539 16.2182 18.8803 16.2182C18.7068 16.2182 18.5669 16.1569 18.5669 16.0814C18.5669 16.0058 18.7068 15.9492 18.8803 15.9492C19.0539 15.9492 19.1938 16.0058 19.1938 16.0814Z" fill="#DA840D"/>
<path d="M20.3053 15.85C20.3056 15.869 20.2998 15.8875 20.2889 15.9034C20.2779 15.9193 20.2622 15.9317 20.2438 15.9391C20.2253 15.9465 20.2049 15.9486 20.1852 15.945C20.1655 15.9415 20.1474 15.9325 20.1331 15.9192C20.1188 15.9059 20.1091 15.8888 20.1051 15.8703C20.1011 15.8517 20.103 15.8324 20.1106 15.8149C20.1182 15.7974 20.1312 15.7824 20.1478 15.7718C20.1645 15.7613 20.1841 15.7556 20.2042 15.7556C20.2174 15.7555 20.2305 15.7578 20.2428 15.7625C20.255 15.7671 20.2662 15.7741 20.2756 15.7828C20.285 15.7916 20.2925 15.8021 20.2976 15.8136C20.3027 15.8251 20.3053 15.8375 20.3053 15.85Z" fill="#DA840D"/>
<path d="M20.1041 16.596C20.1041 16.6432 20.0092 16.6797 19.8905 16.6797C19.7719 16.6797 19.677 16.6432 19.677 16.596C19.677 16.5488 19.7732 16.5122 19.8905 16.5122C20.0079 16.5122 20.1041 16.55 20.1041 16.596Z" fill="#DA840D"/>
<path d="M21.7739 15.8076C21.7744 15.8349 21.7662 15.8619 21.7505 15.8849C21.7347 15.9079 21.7121 15.9259 21.6854 15.9367C21.6588 15.9476 21.6293 15.9506 21.6008 15.9456C21.5723 15.9405 21.5461 15.9276 21.5254 15.9084C21.5047 15.8891 21.4905 15.8646 21.4847 15.8377C21.4788 15.8109 21.4816 15.783 21.4926 15.7576C21.5035 15.7323 21.5223 15.7106 21.5463 15.6953C21.5704 15.68 21.5988 15.6719 21.6278 15.6719C21.6468 15.6717 21.6657 15.6751 21.6833 15.6818C21.7009 15.6886 21.717 15.6985 21.7306 15.7111C21.7441 15.7237 21.7549 15.7387 21.7624 15.7553C21.7698 15.7718 21.7737 15.7896 21.7739 15.8076Z" fill="#DA840D"/>
<path d="M22.5692 16.3645C22.5692 16.3881 22.4943 16.407 22.4031 16.407C22.312 16.407 22.2383 16.3881 22.2383 16.3645C22.2383 16.3409 22.312 16.3232 22.4031 16.3232C22.4943 16.3232 22.5692 16.3421 22.5692 16.3645Z" fill="#DA840D"/>
<path d="M23.0873 16.0863C23.0904 16.0986 23.0894 16.1116 23.0844 16.1234C23.0793 16.1352 23.0705 16.1452 23.0592 16.1521C23.0478 16.159 23.0345 16.1623 23.0211 16.1617C23.0076 16.1611 22.9947 16.1565 22.9841 16.1487C22.9735 16.1408 22.9657 16.1301 22.9619 16.1179C22.9581 16.1057 22.9584 16.0927 22.9627 16.0806C22.9671 16.0686 22.9753 16.0581 22.9862 16.0507C22.9971 16.0432 23.0102 16.0392 23.0237 16.0391C23.0387 16.0377 23.0536 16.0419 23.0655 16.0506C23.0773 16.0594 23.0852 16.0722 23.0873 16.0863Z" fill="#DA840D"/>
<path d="M22.5692 16.3646C22.571 16.3831 22.5688 16.4017 22.5626 16.4193C22.5563 16.4369 22.5463 16.4531 22.5331 16.4668C22.5199 16.4806 22.5037 16.4915 22.4858 16.499C22.4678 16.5066 22.4484 16.5104 22.4287 16.5104C22.4091 16.5104 22.3896 16.5066 22.3717 16.499C22.3537 16.4915 22.3376 16.4806 22.3243 16.4668C22.3111 16.4531 22.3011 16.4369 22.2949 16.4193C22.2886 16.4017 22.2864 16.3831 22.2882 16.3646C22.2864 16.3461 22.2886 16.3275 22.2949 16.3099C22.3011 16.2923 22.3111 16.2761 22.3243 16.2623C22.3376 16.2486 22.3537 16.2376 22.3717 16.2301C22.3896 16.2226 22.4091 16.2188 22.4287 16.2188C22.4484 16.2188 22.4678 16.2226 22.4858 16.2301C22.5037 16.2376 22.5199 16.2486 22.5331 16.2623C22.5463 16.2761 22.5563 16.2923 22.5626 16.3099C22.5688 16.3275 22.571 16.3461 22.5692 16.3646Z" fill="#DA840D"/>
<path d="M23.3698 16.1287C23.3698 16.1783 23.2937 16.2184 23.1975 16.2184C23.1013 16.2184 23.0239 16.1783 23.0239 16.1287C23.0239 16.0792 23.1013 16.0391 23.1975 16.0391C23.2937 16.0391 23.3698 16.0792 23.3698 16.1287Z" fill="#DA840D"/>
<path d="M27.4344 16.1135C27.4344 17.0432 26.1607 17.9327 24.2313 18.4848C22.8187 18.8721 21.3541 19.064 19.8831 19.0547C18.3509 19.0547 17.0921 18.6736 15.8209 18.5828C13.7005 18.427 12.3069 16.9665 12.3069 16.0085C12.3069 14.4843 15.7597 13.531 19.8831 13.531C24.0066 13.531 27.4344 14.5893 27.4344 16.1135Z" fill="#E3AC8A"/>
<path d="M27.3395 15.9116C27.3395 17.4358 23.9954 18.671 19.8707 18.671C15.746 18.671 12.4031 17.4358 12.4031 15.9116C12.4031 14.3873 15.7423 13.1521 19.8707 13.1521C23.9991 13.1521 27.3395 14.3873 27.3395 15.9116Z" fill="#DA840D"/>
<path d="M25.3042 15.6509C25.3042 16.7811 22.8229 17.6978 19.7634 17.6978C16.704 17.6978 14.2227 16.7811 14.2227 15.6509C14.2227 14.5206 16.7027 13.6028 19.7634 13.6028C22.8241 13.6028 25.3042 14.5195 25.3042 15.6509Z" fill="#F0A508"/>
<path d="M16.0332 16.4059C16.0332 16.5239 15.8921 16.6265 15.7185 16.6265C15.5449 16.6265 15.4038 16.5274 15.4038 16.4059C15.4038 16.2844 15.5449 16.1853 15.7185 16.1853C15.8921 16.1853 16.0332 16.2832 16.0332 16.4059Z" fill="#DA840D"/>
<path d="M15.404 15.4776C15.4025 15.5102 15.391 15.5416 15.3708 15.568C15.3505 15.5944 15.3226 15.6147 15.2903 15.6262C15.258 15.6377 15.2229 15.64 15.1892 15.6328C15.1556 15.6256 15.1249 15.6092 15.101 15.5857C15.0771 15.5622 15.0611 15.5325 15.0549 15.5005C15.0487 15.4684 15.0526 15.4353 15.0661 15.4054C15.0796 15.3754 15.1021 15.3498 15.1309 15.3318C15.1597 15.3138 15.1934 15.3042 15.2279 15.3042C15.2515 15.3047 15.2748 15.3095 15.2965 15.3185C15.3181 15.3274 15.3376 15.3403 15.354 15.3564C15.3703 15.3726 15.3832 15.3915 15.3918 15.4123C15.4003 15.4331 15.4045 15.4553 15.404 15.4776Z" fill="#DA840D"/>
<path d="M17.5943 16.6737C17.5981 16.7308 17.5836 16.7876 17.5527 16.8368C17.5219 16.8861 17.4761 16.9254 17.4213 16.9497C17.3665 16.9741 17.3053 16.9823 17.2455 16.9734C17.1857 16.9645 17.1301 16.9388 17.0859 16.8996C17.0418 16.8605 17.0111 16.8097 16.9978 16.7539C16.9846 16.6981 16.9893 16.6398 17.0116 16.5866C17.0338 16.5334 17.0724 16.4877 17.1224 16.4555C17.1724 16.4233 17.2316 16.406 17.2921 16.4059C17.3697 16.4037 17.4451 16.4306 17.5018 16.4808C17.5584 16.531 17.5917 16.6004 17.5943 16.6737Z" fill="#DA840D"/>
<path d="M16.9324 15.6109C16.9324 15.684 16.8463 15.7442 16.7401 15.7442C16.634 15.7442 16.5491 15.684 16.5491 15.6109C16.5491 15.5377 16.6352 15.4775 16.7414 15.4775C16.8475 15.4775 16.9324 15.5365 16.9324 15.6109Z" fill="#DA840D"/>
<path d="M18.8642 16.2429C18.8685 16.2797 18.8609 16.3168 18.8423 16.3494C18.8238 16.3821 18.7952 16.4086 18.7604 16.4255C18.7255 16.4425 18.686 16.449 18.6472 16.4443C18.6083 16.4396 18.5718 16.4238 18.5427 16.3991C18.5135 16.3744 18.4929 16.3419 18.4837 16.3059C18.4745 16.2699 18.4771 16.2321 18.4911 16.1975C18.5051 16.163 18.5299 16.1332 18.5622 16.1122C18.5944 16.0913 18.6327 16.08 18.6719 16.08C18.7202 16.0778 18.7675 16.0936 18.8035 16.1241C18.8395 16.1546 18.8613 16.1973 18.8642 16.2429Z" fill="#DA840D"/>
<path d="M18.9366 17.2245C18.9366 17.3 18.8442 17.3614 18.7293 17.3614C18.6144 17.3614 18.522 17.3 18.522 17.2245C18.522 17.149 18.6144 17.0889 18.7293 17.0889C18.8442 17.0889 18.9366 17.1502 18.9366 17.2245Z" fill="#DA840D"/>
<path d="M18.115 15.7607C18.113 15.788 18.1027 15.8141 18.0852 15.8359C18.0678 15.8577 18.0439 15.8743 18.0167 15.8835C17.9894 15.8927 17.9599 15.8941 17.9317 15.8877C17.9036 15.8812 17.8781 15.8672 17.8583 15.8472C17.8385 15.8273 17.8253 15.8023 17.8203 15.7753C17.8154 15.7484 17.8188 15.7207 17.8303 15.6956C17.8418 15.6704 17.8608 15.649 17.885 15.634C17.9091 15.619 17.9374 15.6109 17.9664 15.6108C17.9866 15.6114 18.0064 15.6158 18.0248 15.6237C18.0432 15.6315 18.0598 15.6427 18.0736 15.6567C18.0874 15.6706 18.0981 15.6869 18.1052 15.7048C18.1123 15.7226 18.1157 15.7416 18.115 15.7607Z" fill="#DA840D"/>
<path d="M20.2604 16.0485C20.2604 16.124 20.1705 16.1853 20.0593 16.1853C19.9482 16.1853 19.8633 16.124 19.8633 16.0485C19.8633 15.973 19.9532 15.9116 20.0643 15.9116C20.1755 15.9116 20.2604 15.973 20.2604 16.0485Z" fill="#DA840D"/>
<path d="M20.2604 16.755C20.2604 16.7998 20.1705 16.8364 20.0593 16.8364C19.9482 16.8364 19.8633 16.7998 19.8633 16.755C19.8633 16.7102 19.9532 16.6736 20.0643 16.6736C20.1755 16.6736 20.2604 16.7102 20.2604 16.755Z" fill="#DA840D"/>
<path d="M21.6203 16.295C21.6203 16.3564 21.5378 16.4059 21.4379 16.4059C21.338 16.4059 21.2556 16.3564 21.2556 16.295C21.2556 16.2337 21.338 16.1853 21.4379 16.1853C21.5378 16.1853 21.6203 16.2349 21.6203 16.295Z" fill="#DA840D"/>
<path d="M21.4032 17.0831C21.3924 17.1223 21.3682 17.1569 21.3343 17.1817C21.3004 17.2064 21.2587 17.2199 21.2159 17.2199C21.173 17.2199 21.1314 17.2064 21.0975 17.1817C21.0636 17.1569 21.0394 17.1223 21.0286 17.0831C21.0394 17.0439 21.0636 17.0092 21.0975 16.9845C21.1314 16.9597 21.173 16.9463 21.2159 16.9463C21.2587 16.9463 21.3004 16.9597 21.3343 16.9845C21.3682 17.0092 21.3924 17.0439 21.4032 17.0831Z" fill="#DA840D"/>
<path d="M22.9166 16.8553C22.9223 16.8827 22.9215 16.9109 22.9143 16.9379C22.9071 16.9649 22.8936 16.9901 22.8749 17.0116C22.8561 17.0331 22.8326 17.0505 22.8059 17.0624C22.7792 17.0743 22.7501 17.0805 22.7206 17.0805C22.6911 17.0805 22.6619 17.0743 22.6353 17.0624C22.6086 17.0505 22.585 17.0331 22.5663 17.0116C22.5475 16.9901 22.5341 16.9649 22.5269 16.9379C22.5196 16.9109 22.5188 16.8827 22.5245 16.8553C22.5178 16.8275 22.5179 16.7986 22.5246 16.7708C22.5313 16.743 22.5446 16.717 22.5635 16.6947C22.5823 16.6724 22.6062 16.6544 22.6334 16.6421C22.6606 16.6297 22.6904 16.6233 22.7206 16.6233C22.7508 16.6233 22.7806 16.6297 22.8078 16.6421C22.835 16.6544 22.8589 16.6724 22.8777 16.6947C22.8965 16.717 22.9098 16.743 22.9166 16.7708C22.9233 16.7986 22.9233 16.8275 22.9166 16.8553Z" fill="#DA840D"/>
<path d="M22.8066 15.8313C22.8066 15.8773 22.7442 15.9151 22.6655 15.9151C22.5869 15.9151 22.5244 15.8773 22.5244 15.8313C22.5244 15.7853 22.5869 15.7476 22.6655 15.7476C22.7442 15.7476 22.8066 15.7818 22.8066 15.8313Z" fill="#DA840D"/>
<path d="M24.0069 16.0745C24.0069 16.2573 23.9207 16.406 23.8146 16.406C23.7084 16.406 23.6235 16.2573 23.6235 16.0745C23.6235 15.8916 23.7084 15.7441 23.8146 15.7441C23.9207 15.7441 24.0069 15.8916 24.0069 16.0745Z" fill="#DA840D"/>
<path d="M24.4836 15.7396C24.4834 15.7568 24.4778 15.7736 24.4675 15.7878C24.4572 15.802 24.4426 15.813 24.4257 15.8194C24.4088 15.8258 24.3903 15.8274 24.3724 15.8239C24.3546 15.8204 24.3383 15.812 24.3255 15.7997C24.3127 15.7875 24.304 15.7719 24.3005 15.755C24.297 15.7381 24.299 15.7206 24.306 15.7047C24.313 15.6889 24.3249 15.6753 24.34 15.6658C24.3552 15.6562 24.373 15.6511 24.3912 15.6511C24.4159 15.6514 24.4394 15.6609 24.4566 15.6775C24.4739 15.694 24.4836 15.7163 24.4836 15.7396Z" fill="#DA840D"/>
<path d="M21.3369 15.4561C21.3369 15.541 21.2208 15.6107 21.0759 15.6107C20.931 15.6107 20.8162 15.541 20.8162 15.4561C20.8162 15.3712 20.9323 15.3027 21.0759 15.3027C21.2195 15.3027 21.3369 15.3712 21.3369 15.4561Z" fill="#DA840D"/>
<path d="M16.4415 14.6622C16.4415 14.7141 16.3504 14.7566 16.2368 14.7566C16.1231 14.7566 16.0332 14.7141 16.0332 14.6622C16.0332 14.6103 16.1244 14.5667 16.2368 14.5667C16.3491 14.5667 16.4415 14.6091 16.4415 14.6622Z" fill="#DA840D"/>
<path d="M17.6403 14.4723C17.6403 14.5254 17.5367 14.5667 17.4081 14.5667C17.2794 14.5667 17.1758 14.5254 17.1758 14.4723C17.1758 14.4192 17.2807 14.3779 17.4081 14.3779C17.5354 14.3779 17.6403 14.4157 17.6403 14.4723Z" fill="#DA840D"/>
<path d="M19.1489 14.7035C19.1489 14.779 19.009 14.8404 18.8354 14.8404C18.6618 14.8404 18.522 14.779 18.522 14.7035C18.522 14.628 18.6618 14.5667 18.8354 14.5667C19.009 14.5667 19.1489 14.628 19.1489 14.7035Z" fill="#DA840D"/>
<path d="M20.2602 14.4723C20.2604 14.4913 20.2547 14.5099 20.2437 14.5257C20.2328 14.5416 20.217 14.554 20.1986 14.5614C20.1801 14.5689 20.1597 14.5709 20.14 14.5674C20.1203 14.5638 20.1022 14.5548 20.0879 14.5415C20.0737 14.5282 20.0639 14.5111 20.0599 14.4926C20.0559 14.474 20.0578 14.4547 20.0654 14.4372C20.0731 14.4197 20.086 14.4047 20.1027 14.3941C20.1193 14.3836 20.1389 14.3779 20.159 14.3779C20.1722 14.3778 20.1854 14.3801 20.1976 14.3848C20.2099 14.3895 20.221 14.3964 20.2305 14.4052C20.2399 14.4139 20.2473 14.4244 20.2524 14.4359C20.2575 14.4475 20.2602 14.4598 20.2602 14.4723Z" fill="#DA840D"/>
<path d="M20.0594 15.219C20.0594 15.265 19.9632 15.3027 19.8459 15.3027C19.7285 15.3027 19.6323 15.265 19.6323 15.219C19.6323 15.173 19.7285 15.134 19.8459 15.134C19.9632 15.134 20.0594 15.1718 20.0594 15.219Z" fill="#DA840D"/>
<path d="M21.7277 14.4312C21.7284 14.4584 21.7205 14.4852 21.7051 14.5081C21.6896 14.5311 21.6673 14.5492 21.6409 14.5601C21.6145 14.571 21.5852 14.5742 21.5569 14.5693C21.5286 14.5645 21.5024 14.5517 21.4818 14.5327C21.4611 14.5137 21.447 14.4894 21.4411 14.4627C21.4352 14.4361 21.4378 14.4084 21.4486 14.3832C21.4595 14.358 21.478 14.3364 21.5019 14.3212C21.5258 14.306 21.554 14.2979 21.5828 14.2979C21.6207 14.2975 21.6571 14.3114 21.6843 14.3363C21.7114 14.3613 21.727 14.3954 21.7277 14.4312Z" fill="#DA840D"/>
<path d="M22.5243 14.9878C22.5243 15.0102 22.4494 15.0291 22.3582 15.0291C22.2671 15.0291 22.1921 15.0102 22.1921 14.9878C22.1921 14.9654 22.2671 14.9453 22.3582 14.9453C22.4494 14.9453 22.5243 14.9642 22.5243 14.9878Z" fill="#DA840D"/>
<path d="M23.0427 14.7093C23.0458 14.7217 23.0447 14.7347 23.0397 14.7465C23.0346 14.7583 23.0258 14.7683 23.0145 14.7751C23.0031 14.782 22.9898 14.7854 22.9764 14.7847C22.9629 14.7841 22.95 14.7796 22.9394 14.7717C22.9288 14.7639 22.9211 14.7531 22.9172 14.7409C22.9134 14.7287 22.9137 14.7157 22.918 14.7037C22.9224 14.6916 22.9306 14.6812 22.9415 14.6737C22.9524 14.6663 22.9655 14.6622 22.979 14.6621C22.994 14.6608 23.009 14.6649 23.0208 14.6737C23.0327 14.6825 23.0405 14.6952 23.0427 14.7093Z" fill="#DA840D"/>
<path d="M22.5246 14.9878C22.5217 15.0134 22.511 15.0376 22.4939 15.0576C22.4767 15.0776 22.4538 15.0925 22.4279 15.1004C22.402 15.1084 22.3742 15.1091 22.3479 15.1025C22.3216 15.0958 22.2979 15.0821 22.2796 15.063C22.2613 15.044 22.2493 15.0203 22.245 14.9949C22.2406 14.9695 22.2442 14.9434 22.2551 14.9199C22.2661 14.8963 22.2841 14.8763 22.3069 14.8622C22.3296 14.8481 22.3562 14.8405 22.3835 14.8403C22.403 14.8412 22.4221 14.8458 22.4398 14.8537C22.4575 14.8616 22.4733 14.8727 22.4864 14.8864C22.4995 14.9001 22.5096 14.9161 22.5162 14.9335C22.5227 14.9509 22.5256 14.9694 22.5246 14.9878Z" fill="#DA840D"/>
<path d="M23.3249 14.7506C23.3249 14.8001 23.2475 14.8403 23.1526 14.8403C23.0577 14.8403 22.979 14.8001 22.979 14.7506C22.979 14.701 23.0564 14.6621 23.1526 14.6621C23.2487 14.6621 23.3249 14.701 23.3249 14.7506Z" fill="#DA840D"/>
<path d="M21.0044 22.1231C20.9762 22.0212 20.9103 21.9322 20.8187 21.8721C20.7272 21.812 20.6159 21.7847 20.5049 21.7952C19.7557 21.8459 19.6932 23.0316 19.9567 23.5495C20.0352 23.6068 20.1338 23.6336 20.2325 23.6244C20.3312 23.6152 20.4224 23.5706 20.4875 23.4999C20.7272 23.2463 20.8034 22.8794 20.8883 22.5561C20.9299 22.413 20.9686 22.2686 21.0044 22.1231Z" fill="#EEBE30"/>
<path d="M26.5664 15.9623C26.3059 15.8672 26.0656 15.7285 25.8571 15.5529C25.608 15.3247 25.3783 15.0781 25.1703 14.8156C24.8594 14.4546 24.4073 14.313 23.9328 14.2599C23.4046 14.1998 22.8589 14.3107 22.3269 14.2847C22.0416 14.2774 21.762 14.2075 21.5102 14.0806C21.2604 13.9461 21.0644 13.7267 20.8508 13.5367C20.4325 13.1828 19.9018 13.1828 19.3736 13.1026C19.0237 13.0442 18.6697 13.0099 18.3146 12.9999C17.9512 12.9917 17.3156 12.987 17.0721 13.3137C16.8024 13.4317 16.7074 13.7455 16.6463 14.0098C16.6118 14.2279 16.557 14.4426 16.4827 14.6516C16.3717 14.8893 16.2001 15.0972 15.9832 15.2568C15.5074 15.6308 14.9192 15.8314 14.381 16.0921C13.9439 16.3033 13.4082 16.6029 13.1734 17.0265C13.0323 17.2801 13.0486 17.7143 13.2983 17.9019C13.6068 18.126 13.8415 17.7037 13.9077 17.4901C13.9689 17.2966 13.9914 17.0996 14.1575 16.9545C14.3812 16.771 14.6472 16.6393 14.9342 16.5699C15.1752 16.5062 15.4337 16.5062 15.671 16.4366C15.9558 16.3353 16.2237 16.1958 16.4664 16.0225C16.7512 15.8432 17.0284 15.6686 17.3668 15.5907C17.6478 15.5293 18.0823 15.5388 18.3034 15.7417C18.4246 15.8804 18.5289 16.0316 18.6143 16.1924C18.7282 16.3423 18.8791 16.4638 19.0539 16.5463C19.406 16.7363 19.8094 16.82 20.1778 16.9923C20.3009 17.0528 20.4071 17.1401 20.4875 17.2471C20.4999 17.2648 20.5112 17.2825 20.5224 17.3014C20.5315 17.3147 20.5398 17.3285 20.5474 17.3427C20.9495 18.0434 20.4437 18.7855 20.4575 19.5252C20.4575 19.924 20.7634 20.5764 21.2804 20.2567C21.3154 20.2354 21.3479 20.2118 21.3803 20.1882C21.439 19.6715 21.4865 19.1418 21.6763 18.6546C21.8548 18.2015 22.0984 17.7827 22.0721 17.2837C22.0572 17.0088 21.9185 16.7563 21.8848 16.485C21.8374 16.1074 22.197 15.9364 22.5204 15.862C22.9819 15.746 23.471 15.7776 23.9116 15.9517C24.7407 16.2738 25.4101 16.938 26.3317 17.0477C26.6963 17.0914 27.2245 17.0371 27.3694 16.6607C27.5142 16.2844 26.8262 16.0673 26.5664 15.9623Z" fill="#EEBE30"/>
<path opacity="0.5" d="M21.4927 16.4545C21.4549 16.3273 21.385 16.2107 21.2891 16.1145C21.1932 16.0184 21.0741 15.9456 20.942 15.9023C20.7522 15.8551 20.4525 15.9743 20.4762 16.1914C20.4766 16.1957 20.4779 16.2 20.48 16.2038C20.4821 16.2077 20.4851 16.2111 20.4887 16.2138C20.3638 16.4651 20.726 16.8981 20.8508 17.0821C20.9423 17.1999 21 17.3381 21.0182 17.4832C21.0394 17.6708 20.9757 17.856 20.9945 18.0413C21.0019 18.1238 21.0681 18.4766 21.2442 18.335C21.4453 18.1746 21.4665 17.8112 21.5077 17.5823C21.5908 17.2099 21.5857 16.8248 21.4927 16.4545Z" fill="white"/>
<path opacity="0.5" d="M25.1244 15.2332C24.9203 14.9132 24.5947 14.6787 24.2141 14.5773C23.8295 14.4723 22.9066 14.359 22.8092 14.8911C22.8084 14.9019 22.8112 14.9126 22.8173 14.9217C22.8234 14.9308 22.8323 14.9379 22.8429 14.9418C22.8676 14.9588 22.8894 14.9791 22.9079 15.002C22.9131 15.0116 22.9214 15.0195 22.9316 15.0244C22.9417 15.0278 22.9527 15.0278 22.9628 15.0244C23.0341 15.0861 23.1196 15.1314 23.2126 15.1566C23.4415 15.2045 23.6749 15.2305 23.9094 15.2344C24.2341 15.2639 24.4151 15.3961 24.6412 15.6013C24.766 15.7193 25.1082 15.9671 25.2843 15.7795C25.4191 15.6473 25.1981 15.3418 25.1244 15.2332Z" fill="white"/>
<path opacity="0.5" d="M14.0265 16.7152C13.9717 16.7087 13.9164 16.7087 13.8616 16.7152C13.8618 16.7129 13.8615 16.7105 13.8606 16.7083C13.8597 16.7062 13.8583 16.7042 13.8565 16.7026C13.8547 16.701 13.8526 16.6998 13.8502 16.6992C13.8478 16.6985 13.8453 16.6983 13.8429 16.6987C13.7516 16.7124 13.665 16.746 13.5898 16.7968C13.5146 16.8476 13.4529 16.9141 13.4096 16.9913C13.3796 17.0502 13.3209 17.2567 13.4495 17.2673C13.5782 17.2779 13.6793 17.1493 13.7517 17.0821C13.8567 16.9797 13.9559 16.8722 14.0489 16.76C14.0517 16.7558 14.0533 16.7511 14.0536 16.7461C14.0539 16.7412 14.0529 16.7363 14.0506 16.7318C14.0484 16.7274 14.045 16.7235 14.0408 16.7206C14.0366 16.7177 14.0316 16.7158 14.0265 16.7152Z" fill="white"/>
<path opacity="0.5" d="M29.0892 23.5175C28.9785 23.4952 28.8643 23.4942 28.7532 23.5144C28.6421 23.5347 28.5364 23.5758 28.4424 23.6353C28.3485 23.6948 28.2681 23.7715 28.2061 23.8609C28.1441 23.9503 28.1017 24.0506 28.0814 24.1557C28.0807 24.1595 28.0809 24.1634 28.0819 24.1671C28.0829 24.1709 28.0848 24.1743 28.0875 24.1772C28.0901 24.1802 28.0934 24.1825 28.0971 24.1841C28.1008 24.1857 28.1048 24.1865 28.1089 24.1864C28.1095 24.1943 28.1095 24.2022 28.1089 24.21C28.0652 24.3941 27.8342 24.479 27.6881 24.5569C27.5794 24.6135 27.467 24.6642 27.3547 24.7161C26.98 24.8955 26.3906 25.1267 26.2745 25.6021C26.2726 25.6073 26.2725 25.6129 26.274 25.6182C26.2756 25.6234 26.2788 25.6281 26.2832 25.6316C26.508 25.7779 26.7665 25.5597 26.9426 25.4228C27.2979 25.1568 27.7146 24.9737 28.1589 24.8884C28.6509 24.7869 29.5687 24.8176 29.746 24.1805C29.8534 23.7853 29.3777 23.5659 29.0892 23.5175Z" fill="white"/>
<path d="M21.0407 14.3673C20.997 14.3095 20.8859 14.1856 20.8109 14.1774C20.7685 14.1774 20.7523 14.0971 20.7123 14.1089C20.6723 14.1207 20.6111 14.1502 20.5562 14.1089C20.5378 14.0927 20.5182 14.0777 20.4975 14.0641C20.486 14.0565 20.4729 14.0514 20.4591 14.0491C20.4453 14.0469 20.4311 14.0476 20.4176 14.0511C20.3826 14.0641 20.3689 14.1137 20.3264 14.0818C20.284 14.0499 20.1828 14.0983 20.1578 14.1455C20.1494 14.1585 20.1427 14.1723 20.1379 14.1868C19.9893 14.2069 19.8394 14.4228 19.7832 14.523C19.7307 14.6195 19.7061 14.7275 19.712 14.8358C19.718 14.9442 19.7542 15.0492 19.8169 15.1401C19.953 15.3595 20.2303 15.389 20.475 15.3961C20.5715 15.4066 20.6692 15.3986 20.7622 15.3725C20.8483 15.3368 20.9229 15.2802 20.9783 15.2085C21.2255 14.9206 21.273 14.6705 21.0407 14.3673Z" fill="#48264C"/>
<path d="M21.0409 14.3673C20.9983 14.3105 20.9479 14.2593 20.891 14.2151C20.8962 14.41 20.8296 14.6006 20.7025 14.7543C20.5754 14.908 20.3957 15.0151 20.1942 15.0574C20.0521 15.087 19.9045 15.0825 19.7646 15.0445C19.7796 15.0786 19.7971 15.1118 19.8171 15.1436C19.9532 15.363 20.2304 15.3925 20.4752 15.3996C20.5716 15.4101 20.6693 15.4021 20.7624 15.376C20.8485 15.3403 20.923 15.2837 20.9784 15.212C21.2257 14.9206 21.2732 14.6705 21.0409 14.3673Z" fill="#300D33"/>
<path d="M21.2605 26.1105C21.2203 26.0131 21.1556 25.9264 21.0719 25.858C21.0582 25.7848 21.0407 25.7129 21.0245 25.6397C21.0232 25.6326 21.0202 25.6258 21.0158 25.6199C21.0113 25.614 21.0055 25.6091 20.9988 25.6056C20.9921 25.6021 20.9846 25.6 20.977 25.5996C20.9693 25.5992 20.9617 25.6004 20.9546 25.6032C20.8422 25.6527 20.8172 25.589 20.7398 25.5312C20.7274 25.524 20.7131 25.5202 20.6986 25.5202C20.684 25.5202 20.6697 25.524 20.6573 25.5312C20.5325 25.6114 20.4001 25.4215 20.3027 25.5312C20.2457 25.6139 20.1827 25.6927 20.1141 25.7671C20.0331 25.8156 19.9584 25.873 19.8919 25.9382C19.844 25.9784 19.802 26.0244 19.767 26.0751C19.7529 26.0964 19.7399 26.1185 19.7283 26.1411C19.7183 26.1624 19.7095 26.1848 19.702 26.206C19.7015 26.2084 19.7015 26.2108 19.702 26.2131C19.6515 26.3672 19.6546 26.5326 19.7108 26.685C19.8057 26.9575 20.1054 27.0543 20.3739 27.1168C20.4777 27.1506 20.5877 27.1642 20.6973 27.1569C20.8021 27.1366 20.8994 27.0906 20.9795 27.0236C21.3242 26.7641 21.4391 26.4986 21.2605 26.1105Z" fill="#48264C"/>
<path d="M21.2607 26.1107C21.2288 26.0385 21.1868 25.9706 21.1358 25.9089C21.0918 26.1257 20.9692 26.3213 20.7892 26.4621C20.6092 26.6029 20.383 26.6801 20.1493 26.6805C19.984 26.6808 19.8212 26.6419 19.676 26.5672C19.6839 26.6072 19.6948 26.6467 19.7085 26.6852C19.8034 26.9578 20.1031 27.0545 20.3716 27.117C20.4754 27.1508 20.5854 27.1644 20.695 27.1571C20.7998 27.1368 20.8971 27.0908 20.9772 27.0238C21.3244 26.7643 21.4393 26.4988 21.2607 26.1107Z" fill="#300D33"/>
<path d="M19.0028 14.162C18.9641 14.0901 18.8642 13.9332 18.7818 13.9108C18.7393 13.9001 18.7393 13.8258 18.6981 13.8187C18.6856 13.7126 18.6344 13.6017 18.5033 13.6241C18.4733 13.6241 18.3934 13.7031 18.3622 13.6583C18.3469 13.6318 18.3221 13.6113 18.2923 13.6005C18.2311 13.5781 18.1774 13.6288 18.1424 13.6677C18.0837 13.7326 18.0088 13.6371 17.9326 13.6677C17.8962 13.6881 17.8664 13.7176 17.8468 13.753C17.8272 13.7885 17.8184 13.8284 17.8215 13.8683C17.8215 13.8754 17.8215 13.8801 17.8215 13.8872C17.7272 13.9547 17.6432 14.0341 17.5717 14.1231C17.4944 14.2214 17.4461 14.3372 17.4316 14.4589C17.4171 14.5805 17.437 14.7036 17.4893 14.8156C17.5992 15.0834 17.9039 15.1696 18.1749 15.2156C18.2771 15.2428 18.3839 15.2516 18.4896 15.2415C18.5926 15.2159 18.6868 15.1655 18.763 15.0952C19.1015 14.8109 19.2014 14.5408 19.0028 14.162Z" fill="#48264C"/>
<path d="M19.0028 14.1619C18.9653 14.0915 18.9187 14.0257 18.8642 13.9661C18.833 14.1857 18.7218 14.3883 18.5498 14.539C18.3777 14.6897 18.1556 14.7791 17.9214 14.7919C17.7569 14.7999 17.593 14.7691 17.4443 14.7022C17.4543 14.7424 17.4672 14.7818 17.483 14.8202C17.5929 15.088 17.8976 15.1741 18.1686 15.2202C18.2732 15.2465 18.3821 15.2537 18.4895 15.2414C18.5925 15.2158 18.6868 15.1654 18.763 15.0951C19.1014 14.8108 19.2013 14.5406 19.0028 14.1619Z" fill="#300D33"/>
<path d="M23.8592 15.1152C23.8205 15.0243 23.7144 14.8249 23.6195 14.7919C23.5658 14.7742 23.5683 14.6669 23.5133 14.6739C23.4384 14.681 23.3672 14.6999 23.3085 14.6326C23.29 14.6058 23.2695 14.5802 23.2474 14.556C23.2352 14.5422 23.2199 14.5312 23.2026 14.5238C23.1853 14.5165 23.1664 14.5129 23.1475 14.5135C23.0975 14.5217 23.0638 14.5855 23.0226 14.5288C22.9639 14.4533 22.8303 14.5099 22.7828 14.5666C22.7681 14.5818 22.7552 14.5984 22.7441 14.6161C22.5443 14.6008 22.2808 14.8521 22.1772 14.9701C22.0783 15.087 22.0127 15.2259 21.9865 15.3735C21.9603 15.5211 21.9743 15.6725 22.0273 15.8136C22.1347 16.1498 22.4881 16.2713 22.8028 16.3527C22.9228 16.3933 23.0502 16.4106 23.1774 16.4035C23.3019 16.3797 23.4172 16.3242 23.5108 16.243C23.9304 15.9174 24.0703 15.5953 23.8592 15.1152Z" fill="#48264C"/>
<path d="M23.8592 15.1154C23.8214 15.0269 23.7719 14.9432 23.7118 14.8665C23.6631 15.1273 23.5193 15.3637 23.3054 15.5348C23.0914 15.7059 22.8208 15.8009 22.5405 15.8032C22.3463 15.802 22.1557 15.7532 21.9873 15.6616C21.9957 15.7115 22.0078 15.7608 22.0235 15.8091C22.1309 16.1453 22.4843 16.2668 22.799 16.3482C22.919 16.3888 23.0464 16.4061 23.1736 16.399C23.2982 16.3752 23.4134 16.3197 23.507 16.2385C23.9304 15.9176 24.0702 15.5956 23.8592 15.1154Z" fill="#300D33"/>
<path d="M23.6757 25.1019C23.627 24.9969 23.4984 24.768 23.3848 24.7314C23.3198 24.7114 23.3198 24.5863 23.2599 24.5934C23.1712 24.6028 23.0863 24.6252 23.0102 24.5486C22.9877 24.5173 22.9626 24.4877 22.9352 24.4601C22.9195 24.4438 22.9001 24.4312 22.8785 24.423C22.8569 24.4148 22.8336 24.4114 22.8104 24.4129C22.7504 24.4223 22.7104 24.4955 22.6568 24.4318C22.5843 24.3445 22.4257 24.4117 22.3683 24.4766C22.3511 24.4949 22.3357 24.5147 22.3221 24.5356C22.0823 24.5191 21.7689 24.814 21.6453 24.9461C21.5286 25.08 21.4514 25.2407 21.4216 25.4118C21.3917 25.5829 21.4103 25.7585 21.4754 25.9206C21.609 26.3076 22.0349 26.4433 22.4132 26.5329C22.5609 26.5805 22.7172 26.5994 22.8728 26.5884C23.0208 26.5603 23.1583 26.4955 23.2711 26.4008C23.7657 26.0256 23.928 25.6505 23.6757 25.1019Z" fill="#48264C"/>
<path d="M23.6759 25.1021C23.6296 24.9995 23.5692 24.9031 23.4961 24.8154C23.4333 25.1222 23.2599 25.399 23.0053 25.5984C22.7507 25.7978 22.4307 25.9076 22.0999 25.9091C21.8671 25.9094 21.6378 25.8547 21.4331 25.7498C21.443 25.8079 21.4581 25.8651 21.4781 25.9209C21.6117 26.3078 22.0375 26.4435 22.4159 26.5332C22.5635 26.5808 22.7199 26.5996 22.8754 26.5886C23.0234 26.5605 23.1609 26.4958 23.2738 26.401C23.7658 26.0259 23.9281 25.6507 23.6759 25.1021Z" fill="#300D33"/>
<path d="M18.0286 24.2525C18.0286 24.2525 18.362 24.1345 18.5556 24.551C18.7492 24.9674 18.8191 25.3768 19.0127 25.5715C19.0659 25.6152 19.1078 25.6698 19.1353 25.7311C19.1628 25.7924 19.1751 25.8589 19.1712 25.9254C19.1712 25.9254 18.6255 25.6434 18.4857 25.4936C18.2781 25.29 18.1005 25.0611 17.9574 24.8129C17.8001 24.5132 17.689 24.2324 17.689 24.2324L18.0286 24.2525Z" fill="#5F825C"/>
<path d="M17.8978 24.1793C17.8978 24.1793 17.9814 23.8525 17.5231 23.7192C17.0648 23.5859 16.624 23.5658 16.3992 23.4066C16.3466 23.3612 16.2837 23.3279 16.2152 23.3093C16.1468 23.2907 16.0747 23.2872 16.0046 23.2992C16.0046 23.2992 16.363 23.7794 16.5366 23.8891C16.7748 24.0598 17.036 24.1999 17.3133 24.3056C17.6455 24.4235 17.954 24.492 17.954 24.492L17.8978 24.1793Z" fill="#5F825C"/>
<path d="M17.8327 24.3388C17.8327 24.3388 18.4483 24.7541 18.4308 25.3192C18.4133 25.8843 18.4133 26.1663 18.0562 26.4813C17.699 26.7963 17.0197 26.8139 16.6676 26.9626C16.3154 27.1112 15.8946 27.2457 15.7934 27.3283C15.6923 27.4109 15.4775 27.4947 15.1615 27.3283C14.8456 27.162 14.662 27.1797 14.722 26.7137C14.8116 26.114 14.9647 25.5243 15.179 24.9535C15.3539 24.5217 15.5087 24.189 16.0032 24.0568C16.4773 23.9417 16.9782 23.9765 17.4293 24.1559C17.7402 24.3058 17.8327 24.3388 17.8327 24.3388Z" fill="#ED6366"/>
<path d="M14.7958 26.2643C15.0752 26.3634 15.3714 26.4142 15.6699 26.4141C16.8937 26.4141 17.8852 25.6012 17.8852 24.5996C17.8855 24.517 17.8788 24.4346 17.8652 24.353C17.9976 24.4533 18.4409 24.8249 18.4259 25.3063C18.4084 25.8702 18.4084 26.1534 18.0513 26.4684C17.6941 26.7834 17.0148 26.801 16.6627 26.9497C16.3105 27.0983 15.8897 27.2328 15.7885 27.3154C15.6874 27.398 15.4726 27.4818 15.1567 27.3154C14.8407 27.1491 14.6572 27.1656 14.7171 26.7008C14.7358 26.5781 14.762 26.4282 14.7958 26.2643Z" fill="#C73A54"/>
<path d="M18.1064 25.5774C18.19 25.588 18.21 25.4523 18.2162 25.3532C18.2226 25.3284 18.2226 25.3025 18.2162 25.2777V25.2695C18.2162 25.26 18.2025 25.2577 18.2013 25.2695C18.1984 25.2697 18.1957 25.2706 18.1933 25.272C18.1909 25.2734 18.1889 25.2754 18.1875 25.2777C18.1725 25.3096 17.9902 25.5632 18.1064 25.5774Z" fill="#E7D8C8"/>
<path d="M17.9316 25.0654C17.9328 25.0669 17.9343 25.0681 17.936 25.0689C17.9377 25.0697 17.9397 25.0702 17.9416 25.0702C17.9435 25.0702 17.9455 25.0697 17.9472 25.0689C17.9489 25.0681 17.9504 25.0669 17.9516 25.0654C17.9761 25.0465 17.996 25.0228 18.0098 24.9959C18.0236 24.969 18.031 24.9396 18.0315 24.9097C18.0382 24.8935 18.042 24.8764 18.0427 24.859C18.043 24.8565 18.0425 24.854 18.0414 24.8517C18.0403 24.8495 18.0386 24.8475 18.0365 24.8461C18.0343 24.8447 18.0318 24.8438 18.0292 24.8436C18.0266 24.8433 18.0239 24.8438 18.0215 24.8448C18.0215 24.8448 18.0065 24.8448 18.0078 24.8448C17.972 24.8692 17.9454 24.9038 17.9317 24.9434C17.918 24.9831 17.918 25.0258 17.9316 25.0654Z" fill="#E7D8C8"/>
<path d="M17.5705 24.7974C17.6429 24.8516 17.6767 24.7278 17.6954 24.6464C17.7061 24.6217 17.7136 24.596 17.7179 24.5697C17.7182 24.5667 17.7175 24.5637 17.7158 24.5611C17.7142 24.5585 17.7118 24.5565 17.7089 24.5553C17.7059 24.5542 17.7027 24.5539 17.6996 24.5546C17.6965 24.5552 17.6937 24.5568 17.6916 24.5591C17.6567 24.598 17.4993 24.7478 17.5705 24.7974Z" fill="#E7D8C8"/>
<path d="M17.5242 25.3238C17.5252 25.325 17.5266 25.326 17.5281 25.3267C17.5296 25.3274 17.5312 25.3277 17.5329 25.3277C17.5346 25.3277 17.5363 25.3274 17.5378 25.3267C17.5393 25.326 17.5406 25.325 17.5417 25.3238C17.5655 25.3019 17.5865 25.2773 17.6041 25.2506C17.6476 25.2046 17.6746 25.1468 17.6815 25.0855C17.6815 25.076 17.6715 25.0642 17.6603 25.0689L17.6378 25.0831C17.5579 25.1385 17.463 25.2459 17.5242 25.3238Z" fill="#E7D8C8"/>
<path d="M17.6494 25.8512C17.6956 25.8784 17.7231 25.8159 17.738 25.751C17.7585 25.7178 17.7704 25.6807 17.773 25.6424C17.7732 25.6399 17.7728 25.6375 17.7717 25.6352C17.7706 25.6329 17.7689 25.631 17.7667 25.6295C17.7646 25.6281 17.7621 25.6272 17.7594 25.627C17.7568 25.6268 17.7542 25.6272 17.7518 25.6283H17.7368C17.7368 25.6283 17.7368 25.6283 17.7368 25.6365C17.7039 25.6684 17.6781 25.7061 17.6606 25.7474C17.6481 25.7746 17.6157 25.8335 17.6494 25.8512Z" fill="#E7D8C8"/>
<path d="M17.8852 26.1437C17.9352 26.1743 17.9876 26.1307 18.0101 26.0882C18.0224 26.0593 18.0316 26.0292 18.0376 25.9985C18.0524 25.9748 18.0614 25.9482 18.0638 25.9207C18.0668 25.9176 18.0684 25.9136 18.0684 25.9095C18.0684 25.9053 18.0668 25.9013 18.0638 25.8983V25.89C18.0638 25.8806 18.0476 25.8711 18.0376 25.8794C17.9964 25.9077 17.809 26.0953 17.8852 26.1437Z" fill="#E7D8C8"/>
<path d="M17.4008 26.3063C17.4433 26.3617 17.4845 26.3063 17.5132 26.252C17.5308 26.2372 17.5448 26.219 17.5543 26.1987C17.5638 26.1783 17.5685 26.1563 17.5681 26.134C17.5681 26.1319 17.5675 26.1299 17.5664 26.1281C17.5654 26.1262 17.5639 26.1247 17.562 26.1235C17.5602 26.1224 17.5581 26.1216 17.5559 26.1214C17.5537 26.1212 17.5515 26.1215 17.5494 26.1222C17.4907 26.1435 17.3483 26.2378 17.4008 26.3063Z" fill="#E7D8C8"/>
<path d="M17.166 25.6234C17.2022 25.582 17.2442 25.5455 17.2909 25.5148C17.2934 25.5129 17.2965 25.5118 17.2998 25.5115C17.303 25.5113 17.3063 25.512 17.3091 25.5135C17.3119 25.515 17.3142 25.5173 17.3156 25.5201C17.3171 25.5229 17.3176 25.526 17.3171 25.529C17.3158 25.5466 17.3111 25.5637 17.3034 25.5797V25.5974C17.297 25.6467 17.2753 25.6932 17.2409 25.7307C17.2147 25.7591 17.1535 25.7732 17.1285 25.7307C17.1036 25.6883 17.1435 25.6434 17.166 25.6234Z" fill="#E7D8C8"/>
<path d="M17.0961 25.207C17.1061 25.2436 17.1561 25.24 17.1811 25.2212C17.1978 25.2069 17.2113 25.1896 17.221 25.1704C17.2442 25.1436 17.2582 25.1106 17.261 25.076C17.2611 25.0734 17.2605 25.0708 17.2594 25.0684C17.2582 25.066 17.2564 25.0639 17.2542 25.0623C17.252 25.0607 17.2495 25.0596 17.2467 25.0591C17.244 25.0586 17.2412 25.0588 17.2385 25.0595C17.203 25.0727 17.1713 25.0938 17.1461 25.1209C17.1236 25.1409 17.0862 25.174 17.0961 25.207Z" fill="#E7D8C8"/>
<path d="M17.311 24.3259C17.3151 24.3247 17.3196 24.325 17.3235 24.3268C17.3275 24.3285 17.3306 24.3316 17.3322 24.3354C17.3416 24.3705 17.34 24.4075 17.3276 24.4419C17.3152 24.4762 17.2925 24.5064 17.2623 24.5288C17.2599 24.5305 17.2572 24.5316 17.2544 24.532C17.2515 24.5325 17.2485 24.5323 17.2457 24.5315C17.243 24.5307 17.2404 24.5293 17.2383 24.5274C17.2362 24.5255 17.2346 24.5232 17.2336 24.5206C17.2298 24.5123 17.2272 24.5036 17.2261 24.4946C17.2147 24.4616 17.2171 24.4257 17.2329 24.3943C17.2487 24.3629 17.2767 24.3384 17.311 24.3259Z" fill="#E7D8C8"/>
<path d="M16.8799 24.9746C16.9174 25.0041 16.9486 24.9746 16.9711 24.9275C16.9996 24.9006 17.0206 24.8674 17.0322 24.831C17.0437 24.7945 17.0455 24.7559 17.0373 24.7186C17.0356 24.7153 17.0329 24.7126 17.0296 24.7107C17.0263 24.7088 17.0224 24.7079 17.0185 24.708C16.9623 24.7151 16.9149 24.7894 16.8937 24.826C16.8724 24.8626 16.8325 24.9393 16.8799 24.9746Z" fill="#E7D8C8"/>
<path d="M16.8663 24.2972C16.8736 24.2888 16.8815 24.2809 16.89 24.2736C16.8928 24.2718 16.8961 24.2707 16.8995 24.2704C16.9029 24.27 16.9064 24.2706 16.9095 24.2719C16.9126 24.2732 16.9154 24.2752 16.9174 24.2778C16.9195 24.2804 16.9208 24.2834 16.9213 24.2866C16.9248 24.3139 16.9217 24.3416 16.9121 24.3675C16.9026 24.3935 16.8869 24.4171 16.8663 24.4365C16.8665 24.4396 16.8665 24.4428 16.8663 24.4459C16.8625 24.4531 16.8568 24.4593 16.8497 24.4639C16.8427 24.4685 16.8345 24.4712 16.826 24.4719C16.8174 24.4726 16.8089 24.4713 16.801 24.468C16.7932 24.4646 16.7865 24.4595 16.7814 24.453C16.7277 24.4011 16.8039 24.3256 16.8663 24.2972Z" fill="#E7D8C8"/>
<path d="M16.4417 24.7293C16.4666 24.6804 16.5061 24.6394 16.5553 24.6113C16.5581 24.6094 16.5615 24.6083 16.5651 24.6082C16.5686 24.6081 16.572 24.609 16.575 24.6107C16.578 24.6125 16.5803 24.6151 16.5817 24.6182C16.5831 24.6212 16.5835 24.6246 16.5828 24.6279C16.5812 24.6498 16.5757 24.6714 16.5665 24.6916C16.5665 24.6986 16.5665 24.7057 16.5665 24.7116C16.5638 24.7377 16.558 24.7635 16.5491 24.7883C16.541 24.8123 16.5236 24.8326 16.5004 24.8449C16.4986 24.8479 16.4961 24.8503 16.493 24.8521C16.4899 24.8538 16.4864 24.8547 16.4829 24.8547C16.4793 24.8547 16.4758 24.8538 16.4727 24.8521C16.4697 24.8503 16.4671 24.8479 16.4654 24.8449C16.4167 24.8202 16.4317 24.7588 16.4417 24.7293Z" fill="#E7D8C8"/>
<path d="M16.3529 24.4437C16.3549 24.445 16.3573 24.4457 16.3598 24.4457C16.3622 24.4457 16.3646 24.445 16.3666 24.4437C16.3833 24.4287 16.3987 24.4125 16.4128 24.3953C16.4444 24.3705 16.471 24.3405 16.4915 24.3069C16.5001 24.2921 16.5035 24.2752 16.5015 24.2585V24.2502C16.5015 24.242 16.5015 24.2361 16.489 24.2396C16.4844 24.2343 16.4784 24.2301 16.4717 24.2274C16.4649 24.2248 16.4576 24.2237 16.4503 24.2243C16.3666 24.2255 16.2792 24.3859 16.3529 24.4437Z" fill="#E7D8C8"/>
<path d="M15.8484 24.5913C15.8734 24.6361 15.9321 24.5913 15.9533 24.5665C15.9873 24.5294 16.011 24.4848 16.022 24.4368C16.0307 24.4207 16.0354 24.4029 16.0357 24.3849C16.0361 24.3822 16.0359 24.3796 16.035 24.3771C16.0342 24.3745 16.0327 24.3722 16.0308 24.3703C16.0289 24.3684 16.0266 24.3669 16.024 24.3659C16.0213 24.365 16.0185 24.3646 16.0158 24.3648C15.9866 24.3687 15.9589 24.3794 15.9351 24.3958C15.9114 24.4123 15.8923 24.4341 15.8796 24.4592C15.8584 24.4934 15.8259 24.5512 15.8484 24.5913Z" fill="#E7D8C8"/>
<path d="M15.9721 25.0654C15.9871 25.102 16.027 25.0843 16.042 25.0654C16.057 25.0465 16.0557 25.0406 16.062 25.0288C16.0867 25.0033 16.1042 24.9723 16.113 24.9387C16.1217 24.9051 16.1213 24.87 16.1119 24.8365C16.1111 24.8343 16.1097 24.8323 16.1078 24.8306C16.106 24.829 16.1038 24.8278 16.1013 24.8271C16.0989 24.8264 16.0963 24.8262 16.0939 24.8266C16.0914 24.8271 16.089 24.828 16.087 24.8295C16.052 24.8595 16.0247 24.8966 16.007 24.938C15.9921 24.9687 15.9546 25.0229 15.9721 25.0654Z" fill="#E7D8C8"/>
<path d="M16.4802 25.2696C16.4935 25.2103 16.5284 25.1573 16.5788 25.1197C16.581 25.1175 16.5839 25.1159 16.587 25.1151C16.5901 25.1143 16.5934 25.1143 16.5965 25.1152C16.5996 25.116 16.6024 25.1177 16.6046 25.1199C16.6067 25.1222 16.6082 25.125 16.6088 25.128C16.6109 25.15 16.6079 25.1721 16.6001 25.1929C16.5969 25.219 16.5863 25.2438 16.5694 25.2645C16.5524 25.2853 16.5298 25.3014 16.5039 25.3109H16.4914C16.4884 25.3113 16.4853 25.311 16.4823 25.3101C16.4794 25.3091 16.4768 25.3076 16.4746 25.3055C16.4724 25.3035 16.4708 25.301 16.4698 25.2982C16.4688 25.2955 16.4685 25.2925 16.4689 25.2896L16.4802 25.2696Z" fill="#E7D8C8"/>
<path d="M16.8448 25.4087C16.8474 25.407 16.8504 25.4061 16.8535 25.4058C16.8566 25.4056 16.8597 25.4061 16.8626 25.4072C16.8654 25.4084 16.8679 25.4102 16.8698 25.4125C16.8718 25.4148 16.873 25.4176 16.8736 25.4205C16.8736 25.4205 16.8736 25.4205 16.8736 25.4287C16.8736 25.4948 16.8249 25.601 16.7487 25.6069C16.7466 25.6072 16.7445 25.6071 16.7425 25.6066C16.7404 25.6061 16.7385 25.6053 16.7369 25.604C16.7352 25.6028 16.7339 25.6013 16.7329 25.5995C16.7319 25.5978 16.7313 25.5959 16.7312 25.5939C16.7333 25.5567 16.7448 25.5206 16.7645 25.4884C16.7843 25.4562 16.8118 25.4289 16.8448 25.4087Z" fill="#E7D8C8"/>
<path d="M16.4167 25.6232C16.4323 25.6085 16.4499 25.5958 16.4691 25.5854C16.4791 25.5854 16.4966 25.5854 16.4966 25.5961C16.4941 25.6433 16.4737 25.6881 16.4391 25.7223C16.4248 25.7441 16.404 25.7613 16.3792 25.7718C16.3759 25.773 16.3722 25.7729 16.369 25.7716C16.3657 25.7703 16.3631 25.7678 16.3617 25.7648C16.3617 25.7648 16.3617 25.7565 16.3617 25.7518C16.361 25.7487 16.361 25.7455 16.3617 25.7424C16.3575 25.7196 16.3605 25.6962 16.3703 25.675C16.38 25.6538 16.3962 25.6358 16.4167 25.6232Z" fill="#E7D8C8"/>
<path d="M16.0883 25.292C16.0934 25.2917 16.0984 25.2932 16.1024 25.2963C16.1063 25.2994 16.1089 25.3038 16.1095 25.3086C16.1114 25.3187 16.1114 25.3291 16.1095 25.3392C16.1119 25.3564 16.1102 25.3739 16.1046 25.3904C16.0989 25.4069 16.0895 25.4221 16.077 25.4348C16.0604 25.4635 16.0346 25.4866 16.0034 25.5009C15.9959 25.5009 15.9871 25.5009 15.9834 25.4926C15.9559 25.4312 15.9984 25.2909 16.0883 25.292Z" fill="#E7D8C8"/>
<path d="M15.5252 25.2177C15.526 25.2202 15.5274 25.2224 15.5292 25.2244C15.531 25.2263 15.5332 25.2279 15.5356 25.229C15.5381 25.2301 15.5407 25.2307 15.5435 25.2308C15.5462 25.2309 15.5489 25.2304 15.5514 25.2295C15.5901 25.2124 15.6214 25.1833 15.6401 25.147C15.6587 25.1107 15.6636 25.0694 15.6538 25.0301C15.6526 25.0277 15.6509 25.0255 15.6488 25.0237C15.6467 25.022 15.6441 25.0206 15.6414 25.0199C15.6387 25.0191 15.6358 25.0189 15.633 25.0192C15.6302 25.0195 15.6275 25.0205 15.6251 25.0219C15.5969 25.0406 15.573 25.0648 15.5552 25.0927C15.5402 25.1099 15.5297 25.1301 15.5245 25.1518C15.5193 25.1735 15.5195 25.1961 15.5252 25.2177Z" fill="#E7D8C8"/>
<path d="M15.5798 25.6732C15.5797 25.6489 15.5865 25.6251 15.5998 25.6042C15.613 25.5834 15.632 25.5665 15.6548 25.5552C15.6575 25.554 15.6606 25.5536 15.6636 25.5538C15.6666 25.554 15.6696 25.5549 15.6721 25.5564C15.6747 25.5579 15.6769 25.5599 15.6784 25.5624C15.68 25.5649 15.6808 25.5677 15.681 25.5705C15.6844 25.594 15.6819 25.6179 15.6736 25.6402C15.6654 25.6626 15.6516 25.6828 15.6335 25.6991C15.6281 25.7062 15.6214 25.7122 15.6136 25.7168C15.6112 25.718 15.6086 25.7188 15.6059 25.719C15.6032 25.7193 15.6005 25.719 15.598 25.7182C15.5954 25.7175 15.593 25.7162 15.591 25.7145C15.5889 25.7129 15.5873 25.7108 15.5861 25.7086C15.5855 25.7073 15.5852 25.7059 15.5852 25.7044C15.5852 25.703 15.5855 25.7016 15.5861 25.7003C15.5827 25.6916 15.5806 25.6824 15.5798 25.6732Z" fill="#E7D8C8"/>
<path d="M16.7239 25.844C16.7261 25.8439 16.7283 25.8442 16.7305 25.8448C16.7326 25.8455 16.7345 25.8467 16.7362 25.8481C16.7378 25.8495 16.7391 25.8513 16.74 25.8532C16.7409 25.8552 16.7414 25.8573 16.7414 25.8594C16.7412 25.8908 16.7316 25.9216 16.7137 25.9481C16.6958 25.9746 16.6703 25.9958 16.6402 26.0092C16.6361 26.0104 16.6318 26.0104 16.6277 26.0092H16.6102C16.6082 26.0096 16.6062 26.0095 16.6042 26.009C16.6022 26.0085 16.6004 26.0076 16.5989 26.0064C16.5973 26.0051 16.5961 26.0036 16.5952 26.0018C16.5944 26.0001 16.594 25.9982 16.594 25.9962C16.6009 25.9628 16.6163 25.9314 16.6389 25.9049C16.6616 25.8784 16.6907 25.8575 16.7239 25.844Z" fill="#E7D8C8"/>
<path d="M16.8561 26.1731C16.8557 26.1762 16.8562 26.1794 16.8574 26.1824C16.8587 26.1853 16.8608 26.1879 16.8634 26.1899C16.866 26.1919 16.8691 26.1933 16.8724 26.1938C16.8757 26.1944 16.8791 26.1941 16.8823 26.1931H16.8911C16.8929 26.1943 16.8951 26.1949 16.8973 26.1949C16.8995 26.1949 16.9017 26.1943 16.9035 26.1931L16.9123 26.1849C16.9365 26.1688 16.9571 26.1484 16.9728 26.1246C16.9884 26.1009 16.9989 26.0745 17.0034 26.0468C17.0039 26.0441 17.0036 26.0413 17.0025 26.0388C17.0015 26.0362 16.9997 26.034 16.9974 26.0323C16.9951 26.0306 16.9924 26.0295 16.9895 26.0292C16.9866 26.0288 16.9836 26.0292 16.981 26.0303C16.941 26.0479 16.9079 26.0767 16.8861 26.1129C16.8719 26.1308 16.8617 26.1513 16.8561 26.1731Z" fill="#E7D8C8"/>
<path d="M16.7826 26.5887C16.7984 26.5572 16.8215 26.5294 16.8501 26.5073C16.8622 26.4947 16.8756 26.4833 16.89 26.4731C16.8941 26.4718 16.8984 26.4718 16.9025 26.4731C16.905 26.4712 16.9081 26.47 16.9114 26.4698C16.9146 26.4695 16.9179 26.4702 16.9207 26.4717C16.9235 26.4733 16.9258 26.4756 16.9272 26.4783C16.9287 26.4811 16.9292 26.4842 16.9287 26.4873C16.9239 26.5152 16.9106 26.5412 16.8904 26.5622C16.8702 26.5831 16.8441 26.5981 16.8151 26.6052H16.8051C16.8025 26.6069 16.7994 26.6077 16.7962 26.6076C16.7931 26.6075 16.79 26.6065 16.7875 26.6047C16.785 26.6028 16.7832 26.6003 16.7823 26.5974C16.7815 26.5946 16.7816 26.5915 16.7826 26.5887Z" fill="#E7D8C8"/>
<path d="M16.3779 26.3855C16.379 26.3684 16.384 26.3517 16.3927 26.3366C16.4013 26.3215 16.4133 26.3084 16.4278 26.2982C16.4471 26.2794 16.4712 26.2656 16.4978 26.2581C16.509 26.2581 16.524 26.2581 16.524 26.2722C16.522 26.3058 16.5089 26.3378 16.4865 26.3639C16.464 26.39 16.4335 26.4087 16.3991 26.4173C16.3965 26.4177 16.3938 26.4175 16.3913 26.4168C16.3887 26.4162 16.3863 26.4151 16.3842 26.4135C16.3821 26.412 16.3804 26.4101 16.3791 26.4079C16.3778 26.4057 16.3769 26.4033 16.3766 26.4008C16.3754 26.3998 16.3745 26.3986 16.3738 26.3972C16.3732 26.3958 16.373 26.3943 16.3731 26.3928C16.3732 26.3913 16.3737 26.3899 16.3745 26.3886C16.3754 26.3873 16.3765 26.3863 16.3779 26.3855Z" fill="#E7D8C8"/>
<path d="M16.0895 25.9019H16.0995C16.1035 25.9005 16.1078 25.8999 16.1121 25.9003C16.1164 25.9007 16.1206 25.902 16.1242 25.9042C16.1279 25.9064 16.1309 25.9093 16.1331 25.9128C16.1353 25.9163 16.1366 25.9203 16.1369 25.9244C16.1294 25.9845 16.0757 26.0624 16.0121 26.0659C16.0021 26.0659 15.9883 26.0589 15.9896 26.0482C15.9891 26.0173 15.9983 25.9868 16.0161 25.9608C16.0339 25.9348 16.0594 25.9143 16.0895 25.9019Z" fill="#E7D8C8"/>
<path d="M15.8872 26.4492C15.9125 26.4142 15.9487 26.3874 15.9908 26.3725C15.9941 26.3713 15.9976 26.3708 16.0011 26.3713C16.0046 26.3717 16.0079 26.373 16.0107 26.375C16.0135 26.3771 16.0157 26.3798 16.017 26.3829C16.0183 26.3859 16.0188 26.3893 16.0183 26.3926C15.9952 26.4613 15.9451 26.5191 15.8784 26.5542C15.8756 26.5564 15.8722 26.5578 15.8687 26.5582C15.8651 26.5587 15.8614 26.5583 15.8581 26.5569C15.8547 26.5556 15.8519 26.5534 15.8497 26.5507C15.8476 26.5479 15.8463 26.5447 15.846 26.5412C15.8447 26.5239 15.8478 26.5066 15.855 26.4906C15.8621 26.4746 15.8732 26.4605 15.8872 26.4492Z" fill="#E7D8C8"/>
<path d="M15.5574 26.0718C15.5583 26.0481 15.5654 26.0249 15.578 26.0043C15.5907 25.9837 15.6085 25.9664 15.6298 25.9539C15.6398 25.9539 15.6586 25.9539 15.6623 25.9621C15.6669 25.9933 15.6619 26.0252 15.648 26.0538C15.634 26.0824 15.6117 26.1067 15.5836 26.1237C15.5801 26.1264 15.5758 26.128 15.5712 26.1283C15.5667 26.1287 15.5622 26.1277 15.5582 26.1255C15.5543 26.1233 15.5512 26.1201 15.5492 26.1162C15.5473 26.1123 15.5467 26.1079 15.5474 26.1037C15.5501 26.0929 15.5534 26.0823 15.5574 26.0718Z" fill="#E7D8C8"/>
<path d="M15.2429 25.705C15.247 25.691 15.2557 25.6786 15.2679 25.6696L15.2754 25.6614C15.2841 25.6508 15.3079 25.6543 15.3079 25.6696C15.307 25.6954 15.2983 25.7204 15.2829 25.7416C15.282 25.7571 15.2777 25.7723 15.2702 25.7862C15.2626 25.8 15.2521 25.8121 15.2392 25.8218C15.2368 25.8233 15.2341 25.8241 15.2313 25.8242C15.2285 25.8244 15.2257 25.8238 15.2231 25.8226C15.2206 25.8215 15.2185 25.8197 15.2169 25.8174C15.2153 25.8152 15.2144 25.8127 15.2142 25.81C15.211 25.773 15.2211 25.736 15.2429 25.705Z" fill="#E7D8C8"/>
<path d="M15.5539 24.6856L15.5701 24.6655C15.5789 24.6573 15.5988 24.6655 15.5988 24.6738C15.6012 24.6973 15.5978 24.721 15.5889 24.7431C15.58 24.7652 15.5659 24.7851 15.5476 24.8012V24.8083C15.5457 24.81 15.5434 24.8112 15.5408 24.8118C15.5382 24.8124 15.5355 24.8123 15.533 24.8116C15.5304 24.8109 15.5281 24.8096 15.5263 24.8077C15.5245 24.8059 15.5232 24.8036 15.5227 24.8012C15.5214 24.7938 15.5214 24.7862 15.5227 24.7788C15.5176 24.7621 15.5179 24.7443 15.5234 24.7277C15.529 24.7112 15.5396 24.6965 15.5539 24.6856Z" fill="#E7D8C8"/>
<path d="M15.4038 26.63C15.4051 26.6322 15.407 26.634 15.4093 26.6353C15.4116 26.6366 15.4142 26.6373 15.4169 26.6373C15.4196 26.6373 15.4222 26.6366 15.4245 26.6353C15.4268 26.634 15.4287 26.6322 15.43 26.63L15.44 26.6194C15.4653 26.6007 15.4861 26.5772 15.5009 26.5503C15.5158 26.5234 15.5244 26.4939 15.5262 26.4636C15.5265 26.4603 15.5258 26.457 15.5242 26.4541C15.5227 26.4511 15.5202 26.4486 15.5173 26.4469C15.5143 26.4452 15.5108 26.4443 15.5073 26.4443C15.5038 26.4444 15.5004 26.4453 15.4974 26.4471C15.4437 26.4837 15.3801 26.5674 15.4038 26.63Z" fill="#E7D8C8"/>
<path d="M15.1056 26.382C15.1086 26.3665 15.1169 26.3524 15.1293 26.3419C15.1341 26.3341 15.14 26.3269 15.1468 26.3206C15.1486 26.3182 15.151 26.3162 15.1539 26.3148C15.1567 26.3135 15.1598 26.3127 15.163 26.3127C15.1662 26.3127 15.1693 26.3135 15.1721 26.3148C15.1749 26.3162 15.1774 26.3182 15.1792 26.3206C15.1891 26.3465 15.1891 26.3749 15.1792 26.4008C15.1726 26.4275 15.1579 26.4517 15.1368 26.4704C15.1347 26.4719 15.1324 26.4728 15.1299 26.4733C15.1274 26.4737 15.1248 26.4735 15.1224 26.4728C15.12 26.4722 15.1177 26.4709 15.1159 26.4693C15.1141 26.4676 15.1127 26.4656 15.1118 26.4634C15.1045 26.451 15.1002 26.4374 15.0991 26.4233C15.0981 26.4093 15.1003 26.3951 15.1056 26.382Z" fill="#E7D8C8"/>
<path d="M15.1566 26.7843C15.1593 26.7824 15.1625 26.7812 15.1659 26.7809C15.1692 26.7805 15.1726 26.781 15.1757 26.7824C15.1788 26.7837 15.1814 26.7858 15.1833 26.7884C15.1852 26.7911 15.1864 26.7941 15.1866 26.7973C15.1897 26.8257 15.1864 26.8545 15.1767 26.8816C15.167 26.9087 15.1512 26.9334 15.1304 26.9542C15.1304 26.9542 15.1304 26.9613 15.1304 26.9637C15.1291 26.9664 15.1271 26.9688 15.1244 26.9705C15.1217 26.9722 15.1186 26.9731 15.1154 26.9731C15.1122 26.9731 15.1091 26.9722 15.1064 26.9705C15.1037 26.9688 15.1016 26.9664 15.1004 26.9637C15.0921 26.9317 15.0929 26.8983 15.1028 26.8668C15.1127 26.8353 15.1312 26.8068 15.1566 26.7843Z" fill="#E7D8C8"/>
<path d="M15.6174 26.9578C15.6216 26.9566 15.626 26.9568 15.6301 26.9583C15.6342 26.9598 15.6376 26.9625 15.6399 26.966C15.6412 26.9679 15.6419 26.9702 15.6419 26.9725C15.6419 26.9748 15.6412 26.9771 15.6399 26.979C15.6403 26.9817 15.6403 26.9845 15.6399 26.9872C15.6397 27.0102 15.6339 27.0329 15.6228 27.0534C15.6118 27.0739 15.5958 27.0916 15.5762 27.1052C15.5739 27.1069 15.5713 27.108 15.5685 27.1086C15.5657 27.1091 15.5628 27.109 15.56 27.1084C15.5572 27.1077 15.5546 27.1064 15.5525 27.1046C15.5503 27.1029 15.5486 27.1006 15.5475 27.0981C15.5469 27.0958 15.5469 27.0934 15.5475 27.0911C15.5452 27.0913 15.5428 27.091 15.5407 27.0902C15.5385 27.0894 15.5366 27.0882 15.535 27.0866C15.5334 27.085 15.5323 27.0831 15.5316 27.081C15.531 27.0789 15.5308 27.0767 15.5312 27.0745C15.5344 27.0499 15.5439 27.0264 15.559 27.006C15.574 26.9857 15.594 26.9691 15.6174 26.9578Z" fill="#E7D8C8"/>
<path d="M16.2118 26.6735C16.2144 26.6719 16.2174 26.671 16.2205 26.6707C16.2236 26.6705 16.2267 26.671 16.2295 26.6721C16.2324 26.6733 16.2349 26.6751 16.2368 26.6774C16.2387 26.6797 16.24 26.6825 16.2405 26.6853C16.2418 26.7212 16.2319 26.7565 16.2122 26.7871C16.1924 26.8177 16.1636 26.8422 16.1294 26.8576C16.1234 26.8598 16.1167 26.8598 16.1106 26.8576L16.0957 26.867C16.0934 26.8678 16.0911 26.868 16.0887 26.8677C16.0864 26.8674 16.0841 26.8666 16.0822 26.8654C16.0802 26.8641 16.0786 26.8624 16.0775 26.8604C16.0764 26.8585 16.0757 26.8563 16.0757 26.8541C16.081 26.8157 16.0962 26.7792 16.1199 26.7478C16.1436 26.7163 16.1752 26.6908 16.2118 26.6735Z" fill="#E7D8C8"/>
<path d="M17.2257 26.592C17.2283 26.5865 17.2317 26.5813 17.2357 26.5767C17.2337 26.5681 17.2337 26.5593 17.2357 26.5507C17.2498 26.5251 17.2727 26.5047 17.3006 26.4929C17.3106 26.4929 17.3244 26.4929 17.3281 26.5C17.3331 26.5166 17.3331 26.5341 17.3281 26.5507C17.3242 26.5699 17.3127 26.587 17.2961 26.5986C17.2794 26.6101 17.2588 26.6154 17.2382 26.6133C17.2338 26.6117 17.2301 26.6087 17.2279 26.6048C17.2256 26.6009 17.2248 26.5964 17.2257 26.592Z" fill="#E7D8C8"/>
</g>
<defs>
<clipPath id="clip0_216_1811">
<rect width="24" height="16" fill="white" transform="translate(8 13)"/>
</clipPath>
</defs>
</svg>
