<svg width="40" height="41" viewBox="0 0 40 41" fill="none" xmlns="http://www.w3.org/2000/svg">
<ellipse cx="20" cy="20.5" rx="20" ry="20.5" fill="#F7F8F8"/>
<path fill-rule="evenodd" clip-rule="evenodd" d="M30.9834 26.8977C30.9834 28.0193 25.8854 29.249 20.4781 29.249C15.0708 29.249 10.6497 27.2999 10.6497 26.1783C10.6497 25.0567 15.7876 24.8679 21.1936 24.8679C26.5995 24.8679 30.9834 25.7761 30.9834 26.8977Z" fill="#E2CAB3"/>
<path fill-rule="evenodd" clip-rule="evenodd" d="M31.8202 28.0427C31.8354 28.6418 30.5329 29.1615 28.91 29.2026C27.2871 29.2436 25.9584 28.7922 25.9432 28.1918C25.9281 27.5913 27.2305 27.0729 28.8534 27.0319C30.4763 26.9909 31.805 27.4422 31.8202 28.0427Z" fill="#E2CAB3"/>
<path fill-rule="evenodd" clip-rule="evenodd" d="M8.19096 23.7791C7.32634 25.8089 8.3788 26.8717 9.78069 27.0468C10.3332 27.1151 11.1619 26.7363 11.7751 26.4996C12.2741 26.2802 12.7478 26.0082 13.1881 25.6885C13.3966 25.4765 13.6425 25.1879 13.6922 24.8679C13.6989 24.7442 13.6722 24.621 13.6148 24.5109C13.6304 24.4647 13.6533 24.4214 13.6825 24.3823C13.7571 24.2455 13.5555 24.1402 13.6563 23.987C13.8165 23.7422 13.6052 23.4782 13.5016 23.2607C13.4671 23.1909 12.5762 22.4072 12.5348 22.332C11.7917 21.5537 11.5914 21.1871 10.5693 21.0271C9.28623 20.8247 8.04179 21.2883 8.19096 23.7791Z" fill="#5F825C"/>
<g style="mix-blend-mode:multiply" opacity="0.4">
<path fill-rule="evenodd" clip-rule="evenodd" d="M8.65508 23.0295C8.80148 23.0473 8.8733 23.4399 8.81253 23.9104C8.75176 24.3809 8.58602 24.742 8.43823 24.7242C8.29044 24.7065 8.22139 24.3139 8.28078 23.8434C8.34017 23.3729 8.50038 23.0104 8.65508 23.0295Z" fill="#5F825C"/>
</g>
<path fill-rule="evenodd" clip-rule="evenodd" d="M8.79322 25.2303C8.47969 25.3671 8.50869 25.7679 8.63576 26.0278C8.63888 26.0319 8.64122 26.0365 8.64267 26.0414C8.67251 26.1013 8.70961 26.1573 8.75316 26.2083C8.90708 26.4024 9.11949 26.5428 9.3595 26.6091C9.6606 26.6843 10.0059 26.6337 10.1799 26.3971C10.1842 26.3898 10.1911 26.3844 10.1993 26.382V26.3519C10.1606 26.1987 9.92302 26.1686 9.79595 26.1495C9.51972 26.1071 9.43823 25.8664 9.35398 25.6434C9.26972 25.4205 9.06945 25.1045 8.79322 25.2303Z" fill="#8DB54F"/>
<g style="mix-blend-mode:multiply" opacity="0.4">
<path fill-rule="evenodd" clip-rule="evenodd" d="M11.6301 22.2158C11.3746 22.3526 11.6122 22.6617 11.7351 22.8081C12.0113 23.1473 12.3898 23.3907 12.6204 23.7765C12.8511 24.1622 12.55 24.7599 12.9187 25.0854C12.9365 25.1012 12.9573 25.1132 12.9798 25.1209C13.0023 25.1286 13.0262 25.1318 13.05 25.1303C13.0738 25.1287 13.097 25.1225 13.1183 25.112C13.1397 25.1015 13.1587 25.0869 13.1743 25.069C13.1904 25.0432 13.2025 25.015 13.2102 24.9856C13.2551 24.9288 13.2901 24.865 13.3138 24.7968C13.3759 24.5828 13.3677 24.3548 13.2903 24.1458C13.2323 23.9584 13.3621 23.7765 13.3055 23.5891C13.2795 23.5192 13.238 23.4561 13.1839 23.4044C13.1273 23.3393 13.0623 23.2818 12.9906 23.2334C12.8569 23.1234 12.7335 23.0016 12.6218 22.8696C12.488 22.7126 12.3411 22.5671 12.1826 22.4347C12.0155 22.2774 11.7986 22.1242 11.6301 22.2158Z" fill="#5F825C"/>
</g>
<path fill-rule="evenodd" clip-rule="evenodd" d="M8.4259 23.9051C8.28778 23.8819 8.20076 23.8271 7.75464 23.7177C7.30852 23.6083 7.08201 23.5837 7.01295 23.5426C6.94389 23.5016 7.13726 23.2869 7.13726 23.2869C7.13726 23.2869 7.4715 23.4141 7.74636 23.5153C8.02121 23.6165 8.52396 23.7505 8.52396 23.7505C8.52396 23.7505 8.60269 23.7943 8.57092 23.8654C8.53915 23.9366 8.4259 23.9051 8.4259 23.9051Z" fill="#300D33"/>
<path fill-rule="evenodd" clip-rule="evenodd" d="M31.859 19.9506C31.4847 20.0368 31.1684 20.2611 30.7789 20.2802C30.3645 20.3007 29.9502 20.1298 29.5455 20.0518C28.6657 19.8822 27.7651 19.7878 26.8757 19.6907C25.0801 19.4937 23.2611 19.4089 21.4587 19.2038C19.6562 18.9986 17.8676 18.7647 16.0638 18.7729C15.1948 18.7751 14.3275 18.8501 13.4713 18.9972C12.7655 19.119 12.0473 19.2612 11.4562 19.6811C11.0012 20.0126 10.6583 20.4728 10.4728 21.0011C10.2325 21.6439 11.5018 25.5804 11.6937 25.839C13.3622 28.0274 16.1632 28.5062 20.7722 28.4145C25.6975 28.316 27.6008 27.773 28.9958 26.5529C29.7458 25.8978 30.377 24.2126 30.4902 23.883C30.6822 23.3017 30.8949 22.7286 31.0938 22.15C31.2195 21.7834 31.3507 21.421 31.5081 21.0667C31.6747 20.7339 31.8133 20.388 31.9225 20.0327C31.9256 20.023 31.9264 20.0127 31.9246 20.0027C31.9228 19.9927 31.9187 19.9832 31.9124 19.9752C31.9062 19.9671 31.898 19.9606 31.8887 19.9564C31.8794 19.9521 31.8692 19.9501 31.859 19.9506Z" fill="#DA840D"/>
<path fill-rule="evenodd" clip-rule="evenodd" d="M31.1131 20.2201C30.4847 20.6578 29.58 20.6756 28.8438 20.8192C27.0262 21.1748 25.2141 21.4197 23.3592 21.3759C21.5443 21.3349 19.7281 21.1229 17.9201 20.9751C16.0721 20.8247 14.2199 20.7166 12.3664 20.8001C11.9569 20.8149 11.5507 20.8783 11.1565 20.9888C10.9548 21.0463 10.6537 21.1256 10.5529 21.3308C10.528 21.384 10.5144 21.4417 10.5128 21.5004V21.51C10.4217 21.8136 10.528 22.068 10.633 22.3375C10.6579 22.451 10.6855 22.5645 10.7117 22.6781C10.6648 22.6781 10.6579 22.7492 10.7117 22.7505H10.7269C10.7326 22.757 10.7396 22.7621 10.7475 22.7656C10.7554 22.7691 10.7639 22.7709 10.7725 22.7709C10.7811 22.7709 10.7896 22.7691 10.7975 22.7656C10.8054 22.7621 10.8124 22.757 10.8181 22.7505C11.144 22.7505 11.4672 22.6904 11.7946 22.6822C12.2863 22.6685 12.7034 22.9174 13.1329 23.1226C13.9036 23.4864 14.6315 23.9118 15.4119 24.2346C15.76 24.3789 16.1182 24.4982 16.4837 24.5916C16.848 24.6692 17.2171 24.7231 17.5886 24.753C17.9836 24.8036 18.3745 24.8898 18.7681 24.9431C19.209 24.9949 19.6535 25.009 20.0968 24.9855C21.8574 24.9548 23.6126 24.7833 25.3453 24.4726C26.9199 24.1799 28.4944 23.7395 29.8659 22.8983C30.4082 22.5718 30.8675 22.1263 31.2084 21.5961C31.3659 21.3513 31.4999 21.0873 31.6463 20.8356C31.754 20.6482 31.8838 20.4253 31.8645 20.2078C31.8327 19.7346 31.3065 20.0874 31.1131 20.2201Z" fill="#C66720"/>
<path opacity="0.4" fill-rule="evenodd" clip-rule="evenodd" d="M20.5222 27.4954C13.6853 28.4529 11.6384 25.7269 11.7006 25.8076C13.369 27.9961 16.1715 28.4748 20.7791 28.3831C25.7044 28.286 27.7057 27.7102 29.1021 26.4901C29.8092 25.8705 30.5924 23.5849 30.7484 23.1404C27.3273 25.928 26.3508 26.6748 20.5222 27.4954Z" fill="#C66720"/>
<path fill-rule="evenodd" clip-rule="evenodd" d="M32.9942 17.7212C32.9154 17.2411 32.1655 17.1741 31.7953 17.0373C31.468 16.9169 31.2428 16.6269 30.9763 16.4095C30.6886 16.174 30.3687 15.9801 30.026 15.8336C29.2457 15.4999 28.4639 15.2332 27.7526 14.7613C27.0979 14.3249 26.2941 14.2689 25.5427 14.1471C25.0782 14.0753 24.6236 13.9509 24.1878 13.7764C23.8006 13.5963 23.3916 13.4662 22.971 13.3894C22.5373 13.3319 22.0911 13.4304 21.6575 13.4482C21.1768 13.4673 20.7348 13.3114 20.2832 13.1746C19.9145 13.0424 19.5229 12.9843 19.1313 13.0036C18.7666 13.0337 18.4407 13.2252 18.1341 13.414C18.1264 13.4182 18.1199 13.4243 18.1153 13.4318C18.1107 13.4392 18.1081 13.4477 18.1078 13.4564C17.7611 13.6356 17.4283 13.8353 17.0802 14.0158C16.7898 14.1744 16.4783 14.2919 16.1548 14.3646C15.7584 14.4467 15.3855 14.381 14.9919 14.3304C14.3013 14.2415 13.648 14.2251 12.9933 14.4754C12.2143 14.7736 11.5942 15.3809 10.8221 15.7064C10.1578 15.98 9.57904 16.3041 9.16468 16.9101C8.99222 17.1644 8.87466 17.4512 8.81939 17.7526C8.76828 18.0768 8.84701 18.3709 8.91607 18.6882C9.00723 19.0985 8.92574 19.4268 8.80696 19.8221C8.70574 20.0828 8.71319 20.3725 8.82768 20.6277C8.93541 20.8356 9.16468 20.9697 9.36495 21.0764C9.56523 21.1831 10.0763 21.298 10.1191 21.5469C10.3014 22.6028 11.5003 22.1077 12.206 22.3676C12.5527 22.4975 12.8732 22.6945 13.2254 22.8217C13.63 22.968 14.0541 23.0775 14.4684 23.1883C15.2971 23.4098 16.0954 23.7053 16.9007 24.0089C17.2556 24.1457 17.5913 24.3153 17.9711 24.3837C18.3509 24.4521 18.7432 24.3906 19.1188 24.3577C19.8992 24.288 22.3674 24.4945 22.6947 24.329C23.1187 24.1225 23.5124 24.1416 23.9709 24.1799C24.3287 24.21 24.638 23.9474 24.9971 23.9187C25.4099 23.8784 25.817 23.7935 26.2112 23.6656C26.5628 23.5311 26.9209 23.4142 27.2844 23.3155C27.6987 23.2238 28.0606 22.927 28.4791 22.8709C29.2926 22.7601 29.8893 22.3088 30.5191 21.7849C31.0909 21.3103 32.4431 19.6744 32.5605 19.3502C32.6779 19.0261 32.7649 18.6663 32.8602 18.3312C32.9127 18.1438 33.0273 17.9209 32.9942 17.7212Z" fill="#F0A508"/>
<g opacity="0.5">
<path opacity="0.5" fill-rule="evenodd" clip-rule="evenodd" d="M20.2335 15.3098C20.1189 15.4589 19.9808 15.4999 19.9932 16.4273C20.0056 17.3547 20.0954 17.7048 19.7349 18.4079C19.3744 19.1109 18.6755 19.7934 18.4283 20.5416C18.1811 21.2898 17.8689 22.5181 18.1852 22.9954C18.5015 23.4728 19.6534 23.7081 21.2238 23.7505C22.7942 23.7929 24.5165 23.5385 25.4848 23.2403C26.453 22.9421 27.0123 22.819 27.2319 22.5564C27.4516 22.2938 26.3563 20.0506 25.5897 19.1752C24.8232 18.2998 24.4558 18.0098 23.5912 17.2849C22.7265 16.56 22.3481 16.2714 21.9213 15.6859C21.4945 15.1005 21.384 15.0691 20.9352 15.0759C20.6816 15.0752 20.435 15.1574 20.2335 15.3098Z" fill="#E2CAB3"/>
<path opacity="0.5" fill-rule="evenodd" clip-rule="evenodd" d="M11.51 21.2037C12.1191 19.8126 12.923 19.1793 13.1481 18.8648C13.7682 17.9989 14.1356 17.6201 14.9574 17.497C15.7792 17.3739 15.329 17.378 16.2626 17.248C17.1963 17.1181 17.9795 16.917 18.6107 16.4273C19.2419 15.9377 19.5678 15.5561 19.9034 15.4371C20.2391 15.3181 20.757 15.0527 20.3896 15.4275C20.0222 15.8023 20.5125 15.9445 19.8219 16.9608C19.1314 17.9771 18.8026 18.5023 18.5568 19.286C18.3109 20.0698 18.0568 22.5154 17.4947 22.7083C16.9325 22.9011 15.5914 22.9353 14.3456 22.4771C13.3789 22.1013 12.4324 21.6763 11.51 21.2037Z" fill="#E2CAB3"/>
<path opacity="0.5" fill-rule="evenodd" clip-rule="evenodd" d="M28.3467 21.8286C28.3467 21.8286 29.5013 21.4716 30.1643 20.9013C30.8272 20.3309 31.4902 19.7988 31.7002 19.0151C31.9101 18.2313 32.1477 18.0357 31.8908 17.8032C31.6339 17.5707 30.2596 16.3356 29.1284 15.7269C27.9972 15.1182 26.5594 14.7339 25.2804 14.4672C24.0015 14.2004 23.3233 14.3564 22.6562 14.3304C21.9891 14.3044 20.9325 15.0662 20.9477 15.0745C21.317 15.4262 21.7279 15.7325 22.1714 15.9868C22.7708 16.2986 24.1686 16.8266 24.8509 17.2178C25.5332 17.609 26.0746 18.4734 26.2321 18.8783C26.3895 19.2832 26.6105 19.409 26.8356 20.1845C27.0608 20.9601 27.6851 22.2089 27.6851 22.2089L28.3467 21.8286Z" fill="#E2CAB3"/>
<path opacity="0.5" fill-rule="evenodd" clip-rule="evenodd" d="M9.62903 17.1166C9.62903 17.1166 9.0959 18.535 9.37214 19.2176C9.56371 19.6652 9.82467 20.0806 10.1456 20.4486C10.1456 20.4486 10.8362 21.1024 11.3072 20.4253C11.7781 19.7483 12.7988 18.1671 13.6096 17.557C14.4203 16.947 15.43 16.8157 16.1786 16.7268C16.9272 16.6379 18.6854 16.3383 19.1716 15.9458C19.6578 15.5532 20.9478 15.0745 20.9478 15.0745C20.3897 14.8208 19.8083 14.6206 19.2117 14.4768C18.3084 14.2716 16.8637 14.8201 15.691 14.5465C14.5184 14.273 13.3748 14.8898 12.0765 15.5464C11.2143 15.9953 10.3952 16.5209 9.62903 17.1166Z" fill="#E2CAB3"/>
<path opacity="0.5" fill-rule="evenodd" clip-rule="evenodd" d="M17.3635 14.2128C17.3635 14.2128 18.5776 13.0789 19.4021 13.0994C20.4449 13.1268 20.7833 13.3538 21.2819 13.5097C21.8496 13.6848 22.0761 13.7546 21.9297 13.9803C21.7833 14.2059 21.0927 15.2113 21.0927 15.2113C21.0927 15.2113 19.4353 14.4056 18.8276 14.3126C18.3428 14.2426 17.8534 14.2092 17.3635 14.2128Z" fill="#E2CAB3"/>
</g>
<path opacity="0.4" fill-rule="evenodd" clip-rule="evenodd" d="M29.3037 15.4684C28.9763 15.3316 28.6476 15.2181 28.3258 15.0663C27.9489 14.8747 27.5616 14.7039 27.1656 14.5547C26.8083 14.4462 26.4417 14.3706 26.0703 14.329C25.2306 14.1923 24.4599 13.849 23.6547 13.6027C23.193 13.4621 22.7105 13.4001 22.2279 13.4195C21.808 13.4468 21.3868 13.4468 20.9669 13.4195C20.5525 13.3757 20.1879 13.1856 19.7846 13.0802C19.2943 12.9517 18.8868 13.0802 18.4518 13.3114C17.8095 13.641 17.1686 14.0432 16.4725 14.2538C16.1007 14.3739 15.7117 14.433 15.3206 14.4289C14.9063 14.4152 14.5112 14.3332 14.1038 14.3058C13.6549 14.2583 13.2018 14.34 12.7986 14.5411C12.4926 14.7017 12.2042 14.8933 11.9381 15.1128C11.9367 15.1369 11.9367 15.1611 11.9381 15.1853C11.8578 15.4177 11.8291 15.6645 11.8539 15.9089C11.866 16.1582 11.932 16.4021 12.0473 16.6241C12.1626 16.8462 12.3246 17.0411 12.5224 17.196C12.8096 17.4367 13.1107 17.6213 13.3511 17.9099C13.5914 18.1985 13.7654 18.4995 14.0416 18.7306C14.4919 19.1109 15.09 19.141 15.6562 19.141C15.9546 19.141 16.2515 19.1259 16.5485 19.141C16.9561 19.1835 17.3568 19.2753 17.7418 19.4145C18.5374 19.6607 19.3178 20.0013 20.1396 20.1613C20.9614 20.3214 21.7763 20.1285 22.5746 19.9165C23.3729 19.7045 24.1602 19.5622 24.9419 19.3571C25.6487 19.185 26.3195 18.8915 26.9239 18.4899C27.5689 18.0259 28.1522 17.4831 28.66 16.8745C28.8548 16.6502 29.0399 16.4177 29.2319 16.1906C29.4026 16.0195 29.5168 15.801 29.5592 15.5642C29.4725 15.5365 29.3872 15.5046 29.3037 15.4684Z" fill="#E2CAB3"/>
<path fill-rule="evenodd" clip-rule="evenodd" d="M18.2833 16.4082C18.2198 16.4219 18.1563 16.4328 18.0969 16.441H18.0775C17.6439 16.5245 17.2143 16.6284 16.7682 16.5942C16.4671 16.5723 15.2903 16.6038 15.5666 17.1413C15.5698 17.1506 15.5698 17.1608 15.5666 17.1701C15.8096 17.3233 16.3497 17.2603 16.5334 17.2467C16.6891 17.2361 16.8438 17.2137 16.9961 17.1796C17.4293 17.0095 17.8413 16.7906 18.2239 16.5272C18.2487 16.4901 18.2686 16.4502 18.2833 16.4082Z" fill="#C66720"/>
<path fill-rule="evenodd" clip-rule="evenodd" d="M19.996 17.5106C20.0245 17.2242 20.0143 16.9353 19.9656 16.6516C19.7811 17.0857 19.5446 17.4962 19.2612 17.8744C19.0955 18.081 18.8759 18.2601 18.7419 18.4899C18.6701 18.613 18.5706 18.7963 18.6231 18.9468C18.706 19.1834 18.8524 19.182 19.0085 19.1506C19.2764 18.9864 19.5222 18.6035 19.6548 18.4065C19.7775 18.224 19.8772 18.0275 19.9518 17.8211C19.967 17.7185 19.9808 17.6159 19.996 17.5106Z" fill="#C66720"/>
<path fill-rule="evenodd" clip-rule="evenodd" d="M24.4117 16.6899C24.0878 16.5593 23.7573 16.4456 23.4214 16.3493C23.2163 16.2965 23.0158 16.2274 22.8219 16.1428C22.6731 16.0543 22.5049 16.0027 22.3316 15.9923C22.3211 15.9916 22.3107 15.9936 22.3012 15.9982C22.2918 16.0027 22.2837 16.0095 22.2777 16.0181C22.2717 16.0266 22.2681 16.0365 22.2671 16.0469C22.2661 16.0572 22.2679 16.0676 22.2722 16.0771C22.2859 16.1206 22.313 16.1589 22.3496 16.1865C22.5555 16.4718 22.7837 16.7407 23.0319 16.9908C23.2542 17.2397 23.4462 17.5078 23.6948 17.739C24.0318 18.0604 24.6409 18.256 24.9862 17.8129C25.3674 17.3191 24.8481 16.8718 24.4117 16.6899Z" fill="#C66720"/>
<path fill-rule="evenodd" clip-rule="evenodd" d="M23.0194 14.2662C22.902 14.0159 22.5208 14.0227 22.268 14.0815C22.2475 14.0842 22.2272 14.0883 22.2072 14.0938C21.8574 14.272 21.5861 14.5714 21.4448 14.935C21.8592 14.8133 22.1644 14.5247 22.6023 14.4741C22.6727 14.4659 23.0995 14.4344 23.0194 14.2662Z" fill="#C66720"/>
<path fill-rule="evenodd" clip-rule="evenodd" d="M17.1742 14.7203C17.2297 14.7378 17.2873 14.748 17.3455 14.7504C17.4823 14.7272 17.6211 14.7181 17.7598 14.7231C17.8137 14.7204 17.8676 14.7204 17.9214 14.7231C18.1023 14.7302 18.2826 14.7476 18.4615 14.775L18.5319 14.7942C18.6303 14.8045 18.7289 14.7776 18.8082 14.719C18.4035 14.5425 17.2889 14.124 17.1369 14.6642C17.1348 14.6765 17.1375 14.6892 17.1444 14.6996C17.1513 14.71 17.162 14.7174 17.1742 14.7203Z" fill="#C66720"/>
<path fill-rule="evenodd" clip-rule="evenodd" d="M9.59862 20.64C9.56628 20.7111 9.54307 20.7861 9.52956 20.8629C9.50889 20.9202 9.49679 20.9801 9.49365 21.0408C9.4943 21.0446 9.49586 21.0482 9.49818 21.0513C9.50051 21.0544 9.50355 21.0569 9.50705 21.0587C9.51055 21.0604 9.51441 21.0613 9.51832 21.0613C9.52223 21.0612 9.52609 21.0603 9.52956 21.0585C9.571 21.0353 9.57238 20.9655 9.57929 20.9218C9.59181 20.8288 9.61308 20.7372 9.64282 20.6482C9.65387 20.6277 9.61105 20.614 9.59862 20.64Z" fill="#C66720"/>
<path fill-rule="evenodd" clip-rule="evenodd" d="M9.85821 20.8521C9.82294 20.9199 9.79738 20.9922 9.78225 21.0669C9.7712 21.1066 9.73943 21.1695 9.75186 21.2037C9.75265 21.2081 9.75479 21.2122 9.758 21.2154C9.76122 21.2185 9.76534 21.2207 9.76982 21.2214C9.8223 21.2214 9.82783 21.1531 9.83611 21.1161C9.85545 21.0354 9.87202 20.952 9.89965 20.8727C9.90932 20.8494 9.87202 20.8275 9.85821 20.8521Z" fill="#C66720"/>
<path fill-rule="evenodd" clip-rule="evenodd" d="M11.1068 21.785C11.0944 21.9218 11.0502 22.0586 11.0515 22.2035C11.0515 22.2446 11.1165 22.2514 11.1178 22.2035C11.1387 22.0625 11.1521 21.9205 11.1579 21.7782C11.1565 21.7508 11.1096 21.7576 11.1068 21.785Z" fill="#C66720"/>
<path fill-rule="evenodd" clip-rule="evenodd" d="M11.4494 21.856C11.4042 21.9638 11.3825 22.0798 11.3858 22.1965C11.3858 22.2403 11.4563 22.2485 11.4576 22.1965C11.4617 22.0836 11.4742 21.9712 11.4949 21.8601C11.5005 21.8382 11.459 21.8313 11.4494 21.856Z" fill="#C66720"/>
<path fill-rule="evenodd" clip-rule="evenodd" d="M17.0307 23.7231C17.0098 23.7746 16.995 23.8283 16.9865 23.8831C16.9735 23.9322 16.9679 23.9829 16.9699 24.0335C16.9717 24.039 16.9752 24.0438 16.9799 24.0472C16.9846 24.0505 16.9903 24.0524 16.9961 24.0524C17.0019 24.0524 17.0076 24.0505 17.0123 24.0472C17.017 24.0438 17.0206 24.039 17.0224 24.0335C17.0341 23.9889 17.0401 23.9429 17.0403 23.8968C17.0486 23.8393 17.0514 23.7819 17.0624 23.7244C17.0652 23.7121 17.0376 23.708 17.0307 23.7231Z" fill="#C66720"/>
<path fill-rule="evenodd" clip-rule="evenodd" d="M17.4228 23.771C17.4012 23.8401 17.3864 23.9111 17.3786 23.983C17.3631 24.0433 17.3585 24.1058 17.3648 24.1677C17.367 24.173 17.3707 24.1776 17.3755 24.1808C17.3803 24.184 17.3859 24.1857 17.3917 24.1857C17.3975 24.1857 17.4032 24.184 17.408 24.1808C17.4128 24.1776 17.4165 24.173 17.4187 24.1677C17.4334 24.1138 17.4399 24.058 17.438 24.0022C17.438 23.9256 17.4504 23.849 17.4574 23.7738C17.4566 23.7699 17.4546 23.7664 17.4517 23.7638C17.4488 23.7612 17.4451 23.7596 17.4411 23.7593C17.4372 23.759 17.4333 23.76 17.43 23.7621C17.4267 23.7642 17.4242 23.7673 17.4228 23.771Z" fill="#C66720"/>
<path fill-rule="evenodd" clip-rule="evenodd" d="M18.9822 24.0049C18.9822 23.983 18.956 23.9638 18.945 23.9843C18.9094 24.052 18.8905 24.1269 18.8897 24.2032C18.8897 24.2415 18.88 24.34 18.9284 24.3495C18.9315 24.3506 18.9347 24.3511 18.938 24.3509C18.9413 24.3508 18.9445 24.3499 18.9474 24.3485C18.9504 24.3472 18.953 24.3452 18.9552 24.3428C18.9574 24.3404 18.9591 24.3376 18.9601 24.3345C18.9624 24.2919 18.9591 24.2491 18.9505 24.2073C18.9499 24.1386 18.9606 24.0702 18.9822 24.0049Z" fill="#C66720"/>
<path fill-rule="evenodd" clip-rule="evenodd" d="M19.3704 23.9913C19.3695 23.9882 19.3675 23.9855 19.3649 23.9836C19.3623 23.9817 19.3592 23.9807 19.3559 23.9807C19.3527 23.9807 19.3495 23.9817 19.3469 23.9836C19.3443 23.9855 19.3424 23.9882 19.3414 23.9913C19.3109 24.1082 19.2988 24.2291 19.3055 24.3496C19.3055 24.3866 19.3649 24.3907 19.3635 24.3496C19.357 24.2302 19.3593 24.1104 19.3704 23.9913Z" fill="#C66720"/>
<path fill-rule="evenodd" clip-rule="evenodd" d="M19.7957 24.0337C19.7957 24.0289 19.7938 24.0244 19.7905 24.0211C19.7871 24.0177 19.7825 24.0159 19.7778 24.0159C19.773 24.0159 19.7684 24.0177 19.7651 24.0211C19.7617 24.0244 19.7598 24.0289 19.7598 24.0337C19.7543 24.0884 19.7501 24.1431 19.7474 24.1978C19.7474 24.2375 19.7198 24.2894 19.7474 24.3236C19.7496 24.3253 19.7522 24.3262 19.755 24.3262C19.7577 24.3262 19.7604 24.3253 19.7626 24.3236C19.8095 24.3236 19.8068 24.2484 19.8095 24.2128C19.8121 24.1528 19.8074 24.0926 19.7957 24.0337Z" fill="#C66720"/>
<path fill-rule="evenodd" clip-rule="evenodd" d="M27.3619 23.1786C27.3619 23.1868 27.3619 23.1649 27.3619 23.1622C27.3536 23.1426 27.3466 23.1225 27.3412 23.102C27.3274 23.0487 27.3246 22.9912 27.308 22.9379C27.308 22.9228 27.2777 22.9146 27.2735 22.9379C27.2694 22.9611 27.2735 23.262 27.3591 23.2114C27.3622 23.21 27.3648 23.2078 27.3666 23.205C27.3685 23.2023 27.3697 23.1991 27.37 23.1958C27.3702 23.1925 27.3697 23.1892 27.3682 23.1861C27.3668 23.1831 27.3646 23.1805 27.3619 23.1786Z" fill="#C66720"/>
<path fill-rule="evenodd" clip-rule="evenodd" d="M27.8536 23.0557C27.8262 22.9719 27.7929 22.8901 27.7541 22.8108C27.7523 22.8052 27.7483 22.8006 27.743 22.7979C27.7376 22.7952 27.7315 22.7947 27.7258 22.7965C27.7201 22.7983 27.7154 22.8023 27.7127 22.8075C27.71 22.8128 27.7095 22.8189 27.7113 22.8245C27.7319 22.9129 27.7587 22.9997 27.7914 23.0844C27.8066 23.1254 27.8701 23.0967 27.8536 23.0557Z" fill="#C66720"/>
<path fill-rule="evenodd" clip-rule="evenodd" d="M28.3258 22.8135C28.2778 22.745 28.2453 22.6671 28.2305 22.585C28.2292 22.58 28.2263 22.5755 28.2222 22.5723C28.2181 22.5691 28.213 22.5674 28.2077 22.5674C28.2025 22.5674 28.1974 22.5691 28.1933 22.5723C28.1891 22.5755 28.1862 22.58 28.1849 22.585C28.1786 22.6831 28.208 22.7802 28.2678 22.8586C28.294 22.9024 28.3534 22.8531 28.3258 22.8135Z" fill="#C66720"/>
<path fill-rule="evenodd" clip-rule="evenodd" d="M28.9143 22.7465C28.8678 22.7079 28.8298 22.6604 28.8025 22.6067C28.7752 22.5531 28.7592 22.4946 28.7554 22.4347C28.7557 22.4314 28.755 22.4281 28.7534 22.4252C28.7518 22.4223 28.7493 22.42 28.7463 22.4185C28.7433 22.417 28.74 22.4165 28.7367 22.4169C28.7334 22.4173 28.7303 22.4188 28.7278 22.421C28.6063 22.5058 28.7886 22.7246 28.8562 22.7889C28.8908 22.8272 28.9488 22.7807 28.9143 22.7465Z" fill="#C66720"/>
<path fill-rule="evenodd" clip-rule="evenodd" d="M29.5802 22.4347C29.5071 22.3122 29.4264 22.1943 29.3385 22.0818C29.3288 22.0654 29.297 22.0709 29.304 22.0928C29.3468 22.2295 29.4683 22.3266 29.5277 22.4593C29.5429 22.4963 29.5954 22.4716 29.5802 22.4347Z" fill="#C66720"/>
<path fill-rule="evenodd" clip-rule="evenodd" d="M30.1295 22.012C30.1171 21.986 30.084 21.971 30.0619 21.9546L29.9527 21.8752C29.9251 21.8547 29.8961 21.8356 29.8671 21.8164C29.8381 21.7973 29.8367 21.8082 29.8243 21.8014C29.8119 21.7945 29.8133 21.8014 29.8174 21.8014C29.8215 21.8014 29.8243 21.8233 29.834 21.8328C29.8584 21.8579 29.8842 21.8817 29.9113 21.904C29.9458 21.9341 29.9818 21.9614 30.0177 21.9888C30.0536 22.0161 30.0729 22.0394 30.1047 22.0394C30.1082 22.0394 30.1117 22.0387 30.1149 22.0373C30.1181 22.0359 30.121 22.0338 30.1233 22.0312C30.1257 22.0286 30.1274 22.0256 30.1285 22.0223C30.1296 22.019 30.1299 22.0155 30.1295 22.012Z" fill="#C66720"/>
<path fill-rule="evenodd" clip-rule="evenodd" d="M30.598 21.6699C30.5954 21.662 30.5907 21.6548 30.5844 21.6493C30.5781 21.6438 30.5704 21.64 30.5621 21.6385C30.5363 21.6266 30.5126 21.6109 30.4916 21.592C30.4429 21.5497 30.401 21.5004 30.3673 21.4456C30.3521 21.4223 30.3162 21.4456 30.3273 21.4716C30.3567 21.537 30.3995 21.5957 30.453 21.6439C30.4861 21.674 30.5483 21.7246 30.5911 21.6959C30.5948 21.6928 30.5975 21.6887 30.5987 21.684C30.5999 21.6793 30.5997 21.6744 30.598 21.6699Z" fill="#C66720"/>
<path fill-rule="evenodd" clip-rule="evenodd" d="M32.1574 19.911C32.151 19.9036 32.1432 19.8976 32.1344 19.8934C32.1256 19.8891 32.116 19.8867 32.1063 19.8864C32.0756 19.8811 32.0464 19.8695 32.0206 19.8522C31.9657 19.8146 31.9245 19.7603 31.9032 19.6976C31.9032 19.6771 31.8673 19.6894 31.8687 19.7086C31.8773 19.7824 31.9144 19.85 31.9723 19.8973C32.0123 19.9301 32.1104 19.9835 32.156 19.9356C32.1591 19.9323 32.1609 19.9281 32.1612 19.9236C32.1615 19.9191 32.1601 19.9146 32.1574 19.911Z" fill="#C66720"/>
<path fill-rule="evenodd" clip-rule="evenodd" d="M32.4624 19.5622C32.3457 19.5024 32.2475 19.4126 32.1779 19.3023C32.1655 19.2818 32.1296 19.3023 32.142 19.3201C32.2055 19.4463 32.3095 19.5483 32.4376 19.61C32.4652 19.621 32.49 19.5745 32.4624 19.5622Z" fill="#C66720"/>
<path fill-rule="evenodd" clip-rule="evenodd" d="M32.6517 19.0794C32.5988 19.0453 32.548 19.0078 32.4998 18.9673C32.4529 18.9249 32.4087 18.8825 32.3617 18.8442C32.3437 18.8305 32.3203 18.8565 32.3355 18.8743C32.4074 18.985 32.5074 19.0751 32.6255 19.1355C32.6327 19.1373 32.6402 19.1365 32.6469 19.1334C32.6536 19.1302 32.6589 19.1249 32.6621 19.1182C32.6652 19.1116 32.6658 19.1041 32.6639 19.097C32.6621 19.0899 32.6578 19.0837 32.6517 19.0794Z" fill="#C66720"/>
<path fill-rule="evenodd" clip-rule="evenodd" d="M9.25596 20.279C9.13638 20.4413 9.05561 20.6284 9.01978 20.8262C9.01978 20.8426 9.04326 20.8439 9.0474 20.8262C9.09481 20.6384 9.17931 20.4617 9.29601 20.3064C9.31259 20.2804 9.27253 20.2531 9.25596 20.279Z" fill="#C66720"/>
<path fill-rule="evenodd" clip-rule="evenodd" d="M9.04069 20.1435C9.0103 20.1572 8.99787 20.1831 8.97715 20.2105C8.95644 20.2379 8.92053 20.2898 8.89566 20.3322C8.86043 20.3809 8.84158 20.4393 8.8418 20.4991C8.8418 20.5196 8.87357 20.5155 8.87495 20.4991C8.891 20.4372 8.9202 20.3794 8.96058 20.3295C8.99373 20.2789 9.05864 20.2214 9.06555 20.1613C9.06579 20.1582 9.06524 20.1552 9.06394 20.1524C9.06265 20.1496 9.06066 20.1472 9.05816 20.1455C9.05567 20.1437 9.05275 20.1426 9.04969 20.1422C9.04663 20.1419 9.04353 20.1423 9.04069 20.1435Z" fill="#C66720"/>
<path fill-rule="evenodd" clip-rule="evenodd" d="M9.43976 20.5882C9.4009 20.65 9.36939 20.7161 9.34584 20.7851C9.3151 20.8495 9.29282 20.9175 9.27954 20.9876C9.27954 21.0053 9.30578 21.0108 9.30993 20.9876C9.32763 20.9201 9.35312 20.855 9.38589 20.7933C9.42623 20.7312 9.45434 20.662 9.46876 20.5895C9.46895 20.5857 9.46759 20.582 9.465 20.5792C9.46241 20.5763 9.4588 20.5747 9.45495 20.5745C9.4511 20.5743 9.44734 20.5756 9.44449 20.5782C9.44164 20.5808 9.43994 20.5843 9.43976 20.5882Z" fill="#C66720"/>
<path fill-rule="evenodd" clip-rule="evenodd" d="M10.1883 21.0669C10.0847 21.0984 10.0364 21.2338 10.0088 21.3281C10.0077 21.333 10.0085 21.3381 10.0109 21.3424C10.0134 21.3467 10.0173 21.3501 10.0221 21.3517C10.0268 21.3534 10.032 21.3533 10.0366 21.3515C10.0413 21.3497 10.0451 21.3462 10.0474 21.3418C10.064 21.294 10.0857 21.2482 10.1123 21.205C10.1386 21.164 10.1759 21.1298 10.2035 21.0888C10.209 21.0806 10.2007 21.0669 10.1883 21.0669Z" fill="#C66720"/>
<path fill-rule="evenodd" clip-rule="evenodd" d="M10.4176 21.4771C10.3638 21.4963 10.3348 21.5633 10.3099 21.6139C10.2817 21.6727 10.2689 21.7376 10.2726 21.8027C10.2726 21.8245 10.3058 21.8286 10.3071 21.8027C10.3118 21.7483 10.3258 21.6951 10.3486 21.6454C10.3707 21.592 10.4245 21.551 10.4397 21.4976C10.4408 21.4946 10.4409 21.4914 10.4402 21.4883C10.4394 21.4852 10.4378 21.4824 10.4354 21.4803C10.4331 21.4781 10.4302 21.4766 10.427 21.4761C10.4238 21.4755 10.4206 21.4759 10.4176 21.4771Z" fill="#C66720"/>
<path fill-rule="evenodd" clip-rule="evenodd" d="M10.6398 21.6208C10.5956 21.6907 10.5621 21.7668 10.5404 21.8465C10.5108 21.9208 10.4886 21.9977 10.4741 22.0763C10.473 22.081 10.4738 22.0859 10.4764 22.09C10.479 22.0941 10.4832 22.0971 10.4879 22.0981C10.4927 22.0992 10.4977 22.0984 10.5018 22.0958C10.506 22.0933 10.5089 22.0892 10.51 22.0845C10.5306 22.0083 10.5569 21.9338 10.5887 21.8615C10.6277 21.7889 10.6557 21.711 10.6716 21.6304C10.6722 21.6283 10.6725 21.6261 10.6723 21.624C10.672 21.6218 10.6714 21.6197 10.6704 21.6178C10.6694 21.6159 10.668 21.6142 10.6663 21.6129C10.6646 21.6115 10.6627 21.6105 10.6606 21.6098C10.6585 21.6092 10.6563 21.609 10.6541 21.6092C10.6519 21.6094 10.6498 21.61 10.6479 21.6111C10.646 21.6121 10.6443 21.6135 10.6429 21.6151C10.6415 21.6168 10.6405 21.6187 10.6398 21.6208Z" fill="#C66720"/>
<path fill-rule="evenodd" clip-rule="evenodd" d="M10.843 21.841C10.7949 21.9478 10.7749 22.065 10.785 22.1815C10.785 22.2048 10.8209 22.2075 10.8209 22.1815C10.8209 22.068 10.872 21.9559 10.8651 21.8437C10.8644 21.8415 10.863 21.8396 10.8612 21.8382C10.8594 21.8367 10.8572 21.8358 10.8549 21.8355C10.8526 21.8353 10.8503 21.8356 10.8482 21.8366C10.8461 21.8375 10.8443 21.8391 10.843 21.841Z" fill="#C66720"/>
<path fill-rule="evenodd" clip-rule="evenodd" d="M17.8247 23.8763C17.7759 24.0031 17.7574 24.1393 17.7709 24.2743C17.7709 24.2921 17.8026 24.2907 17.804 24.2743C17.804 24.2087 17.8137 24.1376 17.822 24.0787C17.8379 24.0138 17.8458 23.9472 17.8454 23.8804C17.8454 23.8667 17.8289 23.8681 17.8247 23.8763Z" fill="#C66720"/>
<path fill-rule="evenodd" clip-rule="evenodd" d="M18.1853 24.1388C18.1853 24.0758 18.2157 24.0198 18.2213 23.9568C18.2205 23.9547 18.2191 23.9529 18.2172 23.9517C18.2154 23.9504 18.2132 23.9497 18.2109 23.9497C18.2086 23.9497 18.2064 23.9504 18.2046 23.9517C18.2027 23.9529 18.2013 23.9547 18.2005 23.9568C18.1604 24.0209 18.137 24.0938 18.1324 24.169C18.1278 24.2442 18.1422 24.3194 18.1743 24.3877C18.184 24.4082 18.2116 24.3877 18.2047 24.374C18.18 24.2981 18.1734 24.2176 18.1853 24.1388Z" fill="#C66720"/>
<path fill-rule="evenodd" clip-rule="evenodd" d="M18.5169 24.1853C18.5211 24.1228 18.5156 24.06 18.5003 23.9992C18.4988 23.9964 18.4965 23.994 18.4937 23.9923C18.4909 23.9906 18.4877 23.9897 18.4844 23.9897C18.4811 23.9897 18.4779 23.9906 18.4751 23.9923C18.4723 23.994 18.4701 23.9964 18.4685 23.9992C18.4568 24.0612 18.4568 24.1247 18.4685 24.1866C18.4725 24.258 18.485 24.3288 18.5058 24.3973C18.5058 24.4205 18.5486 24.415 18.5431 24.3973C18.5285 24.3274 18.5198 24.2565 18.5169 24.1853Z" fill="#C66720"/>
<path fill-rule="evenodd" clip-rule="evenodd" d="M30.946 21.0667C30.946 21.0517 30.9253 21.0435 30.9184 21.0558C30.907 21.0736 30.9009 21.0942 30.9009 21.1153C30.9009 21.1364 30.907 21.157 30.9184 21.1748C30.9405 21.2172 30.9943 21.2801 31.0468 21.2733C31.051 21.2723 31.0546 21.2697 31.0569 21.2662C31.0593 21.2626 31.0601 21.2583 31.0593 21.2541C31.0455 21.1803 30.9281 21.1502 30.946 21.0667Z" fill="#C66720"/>
<path fill-rule="evenodd" clip-rule="evenodd" d="M31.4448 20.8466C31.431 20.8247 31.4185 20.822 31.3937 20.8138C31.3597 20.8032 31.3295 20.7833 31.3067 20.7563C31.2625 20.7047 31.2317 20.6432 31.2169 20.5771C31.2164 20.5744 31.2153 20.5719 31.2137 20.5696C31.2122 20.5673 31.2102 20.5653 31.2079 20.5638C31.2056 20.5623 31.203 20.5612 31.2003 20.5607C31.1976 20.5602 31.1948 20.5602 31.192 20.5607C31.1893 20.5612 31.1867 20.5623 31.1844 20.5638C31.1821 20.5654 31.1801 20.5673 31.1786 20.5696C31.1771 20.5719 31.176 20.5745 31.1755 20.5772C31.1749 20.5799 31.1749 20.5826 31.1755 20.5853C31.1879 20.6608 31.2187 20.7322 31.2652 20.7932C31.2998 20.8356 31.3909 20.9054 31.4462 20.8671C31.4481 20.864 31.449 20.8603 31.4488 20.8566C31.4485 20.8529 31.4471 20.8494 31.4448 20.8466Z" fill="#C66720"/>
<path fill-rule="evenodd" clip-rule="evenodd" d="M31.6793 20.3829C31.6365 20.3405 31.5909 20.2981 31.5508 20.2529C31.5343 20.2338 31.4997 20.2529 31.5122 20.2762C31.5434 20.3312 31.5815 20.3822 31.6254 20.428C31.6627 20.4663 31.7041 20.5279 31.7635 20.532C31.7664 20.5322 31.7694 20.5318 31.7721 20.5308C31.7748 20.5297 31.7772 20.5281 31.7792 20.526C31.7812 20.5239 31.7827 20.5214 31.7836 20.5186C31.7845 20.5159 31.7847 20.5129 31.7843 20.5101C31.776 20.4568 31.7207 20.4212 31.6793 20.3829Z" fill="#C66720"/>
<path opacity="0.4" fill-rule="evenodd" clip-rule="evenodd" d="M21.5858 15.6216C21.5858 15.9978 21.0043 16.3055 20.2847 16.3055C19.5651 16.3055 18.9836 16.0005 18.9836 15.6216C18.9836 15.2428 19.5651 14.9377 20.2847 14.9377C21.0043 14.9377 21.5858 15.2455 21.5858 15.6216Z" fill="#DA840D"/>
<path fill-rule="evenodd" clip-rule="evenodd" d="M28.7097 21.3404C25.7761 20.6032 24.5482 22.2213 24.5966 24.1252C24.6159 24.8693 25.301 25.8952 25.7513 26.6707C26.1507 27.2903 26.6165 27.8654 27.1407 28.3859C27.4722 28.6198 27.9142 28.8893 28.3575 28.8893C28.5275 28.8727 28.69 28.8118 28.8285 28.7128C28.8934 28.7254 28.9562 28.747 29.015 28.7771C29.2249 28.8482 29.3175 28.5583 29.5467 28.6609C29.9127 28.8264 30.229 28.4899 30.5025 28.3066C30.5909 28.2478 31.4693 26.8991 31.5646 26.828C32.4693 25.6777 32.9251 25.3385 32.9348 23.942C32.9458 22.1966 32.0605 20.6333 28.7097 21.3404Z" fill="#C73A54"/>
<g style="mix-blend-mode:multiply">
<path fill-rule="evenodd" clip-rule="evenodd" d="M29.8218 21.7972C29.8218 21.9969 29.3052 22.172 28.6574 22.1884C28.0097 22.2048 27.4807 22.0516 27.4751 21.856C27.4696 21.6604 27.9917 21.4772 28.6395 21.4648C29.2872 21.4525 29.8162 21.5975 29.8218 21.7972Z" fill="#ED6366"/>
</g>
<path fill-rule="evenodd" clip-rule="evenodd" d="M26.8619 22.443C26.6036 22.0559 26.0746 22.1694 25.7473 22.3964L25.7307 22.4088C25.6547 22.4596 25.586 22.5203 25.5263 22.5893C25.2935 22.834 25.1459 23.146 25.105 23.4797C25.065 23.8901 25.2045 24.3456 25.5622 24.5275C25.5723 24.5326 25.5805 24.5407 25.5857 24.5507C25.5994 24.5479 25.6128 24.5438 25.6257 24.5384C25.8274 24.4564 25.8177 24.1281 25.8191 23.9612C25.8191 23.5905 26.1299 23.4264 26.4144 23.2677C26.6754 23.1186 27.0884 22.7835 26.8619 22.443Z" fill="#ED6366"/>
<g style="mix-blend-mode:multiply">
<path fill-rule="evenodd" clip-rule="evenodd" d="M31.5356 25.6024C31.2925 25.2919 30.9279 25.6708 30.7539 25.8623C30.3492 26.3068 30.0964 26.8553 29.6185 27.241C29.1406 27.6267 28.2733 27.3463 27.9017 27.9071C27.8844 27.9341 27.8725 27.9643 27.867 27.9958C27.8614 28.0274 27.8621 28.0597 27.8692 28.091C27.8763 28.1222 27.8895 28.1518 27.9081 28.178C27.9267 28.2042 27.9504 28.2265 27.9777 28.2436C28.0163 28.2586 28.0567 28.2687 28.0979 28.2737C28.1838 28.3214 28.2771 28.3547 28.3741 28.3722C28.6771 28.4114 28.9848 28.3539 29.2525 28.208C29.4956 28.0931 29.7705 28.2272 30.0122 28.1136C30.1015 28.0654 30.1785 27.9976 30.2373 27.9153C30.3148 27.8263 30.3798 27.7274 30.4307 27.6212C30.5522 27.422 30.6909 27.2334 30.845 27.0577C31.0324 26.8471 31.2019 26.6216 31.3519 26.3834C31.5315 26.1276 31.6944 25.8075 31.5356 25.6024Z" fill="#ED6366"/>
</g>
<path fill-rule="evenodd" clip-rule="evenodd" d="M31.4585 18.7415C31.2955 18.6868 30.9958 18.933 30.8687 19.0082C30.5787 19.1806 30.2845 19.3543 30.0055 19.543C29.5817 19.8374 29.2305 20.2226 28.9779 20.6701C28.8726 20.8606 28.802 21.0681 28.7694 21.2829C28.7265 21.3956 28.7049 21.5153 28.7058 21.6358C28.7051 21.6442 28.706 21.6527 28.7086 21.6608C28.7112 21.6689 28.7153 21.6764 28.7209 21.6829C28.7264 21.6894 28.7331 21.6947 28.7407 21.6986C28.7484 21.7025 28.7567 21.7048 28.7652 21.7055C29.4724 21.7137 30.1961 21.2555 30.6906 20.7946C30.9497 20.5684 31.1549 20.2881 31.2914 19.9739C31.3594 19.7967 31.4103 19.6135 31.4433 19.4268C31.482 19.2271 31.424 18.985 31.4889 18.8003C31.4924 18.7885 31.4912 18.7758 31.4856 18.7649C31.4799 18.7539 31.4702 18.7456 31.4585 18.7415Z" fill="#8DB54F"/>
<path fill-rule="evenodd" clip-rule="evenodd" d="M28.5869 21.681C28.5869 21.4854 28.6463 21.3636 28.7029 20.7481C28.7596 20.1326 28.7485 19.8249 28.7899 19.7236C28.8314 19.6224 29.1629 19.8372 29.1629 19.8372C29.1629 19.8372 29.0565 20.3091 28.9778 20.6962C28.8991 21.0832 28.8203 21.7794 28.8203 21.7794C28.8203 21.7794 28.7775 21.893 28.6739 21.8643C28.5703 21.8355 28.5869 21.681 28.5869 21.681Z" fill="#300D33"/>
</svg>
