<svg width="40" height="41" viewBox="0 0 40 41" fill="none" xmlns="http://www.w3.org/2000/svg">
<ellipse cx="20" cy="20.5" rx="20" ry="20.5" fill="#F7F8F8"/>
<g clip-path="url(#clip0_216_1813)">
<path d="M17.7883 13.6956C17.7883 13.6956 20.3884 10.6609 24.9568 12.3596C24.9568 12.3596 22.3552 16.7716 17.7883 13.6956Z" fill="#5C7732"/>
<path d="M17.7883 13.6956C17.7883 13.6956 20.3884 10.6609 24.9568 12.3596C24.9568 12.3596 20.5918 13.3712 17.7883 13.6956Z" fill="#69893E"/>
<path d="M16.8784 16.4825L17.7135 11L18.6893 11.5766L17.3495 16.6344C17.1886 16.5956 17.0311 16.5448 16.8784 16.4825Z" fill="#69893E"/>
<path d="M24.8742 22.9014C24.8742 26.8238 19.1587 29.9441 14.6744 29.9441C10.1901 29.9441 8 26.5216 8 22.5992C8 18.6768 11.637 15.4961 16.1228 15.4961C20.6086 15.4961 24.8742 18.9791 24.8742 22.9014Z" fill="#E87F18"/>
<path d="M15.6471 17.2167C16.6994 15.8999 19.4554 16.2789 20.9604 17.3966C22.4653 18.5143 22.2833 20.2116 21.2311 21.5254C20.1788 22.8393 18.1034 23 16.5985 21.8837C15.0935 20.7675 14.5918 18.535 15.6471 17.2167Z" fill="#E89B34"/>
<path d="M25.2412 29.7183C23.765 29.7183 22.322 29.2963 21.0946 28.5056C19.8673 27.7149 18.9106 26.591 18.3457 25.2762C17.7808 23.9613 17.633 22.5144 17.921 21.1185C18.209 19.7226 18.9198 18.4404 19.9636 17.4341C21.0074 16.4277 22.3373 15.7423 23.7851 15.4647C25.2329 15.187 26.7336 15.3295 28.0974 15.8742C29.4612 16.4188 30.6268 17.3411 31.4469 18.5245C32.2671 19.7079 32.7048 21.0992 32.7048 22.5224C32.7028 24.4303 31.9158 26.2595 30.5165 27.6085C29.1173 28.9576 27.22 29.7164 25.2412 29.7183Z" fill="#FFB506"/>
<path d="M25.2413 15.6951C23.8299 15.6951 22.4501 16.0986 21.2766 16.8546C20.103 17.6107 19.1883 18.6852 18.6482 19.9425C18.1081 21.1997 17.9668 22.5831 18.2421 23.9178C18.5175 25.2524 19.1971 26.4784 20.1952 27.4407C21.1932 28.4029 22.4648 29.0582 23.8491 29.3237C25.2334 29.5892 26.6682 29.4529 27.9722 28.9321C29.2762 28.4114 30.3908 27.5295 31.1749 26.398C31.959 25.2665 32.3776 23.9363 32.3776 22.5755C32.3756 20.7513 31.6231 19.0024 30.2852 17.7124C28.9473 16.4225 27.1333 15.697 25.2413 15.6951ZM19.7017 19.7C19.7216 19.6455 20.2676 18.2933 21.1332 18.0456C21.1984 18.0278 21.2659 18.0188 21.3336 18.019C21.435 18.0192 21.5351 18.0402 21.6274 18.0807C21.7197 18.1211 21.802 18.18 21.8689 18.2535L24.3909 21.676C24.4185 21.7114 24.5592 21.9031 24.498 22.0181C24.483 22.0437 24.4604 22.0643 24.4332 22.0775C24.4059 22.0906 24.3753 22.0956 24.345 22.0918C24.2396 22.0843 24.1362 22.0599 24.0392 22.0196L19.9097 20.6924C19.8435 20.6734 19.7824 20.6408 19.7307 20.5967C19.6789 20.5527 19.6377 20.4983 19.6099 20.4373C19.5182 20.2589 19.5488 20.0067 19.7017 19.7ZM19.2062 23.8289C18.6571 23.1388 19.041 21.7364 19.0532 21.676C19.1725 21.064 19.483 20.9711 19.665 20.9711C19.7213 20.9714 19.7772 20.9809 19.8302 20.9991L23.981 22.2614C24.2349 22.3292 24.3542 22.4088 24.3557 22.5062C24.3557 22.6448 24.1065 22.7274 24.0499 22.7436L19.9296 24.084C19.8747 24.0948 19.8189 24.1002 19.7629 24.1002C19.6546 24.0997 19.5479 24.075 19.4513 24.0279C19.3547 23.9808 19.2708 23.9127 19.2062 23.8289ZM21.3336 27.1024C21.2657 27.1029 21.1982 27.0934 21.1332 27.0744C20.2676 26.8282 19.7216 25.476 19.7002 25.4185C19.5472 25.1118 19.5182 24.8596 19.6099 24.6812C19.6405 24.6228 19.6836 24.5713 19.7363 24.5301C19.7891 24.489 19.8502 24.459 19.9158 24.4423L24.0453 23.1078C24.1424 23.068 24.2458 23.0441 24.3512 23.037C24.3814 23.0332 24.4121 23.0382 24.4393 23.0513C24.4666 23.0645 24.4891 23.0852 24.5041 23.1107C24.5653 23.2258 24.4246 23.4175 24.397 23.4543L21.8735 26.8695C21.8061 26.9438 21.7231 27.0035 21.6301 27.0447C21.537 27.0858 21.436 27.1075 21.3336 27.1083V27.1024ZM25.0776 28.0314C25.0806 28.0905 25.0715 28.1496 25.0507 28.2052C25.03 28.2609 24.9981 28.3121 24.9568 28.3558C24.8819 28.4239 24.7929 28.4759 24.6956 28.5085C24.5983 28.541 24.495 28.5533 24.3925 28.5446C24.3188 28.5437 24.2453 28.5388 24.1722 28.5298C24.1126 28.5298 22.6091 28.4591 22.0922 27.7468C22.0153 27.6393 21.9715 27.513 21.9661 27.3825C21.9607 27.2519 21.9938 27.1226 22.0616 27.0095L24.6249 23.618C24.6509 23.5841 24.7779 23.4086 24.9094 23.4086C24.9269 23.4089 24.9442 23.4126 24.9602 23.4194C24.9762 23.4263 24.9907 23.4361 25.0027 23.4484C25.0623 23.5074 25.0853 23.6298 25.0776 23.8348V28.0314ZM25.0027 21.6671C24.9906 21.6792 24.9761 21.6888 24.9601 21.6954C24.9441 21.702 24.9268 21.7054 24.9094 21.7055C24.784 21.7055 24.6509 21.5315 24.6249 21.4961L22.0708 18.1149C22.0027 18.002 21.9692 17.8729 21.9741 17.7424C21.9789 17.6119 22.022 17.4854 22.0983 17.3776C22.6153 16.6653 24.1187 16.596 24.1829 16.5946C24.2544 16.5855 24.3264 16.5805 24.3986 16.5798C24.5011 16.5711 24.6044 16.5834 24.7017 16.6159C24.799 16.6485 24.888 16.7005 24.9629 16.7686C25.0046 16.813 25.0367 16.8649 25.0574 16.9213C25.0781 16.9778 25.0871 17.0376 25.0838 17.0974V21.2882C25.0853 21.4917 25.0623 21.617 25.0027 21.673V21.6671ZM29.2025 18.0102C29.2702 18.0099 29.3377 18.0188 29.4029 18.0367C30.2685 18.2844 30.8145 19.6366 30.8375 19.6941C30.9904 20.0009 31.0179 20.253 30.9262 20.4314C30.896 20.4903 30.8531 20.5422 30.8003 20.5836C30.7475 20.6251 30.6861 20.6552 30.6203 20.6718L26.4908 21.9989C26.3937 22.0387 26.2903 22.0627 26.1849 22.0697C26.1547 22.0735 26.124 22.0685 26.0968 22.0554C26.0695 22.0422 26.047 22.0215 26.032 21.996C25.9724 21.8809 26.1115 21.6892 26.1406 21.6524L28.6641 18.2549C28.731 18.1804 28.8137 18.1206 28.9065 18.0794C28.9994 18.0382 29.1003 18.0166 29.2025 18.0161V18.0102ZM25.3499 21.3663L25.4416 17.177C25.458 17.046 25.5127 16.9222 25.5994 16.8201C25.6861 16.718 25.8011 16.6418 25.9311 16.6005C26.051 16.5653 26.1758 16.5479 26.3012 16.5489C27.1118 16.5489 28.0432 17.1697 28.083 17.1962C28.3888 17.3672 28.5571 17.5589 28.5892 17.7624C28.5987 17.8263 28.5941 17.8914 28.5756 17.9534C28.5572 18.0154 28.5253 18.0729 28.4821 18.1222L25.8439 21.4607C25.7139 21.6406 25.6099 21.7246 25.5212 21.7246C25.5036 21.7247 25.4862 21.7212 25.4701 21.7143C25.4541 21.7074 25.4397 21.6974 25.4279 21.6848C25.3664 21.5898 25.339 21.4779 25.3499 21.3663ZM28.5892 27.3679C28.5571 27.5714 28.3858 27.7631 28.0784 27.9371C28.0432 27.9607 27.1118 28.5814 26.3012 28.5814C26.1758 28.5824 26.051 28.565 25.9311 28.5298C25.8022 28.4893 25.6879 28.4142 25.6015 28.3134C25.5151 28.2127 25.4602 28.0903 25.4432 27.9606L25.3499 23.7625C25.3392 23.6515 25.3666 23.5401 25.4279 23.4455C25.4397 23.4329 25.4541 23.4229 25.4701 23.416C25.4862 23.4092 25.5036 23.4056 25.5212 23.4057C25.6099 23.4057 25.7139 23.4897 25.8454 23.6711L28.4852 27.011C28.5276 27.0601 28.5588 27.1173 28.5767 27.1787C28.5946 27.2402 28.5989 27.3047 28.5892 27.3679ZM30.8359 25.4332C30.8145 25.4878 30.2685 26.84 29.4044 27.0862C29.3389 27.1052 29.2709 27.1147 29.2025 27.1142C29.1014 27.1137 29.0016 27.0926 28.9096 27.0521C28.8176 27.0117 28.7355 26.953 28.6687 26.8798L26.1452 23.4573C26.1176 23.4219 25.9785 23.2302 26.0381 23.1152C26.0531 23.0896 26.0757 23.0689 26.1029 23.0558C26.1301 23.0426 26.1608 23.0376 26.1911 23.0414C26.2965 23.049 26.3999 23.0734 26.4969 23.1137L30.6264 24.4408C30.6898 24.4584 30.7487 24.4886 30.7993 24.5295C30.8499 24.5704 30.891 24.6211 30.92 24.6782C31.0179 24.8611 30.9889 25.1177 30.8359 25.4273V25.4332ZM30.7702 24.2123C30.7188 24.2115 30.6676 24.2061 30.6172 24.196L26.4878 22.8601C26.4388 22.8453 26.1819 22.7613 26.1895 22.6227C26.1895 22.5239 26.3119 22.4457 26.5658 22.3794L30.7197 21.1142C30.7687 21.097 30.8205 21.088 30.8726 21.0876C31.047 21.0876 31.359 21.1805 31.4844 21.7969C31.4997 21.8529 31.8836 23.2553 31.3315 23.9468C31.2649 24.0288 31.1796 24.0949 31.0823 24.1399C30.9849 24.1849 30.8781 24.2076 30.7702 24.2064V24.2123Z" fill="#FFFFCF"/>
<path d="M25.2351 15.2954C21.1209 15.2954 17.7026 18.2593 17.7026 22.2259C17.7026 26.1926 20.7064 30 24.8236 30C28.9409 30 33.0015 26.5922 33.0015 22.627C33.0015 18.6619 29.3507 15.2954 25.2351 15.2954ZM25.2351 29.4514C23.8237 29.4502 22.4444 29.0456 21.2715 28.2887C20.0987 27.5317 19.185 26.4565 18.6459 25.1989C18.1068 23.9413 17.9667 22.5579 18.2431 21.2235C18.5195 19.8891 19.2001 18.6637 20.1988 17.7022C21.1976 16.7407 22.4696 16.0863 23.854 15.8218C25.2385 15.5573 26.6732 15.6946 27.9767 16.2162C29.2803 16.7378 30.3941 17.6204 31.1775 18.7523C31.9608 19.8842 32.3784 21.2147 32.3775 22.5754C32.3755 24.3996 31.6229 26.1485 30.2851 27.4384C28.9472 28.7284 27.1332 29.4539 25.2412 29.4558L25.2351 29.4514Z" fill="#F38E1C"/>
<path d="M24.9569 16.7628C24.8819 16.6947 24.7929 16.6427 24.6956 16.6101C24.5984 16.5776 24.4951 16.5653 24.3925 16.574C24.3204 16.5747 24.2484 16.5796 24.1769 16.5888C24.1126 16.5888 22.6092 16.6595 22.0922 17.3718C22.0159 17.4796 21.9729 17.6061 21.968 17.7366C21.9631 17.867 21.9967 17.9962 22.0647 18.109L24.625 21.5006C24.651 21.536 24.7779 21.71 24.9095 21.71C24.9269 21.7099 24.9441 21.7065 24.9601 21.6999C24.9762 21.6934 24.9907 21.6837 25.0027 21.6716C25.0624 21.6127 25.0853 21.4903 25.0777 21.2868V17.0916C25.081 17.0318 25.0721 16.972 25.0513 16.9155C25.0306 16.8591 24.9985 16.8072 24.9569 16.7628Z" fill="#FFB506"/>
<path d="M28.5891 17.7625C28.5569 17.559 28.3857 17.3673 28.0828 17.1962C28.0431 17.1697 27.1116 16.5489 26.301 16.5489C26.1757 16.5479 26.0509 16.5653 25.9309 16.6005C25.801 16.6418 25.6859 16.718 25.5992 16.8201C25.5126 16.9222 25.4579 17.046 25.4415 17.177L25.3497 21.3663C25.3389 21.4779 25.3663 21.5898 25.4277 21.6848C25.4395 21.6974 25.4539 21.7074 25.47 21.7143C25.4861 21.7212 25.5035 21.7247 25.521 21.7247C25.6097 21.7247 25.7137 21.6406 25.8437 21.4607L28.482 18.1222C28.5252 18.073 28.557 18.0154 28.5755 17.9534C28.5939 17.8914 28.5986 17.8263 28.5891 17.7625Z" fill="#FFB506"/>
<path d="M30.8375 19.7C30.8145 19.6425 30.2685 18.2903 29.4029 18.0426C29.2716 18.0065 29.1323 18.0073 29.0014 18.0449C28.8706 18.0826 28.7536 18.1554 28.6642 18.2549L26.1467 21.6715C26.1177 21.7084 25.9785 21.9001 26.0381 22.0151C26.0531 22.0407 26.0757 22.0614 26.1029 22.0745C26.1302 22.0876 26.1609 22.0926 26.1911 22.0888C26.2964 22.0818 26.3998 22.0579 26.497 22.0181L30.6264 20.6909C30.6923 20.6743 30.7537 20.6442 30.8064 20.6028C30.8592 20.5613 30.9021 20.5094 30.9323 20.4506C31.018 20.2589 30.9889 20.0067 30.8375 19.7Z" fill="#FFB506"/>
<path d="M24.3907 21.6731L21.8687 18.2506C21.8018 18.1771 21.7195 18.1182 21.6272 18.0778C21.5349 18.0374 21.4348 18.0163 21.3334 18.0161C21.2656 18.0159 21.1982 18.0249 21.133 18.0427C20.2674 18.2904 19.7214 19.6426 19.7015 19.7001C19.5485 20.0098 19.518 20.2619 19.6097 20.4462C19.6387 20.5035 19.6799 20.5544 19.7304 20.5955C19.781 20.6367 19.8399 20.6672 19.9034 20.6851L24.0328 22.0122C24.1299 22.0525 24.2333 22.077 24.3387 22.0845C24.3689 22.0883 24.3996 22.0833 24.4269 22.0702C24.4541 22.057 24.4767 22.0363 24.4917 22.0108C24.5589 21.9002 24.4182 21.7085 24.3907 21.6731Z" fill="#FFB506"/>
<path d="M25.0774 28.0374V23.8378C25.0774 23.6328 25.0621 23.5104 25.0025 23.4514C24.9905 23.4391 24.976 23.4293 24.96 23.4225C24.944 23.4156 24.9267 23.4119 24.9092 23.4116C24.7838 23.4116 24.6507 23.5871 24.6247 23.621L22.0614 27.0126C21.9936 27.1256 21.9605 27.255 21.9659 27.3855C21.9713 27.516 22.015 27.6423 22.092 27.7498C22.6089 28.4621 24.1124 28.5314 24.172 28.5328C24.2451 28.5418 24.3186 28.5467 24.3922 28.5476C24.4948 28.5563 24.5981 28.544 24.6954 28.5115C24.7926 28.4789 24.8817 28.4269 24.9566 28.3588C25.0392 28.2712 25.0826 28.1557 25.0774 28.0374Z" fill="#FFB506"/>
<path d="M28.485 27.005L25.8452 23.6651C25.7137 23.4837 25.6097 23.3997 25.521 23.3997C25.5034 23.3996 25.486 23.4031 25.4699 23.41C25.4538 23.4169 25.4394 23.4269 25.4277 23.4395C25.3664 23.5341 25.339 23.6455 25.3497 23.7565L25.443 27.9546C25.46 28.0843 25.5149 28.2067 25.6013 28.3074C25.6877 28.4082 25.8019 28.4833 25.9308 28.5238C26.0508 28.559 26.1756 28.5764 26.301 28.5754C27.1116 28.5754 28.043 27.9546 28.0782 27.9311C28.384 27.7571 28.5569 27.5654 28.589 27.3619C28.5986 27.2987 28.5944 27.2342 28.5765 27.1727C28.5585 27.1113 28.5274 27.0541 28.485 27.005Z" fill="#FFB506"/>
<path d="M30.9261 24.6798C30.8973 24.6229 30.8567 24.5725 30.8067 24.5316C30.7566 24.4907 30.6983 24.4603 30.6355 24.4424L26.506 23.1152C26.4089 23.0749 26.3055 23.0505 26.2001 23.043C26.1699 23.0392 26.1392 23.0442 26.112 23.0573C26.0847 23.0705 26.0622 23.0911 26.0472 23.1167C25.9875 23.2317 26.1267 23.4234 26.1542 23.4588L28.6778 26.8813C28.7445 26.9545 28.8266 27.0133 28.9186 27.0537C29.0106 27.0941 29.1105 27.1153 29.2116 27.1158C29.2799 27.1162 29.348 27.1068 29.4135 27.0878C30.2776 26.8415 30.8236 25.4893 30.845 25.4348C30.9888 25.1177 31.0178 24.8611 30.9261 24.6798Z" fill="#FFB506"/>
<path d="M31.4812 21.7911C31.3619 21.1747 31.0499 21.0818 30.8694 21.0818C30.8172 21.0822 30.7655 21.0912 30.7164 21.1083L26.5625 22.3735C26.3086 22.4399 26.1893 22.521 26.1863 22.6168C26.1863 22.7554 26.4356 22.8395 26.4845 22.8542L30.614 24.1902C30.6643 24.2003 30.7155 24.2057 30.7669 24.2064C30.8754 24.207 30.9825 24.1833 31.0799 24.1373C31.1773 24.0912 31.2623 24.024 31.3282 23.941C31.8803 23.2494 31.4964 21.8471 31.4812 21.7911Z" fill="#FFB506"/>
<path d="M24.4979 23.1094C24.4829 23.0838 24.4603 23.0631 24.4331 23.05C24.4058 23.0369 24.3751 23.0319 24.3449 23.0357C24.2396 23.0427 24.1362 23.0666 24.039 23.1064L19.9096 24.4409C19.844 24.4577 19.7828 24.4876 19.7301 24.5288C19.6774 24.5699 19.6343 24.6214 19.6037 24.6798C19.5119 24.8656 19.5425 25.1222 19.6939 25.4171C19.7153 25.4746 20.2614 26.8268 21.127 27.0731C21.192 27.0921 21.2595 27.1015 21.3274 27.1011C21.4297 27.1003 21.5308 27.0786 21.6239 27.0374C21.7169 26.9962 21.7999 26.9365 21.8673 26.8622L24.3847 23.4456C24.4183 23.4161 24.559 23.2244 24.4979 23.1094Z" fill="#FFB506"/>
<path d="M23.978 22.2673L19.8272 21.0051C19.7742 20.9868 19.7183 20.9773 19.662 20.9771C19.4876 20.9771 19.1772 21.0699 19.0502 21.6819C19.0334 21.7424 18.6495 23.1447 19.2032 23.8348C19.2689 23.9181 19.3538 23.9855 19.4512 24.0315C19.5487 24.0776 19.6559 24.1011 19.7645 24.1002C19.8199 24.1001 19.8753 24.0947 19.9296 24.084L24.0499 22.7569C24.0989 22.7407 24.3558 22.6581 24.3558 22.5195C24.3512 22.4133 24.2319 22.3351 23.978 22.2673Z" fill="#FFB506"/>
</g>
<defs>
<clipPath id="clip0_216_1813">
<rect width="25" height="19" fill="white" transform="translate(8 11)"/>
</clipPath>
</defs>
</svg>
