<svg width="46" height="45" viewBox="0 0 46 45" fill="none" xmlns="http://www.w3.org/2000/svg">
<g clip-path="url(#clip0_4_7061)">
<path opacity="0.27" d="M45.7019 35.6103C45.7019 40.6449 35.4097 45.2537 22.7849 44.9899C8.43665 44.6898 -0.00508881 40.2701 -0.00508881 35.2355C-0.00508881 30.2009 10.1979 26.9827 22.8206 26.9827C35.4433 26.9827 45.7019 30.5746 45.7019 35.6103Z" fill="black"/>
<path d="M46 35.0747C46 40.1093 35.7078 44.7181 23.083 44.4543C8.73475 44.1542 0.293011 39.7345 0.293011 34.6999C0.293011 29.6653 10.5023 26.447 23.1239 26.447C35.7456 26.447 46 30.0401 46 35.0747Z" fill="#B22F5D"/>
<path d="M45.9802 34.5117C45.9802 39.5474 36.2331 43.4836 23.6125 43.4836C10.9919 43.4836 0.267986 39.5531 0.267986 34.5173C0.267986 29.4816 10.5014 25.4016 23.1241 25.4016C35.7468 25.4016 45.9802 29.4771 45.9802 34.5117Z" fill="url(#paint0_linear_4_7061)"/>
<path d="M45.2051 34.5074C45.2051 39.1661 35.8129 42.8044 23.6533 42.8044C11.4938 42.8044 1.15535 39.1661 1.15535 34.5074C1.15535 29.8488 11.0149 26.0723 23.1776 26.0723C35.3403 26.0723 45.2051 29.8488 45.2051 34.5074Z" fill="#B22F5D"/>
<path d="M44.3511 34.7186C44.3511 39.118 35.2992 42.5536 23.5734 42.5536C11.8476 42.5536 1.89035 39.118 1.89035 34.7186C1.89035 30.3193 11.396 26.7534 23.1228 26.7534C34.8497 26.7534 44.3511 30.3193 44.3511 34.7186Z" fill="url(#paint1_linear_4_7061)"/>
<path d="M39.1116 35.5377L38.1517 38.0368L32.2893 39.9653L25.8314 40.6436L21.1947 40.322L18.1815 39.4297L14.5719 37.9293L39.0454 32.9309L39.1116 35.5377Z" fill="#914004"/>
<path d="M41.9924 35.5374C41.9924 35.5374 42.1258 35.466 40.9327 35.1795C39.7396 34.8931 41.0661 34.2521 40.7342 32.9657C40.4023 31.6793 37.886 31.2535 36.1647 31.5378C34.4433 31.822 35.8989 35.0369 35.8989 35.0369L38.0855 36.68L41.9924 35.5374Z" fill="#914004"/>
<path d="M38.8134 32.5379C38.8134 32.5379 39.0791 33.3951 38.7472 35.1085C38.4153 36.8218 36.297 38.2508 34.5085 38.5373C32.72 38.8238 27.9509 39.6799 25.4345 39.6799C22.9182 39.6799 19.4734 39.3221 17.6187 38.894C15.764 38.466 10.7303 37.0369 9.60445 36.8229C8.47861 36.6089 6.3582 35.3236 5.89505 34.8978C5.4319 34.472 5.29852 32.684 5.69655 32.256C6.09459 31.8279 9.28938 32.5232 9.28938 32.5232L38.8134 32.5379Z" fill="#FFEDC4"/>
<path d="M34.856 30.5196C34.856 30.5196 37.3062 30.5909 38.4993 31.8784C39.6923 33.166 38.3669 36.0558 34.7184 37.0557C31.0699 38.0556 22.2995 38.341 19.2528 37.8054C16.206 37.2697 10.9402 35.7671 9.64841 35.3775C8.35663 34.988 4.71233 33.0924 5.87284 31.4493C7.03334 29.8062 34.856 30.5196 34.856 30.5196Z" fill="url(#paint2_linear_4_7061)"/>
<path d="M36.1141 30.3486C36.1141 30.3486 36.2632 30.7767 35.4189 31.5807C34.5745 32.3846 33.6335 32.5443 32.7859 32.6519C31.9384 32.7595 30.6004 34.1512 28.2164 34.3652C25.8324 34.5792 22.9999 34.954 18.1342 35.2224C13.2685 35.4908 9.24189 33.0743 8.09714 32.8603C6.95239 32.6462 5.26152 31.6282 5.11659 30.8219C4.97165 30.0157 5.21636 29.1086 5.21636 29.1086L36.1141 30.3486Z" fill="#FFEDC4"/>
<path d="M24.9209 33.2692C24.9209 33.2692 22.3373 33.4481 19.9197 33.6984C17.5021 33.9486 13.8284 34.234 9.28928 32.5195C4.75019 30.8051 4.05704 28.4848 6.83909 27.7352C9.62115 26.9856 28.5305 32.6622 28.5305 32.6622C28.5305 32.6622 27.4372 33.2692 24.9209 33.2692Z" fill="#E2952C"/>
<path opacity="0.18" d="M36.7108 23.9316C37.103 24.384 37.5174 24.8134 37.9522 25.218C38.6485 25.8601 37.3567 25.9314 37.007 27.3775C36.6573 28.8236 36.9219 29.4158 36.088 30.2877C34.8278 31.6092 33.0424 31.7972 31.2192 32.5106C29.4821 33.1901 26.8198 33.9159 24.3927 33.7698C20.5352 33.5377 18.2499 34.0201 16.7596 33.7517C15.2694 33.4833 13.7969 32.6193 12.4211 32.1358C10.4341 31.4394 9.55507 30.6376 8.34731 29.7702C5.51169 27.7319 6.56192 26.7705 6.56192 26.1817C6.56192 25.5929 7.45566 26.0685 8.84617 25.1625C10.2367 24.2566 36.7108 23.9316 36.7108 23.9316Z" fill="black"/>
<path d="M36.711 23.7539C37.1034 24.2057 37.5178 24.6347 37.9524 25.0392C38.6487 25.6824 39.1948 26.1636 38.8472 27.6097C38.4995 29.0558 37.3065 29.5348 36.4127 30.3421C35.519 31.1495 32.5878 33.181 30.7499 33.3996C28.912 33.6181 27.2726 33.8809 24.8382 33.9352C22.4037 33.9896 18.6786 33.6136 17.1883 33.3452C15.698 33.0769 13.4967 32.1676 12.121 31.6852C10.1339 30.9887 9.55314 30.4644 8.34013 29.5959C5.50451 27.5576 6.55474 26.5973 6.55474 26.0074C6.55474 25.4174 7.44848 25.9009 8.83899 24.9882C10.2295 24.0755 36.711 23.7539 36.711 23.7539Z" fill="#FFEDC4"/>
<path d="M36.4122 23.5222C36.4122 23.5222 38.5316 24.3794 38.8582 26.0576C39.1848 27.7358 36.7714 29.4854 35.1488 29.9134C33.5262 30.3415 31.9697 31.9517 29.32 32.4851C26.6703 33.0184 22.9945 32.8055 19.6831 32.6278C16.3718 32.45 12.7285 31.2689 10.6753 30.1274C8.62212 28.986 6.30322 28.4855 6.46915 26.4143C6.63509 24.3432 8.78701 24.307 8.78701 24.307L36.4122 23.5222Z" fill="url(#paint3_linear_4_7061)"/>
<path opacity="0.18" d="M37.5874 24.2183C37.5874 24.2183 37.3564 25.9316 34.4084 26.8601C31.4604 27.7887 28.4809 27.9495 27.1229 27.8793C25.765 27.8091 23.5963 28.022 21.5095 27.9857C19.4227 27.9495 15.2007 26.6472 14.3732 26.6472C13.5456 26.6472 10.2657 25.8263 9.13987 25.6836C8.01402 25.5409 7.35448 24.755 7.64959 24.5761C7.94471 24.3972 12.2527 25.3257 12.2527 25.3257L20.4004 26.611L30.7326 26.5046L35.7999 25.3971L37.5853 24.2194" fill="black"/>
<path d="M37.9521 22.5488C37.9521 22.5488 38.0519 23.996 37.0909 24.826C36.6877 25.1748 34.2438 27.1826 29.8717 27.1112C25.4996 27.0399 22.3216 27.6106 18.546 26.8972C14.7704 26.1838 11.6576 25.6833 9.67052 25.253C7.68349 24.8227 5.63029 23.5397 5.96111 21.6112C6.29193 19.6827 37.9521 22.5488 37.9521 22.5488Z" fill="#FFEDC4"/>
<path d="M36.1479 19.9502C36.1479 19.9502 37.9333 20.2367 38.0026 22.0927C38.0719 23.9487 34.6902 25.5917 30.9818 25.8782C27.2735 26.1647 23.96 26.2349 19.9859 25.8069C16.0119 25.3789 12.2374 25.0924 9.25681 23.9498C6.27627 22.8072 4.81855 20.9501 7.20362 20.8074C9.58868 20.6647 36.1479 19.9502 36.1479 19.9502Z" fill="#E2802C"/>
<path d="M37.6044 18.3793C37.6044 18.3793 38.0518 18.9682 37.3566 20.575C36.6613 22.1819 34.0777 22.9859 32.9845 23.3607C31.8912 23.7355 28.5136 24.3244 26.6264 25.0208C24.7391 25.7172 22.9002 25.3956 21.3112 25.1284C19.7222 24.8611 16.8897 24.2225 15.4992 24.0571C14.1087 23.8918 10.4812 23.6823 7.89869 21.7006C5.31618 19.719 5.4149 18.0045 5.56614 17.2549C5.71737 16.5052 37.6044 18.3793 37.6044 18.3793Z" fill="#FFEDC4"/>
<path d="M36.6109 15.5945C36.6109 15.5945 38.3963 17.5195 37.3398 20.0221C36.2832 22.5247 32.9025 22.3084 29.7886 23.5223C26.6747 24.7362 21.5097 24.2335 18.5291 23.6673C15.5486 23.1011 12.7665 23.8099 8.65697 21.2394C4.54743 18.6689 5.21328 16.0305 6.73611 16.0305C8.25894 16.0305 36.6109 15.5945 36.6109 15.5945Z" fill="url(#paint4_radial_4_7061)"/>
<path d="M38.052 15.2733C38.052 15.2733 38.3996 16.3445 37.655 17.0942C36.9104 17.8438 33.681 19.1823 32.1938 20.0384C30.7067 20.8945 26.0332 22.1809 20.9669 21.4312C15.9006 20.6816 13.1679 20.36 11.7249 20.1992C10.2819 20.0384 8.19821 19.7168 6.75729 18.5391C6.22048 18.1034 5.77474 17.5507 5.44904 16.917C5.12335 16.2834 4.925 15.5829 4.86688 14.8611C4.81752 14.0039 9.58661 14.3787 9.58661 14.3787L38.0478 15.2722" fill="#FFEDC4"/>
<path d="M34.6238 11.3809C34.6238 11.3809 37.9362 11.7387 38.0685 14.5232C38.2008 17.3078 35.0228 17.5943 32.7691 18.6655C30.5153 19.7368 24.5563 20.7367 21.3772 20.4513C18.1982 20.1659 14.8858 19.2374 11.5051 19.0924C8.1244 18.9475 6.93449 16.8786 5.87481 16.1641C4.81514 15.4495 4.35198 14.521 5.80865 13.3784C7.26532 12.2358 34.6238 11.3809 34.6238 11.3809Z" fill="url(#paint5_radial_4_7061)"/>
<path d="M37.8862 33.972C37.8862 33.972 38.3504 32.7581 36.9588 32.6131C35.5672 32.4682 34.6409 33.1793 33.5151 33.3277C32.3893 33.476 29.8057 34.1837 28.2167 34.3627C26.6277 34.5416 22.3218 34.9696 22.3218 34.9696C22.3218 34.9696 21.5267 35.6128 23.3814 35.8268C25.2362 36.0409 30.9315 36.3262 31.3296 37.3261C31.7276 38.326 30.9977 39.1119 30.5346 39.3259C30.0714 39.5399 27.2893 39.8615 26.2286 39.9329C25.1679 40.0042 20.863 39.8264 18.6775 39.2535C16.4919 38.6805 13.4452 37.7542 12.4517 37.6115C12.4517 37.6115 15.5646 38.6827 17.0213 39.3248C18.4779 39.9669 22.2546 41.3959 25.4336 41.1819C28.6126 40.9679 30.6669 40.5398 32.4523 40.3938C34.2377 40.2477 38.0321 39.344 40.0696 38.4687C42.0566 37.6126 42.9167 36.6127 42.3874 35.751C41.8581 34.8892 40.0024 35.751 39.9362 35.1078C39.87 34.4646 38.9248 34.6242 38.7442 35.8585C38.6455 36.538 37.5522 38.2502 32.3861 39.1074C32.3861 39.1074 31.9219 38.822 32.0542 38.0361C32.1866 37.2503 32.7169 37.5367 34.6378 36.8222C36.5587 36.1077 37.4934 35.4667 37.8862 33.972Z" fill="#914004"/>
<path d="M25.1026 6.11414C23.804 6.11414 22.7512 5.9225 22.7512 5.6861C22.7512 5.4497 23.804 5.25806 25.1026 5.25806C26.4013 5.25806 27.4541 5.4497 27.4541 5.6861C27.4541 5.9225 26.4013 6.11414 25.1026 6.11414Z" fill="#6C3200"/>
<path opacity="0.18" d="M30.7991 18.0852C30.6499 18.1294 26.9248 19.683 22.3048 19.2006C17.6849 18.7182 15.2998 17.3265 14.3063 17.219C13.3128 17.1114 9.19062 15.6121 8.09733 15.3449C7.00405 15.0776 5.51377 14.0585 6.35816 13.148C7.20254 12.2376 30.7991 18.0852 30.7991 18.0852Z" fill="black"/>
<path d="M37.8284 13.5772C37.8284 13.5772 37.7538 14.4424 37.4555 14.6836C37.1573 14.9248 37.4555 15.1127 36.984 15.4604C36.5124 15.808 33.4069 17.3854 30.7992 18.0852C28.1915 18.7851 25.2109 19.2369 21.4606 18.5133C17.7102 17.7897 16.2441 17.014 14.2822 16.4512C12.3204 15.8884 9.71166 14.9519 8.27074 14.5771C6.82983 14.2023 6.63239 13.7459 6.45805 13.4255C6.28371 13.105 6.23435 12.3803 6.50741 12.2195C6.78047 12.0587 10.2084 13.3451 10.2084 13.3451L23.4476 14.1751L37.8284 13.5772Z" fill="#FFEDC4"/>
<path d="M36.8632 10.5596C36.8632 10.5596 37.6078 10.9344 37.8084 12.3805C38.009 13.8265 37.7591 14.4188 36.4179 14.8978C35.0768 15.3768 32.593 16.9361 29.2648 17.5226C25.9366 18.1092 23.0055 17.7366 18.4349 16.7198C13.8643 15.7029 10.388 14.0417 8.79797 13.7201C7.20792 13.3985 6.21545 12.5945 6.56308 12.0589C6.91071 11.5232 9.54363 11.5232 9.54363 11.5232L36.8632 10.5596Z" fill="url(#paint6_radial_4_7061)"/>
<path d="M35.692 11.7288C35.692 11.7288 38.0183 12.398 37.8198 13.4749C37.6213 14.5518 34.8392 15.546 34.3099 15.7601C33.7806 15.9741 33.6472 17.0453 34.1104 17.0453C34.5735 17.0453 35.9651 16.3319 36.0312 16.974C36.0974 17.616 33.747 18.0815 32.7692 18.6726C31.7915 19.2637 31.0637 20.4765 31.8587 20.4051C32.6537 20.3338 35.5765 19.9759 35.2457 21.1899C34.9148 22.4038 33.3164 22.0471 31.3294 23.047C29.3423 24.0469 30.9975 24.4059 32.1905 24.1182C34.102 23.6653 35.3696 25.0468 32.6537 25.5462C29.9378 26.0456 29.4064 26.3241 29.6732 27.1768C29.9399 28.0295 32.5875 27.82 33.3826 28.1767C34.1776 28.5334 34.1104 29.8187 32.1905 30.4619C30.2707 31.1051 29.5408 30.1765 28.2826 30.7472C27.0245 31.318 25.3021 31.4618 24.7056 30.4619C24.109 29.462 26.3618 28.3907 27.2891 27.8913C28.2165 27.392 29.5408 27.0341 28.6796 26.3909C27.8184 25.7477 26.4941 26.3909 26.5603 25.6051C26.6264 24.8192 28.6796 24.8916 29.21 24.3198C29.7404 23.7479 29.5408 23.0345 27.7523 23.1772C25.9637 23.3199 25.6256 22.3155 26.7504 21.7413C27.8752 21.1672 29.8716 21.2499 30.3358 20.6792C30.8 20.1084 31.3294 18.822 30.5343 18.822C29.7393 18.822 28.5883 20.0054 28.1661 19.3305C27.8374 18.8062 29.9378 18.3396 30.799 18.0849C31.6602 17.8301 33.0969 17.3126 33.0969 17.3126C33.0969 17.3126 33.8457 16.897 33.2502 15.7544C32.6547 14.6118 30.9313 15.8257 28.9443 15.041C26.9573 14.2563 28.8813 12.7332 31.1918 12.518C32.7068 12.3655 34.2103 12.1018 35.692 11.7288Z" fill="#914004"/>
<path opacity="0.18" d="M37.3066 10.8987L37.6553 11.6483C37.6553 11.6483 35.7649 13.2552 30.9485 13.202C26.1322 13.1487 24.8383 13.4692 23.5465 12.9336C22.2547 12.398 18.1326 12.8203 17.2378 12.8203C16.343 12.8203 11.7766 12.4999 10.3325 11.9643C8.88847 11.4286 37.3066 10.8987 37.3066 10.8987Z" fill="black"/>
<path d="M39.0946 6.91821C39.0941 7.12808 39.0607 7.33635 38.9958 7.53423C38.8908 7.7743 39.1943 8.15025 39.1943 8.76627C39.1943 9.38229 38.6482 10.2384 36.7105 11.2836C34.7729 12.3288 31.8921 12.5416 28.2657 12.6753C24.6392 12.8089 25.5351 12.3808 20.5654 12.194C15.5957 12.0072 16.9148 12.81 11.6489 12.1668C6.3831 11.5236 6.28333 10.6947 6.1594 10.4796C6.03547 10.2644 5.88108 9.43551 5.98611 9.1728C6.09113 8.91008 8.04771 8.53073 8.04771 8.53073L39.0946 6.91821Z" fill="#FFEDC4"/>
<path d="M38.6975 7.81309C38.6975 7.81309 38.5316 7.59907 38.9296 7.2469C39.3277 6.89473 38.9958 5.96164 37.8027 4.99798C36.6097 4.03431 31.7114 1.8556 23.298 2.24854C14.8846 2.64148 8.9582 5.70345 7.89852 6.52444C6.83884 7.34542 6.04382 7.98861 6.07637 8.88093C6.07637 8.88093 5.67939 9.52413 6.80523 9.66681C7.93108 9.80949 9.91811 10.1662 11.7728 10.4516C13.6275 10.7369 18.8272 11.0178 21.8403 10.7381C24.8534 10.4584 27.2385 11.2737 31.3785 10.8807C35.5185 10.4878 37.8773 9.95444 38.6975 8.88093C39.1607 8.27397 38.6975 7.81309 38.6975 7.81309Z" fill="url(#paint7_linear_4_7061)"/>
<path d="M25.8357 4.57872C25.8357 4.57872 30.6541 4.52549 30.2571 5.52992C29.8601 6.53435 28.3195 5.79377 27.724 7.06204C27.1285 8.33032 31.6476 7.85472 33.2902 7.80149C34.9327 7.74827 36.0649 8.91803 35.6553 10.0425C35.1081 11.5429 34.2595 11.2994 34.8393 11.9676C34.897 12.0344 34.3761 12.1102 34.3761 12.1102C34.3761 12.1102 34.1031 11.9268 34.4255 11.0197C34.8015 9.96549 32.6401 9.54084 30.7003 9.85791C28.7605 10.175 22.8016 10.2282 21.013 10.3335C19.2245 10.4388 16.6913 10.6506 16.1452 9.96322C15.5991 9.27586 17.4863 9.756 17.2868 8.75157C17.0873 7.74714 14.8534 8.48772 12.1711 8.11856C9.48886 7.7494 10.6305 6.21615 12.1711 5.79377C13.7118 5.37139 10.1841 5.42348 8.49534 6.26937C6.80657 7.11527 7.84945 5.63523 9.83648 4.94787C11.8235 4.26051 16.3941 4.63194 19.3747 4.84256C22.3552 5.05319 23.1985 4.63194 25.8357 4.57872Z" fill="#914004"/>
<path opacity="0.18" d="M6.75599 18.5408C8.1969 19.7185 10.2827 20.0401 11.7236 20.2009C13.1645 20.3617 15.8961 20.6833 20.9656 21.4329C26.035 22.1826 30.7022 20.8973 32.1925 20.0401C33.5452 19.2621 36.3325 18.0867 37.3911 17.3156L37.5077 17.3269C37.5077 17.3269 37.6064 17.6122 37.6064 18.38C37.6064 19.1478 35.2224 19.4694 33.8256 20.1114C32.4288 20.7535 29.1069 21.8972 26.6232 22.1826C24.1394 22.4679 20.5129 22.2539 18.3768 21.8791C16.2406 21.5043 12.3663 20.7546 11.3224 20.8599C10.2785 20.9653 5.56083 20.2937 5.56083 17.2544C5.56117 17.2196 5.56576 17.1849 5.57448 17.1514C5.88618 17.6885 6.28665 18.1595 6.75599 18.5408Z" fill="black"/>
<path opacity="0.18" d="M32.9843 23.3609C34.0776 22.986 36.6601 22.1821 37.3564 20.5752C37.3564 20.5752 37.7534 20.8073 37.9519 21.5038C37.9519 21.5038 36.3629 23.0042 34.7235 23.4288C33.0841 23.8535 31.6936 24.448 30.5509 24.072C30.5287 24.0674 30.5078 24.0575 30.4896 24.043C30.4714 24.0285 30.4565 24.0098 30.4459 23.9882C31.5256 23.7447 32.4897 23.5307 32.9843 23.3609Z" fill="black"/>
<path d="M32.242 7.76637C32.242 7.83574 32.2612 7.90352 32.2971 7.96105C32.3331 8.01859 32.3841 8.06327 32.4437 8.08938C32.5033 8.11549 32.5687 8.12184 32.6317 8.10764C32.6947 8.09343 32.7523 8.0593 32.7972 8.00961C32.842 7.95992 32.8722 7.89693 32.8837 7.82869C32.8952 7.76045 32.8876 7.69006 32.8618 7.62651C32.836 7.56296 32.7933 7.50914 32.739 7.47192C32.6847 7.43471 32.6214 7.4158 32.557 7.4176C32.4726 7.41967 32.3923 7.45737 32.3334 7.52259C32.2745 7.5878 32.2417 7.67533 32.242 7.76637Z" fill="#D72F5D"/>
<path d="M29.8551 8.99705C29.677 8.99705 29.5326 8.8414 29.5326 8.6494C29.5326 8.4574 29.677 8.30176 29.8551 8.30176C30.0331 8.30176 30.1775 8.4574 30.1775 8.6494C30.1775 8.8414 30.0331 8.99705 29.8551 8.99705Z" fill="#F6605D"/>
<path d="M28.7867 8.0056C28.7864 8.07463 28.8052 8.14217 28.8407 8.19967C28.8761 8.25718 28.9265 8.30206 28.9856 8.32863C29.0447 8.3552 29.1098 8.36227 29.1726 8.34894C29.2354 8.33561 29.2931 8.30248 29.3385 8.25375C29.3838 8.20502 29.4147 8.14288 29.4273 8.07519C29.4399 8.0075 29.4335 7.93732 29.4091 7.87352C29.3846 7.80973 29.3432 7.75519 29.2899 7.71682C29.2367 7.67844 29.1741 7.65796 29.1101 7.65796C29.0245 7.65796 28.9424 7.69455 28.8818 7.75971C28.8211 7.82487 28.7869 7.91329 28.7867 8.0056Z" fill="#D72F5D"/>
<path d="M11.8477 7.5781C11.6697 7.5781 11.5253 7.42245 11.5253 7.23046C11.5253 7.03846 11.6697 6.88281 11.8477 6.88281C12.0258 6.88281 12.1702 7.03846 12.1702 7.23046C12.1702 7.42245 12.0258 7.5781 11.8477 7.5781Z" fill="#D72F5D"/>
<path d="M9.66244 5.41746C9.48437 5.41746 9.34002 5.26181 9.34002 5.06981C9.34002 4.87781 9.48437 4.72217 9.66244 4.72217C9.84051 4.72217 9.98486 4.87781 9.98486 5.06981C9.98486 5.26181 9.84051 5.41746 9.66244 5.41746Z" fill="#D72F5D"/>
<path d="M30.2035 14.781C30.0254 14.781 29.881 14.6253 29.881 14.4333C29.881 14.2413 30.0254 14.0857 30.2035 14.0857C30.3815 14.0857 30.5259 14.2413 30.5259 14.4333C30.5259 14.6253 30.3815 14.781 30.2035 14.781Z" fill="#D72F5D"/>
<path d="M33.5559 34.9746C33.5557 35.0436 33.5745 35.1112 33.6099 35.1687C33.6454 35.2262 33.6958 35.2711 33.7549 35.2976C33.814 35.3242 33.8791 35.3313 33.9419 35.3179C34.0047 35.3046 34.0624 35.2715 34.1078 35.2227C34.1531 35.174 34.184 35.1119 34.1966 35.0442C34.2092 34.9765 34.2028 34.9063 34.1784 34.8425C34.1539 34.7787 34.1124 34.7242 34.0592 34.6858C34.006 34.6474 33.9434 34.627 33.8794 34.627C33.7938 34.627 33.7117 34.6635 33.6511 34.7287C33.5904 34.7939 33.5562 34.8823 33.5559 34.9746Z" fill="#D72F5D"/>
<path d="M25.1361 9.10447C24.958 9.10447 24.8137 8.94882 24.8137 8.75682C24.8137 8.56483 24.958 8.40918 25.1361 8.40918C25.3141 8.40918 25.4585 8.56483 25.4585 8.75682C25.4585 8.94882 25.3141 9.10447 25.1361 9.10447Z" fill="#F6605D"/>
<path d="M28.8811 35.2436C28.8811 35.3125 28.9001 35.38 28.9356 35.4373C28.9712 35.4947 29.0217 35.5394 29.0808 35.5658C29.1399 35.5922 29.205 35.5991 29.2677 35.5856C29.3305 35.5722 29.3881 35.539 29.4333 35.4902C29.4786 35.4414 29.5094 35.3792 29.5219 35.3116C29.5343 35.2439 29.5279 35.1738 29.5035 35.1101C29.479 35.0463 29.4375 34.9919 29.3843 34.9536C29.3311 34.9152 29.2686 34.8948 29.2046 34.8948C29.1188 34.8948 29.0365 34.9315 28.9759 34.9969C28.9152 35.0623 28.8811 35.1511 28.8811 35.2436Z" fill="#F6605D"/>
<path d="M28.4149 29.6721C28.2368 29.6721 28.0925 29.5164 28.0925 29.3245C28.0925 29.1325 28.2368 28.9768 28.4149 28.9768C28.593 28.9768 28.7373 29.1325 28.7373 29.3245C28.7373 29.5164 28.593 29.6721 28.4149 29.6721Z" fill="#F6605D"/>
<path d="M31.8922 22.2002C31.7141 22.2002 31.5698 22.0445 31.5698 21.8525C31.5698 21.6605 31.7141 21.5049 31.8922 21.5049C32.0702 21.5049 32.2146 21.6605 32.2146 21.8525C32.2146 22.0445 32.0702 22.2002 31.8922 22.2002Z" fill="#F6605D"/>
<path d="M16.6165 9.77415C16.4385 9.77415 16.2941 9.6185 16.2941 9.4265C16.2941 9.2345 16.4385 9.07886 16.6165 9.07886C16.7946 9.07886 16.939 9.2345 16.939 9.4265C16.939 9.6185 16.7946 9.77415 16.6165 9.77415Z" fill="#F6605D"/>
<path d="M36.5616 13.8174C36.3835 13.8174 36.2392 13.6617 36.2392 13.4697C36.2392 13.2777 36.3835 13.1221 36.5616 13.1221C36.7397 13.1221 36.884 13.2777 36.884 13.4697C36.884 13.6617 36.7397 13.8174 36.5616 13.8174Z" fill="#F6605D"/>
<path d="M28.3899 4.73925C28.3897 4.80827 28.4085 4.87582 28.4439 4.93332C28.4793 4.99083 28.5298 5.03571 28.5889 5.06228C28.648 5.08885 28.713 5.09592 28.7759 5.08259C28.8387 5.06926 28.8964 5.03613 28.9418 4.9874C28.9871 4.93867 29.018 4.87652 29.0306 4.80884C29.0431 4.74115 29.0368 4.67097 29.0123 4.60717C28.9879 4.54337 28.9464 4.48884 28.8932 4.45046C28.84 4.41209 28.7774 4.3916 28.7134 4.3916C28.6278 4.3916 28.5457 4.42819 28.485 4.49336C28.4244 4.55852 28.3902 4.64694 28.3899 4.73925Z" fill="#F6605D"/>
<path d="M12.7624 6.532C12.7274 6.56992 12.7037 6.61814 12.6941 6.6706C12.6846 6.72305 12.6896 6.77739 12.7087 6.82675C12.7277 6.87611 12.7599 6.91828 12.8011 6.94795C12.8424 6.97762 12.8908 6.99345 12.9404 6.99345C12.99 6.99345 13.0385 6.97762 13.0797 6.94795C13.1209 6.91828 13.1531 6.87611 13.1722 6.82675C13.1912 6.77739 13.1963 6.72305 13.1867 6.6706C13.1771 6.61814 13.1534 6.56992 13.1184 6.532C13.0712 6.48118 13.0071 6.45264 12.9404 6.45264C12.8737 6.45264 12.8096 6.48118 12.7624 6.532Z" fill="#F6605D"/>
<path d="M11.3847 4.92263C11.2461 4.92263 11.1337 4.80146 11.1337 4.65199C11.1337 4.50252 11.2461 4.38135 11.3847 4.38135C11.5234 4.38135 11.6357 4.50252 11.6357 4.65199C11.6357 4.80146 11.5234 4.92263 11.3847 4.92263Z" fill="#F6605D"/>
<path d="M27.4961 8.04662C27.4961 8.08626 27.507 8.12502 27.5275 8.15798C27.5479 8.19094 27.5769 8.21663 27.6109 8.2318C27.6449 8.24697 27.6822 8.25094 27.7183 8.2432C27.7544 8.23547 27.7875 8.21638 27.8135 8.18835C27.8395 8.16032 27.8572 8.12461 27.8643 8.08573C27.8715 8.04685 27.8678 8.00655 27.8538 7.96992C27.8397 7.9333 27.8159 7.90199 27.7853 7.87997C27.7547 7.85795 27.7188 7.84619 27.682 7.84619C27.6327 7.84619 27.5854 7.86731 27.5506 7.9049C27.5157 7.94248 27.4961 7.99347 27.4961 8.04662Z" fill="#F6605D"/>
<path d="M26.2409 9.78783C26.2407 9.82775 26.2515 9.86683 26.2719 9.90012C26.2923 9.93342 26.3214 9.95943 26.3556 9.97486C26.3897 9.99029 26.4273 9.99444 26.4636 9.9868C26.5 9.97915 26.5334 9.96004 26.5596 9.9319C26.5859 9.90375 26.6038 9.86784 26.6111 9.82871C26.6184 9.78958 26.6147 9.74899 26.6006 9.71209C26.5865 9.6752 26.5625 9.64365 26.5318 9.62145C26.501 9.59925 26.4648 9.5874 26.4278 9.5874C26.3784 9.5874 26.331 9.60848 26.296 9.64604C26.261 9.68359 26.2412 9.73457 26.2409 9.78783Z" fill="#F6605D"/>
<path d="M34.7733 14.4336C34.7731 14.4735 34.7839 14.5126 34.8043 14.5459C34.8247 14.5792 34.8539 14.6052 34.888 14.6206C34.9221 14.636 34.9598 14.6402 34.9961 14.6325C35.0324 14.6249 35.0658 14.6058 35.0921 14.5776C35.1183 14.5495 35.1362 14.5136 35.1435 14.4745C35.1508 14.4353 35.1472 14.3947 35.1331 14.3578C35.119 14.3209 35.095 14.2894 35.0642 14.2672C35.0335 14.245 34.9973 14.2332 34.9603 14.2332C34.9109 14.2332 34.8635 14.2542 34.8285 14.2918C34.7934 14.3293 34.7736 14.3803 34.7733 14.4336Z" fill="#F6605D"/>
<path d="M33.0971 21.3041C33.0971 21.344 33.1081 21.383 33.1286 21.4162C33.1492 21.4494 33.1785 21.4752 33.2127 21.4904C33.2469 21.5057 33.2846 21.5096 33.3209 21.5017C33.3572 21.4938 33.3905 21.4745 33.4166 21.4462C33.4427 21.4179 33.4604 21.3819 33.4675 21.3427C33.4746 21.3036 33.4707 21.263 33.4564 21.2262C33.4421 21.1894 33.418 21.158 33.3871 21.136C33.3562 21.1139 33.32 21.1023 33.283 21.1025C33.2585 21.1025 33.2342 21.1078 33.2116 21.1179C33.189 21.128 33.1684 21.1429 33.1511 21.1616C33.1339 21.1804 33.1202 21.2026 33.1109 21.2271C33.1016 21.2515 33.0969 21.2777 33.0971 21.3041Z" fill="#F6605D"/>
<path d="M28.8739 14.166C28.8737 14.2059 28.8845 14.245 28.9049 14.2783C28.9253 14.3116 28.9545 14.3376 28.9886 14.353C29.0227 14.3685 29.0604 14.3726 29.0967 14.365C29.133 14.3573 29.1664 14.3382 29.1927 14.3101C29.2189 14.2819 29.2368 14.246 29.2441 14.2069C29.2514 14.1677 29.2478 14.1272 29.2337 14.0903C29.2196 14.0534 29.1956 14.0218 29.1648 13.9996C29.1341 13.9774 29.0979 13.9656 29.0609 13.9656C29.0115 13.9656 28.9641 13.9867 28.929 14.0242C28.894 14.0618 28.8742 14.1127 28.8739 14.166Z" fill="#F6605D"/>
<path d="M17.6229 9.29214C17.6231 9.33174 17.6341 9.37038 17.6547 9.40319C17.6752 9.436 17.7043 9.46151 17.7383 9.47651C17.7723 9.49151 17.8097 9.49532 17.8456 9.48745C17.8816 9.47959 17.9147 9.46042 17.9406 9.43234C17.9664 9.40426 17.984 9.36855 17.9911 9.3297C17.9982 9.29085 17.9945 9.25061 17.9804 9.21405C17.9663 9.17749 17.9425 9.14625 17.9119 9.12428C17.8814 9.1023 17.8455 9.09058 17.8087 9.09058C17.7842 9.09058 17.76 9.0958 17.7374 9.10594C17.7147 9.11608 17.6942 9.13095 17.6769 9.14968C17.6597 9.16841 17.646 9.19064 17.6367 9.21509C17.6274 9.23954 17.6227 9.26573 17.6229 9.29214Z" fill="#F6605D"/>
<path d="M33.7924 8.55444C33.7922 8.5944 33.803 8.63353 33.8235 8.66685C33.8439 8.70017 33.8731 8.72618 33.9073 8.74157C33.9415 8.75697 33.9792 8.76106 34.0155 8.75332C34.0519 8.74557 34.0853 8.72635 34.1115 8.6981C34.1377 8.66984 34.1555 8.63382 34.1627 8.59462C34.1699 8.55541 34.1661 8.51479 34.1518 8.47791C34.1375 8.44104 34.1134 8.40957 34.0825 8.3875C34.0516 8.36544 34.0153 8.35378 33.9783 8.35401C33.9291 8.3543 33.8819 8.37552 33.8471 8.41304C33.8123 8.45057 33.7927 8.50137 33.7924 8.55444Z" fill="#F6605D"/>
<path d="M29.0724 5.3413C29.0722 5.38122 29.083 5.4203 29.1034 5.45359C29.1238 5.48689 29.1529 5.5129 29.1871 5.52833C29.2212 5.54376 29.2588 5.54792 29.2952 5.54027C29.3315 5.53262 29.3649 5.51351 29.3912 5.48537C29.4174 5.45722 29.4353 5.42131 29.4426 5.38218C29.4499 5.34305 29.4463 5.30246 29.4322 5.26556C29.418 5.22867 29.3941 5.19712 29.3633 5.17492C29.3326 5.15272 29.2964 5.14087 29.2594 5.14087C29.21 5.14087 29.1626 5.16195 29.1275 5.19951C29.0925 5.23706 29.0727 5.28804 29.0724 5.3413Z" fill="#F6605D"/>
<path d="M26.1044 7.04272C26.1042 7.08263 26.115 7.12171 26.1354 7.15501C26.1558 7.1883 26.1849 7.21432 26.2191 7.22975C26.2532 7.24518 26.2908 7.24933 26.3272 7.24168C26.3635 7.23403 26.3969 7.21492 26.4231 7.18678C26.4494 7.15864 26.4673 7.12272 26.4746 7.08359C26.4819 7.04446 26.4783 7.00388 26.4641 6.96698C26.45 6.93008 26.4261 6.89853 26.3953 6.87634C26.3645 6.85414 26.3284 6.84229 26.2913 6.84229C26.2419 6.84228 26.1945 6.86337 26.1595 6.90092C26.1245 6.93848 26.1047 6.98946 26.1044 7.04272Z" fill="#F6605D"/>
<path d="M31.3083 35.9795C31.308 36.0195 31.3189 36.0586 31.3393 36.0919C31.3598 36.1252 31.389 36.1512 31.4232 36.1666C31.4574 36.182 31.495 36.1861 31.5314 36.1784C31.5678 36.1706 31.6012 36.1514 31.6274 36.1231C31.6536 36.0949 31.6714 36.0589 31.6786 36.0197C31.6858 35.9805 31.682 35.9398 31.6677 35.903C31.6534 35.8661 31.6293 35.8346 31.5984 35.8126C31.5675 35.7905 31.5312 35.7788 31.4941 35.7791C31.4448 35.7791 31.3976 35.8002 31.3627 35.8378C31.3278 35.8754 31.3083 35.9263 31.3083 35.9795Z" fill="#F6605D"/>
<path d="M10.3283 4.75536C10.3281 4.79528 10.3389 4.83436 10.3593 4.86765C10.3797 4.90095 10.4088 4.92696 10.4429 4.94239C10.4771 4.95782 10.5147 4.96198 10.551 4.95433C10.5874 4.94668 10.6208 4.92757 10.647 4.89943C10.6733 4.87128 10.6912 4.83537 10.6985 4.79624C10.7058 4.75711 10.7021 4.71652 10.688 4.67963C10.6739 4.64273 10.6499 4.61118 10.6192 4.58898C10.5884 4.56678 10.5522 4.55493 10.5152 4.55493C10.4658 4.55493 10.4184 4.57601 10.3834 4.61357C10.3484 4.65112 10.3286 4.7021 10.3283 4.75536Z" fill="#F6605D"/>
<path d="M13.0901 7.73876C13.0901 7.7784 13.101 7.81715 13.1215 7.85012C13.1419 7.88308 13.1709 7.90877 13.2049 7.92394C13.2389 7.93911 13.2762 7.94308 13.3123 7.93534C13.3483 7.92761 13.3815 7.90852 13.4075 7.88049C13.4335 7.85246 13.4512 7.81674 13.4583 7.77786C13.4655 7.73898 13.4618 7.69868 13.4478 7.66206C13.4337 7.62544 13.4099 7.59413 13.3793 7.57211C13.3487 7.55009 13.3128 7.53833 13.276 7.53833C13.2267 7.53833 13.1794 7.55945 13.1446 7.59704C13.1097 7.63462 13.0901 7.6856 13.0901 7.73876Z" fill="#F6605D"/>
<path opacity="0.19" d="M6.62406 38.8044C6.62406 39.0603 7.67429 39.2686 8.97552 39.2686C10.2768 39.2686 11.3259 39.0603 11.3259 38.8044C11.3259 38.5484 10.2757 38.3401 8.97552 38.3401C7.67534 38.3401 6.62406 38.5484 6.62406 38.8044Z" fill="black"/>
<path opacity="0.19" d="M17.3539 41.4823C17.3539 41.7383 18.4041 41.9466 19.7043 41.9466C21.0045 41.9466 22.0547 41.7383 22.0547 41.4823C22.0547 41.2264 21.0045 41.0181 19.7032 41.0181C18.402 41.0181 17.3539 41.2264 17.3539 41.4823Z" fill="black"/>
<path opacity="0.19" d="M22.4206 41.5907C22.4206 41.8467 23.4708 42.055 24.7721 42.055C26.0733 42.055 27.1235 41.8467 27.1235 41.5907C27.1235 41.3348 26.0733 41.1265 24.7721 41.1265C23.4708 41.1265 22.4206 41.3326 22.4206 41.5907Z" fill="black"/>
<path d="M33.3573 29.8328C33.1461 30.0674 32.9032 30.2663 32.6369 30.4227C32.2168 30.6628 32.2893 31.5472 32.4132 32.0828C32.5371 32.6184 33.0843 32.6717 33.7543 32.649C34.4244 32.6264 36.905 32.3274 37.5299 32.7826C38.1548 33.2379 32.7367 35.0859 32.7367 35.0859L29.2835 34.1981C29.2835 34.1981 31.1466 33.7701 31.4197 32.9129C31.6927 32.0556 31.6686 31.6536 31.4942 31.306C31.3199 30.9584 30.799 30.6628 30.3022 30.6628C29.8055 30.6628 33.3573 29.8328 33.3573 29.8328Z" fill="#914004"/>
<path d="M9.80273 34.9479C9.80273 34.9479 9.4215 34.6988 9.28918 34.6806C9.15685 34.6625 8.94155 35.0555 8.94155 35.0555C8.90453 34.9309 8.85449 34.8112 8.79242 34.6988C8.6937 34.5199 8.32927 34.9841 8.32927 34.9841C8.32927 34.9841 8.29566 34.6444 8.2463 34.6274C8.19694 34.6104 7.7821 35.0555 7.7821 35.0555L8.18014 35.6092C8.18014 35.6092 9.45511 35.7156 9.52128 35.6624C9.58744 35.6092 9.80273 34.9479 9.80273 34.9479Z" fill="#343057"/>
<path d="M9.68929 34.7712C9.68929 34.7712 11.8402 35.111 11.2342 37.3169C10.6282 39.5228 7.55838 39.208 6.80641 38.2624C6.05445 37.3169 5.6165 35.6726 7.91335 34.8392C7.97962 34.8867 8.03484 34.95 8.07472 35.0242C8.11461 35.0985 8.1381 35.1816 8.14335 35.2672C8.25783 35.1213 8.40144 35.0051 8.56345 34.9275C8.70343 35.041 8.81763 35.1874 8.89742 35.3556C8.89742 35.3556 8.8344 35.1076 9.23139 34.9026C9.23139 34.9026 9.52441 35.0158 9.60738 35.2423L9.68929 34.7712Z" fill="#605A8F"/>
<path opacity="0.45" d="M7.41879 37.2872C8.02583 38.8205 9.85007 38.6744 10.7659 38.1931C9.69464 39.3991 7.43665 39.0503 6.80651 38.2577C6.07135 37.3269 5.63235 35.7211 7.80843 34.8752L7.81578 34.9081L7.91345 34.8345C7.91345 34.8345 6.78866 35.6985 7.41879 37.2872Z" fill="#343057"/>
<path opacity="0.16" d="M10.8287 36.2366C10.8287 36.2366 10.7048 35.7542 10.3571 35.5934C10.2747 35.5501 10.1837 35.5296 10.0921 35.5337C10.0006 35.5378 9.91142 35.5663 9.83261 35.6167C9.75381 35.6671 9.68783 35.7378 9.64062 35.8225C9.59341 35.9071 9.56643 36.0031 9.56211 36.1018C9.51274 36.5842 9.61252 37.0394 9.96014 37.3882C10.3078 37.737 11.1522 37.3316 10.8287 36.2366Z" fill="#E0E6FF"/>
<path opacity="0.19" d="M25.136 6.34617C24.2306 6.34617 23.4966 6.19053 23.4966 5.99853C23.4966 5.80653 24.2306 5.65088 25.136 5.65088C26.0414 5.65088 26.7754 5.80653 26.7754 5.99853C26.7754 6.19053 26.0414 6.34617 25.136 6.34617Z" fill="black"/>
<path opacity="0.19" d="M12.813 5.30214C12.813 5.49465 13.5481 5.64978 14.4524 5.64978C15.3566 5.64978 16.0918 5.49465 16.0918 5.30214C16.0918 5.10964 15.3566 4.95337 14.4524 4.95337C13.5481 4.95337 12.813 5.10964 12.813 5.30214Z" fill="black"/>
<path opacity="0.19" d="M20.6401 10.0407C19.5288 10.0407 18.6279 9.84901 18.6279 9.61261C18.6279 9.37621 19.5288 9.18457 20.6401 9.18457C21.7514 9.18457 22.6523 9.37621 22.6523 9.61261C22.6523 9.84901 21.7514 10.0407 20.6401 10.0407Z" fill="black"/>
<path opacity="0.19" d="M32.9604 5.16712C31.8491 5.16712 30.9482 4.97548 30.9482 4.73908C30.9482 4.50268 31.8491 4.31104 32.9604 4.31104C34.0717 4.31104 34.9727 4.50268 34.9727 4.73908C34.9727 4.97548 34.0717 5.16712 32.9604 5.16712Z" fill="black"/>
<path opacity="0.19" d="M18.9767 5.1131C18.1264 5.1131 17.4371 5.04111 17.4371 4.9523C17.4371 4.8635 18.1264 4.7915 18.9767 4.7915C19.827 4.7915 20.5164 4.8635 20.5164 4.9523C20.5164 5.04111 19.827 5.1131 18.9767 5.1131Z" fill="black"/>
<path d="M25.7306 1.66819C25.7306 1.66819 26.0855 1.62402 26.1685 1.62402C26.2515 1.62402 26.2021 2.11435 26.2021 2.11435C26.3575 2.08026 26.5152 2.05943 26.6737 2.05207C26.7398 2.07018 26.765 2.58769 26.765 2.58769C26.9403 2.54032 27.097 2.43402 27.2124 2.28421C27.2143 2.51122 27.2031 2.73813 27.1788 2.96364C27.1463 3.1335 26.5161 3.19578 26.4752 3.16068C26.4342 3.12557 25.4249 2.25476 25.4249 2.23212C25.4249 2.20947 25.7306 1.66819 25.7306 1.66819Z" fill="#343057"/>
<path d="M27.2143 2.2839C27.2143 2.2839 27.189 2.6859 27.5619 3.35514C27.9347 4.02438 27.8601 5.17602 26.9906 5.81922C26.121 6.46241 24.3324 6.16686 23.4135 5.06958C22.4945 3.97229 22.8884 2.41752 23.6865 1.8819C24.4847 1.34628 25.4257 1.74828 25.7733 1.50708C25.8209 1.65736 25.8515 1.81322 25.8647 1.97136C25.8647 2.14122 26.1294 1.99854 26.3363 1.99854C26.3884 2.16717 26.427 2.3403 26.4518 2.51604C26.4602 2.67684 26.8078 2.4447 26.9076 2.42658C27.0074 2.40846 26.9244 2.56133 27.0315 2.77536C27.1386 2.98938 27.2143 2.2839 27.2143 2.2839Z" fill="#605A8F"/>
<path opacity="0.45" d="M23.6867 1.88228C24.2171 1.52558 24.8125 1.58446 25.2547 1.59239L25.2851 1.61503C23.149 1.88228 23.3947 5.11412 25.45 5.63162C26.7597 5.96114 27.3551 5.38249 27.6208 5.00767C27.4853 5.33649 27.267 5.61777 26.9907 5.81959C26.1211 6.46279 24.3326 6.16724 23.4136 5.06995C22.4947 3.97267 22.8948 2.4179 23.6867 1.88228Z" fill="#343057"/>
<path d="M20.5657 0.93633C20.5657 0.93633 20.1855 0.686072 20.0532 0.667954C19.9208 0.649836 19.7045 1.04277 19.7045 1.04277C19.6674 0.918401 19.6177 0.798786 19.5564 0.686072C19.4514 0.507155 19.0922 0.971434 19.0922 0.971434C19.0922 0.971434 19.0596 0.631718 19.0092 0.614732C18.9588 0.597746 18.5461 1.04277 18.5461 1.04277L18.9431 1.59651C18.9431 1.59651 20.218 1.70975 20.2842 1.64973C20.3504 1.58972 20.5657 0.93633 20.5657 0.93633Z" fill="#343057"/>
<path d="M20.452 0.759521C20.452 0.759521 22.6039 1.09924 21.9979 3.304C21.3919 5.50876 18.3221 5.19622 17.5701 4.24955C16.8182 3.30287 16.3834 1.65977 18.6771 0.827465C18.7427 0.87515 18.7972 0.93844 18.8366 1.01246C18.8759 1.08647 18.8989 1.16924 18.9039 1.25438C19.019 1.10912 19.1625 0.993114 19.324 0.914659C19.464 1.02819 19.5782 1.17457 19.658 1.3427C19.658 1.3427 19.596 1.09471 19.993 0.889746C19.993 0.889746 20.285 1.00299 20.369 1.22946L20.452 0.759521Z" fill="#605A8F"/>
<path opacity="0.45" d="M18.1817 3.27444C18.7887 4.80769 20.614 4.66161 21.5298 4.18941C20.4575 5.3954 18.2006 5.04663 17.5704 4.25395C16.83 3.32313 16.3952 1.7174 18.5713 0.872641L18.5786 0.905481L18.6774 0.833008C18.6774 0.833008 17.5526 1.6857 18.1817 3.27444Z" fill="#343057"/>
<path d="M32.6129 24.7976C32.4348 24.7976 32.2905 24.6419 32.2905 24.4499C32.2905 24.2579 32.4348 24.1023 32.6129 24.1023C32.791 24.1023 32.9353 24.2579 32.9353 24.4499C32.9353 24.6419 32.791 24.7976 32.6129 24.7976Z" fill="#D72F5D"/>
<path d="M30.129 25.2263C29.9509 25.2263 29.8066 25.0706 29.8066 24.8786C29.8066 24.6866 29.9509 24.531 30.129 24.531C30.3071 24.531 30.4514 24.6866 30.4514 24.8786C30.4514 25.0706 30.3071 25.2263 30.129 25.2263Z" fill="#F6605D"/>
<path d="M36.1888 34.1714C36.0107 34.1714 35.8664 34.0157 35.8664 33.8237C35.8664 33.6317 36.0107 33.4761 36.1888 33.4761C36.3669 33.4761 36.5112 33.6317 36.5112 33.8237C36.5112 34.0157 36.3669 34.1714 36.1888 34.1714Z" fill="#F6605D"/>
<path d="M29.2594 24.718C29.2592 24.758 29.27 24.7971 29.2905 24.8304C29.311 24.8637 29.3401 24.8897 29.3743 24.9051C29.4085 24.9205 29.4462 24.9246 29.4826 24.9169C29.5189 24.9091 29.5523 24.8899 29.5785 24.8617C29.6048 24.8334 29.6226 24.7974 29.6298 24.7582C29.6369 24.719 29.6331 24.6784 29.6189 24.6415C29.6046 24.6046 29.5805 24.5731 29.5496 24.5511C29.5187 24.529 29.4824 24.5174 29.4453 24.5176C29.4209 24.5176 29.3967 24.5228 29.3742 24.5328C29.3516 24.5429 29.3311 24.5577 29.3139 24.5763C29.2966 24.5949 29.2829 24.617 29.2736 24.6413C29.2642 24.6656 29.2594 24.6917 29.2594 24.718Z" fill="#F6605D"/>
<path d="M32.3017 34.801C32.3015 34.841 32.3123 34.8801 32.3327 34.9134C32.3532 34.9468 32.3824 34.9728 32.4166 34.9882C32.4508 35.0036 32.4885 35.0077 32.5248 34.9999C32.5612 34.9922 32.5946 34.9729 32.6208 34.9447C32.647 34.9164 32.6648 34.8804 32.672 34.8412C32.6792 34.802 32.6754 34.7614 32.6611 34.7245C32.6468 34.6876 32.6227 34.6562 32.5918 34.6341C32.5609 34.612 32.5246 34.6004 32.4875 34.6006C32.4383 34.6009 32.3912 34.6221 32.3564 34.6596C32.3216 34.6972 32.3019 34.748 32.3017 34.801Z" fill="#F6605D"/>
<path d="M26.3405 29.1232C26.3405 29.1631 26.3515 29.2021 26.3721 29.2353C26.3926 29.2685 26.4219 29.2943 26.4561 29.3095C26.4903 29.3247 26.528 29.3287 26.5643 29.3208C26.6006 29.3129 26.6339 29.2936 26.66 29.2653C26.6861 29.237 26.7038 29.201 26.7109 29.1618C26.718 29.1226 26.7141 29.0821 26.6998 29.0453C26.6855 29.0085 26.6614 28.9771 26.6305 28.9551C26.5996 28.933 26.5634 28.9214 26.5264 28.9216C26.5019 28.9216 26.4776 28.9269 26.455 28.937C26.4324 28.9471 26.4118 28.962 26.3945 28.9807C26.3773 28.9995 26.3636 29.0217 26.3543 29.0461C26.345 29.0706 26.3403 29.0968 26.3405 29.1232Z" fill="#F6605D"/>
<path d="M31.2965 28.5746C31.2965 28.6145 31.3075 28.6535 31.328 28.6866C31.3486 28.7197 31.3778 28.7456 31.4119 28.7608C31.4461 28.7761 31.4837 28.7801 31.5199 28.7723C31.5562 28.7645 31.5895 28.7453 31.6157 28.7171C31.6418 28.689 31.6596 28.653 31.6668 28.6139C31.674 28.5748 31.6703 28.5343 31.6562 28.4975C31.642 28.4606 31.6181 28.4292 31.5873 28.407C31.5566 28.3849 31.5204 28.373 31.4835 28.373C31.4339 28.373 31.3863 28.3943 31.3513 28.4321C31.3162 28.4699 31.2965 28.5212 31.2965 28.5746Z" fill="#F6605D"/>
<path opacity="0.16" d="M26.3775 4.47181C26.3775 4.82625 26.6117 5.11387 26.9026 5.11387C27.1935 5.11387 27.4277 4.82625 27.4277 4.47181C27.4277 4.11737 27.1935 3.82861 26.9026 3.82861C26.6117 3.82861 26.3775 4.11624 26.3775 4.47181Z" fill="#E0E6FF"/>
<path opacity="0.16" d="M26.7669 3.37364C26.7666 3.41271 26.7772 3.45096 26.7972 3.48353C26.8172 3.51611 26.8457 3.54154 26.8792 3.55659C26.9126 3.57164 26.9494 3.57564 26.985 3.56807C27.0205 3.56051 27.0532 3.54172 27.0788 3.5141C27.1044 3.48647 27.1218 3.45126 27.1289 3.41293C27.1359 3.37461 27.1322 3.3349 27.1182 3.29885C27.1043 3.2628 27.0807 3.23204 27.0505 3.21047C27.0202 3.18891 26.9848 3.17751 26.9485 3.17774C26.9247 3.17774 26.9011 3.1828 26.879 3.19265C26.857 3.20249 26.8369 3.21693 26.8201 3.23512C26.8032 3.25331 26.7898 3.2749 26.7807 3.29867C26.7716 3.32244 26.7669 3.34791 26.7669 3.37364Z" fill="#E0E6FF"/>
<path opacity="0.16" d="M21.8447 2.35505C21.8447 2.35505 21.7397 1.73903 21.4246 1.48085C21.1096 1.22266 20.6139 1.17737 20.6212 1.80131C20.6286 2.42526 20.804 2.76611 20.6884 3.30173C20.5729 3.83734 21.1684 3.98908 21.4331 3.72977C21.6977 3.47045 21.9498 3.06959 21.8447 2.35505Z" fill="#E0E6FF"/>
<path d="M15.9131 1.36422C15.9131 1.36422 15.5655 1.09698 15.4657 1.11396C15.3028 1.16827 15.1624 1.28196 15.0687 1.43556C15.0687 1.43556 14.7872 1.02563 14.6875 1.02563C14.5877 1.02563 14.3566 1.40046 14.3566 1.40046L14.3062 1.11396C14.1698 1.20197 14.0693 1.34233 14.0248 1.5069C13.9586 1.77528 14.3734 2.13198 14.3734 2.13198C14.3734 2.13198 15.284 2.52492 15.3502 2.48981C15.4163 2.45471 15.9131 1.36422 15.9131 1.36422Z" fill="#343057"/>
<path d="M15.8455 1.20801C15.8455 1.20801 17.9964 1.54772 17.3904 3.75249C16.7845 5.95725 13.7146 5.64357 12.9627 4.69803C12.2107 3.75249 11.7728 2.10826 14.0728 1.27482C14.1379 1.32222 14.1922 1.38499 14.2315 1.45837C14.2708 1.53174 14.2941 1.61381 14.2996 1.69833C14.4141 1.55238 14.5577 1.43624 14.7197 1.35862C14.8593 1.47258 14.9734 1.61885 15.0537 1.78666C15.0537 1.78666 14.9907 1.53867 15.3876 1.3337C15.3876 1.3337 15.6807 1.44694 15.7636 1.67342L15.8455 1.20801Z" fill="#605A8F"/>
<path opacity="0.45" d="M12.8884 1.96313C12.67 2.76826 12.9703 4.15204 14.3314 4.71144C15.4447 5.1644 16.6062 4.72163 16.999 4.54045C15.9624 5.85629 13.6089 5.50978 12.963 4.69785C12.3843 3.97086 11.9936 2.83054 12.8884 1.96313Z" fill="#343057"/>
<path opacity="0.16" d="M16.8489 1.97511C16.7146 1.87645 16.5507 1.83602 16.3899 1.86187C16.1536 1.91736 15.9383 2.20838 16.1704 2.60019C16.4025 2.992 16.7691 3.67823 17.0768 3.42797C17.3845 3.17771 17.3604 2.91047 17.2207 2.5062C17.1369 2.30031 17.0096 2.11843 16.8489 1.97511Z" fill="#E0E6FF"/>
<path d="M17.0135 3.98974C17.0135 3.98974 18.28 3.85612 18.8272 4.95341C19.3744 6.05069 19.1003 7.3903 18.1067 7.92592C17.1132 8.46154 15.7962 8.54194 15.0023 7.47297C14.2083 6.404 13.9342 4.23094 17.0135 3.98974Z" fill="#605A8F"/>
<path d="M17.3035 3.99811C17.3035 3.99811 16.9979 4.22459 16.9558 4.43522C16.9558 4.43522 16.6996 4.26536 16.5085 4.30159C16.3173 4.33783 16.2196 4.6583 16.2196 4.6583C16.2196 4.6583 15.8962 4.31858 15.7471 4.43182C15.5979 4.54506 15.4908 4.74436 15.515 4.7353C15.5391 4.72624 15.4824 4.4137 15.3585 4.44994C15.3585 4.44994 15.4635 3.98566 15.6557 4.01283C15.7776 4.03302 15.8922 4.08816 15.9876 4.1725C16.0127 4.03881 16.078 3.9178 16.1734 3.82826C16.3142 3.71502 16.6124 4.03322 16.6124 4.03322C16.6744 3.91112 16.7658 3.80939 16.8771 3.7388C17.0388 3.64934 17.3035 3.99811 17.3035 3.99811Z" fill="#343057"/>
<path opacity="0.45" d="M14.7263 5.04248C14.7032 5.20894 14.5541 6.55988 15.8585 7.32764C17.2574 8.14976 18.6941 6.91772 18.8632 6.60518C18.8839 6.56667 18.9154 6.53626 18.9531 6.51835C18.9909 6.50043 19.033 6.49594 19.0732 6.50553C18.942 7.11362 18.6111 7.65264 18.1039 7.92554C17.1104 8.46116 15.7934 8.54156 14.9994 7.47259C14.5321 6.83732 14.2443 5.8193 14.7263 5.04248Z" fill="#343057"/>
<path d="M21.2809 5.25638C21.2809 5.25638 22.9098 5.16692 23.4528 6.60732C23.9958 8.04772 23.4108 9.76103 21.0929 9.78368C18.7751 9.80632 18.3791 8.25155 18.4191 7.28336C18.459 6.31517 19.275 5.16692 21.2809 5.25638Z" fill="#605A8F"/>
<path d="M21.6755 6.11464C21.6755 6.11464 21.6912 5.63224 21.4759 5.77492C21.3661 5.84183 21.2659 5.92577 21.1787 6.02405C21.1787 6.02405 21.0958 5.81003 20.9687 5.77492C20.8416 5.73982 20.7943 6.20297 20.7943 6.20297C20.7943 6.20297 20.4635 6.00706 20.3469 6.11351C20.2304 6.21995 20.4961 6.45323 20.4961 6.45323C20.4961 6.45323 20.3144 6.54268 20.4635 6.66725C20.6126 6.79181 20.4961 7.09529 20.8279 7.09529C20.8694 7.09896 20.9111 7.09252 20.9499 7.07645C20.9888 7.06039 21.0238 7.03511 21.0523 7.00248C21.0808 6.96985 21.1022 6.93072 21.1148 6.88798C21.1274 6.84524 21.131 6.79999 21.1252 6.75557C21.1252 6.75557 21.3741 7.05905 21.54 6.93336C21.7059 6.80766 21.6555 6.55854 21.6555 6.55854C21.7191 6.55697 21.7812 6.53821 21.8363 6.50398C21.8913 6.46975 21.9375 6.42114 21.9706 6.36263C22.0725 6.16673 21.6755 6.11464 21.6755 6.11464Z" fill="#343057"/>
<path opacity="0.45" d="M18.4189 7.28329C18.4256 7.13927 18.4485 6.99666 18.4872 6.85864C18.462 7.56752 18.7498 8.89694 20.5163 9.30913C22.2365 9.71679 23.2689 8.72935 23.438 8.55156C23.1082 9.25364 22.3605 9.77115 21.0928 9.7836C18.7739 9.80512 18.379 8.25148 18.4189 7.28329Z" fill="#343057"/>
<path opacity="0.16" d="M23.2478 7.03296C23.1804 6.82243 23.0415 6.64724 22.8592 6.54263C22.5777 6.40788 22.1555 6.53357 22.124 7.12242C22.0925 7.71126 21.9917 8.70776 22.48 8.7021C22.9684 8.69644 23.1301 8.39975 23.2667 7.87206C23.3211 7.59459 23.3147 7.30724 23.2478 7.03296Z" fill="#E0E6FF"/>
<path opacity="0.19" d="M14.9028 30.2348C13.8994 30.2348 13.0859 30.0614 13.0859 29.8475C13.0859 29.6336 13.8994 29.4602 14.9028 29.4602C15.9063 29.4602 16.7197 29.6336 16.7197 29.8475C16.7197 30.0614 15.9063 30.2348 14.9028 30.2348Z" fill="black"/>
<path d="M14.8522 25.8644C14.8522 25.8644 16.3226 25.7828 16.8141 27.0851C17.3056 28.3873 16.7763 29.9319 14.6831 29.9523C12.59 29.9727 12.2309 28.5697 12.2676 27.6955C12.3044 26.8212 13.0416 25.7828 14.8522 25.8644Z" fill="#605A8F"/>
<path d="M15.2095 26.6396C15.2095 26.6396 15.2242 26.2036 15.0299 26.3327C14.9304 26.3935 14.8398 26.4699 14.761 26.5592C14.761 26.5592 14.6854 26.3656 14.5668 26.3327C14.4481 26.2999 14.4166 26.72 14.4166 26.72C14.4166 26.72 14.1173 26.5422 14.0133 26.6396C13.9093 26.737 14.1477 26.9454 14.1477 26.9454C14.1477 26.9454 13.9828 27.0258 14.1173 27.139C14.2517 27.2522 14.1477 27.5263 14.447 27.5263C14.4844 27.5293 14.522 27.5233 14.557 27.5087C14.592 27.4941 14.6235 27.4713 14.6493 27.4419C14.675 27.4125 14.6944 27.3773 14.7059 27.3388C14.7174 27.3003 14.7208 27.2595 14.7159 27.2194C14.7159 27.2194 14.9396 27.4934 15.0898 27.3813C15.1339 27.3401 15.167 27.2868 15.1855 27.227C15.204 27.1672 15.2072 27.1032 15.1948 27.0416C15.2521 27.04 15.3081 27.0229 15.3577 26.9919C15.4072 26.9608 15.4487 26.9168 15.4784 26.8638C15.5687 26.6872 15.2095 26.6396 15.2095 26.6396Z" fill="#343057"/>
<path opacity="0.45" d="M12.2685 27.696C12.2741 27.5655 12.2946 27.4362 12.3294 27.311C12.3074 27.952 12.5668 29.1478 14.1621 29.526C15.7153 29.8929 16.6479 29.0017 16.8013 28.8409C16.503 29.475 15.8267 29.9416 14.683 29.9529C12.5888 29.9733 12.2307 28.5703 12.2685 27.696Z" fill="#343057"/>
<path opacity="0.16" d="M16.6296 27.4696C16.5692 27.2789 16.4438 27.1202 16.2788 27.0257C16.0247 26.9056 15.6435 27.0177 15.613 27.55C15.5825 28.0822 15.4933 28.9858 15.9344 28.9768C16.3754 28.9677 16.5214 28.7039 16.6453 28.2271C16.6946 27.9767 16.6892 27.7173 16.6296 27.4696Z" fill="#E0E6FF"/>
<path opacity="0.16" d="M17.7962 5.68428C17.9254 6.01041 18.2457 6.17573 18.5103 6.05344C18.775 5.93114 18.8842 5.56764 18.7551 5.24151C18.6259 4.91539 18.3056 4.74893 18.0409 4.87122C17.7762 4.99352 17.667 5.35702 17.7962 5.68428Z" fill="#E0E6FF"/>
<path opacity="0.16" d="M17.604 4.61665C17.6182 4.65253 17.642 4.68305 17.6723 4.70436C17.7026 4.72567 17.7381 4.7368 17.7742 4.73634C17.8104 4.73588 17.8457 4.72386 17.8755 4.70179C17.9053 4.67971 17.9284 4.64859 17.9418 4.61236C17.9552 4.57613 17.9584 4.53642 17.9508 4.49827C17.9433 4.46011 17.9254 4.42523 17.8995 4.39804C17.8735 4.37085 17.8407 4.35257 17.8051 4.34553C17.7695 4.33848 17.7328 4.34298 17.6996 4.35846C17.6552 4.37913 17.6203 4.4179 17.6024 4.46628C17.5845 4.51467 17.5851 4.56873 17.604 4.61665Z" fill="#E0E6FF"/>
<path d="M21.7336 38.2156C21.7336 38.2156 21.3356 37.5192 21.1371 37.5192C21.0069 37.5235 20.8794 37.5599 20.7643 37.6257C20.7643 37.6257 20.6162 37.2554 20.4166 37.2554C20.2171 37.2554 19.8453 37.4966 19.8453 37.4966L19.9199 38.5157L21.7336 38.2156Z" fill="#343057"/>
<path d="M21.5982 37.7308C21.5982 37.7308 23.601 38.6435 22.4972 40.6138C21.3934 42.5842 18.4969 41.4416 17.9917 40.3217C17.4865 39.2017 17.4466 37.4907 19.8653 37.3118C19.9181 37.3759 19.9566 37.4522 19.9777 37.5348C19.9988 37.6175 20.0021 37.7043 19.9871 37.7885C20.1314 37.6796 20.2965 37.6069 20.4702 37.5756C20.579 37.7236 20.6551 37.8963 20.6929 38.0807C20.6929 38.0807 20.6929 37.8236 21.1224 37.7409C21.1224 37.7409 21.3787 37.9289 21.407 38.1701L21.5982 37.7308Z" fill="#605A8F"/>
<path opacity="0.16" d="M22.0958 39.3866C22.0958 39.3866 21.9971 39.0039 21.7209 38.8759C21.6555 38.842 21.5833 38.8261 21.5108 38.8296C21.4382 38.833 21.3676 38.8558 21.3053 38.8958C21.2429 38.9358 21.1906 38.9919 21.1532 39.0589C21.1158 39.126 21.0943 39.202 21.0908 39.2802C21.0628 39.4649 21.0768 39.6541 21.1317 39.8317C21.1866 40.0092 21.2807 40.1697 21.4058 40.2993C21.681 40.579 22.3521 40.2597 22.0958 39.3866Z" fill="#E0E6FF"/>
<path d="M24.0501 37.5737C24.0501 37.5737 24.3022 37.2997 24.3652 37.2442C24.4282 37.1887 24.675 37.6054 24.675 37.6054C24.777 37.474 24.8883 37.3514 25.0079 37.2386C25.0699 37.208 25.3891 37.5953 25.3891 37.5953C25.499 37.4407 25.5598 37.2521 25.5624 37.0574C25.6953 37.2331 25.8177 37.4176 25.929 37.61C26.0014 37.7651 25.5467 38.2373 25.4931 38.2373C25.4396 38.2373 24.1499 38.2373 24.1341 38.2203C24.1184 38.2033 24.0501 37.5737 24.0501 37.5737Z" fill="#343057"/>
<path d="M25.5625 37.0574C25.5625 37.0574 25.7725 37.388 26.4541 37.6598C27.1357 37.9316 27.7417 38.8817 27.435 39.9699C27.1284 41.0581 25.5604 42.0308 24.2066 41.7919C22.8529 41.553 22.2648 40.0718 22.5746 39.1183C22.8844 38.1649 23.8559 37.8433 23.9871 37.4197C24.1112 37.5053 24.2254 37.6064 24.3274 37.721C24.4261 37.8534 24.5501 37.5635 24.7118 37.4243C24.8503 37.5205 24.9806 37.6296 25.1014 37.7504C25.2065 37.8704 25.3388 37.4548 25.406 37.3744C25.4732 37.294 25.4963 37.4673 25.7043 37.5624C25.9122 37.6575 25.5625 37.0574 25.5625 37.0574Z" fill="#605A8F"/>
<path opacity="0.16" d="M26.868 38.3794C26.868 38.3794 26.5938 37.9921 26.2242 37.9819C26.1351 37.9751 26.0458 37.9922 25.9644 38.0318C25.883 38.0713 25.8119 38.132 25.7576 38.2084C25.7033 38.2848 25.6674 38.3746 25.6531 38.4697C25.6389 38.5647 25.6467 38.6621 25.676 38.7531C25.7925 39.206 26.0362 39.5831 26.4678 39.762C26.8995 39.941 27.5296 39.2479 26.868 38.3794Z" fill="#E0E6FF"/>
<path opacity="0.45" d="M23.7949 38.2961C23.4221 38.9382 23.1984 40.1442 24.215 40.9199C25.1014 41.5993 26.6305 40.9131 27.0076 40.7251C26.3774 41.4578 25.2306 41.9707 24.2045 41.7918C22.8518 41.5529 22.2626 40.0717 22.5725 39.1183C22.8823 38.1648 23.8537 37.8432 23.985 37.4197C23.9871 37.4208 24.1678 37.6529 23.7949 38.2961Z" fill="#343057"/>
<path opacity="0.45" d="M22.0623 41.1621C20.7726 42.3262 18.44 41.3161 17.9916 40.3219C17.5158 39.2699 17.4528 37.6993 19.4493 37.3618C18.9536 37.4751 18.2048 37.8657 18.3056 39.1533C18.4526 41.024 20.6665 41.7272 22.0623 41.1621Z" fill="#343057"/>
<path d="M33.37 0.891978C33.37 0.891978 35.4012 0.827431 35.7593 2.69474C36.1174 4.56205 34.2071 5.6616 31.9963 4.4975C29.7856 3.33341 30.504 0.376741 33.37 0.891978Z" fill="#605A8F"/>
<path d="M33.5203 1.07448C33.5203 1.07448 33.4006 0.508288 33.5392 0.28181C33.6778 0.0553321 33.4499 -0.00694928 33.3502 0.00324222C33.2504 0.0134337 33.201 0.626056 33.3008 0.851402C33.4006 1.07675 33.4205 1.23528 33.5203 1.07448Z" fill="#343057"/>
<path opacity="0.45" d="M31.4616 1.17603C31.136 1.70712 31.0247 3.22791 32.4142 4.24027C33.7542 5.21639 35.2624 4.36257 35.4167 4.26971C34.7866 5.0454 33.457 5.26395 31.9962 4.49619C30.4166 3.66841 30.3337 1.92453 31.4616 1.17603Z" fill="#343057"/>
<path opacity="0.16" d="M35.3319 2.33534C35.3319 2.33534 35.1933 1.94806 34.894 1.84614C34.8227 1.81774 34.7461 1.80885 34.6709 1.82025C34.5957 1.83166 34.5243 1.86301 34.4631 1.91149C34.4019 1.95997 34.3528 2.02408 34.3202 2.09805C34.2876 2.17202 34.2726 2.25355 34.2764 2.33534C34.2764 2.73733 34.3888 3.10423 34.6965 3.36128C35.0042 3.61833 35.6816 3.21294 35.3319 2.33534Z" fill="#E0E6FF"/>
<path opacity="0.18" d="M19.2737 29.6461C19.2737 29.8227 19.4743 29.9677 19.7211 29.9677C19.9679 29.9677 20.1643 29.8227 20.1643 29.6461C20.1643 29.4694 19.9637 29.3245 19.7169 29.3245C19.4701 29.3245 19.2737 29.4683 19.2737 29.6461Z" fill="#CC562A"/>
<path opacity="0.18" d="M36.8597 27.2355C36.6126 27.2355 36.4123 27.0915 36.4123 26.9139C36.4123 26.7363 36.6126 26.5923 36.8597 26.5923C37.1068 26.5923 37.3071 26.7363 37.3071 26.9139C37.3071 27.0915 37.1068 27.2355 36.8597 27.2355Z" fill="#CC562A"/>
<path opacity="0.34" d="M23.6458 36.6622C23.6458 36.84 23.8464 36.9838 24.0932 36.9838C24.34 36.9838 24.5396 36.84 24.5396 36.6622C24.5396 36.4844 24.34 36.3406 24.0932 36.3406C23.8464 36.3406 23.6458 36.4844 23.6458 36.6622Z" fill="#CC562A"/>
<path opacity="0.28" d="M11.1776 28.735C10.9305 28.735 10.7302 28.591 10.7302 28.4134C10.7302 28.2358 10.9305 28.0918 11.1776 28.0918C11.4247 28.0918 11.625 28.2358 11.625 28.4134C11.625 28.591 11.4247 28.735 11.1776 28.735Z" fill="#CC562A"/>
<path opacity="0.38" d="M20.9637 23.2142C20.9637 23.3908 21.1632 23.5358 21.41 23.5358C21.6568 23.5358 21.8574 23.3908 21.8574 23.2142C21.8574 23.0375 21.6579 22.8926 21.41 22.8926C21.1622 22.8926 20.9637 23.0409 20.9637 23.2142Z" fill="#CC562A"/>
<path opacity="0.38" d="M23.4966 14.5946C23.4966 14.7724 23.6972 14.9162 23.944 14.9162C24.1908 14.9162 24.3904 14.7724 24.3904 14.5946C24.3904 14.4169 24.1908 14.2742 23.944 14.2742C23.6972 14.2742 23.4966 14.418 23.4966 14.5946Z" fill="#CC562A"/>
<path opacity="0.38" d="M11.8222 13.6309C11.8222 13.8087 12.0228 13.9525 12.2696 13.9525C12.5164 13.9525 12.717 13.8087 12.717 13.6309C12.717 13.4531 12.5164 13.3093 12.2696 13.3093C12.0228 13.3093 11.8222 13.4531 11.8222 13.6309Z" fill="#CC562A"/>
<path opacity="0.21" d="M36.4122 7.41737C36.1651 7.41737 35.9648 7.27338 35.9648 7.09577C35.9648 6.91815 36.1651 6.77417 36.4122 6.77417C36.6593 6.77417 36.8596 6.91815 36.8596 7.09577C36.8596 7.27338 36.6593 7.41737 36.4122 7.41737Z" fill="#CC562A"/>
<path opacity="0.21" d="M12.3193 9.4527C12.3193 9.62935 12.5199 9.77316 12.7667 9.77316C13.0135 9.77316 13.2141 9.62935 13.2141 9.4527C13.2141 9.27605 13.0135 9.1311 12.7667 9.1311C12.5199 9.1311 12.3193 9.27492 12.3193 9.4527Z" fill="#CC562A"/>
<path opacity="0.41" d="M7.84813 8.70188C7.84813 8.87966 8.04872 9.02348 8.29552 9.02348C8.54233 9.02348 8.74292 8.87966 8.74292 8.70188C8.74292 8.5241 8.54233 8.37915 8.29657 8.37915C8.05082 8.37915 7.84813 8.52523 7.84813 8.70188Z" fill="#CC562A"/>
<path opacity="0.21" d="M31.7171 6.26521C31.7171 6.36939 31.8336 6.45319 31.9786 6.45319C32.1235 6.45319 32.2422 6.36939 32.2422 6.26521C32.2422 6.16103 32.1256 6.07837 31.9817 6.07837C31.8378 6.07837 31.7171 6.16217 31.7171 6.26521Z" fill="#CC562A"/>
<path opacity="0.21" d="M28.7008 3.63997C28.7008 3.74415 28.8173 3.82794 28.9612 3.82794C29.1051 3.82794 29.2217 3.74415 29.2217 3.63997C29.2217 3.53579 29.1051 3.45312 28.9612 3.45312C28.8173 3.45312 28.7008 3.53692 28.7008 3.63997Z" fill="#CC562A"/>
<path opacity="0.21" d="M35.8535 5.32771C35.8535 5.43189 35.9701 5.51569 36.114 5.51569C36.2579 5.51569 36.3755 5.43189 36.3755 5.32771C36.3755 5.22353 36.2579 5.14087 36.114 5.14087C35.9701 5.14087 35.8535 5.22466 35.8535 5.32771Z" fill="#CC562A"/>
<path opacity="0.21" d="M33.9163 5.81014C33.9163 5.91432 34.0328 5.99811 34.1778 5.99811C34.3227 5.99811 34.4382 5.91432 34.4382 5.81014C34.4382 5.70596 34.3217 5.62329 34.1778 5.62329C34.0339 5.62329 33.9163 5.70709 33.9163 5.81014Z" fill="#CC562A"/>
<path opacity="0.21" d="M27.8059 3.02587C27.8059 3.12891 27.9225 3.21271 28.0674 3.21271C28.2124 3.21271 28.3279 3.12891 28.3279 3.02587C28.3279 2.92282 28.2113 2.83789 28.0674 2.83789C27.9235 2.83789 27.8059 2.92169 27.8059 3.02587Z" fill="#CC562A"/>
<path opacity="0.38" d="M25.6332 17.0055C25.3861 17.0055 25.1858 16.8615 25.1858 16.6839C25.1858 16.5063 25.3861 16.3623 25.6332 16.3623C25.8803 16.3623 26.0806 16.5063 26.0806 16.6839C26.0806 16.8615 25.8803 17.0055 25.6332 17.0055Z" fill="#CC562A"/>
<path opacity="0.38" d="M9.78587 17.8621C9.78587 18.0388 9.98647 18.1826 10.2333 18.1826C10.4801 18.1826 10.6807 18.0388 10.6807 17.8621C10.6807 17.6855 10.4801 17.5405 10.2333 17.5405C9.98647 17.5405 9.78587 17.6843 9.78587 17.8621Z" fill="#CC562A"/>
<path opacity="0.38" d="M21.6094 36.9312C21.6094 37.1079 21.809 37.2517 22.0558 37.2517C22.3026 37.2517 22.5032 37.1079 22.5032 36.9312C22.5032 36.7546 22.3026 36.6096 22.0558 36.6096C21.809 36.6096 21.6094 36.7534 21.6094 36.9312Z" fill="#CC562A"/>
<path opacity="0.16" d="M19.0754 31.7889C19.0754 31.9655 19.276 32.1105 19.5228 32.1105C19.7696 32.1105 19.9702 31.9655 19.9702 31.7889C19.9702 31.6122 19.7696 31.4673 19.5228 31.4673C19.276 31.4673 19.0754 31.6111 19.0754 31.7889Z" fill="#CC562A"/>
<path opacity="0.38" d="M11.8729 21.7181C11.6258 21.7181 11.4255 21.5742 11.4255 21.3965C11.4255 21.2189 11.6258 21.075 11.8729 21.075C12.12 21.075 12.3203 21.2189 12.3203 21.3965C12.3203 21.5742 12.12 21.7181 11.8729 21.7181Z" fill="#CC562A"/>
<path opacity="0.38" d="M12.2697 17.9684C12.2697 18.0579 12.3694 18.1292 12.4933 18.1292C12.6173 18.1292 12.717 18.0579 12.717 17.9684C12.717 17.879 12.6173 17.8076 12.4933 17.8076C12.3694 17.8076 12.2697 17.8801 12.2697 17.9684Z" fill="#CC562A"/>
<path opacity="0.38" d="M20.6655 36.6092C20.5419 36.6092 20.4418 36.5372 20.4418 36.4484C20.4418 36.3596 20.5419 36.2876 20.6655 36.2876C20.789 36.2876 20.8892 36.3596 20.8892 36.4484C20.8892 36.5372 20.789 36.6092 20.6655 36.6092Z" fill="#CC562A"/>
<path opacity="0.38" d="M23.9681 16.2008C23.9681 16.2903 24.0732 16.3616 24.1918 16.3616C24.3105 16.3616 24.4155 16.2903 24.4155 16.2008C24.4155 16.1114 24.3158 16.04 24.1918 16.04C24.0679 16.04 23.9681 16.1125 23.9681 16.2008Z" fill="#CC562A"/>
<path opacity="0.38" d="M13.2636 22.3082C13.1401 22.3082 13.0399 22.2362 13.0399 22.1474C13.0399 22.0586 13.1401 21.9866 13.2636 21.9866C13.3871 21.9866 13.4873 22.0586 13.4873 22.1474C13.4873 22.2362 13.3871 22.3082 13.2636 22.3082Z" fill="#CC562A"/>
<path opacity="0.38" d="M14.2568 22.1478C14.1332 22.1478 14.0331 22.0758 14.0331 21.987C14.0331 21.8982 14.1332 21.8262 14.2568 21.8262C14.3803 21.8262 14.4805 21.8982 14.4805 21.987C14.4805 22.0758 14.3803 22.1478 14.2568 22.1478Z" fill="#CC562A"/>
<path opacity="0.18" d="M20.6655 30.824C20.5419 30.824 20.4418 30.752 20.4418 30.6632C20.4418 30.5744 20.5419 30.5024 20.6655 30.5024C20.789 30.5024 20.8892 30.5744 20.8892 30.6632C20.8892 30.752 20.789 30.824 20.6655 30.824Z" fill="#CC562A"/>
<path opacity="0.18" d="M29.4579 31.8411C29.3344 31.8411 29.2342 31.7691 29.2342 31.6803C29.2342 31.5915 29.3344 31.5195 29.4579 31.5195C29.5815 31.5195 29.6816 31.5915 29.6816 31.6803C29.6816 31.7691 29.5815 31.8411 29.4579 31.8411Z" fill="#CC562A"/>
<path opacity="0.18" d="M35.0222 29.3245C34.8986 29.3245 34.7985 29.2525 34.7985 29.1637C34.7985 29.0749 34.8986 29.0029 35.0222 29.0029C35.1457 29.0029 35.2458 29.0749 35.2458 29.1637C35.2458 29.2525 35.1457 29.3245 35.0222 29.3245Z" fill="#CC562A"/>
<path opacity="0.18" d="M26.9245 37.0374C26.801 37.0374 26.7008 36.9654 26.7008 36.8766C26.7008 36.7878 26.801 36.7158 26.9245 36.7158C27.048 36.7158 27.1482 36.7878 27.1482 36.8766C27.1482 36.9654 27.048 37.0374 26.9245 37.0374Z" fill="#CC562A"/>
<path opacity="0.18" d="M24.1173 28.5746C24.1173 28.6629 24.2223 28.7354 24.341 28.7354C24.4597 28.7354 24.5647 28.6629 24.5647 28.5746C24.5647 28.4863 24.4597 28.4138 24.341 28.4138C24.2223 28.4138 24.1173 28.4852 24.1173 28.5746Z" fill="#CC562A"/>
<path opacity="0.18" d="M34.7238 27.6639C34.6003 27.6639 34.5001 27.5919 34.5001 27.5031C34.5001 27.4143 34.6003 27.3423 34.7238 27.3423C34.8474 27.3423 34.9475 27.4143 34.9475 27.5031C34.9475 27.5919 34.8474 27.6639 34.7238 27.6639Z" fill="#CC562A"/>
<path opacity="0.38" d="M18.9262 22.6834C18.8027 22.6834 18.7025 22.6114 18.7025 22.5226C18.7025 22.4338 18.8027 22.3618 18.9262 22.3618C19.0497 22.3618 19.1499 22.4338 19.1499 22.5226C19.1499 22.6114 19.0497 22.6834 18.9262 22.6834Z" fill="#CC562A"/>
<path opacity="0.38" d="M19.3984 36.554C19.3984 36.6434 19.4982 36.7148 19.6221 36.7148C19.746 36.7148 19.8447 36.6434 19.8447 36.554C19.8447 36.4645 19.7397 36.3943 19.6221 36.3943C19.5045 36.3943 19.3984 36.4622 19.3984 36.554Z" fill="#CC562A"/>
<path opacity="0.22" d="M35.6918 27.7177C35.6918 27.806 35.7968 27.8785 35.9155 27.8785C36.0341 27.8785 36.1392 27.806 36.1392 27.7177C36.1392 27.6294 36.0341 27.5569 35.9155 27.5569C35.7968 27.5569 35.6918 27.6305 35.6918 27.7177Z" fill="#CC562A"/>
<path opacity="0.22" d="M36.8097 31.8944C36.6862 31.8944 36.5861 31.8224 36.5861 31.7336C36.5861 31.6447 36.6862 31.5728 36.8097 31.5728C36.9333 31.5728 37.0334 31.6447 37.0334 31.7336C37.0334 31.8224 36.9333 31.8944 36.8097 31.8944Z" fill="#CC562A"/>
<path opacity="0.18" d="M21.5593 29.5926C21.4357 29.5926 21.3356 29.5206 21.3356 29.4318C21.3356 29.343 21.4357 29.271 21.5593 29.271C21.6828 29.271 21.783 29.343 21.783 29.4318C21.783 29.5206 21.6828 29.5926 21.5593 29.5926Z" fill="#CC562A"/>
<path opacity="0.18" d="M17.0136 31.4134C16.8901 31.4134 16.7899 31.3414 16.7899 31.2526C16.7899 31.1638 16.8901 31.0918 17.0136 31.0918C17.1372 31.0918 17.2373 31.1638 17.2373 31.2526C17.2373 31.3414 17.1372 31.4134 17.0136 31.4134Z" fill="#CC562A"/>
<path opacity="0.38" d="M19.87 14.7547C19.7465 14.7547 19.6463 14.6827 19.6463 14.5939C19.6463 14.5051 19.7465 14.4331 19.87 14.4331C19.9936 14.4331 20.0938 14.5051 20.0938 14.5939C20.0938 14.6827 19.9936 14.7547 19.87 14.7547Z" fill="#CC562A"/>
<path opacity="0.38" d="M10.187 13.0419C10.187 13.1302 10.2867 13.2027 10.4096 13.2027C10.5325 13.2027 10.6333 13.1302 10.6333 13.0419C10.6333 12.9536 10.5283 12.8811 10.4096 12.8811C10.2909 12.8811 10.187 12.9524 10.187 13.0419Z" fill="#CC562A"/>
<path opacity="0.38" d="M13.3871 13.6309C13.2636 13.6309 13.1634 13.5589 13.1634 13.4701C13.1634 13.3813 13.2636 13.3093 13.3871 13.3093C13.5107 13.3093 13.6108 13.3813 13.6108 13.4701C13.6108 13.5589 13.5107 13.6309 13.3871 13.6309Z" fill="#CC562A"/>
<path opacity="0.21" d="M35.2206 6.66706C35.0971 6.66706 34.9969 6.59507 34.9969 6.50626C34.9969 6.41745 35.0971 6.34546 35.2206 6.34546C35.3442 6.34546 35.4443 6.41745 35.4443 6.50626C35.4443 6.59507 35.3442 6.66706 35.2206 6.66706Z" fill="#CC562A"/>
<path opacity="0.21" d="M29.2836 2.97135C29.2836 3.06081 29.3886 3.13215 29.5073 3.13215C29.6259 3.13215 29.731 3.06081 29.731 2.97135C29.731 2.88189 29.6259 2.81055 29.5073 2.81055C29.3886 2.81055 29.2836 2.88302 29.2836 2.97135Z" fill="#CC562A"/>
<path opacity="0.21" d="M11.475 8.97052C11.3515 8.97052 11.2513 8.89853 11.2513 8.80973C11.2513 8.72092 11.3515 8.64893 11.475 8.64893C11.5986 8.64893 11.6987 8.72092 11.6987 8.80973C11.6987 8.89853 11.5986 8.97052 11.475 8.97052Z" fill="#CC562A"/>
<path opacity="0.38" d="M8.61907 16.3616C8.49552 16.3616 8.39537 16.2896 8.39537 16.2008C8.39537 16.112 8.49552 16.04 8.61907 16.04C8.74262 16.04 8.84277 16.112 8.84277 16.2008C8.84277 16.2896 8.74262 16.3616 8.61907 16.3616Z" fill="#CC562A"/>
<path opacity="0.38" d="M18.3551 15.3451C18.3551 15.4335 18.4601 15.5048 18.5788 15.5048C18.6975 15.5048 18.8025 15.4335 18.8025 15.3451C18.8025 15.2568 18.7027 15.1843 18.5788 15.1843C18.4549 15.1843 18.3551 15.2557 18.3551 15.3451Z" fill="#CC562A"/>
<path opacity="0.38" d="M26.2043 15.6658C26.0807 15.6658 25.9806 15.5938 25.9806 15.505C25.9806 15.4162 26.0807 15.3442 26.2043 15.3442C26.3278 15.3442 26.428 15.4162 26.428 15.505C26.428 15.5938 26.3278 15.6658 26.2043 15.6658Z" fill="#CC562A"/>
<path opacity="0.21" d="M33.2577 6.93457C33.2577 7.02403 33.3627 7.09537 33.4814 7.09537C33.6001 7.09537 33.7051 7.02403 33.7051 6.93457C33.7051 6.84511 33.6001 6.7749 33.4814 6.7749C33.3627 6.7749 33.2577 6.84624 33.2577 6.93457Z" fill="#CC562A"/>
</g>
<defs>
<linearGradient id="paint0_linear_4_7061" x1="0.0264309" y1="32.4926" x2="44.3252" y2="35.6745" gradientUnits="userSpaceOnUse">
<stop stop-color="#D72F5D"/>
<stop offset="0.33" stop-color="#D83360"/>
<stop offset="0.64" stop-color="#DA3E68"/>
<stop offset="0.93" stop-color="#DD5077"/>
<stop offset="1" stop-color="#DE567B"/>
</linearGradient>
<linearGradient id="paint1_linear_4_7061" x1="-622.282" y1="4861.94" x2="-17790.4" y2="4861.94" gradientUnits="userSpaceOnUse">
<stop stop-color="#D72F5D"/>
<stop offset="0.33" stop-color="#D83360"/>
<stop offset="0.64" stop-color="#DA3E68"/>
<stop offset="0.93" stop-color="#DD5077"/>
<stop offset="1" stop-color="#DE567B"/>
</linearGradient>
<linearGradient id="paint2_linear_4_7061" x1="38.9257" y1="34.218" x2="5.65334" y2="34.218" gradientUnits="userSpaceOnUse">
<stop stop-color="#F0A82C"/>
<stop offset="0.31" stop-color="#EFA42C"/>
<stop offset="0.59" stop-color="#EB992C"/>
<stop offset="0.86" stop-color="#E6872C"/>
<stop offset="1" stop-color="#E27A2C"/>
</linearGradient>
<linearGradient id="paint3_linear_4_7061" x1="-2122.73" y1="2036.37" x2="-8354.23" y2="5954.13" gradientUnits="userSpaceOnUse">
<stop stop-color="#F0A82C"/>
<stop offset="0.31" stop-color="#EFA42C"/>
<stop offset="0.59" stop-color="#EB992C"/>
<stop offset="0.86" stop-color="#E6872C"/>
<stop offset="1" stop-color="#E27A2C"/>
</linearGradient>
<radialGradient id="paint4_radial_4_7061" cx="0" cy="0" r="1" gradientUnits="userSpaceOnUse" gradientTransform="translate(-7418.2 1542.46) rotate(180) scale(3579.4 966.762)">
<stop stop-color="#F0A82C"/>
<stop offset="0.31" stop-color="#EFA42C"/>
<stop offset="0.59" stop-color="#EB992C"/>
<stop offset="0.86" stop-color="#E6872C"/>
<stop offset="1" stop-color="#E27A2C"/>
</radialGradient>
<radialGradient id="paint5_radial_4_7061" cx="0" cy="0" r="1" gradientUnits="userSpaceOnUse" gradientTransform="translate(21.4812 15.941) rotate(180) scale(12.106 13.053)">
<stop stop-color="#E27A2C"/>
<stop offset="0.28" stop-color="#E4802C"/>
<stop offset="0.66" stop-color="#E9932C"/>
<stop offset="1" stop-color="#F0A82C"/>
</radialGradient>
<radialGradient id="paint6_radial_4_7061" cx="0" cy="0" r="1" gradientUnits="userSpaceOnUse" gradientTransform="translate(-10825.7 84.1369) rotate(180) scale(6548.46 1511.45)">
<stop stop-color="#F0A82C"/>
<stop offset="0.31" stop-color="#EFA42C"/>
<stop offset="0.59" stop-color="#EB992C"/>
<stop offset="0.86" stop-color="#E6872C"/>
<stop offset="1" stop-color="#E27A2C"/>
</radialGradient>
<linearGradient id="paint7_linear_4_7061" x1="-2137.66" y1="513.767" x2="-12557.6" y2="513.767" gradientUnits="userSpaceOnUse">
<stop stop-color="#F0A82C"/>
<stop offset="0.31" stop-color="#EFA42C"/>
<stop offset="0.59" stop-color="#EB992C"/>
<stop offset="0.86" stop-color="#E6872C"/>
<stop offset="1" stop-color="#E27A2C"/>
</linearGradient>
<clipPath id="clip0_4_7061">
<rect width="46" height="45" fill="white" transform="matrix(-1 0 0 1 46 0)"/>
</clipPath>
</defs>
</svg>
