<svg width="375" height="436" viewBox="0 0 375 436" fill="none" xmlns="http://www.w3.org/2000/svg">
<rect width="375" height="436" fill="url(#paint0_linear_259_1816)"/>
<circle opacity="0.3" cx="188" cy="266" r="144" fill="white"/>
<g clip-path="url(#clip0_259_1816)">
<path opacity="0.27" d="M44.8672 349.122C44.8672 378.546 109.306 405.482 188.348 403.94C278.18 402.187 331.033 376.356 331.033 346.931C331.033 317.507 267.153 298.698 188.124 298.698C109.095 298.698 44.8672 319.691 44.8672 349.122Z" fill="black"/>
<path d="M43 345.992C43 375.416 107.438 402.352 186.481 400.81C276.313 399.056 329.165 373.225 329.165 343.801C329.165 314.376 265.247 295.568 186.224 295.568C107.202 295.568 43 316.567 43 345.992Z" fill="#B22F5D"/>
<path d="M43.125 342.702C43.125 372.133 104.151 395.138 183.167 395.138C262.183 395.138 329.323 372.166 329.323 342.735C329.323 313.304 265.253 289.459 186.224 289.459C107.195 289.459 43.125 313.278 43.125 342.702Z" fill="url(#paint1_linear_259_1816)"/>
<path d="M47.9775 342.676C47.9775 369.903 106.781 391.167 182.91 391.167C259.039 391.167 323.767 369.903 323.767 342.676C323.767 315.449 262.038 293.377 185.889 293.377C109.74 293.377 47.9775 315.449 47.9775 342.676Z" fill="#B22F5D"/>
<path d="M53.3232 343.913C53.3232 369.625 109.996 389.705 183.41 389.705C256.824 389.705 319.164 369.625 319.164 343.913C319.164 318.202 259.651 297.361 186.231 297.361C112.81 297.361 53.3232 318.202 53.3232 343.913Z" fill="url(#paint2_linear_259_1816)"/>
<path d="M86.1279 348.698L92.1378 363.305L128.841 374.576L169.273 378.54L198.303 376.66L217.168 371.445L239.767 362.676L86.5422 333.463L86.1279 348.698Z" fill="#914004"/>
<path d="M68.0914 348.698C68.0914 348.698 67.2563 348.281 74.7259 346.607C82.1955 344.933 73.8908 341.187 75.9686 333.668C78.0464 326.15 93.801 323.662 104.578 325.323C115.355 326.984 106.241 345.773 106.241 345.773L92.5516 355.376L68.0914 348.698Z" fill="#914004"/>
<path d="M87.9951 331.167C87.9951 331.167 86.3316 336.177 88.4094 346.19C90.4872 356.203 103.75 364.555 114.947 366.23C126.145 367.904 156.004 372.908 171.758 372.908C187.513 372.908 209.08 370.816 220.692 368.315C232.304 365.813 263.82 357.461 270.869 356.21C277.917 354.959 291.193 347.447 294.093 344.959C296.992 342.471 297.827 332.02 295.335 329.519C292.843 327.017 272.841 331.081 272.841 331.081L87.9951 331.167Z" fill="#FFEDC4"/>
<path d="M112.771 319.373C112.771 319.373 97.4305 319.79 89.9609 327.315C82.4913 334.84 90.7894 351.729 113.632 357.573C136.475 363.417 191.386 365.085 210.461 361.954C229.536 358.824 262.504 350.042 270.592 347.765C278.68 345.488 301.496 334.41 294.231 324.807C286.965 315.204 112.771 319.373 112.771 319.373Z" fill="url(#paint3_linear_259_1816)"/>
<path d="M104.894 318.367C104.894 318.367 103.96 320.869 109.247 325.568C114.533 330.267 120.425 331.2 125.731 331.829C131.037 332.457 139.414 340.591 154.34 341.842C169.266 343.093 187 345.283 217.464 346.852C247.927 348.42 273.137 334.297 280.304 333.046C287.471 331.796 298.058 325.846 298.965 321.134C299.872 316.422 298.34 311.12 298.34 311.12L104.894 318.367Z" fill="#FFEDC4"/>
<path d="M174.973 335.442C174.973 335.442 191.149 336.488 206.285 337.95C221.422 339.413 244.422 341.081 272.841 331.061C301.26 321.041 305.599 307.48 288.181 303.099C270.763 298.718 152.374 331.895 152.374 331.895C152.374 331.895 159.219 335.442 174.973 335.442Z" fill="#E2952C"/>
<path opacity="0.18" d="M101.159 280.869C98.7035 283.512 96.1091 286.022 93.3871 288.387C89.0276 292.139 97.1153 292.556 99.3049 301.008C101.494 309.459 99.8375 312.921 105.058 318.017C112.949 325.74 124.127 326.839 135.542 331.008C146.417 334.979 163.086 339.221 178.281 338.367C202.433 337.011 216.741 339.83 226.071 338.262C235.401 336.693 244.62 331.643 253.234 328.817C265.674 324.747 271.178 320.062 278.739 314.992C296.493 303.079 289.918 297.46 289.918 294.019C289.918 290.578 284.322 293.357 275.616 288.063C266.91 282.768 101.159 280.869 101.159 280.869Z" fill="black"/>
<path d="M101.159 279.83C98.702 282.47 96.1077 284.978 93.3867 287.341C89.0272 291.1 85.608 293.913 87.7845 302.365C89.9609 310.816 97.4305 313.615 103.026 318.334C108.622 323.053 126.974 334.926 138.48 336.203C149.987 337.481 160.251 339.016 175.493 339.334C190.735 339.651 214.057 337.454 223.388 335.886C232.718 334.317 246.5 329.003 255.114 326.183C267.554 322.113 271.191 319.049 278.785 313.973C296.538 302.06 289.963 296.448 289.963 293C289.963 289.552 284.367 292.378 275.662 287.043C266.956 281.709 101.159 279.83 101.159 279.83Z" fill="#FFEDC4"/>
<path d="M103.026 278.473C103.026 278.473 89.7571 283.483 87.7122 293.291C85.6673 303.099 100.777 313.324 110.936 315.826C121.095 318.328 130.84 327.739 147.429 330.856C164.019 333.973 187.033 332.729 207.765 331.69C228.497 330.651 251.307 323.748 264.162 317.077C277.016 310.406 291.535 307.48 290.496 295.376C289.457 283.271 275.984 283.059 275.984 283.059L103.026 278.473Z" fill="url(#paint4_linear_259_1816)"/>
<path opacity="0.18" d="M95.6685 282.543C95.6685 282.543 97.115 292.556 115.572 297.983C134.029 303.41 152.683 304.35 161.185 303.94C169.687 303.529 183.265 304.773 196.33 304.562C209.396 304.35 235.828 296.739 241.01 296.739C246.191 296.739 266.726 291.941 273.775 291.107C280.824 290.273 284.953 285.68 283.105 284.634C281.257 283.589 254.285 289.016 254.285 289.016L203.274 296.527L138.586 295.905L106.86 289.433L95.6816 282.55" fill="black"/>
<path d="M93.3866 272.781C93.3866 272.781 92.762 281.239 98.7784 286.09C101.303 288.129 116.604 299.863 143.977 299.446C171.35 299.029 191.247 302.365 214.886 298.195C238.524 294.026 258.014 291.1 270.454 288.585C282.895 286.071 295.749 278.572 293.678 267.301C291.607 256.031 93.3866 272.781 93.3866 272.781Z" fill="#FFEDC4"/>
<path d="M104.683 257.599C104.683 257.599 93.505 259.274 93.071 270.121C92.637 280.968 113.81 290.571 137.027 292.245C160.245 293.92 180.99 294.33 205.871 291.828C230.752 289.327 254.384 287.652 273.045 280.975C291.706 274.297 300.832 263.443 285.9 262.609C270.967 261.775 104.683 257.599 104.683 257.599Z" fill="#E2802C"/>
<path d="M95.5633 248.42C95.5633 248.42 92.7622 251.861 97.1151 261.252C101.468 270.643 117.643 275.342 124.488 277.533C131.333 279.724 152.479 283.165 164.295 287.235C176.111 291.305 187.625 289.426 197.573 287.864C207.522 286.302 225.255 282.569 233.961 281.603C242.667 280.637 265.378 279.412 281.547 267.831C297.716 256.249 297.098 246.229 296.151 241.848C295.204 237.466 95.5633 248.42 95.5633 248.42Z" fill="#FFEDC4"/>
<path d="M101.783 232.139C101.783 232.139 90.6052 243.39 97.22 258.016C103.835 272.642 125.001 271.378 144.497 278.473C163.993 285.568 196.33 282.629 214.991 279.32C233.652 276.011 251.07 280.154 276.799 265.131C302.529 250.107 298.36 234.687 288.825 234.687C279.291 234.687 101.783 232.139 101.783 232.139Z" fill="url(#paint5_radial_259_1816)"/>
<path d="M92.7623 230.266C92.7623 230.266 90.5859 236.527 95.2478 240.908C99.9097 245.289 120.129 253.112 129.44 258.115C138.75 263.119 168.011 270.637 199.73 266.256C231.449 261.874 248.558 259.995 257.593 259.055C266.628 258.115 279.673 256.236 288.694 249.353C292.055 246.806 294.846 243.576 296.885 239.873C298.924 236.169 300.166 232.075 300.53 227.857C300.839 222.847 270.98 225.038 270.98 225.038L92.7886 230.259" fill="#FFEDC4"/>
<path d="M114.224 207.513C114.224 207.513 93.4854 209.604 92.6569 225.878C91.8284 242.152 111.725 243.827 125.836 250.087C139.947 256.348 177.255 262.192 197.159 260.524C217.062 258.857 237.801 253.43 258.967 252.583C280.133 251.735 287.583 239.644 294.217 235.468C300.852 231.292 303.752 225.865 294.632 219.187C285.512 212.509 114.224 207.513 114.224 207.513Z" fill="url(#paint6_radial_259_1816)"/>
<path d="M93.8011 339.546C93.8011 339.546 90.8948 332.451 99.6071 331.604C108.319 330.757 114.119 334.913 121.168 335.78C128.216 336.647 144.392 340.783 154.34 341.829C164.289 342.874 191.248 345.376 191.248 345.376C191.248 345.376 196.225 349.135 184.613 350.386C173.001 351.637 137.343 353.305 134.851 359.149C132.359 364.992 136.929 369.585 139.828 370.836C142.728 372.087 160.146 373.967 166.787 374.384C173.428 374.801 200.381 373.762 214.064 370.413C227.747 367.064 246.822 361.65 253.043 360.816C253.043 360.816 233.553 367.077 224.433 370.83C215.313 374.582 191.668 382.934 171.765 381.684C151.861 380.433 139 377.931 127.822 377.077C116.644 376.223 92.8871 370.942 80.131 365.826C67.6904 360.823 62.3052 354.979 65.6192 349.943C68.9331 344.906 80.5518 349.943 80.966 346.184C81.3803 342.424 87.2981 343.358 88.429 350.571C89.0471 354.542 95.8921 364.549 128.236 369.559C128.236 369.559 131.142 367.891 130.314 363.298C129.485 358.705 126.165 360.38 114.139 356.204C102.112 352.027 96.2603 348.282 93.8011 339.546Z" fill="#914004"/>
<path d="M173.836 176.731C181.967 176.731 188.558 175.611 188.558 174.23C188.558 172.848 181.967 171.728 173.836 171.728C165.705 171.728 159.114 172.848 159.114 174.23C159.114 175.611 165.705 176.731 173.836 176.731Z" fill="#6C3200"/>
<path opacity="0.18" d="M138.171 246.699C139.105 246.957 162.428 256.037 191.353 253.218C220.278 250.398 235.21 242.265 241.431 241.636C247.651 241.007 273.459 232.245 280.304 230.683C287.149 229.121 296.479 223.165 291.193 217.844C285.906 212.523 138.171 246.699 138.171 246.699Z" fill="black"/>
<path d="M94.1626 220.352C94.1626 220.352 94.6294 225.408 96.4968 226.818C98.3642 228.228 96.4968 229.326 99.4492 231.358C102.402 233.39 121.845 242.609 138.171 246.699C154.498 250.789 173.159 253.43 196.639 249.201C220.12 244.972 229.299 240.438 241.582 237.149C253.865 233.86 270.198 228.386 279.219 226.196C288.24 224.005 289.477 221.338 290.568 219.465C291.66 217.592 291.969 213.357 290.259 212.417C288.549 211.477 267.088 218.995 267.088 218.995L184.199 223.846L94.1626 220.352Z" fill="#FFEDC4"/>
<path d="M100.205 202.715C100.205 202.715 95.5434 204.905 94.2875 213.357C93.0316 221.808 94.5965 225.269 102.993 228.069C111.39 230.868 126.941 239.982 147.778 243.41C168.615 246.838 186.967 244.661 215.583 238.718C244.199 232.774 265.963 223.066 275.918 221.186C285.873 219.306 292.087 214.607 289.911 211.477C287.734 208.347 271.25 208.347 271.25 208.347L100.205 202.715Z" fill="url(#paint7_radial_259_1816)"/>
<path d="M107.537 209.551C107.537 209.551 92.9726 213.462 94.2154 219.756C95.4581 226.05 112.876 231.861 116.19 233.112C119.504 234.363 120.339 240.623 117.439 240.623C114.54 240.623 105.827 236.454 105.413 240.206C104.999 243.959 119.715 246.679 125.836 250.134C131.958 253.588 136.515 260.676 131.537 260.26C126.559 259.843 108.26 257.751 110.332 264.846C112.403 271.941 122.41 269.856 134.851 275.7C147.292 281.544 136.929 283.642 129.459 281.961C117.492 279.313 109.556 287.387 126.559 290.306C143.563 293.225 146.89 294.853 145.22 299.836C143.55 304.82 126.974 303.595 121.996 305.68C117.019 307.765 117.439 315.277 129.459 319.036C141.479 322.795 146.049 317.368 153.926 320.703C161.803 324.039 172.587 324.879 176.322 319.036C180.056 313.192 165.952 306.931 160.146 304.012C154.34 301.094 146.049 299.002 151.441 295.243C156.832 291.484 165.124 295.243 164.71 290.65C164.295 286.057 151.441 286.481 148.12 283.139C144.799 279.796 146.049 275.627 157.247 276.461C168.444 277.295 170.562 271.424 163.519 268.069C156.477 264.714 143.978 265.197 141.071 261.861C138.165 258.526 134.851 251.007 139.829 251.007C144.806 251.007 152.013 257.923 154.656 253.979C156.714 250.915 143.563 248.188 138.172 246.699C132.78 245.21 123.785 242.185 123.785 242.185C123.785 242.185 119.096 239.756 122.825 233.079C126.553 226.401 137.343 233.496 149.784 228.909C162.224 224.323 150.178 215.421 135.712 214.164C126.227 213.273 116.814 211.731 107.537 209.551Z" fill="#914004"/>
<path opacity="0.18" d="M97.4306 204.7L95.2476 209.081C95.2476 209.081 107.083 218.472 137.238 218.161C167.392 217.85 175.493 219.723 183.581 216.593C191.668 213.462 217.477 215.931 223.079 215.931C228.681 215.931 257.271 214.058 266.312 210.928C275.353 207.797 97.4306 204.7 97.4306 204.7Z" fill="black"/>
<path d="M86.2331 181.43C86.2362 182.657 86.4452 183.874 86.8511 185.031C87.5087 186.434 85.6084 188.631 85.6084 192.231C85.6084 195.832 89.0276 200.835 101.159 206.944C113.291 213.052 131.327 214.296 154.031 215.077C176.736 215.858 171.127 213.357 202.242 212.265C233.356 211.173 225.098 215.865 258.066 212.106C291.035 208.347 291.66 203.502 292.436 202.245C293.212 200.987 294.178 196.143 293.521 194.607C292.863 193.072 280.613 190.855 280.613 190.855L86.2331 181.43Z" fill="#FFEDC4"/>
<path d="M88.7185 186.665C88.7185 186.665 89.7574 185.415 87.2654 183.356C84.7733 181.298 86.8511 175.845 94.3207 170.213C101.79 164.58 132.458 151.847 185.133 154.144C237.808 156.44 274.912 174.336 281.547 179.134C288.182 183.932 293.159 187.691 292.955 192.906C292.955 192.906 295.441 196.665 288.392 197.499C281.343 198.333 268.903 200.418 257.291 202.086C245.678 203.754 213.124 205.395 194.259 203.76C175.395 202.125 160.462 206.891 134.542 204.594C108.622 202.298 93.8539 199.18 88.7185 192.906C85.8188 189.359 88.7185 186.665 88.7185 186.665Z" fill="url(#paint8_linear_259_1816)"/>
<path d="M169.246 167.757C169.246 167.757 139.079 167.446 141.564 173.317C144.05 179.187 153.696 174.859 157.424 182.271C161.152 189.683 132.858 186.904 122.575 186.593C112.291 186.282 105.203 193.118 107.767 199.69C111.193 208.459 116.506 207.036 112.876 210.941C112.514 211.331 115.776 211.775 115.776 211.775C115.776 211.775 117.485 210.703 115.467 205.402C113.113 199.24 126.645 196.758 138.789 198.611C150.934 200.464 188.243 200.775 199.44 201.391C210.638 202.006 226.498 203.244 229.917 199.227C233.336 195.21 221.52 198.016 222.77 192.145C224.019 186.275 238.005 190.603 254.798 188.446C271.592 186.288 264.444 177.327 254.798 174.859C245.152 172.39 267.239 172.695 277.812 177.638C288.385 182.582 281.856 173.932 269.415 169.915C256.975 165.898 228.359 168.068 209.698 169.299C191.037 170.53 185.757 168.068 169.246 167.757Z" fill="#914004"/>
<path opacity="0.18" d="M288.701 249.36C279.68 256.242 266.621 258.122 257.6 259.062C248.578 260.002 231.476 261.881 199.737 266.262C167.997 270.644 138.777 263.132 129.446 258.122C120.977 253.575 103.526 246.706 96.8982 242.199L96.1684 242.265C96.1684 242.265 95.5503 243.933 95.5503 248.42C95.5503 252.907 110.476 254.786 119.222 258.539C127.967 262.291 148.765 268.976 164.315 270.644C179.866 272.311 202.571 271.061 215.945 268.87C229.319 266.679 253.575 262.298 260.111 262.914C266.647 263.529 296.184 259.604 296.184 241.841C296.182 241.638 296.153 241.435 296.098 241.239C294.147 244.378 291.639 247.131 288.701 249.36Z" fill="black"/>
<path opacity="0.18" d="M124.488 277.533C117.643 275.343 101.474 270.644 97.1149 261.252C97.1149 261.252 94.6295 262.609 93.3867 266.679C93.3867 266.679 103.335 275.448 113.599 277.93C123.863 280.412 132.569 283.887 139.723 281.689C139.862 281.662 139.993 281.604 140.107 281.52C140.221 281.435 140.314 281.326 140.381 281.2C133.621 279.777 127.585 278.526 124.488 277.533Z" fill="black"/>
<path d="M129.137 186.387C129.137 186.793 129.016 187.189 128.792 187.525C128.567 187.862 128.247 188.123 127.874 188.275C127.501 188.428 127.091 188.465 126.697 188.382C126.303 188.299 125.942 188.099 125.661 187.809C125.38 187.519 125.191 187.151 125.119 186.752C125.047 186.353 125.095 185.941 125.256 185.57C125.417 185.199 125.685 184.884 126.025 184.667C126.365 184.449 126.762 184.339 127.164 184.349C127.693 184.361 128.195 184.582 128.564 184.963C128.933 185.344 129.139 185.855 129.137 186.387Z" fill="#D72F5D"/>
<path d="M144.083 193.581C145.197 193.581 146.101 192.672 146.101 191.55C146.101 190.427 145.197 189.518 144.083 189.518C142.968 189.518 142.064 190.427 142.064 191.55C142.064 192.672 142.968 193.581 144.083 193.581Z" fill="#F6605D"/>
<path d="M150.77 187.791C150.771 188.194 150.653 188.589 150.432 188.925C150.21 189.261 149.894 189.523 149.524 189.679C149.154 189.834 148.747 189.875 148.353 189.797C147.96 189.719 147.599 189.526 147.315 189.241C147.031 188.956 146.837 188.593 146.759 188.197C146.68 187.802 146.72 187.392 146.873 187.019C147.026 186.646 147.285 186.327 147.619 186.103C147.952 185.879 148.344 185.759 148.744 185.759C149.28 185.759 149.795 185.973 150.174 186.353C150.554 186.734 150.768 187.251 150.77 187.791Z" fill="#D72F5D"/>
<path d="M256.823 185.289C257.938 185.289 258.842 184.379 258.842 183.257C258.842 182.135 257.938 181.225 256.823 181.225C255.708 181.225 254.805 182.135 254.805 183.257C254.805 184.379 255.708 185.289 256.823 185.289Z" fill="#D72F5D"/>
<path d="M270.507 172.661C271.622 172.661 272.526 171.752 272.526 170.63C272.526 169.508 271.622 168.598 270.507 168.598C269.392 168.598 268.488 169.508 268.488 170.63C268.488 171.752 269.392 172.661 270.507 172.661Z" fill="#D72F5D"/>
<path d="M141.899 227.387C143.014 227.387 143.918 226.477 143.918 225.355C143.918 224.233 143.014 223.323 141.899 223.323C140.785 223.323 139.881 224.233 139.881 225.355C139.881 226.477 140.785 227.387 141.899 227.387Z" fill="#D72F5D"/>
<path d="M120.911 345.409C120.913 345.813 120.795 346.207 120.573 346.543C120.351 346.88 120.036 347.142 119.666 347.297C119.296 347.452 118.888 347.494 118.495 347.416C118.102 347.338 117.74 347.144 117.456 346.86C117.172 346.575 116.979 346.212 116.9 345.816C116.822 345.42 116.861 345.01 117.014 344.637C117.167 344.264 117.427 343.946 117.76 343.721C118.093 343.497 118.485 343.377 118.886 343.377C119.422 343.377 119.936 343.591 120.316 343.972C120.695 344.353 120.91 344.87 120.911 345.409Z" fill="#D72F5D"/>
<path d="M173.626 194.21C174.74 194.21 175.644 193.3 175.644 192.178C175.644 191.056 174.74 190.146 173.626 190.146C172.511 190.146 171.607 191.056 171.607 192.178C171.607 193.3 172.511 194.21 173.626 194.21Z" fill="#F6605D"/>
<path d="M150.178 346.978C150.178 347.381 150.06 347.775 149.837 348.11C149.614 348.445 149.298 348.707 148.928 348.861C148.558 349.015 148.151 349.056 147.758 348.977C147.365 348.898 147.004 348.704 146.721 348.419C146.438 348.134 146.245 347.771 146.167 347.375C146.089 346.98 146.129 346.57 146.282 346.198C146.435 345.825 146.695 345.507 147.028 345.283C147.361 345.059 147.753 344.939 148.153 344.939C148.69 344.939 149.205 345.154 149.585 345.536C149.965 345.919 150.178 346.437 150.178 346.978Z" fill="#F6605D"/>
<path d="M153.098 314.416C154.213 314.416 155.116 313.506 155.116 312.384C155.116 311.262 154.213 310.353 153.098 310.353C151.983 310.353 151.079 311.262 151.079 312.384C151.079 313.506 151.983 314.416 153.098 314.416Z" fill="#F6605D"/>
<path d="M131.327 270.749C132.442 270.749 133.345 269.84 133.345 268.718C133.345 267.595 132.442 266.686 131.327 266.686C130.212 266.686 129.308 267.595 129.308 268.718C129.308 269.84 130.212 270.749 131.327 270.749Z" fill="#F6605D"/>
<path d="M226.965 198.121C228.08 198.121 228.984 197.212 228.984 196.09C228.984 194.968 228.08 194.058 226.965 194.058C225.85 194.058 224.946 194.968 224.946 196.09C224.946 197.212 225.85 198.121 226.965 198.121Z" fill="#F6605D"/>
<path d="M102.092 221.755C103.207 221.755 104.111 220.845 104.111 219.723C104.111 218.601 103.207 217.691 102.092 217.691C100.978 217.691 100.074 218.601 100.074 219.723C100.074 220.845 100.978 221.755 102.092 221.755Z" fill="#F6605D"/>
<path d="M153.255 168.697C153.257 169.101 153.139 169.495 152.917 169.831C152.696 170.167 152.38 170.43 152.01 170.585C151.64 170.74 151.232 170.782 150.839 170.704C150.446 170.626 150.084 170.432 149.801 170.147C149.517 169.863 149.323 169.499 149.244 169.104C149.166 168.708 149.206 168.298 149.359 167.925C149.512 167.552 149.771 167.234 150.104 167.009C150.438 166.785 150.829 166.665 151.23 166.665C151.766 166.665 152.28 166.879 152.66 167.26C153.04 167.641 153.254 168.158 153.255 168.697Z" fill="#F6605D"/>
<path d="M251.096 179.174C251.315 179.395 251.464 179.677 251.524 179.984C251.584 180.29 251.552 180.608 251.433 180.896C251.313 181.185 251.112 181.431 250.854 181.605C250.596 181.778 250.292 181.87 249.982 181.87C249.671 181.87 249.368 181.778 249.11 181.605C248.851 181.431 248.65 181.185 248.531 180.896C248.411 180.608 248.38 180.29 248.44 179.984C248.5 179.677 248.648 179.395 248.867 179.174C249.163 178.877 249.564 178.71 249.982 178.71C250.4 178.71 250.8 178.877 251.096 179.174Z" fill="#F6605D"/>
<path d="M259.723 169.769C260.591 169.769 261.295 169.061 261.295 168.187C261.295 167.314 260.591 166.606 259.723 166.606C258.855 166.606 258.152 167.314 258.152 168.187C258.152 169.061 258.855 169.769 259.723 169.769Z" fill="#F6605D"/>
<path d="M158.851 188.029C158.851 188.261 158.783 188.487 158.655 188.68C158.527 188.872 158.345 189.022 158.133 189.111C157.92 189.2 157.686 189.223 157.46 189.178C157.234 189.133 157.027 189.021 156.864 188.857C156.702 188.693 156.591 188.485 156.546 188.257C156.501 188.03 156.524 187.795 156.612 187.581C156.7 187.367 156.849 187.184 157.041 187.055C157.232 186.926 157.457 186.857 157.687 186.857C157.996 186.857 158.292 186.981 158.51 187.201C158.729 187.42 158.851 187.718 158.851 188.029Z" fill="#F6605D"/>
<path d="M166.708 198.201C166.71 198.434 166.642 198.663 166.514 198.857C166.387 199.052 166.204 199.204 165.991 199.294C165.777 199.384 165.541 199.408 165.314 199.364C165.086 199.319 164.877 199.207 164.713 199.043C164.548 198.878 164.436 198.669 164.391 198.44C164.345 198.211 164.368 197.974 164.456 197.758C164.545 197.543 164.695 197.358 164.887 197.229C165.08 197.099 165.306 197.03 165.538 197.03C165.847 197.03 166.144 197.153 166.363 197.372C166.583 197.592 166.707 197.89 166.708 198.201Z" fill="#F6605D"/>
<path d="M113.291 225.355C113.292 225.589 113.224 225.817 113.096 226.012C112.969 226.206 112.786 226.358 112.573 226.448C112.359 226.539 112.123 226.563 111.896 226.518C111.668 226.473 111.459 226.362 111.295 226.197C111.131 226.033 111.018 225.823 110.973 225.594C110.927 225.365 110.95 225.128 111.038 224.913C111.127 224.697 111.277 224.513 111.469 224.383C111.662 224.253 111.888 224.184 112.12 224.184C112.429 224.184 112.726 224.307 112.945 224.527C113.165 224.746 113.289 225.044 113.291 225.355Z" fill="#F6605D"/>
<path d="M123.785 265.508C123.785 265.741 123.716 265.969 123.587 266.163C123.458 266.357 123.275 266.508 123.061 266.597C122.846 266.686 122.611 266.709 122.383 266.663C122.156 266.617 121.948 266.504 121.784 266.339C121.621 266.173 121.51 265.963 121.466 265.734C121.421 265.505 121.445 265.268 121.535 265.052C121.624 264.837 121.775 264.654 121.969 264.525C122.162 264.397 122.389 264.329 122.621 264.33C122.774 264.33 122.926 264.36 123.068 264.42C123.209 264.479 123.338 264.566 123.446 264.675C123.554 264.785 123.64 264.915 123.698 265.058C123.756 265.2 123.786 265.354 123.785 265.508Z" fill="#F6605D"/>
<path d="M150.224 223.793C150.225 224.027 150.158 224.255 150.03 224.45C149.902 224.644 149.72 224.796 149.506 224.887C149.292 224.977 149.057 225.001 148.829 224.956C148.602 224.912 148.393 224.8 148.228 224.635C148.064 224.471 147.952 224.261 147.906 224.032C147.861 223.804 147.883 223.566 147.972 223.351C148.06 223.135 148.21 222.951 148.403 222.821C148.595 222.691 148.822 222.622 149.054 222.622C149.363 222.622 149.66 222.745 149.879 222.965C150.098 223.184 150.222 223.482 150.224 223.793Z" fill="#F6605D"/>
<path d="M220.666 195.309C220.664 195.54 220.595 195.766 220.466 195.958C220.338 196.149 220.155 196.299 219.943 196.386C219.73 196.474 219.496 196.496 219.271 196.45C219.045 196.404 218.839 196.292 218.676 196.128C218.514 195.964 218.404 195.755 218.36 195.528C218.315 195.301 218.339 195.066 218.427 194.852C218.515 194.639 218.665 194.456 218.856 194.328C219.047 194.199 219.272 194.131 219.502 194.131C219.655 194.131 219.807 194.161 219.949 194.22C220.09 194.28 220.219 194.367 220.327 194.476C220.435 194.586 220.521 194.715 220.579 194.858C220.637 195.001 220.666 195.154 220.666 195.309Z" fill="#F6605D"/>
<path d="M119.432 191C119.433 191.234 119.365 191.463 119.237 191.657C119.109 191.852 118.926 192.004 118.712 192.094C118.498 192.184 118.262 192.208 118.035 192.163C117.807 192.117 117.598 192.005 117.434 191.84C117.27 191.675 117.158 191.464 117.113 191.235C117.068 191.006 117.092 190.769 117.181 190.553C117.271 190.338 117.422 190.154 117.615 190.025C117.809 189.896 118.036 189.828 118.268 189.829C118.576 189.831 118.871 189.955 119.089 190.174C119.307 190.393 119.43 190.69 119.432 191Z" fill="#F6605D"/>
<path d="M148.981 172.218C148.983 172.451 148.915 172.679 148.787 172.874C148.66 173.069 148.477 173.221 148.263 173.311C148.05 173.401 147.814 173.425 147.587 173.381C147.359 173.336 147.15 173.224 146.986 173.06C146.821 172.895 146.709 172.685 146.664 172.457C146.618 172.228 146.641 171.991 146.729 171.775C146.817 171.56 146.967 171.375 147.16 171.245C147.353 171.116 147.579 171.046 147.811 171.046C148.12 171.046 148.417 171.17 148.636 171.389C148.856 171.609 148.98 171.907 148.981 172.218Z" fill="#F6605D"/>
<path d="M167.563 182.158C167.565 182.392 167.497 182.62 167.369 182.815C167.242 183.009 167.059 183.161 166.846 183.252C166.632 183.342 166.396 183.366 166.169 183.321C165.941 183.277 165.732 183.165 165.568 183C165.403 182.836 165.291 182.626 165.246 182.397C165.2 182.169 165.223 181.931 165.311 181.716C165.4 181.5 165.55 181.316 165.742 181.186C165.935 181.056 166.161 180.987 166.393 180.987C166.702 180.987 166.999 181.11 167.218 181.33C167.438 181.549 167.562 181.847 167.563 182.158Z" fill="#F6605D"/>
<path d="M134.982 351.279C134.984 351.513 134.916 351.742 134.788 351.936C134.66 352.131 134.477 352.283 134.263 352.373C134.049 352.463 133.813 352.487 133.585 352.442C133.358 352.396 133.148 352.284 132.984 352.119C132.82 351.954 132.709 351.743 132.664 351.514C132.619 351.285 132.643 351.048 132.732 350.832C132.821 350.617 132.972 350.433 133.166 350.304C133.359 350.175 133.587 350.107 133.819 350.108C134.127 350.108 134.423 350.231 134.642 350.451C134.86 350.671 134.982 350.969 134.982 351.279Z" fill="#F6605D"/>
<path d="M266.338 168.796C266.339 169.029 266.272 169.258 266.144 169.452C266.016 169.647 265.834 169.799 265.62 169.889C265.406 169.979 265.171 170.004 264.943 169.959C264.716 169.914 264.507 169.803 264.342 169.638C264.178 169.474 264.066 169.264 264.02 169.035C263.974 168.806 263.997 168.569 264.086 168.354C264.174 168.138 264.324 167.953 264.517 167.824C264.709 167.694 264.936 167.625 265.167 167.625C265.477 167.625 265.773 167.748 265.993 167.967C266.212 168.187 266.336 168.485 266.338 168.796Z" fill="#F6605D"/>
<path d="M249.045 186.229C249.045 186.46 248.977 186.687 248.849 186.879C248.721 187.072 248.539 187.222 248.327 187.311C248.114 187.399 247.88 187.423 247.654 187.377C247.428 187.332 247.221 187.221 247.058 187.057C246.895 186.893 246.785 186.684 246.74 186.457C246.695 186.23 246.718 185.994 246.806 185.78C246.894 185.566 247.043 185.383 247.235 185.255C247.426 185.126 247.651 185.057 247.881 185.057C248.19 185.057 248.486 185.181 248.704 185.4C248.922 185.62 249.045 185.918 249.045 186.229Z" fill="#F6605D"/>
<path opacity="0.19" d="M289.529 367.792C289.529 369.288 282.954 370.505 274.807 370.505C266.66 370.505 260.091 369.288 260.091 367.792C260.091 366.296 266.667 365.078 274.807 365.078C282.947 365.078 289.529 366.296 289.529 367.792Z" fill="black"/>
<path opacity="0.19" d="M222.349 383.444C222.349 384.94 215.774 386.157 207.634 386.157C199.493 386.157 192.918 384.94 192.918 383.444C192.918 381.948 199.493 380.73 207.64 380.73C215.787 380.73 222.349 381.948 222.349 383.444Z" fill="black"/>
<path opacity="0.19" d="M190.629 384.073C190.629 385.568 184.054 386.786 175.907 386.786C167.76 386.786 161.185 385.568 161.185 384.073C161.185 382.577 167.76 381.359 175.907 381.359C184.054 381.359 190.629 382.564 190.629 384.073Z" fill="black"/>
<path d="M122.154 315.356C123.476 316.727 124.997 317.89 126.664 318.804C129.295 320.207 128.841 325.376 128.065 328.506C127.289 331.637 123.863 331.948 119.668 331.815C115.473 331.683 99.9423 329.936 96.03 332.596C92.1176 335.257 126.04 346.058 126.04 346.058L147.66 340.869C147.66 340.869 135.995 338.367 134.285 333.357C132.576 328.347 132.727 325.998 133.818 323.966C134.91 321.934 138.171 320.207 141.281 320.207C144.392 320.207 122.154 315.356 122.154 315.356Z" fill="#914004"/>
<path d="M269.626 345.25C269.626 345.25 272.013 343.794 272.841 343.688C273.67 343.582 275.018 345.879 275.018 345.879C275.25 345.151 275.563 344.451 275.951 343.794C276.57 342.749 278.851 345.462 278.851 345.462C278.851 345.462 279.062 343.477 279.371 343.377C279.68 343.278 282.277 345.879 282.277 345.879L279.785 349.115C279.785 349.115 271.802 349.737 271.388 349.426C270.974 349.115 269.626 345.25 269.626 345.25Z" fill="#343057"/>
<path d="M270.336 344.218C270.336 344.218 256.87 346.203 260.664 359.095C264.457 371.988 283.677 370.148 288.385 364.622C293.093 359.095 295.835 349.486 281.455 344.615C281.04 344.892 280.694 345.263 280.444 345.696C280.195 346.13 280.048 346.616 280.015 347.117C279.298 346.264 278.399 345.585 277.385 345.131C276.508 345.795 275.793 346.65 275.294 347.633C275.294 347.633 275.688 346.183 273.203 344.985C273.203 344.985 271.368 345.647 270.849 346.971L270.336 344.218Z" fill="#605A8F"/>
<path opacity="0.45" d="M284.552 358.923C280.751 367.884 269.33 367.031 263.596 364.218C270.303 371.266 284.44 369.228 288.385 364.595C292.988 359.155 295.736 349.77 282.112 344.827L282.066 345.019L281.455 344.588C281.455 344.588 288.497 349.638 284.552 358.923Z" fill="#343057"/>
<path opacity="0.16" d="M263.202 352.782C263.202 352.782 263.977 349.962 266.154 349.022C266.67 348.77 267.24 348.65 267.813 348.674C268.386 348.698 268.944 348.864 269.438 349.159C269.931 349.453 270.344 349.867 270.64 350.361C270.935 350.856 271.104 351.417 271.131 351.994C271.441 354.813 270.816 357.474 268.639 359.512C266.463 361.551 261.176 359.181 263.202 352.782Z" fill="#E0E6FF"/>
<path opacity="0.19" d="M173.626 178.088C179.295 178.088 183.89 177.179 183.89 176.056C183.89 174.934 179.295 174.025 173.626 174.025C167.957 174.025 163.362 174.934 163.362 176.056C163.362 177.179 167.957 178.088 173.626 178.088Z" fill="black"/>
<path opacity="0.19" d="M250.781 171.986C250.781 173.111 246.178 174.018 240.517 174.018C234.855 174.018 230.252 173.111 230.252 171.986C230.252 170.861 234.855 169.948 240.517 169.948C246.178 169.948 250.781 170.861 250.781 171.986Z" fill="black"/>
<path opacity="0.19" d="M201.775 199.683C208.733 199.683 214.373 198.563 214.373 197.182C214.373 195.8 208.733 194.68 201.775 194.68C194.817 194.68 189.176 195.8 189.176 197.182C189.176 198.563 194.817 199.683 201.775 199.683Z" fill="black"/>
<path opacity="0.19" d="M124.639 171.199C131.597 171.199 137.238 170.079 137.238 168.697C137.238 167.315 131.597 166.195 124.639 166.195C117.681 166.195 112.041 167.315 112.041 168.697C112.041 170.079 117.681 171.199 124.639 171.199Z" fill="black"/>
<path opacity="0.19" d="M212.19 170.888C217.514 170.888 221.83 170.467 221.83 169.948C221.83 169.429 217.514 169.008 212.19 169.008C206.867 169.008 202.551 169.429 202.551 169.948C202.551 170.467 206.867 170.888 212.19 170.888Z" fill="black"/>
<path d="M169.904 150.749C169.904 150.749 167.682 150.49 167.162 150.49C166.643 150.49 166.952 153.356 166.952 153.356C165.979 153.157 164.992 153.035 163.999 152.992C163.585 153.098 163.427 156.123 163.427 156.123C162.33 155.846 161.349 155.224 160.626 154.349C160.614 155.676 160.685 157.002 160.837 158.32C161.041 159.313 164.986 159.677 165.242 159.471C165.499 159.266 171.818 154.177 171.818 154.044C171.818 153.912 169.904 150.749 169.904 150.749Z" fill="#343057"/>
<path d="M160.613 154.349C160.613 154.349 160.771 156.698 158.437 160.61C156.102 164.521 156.569 171.252 162.014 175.011C167.458 178.77 178.656 177.043 184.409 170.63C190.163 164.217 187.697 155.13 182.7 151.999C177.702 148.869 171.811 151.219 169.634 149.809C169.337 150.687 169.145 151.598 169.062 152.522C169.062 153.515 167.405 152.681 166.11 152.681C165.784 153.667 165.542 154.679 165.387 155.706C165.334 156.645 163.158 155.289 162.533 155.183C161.908 155.077 162.428 155.97 161.757 157.221C161.086 158.472 160.613 154.349 160.613 154.349Z" fill="#605A8F"/>
<path opacity="0.45" d="M182.7 151.999C179.379 149.915 175.651 150.259 172.883 150.305L172.692 150.438C186.066 151.999 184.528 170.888 171.66 173.912C163.46 175.838 159.732 172.456 158.068 170.266C158.917 172.187 160.284 173.831 162.014 175.011C167.458 178.77 178.656 177.043 184.409 170.63C190.163 164.217 187.657 155.13 182.7 151.999Z" fill="#343057"/>
<path d="M202.242 146.473C202.242 146.473 204.622 145.011 205.45 144.905C206.279 144.799 207.633 147.095 207.633 147.095C207.866 146.368 208.177 145.669 208.561 145.011C209.218 143.965 211.467 146.678 211.467 146.678C211.467 146.678 211.671 144.693 211.986 144.594C212.302 144.494 214.886 147.095 214.886 147.095L212.401 150.332C212.401 150.332 204.418 150.993 204.004 150.643C203.59 150.292 202.242 146.473 202.242 146.473Z" fill="#343057"/>
<path d="M202.952 145.441C202.952 145.441 189.479 147.426 193.273 160.312C197.067 173.197 216.287 171.371 220.995 165.838C225.703 160.305 228.425 150.702 214.064 145.838C213.654 146.116 213.312 146.486 213.066 146.919C212.819 147.352 212.675 147.835 212.644 148.333C211.924 147.484 211.025 146.806 210.014 146.347C209.138 147.011 208.423 147.866 207.923 148.849C207.923 148.849 208.311 147.4 205.825 146.202C205.825 146.202 203.997 146.864 203.471 148.187L202.952 145.441Z" fill="#605A8F"/>
<path opacity="0.45" d="M217.168 160.14C213.367 169.101 201.939 168.247 196.206 165.487C202.919 172.536 217.049 170.497 220.995 165.864C225.63 160.424 228.352 151.04 214.728 146.102L214.682 146.294L214.064 145.871C214.064 145.871 221.106 150.854 217.168 160.14Z" fill="#343057"/>
<path d="M126.816 285.931C127.931 285.931 128.835 285.022 128.835 283.9C128.835 282.778 127.931 281.868 126.816 281.868C125.701 281.868 124.797 282.778 124.797 283.9C124.797 285.022 125.701 285.931 126.816 285.931Z" fill="#D72F5D"/>
<path d="M142.367 288.433C143.482 288.433 144.385 287.524 144.385 286.401C144.385 285.279 143.482 284.37 142.367 284.37C141.252 284.37 140.348 285.279 140.348 286.401C140.348 287.524 141.252 288.433 142.367 288.433Z" fill="#F6605D"/>
<path d="M104.427 340.71C105.542 340.71 106.445 339.801 106.445 338.679C106.445 337.556 105.542 336.647 104.427 336.647C103.312 336.647 102.408 337.556 102.408 338.679C102.408 339.801 103.312 340.71 104.427 340.71Z" fill="#F6605D"/>
<path d="M147.811 285.462C147.812 285.695 147.745 285.924 147.616 286.119C147.488 286.313 147.306 286.465 147.092 286.555C146.877 286.645 146.642 286.669 146.414 286.624C146.186 286.579 145.977 286.466 145.813 286.301C145.649 286.136 145.537 285.926 145.492 285.697C145.447 285.467 145.471 285.23 145.561 285.014C145.65 284.799 145.801 284.615 145.994 284.486C146.188 284.357 146.415 284.289 146.647 284.29C146.8 284.29 146.951 284.321 147.093 284.379C147.234 284.438 147.362 284.525 147.47 284.633C147.578 284.742 147.664 284.871 147.722 285.013C147.781 285.156 147.811 285.308 147.811 285.462Z" fill="#F6605D"/>
<path d="M128.762 344.39C128.763 344.624 128.696 344.852 128.568 345.047C128.44 345.242 128.257 345.394 128.043 345.484C127.829 345.574 127.593 345.598 127.365 345.552C127.137 345.507 126.928 345.395 126.764 345.23C126.6 345.064 126.489 344.854 126.444 344.625C126.399 344.396 126.422 344.158 126.512 343.943C126.601 343.727 126.752 343.543 126.946 343.414C127.139 343.285 127.366 343.217 127.598 343.219C127.906 343.22 128.202 343.344 128.419 343.564C128.637 343.783 128.76 344.08 128.762 344.39Z" fill="#F6605D"/>
<path d="M166.084 311.213C166.084 311.446 166.015 311.674 165.886 311.868C165.757 312.062 165.574 312.213 165.36 312.302C165.146 312.391 164.91 312.414 164.683 312.368C164.456 312.322 164.247 312.209 164.084 312.044C163.92 311.878 163.809 311.668 163.765 311.439C163.72 311.21 163.745 310.973 163.834 310.758C163.924 310.542 164.075 310.359 164.268 310.23C164.461 310.102 164.688 310.034 164.92 310.035C165.074 310.035 165.225 310.065 165.367 310.125C165.509 310.184 165.637 310.271 165.745 310.38C165.854 310.49 165.939 310.62 165.997 310.763C166.055 310.906 166.085 311.059 166.084 311.213Z" fill="#F6605D"/>
<path d="M135.055 308.003C135.055 308.236 134.986 308.464 134.857 308.658C134.729 308.851 134.546 309.002 134.332 309.092C134.118 309.181 133.883 309.204 133.656 309.159C133.429 309.113 133.22 309.001 133.057 308.836C132.893 308.671 132.782 308.462 132.736 308.233C132.691 308.005 132.714 307.768 132.803 307.552C132.892 307.337 133.042 307.153 133.234 307.024C133.427 306.894 133.653 306.825 133.884 306.825C134.195 306.825 134.492 306.949 134.712 307.17C134.931 307.391 135.055 307.691 135.055 308.003Z" fill="#F6605D"/>
<path opacity="0.16" d="M165.854 167.135C165.854 169.207 164.387 170.888 162.566 170.888C160.745 170.888 159.278 169.207 159.278 167.135C159.278 165.064 160.745 163.376 162.566 163.376C164.387 163.376 165.854 165.057 165.854 167.135Z" fill="#E0E6FF"/>
<path opacity="0.16" d="M163.414 160.716C163.415 160.944 163.349 161.167 163.224 161.358C163.099 161.548 162.92 161.697 162.711 161.785C162.502 161.873 162.271 161.896 162.048 161.852C161.826 161.808 161.621 161.698 161.461 161.536C161.301 161.375 161.192 161.169 161.148 160.945C161.104 160.721 161.127 160.489 161.214 160.278C161.302 160.068 161.449 159.888 161.639 159.762C161.828 159.636 162.05 159.569 162.277 159.571C162.426 159.571 162.574 159.6 162.712 159.658C162.85 159.715 162.975 159.8 163.081 159.906C163.187 160.012 163.27 160.138 163.328 160.277C163.385 160.416 163.414 160.565 163.414 160.716Z" fill="#E0E6FF"/>
<path opacity="0.16" d="M194.233 154.766C194.233 154.766 194.89 151.166 196.863 149.657C198.836 148.148 201.939 147.883 201.893 151.53C201.847 155.176 200.749 157.168 201.472 160.299C202.196 163.429 198.467 164.316 196.81 162.8C195.153 161.285 193.575 158.942 194.233 154.766Z" fill="#E0E6FF"/>
<path d="M231.371 148.975C231.371 148.975 233.547 147.413 234.172 147.512C235.192 147.83 236.07 148.494 236.657 149.392C236.657 149.392 238.419 146.996 239.044 146.996C239.669 146.996 241.115 149.187 241.115 149.187L241.431 147.512C242.285 148.027 242.915 148.847 243.193 149.809C243.607 151.377 241.01 153.462 241.01 153.462C241.01 153.462 235.309 155.759 234.895 155.553C234.481 155.348 231.371 148.975 231.371 148.975Z" fill="#343057"/>
<path d="M231.791 148.062C231.791 148.062 218.325 150.047 222.119 162.933C225.913 175.818 245.133 173.985 249.841 168.459C254.549 162.933 257.291 153.323 242.891 148.452C242.483 148.729 242.143 149.096 241.897 149.525C241.651 149.954 241.505 150.433 241.47 150.927C240.754 150.074 239.854 149.395 238.84 148.942C237.966 149.608 237.252 150.463 236.749 151.443C236.749 151.443 237.144 149.994 234.658 148.796C234.658 148.796 232.824 149.458 232.304 150.782L231.791 148.062Z" fill="#605A8F"/>
<path opacity="0.45" d="M250.307 152.476C251.675 157.181 249.794 165.269 241.273 168.538C234.303 171.185 227.03 168.598 224.571 167.539C231.061 175.229 245.796 173.204 249.84 168.459C253.463 164.21 255.909 157.545 250.307 152.476Z" fill="#343057"/>
<path opacity="0.16" d="M225.512 152.542C226.353 151.965 227.379 151.729 228.385 151.88C229.865 152.205 231.213 153.905 229.76 156.195C228.306 158.485 226.012 162.496 224.085 161.033C222.158 159.571 222.31 158.009 223.184 155.646C223.709 154.443 224.506 153.38 225.512 152.542Z" fill="#E0E6FF"/>
<path d="M224.479 164.316C224.479 164.316 216.55 163.535 213.124 169.948C209.698 176.361 211.414 184.19 217.634 187.321C223.855 190.451 232.1 190.921 237.071 184.673C242.042 178.426 243.758 165.726 224.479 164.316Z" fill="#605A8F"/>
<path d="M222.665 164.369C222.665 164.369 224.578 165.692 224.841 166.923C224.841 166.923 226.445 165.931 227.642 166.142C228.839 166.354 229.45 168.227 229.45 168.227C229.45 168.227 231.476 166.242 232.409 166.903C233.343 167.565 234.014 168.73 233.862 168.677C233.711 168.624 234.066 166.798 234.842 167.009C234.842 167.009 234.185 164.296 232.981 164.455C232.218 164.573 231.5 164.895 230.903 165.388C230.746 164.607 230.337 163.899 229.74 163.376C228.859 162.714 226.991 164.574 226.991 164.574C226.603 163.86 226.031 163.266 225.334 162.853C224.322 162.33 222.665 164.369 222.665 164.369Z" fill="#343057"/>
<path opacity="0.45" d="M238.801 170.471C238.945 171.444 239.879 179.339 231.713 183.826C222.954 188.631 213.959 181.43 212.901 179.604C212.771 179.379 212.574 179.201 212.338 179.096C212.101 178.992 211.838 178.965 211.585 179.021C212.407 182.575 214.479 185.726 217.654 187.321C223.875 190.451 232.12 190.921 237.091 184.673C240.017 180.961 241.819 175.011 238.801 170.471Z" fill="#343057"/>
<path d="M197.764 171.722C197.764 171.722 187.565 171.199 184.166 179.617C180.766 188.035 184.429 198.049 198.941 198.181C213.452 198.313 215.931 189.227 215.681 183.568C215.432 177.91 210.323 171.199 197.764 171.722Z" fill="#605A8F"/>
<path d="M195.292 176.738C195.292 176.738 195.193 173.919 196.541 174.753C197.229 175.144 197.856 175.634 198.402 176.209C198.402 176.209 198.921 174.958 199.717 174.753C200.513 174.547 200.808 177.254 200.808 177.254C200.808 177.254 202.88 176.109 203.61 176.731C204.339 177.354 202.676 178.717 202.676 178.717C202.676 178.717 203.813 179.24 202.88 179.968C201.946 180.696 202.676 182.469 200.598 182.469C200.338 182.491 200.077 182.453 199.834 182.359C199.591 182.265 199.372 182.118 199.193 181.927C199.015 181.736 198.881 181.508 198.802 181.258C198.723 181.008 198.701 180.744 198.737 180.484C198.737 180.484 197.179 182.258 196.14 181.523C195.101 180.788 195.417 179.332 195.417 179.332C195.019 179.323 194.63 179.214 194.285 179.014C193.94 178.813 193.651 178.529 193.444 178.187C192.806 177.043 195.292 176.738 195.292 176.738Z" fill="#343057"/>
<path opacity="0.45" d="M215.682 183.568C215.64 182.726 215.497 181.893 215.254 181.086C215.412 185.229 213.611 192.999 202.551 195.408C191.78 197.79 185.317 192.019 184.258 190.98C186.323 195.084 191.005 198.108 198.941 198.181C213.459 198.307 215.932 189.227 215.682 183.568Z" fill="#343057"/>
<path opacity="0.16" d="M185.448 182.106C185.87 180.875 186.739 179.851 187.881 179.24C189.643 178.452 192.287 179.187 192.484 182.628C192.681 186.07 193.312 191.894 190.255 191.861C187.197 191.828 186.185 190.094 185.33 187.01C184.989 185.388 185.029 183.709 185.448 182.106Z" fill="#E0E6FF"/>
<path opacity="0.19" d="M237.696 317.706C243.978 317.706 249.071 316.692 249.071 315.442C249.071 314.192 243.978 313.179 237.696 313.179C231.413 313.179 226.32 314.192 226.32 315.442C226.32 316.692 231.413 317.706 237.696 317.706Z" fill="black"/>
<path d="M238.012 292.166C238.012 292.166 228.806 291.69 225.729 299.3C222.652 306.911 225.966 315.939 239.07 316.058C252.175 316.177 254.424 307.977 254.194 302.868C253.964 297.758 249.348 291.69 238.012 292.166Z" fill="#605A8F"/>
<path d="M235.776 296.693C235.776 296.693 235.684 294.145 236.9 294.899C237.523 295.255 238.09 295.701 238.584 296.223C238.584 296.223 239.057 295.091 239.8 294.899C240.543 294.707 240.74 297.163 240.74 297.163C240.74 297.163 242.614 296.124 243.265 296.693C243.916 297.262 242.424 298.48 242.424 298.48C242.424 298.48 243.456 298.95 242.614 299.611C241.773 300.273 242.424 301.875 240.55 301.875C240.315 301.893 240.08 301.858 239.861 301.772C239.642 301.687 239.445 301.554 239.283 301.382C239.122 301.21 239.001 301.004 238.929 300.779C238.857 300.554 238.835 300.316 238.866 300.081C238.866 300.081 237.466 301.683 236.526 301.028C236.249 300.787 236.042 300.475 235.926 300.126C235.811 299.776 235.791 299.402 235.868 299.042C235.509 299.033 235.158 298.933 234.848 298.751C234.538 298.57 234.278 298.312 234.093 298.003C233.527 296.971 235.776 296.693 235.776 296.693Z" fill="#343057"/>
<path opacity="0.45" d="M254.187 302.867C254.152 302.104 254.024 301.349 253.805 300.617C253.944 304.363 252.319 311.352 242.331 313.562C232.607 315.707 226.768 310.498 225.808 309.558C227.675 313.265 231.91 315.991 239.07 316.057C252.181 316.177 254.424 307.977 254.187 302.867Z" fill="#343057"/>
<path opacity="0.16" d="M226.886 301.544C227.264 300.429 228.049 299.502 229.082 298.949C230.674 298.248 233.06 298.903 233.251 302.014C233.442 305.124 234.001 310.405 231.239 310.353C228.477 310.3 227.563 308.758 226.787 305.971C226.479 304.508 226.513 302.992 226.886 301.544Z" fill="#E0E6FF"/>
<path opacity="0.16" d="M219.581 174.223C218.772 176.129 216.767 177.095 215.11 176.381C213.453 175.666 212.769 173.542 213.578 171.635C214.386 169.729 216.392 168.757 218.049 169.471C219.706 170.186 220.39 172.311 219.581 174.223Z" fill="#E0E6FF"/>
<path opacity="0.16" d="M220.784 167.982C220.695 168.192 220.547 168.371 220.357 168.495C220.167 168.62 219.945 168.685 219.719 168.682C219.492 168.679 219.271 168.609 219.085 168.48C218.898 168.351 218.753 168.169 218.669 167.957C218.585 167.746 218.566 167.514 218.613 167.291C218.66 167.068 218.772 166.864 218.935 166.705C219.097 166.546 219.303 166.439 219.525 166.398C219.748 166.357 219.978 166.383 220.186 166.473C220.464 166.594 220.682 166.821 220.795 167.104C220.907 167.386 220.903 167.702 220.784 167.982Z" fill="#E0E6FF"/>
<path d="M194.93 364.35C194.93 364.35 197.422 360.28 198.664 360.28C199.48 360.306 200.278 360.518 200.999 360.902C200.999 360.902 201.926 358.738 203.175 358.738C204.424 358.738 206.752 360.148 206.752 360.148L206.285 366.104L194.93 364.35Z" fill="#343057"/>
<path d="M195.778 361.518C195.778 361.518 183.239 366.852 190.149 378.368C197.06 389.883 215.195 383.206 218.358 376.66C221.52 370.115 221.77 360.115 206.627 359.069C206.296 359.444 206.056 359.89 205.923 360.373C205.791 360.856 205.771 361.363 205.865 361.855C204.961 361.219 203.928 360.794 202.84 360.611C202.159 361.476 201.682 362.485 201.446 363.563C201.446 363.563 201.446 362.061 198.757 361.577C198.757 361.577 197.152 362.676 196.975 364.086L195.778 361.518Z" fill="#605A8F"/>
<path opacity="0.16" d="M192.661 371.194C192.661 371.194 193.279 368.957 195.009 368.209C195.418 368.011 195.87 367.918 196.324 367.938C196.778 367.958 197.22 368.091 197.611 368.325C198.001 368.559 198.328 368.886 198.563 369.278C198.797 369.67 198.931 370.115 198.954 370.571C199.129 371.651 199.041 372.757 198.697 373.795C198.354 374.832 197.765 375.77 196.981 376.528C195.258 378.163 191.057 376.296 192.661 371.194Z" fill="#E0E6FF"/>
<path d="M180.424 360.598C180.424 360.598 178.846 358.996 178.452 358.672C178.057 358.348 176.512 360.783 176.512 360.783C175.874 360.015 175.177 359.298 174.428 358.639C174.04 358.46 172.041 360.724 172.041 360.724C171.353 359.82 170.973 358.718 170.956 357.58C170.124 358.607 169.358 359.686 168.661 360.81C168.207 361.716 171.055 364.476 171.39 364.476C171.725 364.476 179.8 364.476 179.898 364.377C179.997 364.278 180.424 360.598 180.424 360.598Z" fill="#343057"/>
<path d="M170.956 357.58C170.956 357.58 169.641 359.513 165.374 361.101C161.106 362.689 157.312 368.242 159.232 374.602C161.152 380.962 170.969 386.647 179.445 385.251C187.921 383.854 191.603 375.198 189.663 369.625C187.723 364.053 181.641 362.173 180.819 359.698C180.043 360.198 179.327 360.789 178.689 361.458C178.071 362.233 177.295 360.538 176.282 359.724C175.415 360.287 174.599 360.925 173.843 361.63C173.185 362.332 172.357 359.903 171.936 359.433C171.515 358.963 171.37 359.976 170.069 360.532C168.767 361.088 170.956 357.58 170.956 357.58Z" fill="#605A8F"/>
<path opacity="0.16" d="M162.783 365.303C162.783 365.303 164.499 363.04 166.814 362.98C167.372 362.941 167.93 363.041 168.44 363.272C168.95 363.503 169.395 363.858 169.735 364.304C170.075 364.751 170.3 365.275 170.389 365.831C170.478 366.387 170.429 366.956 170.246 367.487C169.516 370.135 167.991 372.339 165.288 373.384C162.586 374.43 158.641 370.38 162.783 365.303Z" fill="#E0E6FF"/>
<path opacity="0.45" d="M182.023 364.82C184.357 368.573 185.757 375.621 179.393 380.155C173.843 384.125 164.269 380.115 161.909 379.016C165.854 383.298 173.034 386.296 179.458 385.251C187.927 383.854 191.616 375.198 189.676 369.625C187.737 364.053 181.654 362.173 180.833 359.698C180.819 359.704 179.688 361.061 182.023 364.82Z" fill="#343057"/>
<path opacity="0.45" d="M192.872 381.571C200.946 388.374 215.55 382.471 218.358 376.66C221.336 370.512 221.731 361.333 209.231 359.36C212.335 360.022 217.023 362.305 216.392 369.83C215.471 380.764 201.61 384.873 192.872 381.571Z" fill="#343057"/>
<path d="M122.075 146.215C122.075 146.215 109.358 145.838 107.116 156.751C104.874 167.665 116.834 174.091 130.676 167.287C144.517 160.484 140.019 143.204 122.075 146.215Z" fill="#605A8F"/>
<path d="M121.135 147.281C121.135 147.281 121.884 143.971 121.016 142.648C120.148 141.324 121.575 140.96 122.2 141.02C122.825 141.079 123.134 144.66 122.509 145.977C121.884 147.294 121.759 148.22 121.135 147.281Z" fill="#343057"/>
<path opacity="0.45" d="M134.023 147.876C136.061 150.98 136.758 159.868 128.059 165.785C119.669 171.49 110.226 166.5 109.26 165.957C113.205 170.491 121.529 171.768 130.676 167.281C140.565 162.443 141.084 152.251 134.023 147.876Z" fill="#343057"/>
<path opacity="0.16" d="M109.792 154.647C109.792 154.647 110.66 152.383 112.534 151.788C112.98 151.622 113.46 151.57 113.931 151.636C114.402 151.703 114.849 151.886 115.232 152.17C115.615 152.453 115.923 152.828 116.127 153.26C116.331 153.692 116.425 154.169 116.401 154.647C116.401 156.996 115.697 159.14 113.77 160.643C111.844 162.145 107.603 159.776 109.792 154.647Z" fill="#E0E6FF"/>
<path opacity="0.18" d="M210.329 314.264C210.329 315.297 209.073 316.144 207.528 316.144C205.983 316.144 204.753 315.297 204.753 314.264C204.753 313.232 206.009 312.385 207.555 312.385C209.1 312.385 210.329 313.225 210.329 314.264Z" fill="#CC562A"/>
<path opacity="0.18" d="M100.225 300.174C101.772 300.174 103.027 299.332 103.027 298.294C103.027 297.256 101.772 296.415 100.225 296.415C98.6784 296.415 97.4243 297.256 97.4243 298.294C97.4243 299.332 98.6784 300.174 100.225 300.174Z" fill="#CC562A"/>
<path opacity="0.34" d="M182.956 355.27C182.956 356.309 181.7 357.15 180.155 357.15C178.61 357.15 177.36 356.309 177.36 355.27C177.36 354.231 178.61 353.391 180.155 353.391C181.7 353.391 182.956 354.231 182.956 355.27Z" fill="#CC562A"/>
<path opacity="0.28" d="M261.019 308.943C262.566 308.943 263.82 308.101 263.82 307.063C263.82 306.025 262.566 305.184 261.019 305.184C259.472 305.184 258.218 306.025 258.218 307.063C258.218 308.101 259.472 308.943 261.019 308.943Z" fill="#CC562A"/>
<path opacity="0.38" d="M199.749 276.673C199.749 277.705 198.5 278.552 196.955 278.552C195.41 278.552 194.154 277.705 194.154 276.673C194.154 275.64 195.403 274.793 196.955 274.793C198.507 274.793 199.749 275.66 199.749 276.673Z" fill="#CC562A"/>
<path opacity="0.38" d="M183.89 226.295C183.89 227.334 182.634 228.175 181.089 228.175C179.544 228.175 178.294 227.334 178.294 226.295C178.294 225.256 179.544 224.422 181.089 224.422C182.634 224.422 183.89 225.263 183.89 226.295Z" fill="#CC562A"/>
<path opacity="0.38" d="M256.982 220.663C256.982 221.702 255.726 222.543 254.18 222.543C252.635 222.543 251.379 221.702 251.379 220.663C251.379 219.624 252.635 218.783 254.18 218.783C255.726 218.783 256.982 219.624 256.982 220.663Z" fill="#CC562A"/>
<path opacity="0.21" d="M103.026 184.349C104.573 184.349 105.827 183.507 105.827 182.469C105.827 181.431 104.573 180.59 103.026 180.59C101.479 180.59 100.225 181.431 100.225 182.469C100.225 183.507 101.479 184.349 103.026 184.349Z" fill="#CC562A"/>
<path opacity="0.21" d="M253.871 196.248C253.871 197.281 252.615 198.121 251.07 198.121C249.525 198.121 248.269 197.281 248.269 196.248C248.269 195.216 249.525 194.369 251.07 194.369C252.615 194.369 253.871 195.209 253.871 196.248Z" fill="#CC562A"/>
<path opacity="0.41" d="M281.862 191.861C281.862 192.9 280.607 193.74 279.061 193.74C277.516 193.74 276.26 192.9 276.26 191.861C276.26 190.822 277.516 189.975 279.055 189.975C280.593 189.975 281.862 190.828 281.862 191.861Z" fill="#CC562A"/>
<path opacity="0.21" d="M132.425 177.618C132.425 178.227 131.695 178.717 130.788 178.717C129.88 178.717 129.137 178.227 129.137 177.618C129.137 177.009 129.867 176.526 130.768 176.526C131.669 176.526 132.425 177.016 132.425 177.618Z" fill="#CC562A"/>
<path opacity="0.21" d="M151.309 162.277C151.309 162.886 150.579 163.376 149.679 163.376C148.778 163.376 148.048 162.886 148.048 162.277C148.048 161.668 148.778 161.185 149.679 161.185C150.579 161.185 151.309 161.675 151.309 162.277Z" fill="#CC562A"/>
<path opacity="0.21" d="M106.524 172.138C106.524 172.747 105.794 173.237 104.894 173.237C103.993 173.237 103.256 172.747 103.256 172.138C103.256 171.53 103.993 171.046 104.894 171.046C105.794 171.046 106.524 171.536 106.524 172.138Z" fill="#CC562A"/>
<path opacity="0.21" d="M118.656 174.958C118.656 175.567 117.926 176.056 117.019 176.056C116.111 176.056 115.388 175.567 115.388 174.958C115.388 174.349 116.118 173.866 117.019 173.866C117.92 173.866 118.656 174.355 118.656 174.958Z" fill="#CC562A"/>
<path opacity="0.21" d="M156.911 158.684C156.911 159.286 156.181 159.776 155.274 159.776C154.366 159.776 153.643 159.286 153.643 158.684C153.643 158.082 154.373 157.585 155.274 157.585C156.175 157.585 156.911 158.075 156.911 158.684Z" fill="#CC562A"/>
<path opacity="0.38" d="M170.515 240.385C172.062 240.385 173.317 239.544 173.317 238.506C173.317 237.467 172.062 236.626 170.515 236.626C168.968 236.626 167.714 237.467 167.714 238.506C167.714 239.544 168.968 240.385 170.515 240.385Z" fill="#CC562A"/>
<path opacity="0.38" d="M269.731 245.395C269.731 246.428 268.475 247.268 266.93 247.268C265.385 247.268 264.129 246.428 264.129 245.395C264.129 244.363 265.385 243.516 266.93 243.516C268.475 243.516 269.731 244.356 269.731 245.395Z" fill="#CC562A"/>
<path opacity="0.38" d="M195.706 356.839C195.706 357.871 194.457 358.712 192.911 358.712C191.366 358.712 190.11 357.871 190.11 356.839C190.11 355.806 191.366 354.959 192.911 354.959C194.457 354.959 195.706 355.8 195.706 356.839Z" fill="#CC562A"/>
<path opacity="0.16" d="M211.572 326.786C211.572 327.818 210.316 328.665 208.771 328.665C207.226 328.665 205.97 327.818 205.97 326.786C205.97 325.753 207.226 324.906 208.771 324.906C210.316 324.906 211.572 325.747 211.572 326.786Z" fill="#CC562A"/>
<path opacity="0.38" d="M256.666 267.93C258.213 267.93 259.467 267.089 259.467 266.05C259.467 265.012 258.213 264.171 256.666 264.171C255.119 264.171 253.865 265.012 253.865 266.05C253.865 267.089 255.119 267.93 256.666 267.93Z" fill="#CC562A"/>
<path opacity="0.38" d="M254.18 246.017C254.18 246.54 253.556 246.957 252.78 246.957C252.004 246.957 251.379 246.54 251.379 246.017C251.379 245.494 252.004 245.077 252.78 245.077C253.556 245.077 254.18 245.501 254.18 246.017Z" fill="#CC562A"/>
<path opacity="0.38" d="M201.617 354.959C202.39 354.959 203.017 354.538 203.017 354.019C203.017 353.5 202.39 353.08 201.617 353.08C200.843 353.08 200.216 353.5 200.216 354.019C200.216 354.538 200.843 354.959 201.617 354.959Z" fill="#CC562A"/>
<path opacity="0.38" d="M180.937 235.686C180.937 236.209 180.28 236.626 179.537 236.626C178.794 236.626 178.136 236.209 178.136 235.686C178.136 235.163 178.761 234.746 179.537 234.746C180.313 234.746 180.937 235.17 180.937 235.686Z" fill="#CC562A"/>
<path opacity="0.38" d="M247.96 271.378C248.734 271.378 249.361 270.957 249.361 270.438C249.361 269.919 248.734 269.499 247.96 269.499C247.187 269.499 246.56 269.919 246.56 270.438C246.56 270.957 247.187 271.378 247.96 271.378Z" fill="#CC562A"/>
<path opacity="0.38" d="M241.74 270.438C242.513 270.438 243.14 270.018 243.14 269.499C243.14 268.98 242.513 268.559 241.74 268.559C240.966 268.559 240.339 268.98 240.339 269.499C240.339 270.018 240.966 270.438 241.74 270.438Z" fill="#CC562A"/>
<path opacity="0.18" d="M201.617 321.147C202.39 321.147 203.017 320.726 203.017 320.207C203.017 319.688 202.39 319.267 201.617 319.267C200.843 319.267 200.216 319.688 200.216 320.207C200.216 320.726 200.843 321.147 201.617 321.147Z" fill="#CC562A"/>
<path opacity="0.18" d="M146.568 327.097C147.342 327.097 147.969 326.676 147.969 326.157C147.969 325.638 147.342 325.217 146.568 325.217C145.795 325.217 145.167 325.638 145.167 326.157C145.167 326.676 145.795 327.097 146.568 327.097Z" fill="#CC562A"/>
<path opacity="0.18" d="M111.732 312.384C112.506 312.384 113.133 311.964 113.133 311.445C113.133 310.926 112.506 310.505 111.732 310.505C110.959 310.505 110.332 310.926 110.332 311.445C110.332 311.964 110.959 312.384 111.732 312.384Z" fill="#CC562A"/>
<path opacity="0.18" d="M162.428 357.461C163.201 357.461 163.828 357.04 163.828 356.521C163.828 356.002 163.201 355.581 162.428 355.581C161.654 355.581 161.027 356.002 161.027 356.521C161.027 357.04 161.654 357.461 162.428 357.461Z" fill="#CC562A"/>
<path opacity="0.18" d="M180.004 308.003C180.004 308.519 179.346 308.943 178.603 308.943C177.86 308.943 177.203 308.519 177.203 308.003C177.203 307.487 177.86 307.063 178.603 307.063C179.346 307.063 180.004 307.48 180.004 308.003Z" fill="#CC562A"/>
<path opacity="0.18" d="M113.599 302.682C114.373 302.682 115 302.261 115 301.742C115 301.223 114.373 300.802 113.599 300.802C112.826 300.802 112.199 301.223 112.199 301.742C112.199 302.261 112.826 302.682 113.599 302.682Z" fill="#CC562A"/>
<path opacity="0.38" d="M212.506 273.569C213.279 273.569 213.906 273.148 213.906 272.629C213.906 272.11 213.279 271.689 212.506 271.689C211.732 271.689 211.105 272.11 211.105 272.629C211.105 273.148 211.732 273.569 212.506 273.569Z" fill="#CC562A"/>
<path opacity="0.38" d="M209.547 354.641C209.547 355.164 208.922 355.581 208.146 355.581C207.371 355.581 206.752 355.164 206.752 354.641C206.752 354.119 207.41 353.708 208.146 353.708C208.883 353.708 209.547 354.105 209.547 354.641Z" fill="#CC562A"/>
<path opacity="0.22" d="M107.537 302.993C107.537 303.509 106.879 303.933 106.136 303.933C105.393 303.933 104.736 303.509 104.736 302.993C104.736 302.477 105.393 302.053 106.136 302.053C106.879 302.053 107.537 302.484 107.537 302.993Z" fill="#CC562A"/>
<path opacity="0.22" d="M100.541 327.408C101.314 327.408 101.941 326.987 101.941 326.468C101.941 325.949 101.314 325.528 100.541 325.528C99.7672 325.528 99.1401 325.949 99.1401 326.468C99.1401 326.987 99.7672 327.408 100.541 327.408Z" fill="#CC562A"/>
<path opacity="0.18" d="M196.021 313.953C196.795 313.953 197.422 313.532 197.422 313.013C197.422 312.494 196.795 312.073 196.021 312.073C195.248 312.073 194.621 312.494 194.621 313.013C194.621 313.532 195.248 313.953 196.021 313.953Z" fill="#CC562A"/>
<path opacity="0.18" d="M224.48 324.595C225.253 324.595 225.88 324.174 225.88 323.655C225.88 323.136 225.253 322.715 224.48 322.715C223.706 322.715 223.079 323.136 223.079 323.655C223.079 324.174 223.706 324.595 224.48 324.595Z" fill="#CC562A"/>
<path opacity="0.38" d="M206.594 227.235C207.368 227.235 207.995 226.814 207.995 226.295C207.995 225.776 207.368 225.355 206.594 225.355C205.821 225.355 205.194 225.776 205.194 226.295C205.194 226.814 205.821 227.235 206.594 227.235Z" fill="#CC562A"/>
<path opacity="0.38" d="M267.219 217.222C267.219 217.738 266.595 218.161 265.825 218.161C265.056 218.161 264.425 217.738 264.425 217.222C264.425 216.705 265.082 216.282 265.825 216.282C266.568 216.282 267.219 216.699 267.219 217.222Z" fill="#CC562A"/>
<path opacity="0.38" d="M247.184 220.663C247.958 220.663 248.585 220.242 248.585 219.723C248.585 219.204 247.958 218.783 247.184 218.783C246.411 218.783 245.784 219.204 245.784 219.723C245.784 220.242 246.411 220.663 247.184 220.663Z" fill="#CC562A"/>
<path opacity="0.21" d="M110.489 179.968C111.263 179.968 111.89 179.547 111.89 179.028C111.89 178.509 111.263 178.088 110.489 178.088C109.716 178.088 109.089 178.509 109.089 179.028C109.089 179.547 109.716 179.968 110.489 179.968Z" fill="#CC562A"/>
<path opacity="0.21" d="M147.66 158.366C147.66 158.889 147.002 159.306 146.259 159.306C145.516 159.306 144.858 158.889 144.858 158.366C144.858 157.843 145.516 157.426 146.259 157.426C147.002 157.426 147.66 157.85 147.66 158.366Z" fill="#CC562A"/>
<path opacity="0.21" d="M259.158 193.429C259.931 193.429 260.558 193.008 260.558 192.489C260.558 191.97 259.931 191.55 259.158 191.55C258.384 191.55 257.757 191.97 257.757 192.489C257.757 193.008 258.384 193.429 259.158 193.429Z" fill="#CC562A"/>
<path opacity="0.38" d="M277.036 236.626C277.81 236.626 278.437 236.205 278.437 235.686C278.437 235.167 277.81 234.746 277.036 234.746C276.263 234.746 275.636 235.167 275.636 235.686C275.636 236.205 276.263 236.626 277.036 236.626Z" fill="#CC562A"/>
<path opacity="0.38" d="M216.083 230.683C216.083 231.199 215.425 231.616 214.682 231.616C213.939 231.616 213.282 231.199 213.282 230.683C213.282 230.167 213.906 229.743 214.682 229.743C215.458 229.743 216.083 230.16 216.083 230.683Z" fill="#CC562A"/>
<path opacity="0.38" d="M166.939 232.556C167.712 232.556 168.339 232.135 168.339 231.616C168.339 231.097 167.712 230.676 166.939 230.676C166.165 230.676 165.538 231.097 165.538 231.616C165.538 232.135 166.165 232.556 166.939 232.556Z" fill="#CC562A"/>
<path opacity="0.21" d="M122.779 181.53C122.779 182.053 122.121 182.47 121.378 182.47C120.635 182.47 119.978 182.053 119.978 181.53C119.978 181.007 120.635 180.597 121.378 180.597C122.121 180.597 122.779 181.014 122.779 181.53Z" fill="#CC562A"/>
</g>
<defs>
<linearGradient id="paint0_linear_259_1816" x1="375" y1="436" x2="-125.573" y2="402.685" gradientUnits="userSpaceOnUse">
<stop stop-color="#92A3FD"/>
<stop offset="1" stop-color="#9DCEFF"/>
</linearGradient>
<linearGradient id="paint1_linear_259_1816" x1="330.836" y1="330.902" x2="53.6966" y2="352.227" gradientUnits="userSpaceOnUse">
<stop stop-color="#D72F5D"/>
<stop offset="0.33" stop-color="#D83360"/>
<stop offset="0.64" stop-color="#DA3E68"/>
<stop offset="0.93" stop-color="#DD5077"/>
<stop offset="1" stop-color="#DE567B"/>
</linearGradient>
<linearGradient id="paint2_linear_259_1816" x1="4227.03" y1="28556.3" x2="111715" y2="28556.3" gradientUnits="userSpaceOnUse">
<stop stop-color="#D72F5D"/>
<stop offset="0.33" stop-color="#D83360"/>
<stop offset="0.64" stop-color="#DA3E68"/>
<stop offset="0.93" stop-color="#DD5077"/>
<stop offset="1" stop-color="#DE567B"/>
</linearGradient>
<linearGradient id="paint3_linear_259_1816" x1="87.2913" y1="340.988" x2="295.605" y2="340.988" gradientUnits="userSpaceOnUse">
<stop stop-color="#F0A82C"/>
<stop offset="0.31" stop-color="#EFA42C"/>
<stop offset="0.59" stop-color="#EB992C"/>
<stop offset="0.86" stop-color="#E6872C"/>
<stop offset="1" stop-color="#E27A2C"/>
</linearGradient>
<linearGradient id="paint4_linear_259_1816" x1="13621.1" y1="12042.4" x2="51070.1" y2="37264.3" gradientUnits="userSpaceOnUse">
<stop stop-color="#F0A82C"/>
<stop offset="0.31" stop-color="#EFA42C"/>
<stop offset="0.59" stop-color="#EB992C"/>
<stop offset="0.86" stop-color="#E6872C"/>
<stop offset="1" stop-color="#E27A2C"/>
</linearGradient>
<radialGradient id="paint5_radial_259_1816" cx="0" cy="0" r="1" gradientUnits="userSpaceOnUse" gradientTransform="translate(46775.4 9155.85) scale(22410.1 5650.2)">
<stop stop-color="#F0A82C"/>
<stop offset="0.31" stop-color="#EFA42C"/>
<stop offset="0.59" stop-color="#EB992C"/>
<stop offset="0.86" stop-color="#E6872C"/>
<stop offset="1" stop-color="#E27A2C"/>
</radialGradient>
<radialGradient id="paint6_radial_259_1816" cx="0" cy="0" r="1" gradientUnits="userSpaceOnUse" gradientTransform="translate(196.508 234.164) scale(75.794 76.2878)">
<stop stop-color="#E27A2C"/>
<stop offset="0.28" stop-color="#E4802C"/>
<stop offset="0.66" stop-color="#E9932C"/>
<stop offset="1" stop-color="#F0A82C"/>
</radialGradient>
<radialGradient id="paint7_radial_259_1816" cx="0" cy="0" r="1" gradientUnits="userSpaceOnUse" gradientTransform="translate(68109.4 632.733) scale(40999.1 8833.58)">
<stop stop-color="#F0A82C"/>
<stop offset="0.31" stop-color="#EFA42C"/>
<stop offset="0.59" stop-color="#EB992C"/>
<stop offset="0.86" stop-color="#E6872C"/>
<stop offset="1" stop-color="#E27A2C"/>
</radialGradient>
<linearGradient id="paint8_linear_259_1816" x1="13714.6" y1="3143.69" x2="78952.7" y2="3143.69" gradientUnits="userSpaceOnUse">
<stop stop-color="#F0A82C"/>
<stop offset="0.31" stop-color="#EFA42C"/>
<stop offset="0.59" stop-color="#EB992C"/>
<stop offset="0.86" stop-color="#E6872C"/>
<stop offset="1" stop-color="#E27A2C"/>
</linearGradient>
<clipPath id="clip0_259_1816">
<rect width="288" height="263" fill="white" transform="translate(43 141)"/>
</clipPath>
</defs>
</svg>
