<svg width="60" height="60" viewBox="0 0 60 60" fill="none" xmlns="http://www.w3.org/2000/svg">
<rect opacity="0.2" width="60" height="60" rx="12" fill="url(#paint0_linear_4_4673)"/>
<g clip-path="url(#clip0_4_4673)">
<path d="M26.2698 19.8849C26.2698 19.8849 30.3259 15.1508 37.4526 17.8008C37.4526 17.8008 33.3941 24.6834 26.2698 19.8849Z" fill="#5C7732"/>
<path d="M26.2698 19.8849C26.2698 19.8849 30.3259 15.1508 37.4526 17.8008C37.4526 17.8008 30.6432 19.3788 26.2698 19.8849Z" fill="#69893E"/>
<path d="M24.8503 24.2326L26.153 15.6799L27.6752 16.5794L25.5851 24.4696C25.3342 24.409 25.0885 24.3298 24.8503 24.2326Z" fill="#69893E"/>
<path d="M37.3237 34.2462C37.3237 40.3651 28.4076 45.2327 21.4121 45.2327C14.4166 45.2327 11 39.8936 11 33.7746C11 27.6557 16.6737 22.6938 23.6715 22.6938C30.6694 22.6938 37.3237 28.1273 37.3237 34.2462Z" fill="#E87F18"/>
<path d="M22.9296 25.3781C24.5711 23.3238 28.8705 23.915 31.2183 25.6587C33.566 27.4024 33.2821 30.0501 31.6406 32.0997C29.9991 34.1493 26.7614 34.4 24.4137 32.6587C22.0659 30.9173 21.2834 27.4346 22.9296 25.3781Z" fill="#E89B34"/>
<path d="M37.8963 44.8804C35.5935 44.8804 33.3424 44.222 31.4277 42.9885C29.513 41.755 28.0207 40.0018 27.1394 37.9505C26.2582 35.8993 26.0276 33.6422 26.4768 31.4646C26.9261 29.2871 28.035 27.2868 29.6633 25.7169C31.2917 24.1469 33.3663 23.0778 35.6249 22.6447C37.8834 22.2115 40.2245 22.4338 42.352 23.2835C44.4795 24.1331 46.2979 25.5719 47.5773 27.418C48.8567 29.2641 49.5395 31.4344 49.5395 33.6547C49.5364 36.631 48.3087 39.4845 46.1258 41.5891C43.943 43.6936 40.9833 44.8773 37.8963 44.8804Z" fill="#FFB506"/>
<path d="M37.8963 23.0044C35.6945 23.0044 33.5421 23.6339 31.7113 24.8133C29.8806 25.9927 28.4537 27.669 27.6111 29.6303C26.7685 31.5916 26.548 33.7497 26.9776 35.8318C27.4071 37.9139 28.4674 39.8264 30.0243 41.3275C31.5813 42.8286 33.5649 43.8509 35.7244 44.265C37.884 44.6792 40.1224 44.4666 42.1566 43.6542C44.1908 42.8418 45.9295 41.4661 47.1528 39.701C48.376 37.9359 49.0289 35.8607 49.0289 33.7378C49.0258 30.8921 47.8519 28.1638 45.7648 26.1515C43.6777 24.1393 40.8479 23.0074 37.8963 23.0044ZM29.2546 29.2521C29.2856 29.167 30.1373 27.0576 31.4878 26.6712C31.5894 26.6434 31.6946 26.6295 31.8003 26.6297C31.9585 26.6301 32.1147 26.6629 32.2587 26.7259C32.4027 26.789 32.5311 26.8809 32.6354 26.9955L36.5697 32.3346C36.6127 32.3898 36.8322 32.6889 36.7368 32.8683C36.7134 32.9082 36.6782 32.9405 36.6357 32.961C36.5932 32.9814 36.5453 32.9892 36.4982 32.9833C36.3337 32.9716 36.1724 32.9335 36.021 32.8706L29.579 30.8003C29.4758 30.7706 29.3805 30.7197 29.2997 30.651C29.219 30.5823 29.1547 30.4974 29.1114 30.4023C28.9683 30.124 29.016 29.7306 29.2546 29.2521ZM28.4815 35.6931C27.625 34.6166 28.2238 32.4289 28.2429 32.3346C28.429 31.38 28.9134 31.235 29.1973 31.235C29.2851 31.2354 29.3723 31.2502 29.455 31.2788L35.9303 33.2479C36.3264 33.3537 36.5125 33.4779 36.5149 33.6297C36.5149 33.8459 36.126 33.9748 36.0377 34.0001L29.6101 36.0911C29.5245 36.1079 29.4373 36.1164 29.35 36.1164C29.1811 36.1157 29.0147 36.0771 28.8639 36.0036C28.7132 35.9301 28.5823 35.8238 28.4815 35.6931ZM31.8003 40.7999C31.6945 40.8005 31.5891 40.7858 31.4878 40.7562C30.1373 40.372 29.2856 38.2626 29.2522 38.1729C29.0136 37.6944 28.9683 37.3011 29.1114 37.0227C29.1591 36.9316 29.2263 36.8513 29.3086 36.7871C29.3908 36.7229 29.4863 36.6762 29.5886 36.6501L36.0305 34.5683C36.1821 34.5061 36.3434 34.4688 36.5077 34.4578C36.5548 34.4519 36.6027 34.4597 36.6452 34.4802C36.6877 34.5007 36.7229 34.5329 36.7463 34.5729C36.8417 34.7523 36.6222 35.0513 36.5793 35.1088L32.6425 40.4364C32.5374 40.5524 32.408 40.6455 32.2628 40.7098C32.1177 40.774 31.96 40.8078 31.8003 40.8091V40.7999ZM37.641 42.2491C37.6457 42.3413 37.6314 42.4334 37.5991 42.5203C37.5667 42.6071 37.5169 42.6869 37.4525 42.7552C37.3356 42.8614 37.1968 42.9425 37.045 42.9933C36.8933 43.044 36.7321 43.0632 36.5721 43.0496C36.4572 43.0483 36.3425 43.0406 36.2286 43.0266C36.1355 43.0266 33.7902 42.9162 32.9837 41.8051C32.8637 41.6374 32.7955 41.4403 32.787 41.2367C32.7786 41.0331 32.8303 40.8314 32.936 40.655L36.9348 35.3642C36.9753 35.3113 37.1734 35.0375 37.3786 35.0375C37.4059 35.038 37.4328 35.0438 37.4578 35.0544C37.4828 35.0651 37.5054 35.0805 37.5241 35.0996C37.6172 35.1916 37.6529 35.3826 37.641 35.7023V42.2491ZM37.5241 32.3208C37.5052 32.3397 37.4826 32.3547 37.4576 32.365C37.4326 32.3752 37.4057 32.3806 37.3786 32.3806C37.1829 32.3806 36.9753 32.1092 36.9348 32.054L32.9503 26.7793C32.8442 26.6032 32.7918 26.4017 32.7994 26.1982C32.807 25.9947 32.8742 25.7974 32.9933 25.6291C33.7997 24.518 36.1451 24.4099 36.2453 24.4076C36.3568 24.3934 36.4692 24.3857 36.5817 24.3846C36.7417 24.371 36.9028 24.3902 37.0546 24.441C37.2063 24.4917 37.3452 24.5729 37.4621 24.679C37.527 24.7484 37.5771 24.8294 37.6094 24.9174C37.6418 25.0054 37.6558 25.0988 37.6506 25.192V31.7296C37.6529 32.0471 37.6172 32.2426 37.5241 32.33V32.3208ZM44.0758 26.6159C44.1815 26.6155 44.2867 26.6294 44.3884 26.6573C45.7388 27.0438 46.5905 29.1532 46.6263 29.2429C46.8649 29.7214 46.9079 30.1148 46.7647 30.3931C46.7176 30.4849 46.6507 30.5659 46.5684 30.6306C46.486 30.6952 46.3903 30.7421 46.2875 30.7681L39.8456 32.8384C39.694 32.9005 39.5327 32.9378 39.3684 32.9488C39.3213 32.9547 39.2734 32.9469 39.2309 32.9264C39.1884 32.906 39.1532 32.8737 39.1298 32.8338C39.0368 32.6544 39.2539 32.3553 39.2992 32.2978L43.236 26.9978C43.3403 26.8816 43.4693 26.7882 43.6141 26.7239C43.7589 26.6597 43.9164 26.626 44.0758 26.6251V26.6159ZM38.0657 31.8515L38.2089 25.3162C38.2344 25.1119 38.3197 24.9188 38.4549 24.7595C38.5901 24.6002 38.7696 24.4813 38.9723 24.4168C39.1595 24.3619 39.3542 24.3347 39.5497 24.3363C40.8143 24.3363 42.2673 25.3047 42.3293 25.3462C42.8065 25.613 43.0689 25.912 43.1191 26.2295C43.1339 26.3291 43.1266 26.4306 43.0979 26.5274C43.0691 26.6241 43.0194 26.7139 42.952 26.7908L38.8364 31.9988C38.6336 32.2794 38.4713 32.4105 38.3329 32.4105C38.3055 32.4106 38.2784 32.4051 38.2533 32.3944C38.2282 32.3837 38.2058 32.368 38.1874 32.3484C38.0915 32.2001 38.0488 32.0255 38.0657 31.8515ZM43.1191 41.214C43.0689 41.5314 42.8017 41.8305 42.3222 42.1019C42.2673 42.1387 40.8143 43.1071 39.5497 43.1071C39.3542 43.1087 39.1595 43.0816 38.9723 43.0266C38.7713 42.9633 38.593 42.8463 38.4583 42.6891C38.3235 42.5319 38.2379 42.341 38.2112 42.1387L38.0657 35.5896C38.0491 35.4164 38.0918 35.2426 38.1874 35.095C38.2058 35.0754 38.2282 35.0598 38.2533 35.0491C38.2784 35.0384 38.3055 35.0329 38.3329 35.0329C38.4713 35.0329 38.6336 35.164 38.8387 35.447L42.9568 40.6573C43.0229 40.7339 43.0716 40.823 43.0995 40.9189C43.1275 41.0149 43.1341 41.1154 43.1191 41.214ZM46.6239 38.1959C46.5905 38.281 45.7388 40.3904 44.3907 40.7746C44.2886 40.8042 44.1825 40.819 44.0758 40.8183C43.9181 40.8175 43.7623 40.7845 43.6188 40.7214C43.4753 40.6584 43.3472 40.5668 43.2431 40.4525L39.3064 35.1134C39.2634 35.0582 39.0463 34.7592 39.1394 34.5798C39.1627 34.5399 39.1979 34.5076 39.2404 34.4871C39.2829 34.4666 39.3308 34.4588 39.378 34.4647C39.5424 34.4765 39.7037 34.5146 39.8551 34.5775L46.2971 36.6478C46.396 36.6752 46.4879 36.7224 46.5668 36.7862C46.6457 36.85 46.7099 36.929 46.7552 37.0181C46.9079 37.3034 46.8625 37.7036 46.6239 38.1867V38.1959ZM46.5214 36.2912C46.4412 36.29 46.3613 36.2816 46.2828 36.2659L39.8408 34.1818C39.7645 34.1588 39.3636 34.0277 39.3756 33.8114C39.3756 33.6573 39.5664 33.5354 39.9625 33.4319L46.4426 31.4582C46.5191 31.4314 46.5998 31.4174 46.6812 31.4168C46.9532 31.4168 47.4399 31.5617 47.6356 32.5232C47.6594 32.6107 48.2583 34.7983 47.397 35.8771C47.2931 36.005 47.1601 36.1081 47.0083 36.1783C46.8564 36.2485 46.6898 36.284 46.5214 36.282V36.2912Z" fill="#FFFFCF"/>
<path d="M37.8868 22.3809C31.4687 22.3809 26.1362 27.0046 26.1362 33.1925C26.1362 39.3804 30.8221 45.3199 37.245 45.3199C43.6679 45.3199 50.0024 40.0038 50.0024 33.8182C50.0024 27.6326 44.3073 22.3809 37.8868 22.3809ZM37.8868 44.4642C35.6851 44.4624 33.5334 43.8312 31.7037 42.6503C29.8741 41.4695 28.4487 39.7922 27.6077 37.8303C26.7668 35.8685 26.5481 33.7103 26.9793 31.6286C27.4105 29.547 28.4723 27.6353 30.0303 26.1354C31.5883 24.6355 33.5727 23.6147 35.7324 23.2021C37.8921 22.7895 40.1302 23.0035 42.1638 23.8173C44.1973 24.631 45.935 26.0078 47.1569 27.7736C48.3789 29.5394 49.0304 31.6149 49.029 33.7377C49.0258 36.5834 47.8519 39.3118 45.7648 41.324C43.6777 43.3362 40.8479 44.4681 37.8964 44.4711L37.8868 44.4642Z" fill="#F38E1C"/>
<path d="M37.4527 24.6698C37.3358 24.5636 37.1969 24.4824 37.0452 24.4317C36.8934 24.3809 36.7323 24.3617 36.5723 24.3753C36.4598 24.3764 36.3474 24.3841 36.2359 24.3983C36.1357 24.3983 33.7903 24.5088 32.9839 25.6198C32.8648 25.7881 32.7976 25.9854 32.79 26.1889C32.7824 26.3925 32.8347 26.5939 32.9409 26.77L36.9349 32.0608C36.9755 32.116 37.1735 32.3874 37.3787 32.3874C37.4059 32.3874 37.4328 32.3821 37.4578 32.3718C37.4828 32.3615 37.5054 32.3465 37.5243 32.3276C37.6173 32.2356 37.6531 32.0447 37.6412 31.7272V25.1828C37.6464 25.0895 37.6324 24.9962 37.6 24.9081C37.5677 24.8201 37.5176 24.7391 37.4527 24.6698Z" fill="#FFB506"/>
<path d="M43.1191 26.2294C43.0689 25.912 42.8017 25.6129 42.3293 25.3461C42.2673 25.3047 40.8143 24.3362 39.5497 24.3362C39.3542 24.3347 39.1595 24.3618 38.9723 24.4168C38.7696 24.4813 38.5901 24.6001 38.4549 24.7594C38.3197 24.9187 38.2344 25.1118 38.2089 25.3162L38.0657 31.8515C38.0488 32.0255 38.0915 32.2 38.1874 32.3484C38.2058 32.368 38.2282 32.3836 38.2533 32.3943C38.2784 32.405 38.3055 32.4105 38.3329 32.4105C38.4713 32.4105 38.6335 32.2793 38.8363 31.9987L42.952 26.7907C43.0194 26.7138 43.0691 26.6241 43.0979 26.5273C43.1266 26.4306 43.1339 26.3291 43.1191 26.2294Z" fill="#FFB506"/>
<path d="M46.6264 29.2519C46.5906 29.1622 45.7388 27.0527 44.3884 26.6663C44.1835 26.61 43.9663 26.6113 43.7621 26.67C43.558 26.7286 43.3755 26.8423 43.236 26.9975L39.3088 32.3274C39.2635 32.3849 39.0463 32.684 39.1394 32.8634C39.1628 32.9033 39.198 32.9356 39.2405 32.9561C39.283 32.9766 39.3309 32.9844 39.378 32.9784C39.5423 32.9675 39.7036 32.9301 39.8552 32.868L46.2971 30.7977C46.3998 30.7718 46.4956 30.7249 46.5779 30.6602C46.6603 30.5955 46.7272 30.5145 46.7743 30.4227C46.9079 30.1237 46.8626 29.7303 46.6264 29.2519Z" fill="#FFB506"/>
<path d="M36.5696 32.3299L32.6352 26.9908C32.5309 26.8761 32.4025 26.7843 32.2585 26.7212C32.1145 26.6581 31.9583 26.6253 31.8001 26.625C31.6945 26.6247 31.5893 26.6387 31.4876 26.6664C30.1372 27.0529 29.2854 29.1623 29.2544 29.252C29.0158 29.7351 28.9681 30.1284 29.1112 30.416C29.1565 30.5054 29.2206 30.5847 29.2995 30.6489C29.3784 30.7131 29.4703 30.7607 29.5693 30.7886L36.0113 32.859C36.1627 32.9218 36.324 32.9599 36.4884 32.9717C36.5356 32.9776 36.5835 32.9698 36.626 32.9493C36.6685 32.9288 36.7037 32.8966 36.727 32.8566C36.832 32.6841 36.6125 32.3851 36.5696 32.3299Z" fill="#FFB506"/>
<path d="M37.6408 42.2582V35.7068C37.6408 35.387 37.617 35.1961 37.5239 35.1041C37.5052 35.0849 37.4826 35.0696 37.4576 35.0589C37.4326 35.0482 37.4057 35.0425 37.3784 35.042C37.1827 35.042 36.9752 35.3157 36.9346 35.3686L32.9358 40.6594C32.8301 40.8359 32.7784 41.0376 32.7868 41.2412C32.7953 41.4448 32.8635 41.6419 32.9835 41.8096C33.79 42.9207 36.1353 43.0288 36.2284 43.0311C36.3423 43.0451 36.4571 43.0528 36.5719 43.0541C36.7319 43.0677 36.8931 43.0485 37.0448 42.9977C37.1966 42.947 37.3354 42.8659 37.4523 42.7597C37.5812 42.6229 37.6489 42.4428 37.6408 42.2582Z" fill="#FFB506"/>
<path d="M42.9566 40.648L38.8385 35.4377C38.6334 35.1548 38.4711 35.0237 38.3327 35.0237C38.3053 35.0236 38.2782 35.0291 38.2531 35.0398C38.228 35.0505 38.2056 35.0662 38.1872 35.0858C38.0917 35.2334 38.0489 35.4071 38.0655 35.5804L38.2111 42.1295C38.2377 42.3318 38.3233 42.5226 38.4581 42.6798C38.5928 42.837 38.7711 42.9541 38.9722 43.0174C39.1593 43.0723 39.354 43.0995 39.5495 43.0979C40.8141 43.0979 42.2671 42.1295 42.322 42.0927C42.7991 41.8212 43.0688 41.5222 43.1189 41.2047C43.1339 41.1061 43.1273 41.0056 43.0993 40.9097C43.0714 40.8138 43.0227 40.7246 42.9566 40.648Z" fill="#FFB506"/>
<path d="M46.7647 37.0202C46.7199 36.9315 46.6565 36.8528 46.5784 36.789C46.5004 36.7252 46.4094 36.6778 46.3113 36.6498L39.8694 34.5795C39.7179 34.5166 39.5567 34.4785 39.3922 34.4668C39.3451 34.4609 39.2972 34.4686 39.2547 34.4891C39.2122 34.5096 39.177 34.5419 39.1536 34.5818C39.0606 34.7612 39.2777 35.0603 39.3206 35.1155L43.2574 40.4546C43.3615 40.5688 43.4896 40.6604 43.6331 40.7235C43.7766 40.7865 43.9324 40.8195 44.0901 40.8203C44.1967 40.821 44.3029 40.8063 44.405 40.7766C45.753 40.3925 46.6048 38.2831 46.6382 38.1979C46.8625 37.7034 46.9078 37.3031 46.7647 37.0202Z" fill="#FFB506"/>
<path d="M47.6307 32.5139C47.4446 31.5524 46.9578 31.4075 46.6763 31.4075C46.5949 31.4081 46.5142 31.4221 46.4377 31.4489L39.9576 33.4226C39.5615 33.5261 39.3754 33.6526 39.3707 33.8021C39.3707 34.0184 39.7596 34.1495 39.8359 34.1725L46.2779 36.2566C46.3564 36.2723 46.4363 36.2807 46.5165 36.2819C46.6857 36.2828 46.8528 36.2459 47.0047 36.174C47.1566 36.1022 47.2892 35.9974 47.3921 35.8678C48.2534 34.789 47.6545 32.6014 47.6307 32.5139Z" fill="#FFB506"/>
<path d="M36.7367 34.5703C36.7133 34.5304 36.6781 34.4981 36.6356 34.4777C36.5931 34.4572 36.5452 34.4494 36.4981 34.4553C36.3338 34.4663 36.1725 34.5036 36.0209 34.5657L29.5789 36.6475C29.4766 36.6736 29.3812 36.7203 29.2989 36.7846C29.2167 36.8488 29.1495 36.9291 29.1018 37.0202C28.9586 37.31 29.0063 37.7103 29.2425 38.1704C29.2759 38.2601 30.1277 40.3695 31.4781 40.7537C31.5794 40.7833 31.6848 40.798 31.7907 40.7974C31.9504 40.7961 32.108 40.7623 32.2532 40.698C32.3984 40.6338 32.5278 40.5406 32.6329 40.4247L36.5601 35.0948C36.6126 35.0488 36.8321 34.7497 36.7367 34.5703Z" fill="#FFB506"/>
<path d="M35.9257 33.2569L29.4503 31.2878C29.3676 31.2593 29.2805 31.2445 29.1926 31.2441C28.9207 31.2441 28.4363 31.3891 28.2383 32.3437C28.212 32.438 27.6132 34.6257 28.4769 35.7022C28.5793 35.8322 28.7119 35.9373 28.8639 36.0091C29.0159 36.081 29.1832 36.1177 29.3525 36.1163C29.4391 36.1161 29.5254 36.1077 29.6102 36.091L36.0378 34.0207C36.1142 33.9954 36.515 33.8665 36.515 33.6503C36.5078 33.4847 36.3217 33.3628 35.9257 33.2569Z" fill="#FFB506"/>
</g>
<defs>
<linearGradient id="paint0_linear_4_4673" x1="60" y1="60" x2="-19.9676" y2="53.812" gradientUnits="userSpaceOnUse">
<stop stop-color="#92A3FD"/>
<stop offset="1" stop-color="#9DCEFF"/>
</linearGradient>
<clipPath id="clip0_4_4673">
<rect width="39" height="29.64" fill="white" transform="translate(11 15.6799)"/>
</clipPath>
</defs>
</svg>
