<svg width="20" height="20" viewBox="0 0 20 20" fill="none" xmlns="http://www.w3.org/2000/svg">
<g clip-path="url(#clip0_263_823)">
<mask id="mask0_263_823" style="mask-type:alpha" maskUnits="userSpaceOnUse" x="0" y="0" width="20" height="20">
<path d="M19.3537 6.72533L13.358 5.85397L10.6778 0.420341C10.6046 0.271572 10.4842 0.15114 10.3354 0.0779356C9.96232 -0.106255 9.50893 0.0472372 9.32237 0.420341L6.64216 5.85397L0.64652 6.72533C0.48122 6.74895 0.33009 6.82687 0.21438 6.94494C0.0744935 7.08872 -0.00259026 7.28216 6.64643e-05 7.48274C0.00272319 7.68332 0.0849031 7.87464 0.228548 8.01467L4.56648 12.244L3.54162 18.216C3.51759 18.3549 3.53296 18.4978 3.586 18.6284C3.63903 18.7591 3.72761 18.8722 3.84168 18.9551C3.95576 19.0379 4.09076 19.0871 4.23139 19.0972C4.37202 19.1072 4.51264 19.0776 4.63732 19.0118L10.0001 16.1923L15.3629 19.0118C15.5093 19.0897 15.6793 19.1157 15.8423 19.0874C16.2531 19.0165 16.5294 18.6269 16.4586 18.216L15.4337 12.244L19.7717 8.01467C19.8897 7.89896 19.9677 7.74783 19.9913 7.58253C20.055 7.16928 19.7669 6.78673 19.3537 6.72533Z" fill="#006FFD"/>
</mask>
<g mask="url(#mask0_263_823)">
<rect width="20" height="20" fill="#91C788"/>
</g>
</g>
<defs>
<clipPath id="clip0_263_823">
<rect width="20" height="20" fill="white"/>
</clipPath>
</defs>
</svg>
