<svg width="282" height="282" viewBox="0 0 282 282" fill="none" xmlns="http://www.w3.org/2000/svg">
<path d="M47.9054 42.1251H33.0182V48.4363H47.9054V42.1251Z" fill="#EBEBEB"/>
<path d="M39.6016 34.1671H24.7145V40.4783H39.6016V34.1671Z" fill="#EBEBEB"/>
<path d="M56.2091 34.1671H41.322V40.4783H56.2091V34.1671Z" fill="#EBEBEB"/>
<path d="M248.084 34.1671H233.197V40.4783H248.084V34.1671Z" fill="#EBEBEB"/>
<path d="M248.084 204.467H233.197V210.778H248.084V204.467Z" fill="#EBEBEB"/>
<path d="M256.387 196.509H241.5V202.82H256.387V196.509Z" fill="#EBEBEB"/>
<path d="M39.6016 204.461H24.7145V210.772H39.6016V204.461Z" fill="#EBEBEB"/>
<path d="M65.7329 135.682H80.62V129.37H65.7329V135.682Z" fill="#EBEBEB"/>
<path d="M74.0366 143.64H88.9238V137.328H74.0366V143.64Z" fill="#EBEBEB"/>
<path d="M47.4781 0H46.8147V61.5606H47.4781V0Z" fill="#C7C7C7"/>
<path d="M66.5031 80.2797L64.9458 83.7145H29.3414L27.7897 80.2797L42.9467 69.7555H51.3461L66.5031 80.2797Z" fill="#EBEBEB"/>
<path d="M52.3974 59.6147L51.3461 69.7555H42.9468L41.8954 59.6147H52.3974Z" fill="#DBDBDB"/>
<path d="M66.5031 80.2854L64.9458 83.7145H29.3414L27.7897 80.2854H66.5031Z" fill="#DBDBDB"/>
<path d="M94.2928 0H93.6294V50.4836H94.2928V0Z" fill="#C7C7C7"/>
<path d="M113.318 69.2028L111.761 72.6376H76.1561L74.6045 69.2028L89.7615 58.6786H98.1608L113.318 69.2028Z" fill="#EBEBEB"/>
<path d="M99.2121 48.5378L98.1608 58.6786H89.7615L88.7102 48.5378H99.2121Z" fill="#DBDBDB"/>
<path d="M113.318 69.2085L111.761 72.6376H76.1561L74.6045 69.2085H113.318Z" fill="#DBDBDB"/>
<path d="M239.521 44.2965H202.984V80.9509H239.521V44.2965Z" fill="white"/>
<path d="M201.083 42.3903V82.8573H241.422V42.3903H201.083ZM239.499 80.9509H202.956V44.2909H239.499V80.9509Z" fill="#DBDBDB"/>
<path d="M236.896 73.8502V61.1771H208.42V73.8502H236.896Z" fill="#EBEBEB"/>
<path d="M228.547 69.9417V55.3059H213.958V69.9417H228.547Z" fill="#C7C7C7"/>
<path d="M242.979 42.3903H241.422V82.8573H242.979V42.3903Z" fill="#C7C7C7"/>
<path d="M239.521 96.3425H202.984V132.997H239.521V96.3425Z" fill="white"/>
<path d="M218.804 102.208H209.264V129.855H218.804V102.208Z" fill="#C7C7C7"/>
<path d="M201.083 94.4362V134.903H241.422V94.4362H201.083ZM239.499 132.997H202.956V96.3368H239.499V132.997Z" fill="#DBDBDB"/>
<path d="M228.547 107.352H213.958V121.988H228.547V107.352Z" fill="#EBEBEB"/>
<path d="M242.979 94.4362H241.422V134.903H242.979V94.4362Z" fill="#C7C7C7"/>
<path d="M239.521 148.388H202.984V185.043H239.521V148.388Z" fill="white"/>
<path d="M227.085 153.385H207.037V165.41H227.085V153.385Z" fill="#EBEBEB"/>
<path d="M201.083 146.482V186.949H241.422V146.482H201.083ZM239.499 185.043H202.956V148.383H239.499V185.043Z" fill="#DBDBDB"/>
<path d="M228.547 159.398H213.958V174.034H228.547V159.398Z" fill="#C7C7C7"/>
<path d="M242.979 146.482H241.422V186.949H242.979V146.482Z" fill="#C7C7C7"/>
<path d="M184.802 260.139C222.065 260.139 252.272 256.693 252.272 252.441C252.272 248.189 222.065 244.742 184.802 244.742C147.539 244.742 117.332 248.189 117.332 252.441C117.332 256.693 147.539 260.139 184.802 260.139Z" fill="#EBEBEB"/>
<path d="M17.2428 243.648L48.0684 243.513L78.8997 243.462L140.551 243.366L202.202 243.462L233.034 243.507L263.859 243.648L233.034 243.783L202.202 243.834L140.551 243.93L78.8997 243.834L48.0684 243.783L17.2428 243.648Z" fill="#263238"/>
<path d="M152.425 243.648H103.569C102.029 227.033 100.483 210.005 99.2571 196.43C99.2177 195.979 99.1728 195.528 99.1334 195.082C97.7504 179.724 96.8115 169.11 96.8115 169.11H142.912C142.915 169.157 142.915 169.204 142.912 169.251C143.255 171.766 147.95 208.471 152.425 243.648Z" fill="#37474F"/>
<path d="M110.973 243.648H110.192C108.061 225.656 106.33 207.631 104.755 189.583C104.666 188.504 104.572 187.423 104.474 186.34C104.16 182.634 103.845 178.912 103.541 175.201C103.541 175.088 103.704 175.088 103.721 175.201C104.066 178.491 104.399 181.773 104.722 185.048C104.724 185.058 104.724 185.067 104.722 185.077C104.834 186.272 104.958 187.462 105.076 188.664C106.33 201.117 107.572 213.559 108.933 225.995C109.581 231.887 110.261 237.771 110.973 243.648Z" fill="#263238"/>
<path d="M136.256 169.11L130.071 210.124L129.852 211.511L129.29 215.205L129.245 215.465L129.099 216.457L124.984 243.648H98.7399C96.0469 228.42 93.2921 212.808 91.0096 199.853C90.959 199.56 90.9084 199.289 90.8578 198.996C87.7825 181.563 85.5843 169.104 85.5843 169.104L136.256 169.11Z" fill="#263238"/>
<path d="M142.957 169.07C142.957 169.07 142.957 169.127 142.929 169.251C142.564 171.642 138.594 197.287 132 214.117C131.955 214.258 131.904 214.388 131.842 214.534C131.842 214.534 130.915 214.822 129.239 215.487C128.587 215.747 127.811 216.051 126.934 216.446L125.979 216.875C124.045 217.743 121.7 218.883 119.024 220.338C118.766 220.473 118.513 220.614 118.26 220.755C118.26 220.755 118.26 220.862 118.26 221.06C118.125 222.825 117.439 231.883 116.573 243.62H70.551C74.0928 206.999 77.9833 169.042 77.9833 169.042L142.957 169.07Z" fill="#37474F"/>
<path d="M83.1331 176.205C81.8232 193.384 80.5694 210.564 79.1977 227.721C78.7704 233.03 78.3319 238.339 77.8821 243.648H77.2075C79.1527 221.171 81.0023 198.693 82.7564 176.216C82.7677 175.968 83.15 175.968 83.1331 176.205Z" fill="#263238"/>
<path d="M134.17 213.327C128.662 215.338 123.339 217.826 118.26 220.761C118.238 220.771 118.218 220.784 118.202 220.802C118.185 220.819 118.172 220.839 118.164 220.861C118.155 220.884 118.151 220.907 118.151 220.931C118.152 220.955 118.157 220.979 118.167 221.001C118.176 221.022 118.19 221.042 118.207 221.059C118.225 221.075 118.245 221.088 118.267 221.097C118.289 221.105 118.313 221.11 118.337 221.109C118.361 221.108 118.384 221.103 118.406 221.094C123.764 218.781 129.228 216.582 134.457 213.97C134.542 213.932 134.608 213.862 134.641 213.774C134.674 213.687 134.672 213.59 134.634 213.505C134.596 213.42 134.526 213.353 134.439 213.32C134.352 213.286 134.255 213.289 134.17 213.327Z" fill="#263238"/>
<path d="M135.873 176.43C135.873 176.244 135.53 176.205 135.536 176.43C135.575 182.815 135.171 188.427 134.637 194.394C134.384 197.163 132.163 212.47 127.379 211.353C126.575 211.167 126.164 210.378 126.04 209.165C125.889 207.71 126.434 205.922 126.676 204.472C127.238 201.263 127.637 198.049 127.907 194.817C128.465 188.79 128.401 182.721 127.716 176.707C127.709 176.671 127.69 176.638 127.662 176.615C127.633 176.591 127.598 176.579 127.561 176.579C127.525 176.579 127.489 176.591 127.461 176.615C127.433 176.638 127.414 176.671 127.407 176.707C127.407 185.071 127.193 193.418 125.945 201.703C125.349 205.685 123.348 211.68 127.502 212.29C131.657 212.899 134.462 202.876 134.98 200.13C136.419 192.459 136.475 184.185 135.873 176.43Z" fill="#263238"/>
<path d="M127.502 211.742C127.077 212.777 126.719 213.837 126.428 214.918C126.119 215.751 125.966 216.634 125.979 217.523C125.986 217.559 126.003 217.591 126.028 217.617C126.053 217.643 126.085 217.661 126.121 217.669C126.156 217.676 126.192 217.674 126.226 217.661C126.26 217.648 126.289 217.626 126.31 217.597C126.811 216.813 127.19 215.957 127.435 215.059C127.8 214.077 128.183 213.102 128.52 212.109C128.528 211.987 128.496 211.865 128.429 211.763C128.362 211.66 128.264 211.582 128.149 211.541C128.034 211.499 127.909 211.496 127.792 211.533C127.675 211.569 127.574 211.643 127.502 211.742Z" fill="#263238"/>
<path d="M105.841 181.439C105.849 180.771 105.782 180.105 105.638 179.453C105.633 179.431 105.62 179.412 105.602 179.398C105.585 179.383 105.562 179.376 105.54 179.376C105.517 179.376 105.495 179.383 105.477 179.398C105.459 179.412 105.447 179.431 105.441 179.453C105.308 180.008 105.234 180.575 105.222 181.145C105.155 181.805 105.065 182.46 104.997 183.119C104.854 184.467 104.619 185.803 104.294 187.118C103.69 189.606 102.428 191.884 100.64 193.711C98.8622 195.462 96.7618 196.849 94.4559 197.795C91.8866 198.889 89.1768 199.295 86.5232 200.079C86.4107 200.107 86.4445 200.271 86.5232 200.276C89.47 200.269 92.3881 199.694 95.1193 198.584C97.5322 197.674 99.7287 196.268 101.568 194.456C103.413 192.587 104.713 190.246 105.323 187.688C105.63 186.372 105.804 185.029 105.841 183.678C105.885 182.932 105.885 182.184 105.841 181.439Z" fill="#263238"/>
<path d="M123.196 109.98C126.901 118.305 153.87 156.871 175.543 161.53C179.197 162.314 190.537 165.912 197.097 156.51C205.963 143.814 211.619 119.5 210.377 106.534C209.348 95.8179 180.141 103.855 178.421 109.957C177.122 114.577 174.812 129.731 173.867 129.489C167.728 127.898 149.439 112.005 131.213 102.219C122.763 97.6509 120.345 103.545 123.196 109.98Z" fill="#AD6359"/>
<path d="M172.074 136.076C172.2 135.128 172.375 134.187 172.597 133.256C173.061 131.463 173.69 129.717 174.474 128.039C174.508 127.966 174.643 128.011 174.615 128.096C174.053 129.827 173.642 131.626 173.181 133.392C172.956 134.271 172.743 135.146 172.546 136.031C172.349 136.917 172.102 137.836 171.95 138.75C171.95 138.8 171.849 138.795 171.854 138.75C171.916 137.842 171.95 136.962 172.074 136.076Z" fill="#263238"/>
<path d="M210.512 108.514C210.512 108.514 210.028 94.47 205.008 85.1301C201.539 78.6723 192.426 65.4691 170.618 64.6231C165.445 64.4257 157.929 67.821 166.261 71.2219C172.181 73.6414 176.661 73.382 179.849 75.418C179.849 75.418 170.803 80.8776 170.803 86.0833C170.803 88.4126 170.46 93.4548 171.281 98.3841C171.281 98.3841 172.895 99.7998 174.328 99.7377C174.328 99.7377 174.486 104.611 179.95 109.642L210.512 108.514Z" fill="#AD6359"/>
<path d="M143.924 79.2137C141.271 81.0073 139.82 85.2429 141.956 89.2699C144.093 93.2968 149.501 92.7836 152.076 91.0183C154.651 89.253 156.827 84.8481 154.629 81.0919C152.768 77.8319 148.596 76.0723 143.924 79.2137Z" fill="#FF8473"/>
<path opacity="0.1" d="M143.924 79.2137C141.271 81.0073 139.82 85.2429 141.956 89.2699C144.093 93.2968 149.501 92.7836 152.076 91.0183C154.651 89.253 156.827 84.8481 154.629 81.0919C152.768 77.8319 148.596 76.0723 143.924 79.2137Z" fill="black"/>
<path d="M144.734 80.2684C142.569 81.7291 141.389 85.1921 143.131 88.4802C144.874 91.7683 149.316 91.351 151.407 89.9071C153.499 88.4633 155.292 84.8706 153.499 81.7968C151.947 79.1347 148.54 77.7022 144.734 80.2684Z" fill="#FF8473"/>
<path d="M149.265 82.0958C149.456 82.2481 150.142 81.6728 149.765 81.4021C149.389 81.1314 149.018 81.9041 149.265 82.0958Z" fill="white"/>
<path d="M150.867 85.8689C150.772 86.0889 151.497 86.6134 151.666 86.1791C151.834 85.7449 150.997 85.5757 150.867 85.8689Z" fill="white"/>
<path d="M152.475 84.4026C152.515 84.6395 153.409 84.6789 153.313 84.2221C153.217 83.7653 152.425 84.0867 152.475 84.4026Z" fill="white"/>
<path d="M149.22 80.4432C149.456 80.4037 149.501 79.5126 149.046 79.6028C148.59 79.6931 148.905 80.494 149.22 80.4432Z" fill="white"/>
<path d="M144.942 83.5678C145.004 83.3366 144.205 82.9305 144.104 83.3873C144.003 83.8442 144.857 83.878 144.942 83.5678Z" fill="white"/>
<path d="M146.853 88.5479C146.656 88.4069 145.999 89.0104 146.387 89.2642C146.775 89.518 147.112 88.7397 146.853 88.5479Z" fill="white"/>
<path d="M148.422 88.249C148.186 88.2096 147.86 89.0443 148.321 89.1007C148.782 89.1571 148.737 88.2998 148.422 88.249Z" fill="white"/>
<path d="M146.775 84.7185C146.943 84.5493 146.449 83.7991 146.139 84.1545C145.83 84.5098 146.55 84.9441 146.775 84.7185Z" fill="white"/>
<path d="M141.962 85.3387C141.962 85.3387 146.319 84.8537 146.893 85.7392C147.466 86.6247 144.368 90.5163 143.857 90.1722C143.345 89.8282 141.49 86.8164 141.962 85.3387Z" fill="#FF8473"/>
<path opacity="0.1" d="M141.962 85.3387C141.962 85.3387 146.319 84.8537 146.893 85.7392C147.466 86.6247 144.368 90.5163 143.857 90.1722C143.345 89.8282 141.49 86.8164 141.962 85.3387Z" fill="black"/>
<path d="M149.411 91.1367C149.411 91.1367 148.124 86.9293 148.888 86.2017C149.653 85.4741 154.033 87.7978 153.796 88.3675C153.56 88.9371 150.946 91.3228 149.411 91.1367Z" fill="#FF8473"/>
<path opacity="0.1" d="M149.411 91.1367C149.411 91.1367 148.124 86.9293 148.888 86.2017C149.653 85.4741 154.033 87.7978 153.796 88.3675C153.56 88.9371 150.946 91.3228 149.411 91.1367Z" fill="black"/>
<path d="M154.96 83.3873C154.96 83.3873 150.699 84.4251 150.018 83.6185C149.338 82.812 151.913 78.5425 152.464 78.8358C153.015 79.1291 155.236 81.8589 154.96 83.3873Z" fill="#FF8473"/>
<path opacity="0.1" d="M154.96 83.3873C154.96 83.3873 150.699 84.4251 150.018 83.6185C149.338 82.812 151.913 78.5425 152.464 78.8358C153.015 79.1291 155.236 81.8589 154.96 83.3873Z" fill="black"/>
<path d="M147.736 78.2718C147.736 78.2718 148.776 82.5469 147.972 83.2294C147.168 83.9118 142.912 81.3287 143.199 80.776C143.486 80.2233 146.218 77.9898 147.736 78.2718Z" fill="#FF8473"/>
<path opacity="0.1" d="M147.736 78.2718C147.736 78.2718 148.776 82.5469 147.972 83.2294C147.168 83.9118 142.912 81.3287 143.199 80.776C143.486 80.2233 146.218 77.9898 147.736 78.2718Z" fill="black"/>
<path d="M156.692 85.4403C154.64 86.2243 144.818 88.187 144.818 88.187L145.009 87.7189L155.539 84.4307C155.615 84.4015 155.677 84.3444 155.713 84.2712C155.748 84.1979 155.754 84.1138 155.73 84.0359C155.718 83.995 155.698 83.957 155.671 83.9242C155.644 83.8913 155.61 83.8643 155.573 83.8448C155.535 83.8253 155.493 83.8137 155.451 83.8107C155.408 83.8077 155.366 83.8133 155.326 83.8273L145.481 86.5344L145.791 85.7843L156.563 82.2537C156.608 82.2455 156.651 82.2277 156.689 82.2015C156.727 82.1754 156.759 82.1414 156.783 82.1018C156.808 82.0622 156.823 82.018 156.829 81.972C156.834 81.926 156.83 81.8794 156.816 81.8351C156.803 81.7909 156.78 81.75 156.749 81.7153C156.719 81.6805 156.681 81.6527 156.639 81.6336C156.597 81.6146 156.552 81.6047 156.505 81.6046C156.459 81.6045 156.414 81.6143 156.371 81.6333L146.291 84.5774L146.589 83.8611L157.608 80.0597C157.65 80.0482 157.688 80.0284 157.721 80.0014C157.755 79.9744 157.782 79.9409 157.802 79.9029C157.822 79.8649 157.834 79.8231 157.838 79.7803C157.841 79.7374 157.836 79.6943 157.822 79.6537C157.81 79.613 157.791 79.575 157.764 79.5422C157.738 79.5094 157.705 79.4824 157.667 79.4629C157.63 79.4433 157.589 79.4317 157.547 79.4286C157.505 79.4255 157.463 79.4311 157.423 79.445L147.078 82.6654L147.331 82.0563C147.331 82.0563 157.698 78.0406 158.924 77.8037C161.133 77.3695 159.801 84.2559 156.692 85.4403Z" fill="#455A64"/>
<path d="M158.974 79.744C160.414 79.0841 166.322 76.4728 167.02 76.202C167.829 75.8862 196.462 64.7134 197.603 64.6795C198.745 64.6457 198.227 68.5768 197.57 69.4059C196.912 70.2349 169.786 77.7305 167.053 78.8134C164.192 79.9414 158.811 82.1974 158.811 82.1974L158.974 79.744Z" fill="#455A64"/>
<path d="M203.439 84.4026C200.33 82.1466 193.651 77.5162 186.871 75.6211C179.343 73.5174 164.276 71.5039 162.786 77.0932C161.69 81.1934 167.379 82.4737 167.379 82.4737C167.379 82.4737 160.976 82.9531 160.796 86.8729C160.633 90.4487 165.086 91.1706 165.086 91.1706C165.086 91.1706 161.251 92.135 161.757 95.6093C162.364 99.7829 170.297 97.0757 174.553 100.776C175.509 101.605 203.439 84.4026 203.439 84.4026Z" fill="#AD6359"/>
<path d="M185.983 83.9739C182.716 82.344 174.334 80.5561 167.492 82.344C167.334 82.3834 167.284 82.5244 167.43 82.5188C173.652 82.2645 179.883 82.772 185.983 84.0303C186.005 84.036 186.022 83.9908 185.983 83.9739Z" fill="#263238"/>
<path d="M183.65 91.5372C180.681 90.4092 171.961 88.9654 165.097 91.0296C164.939 91.0747 164.9 91.2157 165.046 91.2044C171.239 90.6323 177.476 90.7666 183.638 91.6049C183.672 91.6162 183.683 91.5485 183.65 91.5372Z" fill="#263238"/>
<path d="M141.788 137.96L170.348 122.67C170.348 122.67 142.041 105.366 128.981 100.392C115.37 95.1863 110.22 99.0158 122.476 113.962C134.547 128.66 141.788 137.96 141.788 137.96Z" fill="#FF8473"/>
<path d="M168.003 121.26C167.457 121.406 166.923 121.594 166.407 121.824C165.64 122.157 164.922 122.595 164.276 123.127C165.102 123.003 165.906 122.764 166.665 122.416C167.26 122.16 167.825 121.84 168.352 121.463C168.234 121.407 168.099 121.333 168.003 121.26ZM137.914 125.529C137.147 125.858 136.431 126.297 135.789 126.832C136.613 126.707 137.416 126.466 138.173 126.116C138.942 125.79 139.66 125.353 140.304 124.819C139.477 124.937 138.672 125.176 137.914 125.529ZM151.441 128.101C151.113 127.333 150.678 126.615 150.148 125.969C150.269 126.798 150.507 127.605 150.856 128.366C151.182 129.135 151.617 129.851 152.149 130.493C152.03 129.665 151.791 128.86 151.441 128.101ZM127.058 115.761C126.726 114.995 126.289 114.279 125.759 113.635C125.883 114.462 126.124 115.267 126.473 116.026C126.798 116.797 127.233 117.515 127.766 118.158C127.645 117.329 127.407 116.522 127.058 115.761ZM120.312 104.007C119.537 103.704 118.723 103.514 117.894 103.443C118.563 103.942 119.3 104.343 120.081 104.633C120.857 104.934 121.67 105.124 122.499 105.197C121.829 104.699 121.093 104.298 120.312 104.007ZM139.949 112.467C139.174 112.154 138.358 111.955 137.526 111.875C138.197 112.376 138.935 112.779 139.719 113.071C140.494 113.371 141.308 113.561 142.136 113.635C141.48 113.136 140.757 112.734 139.989 112.439L139.949 112.467ZM133.006 102.084C132.708 102.833 132.519 103.621 132.444 104.425C132.917 103.791 133.296 103.092 133.568 102.349L133.006 102.084ZM152.47 116.883C152.17 117.661 151.981 118.478 151.907 119.309C152.888 117.95 153.499 116.358 153.678 114.689C153.175 115.354 152.768 116.087 152.47 116.866V116.883Z" fill="white"/>
<path d="M141.113 131.976C141.748 131.536 142.457 131.181 143.126 130.797C143.795 130.414 144.509 130.013 145.2 129.618C146.606 128.823 148.011 128.051 149.439 127.283C152.25 125.755 155.101 124.21 157.962 122.732C158.75 122.32 159.537 121.92 160.335 121.531C161.133 121.142 162.022 120.775 162.876 120.369C162.886 120.368 162.895 120.37 162.903 120.375C162.911 120.38 162.918 120.387 162.922 120.396C162.925 120.405 162.926 120.415 162.924 120.424C162.922 120.433 162.917 120.442 162.91 120.448C162.224 120.848 161.561 121.311 160.875 121.711C160.189 122.112 159.452 122.535 158.738 122.929C157.329 123.708 155.91 124.473 154.482 125.225C151.671 126.714 148.86 128.214 146.049 129.641L143.643 130.848C142.817 131.265 141.996 131.733 141.13 132.072C141.113 132.089 141.046 132.027 141.113 131.976Z" fill="#263238"/>
<path d="M122.476 113.928C134.547 128.654 141.788 137.949 141.788 137.949L150.912 133.064L116.618 98.9875C114.251 100.809 115.707 105.677 122.476 113.928Z" fill="#263238"/>
<path d="M148.292 194.151L72.5974 198.945C72.5974 198.945 79.6081 125.772 105.947 99.2131C109.202 95.9363 117.023 96.1393 122.251 98.3502C124.123 99.1342 131.202 107.854 133.596 116.398C135.991 124.943 148.478 193.881 148.292 194.151Z" fill="#FF8473"/>
<path d="M98.5206 120.696C97.7529 121.025 97.0355 121.462 96.3898 121.993C97.2181 121.869 98.0233 121.622 98.7792 121.26C99.5484 120.934 100.266 120.497 100.91 119.963C100.083 120.093 99.2785 120.339 98.5206 120.696ZM135.879 126.787C135.847 126.808 135.816 126.833 135.789 126.861C135.821 126.864 135.853 126.864 135.885 126.861C135.885 126.861 135.879 126.776 135.879 126.759V126.787ZM116.938 139.432C116.17 139.761 115.453 140.197 114.808 140.729C115.633 140.606 116.438 140.367 117.197 140.019C117.964 139.69 118.679 139.254 119.322 138.721C118.497 138.839 117.694 139.079 116.938 139.432ZM108.618 171.546C107.851 171.877 107.136 172.316 106.493 172.849C107.319 172.73 108.124 172.491 108.882 172.138C109.648 171.806 110.363 171.368 111.007 170.836C110.181 170.957 109.376 171.196 108.618 171.546ZM89.9189 150.678C89.1543 151.01 88.4392 151.447 87.7938 151.975C88.6205 151.857 89.4254 151.617 90.1831 151.265C90.9488 150.935 91.6642 150.498 92.3083 149.968C91.4807 150.098 90.6761 150.347 89.9189 150.706V150.678ZM77.14 195.42C76.373 195.748 75.6572 196.185 75.0149 196.718C75.8416 196.599 76.6465 196.359 77.4042 196.007C78.1708 195.676 78.8864 195.238 79.5294 194.704C78.7007 194.833 77.8956 195.084 77.14 195.449V195.42ZM110.4 190.564C109.633 190.892 108.917 191.329 108.275 191.862C109.101 191.74 109.906 191.501 110.664 191.151C111.43 190.818 112.145 190.38 112.789 189.848C111.96 189.975 111.155 190.226 110.4 190.593V190.564ZM147.86 191.32C147.328 191.465 146.809 191.653 146.308 191.884C145.544 192.217 144.829 192.653 144.183 193.181C145.009 193.062 145.814 192.822 146.572 192.471C147.042 192.261 147.497 192.018 147.933 191.743C147.899 191.596 147.86 191.455 147.86 191.32ZM130.763 169.285C129.995 169.615 129.277 170.054 128.632 170.587C129.449 170.462 130.243 170.223 130.993 169.877C131.762 169.548 132.48 169.109 133.124 168.574C132.304 168.695 131.505 168.935 130.752 169.285H130.763ZM105.582 108.452C105.254 107.682 104.816 106.964 104.283 106.32C104.406 107.146 104.645 107.951 104.992 108.711C105.32 109.482 105.757 110.202 106.29 110.849C106.171 110.019 105.932 109.212 105.582 108.452ZM94.2647 194.49C93.9385 193.719 93.503 192.999 92.9716 192.352C93.0912 193.181 93.3298 193.989 93.68 194.749C94.0076 195.52 94.443 196.24 94.9731 196.887C94.8588 196.056 94.62 195.248 94.2647 194.49ZM89.6153 173.537C89.2836 172.77 88.8444 172.054 88.311 171.411C88.4347 172.237 88.6732 173.042 89.0194 173.802C89.3484 174.573 89.7878 175.291 90.3237 175.934C90.1996 175.106 89.9611 174.299 89.6153 173.537ZM117.624 159.144C117.294 158.375 116.859 157.655 116.331 157.006C116.448 157.836 116.687 158.644 117.04 159.403C117.365 160.175 117.801 160.895 118.333 161.541C118.21 160.713 117.971 159.906 117.624 159.144ZM105.728 132.636C105.399 131.865 104.961 131.145 104.429 130.498C104.546 131.328 104.785 132.136 105.138 132.895C105.466 133.667 105.903 134.387 106.436 135.033C106.314 134.213 106.076 133.416 105.728 132.664V132.636ZM123.567 193.638C123.667 194.332 123.856 195.011 124.129 195.657L124.804 195.612C124.477 194.913 124.061 194.259 123.567 193.666V193.638ZM144.031 176.532C143.701 175.762 143.261 175.044 142.727 174.4C142.854 175.226 143.092 176.03 143.435 176.791C143.765 177.56 144.203 178.278 144.734 178.923C144.615 178.097 144.378 177.291 144.031 176.532ZM127.058 115.761C126.726 114.995 126.289 114.279 125.759 113.635C125.883 114.462 126.124 115.267 126.473 116.026C126.797 116.797 127.233 117.515 127.766 118.158C127.645 117.329 127.407 116.522 127.058 115.761ZM120.312 104.007C119.537 103.704 118.723 103.514 117.894 103.443C118.563 103.942 119.3 104.343 120.081 104.633C120.857 104.934 121.67 105.124 122.499 105.197C121.829 104.699 121.093 104.298 120.312 104.007ZM99.1165 162.46C98.3443 162.144 97.5296 161.944 96.6991 161.868C97.37 162.368 98.1082 162.771 98.8917 163.064C99.6678 163.362 100.481 163.552 101.309 163.628C100.646 163.135 99.9151 162.741 99.139 162.46H99.1165ZM80.7887 183.486C80.0134 183.173 79.1974 182.974 78.3656 182.894C79.7215 183.879 81.3108 184.492 82.9757 184.671C82.3132 184.176 81.5845 183.777 80.8112 183.486H80.7887ZM132.281 185.178C131.506 184.865 130.69 184.666 129.858 184.586C131.214 185.571 132.803 186.184 134.468 186.363C133.805 185.869 133.076 185.47 132.303 185.178H132.281ZM128.677 153.899C127.903 153.593 127.089 153.403 126.26 153.335C126.928 153.835 127.664 154.236 128.447 154.525C129.222 154.833 130.035 155.032 130.864 155.117C130.206 154.606 129.477 154.196 128.7 153.899H128.677ZM121.796 127.594C121.022 127.287 120.208 127.097 119.378 127.03C120.046 127.529 120.783 127.928 121.565 128.214C122.339 128.527 123.153 128.726 123.983 128.806C123.325 128.297 122.595 127.889 121.818 127.594H121.796ZM91.077 136.945C90.7724 137.721 90.5829 138.538 90.5148 139.37C91.4886 138.005 92.0982 136.413 92.2858 134.745C91.7766 135.414 91.3693 136.156 91.077 136.945ZM118.968 179.081C118.663 179.858 118.474 180.675 118.406 181.506C118.904 180.835 119.306 180.097 119.598 179.313C119.894 178.534 120.084 177.718 120.16 176.887C119.662 177.557 119.264 178.296 118.979 179.081H118.968ZM131.932 139.505C131.628 140.286 131.438 141.107 131.37 141.942C132.351 140.579 132.962 138.983 133.141 137.311C132.639 137.982 132.236 138.72 131.944 139.505H131.932ZM100.095 182.533C99.7901 183.311 99.6007 184.13 99.5326 184.964C100.028 184.288 100.428 183.545 100.719 182.759C101.019 181.981 101.208 181.164 101.281 180.333C100.786 181.006 100.39 181.747 100.106 182.533H100.095ZM79.0571 162.641C78.757 163.42 78.5677 164.239 78.4949 165.072C78.995 164.4 79.3947 163.659 79.6811 162.872C79.9868 162.096 80.1762 161.279 80.2434 160.447C79.7535 161.121 79.3582 161.859 79.0683 162.641H79.0571ZM105.132 149.139C104.825 149.916 104.635 150.735 104.57 151.569C105.55 150.208 106.16 148.614 106.341 146.945C105.833 147.612 105.426 148.352 105.132 149.139ZM113.048 117.656C112.752 118.437 112.563 119.255 112.486 120.087C112.985 119.416 113.387 118.678 113.678 117.893C113.977 117.113 114.166 116.295 114.24 115.462C113.744 116.134 113.345 116.873 113.054 117.656H113.048Z" fill="white"/>
<path d="M107.044 101.323C108.889 105.554 111.815 109.222 115.527 111.954C117.34 113.355 119.46 114.298 121.712 114.706C122.896 114.941 124.123 114.817 125.237 114.351C126.271 113.788 127.144 112.969 127.772 111.971C128.502 110.867 129.06 109.657 129.425 108.384C129.853 106.96 130.178 105.506 130.398 104.035C130.395 104.029 130.394 104.021 130.395 104.014C130.396 104.007 130.399 104 130.403 103.994C130.407 103.988 130.412 103.983 130.419 103.98C130.425 103.976 130.432 103.975 130.44 103.975C130.447 103.975 130.454 103.976 130.461 103.98C130.467 103.983 130.473 103.988 130.477 103.994C130.481 104 130.483 104.007 130.484 104.014C130.485 104.021 130.484 104.029 130.482 104.035C130.28 105.428 130.19 106.855 129.88 108.209C129.626 109.432 129.21 110.616 128.643 111.728C128.1 112.797 127.333 113.736 126.395 114.481C125.384 115.225 124.15 115.6 122.898 115.541C120.457 115.427 118.098 114.621 116.095 113.217C114.102 111.9 112.327 110.279 110.833 108.412C109.137 106.295 107.807 103.908 106.897 101.351C106.894 101.331 106.898 101.311 106.909 101.295C106.92 101.278 106.937 101.267 106.956 101.263C106.976 101.26 106.996 101.264 107.012 101.275C107.029 101.286 107.04 101.303 107.044 101.323Z" fill="#263238"/>
<path d="M123.572 112.163C119.142 112.907 112.087 105.722 109.484 100.104C109.309 99.7209 110.13 95.8349 110.912 91.0804C111.373 88.1871 111.822 84.9553 112.036 81.9774C112.075 81.3627 130.364 87.7415 130.364 87.7415C130.364 87.7415 128.115 93.8665 127.811 99.061C127.794 99.4715 127.811 99.8828 127.862 100.29C127.865 100.358 127.865 100.426 127.862 100.494C128.076 102.834 127.856 111.435 123.572 112.163Z" fill="#AD6359"/>
<path d="M125.934 100.465C126.572 100.521 127.213 100.521 127.851 100.465C127.851 100.386 127.851 100.319 127.851 100.262C127.796 99.8549 127.781 99.4431 127.806 99.0327C128.115 93.8383 130.347 87.7189 130.347 87.7189C130.347 87.7189 115.505 82.5357 112.536 81.9604C112.879 85.4572 114.971 99.4952 125.934 100.465Z" fill="#263238"/>
<path d="M109.382 61.5944C107.437 68.244 111.153 87.42 115.91 91.6105C122.802 97.7299 133.979 98.1924 139.134 89.9185C144.132 81.8871 138.847 57.0373 133.546 53.2134C125.743 47.5621 112.25 51.7526 109.382 61.5944Z" fill="#AD6359"/>
<path d="M127.542 73.2297C127.542 73.1789 127.457 73.3087 127.468 73.3594C127.75 74.6454 127.862 76.1794 126.783 76.8111C126.749 76.8111 126.783 76.8957 126.783 76.8788C128.182 76.4107 128.019 74.3972 127.542 73.2297Z" fill="#263238"/>
<path d="M126.142 72.1017C124.045 72.3386 124.669 76.5291 126.614 76.3092C128.559 76.0892 127.901 71.9043 126.142 72.1017Z" fill="#263238"/>
<path d="M135.457 71.8649C135.457 71.8141 135.57 71.91 135.575 71.9607C135.727 73.2692 136.138 74.7356 137.358 74.9894C137.397 74.9894 137.403 75.0627 137.358 75.0627C135.896 75.0797 135.396 73.1226 135.457 71.8649Z" fill="#263238"/>
<path d="M136.413 70.3307C138.471 69.8626 139.258 74.0249 137.352 74.4649C135.446 74.9048 134.687 70.7255 136.413 70.3307Z" fill="#263238"/>
<path d="M124.208 70.4323C124.731 70.1855 125.241 69.9126 125.737 69.6145C126.316 69.4032 126.81 69.0069 127.142 68.4865C127.215 68.3023 127.225 68.0992 127.171 67.9086C127.117 67.718 127.003 67.5504 126.844 67.4318C126.13 66.9694 125.321 67.1837 124.596 67.539C123.855 67.8762 123.267 68.48 122.948 69.231C122.889 69.4047 122.88 69.5918 122.924 69.7701C122.967 69.9485 123.061 70.1106 123.194 70.2371C123.326 70.3636 123.492 70.4493 123.672 70.4839C123.852 70.5185 124.038 70.5006 124.208 70.4323Z" fill="#263238"/>
<path d="M137.74 67.9789C137.162 67.9495 136.586 67.8893 136.014 67.7984C135.399 67.8172 134.794 67.633 134.294 67.2739C134.157 67.1308 134.072 66.9461 134.051 66.749C134.031 66.5519 134.077 66.3535 134.181 66.1854C134.67 65.4917 135.502 65.3845 136.301 65.4409C137.109 65.4793 137.876 65.8145 138.454 66.3828C138.576 66.5209 138.657 66.6916 138.685 66.8743C138.713 67.057 138.687 67.244 138.612 67.4127C138.536 67.5813 138.414 67.7245 138.259 67.825C138.105 67.9254 137.924 67.9789 137.74 67.9789Z" fill="#263238"/>
<path d="M128.183 85.023C128.537 85.2768 128.913 85.6491 129.386 85.6209C129.866 85.5386 130.324 85.3561 130.729 85.0851C130.737 85.0788 130.747 85.0755 130.758 85.0757C130.768 85.0759 130.778 85.0795 130.786 85.0861C130.793 85.0927 130.799 85.1018 130.801 85.1118C130.803 85.1219 130.801 85.1323 130.797 85.1415C130.65 85.4254 130.429 85.6641 130.158 85.832C129.887 85.9998 129.575 86.0906 129.256 86.0946C128.982 86.0652 128.723 85.9545 128.512 85.7768C128.3 85.599 128.147 85.3621 128.07 85.0964C128.031 85.0287 128.126 84.9835 128.183 85.023Z" fill="#263238"/>
<path d="M128.958 80.9283C129.363 81.3939 129.86 81.7702 130.418 82.0333C130.975 82.2964 131.581 82.4406 132.197 82.4567C132.734 82.476 133.272 82.419 133.793 82.2875C133.893 82.2706 133.991 82.2442 134.086 82.2086C134.181 82.2086 134.266 82.1578 134.367 82.124C134.434 82.0996 134.491 82.0538 134.529 81.9937C134.568 81.9336 134.586 81.8625 134.58 81.7912C134.575 81.7466 134.564 81.703 134.547 81.6615V81.5487C134.423 80.5448 134.097 79.0389 134.097 79.0389C134.49 79.163 136.469 79.727 136.346 79.2081C135.446 74.9217 134.445 70.1841 132.641 66.0838C132.632 66.0532 132.611 66.0273 132.583 66.012C132.555 65.9966 132.522 65.9931 132.492 66.002C132.461 66.011 132.435 66.0318 132.42 66.0598C132.405 66.0879 132.401 66.1208 132.41 66.1515C133.113 70.3025 134.541 74.3069 135.317 78.4636C134.61 78.2564 133.878 78.1482 133.141 78.1421C133.006 78.2042 133.821 81.0411 133.838 81.4979C133.842 81.5147 133.842 81.532 133.838 81.5487C132.197 82.0112 130.859 81.6953 129.065 80.8099C128.953 80.7365 128.868 80.8381 128.958 80.9283Z" fill="#263238"/>
<path d="M133.13 81.8703C132.687 82.6673 132.049 83.3372 131.275 83.816C130.845 84.0617 130.35 84.1662 129.858 84.115C128.784 84.0022 128.621 83.0546 128.688 82.2086C128.727 81.761 128.819 81.3197 128.964 80.8945C130.213 81.6577 131.673 81.9997 133.13 81.8703Z" fill="#263238"/>
<path d="M131.275 83.816C130.845 84.0617 130.35 84.1662 129.858 84.1149C128.784 84.0021 128.621 83.0546 128.688 82.2086C129.813 82.1578 131.022 82.7444 131.275 83.816Z" fill="#FF97B8"/>
<path d="M130.994 57.7197C130.453 58.8117 129.644 59.7474 128.642 60.4382C127.641 61.1291 126.48 61.5522 125.27 61.6677C122.87 61.8707 120.182 60.8442 118.794 58.8082C118.754 58.7462 118.659 58.8082 118.698 58.8703C120.182 61.0473 122.634 62.5362 125.31 62.2542C126.584 62.0929 127.794 61.5992 128.819 60.8223C129.844 60.0455 130.648 59.0127 131.151 57.8269C131.185 57.6915 131.038 57.6182 130.994 57.7197Z" fill="#263238"/>
<path d="M120.677 44.4149C117.613 44.3021 114.768 46.4284 113.61 49.2033C112.952 50.8657 112.727 52.6691 112.958 54.4429C112.958 54.4578 112.964 54.4722 112.974 54.4827C112.985 54.4933 112.999 54.4993 113.014 54.4993C113.029 54.4993 113.043 54.4933 113.054 54.4827C113.065 54.4722 113.07 54.4578 113.07 54.4429C112.936 51.6229 114.004 48.4419 116.253 46.6145C117.262 45.7323 118.52 45.1876 119.852 45.0562C121.184 44.9247 122.524 45.2132 123.685 45.8813C124.972 46.6321 125.964 47.8025 126.496 49.1977C126.51 49.2254 126.534 49.247 126.563 49.2586C126.592 49.2702 126.624 49.2709 126.653 49.2606C126.683 49.2503 126.707 49.2297 126.723 49.2026C126.738 49.1755 126.744 49.1437 126.738 49.1131C126.333 47.7988 125.534 46.642 124.449 45.801C123.364 44.96 122.047 44.4759 120.677 44.4149Z" fill="#263238"/>
<path d="M143.924 46.0843C142.838 44.3658 141.181 43.0874 139.247 42.4747C136.565 41.6175 133.99 42.4747 131.449 43.4053C131.381 43.4053 131.421 43.5351 131.488 43.5125C133.653 42.7398 135.89 42.0799 138.195 42.6157C140.092 43.0553 141.778 44.1393 142.968 45.6839C144.149 47.2818 144.715 49.2531 144.563 51.2361C144.411 53.219 143.552 55.0805 142.142 56.4789C141.309 57.2617 140.325 57.8657 139.251 58.2536C138.177 58.6415 137.035 58.8053 135.896 58.7349C135.806 58.7349 135.772 58.8646 135.868 58.8702C137.425 59.0254 138.994 58.743 140.4 58.0546C141.807 57.3661 142.994 56.2988 143.83 54.972C144.666 53.6452 145.118 52.1112 145.134 50.5416C145.151 48.972 144.732 47.4287 143.924 46.0843Z" fill="#263238"/>
<path d="M108.994 63.3033C108.994 63.3033 108.027 57.6182 109.084 55.5652C110.141 53.5123 113.25 52.373 113.25 52.373C113.25 52.373 114.032 47.1842 118.473 45.825C122.459 44.6067 126.029 47.5564 126.029 47.5564C126.029 47.5564 130.347 40.6644 137.493 42.3564C144.273 43.9525 145.645 53.4333 140.439 57.7705C136.784 60.8161 130.246 58.515 130.246 58.515C129.723 58.7236 124.989 63.4387 119.564 59.502C119.564 59.502 116.461 63.3597 113.79 61.758C113.807 61.7805 111.21 63.8504 108.994 63.3033Z" fill="#263238"/>
<path opacity="0.2" d="M112.098 56.5748C112.553 59.4907 113.784 67.8097 113.138 69.8458C112.491 71.8818 111.097 77.1326 110.169 77.6966C108.86 71.4926 108.399 64.9559 109.382 61.5944C109.926 59.7484 110.851 58.0381 112.098 56.5748Z" fill="#263238"/>
<path d="M112.778 76.9859C112.778 76.9859 108.28 70.9285 105.509 72.5585C102.737 74.1885 106.285 83.0771 109.619 84.1995C110.035 84.374 110.483 84.4619 110.934 84.4579C111.386 84.4539 111.832 84.358 112.246 84.1762C112.659 83.9943 113.032 83.7301 113.341 83.3997C113.65 83.0692 113.889 82.6794 114.043 82.2537L112.778 76.9859Z" fill="#AD6359"/>
<path d="M106.583 75.0796C106.571 75.0796 106.559 75.0843 106.551 75.0928C106.542 75.1013 106.538 75.1127 106.538 75.1247C106.538 75.1367 106.542 75.1482 106.551 75.1566C106.559 75.1651 106.571 75.1698 106.583 75.1698C108.916 76.0328 110.203 78.1421 111.12 80.3417C110.411 79.507 109.461 79.0671 108.342 79.9244C108.28 79.9695 108.342 80.0597 108.41 80.0428C108.811 79.9009 109.247 79.8871 109.656 80.0032C110.066 80.1193 110.43 80.3597 110.698 80.6914C111.135 81.2518 111.512 81.8567 111.822 82.4962C111.935 82.6992 112.306 82.5808 112.222 82.3439C112.221 82.3251 112.221 82.3063 112.222 82.2875C112.171 79.3378 109.753 75.277 106.583 75.0796Z" fill="#263238"/>
<path d="M160.408 143.374C157.411 143.938 158.21 139.962 155.433 139.703C152.655 139.443 151.823 142.523 150.114 142.083C148.405 141.643 149.631 138.569 146.229 138.541C142.828 138.513 142.052 143.211 139.994 144.294C137.937 145.377 133.512 143.538 132.984 147.3C132.455 151.062 140.051 152.314 145.504 154.948C150.957 157.582 156.855 161.586 161.774 161.304C167.048 160.971 169.341 157.525 173.378 156.978C177.415 156.431 186.691 158.935 190.643 155.388C194.596 151.84 200.977 148.981 201.072 145.134C201.168 141.288 196.13 142.98 194.517 142.794C192.903 142.607 193.055 138.36 189.952 137.768C186.848 137.176 186.084 139.105 183.385 139.297C180.687 139.488 179.529 134.221 175.745 135.168C171.961 136.116 172.934 138.259 171.298 139.195C169.662 140.131 166.48 138.005 164.27 138.981C162.061 139.957 163.079 142.895 160.408 143.374Z" fill="#455A64"/>
<path d="M172.636 145.895C175.762 146.048 174.446 142.224 177.246 141.609C180.046 140.994 181.283 143.95 182.975 143.301C184.667 142.652 183.02 139.759 186.483 139.291C189.946 138.823 191.335 143.397 193.572 144.203C195.81 145.01 200.088 142.624 201.112 146.29C202.135 149.956 194.534 152.167 189.305 155.478C184.077 158.788 178.573 163.515 173.513 163.836C168.093 164.18 165.31 161.05 161.144 161.016C156.979 160.982 147.809 164.66 143.328 161.642C138.847 158.625 131.983 156.611 131.393 152.81C130.802 149.009 136.16 150.035 137.779 149.646C139.398 149.257 138.713 145.061 141.799 144.079C144.886 143.098 145.914 144.908 148.692 144.756C151.469 144.604 151.981 139.24 155.961 139.68C159.941 140.12 159.211 142.387 161.021 143.104C162.831 143.82 165.788 141.31 168.161 141.976C170.533 142.641 169.853 145.76 172.636 145.895Z" fill="#37474F"/>
<path d="M138.353 145.709C135.699 147.503 134.249 151.739 136.385 155.765C138.521 159.792 143.93 159.279 146.505 157.514C149.08 155.749 151.255 151.344 149.057 147.587C147.174 144.328 143.002 142.568 138.353 145.709Z" fill="#FF8473"/>
<path opacity="0.1" d="M138.353 145.709C135.699 147.503 134.249 151.739 136.385 155.765C138.521 159.792 143.93 159.279 146.505 157.514C149.08 155.749 151.255 151.344 149.057 147.587C147.174 144.328 143.002 142.568 138.353 145.709Z" fill="black"/>
<path d="M139.14 146.764C136.975 148.225 135.767 151.688 137.538 154.976C139.309 158.264 143.722 157.847 145.813 156.403C147.905 154.959 149.698 151.366 147.905 148.292C146.353 145.63 142.946 144.198 139.14 146.764Z" fill="#FF8473"/>
<path d="M143.671 148.591C143.862 148.744 144.548 148.168 144.172 147.898C143.795 147.627 143.424 148.4 143.671 148.591Z" fill="white"/>
<path d="M145.273 152.365C145.178 152.584 145.903 153.109 146.072 152.675C146.24 152.24 145.403 152.071 145.273 152.365Z" fill="white"/>
<path d="M146.881 150.898C146.921 151.135 147.815 151.175 147.719 150.718C147.623 150.261 146.831 150.588 146.881 150.898Z" fill="white"/>
<path d="M143.626 146.939C143.862 146.899 143.907 146.008 143.452 146.098C142.997 146.189 143.311 146.99 143.626 146.939Z" fill="white"/>
<path d="M139.348 150.063C139.41 149.832 138.611 149.426 138.51 149.883C138.409 150.34 139.264 150.374 139.348 150.063Z" fill="white"/>
<path d="M141.259 155.049C141.063 154.908 140.405 155.512 140.793 155.765C141.181 156.019 141.518 155.235 141.259 155.049Z" fill="white"/>
<path d="M142.828 154.745C142.592 154.705 142.266 155.54 142.727 155.596C143.188 155.653 143.143 154.795 142.828 154.745Z" fill="white"/>
<path d="M141.181 151.214C141.349 151.045 140.855 150.295 140.545 150.65C140.236 151.005 140.956 151.44 141.181 151.214Z" fill="white"/>
<path d="M136.368 151.834C136.368 151.834 140.725 151.349 141.299 152.235C141.872 153.12 138.774 157.012 138.263 156.668C137.751 156.324 135.896 153.312 136.368 151.834Z" fill="#FF8473"/>
<path opacity="0.1" d="M136.368 151.834C136.368 151.834 140.725 151.349 141.299 152.235C141.872 153.12 138.774 157.012 138.263 156.668C137.751 156.324 135.896 153.312 136.368 151.834Z" fill="black"/>
<path d="M143.817 157.632C143.817 157.632 142.53 153.425 143.295 152.697C144.059 151.97 148.439 154.293 148.203 154.863C147.966 155.433 145.352 157.818 143.817 157.632Z" fill="#FF8473"/>
<path opacity="0.1" d="M143.817 157.632C143.817 157.632 142.53 153.425 143.295 152.697C144.059 151.97 148.439 154.293 148.203 154.863C147.966 155.433 145.352 157.818 143.817 157.632Z" fill="black"/>
<path d="M149.366 149.883C149.366 149.883 145.105 150.921 144.425 150.114C143.744 149.308 146.319 145.038 146.87 145.331C147.421 145.625 149.642 148.332 149.366 149.883Z" fill="#FF8473"/>
<path opacity="0.1" d="M149.366 149.883C149.366 149.883 145.105 150.921 144.425 150.114C143.744 149.308 146.319 145.038 146.87 145.331C147.421 145.625 149.642 148.332 149.366 149.883Z" fill="black"/>
<path d="M142.142 144.767C142.142 144.767 143.182 149.043 142.378 149.725C141.574 150.407 137.318 147.824 137.605 147.272C137.892 146.719 140.624 144.485 142.142 144.767Z" fill="#FF8473"/>
<path opacity="0.1" d="M142.142 144.767C142.142 144.767 143.182 149.043 142.378 149.725C141.574 150.407 137.318 147.824 137.605 147.272C137.892 146.719 140.624 144.485 142.142 144.767Z" fill="black"/>
<path d="M161.229 135.777C158.103 135.089 154.049 136.962 152.621 141.293C151.193 145.625 155.298 149.189 158.362 149.855C161.426 150.52 166.086 149.043 167.284 144.852C168.318 141.226 166.705 136.984 161.229 135.777Z" fill="#FF8473"/>
<path opacity="0.1" d="M161.229 135.777C158.103 135.089 154.049 136.962 152.621 141.293C151.193 145.625 155.298 149.189 158.362 149.855C161.426 150.52 166.086 149.043 167.284 144.852C168.318 141.226 166.705 136.984 161.229 135.777Z" fill="black"/>
<path d="M161.015 137.052C158.468 136.488 155.157 138.022 153.988 141.564C152.818 145.106 156.175 148.022 158.676 148.557C161.178 149.093 164.99 147.898 165.985 144.474C166.811 141.524 165.49 138.061 161.015 137.052Z" fill="#FF8473"/>
<path d="M162.825 141.626C162.825 141.869 163.736 141.97 163.674 141.508C163.613 141.045 162.792 141.31 162.825 141.626Z" fill="white"/>
<path d="M161.218 145.394C160.987 145.478 161.111 146.364 161.538 146.189C161.965 146.014 161.51 145.286 161.218 145.394Z" fill="white"/>
<path d="M163.382 145.546C163.236 145.743 163.821 146.414 164.085 146.031C164.349 145.647 163.568 145.292 163.382 145.546Z" fill="white"/>
<path d="M163.984 140.436C164.175 140.588 164.855 140.002 164.473 139.737C164.09 139.471 163.731 140.255 163.984 140.436Z" fill="white"/>
<path d="M158.778 139.505C158.991 139.387 158.727 138.53 158.333 138.772C157.94 139.015 158.502 139.658 158.778 139.505Z" fill="white"/>
<path d="M156.506 144.339C156.473 144.096 155.579 144.034 155.663 144.491C155.747 144.948 156.546 144.649 156.506 144.339Z" fill="white"/>
<path d="M157.805 145.264C157.67 145.061 156.844 145.405 157.119 145.777C157.395 146.149 157.979 145.512 157.805 145.264Z" fill="white"/>
<path d="M159.211 141.632C159.452 141.632 159.649 140.757 159.211 140.769C158.772 140.78 158.896 141.626 159.211 141.632Z" fill="white"/>
<path d="M155.444 138.563C155.444 138.563 158.817 141.383 158.564 142.421C158.311 143.459 153.375 143.888 153.268 143.279C153.161 142.669 154.044 139.246 155.444 138.563Z" fill="#FF8473"/>
<path opacity="0.1" d="M155.444 138.563C155.444 138.563 158.817 141.383 158.564 142.421C158.311 143.459 153.375 143.888 153.268 143.279C153.161 142.669 154.044 139.246 155.444 138.563Z" fill="black"/>
<path d="M156.411 147.977C156.411 147.977 158.553 144.136 159.604 144.187C160.655 144.237 162.005 149.026 161.431 149.263C160.858 149.499 157.333 149.223 156.411 147.977Z" fill="#FF8473"/>
<path opacity="0.1" d="M156.411 147.977C156.411 147.977 158.553 144.136 159.604 144.187C160.655 144.237 162.005 149.026 161.431 149.263C160.858 149.499 157.333 149.223 156.411 147.977Z" fill="black"/>
<path d="M165.85 146.64C165.85 146.64 162.156 144.26 162.269 143.211C162.381 142.162 167.228 141.096 167.407 141.682C167.587 142.269 167.121 145.8 165.85 146.64Z" fill="#FF8473"/>
<path opacity="0.1" d="M165.85 146.64C165.85 146.64 162.156 144.26 162.269 143.211C162.381 142.162 167.228 141.096 167.407 141.682C167.587 142.269 167.121 145.8 165.85 146.64Z" fill="black"/>
<path d="M164.529 137.875C164.529 137.875 162.162 141.581 161.116 141.468C160.071 141.355 159.008 136.499 159.593 136.313C160.177 136.127 163.68 136.578 164.529 137.875Z" fill="#FF8473"/>
<path opacity="0.1" d="M164.529 137.875C164.529 137.875 162.162 141.581 161.116 141.468C160.071 141.355 159.008 136.499 159.593 136.313C160.177 136.127 163.68 136.578 164.529 137.875Z" fill="black"/>
<path d="M170.044 156.431C172.4 158.602 176.841 159.025 180.248 156.002C183.655 152.979 181.89 147.819 179.574 145.709C177.257 143.6 172.484 142.517 169.353 145.535C166.643 148.151 165.912 152.63 170.044 156.431Z" fill="#FF8473"/>
<path opacity="0.1" d="M170.044 156.431C172.4 158.602 176.841 159.025 180.248 156.002C183.655 152.979 181.89 147.819 179.574 145.709C177.257 143.6 172.484 142.517 169.353 145.535C166.643 148.151 165.912 152.63 170.044 156.431Z" fill="black"/>
<path d="M170.876 155.416C172.799 157.187 176.431 157.531 179.214 155.066C181.997 152.601 180.557 148.383 178.652 146.651C176.746 144.92 172.861 144.046 170.303 146.51C168.099 148.648 167.503 152.308 170.876 155.416Z" fill="#FF8473"/>
<path d="M171.596 150.588C171.697 150.368 170.977 149.832 170.803 150.261C170.629 150.689 171.472 150.859 171.596 150.588Z" fill="white"/>
<path d="M174.874 148.123C175.11 148.168 175.436 147.339 174.986 147.272C174.536 147.204 174.559 148.067 174.874 148.123Z" fill="white"/>
<path d="M173.074 146.899C173.299 146.809 173.131 145.929 172.709 146.127C172.287 146.324 172.788 147.023 173.074 146.899Z" fill="white"/>
<path d="M169.999 151.005C169.909 150.78 169.032 150.943 169.223 151.366C169.415 151.789 170.123 151.293 169.999 151.005Z" fill="white"/>
<path d="M174.03 154.446C173.788 154.446 173.586 155.309 174.03 155.303C174.474 155.297 174.345 154.451 174.03 154.446Z" fill="white"/>
<path d="M178.415 151.411C178.325 151.637 179.062 152.139 179.219 151.705C179.377 151.27 178.533 151.118 178.415 151.411Z" fill="white"/>
<path d="M177.752 149.956C177.752 150.199 178.657 150.317 178.601 149.855C178.545 149.392 177.73 149.64 177.752 149.956Z" fill="white"/>
<path d="M174.716 152.387C174.508 152.263 173.901 152.923 174.311 153.143C174.722 153.363 174.992 152.551 174.716 152.387Z" fill="white"/>
<path d="M176.442 156.939C176.442 156.939 174.952 152.799 175.677 152.032C176.403 151.265 180.895 153.38 180.687 153.955C180.479 154.53 177.988 157.051 176.442 156.939Z" fill="#FF8473"/>
<path opacity="0.1" d="M176.442 156.939C176.442 156.939 174.952 152.799 175.677 152.032C176.403 151.265 180.895 153.38 180.687 153.955C180.479 154.53 177.988 157.051 176.442 156.939Z" fill="black"/>
<path d="M180.321 148.332C180.321 148.332 176.543 150.588 175.661 149.996C174.778 149.404 176.004 144.604 176.611 144.705C177.218 144.807 180.141 146.77 180.321 148.332Z" fill="#FF8473"/>
<path opacity="0.1" d="M180.321 148.332C180.321 148.332 176.543 150.588 175.661 149.996C174.778 149.404 176.004 144.604 176.611 144.705C177.218 144.807 180.141 146.77 180.321 148.332Z" fill="black"/>
<path d="M171.512 144.717C171.512 144.717 173.513 148.631 172.895 149.482C172.276 150.334 167.548 148.811 167.683 148.213C167.818 147.616 169.971 144.801 171.512 144.717Z" fill="#FF8473"/>
<path opacity="0.1" d="M171.512 144.717C171.512 144.717 173.513 148.631 172.895 149.482C172.276 150.334 167.548 148.811 167.683 148.213C167.818 147.616 169.971 144.801 171.512 144.717Z" fill="black"/>
<path d="M168.24 152.951C168.24 152.951 172.147 150.943 172.996 151.569C173.845 152.195 172.327 156.933 171.725 156.798C171.124 156.662 168.324 154.502 168.24 152.951Z" fill="#FF8473"/>
<path opacity="0.1" d="M168.24 152.951C168.24 152.951 172.147 150.943 172.996 151.569C173.845 152.195 172.327 156.933 171.725 156.798C171.124 156.662 168.324 154.502 168.24 152.951Z" fill="black"/>
<path d="M187.214 149.342C189.57 151.513 194.011 151.93 197.418 148.907C200.825 145.884 199.06 140.729 196.743 138.614C194.427 136.499 189.654 135.422 186.522 138.439C183.841 141.056 183.082 145.512 187.214 149.342Z" fill="#FF8473"/>
<path opacity="0.1" d="M187.214 149.342C189.57 151.513 194.011 151.93 197.418 148.907C200.825 145.884 199.06 140.729 196.743 138.614C194.427 136.499 189.654 135.422 186.522 138.439C183.841 141.056 183.082 145.512 187.214 149.342Z" fill="black"/>
<path d="M188.046 148.332C189.969 150.103 193.601 150.447 196.383 147.977C199.166 145.506 197.727 141.293 195.821 139.567C193.915 137.842 190.031 136.956 187.472 139.426C185.269 141.564 184.673 145.213 188.046 148.332Z" fill="#FF8473"/>
<path d="M188.766 143.476C188.867 143.256 188.147 142.726 187.973 143.154C187.799 143.583 188.631 143.764 188.766 143.476Z" fill="white"/>
<path d="M192.043 141.034C192.279 141.073 192.605 140.244 192.156 140.182C191.706 140.12 191.712 141 192.043 141.034Z" fill="white"/>
<path d="M190.244 139.81C190.469 139.714 190.3 138.834 189.879 139.032C189.457 139.229 189.957 139.934 190.244 139.81Z" fill="white"/>
<path d="M187.169 143.91C187.079 143.685 186.202 143.854 186.393 144.271C186.584 144.689 187.293 144.204 187.169 143.91Z" fill="white"/>
<path d="M191.2 147.351C190.958 147.351 190.756 148.219 191.2 148.208C191.644 148.197 191.515 147.362 191.2 147.351Z" fill="white"/>
<path d="M195.585 144.322C195.495 144.548 196.232 145.05 196.389 144.61C196.546 144.17 195.703 144.029 195.585 144.322Z" fill="white"/>
<path d="M194.922 142.861C194.922 143.104 195.827 143.222 195.771 142.765C195.714 142.308 194.899 142.545 194.922 142.861Z" fill="white"/>
<path d="M191.886 145.298C191.678 145.174 191.071 145.828 191.481 146.053C191.891 146.279 192.161 145.461 191.886 145.298Z" fill="white"/>
<path d="M193.612 149.844C193.612 149.844 192.122 145.704 192.847 144.942C193.572 144.181 198.064 146.285 197.856 146.866C197.648 147.447 195.158 149.956 193.612 149.844Z" fill="#FF8473"/>
<path opacity="0.1" d="M193.612 149.844C193.612 149.844 192.122 145.704 192.847 144.942C193.572 144.181 198.064 146.285 197.856 146.866C197.648 147.447 195.158 149.956 193.612 149.844Z" fill="black"/>
<path d="M197.491 141.22C197.491 141.22 193.713 143.476 192.83 142.912C191.948 142.348 193.173 137.52 193.78 137.616C194.388 137.712 197.334 139.68 197.491 141.22Z" fill="#FF8473"/>
<path opacity="0.1" d="M197.491 141.22C197.491 141.22 193.713 143.476 192.83 142.912C191.948 142.348 193.173 137.52 193.78 137.616C194.388 137.712 197.334 139.68 197.491 141.22Z" fill="black"/>
<path d="M188.681 137.616C188.681 137.616 190.683 141.53 190.064 142.382C189.446 143.233 184.718 141.716 184.853 141.113C184.988 140.509 187.141 137.706 188.681 137.616Z" fill="#FF8473"/>
<path opacity="0.1" d="M188.681 137.616C188.681 137.616 190.683 141.53 190.064 142.382C189.446 143.233 184.718 141.716 184.853 141.113C184.988 140.509 187.141 137.706 188.681 137.616Z" fill="black"/>
<path d="M185.409 145.862C185.409 145.862 189.317 143.854 190.165 144.474C191.014 145.095 189.496 149.838 188.895 149.702C188.293 149.567 185.494 147.413 185.409 145.862Z" fill="#FF8473"/>
<path opacity="0.1" d="M185.409 145.862C185.409 145.862 189.317 143.854 190.165 144.474C191.014 145.095 189.496 149.838 188.895 149.702C188.293 149.567 185.494 147.413 185.409 145.862Z" fill="black"/>
<path d="M129.875 153.086L146.336 175.584L189.322 172.866L202.838 148.473L129.875 153.086Z" fill="#EBEBEB"/>
<path d="M95.5353 115.518C85.2526 142.968 76.842 172.872 83.2062 178.839C88.3447 183.65 131.022 190.683 140.36 190.045C144.329 189.786 148.36 159.025 141.484 157.948C139.528 157.644 108.876 156.939 108.573 156.256C107.566 154.147 108.37 139.235 108.747 121.463C109.219 98.621 99.8868 103.9 95.5353 115.518Z" fill="#AD6359"/>
<path d="M138.246 189.786C149.361 191.106 163.118 193.429 174.682 188.336C175.98 187.801 177.061 186.843 177.752 185.618C182.975 183.43 183.515 180.294 183.515 180.294C187.754 176.758 187.866 173.481 187.866 173.481C187.866 173.481 193.966 170.841 192.988 166.876C191.903 162.421 183.543 167 177.415 166.701C163.36 166.008 141.512 160.966 137.498 160.362L138.246 189.786Z" fill="#AD6359"/>
<path d="M162.201 176.335C166.339 176.453 170.404 176.684 174.536 176.239C179.073 175.754 183.357 174.547 187.748 173.385C187.762 173.38 187.776 173.379 187.79 173.38C187.805 173.381 187.819 173.385 187.831 173.391C187.844 173.398 187.856 173.407 187.865 173.418C187.874 173.429 187.881 173.442 187.886 173.455C187.89 173.469 187.892 173.484 187.891 173.498C187.89 173.512 187.886 173.526 187.879 173.539C187.873 173.552 187.864 173.563 187.853 173.573C187.842 173.582 187.829 173.589 187.815 173.594C180.192 176.921 170.387 177.897 162.19 176.521C161.993 176.493 161.993 176.329 162.201 176.335Z" fill="#263238"/>
<path d="M160.554 184.783C164.585 184.676 171.675 184.445 183.487 180.147C183.526 180.147 183.56 180.192 183.52 180.215C176.212 184.028 168.706 185.443 160.56 184.975C160.307 184.958 160.284 184.789 160.554 184.783Z" fill="#263238"/>
<path d="M159.75 189.335C166.604 188.895 170.865 187.744 177.741 185.578C177.774 185.578 177.808 185.629 177.769 185.646C170.218 188.934 167.087 189.267 159.733 189.594C159.48 189.583 159.48 189.352 159.75 189.335Z" fill="#263238"/>
<path d="M160.537 164.789C158.744 163.972 159.154 163.024 162.561 162.189C165.968 161.355 180.136 160.943 179.574 155.985C179.011 151.028 159.244 152.838 153.465 153.729C147.401 154.761 141.656 157.184 136.677 160.808C140.602 161.428 152.852 163.492 160.537 164.789Z" fill="#AD6359"/>
<path d="M109.433 149.686L79.5294 156.363C79.5294 156.363 89.7559 124.751 96.3955 112.422C103.367 99.5742 109.765 99.1174 110.192 118.44C110.569 137.526 109.433 149.686 109.433 149.686Z" fill="#FF8473"/>
<path d="M83.3805 150.447C84.1113 150.199 84.8872 150.052 85.6293 149.883L87.9455 149.319C89.5141 148.941 91.0883 148.591 92.6624 148.247C95.8052 147.565 98.9535 146.866 102.107 146.234C102.979 146.065 103.845 145.89 104.716 145.743C105.588 145.597 106.566 145.489 107.482 145.331C107.538 145.331 107.544 145.405 107.482 145.416C106.706 145.608 105.947 145.867 105.171 146.065C104.396 146.262 103.586 146.459 102.788 146.629C101.214 146.982 99.6394 147.326 98.0652 147.661C94.9619 148.309 91.881 148.975 88.7439 149.556L86.1296 150.041C85.2245 150.21 84.3025 150.436 83.3805 150.52C83.3523 150.532 83.3299 150.464 83.3805 150.447Z" fill="#263238"/>
<path d="M86.3433 138.219C87.0629 136.183 87.7207 134.136 88.4122 132.094C89.1936 129.776 89.902 127.436 90.661 125.106C90.661 125.05 90.5767 125.016 90.5542 125.073C89.6153 127.554 86.4164 135.822 85.9104 137.227C84.4318 141.316 82.9532 145.405 81.5083 149.505C80.6988 151.806 79.8217 154.463 79.0234 156.764C78.9672 156.933 81.3678 156.279 82.6271 155.901C82.6946 155.901 82.7396 155.647 82.6552 155.67C81.4634 155.94 79.8442 156.115 79.6643 156.16C81.1991 152.269 82.6721 148.349 84.1169 144.418C84.8703 142.357 85.6124 140.291 86.3433 138.219Z" fill="#263238"/>
<path d="M105.132 149.138C104.928 149.662 104.768 150.201 104.654 150.752L105.143 150.644C105.364 150.233 105.561 149.809 105.734 149.375C106.031 148.597 106.22 147.781 106.296 146.95C105.804 147.619 105.412 148.356 105.132 149.138ZM91.077 136.945C90.7724 137.721 90.5829 138.538 90.5148 139.37C91.4886 138.005 92.0982 136.413 92.2858 134.745C91.7766 135.414 91.3693 136.156 91.077 136.945ZM105.694 132.664C105.365 131.893 104.927 131.174 104.396 130.526C104.513 131.356 104.751 132.164 105.104 132.923C105.432 133.695 105.87 134.415 106.403 135.061C106.294 134.234 106.067 133.426 105.728 132.664H105.694ZM105.548 108.451C105.22 107.682 104.782 106.964 104.249 106.32C104.372 107.146 104.611 107.951 104.958 108.711C105.286 109.482 105.723 110.202 106.257 110.848C106.148 110.021 105.921 109.214 105.582 108.451H105.548ZM89.8852 150.706C89.1206 151.038 88.4054 151.475 87.76 152.004C88.5867 151.885 89.3917 151.645 90.1494 151.293C90.9151 150.963 91.6305 150.526 92.2745 149.996C91.4599 150.12 90.6669 150.36 89.9189 150.706H89.8852ZM98.5206 120.696C97.7529 121.025 97.0355 121.462 96.3898 121.993C97.2181 121.869 98.0233 121.622 98.7792 121.26C99.5484 120.934 100.266 120.497 100.91 119.963C100.083 120.092 99.2785 120.339 98.5206 120.696Z" fill="white"/>
<path opacity="0.8" d="M147.297 249.728C147.297 252.091 126.867 252.063 126.873 249.694L126.974 225.769C127.414 225.735 127.846 225.627 128.25 225.448C128.314 225.419 128.368 225.373 128.406 225.315C128.444 225.256 128.464 225.188 128.464 225.118C128.464 225.048 128.444 224.98 128.406 224.921C128.368 224.862 128.314 224.816 128.25 224.788C127.843 224.596 127.412 224.462 126.968 224.387V223.102C127.41 223.069 127.843 222.963 128.25 222.786C128.313 222.753 128.365 222.705 128.402 222.644C128.438 222.584 128.458 222.515 128.458 222.444C128.458 222.374 128.438 222.305 128.402 222.245C128.365 222.184 128.313 222.135 128.25 222.103C127.837 221.932 127.408 221.805 126.968 221.725V220.439C127.41 220.403 127.843 220.294 128.25 220.118C128.313 220.087 128.366 220.038 128.403 219.979C128.439 219.919 128.459 219.85 128.459 219.78C128.459 219.709 128.439 219.64 128.403 219.58C128.366 219.521 128.313 219.472 128.25 219.441C127.839 219.263 127.409 219.135 126.968 219.058V217.755C127.407 217.714 127.839 217.611 128.25 217.45C128.313 217.419 128.366 217.371 128.403 217.311C128.439 217.251 128.459 217.182 128.459 217.112C128.459 217.042 128.439 216.973 128.403 216.913C128.366 216.853 128.313 216.805 128.25 216.773C127.836 216.602 127.407 216.47 126.968 216.379V210.97C126.968 209.069 133.265 203.029 134.237 202.104L134.367 201.985V200.513H140.051V201.985C140.051 201.985 147.427 208.934 147.427 211.009V216.412C146.988 216.507 146.559 216.641 146.145 216.813C146.084 216.837 146.032 216.88 145.999 216.937C145.952 217.008 145.93 217.093 145.937 217.178C145.944 217.263 145.98 217.343 146.038 217.405C146.064 217.443 146.102 217.473 146.145 217.49C146.554 217.651 146.984 217.753 147.421 217.794V219.097C146.997 219.172 146.582 219.293 146.184 219.458H146.139C146.076 219.489 146.024 219.538 145.987 219.597C145.95 219.657 145.93 219.726 145.93 219.796C145.93 219.867 145.95 219.936 145.987 219.996C146.024 220.055 146.076 220.104 146.139 220.135L146.24 220.174C146.619 220.332 147.019 220.429 147.427 220.462V221.748C147.072 221.811 146.723 221.907 146.387 222.036L146.145 222.126C146.082 222.157 146.029 222.205 145.992 222.265C145.955 222.325 145.936 222.394 145.936 222.464C145.936 222.535 145.955 222.603 145.992 222.663C146.029 222.723 146.082 222.771 146.145 222.803C146.24 222.851 146.34 222.889 146.443 222.915C146.76 223.03 147.091 223.1 147.427 223.124V224.41C147.132 224.461 146.843 224.537 146.561 224.636C146.409 224.692 146.269 224.754 146.151 224.81C146.087 224.839 146.033 224.885 145.995 224.944C145.957 225.002 145.937 225.071 145.937 225.14C145.937 225.21 145.957 225.279 145.995 225.337C146.033 225.396 146.087 225.442 146.151 225.47C146.307 225.539 146.469 225.596 146.634 225.64C146.894 225.718 147.162 225.769 147.432 225.792V238.2L147.297 249.728Z" fill="white"/>
<path opacity="0.8" d="M145.639 213.643L145.611 236.045L145.543 247.889C145.543 249.83 128.722 249.813 128.728 247.856L128.829 213.846C130.251 214.354 133.568 215.386 136.441 215.082C139.314 214.777 142.98 213.756 145.611 213.536C145.626 213.57 145.636 213.606 145.639 213.643Z" fill="#EBEBEB"/>
<path d="M141.244 196.904L133.204 196.893C133.046 196.893 132.917 197.021 132.917 197.18L132.913 200.226C132.913 200.384 133.041 200.513 133.199 200.514L141.239 200.525C141.397 200.525 141.526 200.396 141.526 200.238L141.53 197.192C141.53 197.033 141.402 196.904 141.244 196.904Z" fill="#FF8473"/>
<path d="M28.4812 230.4C29.1806 230.395 29.8644 230.191 30.4527 229.812C31.041 229.432 31.5096 228.893 31.8039 228.256C31.8039 228.256 33.2993 229.717 35.7393 228.708C38.1793 227.698 40.7317 221.551 38.9214 216.435C37.1111 211.32 32.3548 210.113 28.5262 214.111C23.3483 212.211 19.5872 215.397 20.2281 220.789C20.869 226.181 25.8614 230.58 28.4812 230.4Z" fill="#FF8473"/>
<path d="M24.1354 208.28C25.475 208.676 26.6809 209.433 27.6224 210.468C28.5639 211.503 29.205 212.776 29.4763 214.151C29.7237 215.414 27.7897 215.877 27.5199 214.602C27.0982 212.47 25.2711 211.523 23.2022 210.902C21.9653 210.53 22.8929 207.907 24.1354 208.28Z" fill="#37474F"/>
<path d="M28.1664 215.448C28.1664 215.448 28.5431 209.566 34.1876 208.798C33.9446 210.377 33.2442 211.849 32.1736 213.031C31.103 214.214 29.7095 215.054 28.1664 215.448Z" fill="#37474F"/>
<path d="M47.4106 229.401C47.8498 229.95 48.436 230.362 49.1003 230.587C49.7646 230.813 50.4794 230.844 51.1605 230.676C51.1605 230.676 50.9413 232.763 53.2407 234.06C55.5401 235.357 61.938 233.569 64.8277 228.984C67.7174 224.399 65.7216 219.898 60.2233 219.345C58.5367 214.089 53.6905 213.091 49.8618 216.926C46.0332 220.761 45.6397 227.427 47.4106 229.401Z" fill="#FF8473"/>
<path d="M62.0617 212.301C62.5789 213.602 62.7313 215.021 62.5024 216.402C62.2735 217.784 61.6719 219.077 60.763 220.14C59.9253 221.122 58.3568 219.864 59.2001 218.883C60.6112 217.23 60.2289 215.211 59.4306 213.186C58.9527 211.985 61.5838 211.094 62.0617 212.301Z" fill="#37474F"/>
<path d="M58.9527 219.892C58.9527 219.892 63.7989 216.553 67.8861 220.535C66.4981 221.318 64.9114 221.675 63.3231 221.56C61.7348 221.446 60.2151 220.866 58.9527 219.892Z" fill="#37474F"/>
<path d="M43.7001 233.034C43.0105 232.918 42.3679 232.607 41.8472 232.139C41.3266 231.671 40.9495 231.064 40.7598 230.388C40.7598 230.388 39.0732 231.595 36.7906 230.214C34.5081 228.832 32.9957 222.351 35.5875 217.586C38.1793 212.82 43.0648 212.385 46.2188 216.937C51.6328 215.888 54.843 219.633 53.3588 224.833C51.8745 230.033 46.2806 233.626 43.7001 233.034Z" fill="#FF8473"/>
<path opacity="0.1" d="M43.7001 233.034C43.0105 232.918 42.3679 232.607 41.8472 232.139C41.3266 231.671 40.9495 231.064 40.7598 230.388C40.7598 230.388 39.0732 231.595 36.7906 230.214C34.5081 228.832 32.9957 222.351 35.5875 217.586C38.1793 212.82 43.0648 212.385 46.2188 216.937C51.6328 215.888 54.843 219.633 53.3588 224.833C51.8745 230.033 46.2806 233.626 43.7001 233.034Z" fill="black"/>
<path d="M51.481 211.878C50.0984 212.06 48.7917 212.618 47.7019 213.49C46.612 214.363 45.7804 215.518 45.2968 216.83C44.8526 218.037 46.7079 218.804 47.1576 217.586C47.9054 215.55 49.8562 214.901 52.0038 214.619C53.2688 214.45 52.7628 211.709 51.481 211.878Z" fill="#37474F"/>
<path d="M46.3762 218.268C46.3762 218.268 46.9384 212.403 41.4794 210.75C41.4696 212.347 41.9288 213.912 42.7996 215.249C43.6704 216.586 44.9143 217.636 46.3762 218.268Z" fill="#37474F"/>
<path d="M73.4351 232.024C72.764 232.224 72.0502 232.229 71.3765 232.038C70.7027 231.848 70.0968 231.469 69.6289 230.947C69.6289 230.947 68.6282 232.785 65.9915 232.537C63.3547 232.289 59.1326 227.157 59.3743 221.731C59.6161 216.305 63.8101 213.762 68.6395 216.458C73.0359 213.124 77.5616 215.07 78.5174 220.406C79.4731 225.741 76.01 231.421 73.4351 232.024Z" fill="#FF8473"/>
<path opacity="0.1" d="M73.4351 232.024C72.764 232.224 72.0502 232.229 71.3765 232.038C70.7027 231.848 70.0968 231.469 69.6289 230.947C69.6289 230.947 68.6282 232.785 65.9915 232.537C63.3547 232.289 59.1326 227.157 59.3743 221.731C59.6161 216.305 63.8101 213.762 68.6395 216.458C73.0359 213.124 77.5616 215.07 78.5174 220.406C79.4731 225.741 76.01 231.421 73.4351 232.024Z" fill="black"/>
<path d="M71.1413 209.594C69.9807 210.369 69.0531 211.447 68.4587 212.713C67.8642 213.978 67.6254 215.382 67.768 216.773C67.8973 218.059 69.8988 217.901 69.7695 216.632C69.5502 214.472 71.0176 213.034 72.8222 211.827C73.8792 211.111 72.2207 208.877 71.1413 209.594Z" fill="#37474F"/>
<path d="M69.3703 217.603C69.3703 217.603 67.2958 212.087 61.6738 213.012C62.3666 214.45 63.4656 215.652 64.834 216.468C66.2025 217.284 67.78 217.679 69.3703 217.603Z" fill="#37474F"/>
<path d="M78.4162 224.32C78.4162 224.32 73.272 243.648 66.5424 243.648H30.9212C24.1748 243.648 19.0531 224.32 19.0531 224.32H78.4162Z" fill="#EBEBEB"/>
<path d="M227.518 225.685C232.865 218.917 232.691 217.546 232.617 216.948C232.617 216.79 229.835 201.027 224.848 201.027H215.037C215.071 199.132 215.127 197.676 215.172 197.349C215.369 195.905 216.061 194.529 217.162 194.529C218.264 194.529 218.287 193.17 217.162 193.17H196.681C195.585 193.17 195.585 194.529 196.681 194.529C197.778 194.529 201.871 196.114 202.483 196.915C203.096 197.716 203.27 209.599 203.119 212.295C202.967 214.991 190.587 221.928 188.822 230.056C187.056 238.183 191.363 249.762 209.123 249.762C226.883 249.762 231.184 238.183 229.43 230.056C229.056 228.497 228.409 227.017 227.518 225.685ZM215.15 212.312C215.004 211.229 214.976 207.845 215.004 204.563H224.668C226.236 205.787 228.705 214.517 229.115 217.168C228.783 218.037 227.097 220.473 225.337 222.769C221.126 217.935 215.369 214.106 215.127 212.312H215.15Z" fill="white"/>
<path d="M227.518 225.685C228.508 224.416 229.48 223.13 230.386 221.799C230.835 221.133 231.274 220.456 231.662 219.757C232.081 219.073 232.388 218.327 232.572 217.546C232.608 217.148 232.57 216.746 232.46 216.362L232.213 215.183C232.044 214.393 231.857 213.609 231.65 212.831C231.251 211.274 230.79 209.729 230.256 208.212C229.734 206.693 229.061 205.231 228.249 203.847C227.848 203.16 227.35 202.535 226.771 201.991C226.493 201.717 226.165 201.501 225.804 201.355C225.443 201.208 225.057 201.135 224.668 201.139H215.032H214.902V201.01L214.987 198.675L215.026 197.513C215.052 197.118 215.125 196.728 215.245 196.351C215.357 195.965 215.526 195.598 215.746 195.262C215.967 194.905 216.296 194.629 216.685 194.473C216.784 194.436 216.888 194.413 216.994 194.405H217.281C217.442 194.392 217.593 194.322 217.708 194.208C217.756 194.152 217.792 194.087 217.812 194.016C217.831 193.945 217.835 193.87 217.822 193.797C217.809 193.725 217.78 193.656 217.737 193.596C217.694 193.536 217.638 193.487 217.573 193.452C217.227 193.345 216.864 193.311 216.505 193.351H213.036H208.403H199.138H196.828C196.457 193.351 196.142 193.441 196.057 193.728C196.04 193.799 196.038 193.872 196.052 193.943C196.066 194.014 196.095 194.081 196.137 194.139C196.179 194.198 196.234 194.247 196.297 194.282C196.36 194.317 196.43 194.338 196.501 194.343C196.642 194.343 196.884 194.343 197.064 194.4C197.244 194.456 197.452 194.479 197.626 194.524C198.008 194.625 198.379 194.738 198.75 194.868C199.487 195.12 200.209 195.412 200.915 195.742C201.271 195.911 201.619 196.099 201.955 196.306C202.13 196.414 202.298 196.534 202.455 196.667C202.547 196.747 202.622 196.845 202.674 196.954C202.718 197.054 202.75 197.158 202.77 197.265C202.915 198.036 203.01 198.816 203.057 199.6C203.169 201.151 203.225 202.696 203.27 204.247C203.315 205.798 203.344 207.349 203.349 208.9C203.349 209.673 203.349 210.451 203.349 211.229C203.349 211.618 203.349 211.991 203.304 212.408C203.216 212.826 203.023 213.215 202.742 213.536C201.729 214.724 200.617 215.824 199.419 216.824C198.261 217.851 197.103 218.872 195.984 219.932C193.764 222.058 191.61 224.32 190.149 227.021C189.406 228.359 188.934 229.831 188.76 231.353C188.555 232.874 188.572 234.417 188.811 235.933L188.889 236.497C188.929 236.683 188.979 236.869 189.024 237.061L189.3 238.189L189.704 239.266L189.907 239.802L190.165 240.315L190.694 241.336C190.896 241.657 191.127 241.967 191.34 242.283C191.774 242.915 192.261 243.507 192.797 244.054C193.057 244.334 193.336 244.594 193.634 244.832L194.506 245.577C195.152 245.989 195.771 246.445 196.434 246.823C197.097 247.201 197.795 247.534 198.509 247.81C199.223 248.087 199.948 248.374 200.684 248.566C203.659 249.358 206.732 249.715 209.809 249.626L212.114 249.536C212.878 249.463 213.643 249.344 214.402 249.249C215.16 249.144 215.912 248.991 216.651 248.792C217.022 248.701 217.404 248.628 217.775 248.515L218.86 248.132C221.785 247.156 224.391 245.401 226.399 243.056C226.647 242.763 226.844 242.43 227.069 242.12C227.304 241.815 227.512 241.49 227.693 241.15L228.255 240.129C228.426 239.783 228.574 239.427 228.699 239.063C229.259 237.619 229.593 236.097 229.688 234.551C229.791 233.007 229.681 231.456 229.362 229.943C228.996 228.428 228.372 226.987 227.518 225.685ZM227.518 225.685C228.384 226.973 229.025 228.399 229.413 229.903C229.747 231.421 229.872 232.977 229.784 234.528C229.698 236.082 229.374 237.613 228.823 239.068C228.704 239.438 228.557 239.798 228.384 240.146L227.822 241.183C227.642 241.526 227.435 241.854 227.203 242.165C226.979 242.481 226.782 242.819 226.529 243.118C224.527 245.521 221.903 247.323 218.945 248.324L217.848 248.713C217.477 248.826 217.095 248.899 216.724 248.995C215.984 249.195 215.233 249.351 214.475 249.463C213.705 249.559 212.94 249.683 212.17 249.756L209.848 249.858C206.745 249.954 203.643 249.603 200.639 248.814C199.897 248.594 199.172 248.307 198.435 248.053C197.699 247.799 197.03 247.387 196.327 247.055C195.624 246.722 195.017 246.214 194.359 245.797L193.471 245.035C193.165 244.795 192.877 244.531 192.611 244.246C192.064 243.686 191.564 243.083 191.116 242.441C190.896 242.12 190.666 241.804 190.458 241.477L189.896 240.433L189.626 239.914L189.418 239.35L189.007 238.256L188.715 237.128C188.67 236.936 188.614 236.75 188.574 236.564L188.496 236C188.246 234.453 188.223 232.878 188.428 231.325C188.606 229.759 189.088 228.244 189.845 226.863C190.592 225.492 191.488 224.208 192.515 223.034C193.526 221.849 194.599 220.719 195.731 219.65C196.856 218.578 198.014 217.552 199.166 216.52C200.339 215.535 201.428 214.454 202.421 213.288C202.647 213.018 202.807 212.7 202.888 212.357C202.922 212.002 202.922 211.596 202.933 211.229C202.933 210.457 202.933 209.684 202.933 208.911C202.933 207.366 202.933 205.815 202.871 204.27C202.809 202.724 202.776 201.179 202.669 199.639C202.627 198.882 202.539 198.129 202.405 197.383C202.405 197.287 202.354 197.208 202.332 197.135C202.296 197.073 202.25 197.018 202.197 196.971C202.058 196.854 201.912 196.747 201.758 196.65C201.433 196.454 201.097 196.277 200.752 196.12C200.059 195.793 199.35 195.503 198.627 195.251C197.914 194.974 197.167 194.799 196.406 194.732C196.288 194.716 196.175 194.676 196.072 194.615C195.97 194.554 195.881 194.473 195.81 194.377C195.735 194.278 195.685 194.162 195.664 194.039C195.642 193.917 195.65 193.791 195.686 193.672C195.723 193.556 195.785 193.449 195.866 193.359C195.947 193.268 196.047 193.196 196.159 193.147C196.36 193.067 196.577 193.032 196.794 193.046H199.11H208.375H213.008H217.056C217.274 193.034 217.491 193.08 217.685 193.181C217.791 193.238 217.882 193.319 217.951 193.416C218.02 193.514 218.066 193.627 218.084 193.745C218.103 193.863 218.095 193.983 218.06 194.096C218.024 194.21 217.964 194.313 217.882 194.4C217.724 194.563 217.512 194.665 217.286 194.687C217.096 194.684 216.906 194.711 216.724 194.766C216.389 194.897 216.107 195.135 215.92 195.443C215.715 195.756 215.558 196.098 215.453 196.458C215.261 197.194 215.173 197.954 215.195 198.714L215.11 201.021L214.981 200.891H224.617C225.458 200.886 226.266 201.215 226.866 201.805C227.46 202.365 227.97 203.009 228.378 203.717C229.186 205.118 229.851 206.598 230.363 208.133C230.891 209.661 231.336 211.212 231.724 212.78C231.915 213.559 232.095 214.348 232.286 215.138L232.522 216.322C232.63 216.717 232.662 217.128 232.617 217.535C232.43 218.324 232.115 219.076 231.684 219.763C231.285 220.468 230.841 221.139 230.386 221.799C229.497 223.147 228.519 224.421 227.518 225.685Z" fill="#263238"/>
<path d="M215.127 212.312C215.049 211.669 215.032 211.026 215.004 210.378L214.959 208.438V204.563V204.523H214.998L224.662 204.405H224.724L224.758 204.439L225.078 204.76C225.168 204.879 225.247 205.003 225.331 205.121C225.49 205.36 225.637 205.606 225.77 205.86C226.028 206.368 226.253 206.886 226.473 207.405C226.894 208.454 227.265 209.52 227.597 210.592C227.929 211.664 228.266 212.741 228.547 213.829C228.828 214.918 229.109 216.018 229.278 217.14V217.191V217.236C229.037 217.76 228.753 218.264 228.429 218.742C228.12 219.216 227.794 219.678 227.462 220.14C226.802 221.054 226.124 221.957 225.427 222.848L225.331 222.966L225.23 222.853C223.624 221.011 221.906 219.271 220.086 217.642C219.181 216.819 218.264 216.006 217.376 215.166C216.932 214.743 216.493 214.32 216.089 213.858C215.643 213.432 215.313 212.9 215.127 212.312ZM215.127 212.312C215.315 212.896 215.645 213.424 216.089 213.846C216.499 214.303 216.943 214.726 217.387 215.143C218.287 215.973 219.209 216.779 220.12 217.586C221.983 219.17 223.749 220.865 225.41 222.662H225.213C225.888 221.759 226.544 220.845 227.181 219.921C227.496 219.452 227.811 218.984 228.109 218.516C228.417 218.058 228.687 217.575 228.918 217.072V217.168C228.727 216.08 228.452 214.991 228.159 213.908C227.867 212.825 227.558 211.754 227.226 210.682C226.894 209.611 226.529 208.556 226.102 207.518C225.899 206.999 225.674 206.492 225.432 205.99C225.212 205.5 224.912 205.05 224.544 204.659L224.64 204.693L214.975 204.574L215.015 204.535C214.992 205.828 214.992 207.12 215.015 208.409V210.349C215.043 211.021 215.054 211.669 215.127 212.312Z" fill="#263238"/>
<path d="M208.684 247.032C193.752 247.032 190.132 237.297 191.61 230.473C193.089 223.649 205.665 216.001 205.401 213.784C205.356 213.35 205.322 204.659 205.306 203.751H212.744C212.744 204.698 212.8 213.395 212.85 213.784C213.148 215.995 224.269 223.632 225.781 230.473C227.293 237.314 223.617 247.032 208.684 247.032Z" fill="#FF8473"/>
<path d="M193.246 48.724C192.931 51.8532 191.752 54.8323 189.842 57.3267C187.932 59.821 185.367 61.732 182.434 62.8449C179.502 63.9579 176.318 64.2289 173.241 63.6274C170.163 63.026 167.314 61.5759 165.012 59.44L156.579 60.6864L160.807 53.3544C159.749 50.7735 159.35 47.968 159.649 45.1933C160.164 40.7617 162.399 36.7122 165.87 33.9231C169.342 31.1339 173.769 29.8299 178.192 30.2937C182.616 30.7576 186.678 32.9519 189.5 36.401C192.321 39.85 193.673 44.2757 193.263 48.7183L193.246 48.724Z" fill="white"/>
<path d="M193.246 48.724C192.92 51.8488 191.741 54.8229 189.839 57.3194C189.363 57.9394 188.85 58.5308 188.305 59.0903C187.742 59.6303 187.147 60.1351 186.522 60.6018C185.276 61.5416 183.904 62.301 182.446 62.8578C180.988 63.4308 179.457 63.7971 177.898 63.9464C177.117 64.0149 176.332 64.03 175.548 63.9915C174.763 63.973 173.981 63.8919 173.209 63.749C170.093 63.1719 167.199 61.7366 164.849 59.6036L165.052 59.6656L156.619 60.9684L156.006 61.0643L156.315 60.5003L160.52 53.1683V53.456C159.526 51.0288 159.099 48.4051 159.273 45.7866C159.448 43.1682 160.219 40.6247 161.527 38.352C162.844 36.0964 164.653 34.1684 166.817 32.712C168.982 31.2757 171.442 30.3491 174.015 30.0014C176.587 29.6537 179.204 29.8939 181.671 30.7042C184.114 31.538 186.342 32.9079 188.192 34.7142C190.036 36.5136 191.449 38.7094 192.325 41.1362C193.2 43.5629 193.515 46.1573 193.246 48.724ZM193.246 48.724C193.515 46.1716 193.196 43.5915 192.314 41.1821C191.433 38.7727 190.012 36.5983 188.162 34.8262C186.311 33.054 184.08 31.7314 181.64 30.9601C179.199 30.1888 176.615 29.9893 174.086 30.3771C171.58 30.7564 169.192 31.7034 167.104 33.1463C165.037 34.5999 163.31 36.488 162.044 38.6791C160.797 40.8771 160.063 43.3299 159.896 45.8532C159.74 48.3725 160.147 50.8951 161.088 53.236L161.15 53.3883L161.066 53.5236L156.816 60.8556L156.512 60.4101L164.979 59.22H165.097L165.181 59.299C167.438 61.4198 170.24 62.8671 173.271 63.4782C174.027 63.6314 174.794 63.7257 175.565 63.7602C177.886 63.9209 180.213 63.5785 182.39 62.7563C183.85 62.2293 185.223 61.4881 186.466 60.5567C187.732 59.6497 188.852 58.5542 189.789 57.3081C191.711 54.8229 192.908 51.8512 193.246 48.724Z" fill="#263238"/>
<path d="M183.605 50.1565C181.711 52.7133 179.288 54.8295 176.504 56.3605C173.722 54.8284 171.302 52.7123 169.409 50.1565C166.913 46.8402 167.036 41.6457 170.606 40.5234C174.542 39.2826 176.504 45.2497 176.504 45.2497C176.504 45.2497 178.477 39.2431 182.407 40.5234C185.966 41.6852 186.089 46.8402 183.605 50.1565Z" fill="#FF8473"/>
</svg>
