<svg width="12" height="13" viewBox="0 0 12 13" fill="none" xmlns="http://www.w3.org/2000/svg">
<mask id="mask0_133_1478" style="mask-type:alpha" maskUnits="userSpaceOnUse" x="1" y="1" width="10" height="10">
<path fill-rule="evenodd" clip-rule="evenodd" d="M1 2.36499C1 2.16608 1.07525 1.97531 1.20921 1.83466C1.34316 1.69401 1.52485 1.61499 1.71429 1.61499H10.2857C10.4752 1.61499 10.6568 1.69401 10.7908 1.83466C10.9247 1.97531 11 2.16608 11 2.36499C11 2.5639 10.9247 2.75467 10.7908 2.89532C10.6568 3.03597 10.4752 3.11499 10.2857 3.11499H1.71429C1.52485 3.11499 1.34316 3.03597 1.20921 2.89532C1.07525 2.75467 1 2.5639 1 2.36499ZM2.57396 6.11499C2.57396 5.91608 2.64922 5.72531 2.78317 5.58466C2.91713 5.44401 3.09881 5.36499 3.28825 5.36499H8.74649C8.93593 5.36499 9.1176 5.44401 9.25156 5.58466C9.38551 5.72531 9.46077 5.91608 9.46077 6.11499C9.46077 6.3139 9.38551 6.50467 9.25156 6.64532C9.1176 6.78597 8.93593 6.86499 8.74649 6.86499H3.28825C3.09881 6.86499 2.91713 6.78597 2.78317 6.64532C2.64922 6.50467 2.57396 6.3139 2.57396 6.11499ZM4.40982 9.96416C4.40982 9.76524 4.48508 9.57448 4.61903 9.43383C4.75299 9.29318 4.93467 9.21416 5.12411 9.21416H6.91203C7.10147 9.21416 7.28315 9.29318 7.4171 9.43383C7.55106 9.57448 7.62631 9.76524 7.62631 9.96416C7.62631 10.1631 7.55106 10.3538 7.4171 10.4945C7.28315 10.6351 7.10147 10.7142 6.91203 10.7142H5.12411C4.93467 10.7142 4.75299 10.6351 4.61903 10.4945C4.48508 10.3538 4.40982 10.1631 4.40982 9.96416Z" fill="#006FFD"/>
</mask>
<g mask="url(#mask0_133_1478)">
<rect x="0.00195312" y="0.114502" width="12" height="12" fill="#8F9098"/>
</g>
</svg>
