<svg width="25" height="25" viewBox="0 0 25 25" fill="none" xmlns="http://www.w3.org/2000/svg">
<rect width="24" height="24" transform="translate(0.636719 0.998779)" fill="white"/>
<mask id="mask0_4_7673" style="mask-type:alpha" maskUnits="userSpaceOnUse" x="2" y="3" width="21" height="19">
<path fill-rule="evenodd" clip-rule="evenodd" d="M2.63672 5.49878C2.63672 5.10095 2.78723 4.71942 3.05514 4.43812C3.32305 4.15681 3.68641 3.99878 4.06529 3.99878H21.2081C21.587 3.99878 21.9504 4.15681 22.2183 4.43812C22.4862 4.71942 22.6367 5.10095 22.6367 5.49878C22.6367 5.8966 22.4862 6.27813 22.2183 6.55944C21.9504 6.84074 21.587 6.99878 21.2081 6.99878H4.06529C3.68641 6.99878 3.32305 6.84074 3.05514 6.55944C2.78723 6.27813 2.63672 5.8966 2.63672 5.49878ZM2.63672 12.9988C2.63672 12.601 2.78723 12.2194 3.05514 11.9381C3.32305 11.6568 3.68641 11.4988 4.06529 11.4988H21.2081C21.587 11.4988 21.9504 11.6568 22.2183 11.9381C22.4862 12.2194 22.6367 12.601 22.6367 12.9988C22.6367 13.3966 22.4862 13.7781 22.2183 14.0594C21.9504 14.3407 21.587 14.4988 21.2081 14.4988H4.06529C3.68641 14.4988 3.32305 14.3407 3.05514 14.0594C2.78723 13.7781 2.63672 13.3966 2.63672 12.9988ZM2.63672 20.4988C2.63672 20.101 2.78723 19.7194 3.05514 19.4381C3.32305 19.1568 3.68641 18.9988 4.06529 18.9988H21.2081C21.587 18.9988 21.9504 19.1568 22.2183 19.4381C22.4862 19.7194 22.6367 20.101 22.6367 20.4988C22.6367 20.8966 22.4862 21.2781 22.2183 21.5594C21.9504 21.8407 21.587 21.9988 21.2081 21.9988H4.06529C3.68641 21.9988 3.32305 21.8407 3.05514 21.5594C2.78723 21.2781 2.63672 20.8966 2.63672 20.4988Z" fill="#006FFD"/>
</mask>
<g mask="url(#mask0_4_7673)">
<rect x="0.636719" y="0.998779" width="24" height="24" fill="#91C788"/>
</g>
</svg>
