<svg width="12" height="13" viewBox="0 0 12 13" fill="none" xmlns="http://www.w3.org/2000/svg">
<mask id="mask0_133_1304" style="mask-type:alpha" maskUnits="userSpaceOnUse" x="0" y="0" width="12" height="12">
<path fill-rule="evenodd" clip-rule="evenodd" d="M2.62822 1.15253C2.86661 0.935811 3.23067 0.935811 3.46906 1.15253L5.66906 3.15253C5.92447 3.38472 5.94329 3.78 5.7111 4.03541C5.47891 4.29082 5.08363 4.30964 4.82822 4.07745L3.67364 3.02783V10.615C3.67364 10.9602 3.39382 11.24 3.04864 11.24C2.70346 11.24 2.42364 10.9602 2.42364 10.615V3.02783L1.26906 4.07745C1.01365 4.30964 0.618366 4.29082 0.386175 4.03541C0.153983 3.78 0.172806 3.38472 0.428217 3.15253L2.62822 1.15253ZM8.95137 0.98999C9.29655 0.98999 9.57637 1.26981 9.57637 1.61499V9.20214L10.731 8.15253C10.9864 7.92034 11.3816 7.93916 11.6138 8.19457C11.846 8.44998 11.8272 8.84526 11.5718 9.07745L9.37179 11.0775C9.1334 11.2942 8.76934 11.2942 8.53095 11.0775L6.33095 9.07745C6.07554 8.84526 6.05672 8.44998 6.28891 8.19457C6.5211 7.93916 6.91638 7.92034 7.17179 8.15253L8.32637 9.20215V1.61499C8.32637 1.26981 8.60619 0.98999 8.95137 0.98999Z" fill="#006FFD"/>
</mask>
<g mask="url(#mask0_133_1304)">
<rect x="0.00195312" y="0.11499" width="12" height="12" fill="#8F9098"/>
</g>
</svg>
