<svg width="55" height="55" viewBox="0 0 55 55" fill="none" xmlns="http://www.w3.org/2000/svg">
<rect width="55" height="55" rx="16" fill="#DBDAF7"/>
<path d="M30.25 14.8125C30.25 16.3275 30.5293 17.724 31.0879 19.002C31.6465 20.2799 32.4505 21.4564 33.5 22.5312C34.5495 23.6061 35.3535 24.7826 35.9121 26.0605C36.4707 27.3385 36.75 28.735 36.75 30.25C36.75 31.1471 36.6357 32.0104 36.4072 32.8398C36.1787 33.6693 35.8486 34.4437 35.417 35.1631C34.9854 35.8825 34.4775 36.5426 33.8936 37.1436C33.3096 37.7445 32.6536 38.2523 31.9258 38.667C31.1979 39.0817 30.4193 39.4076 29.5898 39.6445C28.7604 39.8815 27.8971 40 27 40C26.1029 40 25.2396 39.8857 24.4102 39.6572C23.5807 39.4287 22.8063 39.0986 22.0869 38.667C21.3675 38.2354 20.7074 37.7275 20.1064 37.1436C19.5055 36.5596 18.9977 35.9036 18.583 35.1758C18.1683 34.4479 17.8424 33.6693 17.6055 32.8398C17.3685 32.0104 17.25 31.1471 17.25 30.25C17.25 29.5391 17.3262 28.8408 17.4785 28.1553C17.6309 27.4697 17.8509 26.8138 18.1387 26.1875C18.4264 25.5612 18.7819 24.9645 19.2051 24.3975C19.6283 23.8304 20.1064 23.3184 20.6396 22.8613C20.6989 23.1829 20.7793 23.513 20.8809 23.8516C20.9824 24.1901 21.1009 24.5286 21.2363 24.8672C21.3717 25.2057 21.5326 25.5273 21.7188 25.832C21.9049 26.1367 22.0996 26.4202 22.3027 26.6826C22.472 26.8942 22.6921 27 22.9629 27C23.1914 27 23.3818 26.9196 23.5342 26.7588C23.6865 26.598 23.7669 26.4033 23.7754 26.1748C23.7754 26.0817 23.7627 25.9971 23.7373 25.9209C23.7119 25.8447 23.6696 25.7686 23.6104 25.6924C23.3734 25.3454 23.166 25.0026 22.9883 24.6641C22.8105 24.3255 22.654 23.9785 22.5186 23.623C22.3831 23.2676 22.2858 22.8994 22.2266 22.5186C22.1673 22.1377 22.1335 21.7357 22.125 21.3125C22.125 20.3053 22.3154 19.3574 22.6963 18.4688C23.0771 17.5801 23.6019 16.8057 24.2705 16.1455C24.9391 15.4854 25.7135 14.9648 26.5938 14.584C27.474 14.2031 28.4219 14.0085 29.4375 14H30.25V14.8125ZM27 38.375C28.1257 38.375 29.1794 38.1634 30.1611 37.7402C31.1429 37.3171 32.0062 36.7373 32.751 36.001C33.4958 35.2646 34.0755 34.4056 34.4902 33.4238C34.9049 32.4421 35.1165 31.3841 35.125 30.25C35.125 28.972 34.888 27.7829 34.4141 26.6826C33.9401 25.5824 33.2546 24.5837 32.3574 23.6865C31.2572 22.5778 30.3939 21.3548 29.7676 20.0176C29.1413 18.6803 28.7689 17.2331 28.6504 15.6758C27.9479 15.7689 27.3005 15.9805 26.708 16.3105C26.1156 16.6406 25.5951 17.0596 25.1465 17.5674C24.6979 18.0752 24.3551 18.6465 24.1182 19.2812C23.8812 19.916 23.7585 20.5931 23.75 21.3125C23.75 21.9727 23.8473 22.5693 24.042 23.1025C24.2367 23.6357 24.5244 24.1689 24.9053 24.7021C25.0661 24.9222 25.1888 25.1507 25.2734 25.3877C25.3581 25.6247 25.4046 25.887 25.4131 26.1748C25.4131 26.5133 25.3496 26.8307 25.2227 27.127C25.0957 27.4232 24.918 27.6813 24.6895 27.9014C24.4609 28.1214 24.2028 28.2992 23.915 28.4346C23.6273 28.57 23.3099 28.6335 22.9629 28.625C22.5736 28.625 22.2308 28.5531 21.9346 28.4092C21.6383 28.2653 21.376 28.0706 21.1475 27.8252C20.9189 27.5798 20.7158 27.3047 20.5381 27C20.3604 26.6953 20.1911 26.3906 20.0303 26.0859C19.641 26.7038 19.3532 27.3682 19.167 28.0791C18.9808 28.79 18.8835 29.5137 18.875 30.25C18.875 31.3757 19.0866 32.4294 19.5098 33.4111C19.9329 34.3929 20.5127 35.2562 21.249 36.001C21.9854 36.7458 22.8444 37.3255 23.8262 37.7402C24.8079 38.1549 25.8659 38.3665 27 38.375Z" fill="#5A6CF3"/>
</svg>
