<svg xmlns="http://www.w3.org/2000/svg" viewBox="0 0 59.88 86.33"><defs><style>.cls-1{fill:#cef2d1;}.cls-2{fill:#91c788;}.cls-3{fill:#0d0e14;}.cls-4{fill:#87bd91;}</style></defs><g id="Layer_2" data-name="Layer 2"><g id="OBJECT"><path class="cls-1" d="M47.67,39.78a4.23,4.23,0,0,0-.51-.44L45.53,38.1a1,1,0,0,1-.15-.13,1.43,1.43,0,0,1-.3-1.57L47.91,30a4.75,4.75,0,0,0-1-5.31,4.9,4.9,0,0,0-1.56-1l-2.5-1a1.33,1.33,0,0,1-.47-.31,1.41,1.41,0,0,1-.4-1.16l.72-6.4A4.77,4.77,0,0,0,39,9.51l-2.86-.67a1.46,1.46,0,0,1-1-.88l-1-2.7a4.76,4.76,0,0,0-5.56-3,4.76,4.76,0,0,0-3.43,3.05L24.21,8a1.4,1.4,0,0,1-1,.9l-2.85.71a4.67,4.67,0,0,0-1.6.73,4.79,4.79,0,0,0-2,4.52l.82,6.39a1.43,1.43,0,0,1-.85,1.48l-2.49,1.07a4.78,4.78,0,0,0-2.47,6.38l2.92,6.4a1.41,1.41,0,0,1-.42,1.7l-1.62,1.27a4.72,4.72,0,0,0-1.84,3.47,4.78,4.78,0,0,0,1.38,3.68,4.86,4.86,0,0,0,1.19.87l4,2.08h0l3.43,10.85a10.74,10.74,0,0,1-.13,6.86l-.87,2.42a10.73,10.73,0,0,0,2.92,11.6h0A10.74,10.74,0,0,0,40,69.81l-.87-2.42A10.74,10.74,0,0,1,39,60.53l3.43-10.85h-.23l4.3-2.31a4.79,4.79,0,0,0,1.13-7.59Z"/><path class="cls-2" d="M55.55,39.78a4.23,4.23,0,0,0-.51-.44L53.41,38.1a1,1,0,0,1-.15-.13A1.43,1.43,0,0,1,53,36.4L55.79,30a4.75,4.75,0,0,0-1-5.31,4.9,4.9,0,0,0-1.56-1l-2.5-1a1.21,1.21,0,0,1-.46-.31,1.39,1.39,0,0,1-.41-1.16l.72-6.4a4.77,4.77,0,0,0-3.66-5.2l-2.86-.67a1.4,1.4,0,0,1-.68-.38,1.56,1.56,0,0,1-.33-.5l-1-2.7A5,5,0,0,0,41,3.53a4.85,4.85,0,0,0-4.46-1.26,4.76,4.76,0,0,0-3.43,3.05L32.09,8a1.4,1.4,0,0,1-1,.9l-2.85.71a4.77,4.77,0,0,0-3.59,5.25l.81,6.39a1.43,1.43,0,0,1-.85,1.48l-2.49,1.07a4.78,4.78,0,0,0-2.47,6.38l2.92,6.4a1.41,1.41,0,0,1-.42,1.7l-1.62,1.27a4.72,4.72,0,0,0-1.84,3.47,4.78,4.78,0,0,0,1.38,3.68,4.86,4.86,0,0,0,1.19.87l4,2.08h0l3.43,10.85a10.74,10.74,0,0,1-.13,6.86l-.87,2.42a10.73,10.73,0,0,0,2.92,11.6h0a10.74,10.74,0,0,0,17.29-11.6l-.87-2.42a10.74,10.74,0,0,1-.13-6.86l3.43-10.85h-.23l4.3-2.31a4.79,4.79,0,0,0,1.13-7.59Z"/><path class="cls-3" d="M29.94,86.33A12.9,12.9,0,0,1,17.8,69.08l.87-2.42a8.64,8.64,0,0,0,.11-5.48l-3.17-10L12.4,49.51a6.94,6.94,0,0,1-1.07-11.63L12.5,37,9.82,31.11a6.94,6.94,0,0,1,3.58-9.26l2-.85-.55-4.37a2.15,2.15,0,0,1,4.27-.54L19.72,21a3.57,3.57,0,0,1-2.13,3.73L15.1,25.81a2.63,2.63,0,0,0-1.36,3.51l2.91,6.39a3.56,3.56,0,0,1-1,4.3L14,41.27a2.64,2.64,0,0,0-.25,3.94,2.81,2.81,0,0,0,.65.48l4,2.08A2.13,2.13,0,0,1,19.45,49l3.43,10.85a12.88,12.88,0,0,1-.16,8.23l-.86,2.43a8.58,8.58,0,1,0,16.16,0l-.87-2.41A12.91,12.91,0,0,1,37,59.88L40.11,50a2.16,2.16,0,0,1,1.11-2.23l4.3-2.31a2.56,2.56,0,0,0,1.36-1.93,2.64,2.64,0,0,0-.73-2.24l-.28-.25-1.64-1.24a2.94,2.94,0,0,1-.37-.32,3.57,3.57,0,0,1-.75-4l2.83-6.43a2.62,2.62,0,0,0-.55-2.92,2.56,2.56,0,0,0-.86-.58l-2.5-1a3.51,3.51,0,0,1-1.16-.77,3.57,3.57,0,0,1-1-2.93l.72-6.41a2.62,2.62,0,0,0-2-2.85l-2.86-.67A3.64,3.64,0,0,1,34,10a3.43,3.43,0,0,1-.82-1.27l-1-2.7a2.67,2.67,0,0,0-.61-1,2.69,2.69,0,0,0-2.45-.68,2.56,2.56,0,0,0-1.88,1.68l-1,2.71A3.59,3.59,0,0,1,23.73,11l-2.84.71a2.15,2.15,0,1,1-1-4.18l2.46-.61.84-2.34a6.87,6.87,0,0,1,5-4.43A7,7,0,0,1,34.59,2a6.81,6.81,0,0,1,1.59,2.5l.87,2.33,2.48.57a7,7,0,0,1,3.32,1.85,6.89,6.89,0,0,1,2,5.69l-.66,5.85,2,.82a7,7,0,0,1,3.71,9.21l-2.6,5.91,1.18.88a6.31,6.31,0,0,1,.73.64,6.93,6.93,0,0,1,2,5.91,6.84,6.84,0,0,1-3.58,5.09L44.31,51,41.1,61.17a8.6,8.6,0,0,0,.1,5.49l.87,2.42A12.9,12.9,0,0,1,29.94,86.33Z"/><path class="cls-3" d="M21.26,31.72c-3.93,0-5.33-6.37-5.81-10.17A2.15,2.15,0,1,1,19.72,21c.35,2.73,1.23,5.69,1.89,6.43a2.15,2.15,0,0,1-.35,4.28Z"/><path class="cls-3" d="M38.31,31.72A2.15,2.15,0,0,1,38,27.44c.66-.74,1.54-3.7,1.88-6.43a2.16,2.16,0,0,1,4.28.54C43.64,25.35,42.25,31.72,38.31,31.72Z"/><path class="cls-3" d="M21.26,44.62c-5,0-8.16-6.35-8.5-7.08a2.15,2.15,0,1,1,3.87-1.87h0c.91,1.87,3,4.65,4.63,4.65a2.15,2.15,0,1,1,0,4.3Z"/><path class="cls-3" d="M38.31,44.62a2.15,2.15,0,0,1,0-4.3c1.79,0,3.93-3.19,4.63-4.65a2.15,2.15,0,0,1,3.88,1.87C46.47,38.27,43.27,44.62,38.31,44.62Z"/><path class="cls-1" d="M20.7,67.39a10.74,10.74,0,0,0,.13-6.86L20.34,59h0A28.52,28.52,0,0,0,2.15,52.81s14.26,8.86,17.08,19.9v0a10.7,10.7,0,0,1,.59-2.88Z"/><path class="cls-4" d="M39.18,67.39a10.74,10.74,0,0,1-.13-6.86L39.54,59h0a28.51,28.51,0,0,1,18.18-6.16s-14.25,8.86-17.07,19.9v0a10.7,10.7,0,0,0-.59-2.88Z"/><path class="cls-3" d="M19.23,74.85a2.43,2.43,0,0,1-.38,0,2.15,2.15,0,0,1-1.71-1.58C14.57,63.16,1.15,54.73,1,54.64a2.15,2.15,0,0,1,1.13-4c12.12,0,19.33,6.44,19.63,6.72a2.19,2.19,0,0,1,.61.94l.49,1.56a12.88,12.88,0,0,1-.16,8.23h0l-.86,2.42a8.1,8.1,0,0,0-.47,2.3A2.2,2.2,0,0,1,21,73.92,2.17,2.17,0,0,1,19.23,74.85ZM10,56.07a43.18,43.18,0,0,1,8.79,10.19,8.71,8.71,0,0,0,0-5.08l-.3-1A26,26,0,0,0,10,56.07Z"/><path class="cls-3" d="M40.65,74.86a2.17,2.17,0,0,1-2.16-2A8.62,8.62,0,0,0,38,70.53l-.87-2.41h0A13,13,0,0,1,37,59.88l.49-1.56a2.09,2.09,0,0,1,.6-.94c.3-.28,7.51-6.72,19.63-6.72a2.15,2.15,0,0,1,1.14,4c-.13.09-13.56,8.54-16.13,18.6A2.15,2.15,0,0,1,41,74.83Zm.75-14.64-.3,1a8.66,8.66,0,0,0,0,5.09,43.56,43.56,0,0,1,8.8-10.21A25.42,25.42,0,0,0,41.4,60.22Z"/><path class="cls-3" d="M29.93,49.08a2.15,2.15,0,0,1-2.15-2.15V24.23a2.16,2.16,0,0,1,4.31,0v22.7A2.16,2.16,0,0,1,29.93,49.08Z"/><path class="cls-3" d="M29.93,27.57a2.13,2.13,0,0,1-1.2-.36,2.17,2.17,0,0,1-.58-3l3.4-5a2.15,2.15,0,0,1,3.57,2.4l-3.4,5A2.16,2.16,0,0,1,29.93,27.57Z"/><path class="cls-3" d="M29.94,27.57a2.16,2.16,0,0,1-1.79-.95l-3.4-5a2.15,2.15,0,0,1,3.57-2.4l3.4,5a2.17,2.17,0,0,1-.58,3A2.13,2.13,0,0,1,29.94,27.57Z"/></g></g></svg>