<svg width="55" height="55" viewBox="0 0 55 55" fill="none" xmlns="http://www.w3.org/2000/svg">
<rect width="55" height="55" rx="16" fill="#D0EDFB"/>
<path fill-rule="evenodd" clip-rule="evenodd" d="M16.9995 39.7698C16.9995 40.3304 17.4414 40.7901 17.9812 40.7901H23.0736L24.1709 39.9641L25.2846 40.7901H27.7003L28.5292 39.9641L29.3597 40.7901H30.1901L31.0205 39.9641L31.8509 40.7901H34.6195C35.1593 40.7901 35.6012 40.3304 35.6012 39.7698V38.7392V38.404L26.0547 36.6294L16.9995 38.404V39.7698Z" fill="#7E707D"/>
<path fill-rule="evenodd" clip-rule="evenodd" d="M29.3978 19.3331L35.1785 17.8058C35.223 17.8058 35.266 17.7984 35.3075 17.788C35.5018 17.7316 35.6442 17.5507 35.6442 17.3402V15.4657C35.6442 15.2091 35.4351 15 35.1786 15H22.8644C22.6078 15 22.3972 15.2091 22.3972 15.4657V17.1562L29.3978 19.3331Z" fill="#2DC0FF"/>
<path fill-rule="evenodd" clip-rule="evenodd" d="M16.4656 19.962L22.6234 21.9277L28.7813 19.962C28.8243 19.962 28.8688 19.9561 28.9088 19.9442C29.103 19.8879 29.2469 19.7085 29.2469 19.4964V17.8058V17.6219C29.2469 17.3654 29.0363 17.1562 28.7813 17.1562H22.3973H16.4656C16.2091 17.1562 16 17.3654 16 17.6219V19.4964C16 19.7441 16.1972 19.9487 16.4419 19.9621H16.4656V19.962Z" fill="#2DC0FF"/>
<path fill-rule="evenodd" clip-rule="evenodd" d="M36.5869 36.9256V38.404H22.2472C20.3686 37.5461 19.158 37.0109 17.3166 34.1258C17.4154 32.1185 17.4238 30.1819 17.3155 28.0867C17.3066 27.9162 17.2972 27.7446 17.2867 27.5714C17.2752 27.3852 17.2632 27.1974 17.2501 27.008C17.1047 24.9139 16.8442 22.6346 16.4419 19.9624H28.7812C28.8257 19.9624 28.8685 19.9561 28.9088 19.9446C29.2468 20.4489 33.2028 30.5418 36.5514 36.2482C36.5686 36.2775 36.5587 36.3178 36.5618 36.3534C36.578 36.5312 36.5869 36.7211 36.5869 36.9256V36.9256Z" fill="#6BCAF8"/>
<path fill-rule="evenodd" clip-rule="evenodd" d="M17.3168 34.126C17.2501 35.4962 17.1419 36.8976 16.9995 38.4043H22.2476C21.73 36.1843 19.8408 34.126 17.3168 34.126V34.126Z" fill="#2DC0FF"/>
<path fill-rule="evenodd" clip-rule="evenodd" d="M41.9998 34.7692V36.3533L38.7878 37.5463L35.5756 36.3533C35.573 36.3177 35.5699 36.2837 35.5651 36.2491C35.5651 36.2481 35.5651 36.2481 35.5651 36.2481C35.0954 32.1106 30.1051 35.3891 28.3688 32.1043C27.943 31.2992 27.7609 29.6325 27.8692 27.3678C27.8965 26.8112 27.9399 26.2189 28.0026 25.5933C28.0152 25.4677 28.0283 25.3411 28.0424 25.213C28.057 25.0801 28.0722 24.9462 28.0879 24.8107C28.2637 23.3364 28.5352 21.7032 28.9087 19.9607C29.1028 19.9041 29.2466 19.7247 29.2466 19.5129V17.8237H35.1785C35.223 17.8237 35.2658 17.8179 35.3072 17.8059C34.7401 20.4504 34.41 22.839 34.2897 24.8118C34.2813 24.9473 34.274 25.0812 34.2677 25.213C34.2614 25.3428 34.2561 25.4699 34.252 25.5954C34.1808 27.6655 34.366 29.1905 34.7673 29.95C36.59 33.3975 41.9998 29.6131 41.9998 34.7692Z" fill="#6BCAF8"/>
<path fill-rule="evenodd" clip-rule="evenodd" d="M33.9314 40.7904H34.6195C35.1593 40.7904 35.6012 40.3307 35.6012 39.7701V38.7395V38.4043H33.9314V38.7395V40.7904Z" fill="#6A5C69"/>
<path fill-rule="evenodd" clip-rule="evenodd" d="M33.3131 17.8237C32.7111 20.6384 32.3774 23.1624 32.2795 25.2029C32.2781 25.2059 32.2781 25.2103 32.2781 25.2133H34.2681C34.366 23.1668 34.7012 20.6324 35.3077 17.8059C35.3062 17.8059 35.3047 17.8059 35.3032 17.8074C35.2632 17.8177 35.2217 17.8237 35.1786 17.8237H33.3131V17.8237Z" fill="#2DC0FF"/>
<path fill-rule="evenodd" clip-rule="evenodd" d="M32.2778 25.2131C32.1695 27.4776 32.6841 30.2241 33.1097 31.0293C34.9337 34.4772 40.0097 31.0248 40.0097 36.1826V36.3531H41.9998V34.7693V34.7678C41.9983 29.6131 36.5901 33.3976 34.7676 29.9497C34.4206 29.2942 34.2352 28.0663 34.2367 26.4099C34.2367 26.0317 34.2471 25.6328 34.2679 25.2131H32.2778Z" fill="#2DC0FF"/>
<path d="M34.29 24.8116C34.2817 24.947 34.2743 25.081 34.2681 25.2128C34.2618 25.3425 34.2565 25.4696 34.2524 25.5952H28.0427C28.0291 25.5952 28.0161 25.5947 28.003 25.5931C27.8052 25.5733 27.6504 25.4059 27.6504 25.2029C27.6504 24.9858 27.8262 24.8105 28.0427 24.8105H34.2681C34.2754 24.8105 34.2827 24.8105 34.29 24.8116V24.8116Z" fill="#7E707D"/>
<path fill-rule="evenodd" clip-rule="evenodd" d="M35.6008 36.9255V38.4039H33.9315L33.896 37.1212C33.9875 34.3512 28.4355 36.3296 26.6991 33.0417C26.2979 32.2811 26.1127 29.9181 26.1839 27.7512C26.188 27.6194 26.1933 27.4886 26.1996 27.3589H27.8694C27.8631 27.4918 27.8579 27.6225 27.8537 27.7512C27.7831 29.8176 27.9683 31.3405 28.369 32.1001C30.1053 35.3875 35.0955 32.1074 35.5653 36.248L35.5757 36.3532C35.5919 36.531 35.6008 36.721 35.6008 36.9255V36.9255Z" fill="#2DC0FF"/>
<path fill-rule="evenodd" clip-rule="evenodd" d="M28.909 19.9446C28.501 21.8498 28.2148 23.6223 28.0427 25.2032C27.9747 25.8221 27.9244 26.4116 27.891 26.9677C27.8826 27.1001 27.8758 27.2304 27.8695 27.359H26.1997C26.206 27.2304 26.2133 27.0996 26.2211 26.9667C26.2552 26.4106 26.3048 25.8221 26.3729 25.2032C26.545 23.628 26.8295 21.8604 27.2345 19.9624H28.7814C28.8258 19.9624 28.8687 19.9561 28.909 19.9446V19.9446Z" fill="#2DC0FF"/>
<path d="M27.8909 26.9676C27.8825 27.0999 27.8757 27.2302 27.8695 27.3589C27.8632 27.4918 27.8579 27.6226 27.8538 27.7512H22.4136C21.9287 27.7512 21.5991 27.7606 21.4338 27.8878C21.2575 28.0238 21.1717 28.3958 21.1717 29.0246C21.1717 29.508 20.9745 29.8783 20.6308 30.0394C20.5392 30.0823 20.4079 30.1237 20.24 30.1237C19.98 30.1237 19.6326 30.0243 19.2137 29.6764L17.3157 28.0865C17.3068 27.916 17.2973 27.7444 17.2869 27.5713C17.2753 27.385 17.2633 27.1972 17.2502 27.0079L19.7143 29.0722C20.014 29.3206 20.2269 29.362 20.2976 29.329C20.3405 29.3092 20.3871 29.205 20.3871 29.0246C20.3871 28.0986 20.5571 27.5728 20.9552 27.2663C21.3439 26.9666 21.8634 26.9666 22.4137 26.9666H27.8695C27.8768 26.9665 27.8836 26.9665 27.8909 26.9676V26.9676Z" fill="#7E707D"/>
<path fill-rule="evenodd" clip-rule="evenodd" d="M35.6011 36.9257V38.4042V38.7394H36.5888L37.4192 37.9134L38.2496 38.7394H41.0182C41.558 38.7394 41.9999 38.2797 41.9999 37.7191V36.3533H35.5759C35.5922 36.5313 35.6011 36.7211 35.6011 36.9257V36.9257Z" fill="#7E707D"/>
<path d="M40.01 36.3533V38.7394H41.0184C41.5582 38.7394 42.0001 38.2797 42.0001 37.7191V36.3533H40.01V36.3533Z" fill="#6A5C69"/>
</svg>
