<svg xmlns="http://www.w3.org/2000/svg" viewBox="0 0 81.23 65.55"><defs><style>.cls-1{fill:#bad8b2;}.cls-2{fill:#91c788;}.cls-3{fill:#0d0e14;}</style></defs><g id="Layer_2" data-name="Layer 2"><g id="OBJECT"><path class="cls-1" d="M68.36,5.38,59.6,3.94a135.36,135.36,0,0,0-43.82,0L7,5.38a5.82,5.82,0,0,0-4.88,5.73h0A5.82,5.82,0,0,0,8,16.93h3V54a9.44,9.44,0,0,0,9.44,9.44H55A9.45,9.45,0,0,0,64.45,54v-37h3a5.82,5.82,0,0,0,5.82-5.82h0A5.82,5.82,0,0,0,68.36,5.38Z"/><path class="cls-2" d="M76.35,5.38,67.59,3.94a135.36,135.36,0,0,0-43.82,0L15,5.38a5.82,5.82,0,0,0-4.88,5.73h0A5.82,5.82,0,0,0,16,16.93h3V54a9.44,9.44,0,0,0,9.44,9.44H63A9.45,9.45,0,0,0,72.44,54v-37h3a5.82,5.82,0,0,0,5.82-5.82h0A5.82,5.82,0,0,0,76.35,5.38Z"/><path class="cls-3" d="M55,65.55H20.38A11.6,11.6,0,0,1,8.79,54V39a2.15,2.15,0,0,1,4.3,0V54a7.3,7.3,0,0,0,7.29,7.29H55A7.31,7.31,0,0,0,62.3,54v-37a2.15,2.15,0,0,1,2.15-2.15h3A3.66,3.66,0,0,0,68,7.5L59.26,6.06a133.37,133.37,0,0,0-43.13,0L7.38,7.5A3.66,3.66,0,0,0,8,14.78h3a2.15,2.15,0,0,1,2.15,2.15v5.76a2.15,2.15,0,0,1-4.3,0V19.08H8A8,8,0,0,1,6.68,3.25l8.76-1.43A136.79,136.79,0,0,1,60,1.82l8.76,1.43a8,8,0,0,1-1.29,15.83H66.6V54A11.61,11.61,0,0,1,55,65.55Z"/><path class="cls-3" d="M10.94,34.26a2.15,2.15,0,0,1-2.15-2.15v-.67a2.15,2.15,0,0,1,4.3,0v.67A2.15,2.15,0,0,1,10.94,34.26Z"/><path class="cls-3" d="M53.66,48.65A2.14,2.14,0,0,1,52.14,48a2.15,2.15,0,0,1,0-3,2.24,2.24,0,0,1,3,0,2.2,2.2,0,0,1,.63,1.53A2.18,2.18,0,0,1,55.18,48,2.14,2.14,0,0,1,53.66,48.65Z"/><path class="cls-3" d="M44.48,54.1A2.15,2.15,0,0,1,43,50.43a2.21,2.21,0,0,1,3,0,2.15,2.15,0,0,1-1.52,3.67Z"/><path class="cls-3" d="M48.74,39.19a2.14,2.14,0,0,1-1.52-.63A2.18,2.18,0,0,1,46.59,37a2.14,2.14,0,0,1,.63-1.52,2.21,2.21,0,0,1,3,0A2.14,2.14,0,0,1,50.89,37a2.15,2.15,0,0,1-2.15,2.15Z"/><path class="cls-3" d="M55.4,33.59a2.14,2.14,0,0,1-1.52-3.67,2.23,2.23,0,0,1,3,0,2.15,2.15,0,0,1-1.52,3.67Z"/></g></g></svg>