<svg width="55" height="55" viewBox="0 0 55 55" fill="none" xmlns="http://www.w3.org/2000/svg">
<rect width="55" height="55" rx="16" fill="#D8F3F1"/>
<g clip-path="url(#clip0_293_2002)">
<path d="M15 11.9448L17.8065 43.1486C17.8923 44.1042 22.0496 44.9248 27.0934 44.9952C32.1372 45.0657 36.3137 44.3622 36.4232 43.4066L40 12.29L15 11.9448Z" fill="#5CE1CD"/>
<g opacity="0.64">
<path opacity="0.64" d="M37.7219 18.2361C37.7558 18.2098 37.7739 18.1847 37.7739 18.1584C37.7739 17.7248 33.1638 17.3092 27.466 17.2303C21.7683 17.1515 17.1457 17.4382 17.1378 17.8729C17.1378 17.8992 17.1548 17.9255 17.1875 17.9518H17.1062L19.4463 42.3974C19.5186 43.1475 22.9609 43.7901 27.1362 43.8486C31.3116 43.9071 34.7686 43.3577 34.8601 42.61L37.8044 18.2432L37.7219 18.2361Z" fill="white"/>
</g>
<path d="M39.9648 12.1904C39.9717 11.637 34.3975 11.1111 27.5145 11.0158C20.6314 10.9205 15.0461 11.2919 15.0393 11.8454C15.0324 12.3988 20.6066 12.9247 27.4896 13.02C34.3727 13.1153 39.958 12.7439 39.9648 12.1904Z" fill="#48918B"/>
<g opacity="0.51">
<path opacity="0.51" d="M37.8056 18.0953C37.8056 18.487 33.1503 18.7415 27.4153 18.6626C21.6803 18.5838 17.0453 18.2004 17.0498 17.8086C17.0543 17.4168 21.7051 17.1612 27.4401 17.2412C33.1751 17.3213 37.8135 17.7023 37.8056 18.0953Z" fill="white"/>
</g>
<path d="M25.762 29.5426C25.8245 28.6802 25.8685 27.8174 25.8941 26.9542C25.9088 26.4764 25.2029 26.4406 25.1883 26.9232C25.1649 27.7115 25.1273 28.4994 25.0753 29.287L23.327 29.2105C23.3429 28.6491 23.3583 28.0885 23.3733 27.5287C23.3858 27.051 22.6799 27.0151 22.6664 27.4977C22.6264 28.9501 22.5888 30.403 22.5534 31.8562C22.5399 32.334 23.2457 32.3698 23.2593 31.8873C23.2766 31.2447 23.2939 30.6013 23.3112 29.9571L25.0245 30.0323C24.9635 30.8015 24.8882 31.5688 24.7986 32.334C24.7433 32.8118 25.4492 32.8393 25.5045 32.3651C25.6016 31.5337 25.6822 30.7008 25.7462 29.8663C25.7691 29.8162 25.7822 29.7617 25.785 29.7061C25.7877 29.6505 25.7799 29.5949 25.762 29.5426V29.5426Z" fill="white"/>
<path d="M27.3509 35.0731C27.2944 35.0731 26.8381 35.0253 26.6665 35.0038C26.7615 34.9251 26.8485 34.8363 26.9262 34.7386C26.9928 34.6646 27.064 34.5953 27.1295 34.5188C27.4017 34.1987 27.605 33.8022 27.4977 33.3614C27.3068 32.5755 26.2667 32.5253 26.078 33.3387C25.9651 33.8046 26.6427 34.0351 26.7557 33.5669C26.8788 33.5669 26.8844 33.6445 26.7715 33.7962C26.7121 33.9012 26.6391 33.9969 26.5546 34.0805C26.4553 34.1916 26.3491 34.2967 26.2554 34.4137C26.0848 34.6299 25.9165 34.8987 25.9504 35.1949C26.0261 35.8554 26.8765 35.7706 27.326 35.8196C27.7755 35.8686 27.8015 35.128 27.3509 35.0731Z" fill="white"/>
<path d="M30.5245 27.5146C30.521 27.4271 30.485 27.3445 30.4244 27.2848C30.3637 27.2251 30.2832 27.1931 30.2004 27.1957C29.0146 27.1802 28.4137 29.0387 28.3832 30.054C28.3482 31.1887 28.87 32.5767 30.118 32.5934C31.3433 32.6101 32.0933 31.393 32.1972 30.22C32.2875 29.1988 31.5726 27.6998 30.5245 27.5146ZM31.4721 30.3502C31.3592 31.0896 30.8396 31.952 30.022 31.8373C29.2043 31.7227 29.0462 30.6309 29.0959 29.9405C29.1213 29.5945 29.2023 29.2557 29.3353 28.9384C29.4358 28.6995 29.6572 28.2217 29.9305 28.027C29.9652 28.0974 30.0197 28.1547 30.0864 28.1911C30.1531 28.2274 30.2288 28.2411 30.3032 28.2301C30.6849 28.1811 31.1242 28.8273 31.2914 29.1271C31.4884 29.4987 31.5525 29.9328 31.4721 30.3502Z" fill="white"/>
</g>
<defs>
<clipPath id="clip0_293_2002">
<rect width="25" height="34" fill="white" transform="translate(15 11)"/>
</clipPath>
</defs>
</svg>
