<svg width="55" height="55" viewBox="0 0 55 55" fill="none" xmlns="http://www.w3.org/2000/svg">
<rect width="55" height="55" rx="16" fill="#F6E3DB"/>
<g clip-path="url(#clip0_293_2000)">
<path d="M29.9923 16.4397L41.5808 35.4881C42.757 37.4205 41.3167 39.855 38.9883 39.8683L16.0472 39.9997C13.7186 40.0129 12.2484 37.5961 13.4005 35.6495L24.7528 16.4697C25.9052 14.5229 28.8158 14.5062 29.9923 16.4397Z" fill="#F08F5F"/>
<path d="M27.7808 36.8741C28.6914 36.7547 29.329 35.9477 29.2049 35.0717C29.0808 34.1956 28.242 33.5822 27.3314 33.7016C26.4208 33.8209 25.7832 34.6279 25.9073 35.504C26.0314 36.3801 26.8702 36.9935 27.7808 36.8741Z" fill="white"/>
<path d="M29.1924 30.4734C29.1096 31.3695 28.4573 32.0787 27.5382 32.084C26.619 32.0893 25.9314 31.3577 25.8644 30.4925L24.9876 23.2929C24.9171 21.9676 26.0903 20.885 27.4689 20.8775C28.8475 20.87 30.0187 21.9434 29.9795 23.2646L29.1924 30.4734Z" fill="white"/>
</g>
<defs>
<clipPath id="clip0_293_2000">
<rect width="29" height="25" fill="white" transform="translate(13 15)"/>
</clipPath>
</defs>
</svg>
