<svg width="55" height="55" viewBox="0 0 55 55" fill="none" xmlns="http://www.w3.org/2000/svg">
<rect width="55" height="55" rx="16" fill="#F6E3DB"/>
<circle cx="28.5" cy="23.5" r="8.5" fill="white"/>
<path d="M21.75 23.2812C21.75 21.491 22.4612 19.7741 23.727 18.5083C24.9929 17.2424 26.7098 16.5312 28.5 16.5312C30.2902 16.5312 32.0071 17.2424 33.273 18.5083C34.5388 19.7741 35.25 21.491 35.25 23.2812C35.25 25.0715 34.5388 26.7884 33.273 28.0542C32.0071 29.3201 30.2902 30.0312 28.5 30.0312C26.7098 30.0312 24.9929 29.3201 23.727 28.0542C22.4612 26.7884 21.75 25.0715 21.75 23.2812ZM35.6613 17.375C33.958 15.3131 31.3846 14 28.5 14C25.6154 14 23.042 15.3131 21.3387 17.375H18.375C16.5135 17.375 15 18.8885 15 20.75V37.625C15 39.4865 16.5135 41 18.375 41H38.625C40.4865 41 42 39.4865 42 37.625V20.75C42 18.8885 40.4865 17.375 38.625 17.375H35.6613ZM30.6094 25.8125C30.6094 25.2535 30.3932 24.7473 30.0346 24.3676L31.8064 20.2385C31.991 19.8113 31.7906 19.3156 31.3635 19.1311C30.9363 18.9465 30.4406 19.1469 30.2561 19.574L28.4842 23.7031C27.324 23.7084 26.3906 24.6523 26.3906 25.8125C26.3906 26.9779 27.3346 27.9219 28.5 27.9219C29.6654 27.9219 30.6094 26.9779 30.6094 25.8125Z" fill="#F08F5F"/>
</svg>
